<?plantuml 1.2026.2?><svg xmlns="http://www.w3.org/2000/svg" xmlns:xlink="http://www.w3.org/1999/xlink" contentStyleType="text/css" data-diagram-type="SEQUENCE" height="1171px" preserveAspectRatio="none" style="width:567px;height:1171px;background:#FFFFFF;" version="1.1" viewBox="0 0 567 1171" width="567px" zoomAndPan="magnify"><title>Encrypted Database Backup (Level 1) &#8212; VendNet</title><defs/><g><text fill="#000000" font-family="sans-serif" font-size="14" font-weight="bold" lengthAdjust="spacing" textLength="350.499" x="104.6194" y="28.5352">Encrypted Database Backup (Level 1) &#8212; VendNet</text><g><title>VendNet System</title><rect fill="#FFFFFF" height="914.5371" style="stroke:#181818;stroke-width:1;" width="10" x="301.8755" y="165.5977"/></g><rect fill="none" height="834.916" style="stroke:#000000;stroke-width:1.5;" width="540.7378" x="10" y="238.2188"/><rect fill="none" height="612.4766" style="stroke:#000000;stroke-width:1.5;" width="520.7378" x="20" y="394.082"/><g class="participant-lifeline" data-entity-uid="part1" data-qualified-name="Admin" id="part1-lifeline"><g><title>Administrator</title><rect fill="#000000" fill-opacity="0.00000" height="971.1582" width="8" x="75.8604" y="118.9766"/><line style="stroke:#181818;stroke-width:0.5;stroke-dasharray:5,5;" x1="79" x2="79" y1="118.9766" y2="1090.1348"/></g></g><g class="participant-lifeline" data-entity-uid="part2" data-qualified-name="VendNet" id="part2-lifeline"><g><title>VendNet System</title><rect fill="#000000" fill-opacity="0.00000" height="971.1582" width="8" x="302.8755" y="118.9766"/><line style="stroke:#181818;stroke-width:0.5;stroke-dasharray:5,5;" x1="306.6958" x2="306.6958" y1="118.9766" y2="1090.1348"/></g></g><g class="participant participant-head" data-entity-uid="part1" data-qualified-name="Admin" id="part1-head"><text fill="#000000" font-family="sans-serif" font-size="14" lengthAdjust="spacing" textLength="93.7207" x="30" y="116.0234">Administrator</text><ellipse cx="79.8604" cy="50.9883" fill="#E2E2F0" rx="8" ry="8" style="stroke:#181818;stroke-width:0.5;"/><path d="M79.8604,58.9883 L79.8604,85.9883 M66.8604,66.9883 L92.8604,66.9883 M79.8604,85.9883 L66.8604,100.9883 M79.8604,85.9883 L92.8604,100.9883" fill="none" style="stroke:#181818;stroke-width:0.5;"/></g><g class="participant participant-tail" data-entity-uid="part1" data-qualified-name="Admin" id="part1-tail"><text fill="#000000" font-family="sans-serif" font-size="14" lengthAdjust="spacing" textLength="93.7207" x="30" y="1102.6699">Administrator</text><ellipse cx="79.8604" cy="1114.123" fill="#E2E2F0" rx="8" ry="8" style="stroke:#181818;stroke-width:0.5;"/><path d="M79.8604,1122.123 L79.8604,1149.123 M66.8604,1130.123 L92.8604,1130.123 M79.8604,1149.123 L66.8604,1164.123 M79.8604,1149.123 L92.8604,1164.123" fill="none" style="stroke:#181818;stroke-width:0.5;"/></g><g class="participant participant-head" data-entity-uid="part2" data-qualified-name="VendNet" id="part2-head"><rect fill="#ADD8E6" height="30.4883" rx="2.5" ry="2.5" style="stroke:#181818;stroke-width:0.5;" width="124.3594" x="244.6958" y="87.4883"/><text fill="#000000" font-family="sans-serif" font-size="14" lengthAdjust="spacing" textLength="110.3594" x="251.6958" y="108.0234">VendNet System</text></g><g class="participant participant-tail" data-entity-uid="part2" data-qualified-name="VendNet" id="part2-tail"><rect fill="#ADD8E6" height="30.4883" rx="2.5" ry="2.5" style="stroke:#181818;stroke-width:0.5;" width="124.3594" x="244.6958" y="1089.1348"/><text fill="#000000" font-family="sans-serif" font-size="14" lengthAdjust="spacing" textLength="110.3594" x="251.6958" y="1109.6699">VendNet System</text></g><g><title>VendNet System</title><rect fill="#FFFFFF" height="914.5371" style="stroke:#181818;stroke-width:1;" width="10" x="301.8755" y="165.5977"/></g><g class="message" data-entity-1="part1" data-entity-2="part2" id="msg1"><polygon fill="#181818" points="289.8755,161.5977,299.8755,165.5977,289.8755,169.5977,293.8755,165.5977" style="stroke:#181818;stroke-width:1;"/><line style="stroke:#181818;stroke-width:1;" x1="79.8604" x2="295.8755" y1="165.5977" y2="165.5977"/><text fill="#000000" font-family="sans-serif" font-size="13" lengthAdjust="spacing" textLength="167.0894" x="86.8604" y="145.5449">Request encrypted backup</text><text fill="#000000" font-family="sans-serif" font-size="13" lengthAdjust="spacing" textLength="170.2949" x="86.8604" y="160.8555">[Authorization: Bearer JWT]</text></g><g class="message" data-entity-1="part2" data-entity-2="part2" id="msg2"><line style="stroke:#181818;stroke-width:1;" x1="311.8755" x2="353.8755" y1="210.2188" y2="210.2188"/><line style="stroke:#181818;stroke-width:1;" x1="353.8755" x2="353.8755" y1="210.2188" y2="223.2188"/><line style="stroke:#181818;stroke-width:1;" x1="312.8755" x2="353.8755" y1="223.2188" y2="223.2188"/><polygon fill="#181818" points="322.8755,219.2188,312.8755,223.2188,322.8755,227.2188,318.8755,223.2188" style="stroke:#181818;stroke-width:1;"/><text fill="#000000" font-family="sans-serif" font-size="13" lengthAdjust="spacing" textLength="91.3364" x="318.8755" y="190.166">Validate JWT &amp;</text><text fill="#000000" font-family="sans-serif" font-size="13" lengthAdjust="spacing" textLength="110.4048" x="318.8755" y="205.4766">verify ADMIN role</text></g><path d="M10,238.2188 L72.1387,238.2188 L72.1387,245.5293 L62.1387,255.5293 L10,255.5293 L10,238.2188" fill="#EEEEEE" style="stroke:#000000;stroke-width:1.5;"/><rect fill="none" height="834.916" style="stroke:#000000;stroke-width:1.5;" width="540.7378" x="10" y="238.2188"/><text fill="#000000" font-family="sans-serif" font-size="13" font-weight="bold" lengthAdjust="spacing" textLength="17.1387" x="25" y="251.7871">alt</text><text fill="#000000" font-family="sans-serif" font-size="11" font-weight="bold" lengthAdjust="spacing" textLength="204.7998" x="87.1387" y="250.8535">[Authorized (ADMINISTRATOR role)]</text><rect fill="#EEEEEE" height="3" style="stroke:#EEEEEE;stroke-width:1;" width="560.7378" x="0" y="276.1846"/><line style="stroke:#000000;stroke-width:1;" x1="0" x2="560.7378" y1="276.1846" y2="276.1846"/><line style="stroke:#000000;stroke-width:1;" x1="0" x2="560.7378" y1="279.1846" y2="279.1846"/><rect fill="#EEEEEE" height="23.3105" style="stroke:#000000;stroke-width:2;" width="119.7646" x="220.4866" y="265.5293"/><text fill="#000000" font-family="sans-serif" font-size="13" font-weight="bold" lengthAdjust="spacing" textLength="101.48" x="226.4866" y="282.0977">Path Validation</text><g class="message" data-entity-1="part2" data-entity-2="part2" id="msg3"><line style="stroke:#181818;stroke-width:1;" x1="311.8755" x2="353.8755" y1="366.082" y2="366.082"/><line style="stroke:#181818;stroke-width:1;" x1="353.8755" x2="353.8755" y1="366.082" y2="379.082"/><line style="stroke:#181818;stroke-width:1;" x1="312.8755" x2="353.8755" y1="379.082" y2="379.082"/><polygon fill="#181818" points="322.8755,375.082,312.8755,379.082,322.8755,383.082,318.8755,379.082" style="stroke:#181818;stroke-width:1;"/><text fill="#000000" font-family="sans-serif" font-size="13" lengthAdjust="spacing" textLength="113.6294" x="318.8755" y="315.4082">Build backup path</text><text fill="#000000" font-family="sans-serif" font-size="13" lengthAdjust="spacing" textLength="111.96" x="318.8755" y="330.7188">&amp; validate against</text><text fill="#000000" font-family="sans-serif" font-size="13" lengthAdjust="spacing" textLength="102.7813" x="318.8755" y="346.0293">whitelist pattern</text><text fill="#000000" font-family="sans-serif" font-size="13" lengthAdjust="spacing" textLength="146.834" x="318.8755" y="361.3398">(prevent path traversal)</text></g><path d="M20,394.082 L82.1387,394.082 L82.1387,401.3926 L72.1387,411.3926 L20,411.3926 L20,394.082" fill="#EEEEEE" style="stroke:#000000;stroke-width:1.5;"/><rect fill="none" height="612.4766" style="stroke:#000000;stroke-width:1.5;" width="520.7378" x="20" y="394.082"/><text fill="#000000" font-family="sans-serif" font-size="13" font-weight="bold" lengthAdjust="spacing" textLength="17.1387" x="35" y="407.6504">alt</text><text fill="#000000" font-family="sans-serif" font-size="11" font-weight="bold" lengthAdjust="spacing" textLength="65.2695" x="97.1387" y="406.7168">[Path Valid]</text><rect fill="#EEEEEE" height="3" style="stroke:#EEEEEE;stroke-width:1;" width="560.7378" x="0" y="432.0479"/><line style="stroke:#000000;stroke-width:1;" x1="0" x2="560.7378" y1="432.0479" y2="432.0479"/><line style="stroke:#000000;stroke-width:1;" x1="0" x2="560.7378" y1="435.0479" y2="435.0479"/><rect fill="#EEEEEE" height="23.3105" style="stroke:#000000;stroke-width:2;" width="124.7222" x="218.0078" y="421.3926"/><text fill="#000000" font-family="sans-serif" font-size="13" font-weight="bold" lengthAdjust="spacing" textLength="106.4375" x="224.0078" y="437.9609">Database Dump</text><g class="message" data-entity-1="part2" data-entity-2="part2" id="msg4"><line style="stroke:#181818;stroke-width:1;" x1="311.8755" x2="353.8755" y1="491.3242" y2="491.3242"/><line style="stroke:#181818;stroke-width:1;" x1="353.8755" x2="353.8755" y1="491.3242" y2="504.3242"/><line style="stroke:#181818;stroke-width:1;" x1="312.8755" x2="353.8755" y1="504.3242" y2="504.3242"/><polygon fill="#181818" points="322.8755,500.3242,312.8755,504.3242,322.8755,508.3242,318.8755,504.3242" style="stroke:#181818;stroke-width:1;"/><text fill="#000000" font-family="sans-serif" font-size="13" lengthAdjust="spacing" textLength="150.522" x="318.8755" y="471.2715">Execute database dump</text><text fill="#000000" font-family="sans-serif" font-size="13" lengthAdjust="spacing" textLength="199.8623" x="318.8755" y="486.582">(mysqldump via ProcessBuilder)</text></g><rect fill="#EEEEEE" height="3" style="stroke:#EEEEEE;stroke-width:1;" width="560.7378" x="0" y="532.9795"/><line style="stroke:#000000;stroke-width:1;" x1="0" x2="560.7378" y1="532.9795" y2="532.9795"/><line style="stroke:#000000;stroke-width:1;" x1="0" x2="560.7378" y1="535.9795" y2="535.9795"/><rect fill="#EEEEEE" height="23.3105" style="stroke:#000000;stroke-width:2;" width="158.9805" x="200.8787" y="522.3242"/><text fill="#000000" font-family="sans-serif" font-size="13" font-weight="bold" lengthAdjust="spacing" textLength="140.6958" x="206.8787" y="538.8926">Encryption &amp; Storage</text><g class="message" data-entity-1="part2" data-entity-2="part2" id="msg5"><line style="stroke:#181818;stroke-width:1;" x1="311.8755" x2="353.8755" y1="592.2559" y2="592.2559"/><line style="stroke:#181818;stroke-width:1;" x1="353.8755" x2="353.8755" y1="592.2559" y2="605.2559"/><line style="stroke:#181818;stroke-width:1;" x1="312.8755" x2="353.8755" y1="605.2559" y2="605.2559"/><polygon fill="#181818" points="322.8755,601.2559,312.8755,605.2559,322.8755,609.2559,318.8755,605.2559" style="stroke:#181818;stroke-width:1;"/><text fill="#000000" font-family="sans-serif" font-size="13" lengthAdjust="spacing" textLength="87.6104" x="318.8755" y="572.2031">Encrypt dump</text><text fill="#000000" font-family="sans-serif" font-size="13" lengthAdjust="spacing" textLength="100.7627" x="318.8755" y="587.5137">(AES-256-GCM)</text></g><g class="message" data-entity-1="part2" data-entity-2="part2" id="msg6"><line style="stroke:#181818;stroke-width:1;" x1="311.8755" x2="353.8755" y1="649.877" y2="649.877"/><line style="stroke:#181818;stroke-width:1;" x1="353.8755" x2="353.8755" y1="649.877" y2="662.877"/><line style="stroke:#181818;stroke-width:1;" x1="312.8755" x2="353.8755" y1="662.877" y2="662.877"/><polygon fill="#181818" points="322.8755,658.877,312.8755,662.877,322.8755,666.877,318.8755,662.877" style="stroke:#181818;stroke-width:1;"/><text fill="#000000" font-family="sans-serif" font-size="13" lengthAdjust="spacing" textLength="122.6177" x="318.8755" y="629.8242">Write encrypted file</text><text fill="#000000" font-family="sans-serif" font-size="13" lengthAdjust="spacing" textLength="117.6729" x="318.8755" y="645.1348">(permissions: 600)</text></g><g class="message" data-entity-1="part2" data-entity-2="part2" id="msg7"><line style="stroke:#181818;stroke-width:1;" x1="311.8755" x2="353.8755" y1="692.1875" y2="692.1875"/><line style="stroke:#181818;stroke-width:1;" x1="353.8755" x2="353.8755" y1="692.1875" y2="705.1875"/><line style="stroke:#181818;stroke-width:1;" x1="312.8755" x2="353.8755" y1="705.1875" y2="705.1875"/><polygon fill="#181818" points="322.8755,701.1875,312.8755,705.1875,322.8755,709.1875,318.8755,705.1875" style="stroke:#181818;stroke-width:1;"/><text fill="#000000" font-family="sans-serif" font-size="13" lengthAdjust="spacing" textLength="186.6909" x="318.8755" y="687.4453">Calculate SHA-256 checksum</text></g><rect fill="#EEEEEE" height="3" style="stroke:#EEEEEE;stroke-width:1;" width="560.7378" x="0" y="733.8428"/><line style="stroke:#000000;stroke-width:1;" x1="0" x2="560.7378" y1="733.8428" y2="733.8428"/><line style="stroke:#000000;stroke-width:1;" x1="0" x2="560.7378" y1="736.8428" y2="736.8428"/><rect fill="#EEEEEE" height="23.3105" style="stroke:#000000;stroke-width:2;" width="54.5044" x="253.1167" y="723.1875"/><text fill="#000000" font-family="sans-serif" font-size="13" font-weight="bold" lengthAdjust="spacing" textLength="36.2197" x="259.1167" y="739.7559">Audit</text><g class="message" data-entity-1="part2" data-entity-2="part2" id="msg8"><line style="stroke:#181818;stroke-width:1;" x1="311.8755" x2="353.8755" y1="808.4297" y2="808.4297"/><line style="stroke:#181818;stroke-width:1;" x1="353.8755" x2="353.8755" y1="808.4297" y2="821.4297"/><line style="stroke:#181818;stroke-width:1;" x1="312.8755" x2="353.8755" y1="821.4297" y2="821.4297"/><polygon fill="#181818" points="322.8755,817.4297,312.8755,821.4297,322.8755,825.4297,318.8755,821.4297" style="stroke:#181818;stroke-width:1;"/><text fill="#000000" font-family="sans-serif" font-size="13" lengthAdjust="spacing" textLength="118.0283" x="318.8755" y="773.0664">Record audit event</text><text fill="#000000" font-family="sans-serif" font-size="13" lengthAdjust="spacing" textLength="123.1953" x="318.8755" y="788.377">(BACKUP_CREATED,</text><text fill="#000000" font-family="sans-serif" font-size="13" lengthAdjust="spacing" textLength="162.9824" x="318.8755" y="803.6875">filename, size, checksum)</text></g><g class="message" data-entity-1="part2" data-entity-2="part1" id="msg9"><polygon fill="#181818" points="90.8604,877.3613,80.8604,881.3613,90.8604,885.3613,86.8604,881.3613" style="stroke:#181818;stroke-width:1;"/><line style="stroke:#181818;stroke-width:1;stroke-dasharray:2,2;" x1="84.8604" x2="300.8755" y1="881.3613" y2="881.3613"/><text fill="#000000" font-family="sans-serif" font-size="13" lengthAdjust="spacing" textLength="77.7969" x="96.8604" y="845.998">201 Created</text><text fill="#000000" font-family="sans-serif" font-size="13" lengthAdjust="spacing" textLength="117.146" x="96.8604" y="861.3086">(backup metadata:</text><text fill="#000000" font-family="sans-serif" font-size="13" lengthAdjust="spacing" textLength="162.9824" x="96.8604" y="876.6191">filename, size, checksum)</text></g><line style="stroke:#000000;stroke-width:1;stroke-dasharray:2,2;" x1="20" x2="540.7378" y1="890.3613" y2="890.3613"/><text fill="#000000" font-family="sans-serif" font-size="11" font-weight="bold" lengthAdjust="spacing" textLength="131.3179" x="25" y="900.9961">[Path Validation Failed]</text><g class="message" data-entity-1="part2" data-entity-2="part2" id="msg10"><line style="stroke:#181818;stroke-width:1;" x1="311.8755" x2="353.8755" y1="940.9375" y2="940.9375"/><line style="stroke:#181818;stroke-width:1;" x1="353.8755" x2="353.8755" y1="940.9375" y2="953.9375"/><line style="stroke:#181818;stroke-width:1;" x1="312.8755" x2="353.8755" y1="953.9375" y2="953.9375"/><polygon fill="#181818" points="322.8755,949.9375,312.8755,953.9375,322.8755,957.9375,318.8755,953.9375" style="stroke:#181818;stroke-width:1;"/><text fill="#000000" font-family="sans-serif" font-size="13" lengthAdjust="spacing" textLength="135.3066" x="318.8755" y="920.8848">Record security event</text><text fill="#000000" font-family="sans-serif" font-size="13" lengthAdjust="spacing" textLength="145.2026" x="318.8755" y="936.1953">(SECURITY_VIOLATION)</text></g><g class="message" data-entity-1="part2" data-entity-2="part1" id="msg11"><polygon fill="#181818" points="90.8604,994.5586,80.8604,998.5586,90.8604,1002.5586,86.8604,998.5586" style="stroke:#181818;stroke-width:1;"/><line style="stroke:#181818;stroke-width:1;stroke-dasharray:2,2;" x1="84.8604" x2="300.8755" y1="998.5586" y2="998.5586"/><text fill="#000000" font-family="sans-serif" font-size="13" lengthAdjust="spacing" textLength="106.1709" x="96.8604" y="978.5059">400 Bad Request</text><text fill="#000000" font-family="sans-serif" font-size="13" lengthAdjust="spacing" textLength="188.5635" x="96.8604" y="993.8164">(Invalid backup configuration)</text></g><line style="stroke:#000000;stroke-width:1;stroke-dasharray:2,2;" x1="10" x2="550.7378" y1="1014.5586" y2="1014.5586"/><text fill="#000000" font-family="sans-serif" font-size="11" font-weight="bold" lengthAdjust="spacing" textLength="84.686" x="15" y="1025.1934">[Unauthorized]</text><g class="message" data-entity-1="part2" data-entity-2="part1" id="msg12"><polygon fill="#181818" points="90.8604,1061.1348,80.8604,1065.1348,90.8604,1069.1348,86.8604,1065.1348" style="stroke:#181818;stroke-width:1;"/><line style="stroke:#181818;stroke-width:1;stroke-dasharray:2,2;" x1="84.8604" x2="300.8755" y1="1065.1348" y2="1065.1348"/><text fill="#000000" font-family="sans-serif" font-size="13" lengthAdjust="spacing" textLength="92.6631" x="96.8604" y="1045.082">403 Forbidden</text><text fill="#000000" font-family="sans-serif" font-size="13" lengthAdjust="spacing" textLength="198.0151" x="96.8604" y="1060.3926">(Administrator access required)</text></g><?plantuml-src ZPJRJXin48Rlzob6L4948bAWBHUHgBGvqAOD9Ce9LKs5XlMGM7YzY-qDJQ_w47t2Fad7JdO9g41pjHbx_l-RyTXEEaNGrObPvuu4TD3XDLg25YQtHGu7VLgHWgCQ_Fdr6sQanGMvACB4PGRsOf5ABQqpo7_t02s4I1JbQ9nCP8xQmTus2yPhwoWDsyhGcxvSB5rB5HH58HNg7yh59epehY3hW2gywq0rrz_YmYqp8t-YavbkGelGa87FbvFldaskqD43RUcsgpr39ONVnJcmFzShCl9c3N7dl7S19bCCXCf1wSFU1s6jDvwCuibW5FRKeWZuTteAGtJBKfE9E1HM_kNSAgGgAu6Sy-Pw7rOb3YvGQklc-duf7Ibkhj_ZoEYvFiWDduOEaILmrndQejfIUDm7Z4riIrUTQgT8yvBjERxk3qeA9X5bak0aDa_NzaxvRrX9XA794h8s54EcziXkEqw-3_imvj701RtgkiafpUBkk7xy_gJ-iNrUUp7lqd2RTYRaHYhodIAJIciPmJRXfD5uMQIDAYcKR__uK-nz8LbISckBz55TSI6aUwsG4IMP4O1XRpWkncd5xI_JuLLxr8qdtSxXN7jCZIaTWkNXEgpyTXfPYRDwk1jDE6uSGTiGWmeMtOvGIWxzMJLVLIN5f_bqKi-GayJ_b6HvBhZRwwggSRSz7VKcNwzclK4_dlG65xMNwDyr6loiYF9Qiq1FXxalBqEISGMBmWImZHIhH57WdcgixcBqhCDREClCjHI2_7rvz3u19dvYmR2zD2HgKH0NzFJ1-0i0?></g></svg>