<?plantuml 1.2026.2?><svg xmlns="http://www.w3.org/2000/svg" xmlns:xlink="http://www.w3.org/1999/xlink" contentStyleType="text/css" data-diagram-type="CLASS" height="735px" preserveAspectRatio="none" style="width:1235px;height:735px;background:#FFFFFF;" version="1.1" viewBox="0 0 1235 735" width="1235px" zoomAndPan="magnify"><title>Domain Model &#8212; Level 2: Aggregates &amp; Properties</title><defs/><g><g class="title" data-source-line="4"><text fill="#000000" font-family="sans-serif" font-size="14" font-weight="bold" lengthAdjust="spacing" textLength="362.79" x="429.105" y="23.5352">Domain Model &#8212; Level 2: Aggregates &amp; Properties</text></g><!--cluster Identity & Access--><g class="cluster" data-qualified-name="Identity . Access" data-source-line="14" id="ent0002"><path d="M8.5,315.5083 L133.7773,315.5083 A3.75,3.75 0 0 1 136.2773,318.0083 L143.2773,337.9966 L324.5,337.9966 A2.5,2.5 0 0 1 327,340.4966 L327,725.9983 A2.5,2.5 0 0 1 324.5,728.4983 L8.5,728.4983 A2.5,2.5 0 0 1 6,725.9983 L6,318.0083 A2.5,2.5 0 0 1 8.5,315.5083" fill="#FFEAEA" style="stroke:#000000;stroke-width:1.5;"/><line style="stroke:#000000;stroke-width:1.5;" x1="6" x2="143.2773" y1="337.9966" y2="337.9966"/><text fill="#000000" font-family="sans-serif" font-size="14" font-weight="bold" lengthAdjust="spacing" textLength="124.2773" x="10" y="331.0434">Identity &amp; Access</text><text fill="#000000" font-family="sans-serif" font-size="14" font-style="italic" lengthAdjust="spacing" textLength="33.6191" x="153.6904" y="353.5317">&#171;iac&#187;</text></g><!--cluster Machine Management--><g class="cluster" data-qualified-name="Machine Management" data-source-line="39" id="ent0006"><path d="M716.5,331.9983 L874.0977,331.9983 A3.75,3.75 0 0 1 876.5977,334.4983 L883.5977,354.4866 L987.5,354.4866 A2.5,2.5 0 0 1 990,356.9866 L990,725.9983 A2.5,2.5 0 0 1 987.5,728.4983 L716.5,728.4983 A2.5,2.5 0 0 1 714,725.9983 L714,334.4983 A2.5,2.5 0 0 1 716.5,331.9983" fill="#EAF0FF" style="stroke:#000000;stroke-width:1.5;"/><line style="stroke:#000000;stroke-width:1.5;" x1="714" x2="883.5977" y1="354.4866" y2="354.4866"/><text fill="#000000" font-family="sans-serif" font-size="14" font-weight="bold" lengthAdjust="spacing" textLength="156.5977" x="718" y="347.5334">Machine Management</text><text fill="#000000" font-family="sans-serif" font-size="14" font-style="italic" lengthAdjust="spacing" textLength="40.8105" x="835.5947" y="370.0217">&#171;mm&#187;</text></g><!--cluster Slot Management--><g class="cluster" data-qualified-name="Slot Management" data-source-line="56" id="ent0009"><path d="M835.5,68.2183 L960.7295,68.2183 A3.75,3.75 0 0 1 963.2295,70.7183 L970.2295,90.7066 L1106.5,90.7066 A2.5,2.5 0 0 1 1109,93.2066 L1109,288.2783 A2.5,2.5 0 0 1 1106.5,290.7783 L835.5,290.7783 A2.5,2.5 0 0 1 833,288.2783 L833,70.7183 A2.5,2.5 0 0 1 835.5,68.2183" fill="#E8F0FE" style="stroke:#000000;stroke-width:1.5;"/><line style="stroke:#000000;stroke-width:1.5;" x1="833" x2="970.2295" y1="90.7066" y2="90.7066"/><text fill="#000000" font-family="sans-serif" font-size="14" font-weight="bold" lengthAdjust="spacing" textLength="124.2295" x="837" y="83.7534">Slot Management</text><text fill="#000000" font-family="sans-serif" font-size="14" font-style="italic" lengthAdjust="spacing" textLength="34.877" x="957.5615" y="106.2417">&#171;sm&#187;</text></g><!--cluster Product Catalog--><g class="cluster" data-qualified-name="Product Catalog" data-source-line="67" id="ent0011"><path d="M1016.5,315.5083 L1132.4395,315.5083 A3.75,3.75 0 0 1 1134.9395,318.0083 L1141.9395,337.9966 L1225.5,337.9966 A2.5,2.5 0 0 1 1228,340.4966 L1228,725.9983 A2.5,2.5 0 0 1 1225.5,728.4983 L1016.5,728.4983 A2.5,2.5 0 0 1 1014,725.9983 L1014,318.0083 A2.5,2.5 0 0 1 1016.5,315.5083" fill="#EAFFF0" style="stroke:#000000;stroke-width:1.5;"/><line style="stroke:#000000;stroke-width:1.5;" x1="1014" x2="1141.9395" y1="337.9966" y2="337.9966"/><text fill="#000000" font-family="sans-serif" font-size="14" font-weight="bold" lengthAdjust="spacing" textLength="114.9395" x="1018" y="331.0434">Product Catalog</text><text fill="#000000" font-family="sans-serif" font-size="14" font-style="italic" lengthAdjust="spacing" textLength="30.6523" x="1109.6738" y="353.5317">&#171;pc&#187;</text></g><!--cluster Sales--><g class="cluster" data-qualified-name="Sales" data-source-line="86" id="ent0014"><path d="M353.5,43.4883 L391.4004,43.4883 A3.75,3.75 0 0 1 393.9004,45.9883 L400.9004,65.9766 L687.5,65.9766 A2.5,2.5 0 0 1 690,68.4766 L690,522.9983 A2.5,2.5 0 0 1 687.5,525.4983 L353.5,525.4983 A2.5,2.5 0 0 1 351,522.9983 L351,45.9883 A2.5,2.5 0 0 1 353.5,43.4883" fill="#FFF8E1" style="stroke:#000000;stroke-width:1.5;"/><line style="stroke:#000000;stroke-width:1.5;" x1="351" x2="400.9004" y1="65.9766" y2="65.9766"/><text fill="#000000" font-family="sans-serif" font-size="14" font-weight="bold" lengthAdjust="spacing" textLength="36.9004" x="355" y="59.0234">Sales</text><text fill="#000000" font-family="sans-serif" font-size="14" font-style="italic" lengthAdjust="spacing" textLength="29.5381" x="509.731" y="81.5117">&#171;sa&#187;</text></g><!--class User--><g class="entity" data-qualified-name="Identity . Access.User" data-source-line="15" id="ent0003"><rect fill="#F1F1F1" height="188.5273" rx="2.5" ry="2.5" style="stroke:#181818;stroke-width:0.5;" width="223.6611" x="87.17" y="366.5083"/><ellipse cx="145.0943" cy="386.8188" fill="#ADD1B2" rx="11" ry="11" style="stroke:#181818;stroke-width:1;"/><path d="M147.5675,392.9619 Q146.9864,393.2607 146.3472,393.4101 Q145.7081,393.5596 145.0025,393.5596 Q142.4957,393.5596 141.1759,391.9077 Q139.856,390.2558 139.856,387.1347 Q139.856,384.0054 141.1759,382.3535 Q142.4957,380.7016 145.0025,380.7016 Q145.7081,380.7016 146.3555,380.8511 Q147.003,381.0005 147.5675,381.2993 L147.5675,384.022 Q146.9366,383.4409 146.3431,383.1711 Q145.7496,382.9013 145.1187,382.9013 Q143.774,382.9013 143.0892,383.968 Q142.4044,385.0346 142.4044,387.1347 Q142.4044,389.2265 143.0892,390.2932 Q143.774,391.3598 145.1187,391.3598 Q145.7496,391.3598 146.3431,391.0901 Q146.9366,390.8203 147.5675,390.2392 Z " fill="#000000"/><text fill="#000000" font-family="sans-serif" font-size="12" font-style="italic" lengthAdjust="spacing" textLength="103.3125" x="163.5943" y="383.1098">&#171;Aggregate Root&#187;</text><text fill="#000000" font-family="sans-serif" font-size="14" lengthAdjust="spacing" textLength="30.3652" x="200.0679" y="399.1763">User</text><line style="stroke:#181818;stroke-width:0.5;" x1="88.17" x2="309.8311" y1="407.1294" y2="407.1294"/><text fill="#000000" font-family="sans-serif" font-size="14" lengthAdjust="spacing" textLength="71.627" x="93.17" y="424.6645">+UserId id</text><text fill="#000000" font-family="sans-serif" font-size="14" lengthAdjust="spacing" textLength="149.8574" x="93.17" y="441.1528">+Username username</text><text fill="#000000" font-family="sans-serif" font-size="14" lengthAdjust="spacing" textLength="88.7373" x="93.17" y="457.6411">+Email email</text><text fill="#000000" font-family="sans-serif" font-size="14" lengthAdjust="spacing" textLength="211.6611" x="93.17" y="474.1294">+PasswordHash passwordHash</text><text fill="#000000" font-family="sans-serif" font-size="14" lengthAdjust="spacing" textLength="71.0322" x="93.17" y="490.6177">+Role role</text><text fill="#000000" font-family="sans-serif" font-size="14" lengthAdjust="spacing" textLength="139.665" x="93.17" y="507.1059">+FullName fullName</text><text fill="#000000" font-family="sans-serif" font-size="14" lengthAdjust="spacing" textLength="207.1973" x="93.17" y="523.5942">+AccountStatus accountStatus</text><text fill="#000000" font-family="sans-serif" font-size="14" lengthAdjust="spacing" textLength="148.4219" x="93.17" y="540.0825">+CreatedAt createdAt</text><line style="stroke:#181818;stroke-width:0.5;" x1="88.17" x2="309.8311" y1="547.0356" y2="547.0356"/></g><!--class Role--><g class="entity" data-qualified-name="Identity . Access.Role" data-source-line="26" id="ent0004"><rect fill="#F1F1F1" height="97.4648" rx="2.5" ry="2.5" style="stroke:#181818;stroke-width:0.5;" width="126.0986" x="21.95" y="615.0383"/><ellipse cx="66.1099" cy="631.0383" fill="#EB937F" rx="11" ry="11" style="stroke:#181818;stroke-width:1;"/><path d="M69.7242,637.5383 L62.0044,637.5383 L62.0044,625.1452 L69.7242,625.1452 L69.7242,627.3034 L64.4532,627.3034 L64.4532,629.9763 L69.2261,629.9763 L69.2261,632.1345 L64.4532,632.1345 L64.4532,635.3801 L69.7242,635.3801 Z " fill="#000000"/><text fill="#000000" font-family="sans-serif" font-size="14" lengthAdjust="spacing" textLength="29.2988" x="86.5899" y="636.3293">Role</text><line style="stroke:#181818;stroke-width:0.5;" x1="22.95" x2="147.0486" y1="647.0383" y2="647.0383"/><text fill="#000000" font-family="sans-serif" font-size="14" lengthAdjust="spacing" textLength="75.1543" x="27.95" y="664.5734">CUSTOMER</text><text fill="#000000" font-family="sans-serif" font-size="14" lengthAdjust="spacing" textLength="73.2949" x="27.95" y="681.0617">OPERATOR</text><text fill="#000000" font-family="sans-serif" font-size="14" lengthAdjust="spacing" textLength="114.0986" x="27.95" y="697.55">ADMINISTRATOR</text><line style="stroke:#181818;stroke-width:0.5;" x1="22.95" x2="147.0486" y1="704.5031" y2="704.5031"/></g><!--class AccountStatus--><g class="entity" data-qualified-name="Identity . Access.AccountStatus" data-source-line="32" id="ent0005"><rect fill="#F1F1F1" height="97.4648" rx="2.5" ry="2.5" style="stroke:#181818;stroke-width:0.5;" width="128.7832" x="182.61" y="615.0383"/><ellipse cx="197.61" cy="631.0383" fill="#EB937F" rx="11" ry="11" style="stroke:#181818;stroke-width:1;"/><path d="M201.2243,637.5383 L193.5045,637.5383 L193.5045,625.1452 L201.2243,625.1452 L201.2243,627.3034 L195.9533,627.3034 L195.9533,629.9763 L200.7262,629.9763 L200.7262,632.1345 L195.9533,632.1345 L195.9533,635.3801 L201.2243,635.3801 Z " fill="#000000"/><text fill="#000000" font-family="sans-serif" font-size="14" lengthAdjust="spacing" textLength="96.7832" x="211.61" y="636.3293">AccountStatus</text><line style="stroke:#181818;stroke-width:0.5;" x1="183.61" x2="310.3932" y1="647.0383" y2="647.0383"/><text fill="#000000" font-family="sans-serif" font-size="14" lengthAdjust="spacing" textLength="48.9727" x="188.61" y="664.5734">ACTIVE</text><text fill="#000000" font-family="sans-serif" font-size="14" lengthAdjust="spacing" textLength="79.0098" x="188.61" y="681.0617">SUSPENDED</text><text fill="#000000" font-family="sans-serif" font-size="14" lengthAdjust="spacing" textLength="55.2412" x="188.61" y="697.55">LOCKED</text><line style="stroke:#181818;stroke-width:0.5;" x1="183.61" x2="310.3932" y1="704.5031" y2="704.5031"/></g><!--class VendingMachine--><g class="entity" data-qualified-name="Machine Management.VendingMachine" data-source-line="40" id="ent0007"><rect fill="#F1F1F1" height="155.5508" rx="2.5" ry="2.5" style="stroke:#181818;stroke-width:0.5;" width="244.3672" x="729.82" y="382.9983"/><ellipse cx="791.7023" cy="403.3088" fill="#ADD1B2" rx="11" ry="11" style="stroke:#181818;stroke-width:1;"/><path d="M794.1755,409.4519 Q793.5944,409.7507 792.9553,409.9001 Q792.3161,410.0496 791.6105,410.0496 Q789.1037,410.0496 787.7839,408.3977 Q786.464,406.7458 786.464,403.6247 Q786.464,400.4954 787.7839,398.8435 Q789.1037,397.1916 791.6105,397.1916 Q792.3161,397.1916 792.9636,397.3411 Q793.611,397.4905 794.1755,397.7893 L794.1755,400.512 Q793.5446,399.9309 792.9511,399.6611 Q792.3576,399.3913 791.7267,399.3913 Q790.382,399.3913 789.6972,400.458 Q789.0124,401.5246 789.0124,403.6247 Q789.0124,405.7165 789.6972,406.7832 Q790.382,407.8498 791.7267,407.8498 Q792.3576,407.8498 792.9511,407.5801 Q793.5446,407.3103 794.1755,406.7292 Z " fill="#000000"/><text fill="#000000" font-family="sans-serif" font-size="12" font-style="italic" lengthAdjust="spacing" textLength="103.3125" x="816.5973" y="399.5998">&#171;Aggregate Root&#187;</text><text fill="#000000" font-family="sans-serif" font-size="14" lengthAdjust="spacing" textLength="112.1025" x="812.2023" y="415.6663">VendingMachine</text><line style="stroke:#181818;stroke-width:0.5;" x1="730.82" x2="973.1872" y1="423.6194" y2="423.6194"/><text fill="#000000" font-family="sans-serif" font-size="14" lengthAdjust="spacing" textLength="97.4463" x="735.82" y="441.1545">+MachineId id</text><text fill="#000000" font-family="sans-serif" font-size="14" lengthAdjust="spacing" textLength="197.8252" x="735.82" y="457.6428">+SerialNumber serialNumber</text><text fill="#000000" font-family="sans-serif" font-size="14" lengthAdjust="spacing" textLength="127.2168" x="735.82" y="474.1311">+Location location</text><text fill="#000000" font-family="sans-serif" font-size="14" lengthAdjust="spacing" textLength="154.4785" x="735.82" y="490.6194">+MachineStatus status</text><text fill="#000000" font-family="sans-serif" font-size="14" lengthAdjust="spacing" textLength="160.4258" x="735.82" y="507.1077">+InstalledAt installedAt</text><text fill="#000000" font-family="sans-serif" font-size="14" lengthAdjust="spacing" textLength="232.3672" x="735.82" y="523.5959">+LastTelemetryAt lastTelemetryAt</text><line style="stroke:#181818;stroke-width:0.5;" x1="730.82" x2="973.1872" y1="530.5491" y2="530.5491"/></g><!--class MachineStatus--><g class="entity" data-qualified-name="Machine Management.MachineStatus" data-source-line="49" id="ent0008"><rect fill="#F1F1F1" height="97.4648" rx="2.5" ry="2.5" style="stroke:#181818;stroke-width:0.5;" width="129.7539" x="787.12" y="615.0383"/><ellipse cx="802.12" cy="631.0383" fill="#EB937F" rx="11" ry="11" style="stroke:#181818;stroke-width:1;"/><path d="M805.7343,637.5383 L798.0145,637.5383 L798.0145,625.1452 L805.7343,625.1452 L805.7343,627.3034 L800.4633,627.3034 L800.4633,629.9763 L805.2362,629.9763 L805.2362,632.1345 L800.4633,632.1345 L800.4633,635.3801 L805.7343,635.3801 Z " fill="#000000"/><text fill="#000000" font-family="sans-serif" font-size="14" lengthAdjust="spacing" textLength="97.7539" x="816.12" y="636.3293">MachineStatus</text><line style="stroke:#181818;stroke-width:0.5;" x1="788.12" x2="915.8739" y1="647.0383" y2="647.0383"/><text fill="#000000" font-family="sans-serif" font-size="14" lengthAdjust="spacing" textLength="50.6475" x="793.12" y="664.5734">ONLINE</text><text fill="#000000" font-family="sans-serif" font-size="14" lengthAdjust="spacing" textLength="55.3164" x="793.12" y="681.0617">OFFLINE</text><text fill="#000000" font-family="sans-serif" font-size="14" lengthAdjust="spacing" textLength="100.1533" x="793.12" y="697.55">MAINTENANCE</text><line style="stroke:#181818;stroke-width:0.5;" x1="788.12" x2="915.8739" y1="704.5031" y2="704.5031"/></g><!--class Slot--><g class="entity" data-qualified-name="Slot Management.Slot" data-source-line="57" id="ent0010"><rect fill="#F1F1F1" height="155.5508" rx="2.5" ry="2.5" style="stroke:#181818;stroke-width:0.5;" width="243.793" x="849.1" y="119.2183"/><ellipse cx="917.0902" cy="139.5288" fill="#ADD1B2" rx="11" ry="11" style="stroke:#181818;stroke-width:1;"/><path d="M919.5634,145.6719 Q918.9823,145.9707 918.3432,146.1201 Q917.704,146.2696 916.9984,146.2696 Q914.4916,146.2696 913.1718,144.6177 Q911.852,142.9658 911.852,139.8447 Q911.852,136.7154 913.1718,135.0635 Q914.4916,133.4116 916.9984,133.4116 Q917.704,133.4116 918.3515,133.5611 Q918.9989,133.7105 919.5634,134.0093 L919.5634,136.732 Q918.9325,136.1509 918.339,135.8811 Q917.7455,135.6113 917.1146,135.6113 Q915.7699,135.6113 915.0851,136.678 Q914.4003,137.7446 914.4003,139.8447 Q914.4003,141.9365 915.0851,143.0032 Q915.7699,144.0698 917.1146,144.0698 Q917.7455,144.0698 918.339,143.8001 Q918.9325,143.5303 919.5634,142.9492 Z " fill="#000000"/><text fill="#000000" font-family="sans-serif" font-size="12" font-style="italic" lengthAdjust="spacing" textLength="103.3125" x="935.5902" y="135.8198">&#171;Aggregate Root&#187;</text><text fill="#000000" font-family="sans-serif" font-size="14" lengthAdjust="spacing" textLength="25.4229" x="974.5351" y="151.8863">Slot</text><line style="stroke:#181818;stroke-width:0.5;" x1="850.1" x2="1091.893" y1="159.8394" y2="159.8394"/><text fill="#000000" font-family="sans-serif" font-size="14" lengthAdjust="spacing" textLength="66.6846" x="855.1" y="177.3745">+SlotId id</text><text fill="#000000" font-family="sans-serif" font-size="14" lengthAdjust="spacing" textLength="163.584" x="855.1" y="193.8628">+MachineId machineRef</text><text fill="#000000" font-family="sans-serif" font-size="14" lengthAdjust="spacing" textLength="148.21" x="855.1" y="210.3511">+SlotNumber number</text><text fill="#000000" font-family="sans-serif" font-size="14" lengthAdjust="spacing" textLength="155.2236" x="855.1" y="226.8394">+ProductId productRef</text><text fill="#000000" font-family="sans-serif" font-size="14" lengthAdjust="spacing" textLength="153.9248" x="855.1" y="243.3277">+SlotCapacity capacity</text><text fill="#000000" font-family="sans-serif" font-size="14" lengthAdjust="spacing" textLength="231.793" x="855.1" y="259.8159">+CurrentQuantity currentQuantity</text><line style="stroke:#181818;stroke-width:0.5;" x1="850.1" x2="1091.893" y1="266.7691" y2="266.7691"/></g><!--class Product--><g class="entity" data-qualified-name="Product Catalog.Product" data-source-line="68" id="ent0012"><rect fill="#F1F1F1" height="188.5273" rx="2.5" ry="2.5" style="stroke:#181818;stroke-width:0.5;" width="181.3877" x="1030.31" y="366.5083"/><ellipse cx="1067.8438" cy="386.8188" fill="#ADD1B2" rx="11" ry="11" style="stroke:#181818;stroke-width:1;"/><path d="M1070.317,392.9619 Q1069.7359,393.2607 1069.0968,393.4101 Q1068.4576,393.5596 1067.752,393.5596 Q1065.2452,393.5596 1063.9254,391.9077 Q1062.6056,390.2558 1062.6056,387.1347 Q1062.6056,384.0054 1063.9254,382.3535 Q1065.2452,380.7016 1067.752,380.7016 Q1068.4576,380.7016 1069.1051,380.8511 Q1069.7525,381.0005 1070.317,381.2993 L1070.317,384.022 Q1069.6861,383.4409 1069.0926,383.1711 Q1068.4991,382.9013 1067.8683,382.9013 Q1066.5235,382.9013 1065.8387,383.968 Q1065.1539,385.0346 1065.1539,387.1347 Q1065.1539,389.2265 1065.8387,390.2932 Q1066.5235,391.3598 1067.8683,391.3598 Q1068.4991,391.3598 1069.0926,391.0901 Q1069.6861,390.8203 1070.317,390.2392 Z " fill="#000000"/><text fill="#000000" font-family="sans-serif" font-size="12" font-style="italic" lengthAdjust="spacing" textLength="103.3125" x="1084.8514" y="383.1098">&#171;Aggregate Root&#187;</text><text fill="#000000" font-family="sans-serif" font-size="14" lengthAdjust="spacing" textLength="51.9736" x="1110.5208" y="399.1763">Product</text><line style="stroke:#181818;stroke-width:0.5;" x1="1031.31" x2="1210.6977" y1="407.1294" y2="407.1294"/><text fill="#000000" font-family="sans-serif" font-size="14" lengthAdjust="spacing" textLength="93.2354" x="1036.31" y="424.6645">+ProductId id</text><text fill="#000000" font-family="sans-serif" font-size="14" lengthAdjust="spacing" textLength="143.7666" x="1036.31" y="441.1528">+ProductName name</text><text fill="#000000" font-family="sans-serif" font-size="14" lengthAdjust="spacing" textLength="169.3877" x="1036.31" y="457.6411">+Description description</text><text fill="#000000" font-family="sans-serif" font-size="14" lengthAdjust="spacing" textLength="81.6006" x="1036.31" y="474.1294">+Price price</text><text fill="#000000" font-family="sans-serif" font-size="14" lengthAdjust="spacing" textLength="134.6953" x="1036.31" y="490.6177">+Category category</text><text fill="#000000" font-family="sans-serif" font-size="14" lengthAdjust="spacing" textLength="122.1787" x="1036.31" y="507.1059">+boolean isActive</text><text fill="#000000" font-family="sans-serif" font-size="14" lengthAdjust="spacing" textLength="137.252" x="1036.31" y="523.5942">+ImageUrl imageUrl</text><text fill="#000000" font-family="sans-serif" font-size="14" lengthAdjust="spacing" textLength="148.4219" x="1036.31" y="540.0825">+CreatedAt createdAt</text><line style="stroke:#181818;stroke-width:0.5;" x1="1031.31" x2="1210.6977" y1="547.0356" y2="547.0356"/></g><!--class Category--><g class="entity" data-qualified-name="Product Catalog.Category" data-source-line="79" id="ent0013"><rect fill="#F1F1F1" height="97.4648" rx="2.5" ry="2.5" style="stroke:#181818;stroke-width:0.5;" width="100.5186" x="1070.74" y="615.0383"/><ellipse cx="1089.2016" cy="631.0383" fill="#EB937F" rx="11" ry="11" style="stroke:#181818;stroke-width:1;"/><path d="M1092.8158,637.5383 L1085.0961,637.5383 L1085.0961,625.1452 L1092.8158,625.1452 L1092.8158,627.3034 L1087.5448,627.3034 L1087.5448,629.9763 L1092.3178,629.9763 L1092.3178,632.1345 L1087.5448,632.1345 L1087.5448,635.3801 L1092.8158,635.3801 Z " fill="#000000"/><text fill="#000000" font-family="sans-serif" font-size="14" lengthAdjust="spacing" textLength="60.8262" x="1103.9708" y="636.3293">Category</text><line style="stroke:#181818;stroke-width:0.5;" x1="1071.74" x2="1170.2586" y1="647.0383" y2="647.0383"/><text fill="#000000" font-family="sans-serif" font-size="14" lengthAdjust="spacing" textLength="76.1387" x="1076.74" y="664.5734">BEVERAGES</text><text fill="#000000" font-family="sans-serif" font-size="14" lengthAdjust="spacing" textLength="53.9082" x="1076.74" y="681.0617">SNACKS</text><text fill="#000000" font-family="sans-serif" font-size="14" lengthAdjust="spacing" textLength="88.5186" x="1076.74" y="697.55">FRESH_FOOD</text><line style="stroke:#181818;stroke-width:0.5;" x1="1071.74" x2="1170.2586" y1="704.5031" y2="704.5031"/></g><!--class Sale--><g class="entity" data-qualified-name="Sales.Sale" data-source-line="87" id="ent0015"><rect fill="#F1F1F1" height="205.0156" rx="2.5" ry="2.5" style="stroke:#181818;stroke-width:0.5;" width="200.7607" x="473.62" y="94.4883"/><ellipse cx="520.0941" cy="114.7988" fill="#ADD1B2" rx="11" ry="11" style="stroke:#181818;stroke-width:1;"/><path d="M522.5673,120.9419 Q521.9862,121.2407 521.3471,121.3901 Q520.7079,121.5396 520.0023,121.5396 Q517.4955,121.5396 516.1757,119.8877 Q514.8558,118.2358 514.8558,115.1147 Q514.8558,111.9854 516.1757,110.3335 Q517.4955,108.6816 520.0023,108.6816 Q520.7079,108.6816 521.3554,108.8311 Q522.0028,108.9805 522.5673,109.2793 L522.5673,112.002 Q521.9364,111.4209 521.3429,111.1511 Q520.7494,110.8813 520.1185,110.8813 Q518.7738,110.8813 518.089,111.948 Q517.4042,113.0146 517.4042,115.1147 Q517.4042,117.2065 518.089,118.2732 Q518.7738,119.3398 520.1185,119.3398 Q520.7494,119.3398 521.3429,119.0701 Q521.9364,118.8003 522.5673,118.2192 Z " fill="#000000"/><text fill="#000000" font-family="sans-serif" font-size="12" font-style="italic" lengthAdjust="spacing" textLength="103.3125" x="538.5941" y="111.0898">&#171;Aggregate Root&#187;</text><text fill="#000000" font-family="sans-serif" font-size="14" lengthAdjust="spacing" textLength="27.1182" x="576.6913" y="127.1563">Sale</text><line style="stroke:#181818;stroke-width:0.5;" x1="474.62" x2="673.3807" y1="135.1094" y2="135.1094"/><text fill="#000000" font-family="sans-serif" font-size="14" lengthAdjust="spacing" textLength="68.3799" x="479.62" y="152.6445">+SaleId id</text><text fill="#000000" font-family="sans-serif" font-size="14" lengthAdjust="spacing" textLength="163.584" x="479.62" y="169.1328">+MachineId machineRef</text><text fill="#000000" font-family="sans-serif" font-size="14" lengthAdjust="spacing" textLength="155.2236" x="479.62" y="185.6211">+ProductId productRef</text><text fill="#000000" font-family="sans-serif" font-size="14" lengthAdjust="spacing" textLength="109.9219" x="479.62" y="202.1094">+UserId userRef</text><text fill="#000000" font-family="sans-serif" font-size="14" lengthAdjust="spacing" textLength="129.1309" x="479.62" y="218.5977">+Quantity quantity</text><text fill="#000000" font-family="sans-serif" font-size="14" lengthAdjust="spacing" textLength="134.8594" x="479.62" y="235.0859">+UnitPrice unitPrice</text><text fill="#000000" font-family="sans-serif" font-size="14" lengthAdjust="spacing" textLength="188.7607" x="479.62" y="251.5742">+TotalAmount totalAmount</text><text fill="#000000" font-family="sans-serif" font-size="14" lengthAdjust="spacing" textLength="184.7275" x="479.62" y="268.0625">+PaymentInfo paymentInfo</text><text fill="#000000" font-family="sans-serif" font-size="14" lengthAdjust="spacing" textLength="163.4541" x="479.62" y="284.5508">+Timestamp timestamp</text><line style="stroke:#181818;stroke-width:0.5;" x1="474.62" x2="673.3807" y1="291.5039" y2="291.5039"/></g><!--class PaymentMethod--><g class="entity" data-qualified-name="Sales.PaymentMethod" data-source-line="99" id="ent0016"><rect fill="#F1F1F1" height="97.4648" rx="2.5" ry="2.5" style="stroke:#181818;stroke-width:0.5;" width="140.7734" x="366.61" y="412.0383"/><ellipse cx="381.61" cy="428.0383" fill="#EB937F" rx="11" ry="11" style="stroke:#181818;stroke-width:1;"/><path d="M385.2243,434.5383 L377.5045,434.5383 L377.5045,422.1452 L385.2243,422.1452 L385.2243,424.3034 L379.9533,424.3034 L379.9533,426.9763 L384.7262,426.9763 L384.7262,429.1345 L379.9533,429.1345 L379.9533,432.3801 L385.2243,432.3801 Z " fill="#000000"/><text fill="#000000" font-family="sans-serif" font-size="14" lengthAdjust="spacing" textLength="108.7734" x="395.61" y="433.3293">PaymentMethod</text><line style="stroke:#181818;stroke-width:0.5;" x1="367.61" x2="506.3834" y1="444.0383" y2="444.0383"/><text fill="#000000" font-family="sans-serif" font-size="14" lengthAdjust="spacing" textLength="38.6846" x="372.61" y="461.5734">CARD</text><text fill="#000000" font-family="sans-serif" font-size="14" lengthAdjust="spacing" textLength="37.1738" x="372.61" y="478.0617">CASH</text><text fill="#000000" font-family="sans-serif" font-size="14" lengthAdjust="spacing" textLength="50.0732" x="372.61" y="494.55">MOBILE</text><line style="stroke:#181818;stroke-width:0.5;" x1="367.61" x2="506.3834" y1="501.5031" y2="501.5031"/></g><!--class PaymentStatus--><g class="entity" data-qualified-name="Sales.PaymentStatus" data-source-line="105" id="ent0017"><rect fill="#F1F1F1" height="97.4648" rx="2.5" ry="2.5" style="stroke:#181818;stroke-width:0.5;" width="131.1484" x="542.43" y="412.0383"/><ellipse cx="557.43" cy="428.0383" fill="#EB937F" rx="11" ry="11" style="stroke:#181818;stroke-width:1;"/><path d="M561.0443,434.5383 L553.3245,434.5383 L553.3245,422.1452 L561.0443,422.1452 L561.0443,424.3034 L555.7733,424.3034 L555.7733,426.9763 L560.5462,426.9763 L560.5462,429.1345 L555.7733,429.1345 L555.7733,432.3801 L561.0443,432.3801 Z " fill="#000000"/><text fill="#000000" font-family="sans-serif" font-size="14" lengthAdjust="spacing" textLength="99.1484" x="571.43" y="433.3293">PaymentStatus</text><line style="stroke:#181818;stroke-width:0.5;" x1="543.43" x2="672.5784" y1="444.0383" y2="444.0383"/><text fill="#000000" font-family="sans-serif" font-size="14" lengthAdjust="spacing" textLength="82.3389" x="548.43" y="461.5734">COMPLETED</text><text fill="#000000" font-family="sans-serif" font-size="14" lengthAdjust="spacing" textLength="46.7373" x="548.43" y="478.0617">FAILED</text><text fill="#000000" font-family="sans-serif" font-size="14" lengthAdjust="spacing" textLength="72.5498" x="548.43" y="494.55">REFUNDED</text><line style="stroke:#181818;stroke-width:0.5;" x1="543.43" x2="672.5784" y1="501.5031" y2="501.5031"/></g><!--link User to Role--><g class="link" data-entity-1="ent0003" data-entity-2="ent0004" data-link-type="composition" data-source-line="113" id="lnk18"><path codeLine="113" d="M117.61,567.4283 C117.61,587.8983 117.61,590.7383 117.61,608.5983" fill="none" id="User-Role" style="stroke:#181818;stroke-width:1;"/><polygon fill="#181818" points="117.61,555.4283,113.61,561.4283,117.61,567.4283,121.61,561.4283,117.61,555.4283" style="stroke:#181818;stroke-width:1;"/><polygon fill="#181818" points="117.61,614.5983,121.61,605.5983,117.61,609.5983,113.61,605.5983,117.61,614.5983" style="stroke:#181818;stroke-width:1;"/><text fill="#000000" font-family="sans-serif" font-size="13" lengthAdjust="spacing" textLength="8.2202" x="113.6489" y="604.2189">1</text></g><!--link User to AccountStatus--><g class="link" data-entity-1="ent0003" data-entity-2="ent0005" data-link-type="composition" data-source-line="114" id="lnk19"><path codeLine="114" d="M246.72,567.4283 C246.72,587.8983 246.72,590.7383 246.72,608.5983" fill="none" id="User-AccountStatus" style="stroke:#181818;stroke-width:1;"/><polygon fill="#181818" points="246.72,555.4283,242.72,561.4283,246.72,567.4283,250.72,561.4283,246.72,555.4283" style="stroke:#181818;stroke-width:1;"/><polygon fill="#181818" points="246.72,614.5983,250.72,605.5983,246.72,609.5983,242.72,605.5983,246.72,614.5983" style="stroke:#181818;stroke-width:1;"/><text fill="#000000" font-family="sans-serif" font-size="13" lengthAdjust="spacing" textLength="8.2202" x="238.1334" y="604.2189">1</text></g><!--link VendingMachine to MachineStatus--><g class="link" data-entity-1="ent0007" data-entity-2="ent0008" data-link-type="composition" data-source-line="116" id="lnk20"><path codeLine="116" d="M852,550.9583 C852,576.4283 852,585.9583 852,608.6683" fill="none" id="VendingMachine-MachineStatus" style="stroke:#181818;stroke-width:1;"/><polygon fill="#181818" points="852,538.9583,848,544.9583,852,550.9583,856,544.9583,852,538.9583" style="stroke:#181818;stroke-width:1;"/><polygon fill="#181818" points="852,614.6683,856,605.6683,852,609.6683,848,605.6683,852,614.6683" style="stroke:#181818;stroke-width:1;"/><text fill="#000000" font-family="sans-serif" font-size="13" lengthAdjust="spacing" textLength="8.2202" x="843.4534" y="604.2988">1</text></g><!--link Product to Category--><g class="link" data-entity-1="ent0012" data-entity-2="ent0013" data-link-type="composition" data-source-line="118" id="lnk21"><path codeLine="118" d="M1121,567.4283 C1121,587.8983 1121,590.7383 1121,608.5983" fill="none" id="Product-Category" style="stroke:#181818;stroke-width:1;"/><polygon fill="#181818" points="1121,555.4283,1117,561.4283,1121,567.4283,1125,561.4283,1121,555.4283" style="stroke:#181818;stroke-width:1;"/><polygon fill="#181818" points="1121,614.5983,1125,605.5983,1121,609.5983,1117,605.5983,1121,614.5983" style="stroke:#181818;stroke-width:1;"/><text fill="#000000" font-family="sans-serif" font-size="13" lengthAdjust="spacing" textLength="8.2202" x="1112.4531" y="604.2189">1</text></g><!--link Sale to PaymentMethod--><g class="link" data-entity-1="ent0015" data-entity-2="ent0016" data-link-type="composition" data-source-line="120" id="lnk22"><path codeLine="120" d="M496.13,311.7383 C496.13,350.2083 496.13,374.1783 496.13,405.6183" fill="none" id="Sale-PaymentMethod" style="stroke:#181818;stroke-width:1;"/><polygon fill="#181818" points="496.13,299.7383,492.13,305.7383,496.13,311.7383,500.13,305.7383,496.13,299.7383" style="stroke:#181818;stroke-width:1;"/><polygon fill="#181818" points="496.13,411.6183,500.13,402.6183,496.13,406.6183,492.13,402.6183,496.13,411.6183" style="stroke:#181818;stroke-width:1;"/><text fill="#000000" font-family="sans-serif" font-size="13" lengthAdjust="spacing" textLength="8.2202" x="495.8986" y="401.2417">1</text></g><!--link Sale to PaymentStatus--><g class="link" data-entity-1="ent0015" data-entity-2="ent0017" data-link-type="composition" data-source-line="121" id="lnk23"><path codeLine="121" d="M608,311.7383 C608,350.2083 608,374.1783 608,405.6183" fill="none" id="Sale-PaymentStatus" style="stroke:#181818;stroke-width:1;"/><polygon fill="#181818" points="608,299.7383,604,305.7383,608,311.7383,612,305.7383,608,299.7383" style="stroke:#181818;stroke-width:1;"/><polygon fill="#181818" points="608,411.6183,612,402.6183,608,406.6183,604,402.6183,608,411.6183" style="stroke:#181818;stroke-width:1;"/><text fill="#000000" font-family="sans-serif" font-size="13" lengthAdjust="spacing" textLength="8.2202" x="599.4524" y="401.2417">1</text></g><!--link Slot to VendingMachine--><g class="link" data-entity-1="ent0010" data-entity-2="ent0007" data-link-type="dependency" data-source-line="124" id="lnk24"><path codeLine="124" d="M911.64,275.0683 C911.64,309.0983 911.64,342.8983 911.64,376.8983" fill="none" id="Slot-to-VendingMachine" style="stroke:#181818;stroke-width:1;stroke-dasharray:7,7;"/><polygon fill="#181818" points="911.64,382.8983,915.64,373.8983,911.64,377.8983,907.64,373.8983,911.64,382.8983" style="stroke:#181818;stroke-width:1;"/><text fill="#000000" font-family="sans-serif" font-size="13" lengthAdjust="spacing" textLength="64.0986" x="846.64" y="325.5566">MachineId</text></g><!--link Slot to Product--><g class="link" data-entity-1="ent0010" data-entity-2="ent0012" data-link-type="dependency" data-source-line="125" id="lnk25"><path codeLine="125" d="M1072.03,275.0683 C1072.03,303.6283 1072.03,330.2483 1072.03,360.1083" fill="none" id="Slot-to-Product" style="stroke:#181818;stroke-width:1;stroke-dasharray:7,7;"/><polygon fill="#181818" points="1072.03,366.1083,1076.03,357.1083,1072.03,361.1083,1068.03,357.1083,1072.03,366.1083" style="stroke:#181818;stroke-width:1;"/><text fill="#000000" font-family="sans-serif" font-size="13" lengthAdjust="spacing" textLength="60.1885" x="1011.03" y="317.1566">ProductId</text></g><!--link Sale to VendingMachine--><g class="link" data-entity-1="ent0015" data-entity-2="ent0007" data-link-type="dependency" data-source-line="126" id="lnk26"><path codeLine="126" d="M674.79,291.4983 C730.87,291.4983 789.46,291.4983 789.46,291.4983 C789.46,291.4983 789.46,332.2183 789.46,376.5783" fill="none" id="Sale-to-VendingMachine" style="stroke:#181818;stroke-width:1;stroke-dasharray:7,7;"/><polygon fill="#181818" points="789.46,382.5783,793.46,373.5783,789.46,377.5783,785.46,373.5783,789.46,382.5783" style="stroke:#181818;stroke-width:1;"/><text fill="#000000" font-family="sans-serif" font-size="13" lengthAdjust="spacing" textLength="64.0986" x="712.66" y="288.0666">MachineId</text></g><!--link Sale to Product--><g class="link" data-entity-1="ent0015" data-entity-2="ent0012" data-link-type="dependency" data-source-line="127" id="lnk27"><path codeLine="127" d="M674.61,283.4983 C814.61,283.4983 1051.17,283.4983 1051.17,283.4983 C1051.17,283.4983 1051.17,317.9283 1051.17,360.1683" fill="none" id="Sale-to-Product" style="stroke:#181818;stroke-width:1;stroke-dasharray:7,7;"/><polygon fill="#181818" points="1051.17,366.1683,1055.17,357.1683,1051.17,361.1683,1047.17,357.1683,1051.17,366.1683" style="stroke:#181818;stroke-width:1;"/><text fill="#000000" font-family="sans-serif" font-size="13" lengthAdjust="spacing" textLength="60.1885" x="843.22" y="297.0666">ProductId</text></g><!--link Sale to User--><g class="link" data-entity-1="ent0015" data-entity-2="ent0003" data-link-type="dependency" data-source-line="128" id="lnk28"><path codeLine="128" d="M484.88,299.9983 C484.88,339.1483 484.88,374.4983 484.88,374.4983 C484.88,374.4983 397.25,374.4983 317.16,374.4983" fill="none" id="Sale-to-User" style="stroke:#181818;stroke-width:1;stroke-dasharray:7,7;"/><polygon fill="#181818" points="311.16,374.4983,320.16,378.4983,316.16,374.4983,320.16,370.4983,311.16,374.4983" style="stroke:#181818;stroke-width:1;"/><text fill="#000000" font-family="sans-serif" font-size="13" lengthAdjust="spacing" textLength="40.1235" x="394.27" y="371.0666">UserId</text></g><?plantuml-src ZLNRRjiu47tNLmnSe0MsI97kKn4K0HIPQeJQajUoyrem4cqJfKGjIJN8BWhiH-mNxfViYAHkYTFsHJXpuP1pvYBzbTSDLRG2mMjc7Xi6KfcJ3FHWA0JLEZH6yVlMiAIGTSx_Od0vST4dMie7NX_XG8LcWU56C5ZAYl8Qrh9a0lxxvrzOiM-8Vh-2y7XKx4WDq_0QDaesJ1dET309sT3YApqo-3i0k45yLBAjoqWAgJv-vBIulePNSKn24fvpgAhEJiBuCexFsRMpVq0xEMTl2dy-ZY_FdgVk_lW3UHzy3uB-jOkaP3Lc_uXvXKN1j5v0_zmk4yibx3LJg1vOWAsKndi0lEtCIGcy7CMQLWnQ3voQ8Ba2MFTrYWs6Vf2glANwXFIDWZDl9PP4uSU9SIj4saKzUE3K-6XCq-I6cbO3dKhE8L8CNro61eeUeG4f061rMu6znYKIxVDTjYPRAsGRiWrtcHF2vJf9atpNQyRZy_jTd33Q9NV4mdoVRqYw94ihhRBeiuNVPpLOq-A4pGnhMgDSOK6w8jYM66jmn-eI6xRtVRaQtcDIa9mfJaNQLlTOHZqHd7ab2sguh45uC8lZCzCJIfCQ9I4igNp4FXhLPiS4fc7K8pg8kJmZRtw5Ut-MhfBKaPV5yO3NOPBkI1gc4Nd6NowaUKAUdfDdFLwch3DF-1ePh1pQiiFew7ci9mpYHYZReWlHE3Gx455yQJTYXGU-CLkbyBL_jDGDO36NdsNfBu688k7os6NPpCUqztWvqV6XVQvUOoThdDKbquNYZUsASiJz4Lump1I_FXEyw2XLbw03JdqlSRHe3Lo7XU7Vl7DIOJPx9O1xy6jZEjpXChaXTpYUdqZkfYmDeyyEnbkIttw9i-pvcELKCBlUx3ASD0VgVzGSQFwbvdYv2_o2xFRXe1lg_kTOyCwrviOHtFR86NOIonvMtR81C-9-bJvsdP_K1ucRTC3-9AyO3cdLWEdHZ5f_UCtmDrhsgp3SBZt8Rzq0PZV9YfmxE1lVA5jlLcJd5ruSuXa7joJU-qLeo_86japOTQDFlD7mm0so2NJuqmRsh_FRnSKrBDulx9v-efhjtY1uiY47jzcM2O9-IWPxtrf1O3jXqCzuEM_hOxw1I4cjBuRNWs87XkECVzJ0BfztxwwVhl2hOVCdvMBqwjztDOoyDNVN_pn8x_MJ89P7jBd6N0J_0m00?></g></svg>