<?plantuml 1.2026.2?><svg xmlns="http://www.w3.org/2000/svg" xmlns:xlink="http://www.w3.org/1999/xlink" contentStyleType="text/css" data-diagram-type="DESCRIPTION" height="220px" preserveAspectRatio="none" style="width:412px;height:220px;background:#FFFFFF;" version="1.1" viewBox="0 0 412 220" width="412px" zoomAndPan="magnify"><title>Domain Model &#8212; Level 1: Entities</title><defs/><g><rect fill="#FFFFCC" height="26.6406" rx="2.5" ry="2.5" style="stroke:#FFDD88;stroke-width:3;" width="401.0525" x="5" y="5"/><text fill="#000000" font-family="monospace" font-size="10" lengthAdjust="spacing" textLength="355.21" x="10" y="20">Please&#160;use&#160;'!option&#160;handwritten&#160;true'&#160;to&#160;enable&#160;handwritten</text><g class="title" data-source-line="4"><text fill="#000000" font-family="sans-serif" font-size="14" font-weight="bold" lengthAdjust="spacing" textLength="240.625" x="71.2138" y="60.1758">Domain Model &#8212; Level 1: Entities</text></g><!--entity User--><g class="entity" data-qualified-name="User" data-source-line="11" id="ent0002"><rect fill="#F1F1F1" height="36.4883" rx="7.5" ry="7.5" style="stroke:#181818;stroke-width:0.5;" width="50.3652" x="66.82" y="177.6189"/><text fill="#000000" font-family="sans-serif" font-size="14" lengthAdjust="spacing" textLength="30.3652" x="76.82" y="201.1541">User</text></g><!--entity VendingMachine--><g class="entity" data-qualified-name="VendingMachine" data-source-line="12" id="ent0003"><rect fill="#F1F1F1" height="36.4883" rx="7.5" ry="7.5" style="stroke:#181818;stroke-width:0.5;" width="132.1025" x="258.95" y="177.6189"/><text fill="#000000" font-family="sans-serif" font-size="14" lengthAdjust="spacing" textLength="112.1025" x="268.95" y="201.1541">VendingMachine</text></g><!--entity Slot--><g class="entity" data-qualified-name="Slot" data-source-line="13" id="ent0004"><rect fill="#F1F1F1" height="36.4883" rx="7.5" ry="7.5" style="stroke:#181818;stroke-width:0.5;" width="45.4229" x="274.29" y="81.1289"/><text fill="#000000" font-family="sans-serif" font-size="14" lengthAdjust="spacing" textLength="25.4229" x="284.29" y="104.6641">Slot</text></g><!--entity Product--><g class="entity" data-qualified-name="Product" data-source-line="14" id="ent0005"><rect fill="#F1F1F1" height="36.4883" rx="7.5" ry="7.5" style="stroke:#181818;stroke-width:0.5;" width="71.9736" x="152.01" y="177.6189"/><text fill="#000000" font-family="sans-serif" font-size="14" lengthAdjust="spacing" textLength="51.9736" x="162.01" y="201.1541">Product</text></g><!--entity Sale--><g class="entity" data-qualified-name="Sale" data-source-line="15" id="ent0006"><rect fill="#F1F1F1" height="36.4883" rx="7.5" ry="7.5" style="stroke:#181818;stroke-width:0.5;" width="47.1182" x="164.44" y="81.1289"/><text fill="#000000" font-family="sans-serif" font-size="14" lengthAdjust="spacing" textLength="27.1182" x="174.44" y="104.6641">Sale</text></g><!--link Slot to VendingMachine--><g class="link" data-entity-1="ent0004" data-entity-2="ent0003" data-link-type="dependency" data-source-line="18" id="lnk7"><path d="M297,117.9789 C297,135.0689 297,154.2489 297,171.3189" fill="none" id="Slot-to-VendingMachine" style="stroke:#181818;stroke-width:1;stroke-dasharray:7,7;"/><polygon fill="#181818" points="297,177.3189,301,168.3189,297,172.3189,293,168.3189,297,177.3189" style="stroke:#181818;stroke-width:1;"/><text fill="#000000" font-family="sans-serif" font-size="13" lengthAdjust="spacing" textLength="66.9297" x="230" y="144.2173">belongs to</text></g><!--link Slot to Product--><g class="link" data-entity-1="ent0004" data-entity-2="ent0005" data-link-type="dependency" data-source-line="19" id="lnk8"><path d="M274.08,105.1089 C250.69,105.1089 217.77,105.1089 217.77,105.1089 C217.77,105.1089 217.77,144.9789 217.77,171.4989" fill="none" id="Slot-to-Product" style="stroke:#181818;stroke-width:1;stroke-dasharray:7,7;"/><polygon fill="#181818" points="217.77,177.4989,221.77,168.4989,217.77,172.4989,213.77,168.4989,217.77,177.4989" style="stroke:#181818;stroke-width:1;"/><text fill="#000000" font-family="sans-serif" font-size="13" lengthAdjust="spacing" textLength="65.7427" x="218.77" y="126.7173">references</text></g><!--link Sale to VendingMachine--><g class="link" data-entity-1="ent0006" data-entity-2="ent0003" data-link-type="dependency" data-source-line="20" id="lnk9"><path d="M212.02,93.1089 C235.14,93.1089 266.62,93.1089 266.62,93.1089 C266.62,93.1089 266.62,141.9389 266.62,171.4989" fill="none" id="Sale-to-VendingMachine" style="stroke:#181818;stroke-width:1;stroke-dasharray:7,7;"/><polygon fill="#181818" points="266.62,177.4989,270.62,168.4989,266.62,172.4989,262.62,168.4989,266.62,177.4989" style="stroke:#181818;stroke-width:1;"/><text fill="#000000" font-family="sans-serif" font-size="13" lengthAdjust="spacing" textLength="42.707" x="223.62" y="104.5673">sold at</text></g><!--link Sale to Product--><g class="link" data-entity-1="ent0006" data-entity-2="ent0005" data-link-type="dependency" data-source-line="21" id="lnk10"><path d="M188,117.9789 C188,135.0689 188,154.2489 188,171.3189" fill="none" id="Sale-to-Product" style="stroke:#181818;stroke-width:1;stroke-dasharray:7,7;"/><polygon fill="#181818" points="188,177.3189,192,168.3189,188,172.3189,184,168.3189,188,177.3189" style="stroke:#181818;stroke-width:1;"/><text fill="#000000" font-family="sans-serif" font-size="13" lengthAdjust="spacing" textLength="79.9233" x="108" y="144.2173">product sold</text></g><!--link Sale to User--><g class="link" data-entity-1="ent0006" data-entity-2="ent0002" data-link-type="dependency" data-source-line="22" id="lnk11"><path d="M164.27,99.1089 C135.84,99.1089 92,99.1089 92,99.1089 C92,99.1089 92,143.0889 92,171.2089" fill="none" id="Sale-to-User" style="stroke:#181818;stroke-width:1;stroke-dasharray:7,7;"/><polygon fill="#181818" points="92,177.2089,96,168.2089,92,172.2089,88,168.2089,92,177.2089" style="stroke:#181818;stroke-width:1;"/><text fill="#000000" font-family="sans-serif" font-size="13" lengthAdjust="spacing" textLength="84.6143" x="7" y="98.5973">purchased by</text></g><?plantuml-src TP2xJWCn44LxVyLe6xf8Aq6JWeP7HIIK2Fh9UX9RE3ChZvSe82G-WY_aIx0tA-8WqLtDENFzq1VFFKRSGV1CwT0JI4nEZFu2TMXbxtaB6mnA5N78TXzzIiGJIpu5WblPeMTOYAK0tvzVy42lERLpkEDiU59JjKJg4l8sxxqRWAKCR6yaCaLeh_BWNZYj_1j1Usa-Z3dPpPDIR00LIgZ1Cx7DzrrWv_AZHkLyLCkh86bKIgZ1OnGxT4SsvRCz3CVg4eovW2K5J5vOdU_Lb3QOpQx_d0npQDOKXBSAIPgJDfrGUAGDHUAEDFDS_a-DIh20gNAgZdwAHQgCybCZ7cBdKCd2-j2O7m00?></g></svg>