<?plantuml 1.2026.2?><svg xmlns="http://www.w3.org/2000/svg" xmlns:xlink="http://www.w3.org/1999/xlink" contentStyleType="text/css" data-diagram-type="DESCRIPTION" height="318px" preserveAspectRatio="none" style="width:518px;height:318px;background:#FFFFFF;" version="1.1" viewBox="0 0 518 318" width="518px" zoomAndPan="magnify"><title>Context Map &#8212; Bounded Contexts &amp; Cross-Context References</title><defs/><g><rect fill="#FFFFCC" height="26.6406" rx="2.5" ry="2.5" style="stroke:#FFDD88;stroke-width:3;" width="507" x="5" y="5"/><text fill="#000000" font-family="monospace" font-size="10" lengthAdjust="spacing" textLength="355.21" x="10" y="20">Please&#160;use&#160;'!option&#160;handwritten&#160;true'&#160;to&#160;enable&#160;handwritten</text><g class="title" data-source-line="4"><text fill="#000000" font-family="sans-serif" font-size="14" font-weight="bold" lengthAdjust="spacing" textLength="454.8086" x="17.0957" y="60.1758">Context Map &#8212; Bounded Contexts &amp; Cross-Context References</text></g><!--cluster Identity & Access--><g class="cluster" data-qualified-name="Identity . Access" data-source-line="19" id="ent0002"><path d="M8.5,80.1289 L133.7773,80.1289 A3.75,3.75 0 0 1 136.2773,82.6289 L143.2773,102.6172 L143.5,102.6172 A2.5,2.5 0 0 1 146,105.1172 L146,181.1189 A2.5,2.5 0 0 1 143.5,183.6189 L8.5,183.6189 A2.5,2.5 0 0 1 6,181.1189 L6,82.6289 A2.5,2.5 0 0 1 8.5,80.1289" fill="#FFEAEA" style="stroke:#000000;stroke-width:1.5;"/><line style="stroke:#000000;stroke-width:1.5;" x1="6" x2="143.2773" y1="102.6172" y2="102.6172"/><text fill="#000000" font-family="sans-serif" font-size="14" font-weight="bold" lengthAdjust="spacing" textLength="124.2773" x="10" y="95.6641">Identity &amp; Access</text><text fill="#000000" font-family="sans-serif" font-size="14" font-style="italic" lengthAdjust="spacing" textLength="33.6191" x="63.1904" y="118.1523">&#171;iac&#187;</text></g><!--cluster Machine Management--><g class="cluster" data-qualified-name="Machine Management" data-source-line="23" id="ent0004"><path d="M326.5,80.1289 L484.0977,80.1289 A3.75,3.75 0 0 1 486.5977,82.6289 L493.5977,102.6172 L493.5,102.6172 A2.5,2.5 0 0 1 496,105.1172 L496,181.1189 A2.5,2.5 0 0 1 493.5,183.6189 L326.5,183.6189 A2.5,2.5 0 0 1 324,181.1189 L324,82.6289 A2.5,2.5 0 0 1 326.5,80.1289" fill="#EAF0FF" style="stroke:#000000;stroke-width:1.5;"/><line style="stroke:#000000;stroke-width:1.5;" x1="324" x2="493.5977" y1="102.6172" y2="102.6172"/><text fill="#000000" font-family="sans-serif" font-size="14" font-weight="bold" lengthAdjust="spacing" textLength="156.5977" x="328" y="95.6641">Machine Management</text><text fill="#000000" font-family="sans-serif" font-size="14" font-style="italic" lengthAdjust="spacing" textLength="40.8105" x="393.5947" y="118.1523">&#171;mm&#187;</text></g><!--cluster Slot Management--><g class="cluster" data-qualified-name="Slot Management" data-source-line="27" id="ent0006"><path d="M336.5,207.6189 L461.7295,207.6189 A3.75,3.75 0 0 1 464.2295,210.1189 L471.2295,230.1072 L471.5,230.1072 A2.5,2.5 0 0 1 474,232.6072 L474,308.6089 A2.5,2.5 0 0 1 471.5,311.1089 L336.5,311.1089 A2.5,2.5 0 0 1 334,308.6089 L334,210.1189 A2.5,2.5 0 0 1 336.5,207.6189" fill="#E8F0FE" style="stroke:#000000;stroke-width:1.5;"/><line style="stroke:#000000;stroke-width:1.5;" x1="334" x2="471.2295" y1="230.1072" y2="230.1072"/><text fill="#000000" font-family="sans-serif" font-size="14" font-weight="bold" lengthAdjust="spacing" textLength="124.2295" x="338" y="223.1541">Slot Management</text><text fill="#000000" font-family="sans-serif" font-size="14" font-style="italic" lengthAdjust="spacing" textLength="34.877" x="390.5615" y="245.6423">&#171;sm&#187;</text></g><!--cluster Product Catalog--><g class="cluster" data-qualified-name="Product Catalog" data-source-line="31" id="ent0008"><path d="M172.5,80.1289 L288.4395,80.1289 A3.75,3.75 0 0 1 290.9395,82.6289 L297.9395,102.6172 L297.5,102.6172 A2.5,2.5 0 0 1 300,105.1172 L300,181.1189 A2.5,2.5 0 0 1 297.5,183.6189 L172.5,183.6189 A2.5,2.5 0 0 1 170,181.1189 L170,82.6289 A2.5,2.5 0 0 1 172.5,80.1289" fill="#EAFFF0" style="stroke:#000000;stroke-width:1.5;"/><line style="stroke:#000000;stroke-width:1.5;" x1="170" x2="297.9395" y1="102.6172" y2="102.6172"/><text fill="#000000" font-family="sans-serif" font-size="14" font-weight="bold" lengthAdjust="spacing" textLength="114.9395" x="174" y="95.6641">Product Catalog</text><text fill="#000000" font-family="sans-serif" font-size="14" font-style="italic" lengthAdjust="spacing" textLength="30.6523" x="223.6738" y="118.1523">&#171;pc&#187;</text></g><!--cluster Sales--><g class="cluster" data-qualified-name="Sales" data-source-line="35" id="ent0010"><path d="M210.5,207.6189 L248.4004,207.6189 A3.75,3.75 0 0 1 250.9004,210.1189 L257.9004,230.1072 L285.5,230.1072 A2.5,2.5 0 0 1 288,232.6072 L288,308.6089 A2.5,2.5 0 0 1 285.5,311.1089 L210.5,311.1089 A2.5,2.5 0 0 1 208,308.6089 L208,210.1189 A2.5,2.5 0 0 1 210.5,207.6189" fill="#FFF8E1" style="stroke:#000000;stroke-width:1.5;"/><line style="stroke:#000000;stroke-width:1.5;" x1="208" x2="257.9004" y1="230.1072" y2="230.1072"/><text fill="#000000" font-family="sans-serif" font-size="14" font-weight="bold" lengthAdjust="spacing" textLength="36.9004" x="212" y="223.1541">Sales</text><text fill="#000000" font-family="sans-serif" font-size="14" font-style="italic" lengthAdjust="spacing" textLength="29.5381" x="237.231" y="245.6423">&#171;sa&#187;</text></g><!--entity User--><g class="entity" data-qualified-name="Identity . Access.User" data-source-line="20" id="ent0003"><rect fill="#F1F1F1" height="36.4883" rx="7.5" ry="7.5" style="stroke:#181818;stroke-width:0.5;" width="50.3652" x="79.82" y="131.1289"/><text fill="#000000" font-family="sans-serif" font-size="14" lengthAdjust="spacing" textLength="30.3652" x="89.82" y="154.6641">User</text></g><!--entity VendingMachine--><g class="entity" data-qualified-name="Machine Management.VendingMachine" data-source-line="24" id="ent0005"><rect fill="#F1F1F1" height="36.4883" rx="7.5" ry="7.5" style="stroke:#181818;stroke-width:0.5;" width="132.1025" x="339.95" y="131.1289"/><text fill="#000000" font-family="sans-serif" font-size="14" lengthAdjust="spacing" textLength="112.1025" x="349.95" y="154.6641">VendingMachine</text></g><!--entity Slot--><g class="entity" data-qualified-name="Slot Management.Slot" data-source-line="28" id="ent0007"><rect fill="#F1F1F1" height="36.4883" rx="7.5" ry="7.5" style="stroke:#181818;stroke-width:0.5;" width="45.4229" x="366.29" y="258.6189"/><text fill="#000000" font-family="sans-serif" font-size="14" lengthAdjust="spacing" textLength="25.4229" x="376.29" y="282.1541">Slot</text></g><!--entity Product--><g class="entity" data-qualified-name="Product Catalog.Product" data-source-line="32" id="ent0009"><rect fill="#F1F1F1" height="36.4883" rx="7.5" ry="7.5" style="stroke:#181818;stroke-width:0.5;" width="71.9736" x="212.01" y="131.1289"/><text fill="#000000" font-family="sans-serif" font-size="14" lengthAdjust="spacing" textLength="51.9736" x="222.01" y="154.6641">Product</text></g><!--entity Sale--><g class="entity" data-qualified-name="Sales.Sale" data-source-line="36" id="ent0011"><rect fill="#F1F1F1" height="36.4883" rx="7.5" ry="7.5" style="stroke:#181818;stroke-width:0.5;" width="47.1182" x="224.44" y="258.6189"/><text fill="#000000" font-family="sans-serif" font-size="14" lengthAdjust="spacing" textLength="27.1182" x="234.44" y="282.1541">Sale</text></g><!--link User to Sale--><g class="link" data-entity-1="ent0003" data-entity-2="ent0011" data-link-type="dependency" data-source-line="39" id="lnk12"><path d="M105,167.9489 C105,203.3789 105,277.1089 105,277.1089 C105,277.1089 177.36,277.1089 218.07,277.1089" fill="none" id="User-to-Sale" style="stroke:#181818;stroke-width:1;stroke-dasharray:7,7;"/><polygon fill="#181818" points="224.07,277.1089,215.07,273.1089,219.07,277.1089,215.07,281.1089,224.07,277.1089" style="stroke:#181818;stroke-width:1;"/><text fill="#000000" font-family="sans-serif" font-size="13" lengthAdjust="spacing" textLength="40.1235" x="68.95" y="273.6773">UserId</text></g><!--link VendingMachine to Slot--><g class="link" data-entity-1="ent0005" data-entity-2="ent0007" data-link-type="dependency" data-source-line="40" id="lnk13"><path d="M389,167.9189 C389,192.0889 389,228.1189 389,252.3089" fill="none" id="VendingMachine-to-Slot" style="stroke:#181818;stroke-width:1;stroke-dasharray:7,7;"/><polygon fill="#181818" points="389,258.3089,393,249.3089,389,253.3089,385,249.3089,389,258.3089" style="stroke:#181818;stroke-width:1;"/><text fill="#000000" font-family="sans-serif" font-size="13" lengthAdjust="spacing" textLength="64.0986" x="324" y="209.6773">MachineId</text></g><!--link VendingMachine to Sale--><g class="link" data-entity-1="ent0005" data-entity-2="ent0011" data-link-type="dependency" data-source-line="41" id="lnk14"><path d="M353.12,167.8689 C353.12,201.9189 353.12,271.1089 353.12,271.1089 C353.12,271.1089 308.87,271.1089 277.85,271.1089" fill="none" id="VendingMachine-to-Sale" style="stroke:#181818;stroke-width:1;stroke-dasharray:7,7;"/><polygon fill="#181818" points="271.85,271.1089,280.85,275.1089,276.85,271.1089,280.85,267.1089,271.85,271.1089" style="stroke:#181818;stroke-width:1;"/><text fill="#000000" font-family="sans-serif" font-size="13" lengthAdjust="spacing" textLength="64.0986" x="288.12" y="256.6873">MachineId</text></g><!--link Product to Slot--><g class="link" data-entity-1="ent0009" data-entity-2="ent0007" data-link-type="dependency" data-source-line="42" id="lnk15"><path d="M277.77,167.9689 C277.77,204.7189 277.77,283.1089 277.77,283.1089 C277.77,283.1089 327.37,283.1089 359.95,283.1089" fill="none" id="Product-to-Slot" style="stroke:#181818;stroke-width:1;stroke-dasharray:7,7;"/><polygon fill="#181818" points="365.95,283.1089,356.95,279.1089,360.95,283.1089,356.95,287.1089,365.95,283.1089" style="stroke:#181818;stroke-width:1;"/><text fill="#000000" font-family="sans-serif" font-size="13" lengthAdjust="spacing" textLength="60.1885" x="278.77" y="283.1973">ProductId</text></g><!--link Product to Sale--><g class="link" data-entity-1="ent0009" data-entity-2="ent0011" data-link-type="dependency" data-source-line="43" id="lnk16"><path d="M248,167.9189 C248,192.0889 248,228.1189 248,252.3089" fill="none" id="Product-to-Sale" style="stroke:#181818;stroke-width:1;stroke-dasharray:7,7;"/><polygon fill="#181818" points="248,258.3089,252,249.3089,248,253.3089,244,249.3089,248,258.3089" style="stroke:#181818;stroke-width:1;"/><text fill="#000000" font-family="sans-serif" font-size="13" lengthAdjust="spacing" textLength="60.1885" x="187" y="209.6773">ProductId</text></g><?plantuml-src TP7HIiCm58Rl-nI72juf6oYCCGPTQM0N0zdG-v2SjMLfKfACEKNm8Nn2dyIaJMSxwzt9-V_p9UUFEPIofffM84g9zbmZA6qB5PcBO0hArQcKEUofCDXJ2YhvIPVMeWoQBQr0I9Mq-6fXGslu_lo2bJfAZhph6xY5L2jZxZhZ5lUeKJ8qKGzVKtQWES9x1B1oTQuz9rL2wSMYf6ovX1j2iYHBnWnLvVKi8HD2ndJJwZEdPsDwpS8y8PFHUThUJsRPDFhelriZirJcedtvjftH4ZLC7rs3kALtvHl2zC7FTLl6QuxIvNTswIJCHM5YwDRqd5zg_6nGnq0D-6B0s51Mk7zqoKjthXpGGveehXWlABdxqp3Gq8Qj0NSdbBs2cX6ejpKeNmm0Jrhn8xEGKak5oZsW7jais1f6g8Vle0ARN9hqhsztOdkxA_oOZmVkxvTD0-PjS6iUHyDDMulVS7v9y3zN0FLStMPzIEZzaSDqJ_u1?></g></svg>