<?plantuml 1.2026.2?><svg xmlns="http://www.w3.org/2000/svg" xmlns:xlink="http://www.w3.org/1999/xlink" contentStyleType="text/css" data-diagram-type="CLASS" height="506px" preserveAspectRatio="none" style="width:4369px;height:506px;background:#FFFFFF;" version="1.1" viewBox="0 0 4369 506" width="4369px" zoomAndPan="magnify"><title>Domain Model &#8212; Level 3: Full Detail with Value Objects &amp; ID References</title><defs/><g><g class="title" data-source-line="4"><text fill="#000000" font-family="sans-serif" font-size="14" font-weight="bold" lengthAdjust="spacing" textLength="518.9434" x="1918.0283" y="23.5352">Domain Model &#8212; Level 3: Full Detail with Value Objects &amp; ID References</text></g><!--cluster Identity & Access--><g class="cluster" data-qualified-name="Identity . Access" data-source-line="14" id="ent0002"><path d="M8.5,43.4883 L133.7773,43.4883 A3.75,3.75 0 0 1 136.2773,45.9883 L143.2773,65.9766 L937.5,65.9766 A2.5,2.5 0 0 1 940,68.4766 L940,330.6883 A2.5,2.5 0 0 1 937.5,333.1883 L8.5,333.1883 A2.5,2.5 0 0 1 6,330.6883 L6,45.9883 A2.5,2.5 0 0 1 8.5,43.4883" fill="#FFEAEA" style="stroke:#000000;stroke-width:1.5;"/><line style="stroke:#000000;stroke-width:1.5;" x1="6" x2="143.2773" y1="65.9766" y2="65.9766"/><text fill="#000000" font-family="sans-serif" font-size="14" font-weight="bold" lengthAdjust="spacing" textLength="124.2773" x="10" y="59.0234">Identity &amp; Access</text><text fill="#000000" font-family="sans-serif" font-size="14" font-style="italic" lengthAdjust="spacing" textLength="33.6191" x="460.1904" y="81.5117">&#171;iac&#187;</text></g><!--cluster Machine Management--><g class="cluster" data-qualified-name="Machine Management" data-source-line="44" id="ent0010"><path d="M2278.5,43.4883 L2436.0977,43.4883 A3.75,3.75 0 0 1 2438.5977,45.9883 L2445.5977,65.9766 L2767.5,65.9766 A2.5,2.5 0 0 1 2770,68.4766 L2770,330.6883 A2.5,2.5 0 0 1 2767.5,333.1883 L2278.5,333.1883 A2.5,2.5 0 0 1 2276,330.6883 L2276,45.9883 A2.5,2.5 0 0 1 2278.5,43.4883" fill="#EAF0FF" style="stroke:#000000;stroke-width:1.5;"/><line style="stroke:#000000;stroke-width:1.5;" x1="2276" x2="2445.5977" y1="65.9766" y2="65.9766"/><text fill="#000000" font-family="sans-serif" font-size="14" font-weight="bold" lengthAdjust="spacing" textLength="156.5977" x="2280" y="59.0234">Machine Management</text><text fill="#000000" font-family="sans-serif" font-size="14" font-style="italic" lengthAdjust="spacing" textLength="40.8105" x="2506.5947" y="81.5117">&#171;mm&#187;</text></g><!--cluster Slot Management--><g class="cluster" data-qualified-name="Slot Management" data-source-line="65" id="ent0015"><path d="M2796.5,43.4883 L2921.7295,43.4883 A3.75,3.75 0 0 1 2924.2295,45.9883 L2931.2295,65.9766 L3413.5,65.9766 A2.5,2.5 0 0 1 3416,68.4766 L3416,314.2083 A2.5,2.5 0 0 1 3413.5,316.7083 L2796.5,316.7083 A2.5,2.5 0 0 1 2794,314.2083 L2794,45.9883 A2.5,2.5 0 0 1 2796.5,43.4883" fill="#E8F0FE" style="stroke:#000000;stroke-width:1.5;"/><line style="stroke:#000000;stroke-width:1.5;" x1="2794" x2="2931.2295" y1="65.9766" y2="65.9766"/><text fill="#000000" font-family="sans-serif" font-size="14" font-weight="bold" lengthAdjust="spacing" textLength="124.2295" x="2798" y="59.0234">Slot Management</text><text fill="#000000" font-family="sans-serif" font-size="14" font-style="italic" lengthAdjust="spacing" textLength="34.877" x="3091.5615" y="81.5117">&#171;sm&#187;</text></g><!--cluster Product Catalog--><g class="cluster" data-qualified-name="Product Catalog" data-source-line="83" id="ent0021"><path d="M3570.5,43.4883 L3686.4395,43.4883 A3.75,3.75 0 0 1 3688.9395,45.9883 L3695.9395,65.9766 L4359.5,65.9766 A2.5,2.5 0 0 1 4362,68.4766 L4362,330.6883 A2.5,2.5 0 0 1 4359.5,333.1883 L3570.5,333.1883 A2.5,2.5 0 0 1 3568,330.6883 L3568,45.9883 A2.5,2.5 0 0 1 3570.5,43.4883" fill="#EAFFF0" style="stroke:#000000;stroke-width:1.5;"/><line style="stroke:#000000;stroke-width:1.5;" x1="3568" x2="3695.9395" y1="65.9766" y2="65.9766"/><text fill="#000000" font-family="sans-serif" font-size="14" font-weight="bold" lengthAdjust="spacing" textLength="114.9395" x="3572" y="59.0234">Product Catalog</text><text fill="#000000" font-family="sans-serif" font-size="14" font-style="italic" lengthAdjust="spacing" textLength="30.6523" x="3953.6738" y="81.5117">&#171;pc&#187;</text></g><!--cluster Sales--><g class="cluster" data-qualified-name="Sales" data-source-line="109" id="ent0028"><path d="M1095.5,43.4883 L1133.4004,43.4883 A3.75,3.75 0 0 1 1135.9004,45.9883 L1142.9004,65.9766 L2120.5,65.9766 A2.5,2.5 0 0 1 2123,68.4766 L2123,496.7783 A2.5,2.5 0 0 1 2120.5,499.2783 L1095.5,499.2783 A2.5,2.5 0 0 1 1093,496.7783 L1093,45.9883 A2.5,2.5 0 0 1 1095.5,43.4883" fill="#FFF8E1" style="stroke:#000000;stroke-width:1.5;"/><line style="stroke:#000000;stroke-width:1.5;" x1="1093" x2="1142.9004" y1="65.9766" y2="65.9766"/><text fill="#000000" font-family="sans-serif" font-size="14" font-weight="bold" lengthAdjust="spacing" textLength="36.9004" x="1097" y="59.0234">Sales</text><text fill="#000000" font-family="sans-serif" font-size="14" font-style="italic" lengthAdjust="spacing" textLength="29.5381" x="1597.231" y="81.5117">&#171;sa&#187;</text></g><!--class User--><g class="entity" data-qualified-name="Identity . Access.User" data-source-line="15" id="ent0003"><rect fill="#F1F1F1" height="56.6211" rx="2.5" ry="2.5" style="stroke:#181818;stroke-width:0.5;" width="131.3125" x="487.34" y="94.4883"/><ellipse cx="502.34" cy="114.7988" fill="#ADD1B2" rx="11" ry="11" style="stroke:#181818;stroke-width:1;"/><path d="M504.8131,120.9419 Q504.2321,121.2407 503.5929,121.3901 Q502.9538,121.5396 502.2482,121.5396 Q499.7414,121.5396 498.4215,119.8877 Q497.1017,118.2358 497.1017,115.1147 Q497.1017,111.9854 498.4215,110.3335 Q499.7414,108.6816 502.2482,108.6816 Q502.9538,108.6816 503.6012,108.8311 Q504.2487,108.9805 504.8131,109.2793 L504.8131,112.002 Q504.1823,111.4209 503.5888,111.1511 Q502.9953,110.8813 502.3644,110.8813 Q501.0197,110.8813 500.3349,111.948 Q499.6501,113.0146 499.6501,115.1147 Q499.6501,117.2065 500.3349,118.2732 Q501.0197,119.3398 502.3644,119.3398 Q502.9953,119.3398 503.5888,119.0701 Q504.1823,118.8003 504.8131,118.2192 Z " fill="#000000"/><text fill="#000000" font-family="sans-serif" font-size="12" font-style="italic" lengthAdjust="spacing" textLength="103.3125" x="514.34" y="111.0898">&#171;Aggregate Root&#187;</text><text fill="#000000" font-family="sans-serif" font-size="14" lengthAdjust="spacing" textLength="30.3652" x="550.8136" y="127.1563">User</text><line style="stroke:#181818;stroke-width:0.5;" x1="488.34" x2="617.6525" y1="135.1094" y2="135.1094"/><line style="stroke:#181818;stroke-width:0.5;" x1="488.34" x2="617.6525" y1="143.1094" y2="143.1094"/></g><!--class Role--><g class="entity" data-qualified-name="Identity . Access.Role" data-source-line="18" id="ent0004"><rect fill="#F1F1F1" height="106.0859" rx="2.5" ry="2.5" style="stroke:#181818;stroke-width:0.5;" width="126.0986" x="21.95" y="211.1083"/><ellipse cx="42.2634" cy="231.4188" fill="#EB937F" rx="11" ry="11" style="stroke:#181818;stroke-width:1;"/><path d="M45.8777,237.9188 L38.158,237.9188 L38.158,225.5258 L45.8777,225.5258 L45.8777,227.684 L40.6067,227.684 L40.6067,230.3568 L45.3796,230.3568 L45.3796,232.515 L40.6067,232.515 L40.6067,235.7606 L45.8777,235.7606 Z " fill="#000000"/><text fill="#000000" font-family="sans-serif" font-size="12" font-style="italic" lengthAdjust="spacing" textLength="86.291" x="55.4442" y="227.7098">&#171;Value Object&#187;</text><text fill="#000000" font-family="sans-serif" font-size="14" lengthAdjust="spacing" textLength="29.2988" x="83.9403" y="243.7763">Role</text><line style="stroke:#181818;stroke-width:0.5;" x1="22.95" x2="147.0486" y1="251.7294" y2="251.7294"/><text fill="#000000" font-family="sans-serif" font-size="14" lengthAdjust="spacing" textLength="75.1543" x="27.95" y="269.2645">CUSTOMER</text><text fill="#000000" font-family="sans-serif" font-size="14" lengthAdjust="spacing" textLength="73.2949" x="27.95" y="285.7528">OPERATOR</text><text fill="#000000" font-family="sans-serif" font-size="14" lengthAdjust="spacing" textLength="114.0986" x="27.95" y="302.2411">ADMINISTRATOR</text><line style="stroke:#181818;stroke-width:0.5;" x1="22.95" x2="147.0486" y1="309.1942" y2="309.1942"/></g><!--class AccountStatus--><g class="entity" data-qualified-name="Identity . Access.AccountStatus" data-source-line="24" id="ent0005"><rect fill="#F1F1F1" height="106.0859" rx="2.5" ry="2.5" style="stroke:#181818;stroke-width:0.5;" width="128.7832" x="182.61" y="211.1083"/><ellipse cx="197.61" cy="231.4188" fill="#EB937F" rx="11" ry="11" style="stroke:#181818;stroke-width:1;"/><path d="M201.2243,237.9188 L193.5045,237.9188 L193.5045,225.5258 L201.2243,225.5258 L201.2243,227.684 L195.9533,227.684 L195.9533,230.3568 L200.7262,230.3568 L200.7262,232.515 L195.9533,232.515 L195.9533,235.7606 L201.2243,235.7606 Z " fill="#000000"/><text fill="#000000" font-family="sans-serif" font-size="12" font-style="italic" lengthAdjust="spacing" textLength="86.291" x="216.8561" y="227.7098">&#171;Value Object&#187;</text><text fill="#000000" font-family="sans-serif" font-size="14" lengthAdjust="spacing" textLength="96.7832" x="211.61" y="243.7763">AccountStatus</text><line style="stroke:#181818;stroke-width:0.5;" x1="183.61" x2="310.3932" y1="251.7294" y2="251.7294"/><text fill="#000000" font-family="sans-serif" font-size="14" lengthAdjust="spacing" textLength="48.9727" x="188.61" y="269.2645">ACTIVE</text><text fill="#000000" font-family="sans-serif" font-size="14" lengthAdjust="spacing" textLength="79.0098" x="188.61" y="285.7528">SUSPENDED</text><text fill="#000000" font-family="sans-serif" font-size="14" lengthAdjust="spacing" textLength="55.2412" x="188.61" y="302.2411">LOCKED</text><line style="stroke:#181818;stroke-width:0.5;" x1="183.61" x2="310.3932" y1="309.1942" y2="309.1942"/></g><!--class Username--><g class="entity" data-qualified-name="Identity . Access.Username" data-source-line="30" id="ent0006"><rect fill="#F1F1F1" height="73.1094" rx="2.5" ry="2.5" style="stroke:#181818;stroke-width:0.5;" width="114.291" x="346.85" y="227.5983"/><ellipse cx="361.85" cy="247.9088" fill="#ADD1B2" rx="11" ry="11" style="stroke:#181818;stroke-width:1;"/><path d="M364.3231,254.0519 Q363.7421,254.3507 363.1029,254.5001 Q362.4638,254.6496 361.7582,254.6496 Q359.2514,254.6496 357.9315,252.9977 Q356.6117,251.3458 356.6117,248.2247 Q356.6117,245.0954 357.9315,243.4435 Q359.2514,241.7916 361.7582,241.7916 Q362.4638,241.7916 363.1112,241.9411 Q363.7587,242.0905 364.3231,242.3893 L364.3231,245.112 Q363.6923,244.5309 363.0988,244.2611 Q362.5053,243.9913 361.8744,243.9913 Q360.5297,243.9913 359.8449,245.058 Q359.1601,246.1246 359.1601,248.2247 Q359.1601,250.3165 359.8449,251.3832 Q360.5297,252.4498 361.8744,252.4498 Q362.5053,252.4498 363.0988,252.1801 Q363.6923,251.9103 364.3231,251.3292 Z " fill="#000000"/><text fill="#000000" font-family="sans-serif" font-size="12" font-style="italic" lengthAdjust="spacing" textLength="86.291" x="373.85" y="244.1998">&#171;Value Object&#187;</text><text fill="#000000" font-family="sans-serif" font-size="14" lengthAdjust="spacing" textLength="67.6553" x="383.1679" y="260.2663">Username</text><line style="stroke:#181818;stroke-width:0.5;" x1="347.85" x2="460.141" y1="268.2194" y2="268.2194"/><text fill="#000000" font-family="sans-serif" font-size="14" lengthAdjust="spacing" textLength="91.041" x="352.85" y="285.7545">+String value</text><line style="stroke:#181818;stroke-width:0.5;" x1="347.85" x2="460.141" y1="292.7077" y2="292.7077"/></g><!--class Email--><g class="entity" data-qualified-name="Identity . Access.Email" data-source-line="33" id="ent0007"><rect fill="#F1F1F1" height="73.1094" rx="2.5" ry="2.5" style="stroke:#181818;stroke-width:0.5;" width="114.291" x="495.85" y="227.5983"/><ellipse cx="510.85" cy="247.9088" fill="#ADD1B2" rx="11" ry="11" style="stroke:#181818;stroke-width:1;"/><path d="M513.3231,254.0519 Q512.7421,254.3507 512.1029,254.5001 Q511.4638,254.6496 510.7582,254.6496 Q508.2514,254.6496 506.9315,252.9977 Q505.6117,251.3458 505.6117,248.2247 Q505.6117,245.0954 506.9315,243.4435 Q508.2514,241.7916 510.7582,241.7916 Q511.4638,241.7916 512.1112,241.9411 Q512.7587,242.0905 513.3231,242.3893 L513.3231,245.112 Q512.6923,244.5309 512.0988,244.2611 Q511.5053,243.9913 510.8744,243.9913 Q509.5297,243.9913 508.8449,245.058 Q508.1601,246.1246 508.1601,248.2247 Q508.1601,250.3165 508.8449,251.3832 Q509.5297,252.4498 510.8744,252.4498 Q511.5053,252.4498 512.0988,252.1801 Q512.6923,251.9103 513.3231,251.3292 Z " fill="#000000"/><text fill="#000000" font-family="sans-serif" font-size="12" font-style="italic" lengthAdjust="spacing" textLength="86.291" x="522.85" y="244.1998">&#171;Value Object&#187;</text><text fill="#000000" font-family="sans-serif" font-size="14" lengthAdjust="spacing" textLength="36.4834" x="547.7538" y="260.2663">Email</text><line style="stroke:#181818;stroke-width:0.5;" x1="496.85" x2="609.141" y1="268.2194" y2="268.2194"/><text fill="#000000" font-family="sans-serif" font-size="14" lengthAdjust="spacing" textLength="91.041" x="501.85" y="285.7545">+String value</text><line style="stroke:#181818;stroke-width:0.5;" x1="496.85" x2="609.141" y1="292.7077" y2="292.7077"/></g><!--class PasswordHash--><g class="entity" data-qualified-name="Identity . Access.PasswordHash" data-source-line="36" id="ent0008"><rect fill="#F1F1F1" height="73.1094" rx="2.5" ry="2.5" style="stroke:#181818;stroke-width:0.5;" width="129.5146" x="645.24" y="227.5983"/><ellipse cx="660.24" cy="247.9088" fill="#ADD1B2" rx="11" ry="11" style="stroke:#181818;stroke-width:1;"/><path d="M662.7131,254.0519 Q662.1321,254.3507 661.4929,254.5001 Q660.8538,254.6496 660.1482,254.6496 Q657.6414,254.6496 656.3215,252.9977 Q655.0017,251.3458 655.0017,248.2247 Q655.0017,245.0954 656.3215,243.4435 Q657.6414,241.7916 660.1482,241.7916 Q660.8538,241.7916 661.5012,241.9411 Q662.1487,242.0905 662.7131,242.3893 L662.7131,245.112 Q662.0823,244.5309 661.4888,244.2611 Q660.8953,243.9913 660.2644,243.9913 Q658.9197,243.9913 658.2349,245.058 Q657.5501,246.1246 657.5501,248.2247 Q657.5501,250.3165 658.2349,251.3832 Q658.9197,252.4498 660.2644,252.4498 Q660.8953,252.4498 661.4888,252.1801 Q662.0823,251.9103 662.7131,251.3292 Z " fill="#000000"/><text fill="#000000" font-family="sans-serif" font-size="12" font-style="italic" lengthAdjust="spacing" textLength="86.291" x="679.8518" y="244.1998">&#171;Value Object&#187;</text><text fill="#000000" font-family="sans-serif" font-size="14" lengthAdjust="spacing" textLength="97.5146" x="674.24" y="260.2663">PasswordHash</text><line style="stroke:#181818;stroke-width:0.5;" x1="646.24" x2="773.7546" y1="268.2194" y2="268.2194"/><text fill="#000000" font-family="sans-serif" font-size="14" lengthAdjust="spacing" textLength="91.041" x="651.24" y="285.7545">+String value</text><line style="stroke:#181818;stroke-width:0.5;" x1="646.24" x2="773.7546" y1="292.7077" y2="292.7077"/></g><!--class FullName--><g class="entity" data-qualified-name="Identity . Access.FullName" data-source-line="39" id="ent0009"><rect fill="#F1F1F1" height="73.1094" rx="2.5" ry="2.5" style="stroke:#181818;stroke-width:0.5;" width="114.291" x="809.85" y="227.5983"/><ellipse cx="824.85" cy="247.9088" fill="#ADD1B2" rx="11" ry="11" style="stroke:#181818;stroke-width:1;"/><path d="M827.3231,254.0519 Q826.7421,254.3507 826.1029,254.5001 Q825.4638,254.6496 824.7582,254.6496 Q822.2514,254.6496 820.9315,252.9977 Q819.6117,251.3458 819.6117,248.2247 Q819.6117,245.0954 820.9315,243.4435 Q822.2514,241.7916 824.7582,241.7916 Q825.4638,241.7916 826.1112,241.9411 Q826.7587,242.0905 827.3231,242.3893 L827.3231,245.112 Q826.6923,244.5309 826.0988,244.2611 Q825.5053,243.9913 824.8744,243.9913 Q823.5297,243.9913 822.8449,245.058 Q822.1601,246.1246 822.1601,248.2247 Q822.1601,250.3165 822.8449,251.3832 Q823.5297,252.4498 824.8744,252.4498 Q825.5053,252.4498 826.0988,252.1801 Q826.6923,251.9103 827.3231,251.3292 Z " fill="#000000"/><text fill="#000000" font-family="sans-serif" font-size="12" font-style="italic" lengthAdjust="spacing" textLength="86.291" x="836.85" y="244.1998">&#171;Value Object&#187;</text><text fill="#000000" font-family="sans-serif" font-size="14" lengthAdjust="spacing" textLength="63.2324" x="848.3793" y="260.2663">FullName</text><line style="stroke:#181818;stroke-width:0.5;" x1="810.85" x2="923.141" y1="268.2194" y2="268.2194"/><text fill="#000000" font-family="sans-serif" font-size="14" lengthAdjust="spacing" textLength="91.041" x="815.85" y="285.7545">+String value</text><line style="stroke:#181818;stroke-width:0.5;" x1="810.85" x2="923.141" y1="292.7077" y2="292.7077"/></g><!--class VendingMachine--><g class="entity" data-qualified-name="Machine Management.VendingMachine" data-source-line="45" id="ent0011"><rect fill="#F1F1F1" height="56.6211" rx="2.5" ry="2.5" style="stroke:#181818;stroke-width:0.5;" width="144.1025" x="2374.95" y="94.4883"/><ellipse cx="2389.95" cy="114.7988" fill="#ADD1B2" rx="11" ry="11" style="stroke:#181818;stroke-width:1;"/><path d="M2392.4231,120.9419 Q2391.8421,121.2407 2391.2029,121.3901 Q2390.5638,121.5396 2389.8582,121.5396 Q2387.3514,121.5396 2386.0315,119.8877 Q2384.7117,118.2358 2384.7117,115.1147 Q2384.7117,111.9854 2386.0315,110.3335 Q2387.3514,108.6816 2389.8582,108.6816 Q2390.5638,108.6816 2391.2112,108.8311 Q2391.8587,108.9805 2392.4231,109.2793 L2392.4231,112.002 Q2391.7923,111.4209 2391.1988,111.1511 Q2390.6053,110.8813 2389.9744,110.8813 Q2388.6297,110.8813 2387.9449,111.948 Q2387.2601,113.0146 2387.2601,115.1147 Q2387.2601,117.2065 2387.9449,118.2732 Q2388.6297,119.3398 2389.9744,119.3398 Q2390.6053,119.3398 2391.1988,119.0701 Q2391.7923,118.8003 2392.4231,118.2192 Z " fill="#000000"/><text fill="#000000" font-family="sans-serif" font-size="12" font-style="italic" lengthAdjust="spacing" textLength="103.3125" x="2408.345" y="111.0898">&#171;Aggregate Root&#187;</text><text fill="#000000" font-family="sans-serif" font-size="14" lengthAdjust="spacing" textLength="112.1025" x="2403.95" y="127.1563">VendingMachine</text><line style="stroke:#181818;stroke-width:0.5;" x1="2375.95" x2="2518.0525" y1="135.1094" y2="135.1094"/><line style="stroke:#181818;stroke-width:0.5;" x1="2375.95" x2="2518.0525" y1="143.1094" y2="143.1094"/></g><!--class Location--><g class="entity" data-qualified-name="Machine Management.Location" data-source-line="48" id="ent0012"><rect fill="#F1F1F1" height="106.0859" rx="2.5" ry="2.5" style="stroke:#181818;stroke-width:0.5;" width="138.9639" x="2291.52" y="211.1083"/><ellipse cx="2317.6228" cy="231.4188" fill="#ADD1B2" rx="11" ry="11" style="stroke:#181818;stroke-width:1;"/><path d="M2320.0959,237.5619 Q2319.5149,237.8607 2318.8757,238.0101 Q2318.2366,238.1596 2317.531,238.1596 Q2315.0242,238.1596 2313.7043,236.5077 Q2312.3845,234.8558 2312.3845,231.7347 Q2312.3845,228.6054 2313.7043,226.9535 Q2315.0242,225.3016 2317.531,225.3016 Q2318.2366,225.3016 2318.884,225.4511 Q2319.5315,225.6005 2320.0959,225.8993 L2320.0959,228.622 Q2319.4651,228.0409 2318.8716,227.7711 Q2318.2781,227.5013 2317.6472,227.5013 Q2316.3025,227.5013 2315.6177,228.568 Q2314.9328,229.6346 2314.9328,231.7347 Q2314.9328,233.8265 2315.6177,234.8932 Q2316.3025,235.9598 2317.6472,235.9598 Q2318.2781,235.9598 2318.8716,235.6901 Q2319.4651,235.4203 2320.0959,234.8392 Z " fill="#000000"/><text fill="#000000" font-family="sans-serif" font-size="12" font-style="italic" lengthAdjust="spacing" textLength="86.291" x="2332.0901" y="227.7098">&#171;Value Object&#187;</text><text fill="#000000" font-family="sans-serif" font-size="14" lengthAdjust="spacing" textLength="57.5381" x="2346.4665" y="243.7763">Location</text><line style="stroke:#181818;stroke-width:0.5;" x1="2292.52" x2="2429.4839" y1="251.7294" y2="251.7294"/><text fill="#000000" font-family="sans-serif" font-size="14" lengthAdjust="spacing" textLength="108.6846" x="2297.52" y="269.2645">+String address</text><text fill="#000000" font-family="sans-serif" font-size="14" lengthAdjust="spacing" textLength="113.9141" x="2297.52" y="285.7528">+double latitude</text><text fill="#000000" font-family="sans-serif" font-size="14" lengthAdjust="spacing" textLength="126.9639" x="2297.52" y="302.2411">+double longitude</text><line style="stroke:#181818;stroke-width:0.5;" x1="2292.52" x2="2429.4839" y1="309.1942" y2="309.1942"/></g><!--class MachineStatus--><g class="entity" data-qualified-name="Machine Management.MachineStatus" data-source-line="54" id="ent0013"><rect fill="#F1F1F1" height="106.0859" rx="2.5" ry="2.5" style="stroke:#181818;stroke-width:0.5;" width="129.7539" x="2465.12" y="211.1083"/><ellipse cx="2480.12" cy="231.4188" fill="#EB937F" rx="11" ry="11" style="stroke:#181818;stroke-width:1;"/><path d="M2483.7343,237.9188 L2476.0145,237.9188 L2476.0145,225.5258 L2483.7343,225.5258 L2483.7343,227.684 L2478.4633,227.684 L2478.4633,230.3568 L2483.2362,230.3568 L2483.2362,232.515 L2478.4633,232.515 L2478.4633,235.7606 L2483.7343,235.7606 Z " fill="#000000"/><text fill="#000000" font-family="sans-serif" font-size="12" font-style="italic" lengthAdjust="spacing" textLength="86.291" x="2499.8514" y="227.7098">&#171;Value Object&#187;</text><text fill="#000000" font-family="sans-serif" font-size="14" lengthAdjust="spacing" textLength="97.7539" x="2494.12" y="243.7763">MachineStatus</text><line style="stroke:#181818;stroke-width:0.5;" x1="2466.12" x2="2593.8739" y1="251.7294" y2="251.7294"/><text fill="#000000" font-family="sans-serif" font-size="14" lengthAdjust="spacing" textLength="50.6475" x="2471.12" y="269.2645">ONLINE</text><text fill="#000000" font-family="sans-serif" font-size="14" lengthAdjust="spacing" textLength="55.3164" x="2471.12" y="285.7528">OFFLINE</text><text fill="#000000" font-family="sans-serif" font-size="14" lengthAdjust="spacing" textLength="100.1533" x="2471.12" y="302.2411">MAINTENANCE</text><line style="stroke:#181818;stroke-width:0.5;" x1="2466.12" x2="2593.8739" y1="309.1942" y2="309.1942"/></g><!--class SerialNumber--><g class="entity" data-qualified-name="Machine Management.SerialNumber" data-source-line="60" id="ent0014"><rect fill="#F1F1F1" height="73.1094" rx="2.5" ry="2.5" style="stroke:#181818;stroke-width:0.5;" width="123.335" x="2630.33" y="227.5983"/><ellipse cx="2645.33" cy="247.9088" fill="#ADD1B2" rx="11" ry="11" style="stroke:#181818;stroke-width:1;"/><path d="M2647.8031,254.0519 Q2647.2221,254.3507 2646.5829,254.5001 Q2645.9438,254.6496 2645.2382,254.6496 Q2642.7314,254.6496 2641.4115,252.9977 Q2640.0917,251.3458 2640.0917,248.2247 Q2640.0917,245.0954 2641.4115,243.4435 Q2642.7314,241.7916 2645.2382,241.7916 Q2645.9438,241.7916 2646.5912,241.9411 Q2647.2387,242.0905 2647.8031,242.3893 L2647.8031,245.112 Q2647.1723,244.5309 2646.5788,244.2611 Q2645.9853,243.9913 2645.3544,243.9913 Q2644.0097,243.9913 2643.3249,245.058 Q2642.6401,246.1246 2642.6401,248.2247 Q2642.6401,250.3165 2643.3249,251.3832 Q2644.0097,252.4498 2645.3544,252.4498 Q2645.9853,252.4498 2646.5788,252.1801 Q2647.1723,251.9103 2647.8031,251.3292 Z " fill="#000000"/><text fill="#000000" font-family="sans-serif" font-size="12" font-style="italic" lengthAdjust="spacing" textLength="86.291" x="2661.852" y="244.1998">&#171;Value Object&#187;</text><text fill="#000000" font-family="sans-serif" font-size="14" lengthAdjust="spacing" textLength="91.335" x="2659.33" y="260.2663">SerialNumber</text><line style="stroke:#181818;stroke-width:0.5;" x1="2631.33" x2="2752.665" y1="268.2194" y2="268.2194"/><text fill="#000000" font-family="sans-serif" font-size="14" lengthAdjust="spacing" textLength="91.041" x="2636.33" y="285.7545">+String value</text><line style="stroke:#181818;stroke-width:0.5;" x1="2631.33" x2="2752.665" y1="292.7077" y2="292.7077"/></g><!--class Slot--><g class="entity" data-qualified-name="Slot Management.Slot" data-source-line="66" id="ent0016"><rect fill="#F1F1F1" height="56.6211" rx="2.5" ry="2.5" style="stroke:#181818;stroke-width:0.5;" width="131.3125" x="3046.34" y="94.4883"/><ellipse cx="3061.34" cy="114.7988" fill="#ADD1B2" rx="11" ry="11" style="stroke:#181818;stroke-width:1;"/><path d="M3063.8131,120.9419 Q3063.2321,121.2407 3062.5929,121.3901 Q3061.9538,121.5396 3061.2482,121.5396 Q3058.7414,121.5396 3057.4215,119.8877 Q3056.1017,118.2358 3056.1017,115.1147 Q3056.1017,111.9854 3057.4215,110.3335 Q3058.7414,108.6816 3061.2482,108.6816 Q3061.9538,108.6816 3062.6012,108.8311 Q3063.2487,108.9805 3063.8131,109.2793 L3063.8131,112.002 Q3063.1823,111.4209 3062.5888,111.1511 Q3061.9953,110.8813 3061.3644,110.8813 Q3060.0197,110.8813 3059.3349,111.948 Q3058.6501,113.0146 3058.6501,115.1147 Q3058.6501,117.2065 3059.3349,118.2732 Q3060.0197,119.3398 3061.3644,119.3398 Q3061.9953,119.3398 3062.5888,119.0701 Q3063.1823,118.8003 3063.8131,118.2192 Z " fill="#000000"/><text fill="#000000" font-family="sans-serif" font-size="12" font-style="italic" lengthAdjust="spacing" textLength="103.3125" x="3073.34" y="111.0898">&#171;Aggregate Root&#187;</text><text fill="#000000" font-family="sans-serif" font-size="14" lengthAdjust="spacing" textLength="25.4229" x="3112.2848" y="127.1563">Slot</text><line style="stroke:#181818;stroke-width:0.5;" x1="3047.34" x2="3176.6525" y1="135.1094" y2="135.1094"/><line style="stroke:#181818;stroke-width:0.5;" x1="3047.34" x2="3176.6525" y1="143.1094" y2="143.1094"/></g><!--class SlotId--><g class="entity" data-qualified-name="Slot Management.SlotId" data-source-line="69" id="ent0017"><rect fill="#F1F1F1" height="73.1094" rx="2.5" ry="2.5" style="stroke:#181818;stroke-width:0.5;" width="114.291" x="3136.85" y="227.5983"/><ellipse cx="3151.85" cy="247.9088" fill="#ADD1B2" rx="11" ry="11" style="stroke:#181818;stroke-width:1;"/><path d="M3154.3231,254.0519 Q3153.7421,254.3507 3153.1029,254.5001 Q3152.4638,254.6496 3151.7582,254.6496 Q3149.2514,254.6496 3147.9315,252.9977 Q3146.6117,251.3458 3146.6117,248.2247 Q3146.6117,245.0954 3147.9315,243.4435 Q3149.2514,241.7916 3151.7582,241.7916 Q3152.4638,241.7916 3153.1112,241.9411 Q3153.7587,242.0905 3154.3231,242.3893 L3154.3231,245.112 Q3153.6923,244.5309 3153.0988,244.2611 Q3152.5053,243.9913 3151.8744,243.9913 Q3150.5297,243.9913 3149.8449,245.058 Q3149.1601,246.1246 3149.1601,248.2247 Q3149.1601,250.3165 3149.8449,251.3832 Q3150.5297,252.4498 3151.8744,252.4498 Q3152.5053,252.4498 3153.0988,252.1801 Q3153.6923,251.9103 3154.3231,251.3292 Z " fill="#000000"/><text fill="#000000" font-family="sans-serif" font-size="12" font-style="italic" lengthAdjust="spacing" textLength="86.291" x="3163.85" y="244.1998">&#171;Value Object&#187;</text><text fill="#000000" font-family="sans-serif" font-size="14" lengthAdjust="spacing" textLength="38.2676" x="3187.8617" y="260.2663">SlotId</text><line style="stroke:#181818;stroke-width:0.5;" x1="3137.85" x2="3250.141" y1="268.2194" y2="268.2194"/><text fill="#000000" font-family="sans-serif" font-size="14" lengthAdjust="spacing" textLength="84.9912" x="3142.85" y="285.7545">+UUID value</text><line style="stroke:#181818;stroke-width:0.5;" x1="3137.85" x2="3250.141" y1="292.7077" y2="292.7077"/></g><!--class SlotNumber--><g class="entity" data-qualified-name="Slot Management.SlotNumber" data-source-line="72" id="ent0018"><rect fill="#F1F1F1" height="73.1094" rx="2.5" ry="2.5" style="stroke:#181818;stroke-width:0.5;" width="114.291" x="3285.85" y="227.5983"/><ellipse cx="3300.85" cy="247.9088" fill="#ADD1B2" rx="11" ry="11" style="stroke:#181818;stroke-width:1;"/><path d="M3303.3231,254.0519 Q3302.7421,254.3507 3302.1029,254.5001 Q3301.4638,254.6496 3300.7582,254.6496 Q3298.2514,254.6496 3296.9315,252.9977 Q3295.6117,251.3458 3295.6117,248.2247 Q3295.6117,245.0954 3296.9315,243.4435 Q3298.2514,241.7916 3300.7582,241.7916 Q3301.4638,241.7916 3302.1112,241.9411 Q3302.7587,242.0905 3303.3231,242.3893 L3303.3231,245.112 Q3302.6923,244.5309 3302.0988,244.2611 Q3301.5053,243.9913 3300.8744,243.9913 Q3299.5297,243.9913 3298.8449,245.058 Q3298.1601,246.1246 3298.1601,248.2247 Q3298.1601,250.3165 3298.8449,251.3832 Q3299.5297,252.4498 3300.8744,252.4498 Q3301.5053,252.4498 3302.0988,252.1801 Q3302.6923,251.9103 3303.3231,251.3292 Z " fill="#000000"/><text fill="#000000" font-family="sans-serif" font-size="12" font-style="italic" lengthAdjust="spacing" textLength="86.291" x="3312.85" y="244.1998">&#171;Value Object&#187;</text><text fill="#000000" font-family="sans-serif" font-size="14" lengthAdjust="spacing" textLength="79.8643" x="3316.0634" y="260.2663">SlotNumber</text><line style="stroke:#181818;stroke-width:0.5;" x1="3286.85" x2="3399.141" y1="268.2194" y2="268.2194"/><text fill="#000000" font-family="sans-serif" font-size="14" lengthAdjust="spacing" textLength="69.043" x="3291.85" y="285.7545">+int value</text><line style="stroke:#181818;stroke-width:0.5;" x1="3286.85" x2="3399.141" y1="292.7077" y2="292.7077"/></g><!--class SlotCapacity--><g class="entity" data-qualified-name="Slot Management.SlotCapacity" data-source-line="75" id="ent0019"><rect fill="#F1F1F1" height="73.1094" rx="2.5" ry="2.5" style="stroke:#181818;stroke-width:0.5;" width="115.1523" x="2810.42" y="227.5983"/><ellipse cx="2825.42" cy="247.9088" fill="#ADD1B2" rx="11" ry="11" style="stroke:#181818;stroke-width:1;"/><path d="M2827.8931,254.0519 Q2827.3121,254.3507 2826.6729,254.5001 Q2826.0338,254.6496 2825.3282,254.6496 Q2822.8214,254.6496 2821.5015,252.9977 Q2820.1817,251.3458 2820.1817,248.2247 Q2820.1817,245.0954 2821.5015,243.4435 Q2822.8214,241.7916 2825.3282,241.7916 Q2826.0338,241.7916 2826.6812,241.9411 Q2827.3287,242.0905 2827.8931,242.3893 L2827.8931,245.112 Q2827.2623,244.5309 2826.6688,244.2611 Q2826.0753,243.9913 2825.4444,243.9913 Q2824.0997,243.9913 2823.4149,245.058 Q2822.7301,246.1246 2822.7301,248.2247 Q2822.7301,250.3165 2823.4149,251.3832 Q2824.0997,252.4498 2825.4444,252.4498 Q2826.0753,252.4498 2826.6688,252.1801 Q2827.2623,251.9103 2827.8931,251.3292 Z " fill="#000000"/><text fill="#000000" font-family="sans-serif" font-size="12" font-style="italic" lengthAdjust="spacing" textLength="86.291" x="2837.8507" y="244.1998">&#171;Value Object&#187;</text><text fill="#000000" font-family="sans-serif" font-size="14" lengthAdjust="spacing" textLength="83.1523" x="2839.42" y="260.2663">SlotCapacity</text><line style="stroke:#181818;stroke-width:0.5;" x1="2811.42" x2="2924.5723" y1="268.2194" y2="268.2194"/><text fill="#000000" font-family="sans-serif" font-size="14" lengthAdjust="spacing" textLength="69.043" x="2816.42" y="285.7545">+int value</text><line style="stroke:#181818;stroke-width:0.5;" x1="2811.42" x2="2924.5723" y1="292.7077" y2="292.7077"/></g><!--class CurrentQuantity--><g class="entity" data-qualified-name="Slot Management.CurrentQuantity" data-source-line="78" id="ent0020"><rect fill="#F1F1F1" height="73.1094" rx="2.5" ry="2.5" style="stroke:#181818;stroke-width:0.5;" width="141.375" x="2960.31" y="227.5983"/><ellipse cx="2975.31" cy="247.9088" fill="#ADD1B2" rx="11" ry="11" style="stroke:#181818;stroke-width:1;"/><path d="M2977.7831,254.0519 Q2977.2021,254.3507 2976.5629,254.5001 Q2975.9238,254.6496 2975.2182,254.6496 Q2972.7114,254.6496 2971.3915,252.9977 Q2970.0717,251.3458 2970.0717,248.2247 Q2970.0717,245.0954 2971.3915,243.4435 Q2972.7114,241.7916 2975.2182,241.7916 Q2975.9238,241.7916 2976.5712,241.9411 Q2977.2187,242.0905 2977.7831,242.3893 L2977.7831,245.112 Q2977.1523,244.5309 2976.5588,244.2611 Q2975.9653,243.9913 2975.3344,243.9913 Q2973.9897,243.9913 2973.3049,245.058 Q2972.6201,246.1246 2972.6201,248.2247 Q2972.6201,250.3165 2973.3049,251.3832 Q2973.9897,252.4498 2975.3344,252.4498 Q2975.9653,252.4498 2976.5588,252.1801 Q2977.1523,251.9103 2977.7831,251.3292 Z " fill="#000000"/><text fill="#000000" font-family="sans-serif" font-size="12" font-style="italic" lengthAdjust="spacing" textLength="86.291" x="3000.852" y="244.1998">&#171;Value Object&#187;</text><text fill="#000000" font-family="sans-serif" font-size="14" lengthAdjust="spacing" textLength="109.375" x="2989.31" y="260.2663">CurrentQuantity</text><line style="stroke:#181818;stroke-width:0.5;" x1="2961.31" x2="3100.685" y1="268.2194" y2="268.2194"/><text fill="#000000" font-family="sans-serif" font-size="14" lengthAdjust="spacing" textLength="69.043" x="2966.31" y="285.7545">+int value</text><line style="stroke:#181818;stroke-width:0.5;" x1="2961.31" x2="3100.685" y1="292.7077" y2="292.7077"/></g><!--class Product--><g class="entity" data-qualified-name="Product Catalog.Product" data-source-line="84" id="ent0022"><rect fill="#F1F1F1" height="56.6211" rx="2.5" ry="2.5" style="stroke:#181818;stroke-width:0.5;" width="131.3125" x="3830.34" y="94.4883"/><ellipse cx="3845.34" cy="114.7988" fill="#ADD1B2" rx="11" ry="11" style="stroke:#181818;stroke-width:1;"/><path d="M3847.8131,120.9419 Q3847.2321,121.2407 3846.5929,121.3901 Q3845.9538,121.5396 3845.2482,121.5396 Q3842.7414,121.5396 3841.4215,119.8877 Q3840.1017,118.2358 3840.1017,115.1147 Q3840.1017,111.9854 3841.4215,110.3335 Q3842.7414,108.6816 3845.2482,108.6816 Q3845.9538,108.6816 3846.6012,108.8311 Q3847.2487,108.9805 3847.8131,109.2793 L3847.8131,112.002 Q3847.1823,111.4209 3846.5888,111.1511 Q3845.9953,110.8813 3845.3644,110.8813 Q3844.0197,110.8813 3843.3349,111.948 Q3842.6501,113.0146 3842.6501,115.1147 Q3842.6501,117.2065 3843.3349,118.2732 Q3844.0197,119.3398 3845.3644,119.3398 Q3845.9953,119.3398 3846.5888,119.0701 Q3847.1823,118.8003 3847.8131,118.2192 Z " fill="#000000"/><text fill="#000000" font-family="sans-serif" font-size="12" font-style="italic" lengthAdjust="spacing" textLength="103.3125" x="3857.34" y="111.0898">&#171;Aggregate Root&#187;</text><text fill="#000000" font-family="sans-serif" font-size="14" lengthAdjust="spacing" textLength="51.9736" x="3883.0094" y="127.1563">Product</text><line style="stroke:#181818;stroke-width:0.5;" x1="3831.34" x2="3960.6525" y1="135.1094" y2="135.1094"/><line style="stroke:#181818;stroke-width:0.5;" x1="3831.34" x2="3960.6525" y1="143.1094" y2="143.1094"/></g><!--class Price--><g class="entity" data-qualified-name="Product Catalog.Price" data-source-line="87" id="ent0023"><rect fill="#F1F1F1" height="89.5977" rx="2.5" ry="2.5" style="stroke:#181818;stroke-width:0.5;" width="154.7549" x="3733.62" y="219.3483"/><ellipse cx="3766.8287" cy="239.6588" fill="#ADD1B2" rx="11" ry="11" style="stroke:#181818;stroke-width:1;"/><path d="M3769.3019,245.8019 Q3768.7208,246.1007 3768.0817,246.2501 Q3767.4425,246.3996 3766.7369,246.3996 Q3764.2301,246.3996 3762.9103,244.7477 Q3761.5905,243.0958 3761.5905,239.9747 Q3761.5905,236.8454 3762.9103,235.1935 Q3764.2301,233.5416 3766.7369,233.5416 Q3767.4425,233.5416 3768.09,233.6911 Q3768.7374,233.8405 3769.3019,234.1393 L3769.3019,236.862 Q3768.671,236.2809 3768.0775,236.0111 Q3767.484,235.7413 3766.8532,235.7413 Q3765.5084,235.7413 3764.8236,236.808 Q3764.1388,237.8746 3764.1388,239.9747 Q3764.1388,242.0665 3764.8236,243.1332 Q3765.5084,244.1998 3766.8532,244.1998 Q3767.484,244.1998 3768.0775,243.9301 Q3768.671,243.6603 3769.3019,243.0792 Z " fill="#000000"/><text fill="#000000" font-family="sans-serif" font-size="12" font-style="italic" lengthAdjust="spacing" textLength="86.291" x="3782.8751" y="235.9498">&#171;Value Object&#187;</text><text fill="#000000" font-family="sans-serif" font-size="14" lengthAdjust="spacing" textLength="32.4844" x="3809.7784" y="252.0163">Price</text><line style="stroke:#181818;stroke-width:0.5;" x1="3734.62" x2="3887.3749" y1="259.9694" y2="259.9694"/><text fill="#000000" font-family="sans-serif" font-size="14" lengthAdjust="spacing" textLength="142.7549" x="3739.62" y="277.5045">+BigDecimal amount</text><text fill="#000000" font-family="sans-serif" font-size="14" lengthAdjust="spacing" textLength="113.8184" x="3739.62" y="293.9928">+String currency</text><line style="stroke:#181818;stroke-width:0.5;" x1="3734.62" x2="3887.3749" y1="300.9459" y2="300.9459"/></g><!--class Category--><g class="entity" data-qualified-name="Product Catalog.Category" data-source-line="92" id="ent0024"><rect fill="#F1F1F1" height="106.0859" rx="2.5" ry="2.5" style="stroke:#181818;stroke-width:0.5;" width="114.291" x="3923.85" y="211.1083"/><ellipse cx="3938.85" cy="231.4188" fill="#EB937F" rx="11" ry="11" style="stroke:#181818;stroke-width:1;"/><path d="M3942.4643,237.9188 L3934.7445,237.9188 L3934.7445,225.5258 L3942.4643,225.5258 L3942.4643,227.684 L3937.1933,227.684 L3937.1933,230.3568 L3941.9662,230.3568 L3941.9662,232.515 L3937.1933,232.515 L3937.1933,235.7606 L3942.4643,235.7606 Z " fill="#000000"/><text fill="#000000" font-family="sans-serif" font-size="12" font-style="italic" lengthAdjust="spacing" textLength="86.291" x="3950.85" y="227.7098">&#171;Value Object&#187;</text><text fill="#000000" font-family="sans-serif" font-size="14" lengthAdjust="spacing" textLength="60.8262" x="3963.5824" y="243.7763">Category</text><line style="stroke:#181818;stroke-width:0.5;" x1="3924.85" x2="4037.141" y1="251.7294" y2="251.7294"/><text fill="#000000" font-family="sans-serif" font-size="14" lengthAdjust="spacing" textLength="76.1387" x="3929.85" y="269.2645">BEVERAGES</text><text fill="#000000" font-family="sans-serif" font-size="14" lengthAdjust="spacing" textLength="53.9082" x="3929.85" y="285.7528">SNACKS</text><text fill="#000000" font-family="sans-serif" font-size="14" lengthAdjust="spacing" textLength="88.5186" x="3929.85" y="302.2411">FRESH_FOOD</text><line style="stroke:#181818;stroke-width:0.5;" x1="3924.85" x2="4037.141" y1="309.1942" y2="309.1942"/></g><!--class ProductName--><g class="entity" data-qualified-name="Product Catalog.ProductName" data-source-line="98" id="ent0025"><rect fill="#F1F1F1" height="73.1094" rx="2.5" ry="2.5" style="stroke:#181818;stroke-width:0.5;" width="122.918" x="4073.54" y="227.5983"/><ellipse cx="4088.54" cy="247.9088" fill="#ADD1B2" rx="11" ry="11" style="stroke:#181818;stroke-width:1;"/><path d="M4091.0131,254.0519 Q4090.4321,254.3507 4089.7929,254.5001 Q4089.1538,254.6496 4088.4482,254.6496 Q4085.9414,254.6496 4084.6215,252.9977 Q4083.3017,251.3458 4083.3017,248.2247 Q4083.3017,245.0954 4084.6215,243.4435 Q4085.9414,241.7916 4088.4482,241.7916 Q4089.1538,241.7916 4089.8012,241.9411 Q4090.4487,242.0905 4091.0131,242.3893 L4091.0131,245.112 Q4090.3823,244.5309 4089.7888,244.2611 Q4089.1953,243.9913 4088.5644,243.9913 Q4087.2197,243.9913 4086.5349,245.058 Q4085.8501,246.1246 4085.8501,248.2247 Q4085.8501,250.3165 4086.5349,251.3832 Q4087.2197,252.4498 4088.5644,252.4498 Q4089.1953,252.4498 4089.7888,252.1801 Q4090.3823,251.9103 4091.0131,251.3292 Z " fill="#000000"/><text fill="#000000" font-family="sans-serif" font-size="12" font-style="italic" lengthAdjust="spacing" textLength="86.291" x="4104.8535" y="244.1998">&#171;Value Object&#187;</text><text fill="#000000" font-family="sans-serif" font-size="14" lengthAdjust="spacing" textLength="90.918" x="4102.54" y="260.2663">ProductName</text><line style="stroke:#181818;stroke-width:0.5;" x1="4074.54" x2="4195.458" y1="268.2194" y2="268.2194"/><text fill="#000000" font-family="sans-serif" font-size="14" lengthAdjust="spacing" textLength="91.041" x="4079.54" y="285.7545">+String value</text><line style="stroke:#181818;stroke-width:0.5;" x1="4074.54" x2="4195.458" y1="292.7077" y2="292.7077"/></g><!--class Description--><g class="entity" data-qualified-name="Product Catalog.Description" data-source-line="101" id="ent0026"><rect fill="#F1F1F1" height="73.1094" rx="2.5" ry="2.5" style="stroke:#181818;stroke-width:0.5;" width="114.291" x="4231.85" y="227.5983"/><ellipse cx="4246.85" cy="247.9088" fill="#ADD1B2" rx="11" ry="11" style="stroke:#181818;stroke-width:1;"/><path d="M4249.3231,254.0519 Q4248.7421,254.3507 4248.1029,254.5001 Q4247.4638,254.6496 4246.7582,254.6496 Q4244.2514,254.6496 4242.9315,252.9977 Q4241.6117,251.3458 4241.6117,248.2247 Q4241.6117,245.0954 4242.9315,243.4435 Q4244.2514,241.7916 4246.7582,241.7916 Q4247.4638,241.7916 4248.1112,241.9411 Q4248.7587,242.0905 4249.3231,242.3893 L4249.3231,245.112 Q4248.6923,244.5309 4248.0988,244.2611 Q4247.5053,243.9913 4246.8744,243.9913 Q4245.5297,243.9913 4244.8449,245.058 Q4244.1601,246.1246 4244.1601,248.2247 Q4244.1601,250.3165 4244.8449,251.3832 Q4245.5297,252.4498 4246.8744,252.4498 Q4247.5053,252.4498 4248.0988,252.1801 Q4248.6923,251.9103 4249.3231,251.3292 Z " fill="#000000"/><text fill="#000000" font-family="sans-serif" font-size="12" font-style="italic" lengthAdjust="spacing" textLength="86.291" x="4258.85" y="244.1998">&#171;Value Object&#187;</text><text fill="#000000" font-family="sans-serif" font-size="14" lengthAdjust="spacing" textLength="77.752" x="4263.1195" y="260.2663">Description</text><line style="stroke:#181818;stroke-width:0.5;" x1="4232.85" x2="4345.141" y1="268.2194" y2="268.2194"/><text fill="#000000" font-family="sans-serif" font-size="14" lengthAdjust="spacing" textLength="91.041" x="4237.85" y="285.7545">+String value</text><line style="stroke:#181818;stroke-width:0.5;" x1="4232.85" x2="4345.141" y1="292.7077" y2="292.7077"/></g><!--class ImageUrl--><g class="entity" data-qualified-name="Product Catalog.ImageUrl" data-source-line="104" id="ent0027"><rect fill="#F1F1F1" height="73.1094" rx="2.5" ry="2.5" style="stroke:#181818;stroke-width:0.5;" width="114.291" x="3583.85" y="227.5983"/><ellipse cx="3598.85" cy="247.9088" fill="#ADD1B2" rx="11" ry="11" style="stroke:#181818;stroke-width:1;"/><path d="M3601.3231,254.0519 Q3600.7421,254.3507 3600.1029,254.5001 Q3599.4638,254.6496 3598.7582,254.6496 Q3596.2514,254.6496 3594.9315,252.9977 Q3593.6117,251.3458 3593.6117,248.2247 Q3593.6117,245.0954 3594.9315,243.4435 Q3596.2514,241.7916 3598.7582,241.7916 Q3599.4638,241.7916 3600.1112,241.9411 Q3600.7587,242.0905 3601.3231,242.3893 L3601.3231,245.112 Q3600.6923,244.5309 3600.0988,244.2611 Q3599.5053,243.9913 3598.8744,243.9913 Q3597.5297,243.9913 3596.8449,245.058 Q3596.1601,246.1246 3596.1601,248.2247 Q3596.1601,250.3165 3596.8449,251.3832 Q3597.5297,252.4498 3598.8744,252.4498 Q3599.5053,252.4498 3600.0988,252.1801 Q3600.6923,251.9103 3601.3231,251.3292 Z " fill="#000000"/><text fill="#000000" font-family="sans-serif" font-size="12" font-style="italic" lengthAdjust="spacing" textLength="86.291" x="3610.85" y="244.1998">&#171;Value Object&#187;</text><text fill="#000000" font-family="sans-serif" font-size="14" lengthAdjust="spacing" textLength="60.8398" x="3623.5756" y="260.2663">ImageUrl</text><line style="stroke:#181818;stroke-width:0.5;" x1="3584.85" x2="3697.141" y1="268.2194" y2="268.2194"/><text fill="#000000" font-family="sans-serif" font-size="14" lengthAdjust="spacing" textLength="91.041" x="3589.85" y="285.7545">+String value</text><line style="stroke:#181818;stroke-width:0.5;" x1="3584.85" x2="3697.141" y1="292.7077" y2="292.7077"/></g><!--class Sale--><g class="entity" data-qualified-name="Sales.Sale" data-source-line="110" id="ent0029"><rect fill="#F1F1F1" height="56.6211" rx="2.5" ry="2.5" style="stroke:#181818;stroke-width:0.5;" width="131.3125" x="1662.34" y="94.4883"/><ellipse cx="1677.34" cy="114.7988" fill="#ADD1B2" rx="11" ry="11" style="stroke:#181818;stroke-width:1;"/><path d="M1679.8131,120.9419 Q1679.2321,121.2407 1678.5929,121.3901 Q1677.9538,121.5396 1677.2482,121.5396 Q1674.7414,121.5396 1673.4215,119.8877 Q1672.1017,118.2358 1672.1017,115.1147 Q1672.1017,111.9854 1673.4215,110.3335 Q1674.7414,108.6816 1677.2482,108.6816 Q1677.9538,108.6816 1678.6012,108.8311 Q1679.2487,108.9805 1679.8131,109.2793 L1679.8131,112.002 Q1679.1823,111.4209 1678.5888,111.1511 Q1677.9953,110.8813 1677.3644,110.8813 Q1676.0197,110.8813 1675.3349,111.948 Q1674.6501,113.0146 1674.6501,115.1147 Q1674.6501,117.2065 1675.3349,118.2732 Q1676.0197,119.3398 1677.3644,119.3398 Q1677.9953,119.3398 1678.5888,119.0701 Q1679.1823,118.8003 1679.8131,118.2192 Z " fill="#000000"/><text fill="#000000" font-family="sans-serif" font-size="12" font-style="italic" lengthAdjust="spacing" textLength="103.3125" x="1689.34" y="111.0898">&#171;Aggregate Root&#187;</text><text fill="#000000" font-family="sans-serif" font-size="14" lengthAdjust="spacing" textLength="27.1182" x="1727.4372" y="127.1563">Sale</text><line style="stroke:#181818;stroke-width:0.5;" x1="1663.34" x2="1792.6525" y1="135.1094" y2="135.1094"/><line style="stroke:#181818;stroke-width:0.5;" x1="1663.34" x2="1792.6525" y1="143.1094" y2="143.1094"/></g><!--class UnitPrice--><g class="entity" data-qualified-name="Sales.UnitPrice" data-source-line="113" id="ent0030"><rect fill="#F1F1F1" height="89.5977" rx="2.5" ry="2.5" style="stroke:#181818;stroke-width:0.5;" width="154.7549" x="1108.62" y="219.3483"/><ellipse cx="1141.8287" cy="239.6588" fill="#ADD1B2" rx="11" ry="11" style="stroke:#181818;stroke-width:1;"/><path d="M1144.3019,245.8019 Q1143.7208,246.1007 1143.0817,246.2501 Q1142.4425,246.3996 1141.7369,246.3996 Q1139.2301,246.3996 1137.9103,244.7477 Q1136.5905,243.0958 1136.5905,239.9747 Q1136.5905,236.8454 1137.9103,235.1935 Q1139.2301,233.5416 1141.7369,233.5416 Q1142.4425,233.5416 1143.09,233.6911 Q1143.7374,233.8405 1144.3019,234.1393 L1144.3019,236.862 Q1143.671,236.2809 1143.0775,236.0111 Q1142.484,235.7413 1141.8532,235.7413 Q1140.5084,235.7413 1139.8236,236.808 Q1139.1388,237.8746 1139.1388,239.9747 Q1139.1388,242.0665 1139.8236,243.1332 Q1140.5084,244.1998 1141.8532,244.1998 Q1142.484,244.1998 1143.0775,243.9301 Q1143.671,243.6603 1144.3019,243.0792 Z " fill="#000000"/><text fill="#000000" font-family="sans-serif" font-size="12" font-style="italic" lengthAdjust="spacing" textLength="86.291" x="1157.8751" y="235.9498">&#171;Value Object&#187;</text><text fill="#000000" font-family="sans-serif" font-size="14" lengthAdjust="spacing" textLength="60.1563" x="1170.9425" y="252.0163">UnitPrice</text><line style="stroke:#181818;stroke-width:0.5;" x1="1109.62" x2="1262.3749" y1="259.9694" y2="259.9694"/><text fill="#000000" font-family="sans-serif" font-size="14" lengthAdjust="spacing" textLength="142.7549" x="1114.62" y="277.5045">+BigDecimal amount</text><text fill="#000000" font-family="sans-serif" font-size="14" lengthAdjust="spacing" textLength="113.8184" x="1114.62" y="293.9928">+String currency</text><line style="stroke:#181818;stroke-width:0.5;" x1="1109.62" x2="1262.3749" y1="300.9459" y2="300.9459"/></g><!--class PaymentInfo--><g class="entity" data-qualified-name="Sales.PaymentInfo" data-source-line="118" id="ent0031"><rect fill="#F1F1F1" height="106.0859" rx="2.5" ry="2.5" style="stroke:#181818;stroke-width:0.5;" width="188.5381" x="1298.73" y="211.1083"/><ellipse cx="1346.7251" cy="231.4188" fill="#ADD1B2" rx="11" ry="11" style="stroke:#181818;stroke-width:1;"/><path d="M1349.1983,237.5619 Q1348.6172,237.8607 1347.978,238.0101 Q1347.3389,238.1596 1346.6333,238.1596 Q1344.1265,238.1596 1342.8067,236.5077 Q1341.4868,234.8558 1341.4868,231.7347 Q1341.4868,228.6054 1342.8067,226.9535 Q1344.1265,225.3016 1346.6333,225.3016 Q1347.3389,225.3016 1347.9863,225.4511 Q1348.6338,225.6005 1349.1983,225.8993 L1349.1983,228.622 Q1348.5674,228.0409 1347.9739,227.7711 Q1347.3804,227.5013 1346.7495,227.5013 Q1345.4048,227.5013 1344.72,228.568 Q1344.0352,229.6346 1344.0352,231.7347 Q1344.0352,233.8265 1344.72,234.8932 Q1345.4048,235.9598 1346.7495,235.9598 Q1347.3804,235.9598 1347.9739,235.6901 Q1348.5674,235.4203 1349.1983,234.8392 Z " fill="#000000"/><text fill="#000000" font-family="sans-serif" font-size="12" font-style="italic" lengthAdjust="spacing" textLength="86.291" x="1366.1035" y="227.7098">&#171;Value Object&#187;</text><text fill="#000000" font-family="sans-serif" font-size="14" lengthAdjust="spacing" textLength="84.0479" x="1367.2251" y="243.7763">PaymentInfo</text><line style="stroke:#181818;stroke-width:0.5;" x1="1299.73" x2="1486.2681" y1="251.7294" y2="251.7294"/><text fill="#000000" font-family="sans-serif" font-size="14" lengthAdjust="spacing" textLength="176.5381" x="1304.73" y="269.2645">+PaymentMethod method</text><text fill="#000000" font-family="sans-serif" font-size="14" lengthAdjust="spacing" textLength="153.3232" x="1304.73" y="285.7528">+String transactionRef</text><text fill="#000000" font-family="sans-serif" font-size="14" lengthAdjust="spacing" textLength="155.873" x="1304.73" y="302.2411">+PaymentStatus status</text><line style="stroke:#181818;stroke-width:0.5;" x1="1299.73" x2="1486.2681" y1="309.1942" y2="309.1942"/></g><!--class PaymentMethod--><g class="entity" data-qualified-name="Sales.PaymentMethod" data-source-line="124" id="ent0032"><rect fill="#F1F1F1" height="106.0859" rx="2.5" ry="2.5" style="stroke:#181818;stroke-width:0.5;" width="140.7734" x="1236.61" y="377.1883"/><ellipse cx="1251.61" cy="397.4988" fill="#EB937F" rx="11" ry="11" style="stroke:#181818;stroke-width:1;"/><path d="M1255.2243,403.9988 L1247.5045,403.9988 L1247.5045,391.6058 L1255.2243,391.6058 L1255.2243,393.764 L1249.9533,393.764 L1249.9533,396.4368 L1254.7262,396.4368 L1254.7262,398.595 L1249.9533,398.595 L1249.9533,401.8406 L1255.2243,401.8406 Z " fill="#000000"/><text fill="#000000" font-family="sans-serif" font-size="12" font-style="italic" lengthAdjust="spacing" textLength="86.291" x="1276.8512" y="393.7898">&#171;Value Object&#187;</text><text fill="#000000" font-family="sans-serif" font-size="14" lengthAdjust="spacing" textLength="108.7734" x="1265.61" y="409.8563">PaymentMethod</text><line style="stroke:#181818;stroke-width:0.5;" x1="1237.61" x2="1376.3834" y1="417.8094" y2="417.8094"/><text fill="#000000" font-family="sans-serif" font-size="14" lengthAdjust="spacing" textLength="38.6846" x="1242.61" y="435.3445">CARD</text><text fill="#000000" font-family="sans-serif" font-size="14" lengthAdjust="spacing" textLength="37.1738" x="1242.61" y="451.8328">CASH</text><text fill="#000000" font-family="sans-serif" font-size="14" lengthAdjust="spacing" textLength="50.0732" x="1242.61" y="468.3211">MOBILE</text><line style="stroke:#181818;stroke-width:0.5;" x1="1237.61" x2="1376.3834" y1="475.2742" y2="475.2742"/></g><!--class PaymentStatus--><g class="entity" data-qualified-name="Sales.PaymentStatus" data-source-line="130" id="ent0033"><rect fill="#F1F1F1" height="106.0859" rx="2.5" ry="2.5" style="stroke:#181818;stroke-width:0.5;" width="131.1484" x="1412.43" y="377.1883"/><ellipse cx="1427.43" cy="397.4988" fill="#EB937F" rx="11" ry="11" style="stroke:#181818;stroke-width:1;"/><path d="M1431.0443,403.9988 L1423.3245,403.9988 L1423.3245,391.6058 L1431.0443,391.6058 L1431.0443,393.764 L1425.7733,393.764 L1425.7733,396.4368 L1430.5462,396.4368 L1430.5462,398.595 L1425.7733,398.595 L1425.7733,401.8406 L1431.0443,401.8406 Z " fill="#000000"/><text fill="#000000" font-family="sans-serif" font-size="12" font-style="italic" lengthAdjust="spacing" textLength="86.291" x="1447.8587" y="393.7898">&#171;Value Object&#187;</text><text fill="#000000" font-family="sans-serif" font-size="14" lengthAdjust="spacing" textLength="99.1484" x="1441.43" y="409.8563">PaymentStatus</text><line style="stroke:#181818;stroke-width:0.5;" x1="1413.43" x2="1542.5784" y1="417.8094" y2="417.8094"/><text fill="#000000" font-family="sans-serif" font-size="14" lengthAdjust="spacing" textLength="82.3389" x="1418.43" y="435.3445">COMPLETED</text><text fill="#000000" font-family="sans-serif" font-size="14" lengthAdjust="spacing" textLength="46.7373" x="1418.43" y="451.8328">FAILED</text><text fill="#000000" font-family="sans-serif" font-size="14" lengthAdjust="spacing" textLength="72.5498" x="1418.43" y="468.3211">REFUNDED</text><line style="stroke:#181818;stroke-width:0.5;" x1="1413.43" x2="1542.5784" y1="475.2742" y2="475.2742"/></g><!--class SaleId--><g class="entity" data-qualified-name="Sales.SaleId" data-source-line="136" id="ent0034"><rect fill="#F1F1F1" height="73.1094" rx="2.5" ry="2.5" style="stroke:#181818;stroke-width:0.5;" width="114.291" x="1521.85" y="227.5983"/><ellipse cx="1536.85" cy="247.9088" fill="#ADD1B2" rx="11" ry="11" style="stroke:#181818;stroke-width:1;"/><path d="M1539.3231,254.0519 Q1538.7421,254.3507 1538.1029,254.5001 Q1537.4638,254.6496 1536.7582,254.6496 Q1534.2514,254.6496 1532.9315,252.9977 Q1531.6117,251.3458 1531.6117,248.2247 Q1531.6117,245.0954 1532.9315,243.4435 Q1534.2514,241.7916 1536.7582,241.7916 Q1537.4638,241.7916 1538.1112,241.9411 Q1538.7587,242.0905 1539.3231,242.3893 L1539.3231,245.112 Q1538.6923,244.5309 1538.0988,244.2611 Q1537.5053,243.9913 1536.8744,243.9913 Q1535.5297,243.9913 1534.8449,245.058 Q1534.1601,246.1246 1534.1601,248.2247 Q1534.1601,250.3165 1534.8449,251.3832 Q1535.5297,252.4498 1536.8744,252.4498 Q1537.5053,252.4498 1538.0988,252.1801 Q1538.6923,251.9103 1539.3231,251.3292 Z " fill="#000000"/><text fill="#000000" font-family="sans-serif" font-size="12" font-style="italic" lengthAdjust="spacing" textLength="86.291" x="1548.85" y="244.1998">&#171;Value Object&#187;</text><text fill="#000000" font-family="sans-serif" font-size="14" lengthAdjust="spacing" textLength="39.9629" x="1572.0141" y="260.2663">SaleId</text><line style="stroke:#181818;stroke-width:0.5;" x1="1522.85" x2="1635.141" y1="268.2194" y2="268.2194"/><text fill="#000000" font-family="sans-serif" font-size="14" lengthAdjust="spacing" textLength="84.9912" x="1527.85" y="285.7545">+UUID value</text><line style="stroke:#181818;stroke-width:0.5;" x1="1522.85" x2="1635.141" y1="292.7077" y2="292.7077"/></g><!--class Quantity--><g class="entity" data-qualified-name="Sales.Quantity" data-source-line="139" id="ent0035"><rect fill="#F1F1F1" height="73.1094" rx="2.5" ry="2.5" style="stroke:#181818;stroke-width:0.5;" width="114.291" x="1670.85" y="227.5983"/><ellipse cx="1685.85" cy="247.9088" fill="#ADD1B2" rx="11" ry="11" style="stroke:#181818;stroke-width:1;"/><path d="M1688.3231,254.0519 Q1687.7421,254.3507 1687.1029,254.5001 Q1686.4638,254.6496 1685.7582,254.6496 Q1683.2514,254.6496 1681.9315,252.9977 Q1680.6117,251.3458 1680.6117,248.2247 Q1680.6117,245.0954 1681.9315,243.4435 Q1683.2514,241.7916 1685.7582,241.7916 Q1686.4638,241.7916 1687.1112,241.9411 Q1687.7587,242.0905 1688.3231,242.3893 L1688.3231,245.112 Q1687.6923,244.5309 1687.0988,244.2611 Q1686.5053,243.9913 1685.8744,243.9913 Q1684.5297,243.9913 1683.8449,245.058 Q1683.1601,246.1246 1683.1601,248.2247 Q1683.1601,250.3165 1683.8449,251.3832 Q1684.5297,252.4498 1685.8744,252.4498 Q1686.5053,252.4498 1687.0988,252.1801 Q1687.6923,251.9103 1688.3231,251.3292 Z " fill="#000000"/><text fill="#000000" font-family="sans-serif" font-size="12" font-style="italic" lengthAdjust="spacing" textLength="86.291" x="1697.85" y="244.1998">&#171;Value Object&#187;</text><text fill="#000000" font-family="sans-serif" font-size="14" lengthAdjust="spacing" textLength="57.8184" x="1712.0863" y="260.2663">Quantity</text><line style="stroke:#181818;stroke-width:0.5;" x1="1671.85" x2="1784.141" y1="268.2194" y2="268.2194"/><text fill="#000000" font-family="sans-serif" font-size="14" lengthAdjust="spacing" textLength="69.043" x="1676.85" y="285.7545">+int value</text><line style="stroke:#181818;stroke-width:0.5;" x1="1671.85" x2="1784.141" y1="292.7077" y2="292.7077"/></g><!--class TotalAmount--><g class="entity" data-qualified-name="Sales.TotalAmount" data-source-line="142" id="ent0036"><rect fill="#F1F1F1" height="73.1094" rx="2.5" ry="2.5" style="stroke:#181818;stroke-width:0.5;" width="138.2529" x="1819.87" y="227.5983"/><ellipse cx="1842.8997" cy="247.9088" fill="#ADD1B2" rx="11" ry="11" style="stroke:#181818;stroke-width:1;"/><path d="M1845.3728,254.0519 Q1844.7918,254.3507 1844.1526,254.5001 Q1843.5135,254.6496 1842.8079,254.6496 Q1840.3011,254.6496 1838.9812,252.9977 Q1837.6614,251.3458 1837.6614,248.2247 Q1837.6614,245.0954 1838.9812,243.4435 Q1840.3011,241.7916 1842.8079,241.7916 Q1843.5135,241.7916 1844.1609,241.9411 Q1844.8084,242.0905 1845.3728,242.3893 L1845.3728,245.112 Q1844.742,244.5309 1844.1485,244.2611 Q1843.555,243.9913 1842.9241,243.9913 Q1841.5794,243.9913 1840.8946,245.058 Q1840.2097,246.1246 1840.2097,248.2247 Q1840.2097,250.3165 1840.8946,251.3832 Q1841.5794,252.4498 1842.9241,252.4498 Q1843.555,252.4498 1844.1485,252.1801 Q1844.742,251.9103 1845.3728,251.3292 Z " fill="#000000"/><text fill="#000000" font-family="sans-serif" font-size="12" font-style="italic" lengthAdjust="spacing" textLength="86.291" x="1859.7431" y="244.1998">&#171;Value Object&#187;</text><text fill="#000000" font-family="sans-serif" font-size="14" lengthAdjust="spacing" textLength="88.4092" x="1858.6841" y="260.2663">TotalAmount</text><line style="stroke:#181818;stroke-width:0.5;" x1="1820.87" x2="1957.1229" y1="268.2194" y2="268.2194"/><text fill="#000000" font-family="sans-serif" font-size="14" lengthAdjust="spacing" textLength="126.2529" x="1825.87" y="285.7545">+BigDecimal value</text><line style="stroke:#181818;stroke-width:0.5;" x1="1820.87" x2="1957.1229" y1="292.7077" y2="292.7077"/></g><!--class Timestamp--><g class="entity" data-qualified-name="Sales.Timestamp" data-source-line="145" id="ent0037"><rect fill="#F1F1F1" height="73.1094" rx="2.5" ry="2.5" style="stroke:#181818;stroke-width:0.5;" width="114.291" x="1992.85" y="227.5983"/><ellipse cx="2007.85" cy="247.9088" fill="#ADD1B2" rx="11" ry="11" style="stroke:#181818;stroke-width:1;"/><path d="M2010.3231,254.0519 Q2009.7421,254.3507 2009.1029,254.5001 Q2008.4638,254.6496 2007.7582,254.6496 Q2005.2514,254.6496 2003.9315,252.9977 Q2002.6117,251.3458 2002.6117,248.2247 Q2002.6117,245.0954 2003.9315,243.4435 Q2005.2514,241.7916 2007.7582,241.7916 Q2008.4638,241.7916 2009.1112,241.9411 Q2009.7587,242.0905 2010.3231,242.3893 L2010.3231,245.112 Q2009.6923,244.5309 2009.0988,244.2611 Q2008.5053,243.9913 2007.8744,243.9913 Q2006.5297,243.9913 2005.8449,245.058 Q2005.1601,246.1246 2005.1601,248.2247 Q2005.1601,250.3165 2005.8449,251.3832 Q2006.5297,252.4498 2007.8744,252.4498 Q2008.5053,252.4498 2009.0988,252.1801 Q2009.6923,251.9103 2010.3231,251.3292 Z " fill="#000000"/><text fill="#000000" font-family="sans-serif" font-size="12" font-style="italic" lengthAdjust="spacing" textLength="86.291" x="2019.85" y="244.1998">&#171;Value Object&#187;</text><text fill="#000000" font-family="sans-serif" font-size="14" lengthAdjust="spacing" textLength="75.7559" x="2025.1176" y="260.2663">Timestamp</text><line style="stroke:#181818;stroke-width:0.5;" x1="1993.85" x2="2106.141" y1="268.2194" y2="268.2194"/><text fill="#000000" font-family="sans-serif" font-size="14" lengthAdjust="spacing" textLength="97.8223" x="1998.85" y="285.7545">+Instant value</text><line style="stroke:#181818;stroke-width:0.5;" x1="1993.85" x2="2106.141" y1="292.7077" y2="292.7077"/></g><!--class UserId--><g class="entity" data-qualified-name="UserId" data-source-line="187" id="ent0064"><rect fill="#FFFFE0" height="73.1094" rx="2.5" ry="2.5" style="stroke:#181818;stroke-width:0.5;" width="114.291" x="958.85" y="227.5983"/><ellipse cx="973.85" cy="247.9088" fill="#ADD1B2" rx="11" ry="11" style="stroke:#181818;stroke-width:1;"/><path d="M976.3231,254.0519 Q975.7421,254.3507 975.1029,254.5001 Q974.4638,254.6496 973.7582,254.6496 Q971.2514,254.6496 969.9315,252.9977 Q968.6117,251.3458 968.6117,248.2247 Q968.6117,245.0954 969.9315,243.4435 Q971.2514,241.7916 973.7582,241.7916 Q974.4638,241.7916 975.1112,241.9411 Q975.7587,242.0905 976.3231,242.3893 L976.3231,245.112 Q975.6923,244.5309 975.0988,244.2611 Q974.5053,243.9913 973.8744,243.9913 Q972.5297,243.9913 971.8449,245.058 Q971.1601,246.1246 971.1601,248.2247 Q971.1601,250.3165 971.8449,251.3832 Q972.5297,252.4498 973.8744,252.4498 Q974.5053,252.4498 975.0988,252.1801 Q975.6923,251.9103 976.3231,251.3292 Z " fill="#000000"/><text fill="#000000" font-family="sans-serif" font-size="12" font-style="italic" lengthAdjust="spacing" textLength="86.291" x="985.85" y="244.1998">&#171;Value Object&#187;</text><text fill="#000000" font-family="sans-serif" font-size="14" lengthAdjust="spacing" textLength="43.21" x="1007.3905" y="260.2663">UserId</text><line style="stroke:#181818;stroke-width:0.5;" x1="959.85" x2="1072.141" y1="268.2194" y2="268.2194"/><text fill="#000000" font-family="sans-serif" font-size="14" lengthAdjust="spacing" textLength="84.9912" x="964.85" y="285.7545">+UUID value</text><line style="stroke:#181818;stroke-width:0.5;" x1="959.85" x2="1072.141" y1="292.7077" y2="292.7077"/></g><!--class MachineId--><g class="entity" data-qualified-name="MachineId" data-source-line="190" id="ent0065"><rect fill="#FFFFE0" height="73.1094" rx="2.5" ry="2.5" style="stroke:#181818;stroke-width:0.5;" width="114.291" x="2141.85" y="227.5983"/><ellipse cx="2156.85" cy="247.9088" fill="#ADD1B2" rx="11" ry="11" style="stroke:#181818;stroke-width:1;"/><path d="M2159.3231,254.0519 Q2158.7421,254.3507 2158.1029,254.5001 Q2157.4638,254.6496 2156.7582,254.6496 Q2154.2514,254.6496 2152.9315,252.9977 Q2151.6117,251.3458 2151.6117,248.2247 Q2151.6117,245.0954 2152.9315,243.4435 Q2154.2514,241.7916 2156.7582,241.7916 Q2157.4638,241.7916 2158.1112,241.9411 Q2158.7587,242.0905 2159.3231,242.3893 L2159.3231,245.112 Q2158.6923,244.5309 2158.0988,244.2611 Q2157.5053,243.9913 2156.8744,243.9913 Q2155.5297,243.9913 2154.8449,245.058 Q2154.1601,246.1246 2154.1601,248.2247 Q2154.1601,250.3165 2154.8449,251.3832 Q2155.5297,252.4498 2156.8744,252.4498 Q2157.5053,252.4498 2158.0988,252.1801 Q2158.6923,251.9103 2159.3231,251.3292 Z " fill="#000000"/><text fill="#000000" font-family="sans-serif" font-size="12" font-style="italic" lengthAdjust="spacing" textLength="86.291" x="2168.85" y="244.1998">&#171;Value Object&#187;</text><text fill="#000000" font-family="sans-serif" font-size="14" lengthAdjust="spacing" textLength="69.0293" x="2177.4809" y="260.2663">MachineId</text><line style="stroke:#181818;stroke-width:0.5;" x1="2142.85" x2="2255.141" y1="268.2194" y2="268.2194"/><text fill="#000000" font-family="sans-serif" font-size="14" lengthAdjust="spacing" textLength="84.9912" x="2147.85" y="285.7545">+UUID value</text><line style="stroke:#181818;stroke-width:0.5;" x1="2142.85" x2="2255.141" y1="292.7077" y2="292.7077"/></g><!--class ProductId--><g class="entity" data-qualified-name="ProductId" data-source-line="193" id="ent0066"><rect fill="#FFFFE0" height="73.1094" rx="2.5" ry="2.5" style="stroke:#181818;stroke-width:0.5;" width="114.291" x="3434.85" y="227.5983"/><ellipse cx="3449.85" cy="247.9088" fill="#ADD1B2" rx="11" ry="11" style="stroke:#181818;stroke-width:1;"/><path d="M3452.3231,254.0519 Q3451.7421,254.3507 3451.1029,254.5001 Q3450.4638,254.6496 3449.7582,254.6496 Q3447.2514,254.6496 3445.9315,252.9977 Q3444.6117,251.3458 3444.6117,248.2247 Q3444.6117,245.0954 3445.9315,243.4435 Q3447.2514,241.7916 3449.7582,241.7916 Q3450.4638,241.7916 3451.1112,241.9411 Q3451.7587,242.0905 3452.3231,242.3893 L3452.3231,245.112 Q3451.6923,244.5309 3451.0988,244.2611 Q3450.5053,243.9913 3449.8744,243.9913 Q3448.5297,243.9913 3447.8449,245.058 Q3447.1601,246.1246 3447.1601,248.2247 Q3447.1601,250.3165 3447.8449,251.3832 Q3448.5297,252.4498 3449.8744,252.4498 Q3450.5053,252.4498 3451.0988,252.1801 Q3451.6923,251.9103 3452.3231,251.3292 Z " fill="#000000"/><text fill="#000000" font-family="sans-serif" font-size="12" font-style="italic" lengthAdjust="spacing" textLength="86.291" x="3461.85" y="244.1998">&#171;Value Object&#187;</text><text fill="#000000" font-family="sans-serif" font-size="14" lengthAdjust="spacing" textLength="64.8184" x="3472.5863" y="260.2663">ProductId</text><line style="stroke:#181818;stroke-width:0.5;" x1="3435.85" x2="3548.141" y1="268.2194" y2="268.2194"/><text fill="#000000" font-family="sans-serif" font-size="14" lengthAdjust="spacing" textLength="84.9912" x="3440.85" y="285.7545">+UUID value</text><line style="stroke:#181818;stroke-width:0.5;" x1="3435.85" x2="3548.141" y1="292.7077" y2="292.7077"/></g><!--link User to Username--><g class="link" data-entity-1="ent0003" data-entity-2="ent0006" data-link-type="composition" data-source-line="151" id="lnk38"><path codeLine="151" d="M493.02,163.4283 C493.02,204.7683 493.02,264.2783 493.02,264.2783 C493.02,264.2783 484.75,264.2783 467.63,264.2783" fill="none" id="User-Username" style="stroke:#181818;stroke-width:1;"/><polygon fill="#181818" points="493.02,151.4283,489.02,157.4283,493.02,163.4283,497.02,157.4283,493.02,151.4283" style="stroke:#181818;stroke-width:1;"/><polygon fill="#181818" points="461.63,264.2783,470.63,268.2783,466.63,264.2783,470.63,260.2783,461.63,264.2783" style="stroke:#181818;stroke-width:1;"/><text fill="#000000" font-family="sans-serif" font-size="13" lengthAdjust="spacing" textLength="8.2202" x="469.4175" y="259.7259">1</text></g><!--link User to Email--><g class="link" data-entity-1="ent0003" data-entity-2="ent0007" data-link-type="composition" data-source-line="152" id="lnk39"><path codeLine="152" d="M553,163.3983 C553,185.2583 553,197.5683 553,221.2583" fill="none" id="User-Email" style="stroke:#181818;stroke-width:1;"/><polygon fill="#181818" points="553,151.3983,549,157.3983,553,163.3983,557,157.3983,553,151.3983" style="stroke:#181818;stroke-width:1;"/><polygon fill="#181818" points="553,227.2583,557,218.2583,553,222.2583,549,218.2583,553,227.2583" style="stroke:#181818;stroke-width:1;"/><text fill="#000000" font-family="sans-serif" font-size="13" lengthAdjust="spacing" textLength="8.2202" x="544.3079" y="216.9465">1</text></g><!--link User to PasswordHash--><g class="link" data-entity-1="ent0003" data-entity-2="ent0008" data-link-type="composition" data-source-line="153" id="lnk40"><path codeLine="153" d="M614.4,163.4283 C614.4,204.7683 614.4,264.2783 614.4,264.2783 C614.4,264.2783 621.98,264.2783 638.91,264.2783" fill="none" id="User-PasswordHash" style="stroke:#181818;stroke-width:1;"/><polygon fill="#181818" points="614.4,151.4283,610.4,157.4283,614.4,163.4283,618.4,157.4283,614.4,151.4283" style="stroke:#181818;stroke-width:1;"/><polygon fill="#181818" points="644.91,264.2783,635.91,260.2783,639.91,264.2783,635.91,268.2783,644.91,264.2783" style="stroke:#181818;stroke-width:1;"/><text fill="#000000" font-family="sans-serif" font-size="13" lengthAdjust="spacing" textLength="8.2202" x="628.9345" y="261.0119">1</text></g><!--link User to Role--><g class="link" data-entity-1="ent0003" data-entity-2="ent0004" data-link-type="composition" data-source-line="154" id="lnk41"><path codeLine="154" d="M474.94,123.2783 C345.94,123.2783 85,123.2783 85,123.2783 C85,123.2783 85,164.9983 85,204.8883" fill="none" id="User-Role" style="stroke:#181818;stroke-width:1;"/><polygon fill="#181818" points="486.94,123.2783,480.94,119.2783,474.94,123.2783,480.94,127.2783,486.94,123.2783" style="stroke:#181818;stroke-width:1;"/><polygon fill="#181818" points="85,210.8883,89,201.8883,85,205.8883,81,201.8883,85,210.8883" style="stroke:#181818;stroke-width:1;"/><text fill="#000000" font-family="sans-serif" font-size="13" lengthAdjust="spacing" textLength="8.2202" x="76.4774" y="200.3125">1</text></g><!--link User to FullName--><g class="link" data-entity-1="ent0003" data-entity-2="ent0009" data-link-type="composition" data-source-line="155" id="lnk42"><path codeLine="155" d="M630.82,140.2783 C722.9,140.2783 867,140.2783 867,140.2783 C867,140.2783 867,184.8083 867,221.3183" fill="none" id="User-FullName" style="stroke:#181818;stroke-width:1;"/><polygon fill="#181818" points="618.82,140.2783,624.82,144.2783,630.82,140.2783,624.82,136.2783,618.82,140.2783" style="stroke:#181818;stroke-width:1;"/><polygon fill="#181818" points="867,227.3183,871,218.3183,867,222.3183,863,218.3183,867,227.3183" style="stroke:#181818;stroke-width:1;"/><text fill="#000000" font-family="sans-serif" font-size="13" lengthAdjust="spacing" textLength="8.2202" x="858.2836" y="216.7411">1</text></g><!--link User to AccountStatus--><g class="link" data-entity-1="ent0003" data-entity-2="ent0005" data-link-type="composition" data-source-line="156" id="lnk43"><path codeLine="156" d="M490.18,163.5483 C490.18,190.6983 490.18,215.2783 490.18,215.2783 C490.18,215.2783 389.89,215.2783 317.85,215.2783" fill="none" id="User-AccountStatus" style="stroke:#181818;stroke-width:1;"/><polygon fill="#181818" points="490.18,151.5483,486.18,157.5483,490.18,163.5483,494.18,157.5483,490.18,151.5483" style="stroke:#181818;stroke-width:1;"/><polygon fill="#181818" points="311.85,215.2783,320.85,219.2783,316.85,215.2783,320.85,211.2783,311.85,215.2783" style="stroke:#181818;stroke-width:1;"/><text fill="#000000" font-family="sans-serif" font-size="13" lengthAdjust="spacing" textLength="8.2202" x="317.1847" y="200.549">1</text></g><!--link VendingMachine to SerialNumber--><g class="link" data-entity-1="ent0011" data-entity-2="ent0014" data-link-type="composition" data-source-line="159" id="lnk44"><path codeLine="159" d="M2531.51,113.2783 C2603.76,113.2783 2692,113.2783 2692,113.2783 C2692,113.2783 2692,176.5783 2692,221.2383" fill="none" id="VendingMachine-SerialNumber" style="stroke:#181818;stroke-width:1;"/><polygon fill="#181818" points="2519.51,113.2783,2525.51,117.2783,2531.51,113.2783,2525.51,109.2783,2519.51,113.2783" style="stroke:#181818;stroke-width:1;"/><polygon fill="#181818" points="2692,227.2383,2696,218.2383,2692,222.2383,2688,218.2383,2692,227.2383" style="stroke:#181818;stroke-width:1;"/><text fill="#000000" font-family="sans-serif" font-size="13" lengthAdjust="spacing" textLength="8.2202" x="2683.3076" y="216.9229">1</text></g><!--link VendingMachine to Location--><g class="link" data-entity-1="ent0011" data-entity-2="ent0012" data-link-type="composition" data-source-line="160" id="lnk45"><path codeLine="160" d="M2402.72,163.3983 C2402.72,180.4183 2402.72,184.5583 2402.72,204.7083" fill="none" id="VendingMachine-Location" style="stroke:#181818;stroke-width:1;"/><polygon fill="#181818" points="2402.72,151.3983,2398.72,157.3983,2402.72,163.3983,2406.72,157.3983,2402.72,151.3983" style="stroke:#181818;stroke-width:1;"/><polygon fill="#181818" points="2402.72,210.7083,2406.72,201.7083,2402.72,205.7083,2398.72,201.7083,2402.72,210.7083" style="stroke:#181818;stroke-width:1;"/><text fill="#000000" font-family="sans-serif" font-size="13" lengthAdjust="spacing" textLength="8.2202" x="2399.5667" y="200.4882">1</text></g><!--link VendingMachine to MachineStatus--><g class="link" data-entity-1="ent0011" data-entity-2="ent0013" data-link-type="composition" data-source-line="161" id="lnk46"><path codeLine="161" d="M2492.09,163.3983 C2492.09,180.4183 2492.09,184.5583 2492.09,204.7083" fill="none" id="VendingMachine-MachineStatus" style="stroke:#181818;stroke-width:1;"/><polygon fill="#181818" points="2492.09,151.3983,2488.09,157.3983,2492.09,163.3983,2496.09,157.3983,2492.09,151.3983" style="stroke:#181818;stroke-width:1;"/><polygon fill="#181818" points="2492.09,210.7083,2496.09,201.7083,2492.09,205.7083,2488.09,201.7083,2492.09,210.7083" style="stroke:#181818;stroke-width:1;"/><text fill="#000000" font-family="sans-serif" font-size="13" lengthAdjust="spacing" textLength="8.2202" x="2478.7348" y="200.4882">1</text></g><!--link Slot to SlotId--><g class="link" data-entity-1="ent0016" data-entity-2="ent0017" data-link-type="composition" data-source-line="164" id="lnk47"><path codeLine="164" d="M3157.26,163.3983 C3157.26,185.2583 3157.26,197.5683 3157.26,221.2583" fill="none" id="Slot-SlotId" style="stroke:#181818;stroke-width:1;"/><polygon fill="#181818" points="3157.26,151.3983,3153.26,157.3983,3157.26,163.3983,3161.26,157.3983,3157.26,151.3983" style="stroke:#181818;stroke-width:1;"/><polygon fill="#181818" points="3157.26,227.2583,3161.26,218.2583,3157.26,222.2583,3153.26,218.2583,3157.26,227.2583" style="stroke:#181818;stroke-width:1;"/><text fill="#000000" font-family="sans-serif" font-size="13" lengthAdjust="spacing" textLength="8.2202" x="3142.0236" y="216.9465">1</text></g><!--link Slot to SlotNumber--><g class="link" data-entity-1="ent0016" data-entity-2="ent0018" data-link-type="composition" data-source-line="165" id="lnk48"><path codeLine="165" d="M3189.89,140.2783 C3258.16,140.2783 3343,140.2783 3343,140.2783 C3343,140.2783 3343,184.8083 3343,221.3183" fill="none" id="Slot-SlotNumber" style="stroke:#181818;stroke-width:1;"/><polygon fill="#181818" points="3177.89,140.2783,3183.89,144.2783,3189.89,140.2783,3183.89,136.2783,3177.89,140.2783" style="stroke:#181818;stroke-width:1;"/><polygon fill="#181818" points="3343,227.3183,3347,218.3183,3343,222.3183,3339,218.3183,3343,227.3183" style="stroke:#181818;stroke-width:1;"/><text fill="#000000" font-family="sans-serif" font-size="13" lengthAdjust="spacing" textLength="8.2202" x="3334.2836" y="216.7411">1</text></g><!--link Slot to SlotCapacity--><g class="link" data-entity-1="ent0016" data-entity-2="ent0019" data-link-type="composition" data-source-line="166" id="lnk49"><path codeLine="166" d="M3033.97,132.2783 C2961.71,132.2783 2868,132.2783 2868,132.2783 C2868,132.2783 2868,182.3983 2868,221.4183" fill="none" id="Slot-SlotCapacity" style="stroke:#181818;stroke-width:1;"/><polygon fill="#181818" points="3045.97,132.2783,3039.97,128.2783,3033.97,132.2783,3039.97,136.2783,3045.97,132.2783" style="stroke:#181818;stroke-width:1;"/><polygon fill="#181818" points="2868,227.4183,2872,218.4183,2868,222.4183,2864,218.4183,2868,227.4183" style="stroke:#181818;stroke-width:1;"/><text fill="#000000" font-family="sans-serif" font-size="13" lengthAdjust="spacing" textLength="8.2202" x="2859.2835" y="216.8595">1</text></g><!--link Slot to CurrentQuantity--><g class="link" data-entity-1="ent0016" data-entity-2="ent0020" data-link-type="composition" data-source-line="167" id="lnk50"><path codeLine="167" d="M3083.24,163.3983 C3083.24,185.2583 3083.24,197.5683 3083.24,221.2583" fill="none" id="Slot-CurrentQuantity" style="stroke:#181818;stroke-width:1;"/><polygon fill="#181818" points="3083.24,151.3983,3079.24,157.3983,3083.24,163.3983,3087.24,157.3983,3083.24,151.3983" style="stroke:#181818;stroke-width:1;"/><polygon fill="#181818" points="3083.24,227.2583,3087.24,218.2583,3083.24,222.2583,3079.24,218.2583,3083.24,227.2583" style="stroke:#181818;stroke-width:1;"/><text fill="#000000" font-family="sans-serif" font-size="13" lengthAdjust="spacing" textLength="8.2202" x="3083.8528" y="216.9465">1</text></g><!--link Product to ProductName--><g class="link" data-entity-1="ent0022" data-entity-2="ent0025" data-link-type="composition" data-source-line="170" id="lnk51"><path codeLine="170" d="M3973.94,132.2783 C4044.68,132.2783 4135,132.2783 4135,132.2783 C4135,132.2783 4135,182.3983 4135,221.4183" fill="none" id="Product-ProductName" style="stroke:#181818;stroke-width:1;"/><polygon fill="#181818" points="3961.94,132.2783,3967.94,136.2783,3973.94,132.2783,3967.94,128.2783,3961.94,132.2783" style="stroke:#181818;stroke-width:1;"/><polygon fill="#181818" points="4135,227.4183,4139,218.4183,4135,222.4183,4131,218.4183,4135,227.4183" style="stroke:#181818;stroke-width:1;"/><text fill="#000000" font-family="sans-serif" font-size="13" lengthAdjust="spacing" textLength="8.2202" x="4126.283" y="216.8595">1</text></g><!--link Product to Description--><g class="link" data-entity-1="ent0022" data-entity-2="ent0026" data-link-type="composition" data-source-line="171" id="lnk52"><path codeLine="171" d="M3973.78,113.2783 C4085.66,113.2783 4289,113.2783 4289,113.2783 C4289,113.2783 4289,176.5783 4289,221.2383" fill="none" id="Product-Description" style="stroke:#181818;stroke-width:1;"/><polygon fill="#181818" points="3961.78,113.2783,3967.78,117.2783,3973.78,113.2783,3967.78,109.2783,3961.78,113.2783" style="stroke:#181818;stroke-width:1;"/><polygon fill="#181818" points="4289,227.2383,4293,218.2383,4289,222.2383,4285,218.2383,4289,227.2383" style="stroke:#181818;stroke-width:1;"/><text fill="#000000" font-family="sans-serif" font-size="13" lengthAdjust="spacing" textLength="8.2202" x="4280.3079" y="216.9229">1</text></g><!--link Product to Price--><g class="link" data-entity-1="ent0022" data-entity-2="ent0023" data-link-type="composition" data-source-line="172" id="lnk53"><path codeLine="172" d="M3859.36,163.3983 C3859.36,182.7583 3859.36,190.7483 3859.36,212.8883" fill="none" id="Product-Price" style="stroke:#181818;stroke-width:1;"/><polygon fill="#181818" points="3859.36,151.3983,3855.36,157.3983,3859.36,163.3983,3863.36,157.3983,3859.36,151.3983" style="stroke:#181818;stroke-width:1;"/><polygon fill="#181818" points="3859.36,218.8883,3863.36,209.8883,3859.36,213.8883,3855.36,209.8883,3859.36,218.8883" style="stroke:#181818;stroke-width:1;"/><text fill="#000000" font-family="sans-serif" font-size="13" lengthAdjust="spacing" textLength="8.2202" x="3857.8919" y="208.7305">1</text></g><!--link Product to Category--><g class="link" data-entity-1="ent0022" data-entity-2="ent0024" data-link-type="composition" data-source-line="173" id="lnk54"><path codeLine="173" d="M3942.76,163.3983 C3942.76,180.4183 3942.76,184.5583 3942.76,204.7083" fill="none" id="Product-Category" style="stroke:#181818;stroke-width:1;"/><polygon fill="#181818" points="3942.76,151.3983,3938.76,157.3983,3942.76,163.3983,3946.76,157.3983,3942.76,151.3983" style="stroke:#181818;stroke-width:1;"/><polygon fill="#181818" points="3942.76,210.7083,3946.76,201.7083,3942.76,205.7083,3938.76,201.7083,3942.76,210.7083" style="stroke:#181818;stroke-width:1;"/><text fill="#000000" font-family="sans-serif" font-size="13" lengthAdjust="spacing" textLength="8.2202" x="3929.3627" y="200.4882">1</text></g><!--link Product to ImageUrl--><g class="link" data-entity-1="ent0022" data-entity-2="ent0027" data-link-type="composition" data-source-line="174" id="lnk55"><path codeLine="174" d="M3818,128.2783 C3742.44,128.2783 3641,128.2783 3641,128.2783 C3641,128.2783 3641,181.1383 3641,221.3783" fill="none" id="Product-ImageUrl" style="stroke:#181818;stroke-width:1;"/><polygon fill="#181818" points="3830,128.2783,3824,124.2783,3818,128.2783,3824,132.2783,3830,128.2783" style="stroke:#181818;stroke-width:1;"/><polygon fill="#181818" points="3641,227.3783,3645,218.3783,3641,222.3783,3637,218.3783,3641,227.3783" style="stroke:#181818;stroke-width:1;"/><text fill="#000000" font-family="sans-serif" font-size="13" lengthAdjust="spacing" textLength="8.2202" x="3632.2836" y="216.8121">1</text></g><!--link Sale to SaleId--><g class="link" data-entity-1="ent0029" data-entity-2="ent0034" data-link-type="composition" data-source-line="177" id="lnk56"><path codeLine="177" d="M1668.02,163.4283 C1668.02,204.7683 1668.02,264.2783 1668.02,264.2783 C1668.02,264.2783 1659.75,264.2783 1642.63,264.2783" fill="none" id="Sale-SaleId" style="stroke:#181818;stroke-width:1;"/><polygon fill="#181818" points="1668.02,151.4283,1664.02,157.4283,1668.02,163.4283,1672.02,157.4283,1668.02,151.4283" style="stroke:#181818;stroke-width:1;"/><polygon fill="#181818" points="1636.63,264.2783,1645.63,268.2783,1641.63,264.2783,1645.63,260.2783,1636.63,264.2783" style="stroke:#181818;stroke-width:1;"/><text fill="#000000" font-family="sans-serif" font-size="13" lengthAdjust="spacing" textLength="8.2202" x="1644.4175" y="259.7259">1</text></g><!--link Sale to Quantity--><g class="link" data-entity-1="ent0029" data-entity-2="ent0035" data-link-type="composition" data-source-line="178" id="lnk57"><path codeLine="178" d="M1728,163.3983 C1728,185.2583 1728,197.5683 1728,221.2583" fill="none" id="Sale-Quantity" style="stroke:#181818;stroke-width:1;"/><polygon fill="#181818" points="1728,151.3983,1724,157.3983,1728,163.3983,1732,157.3983,1728,151.3983" style="stroke:#181818;stroke-width:1;"/><polygon fill="#181818" points="1728,227.2583,1732,218.2583,1728,222.2583,1724,218.2583,1728,227.2583" style="stroke:#181818;stroke-width:1;"/><text fill="#000000" font-family="sans-serif" font-size="13" lengthAdjust="spacing" textLength="8.2202" x="1719.3079" y="216.9465">1</text></g><!--link Sale to UnitPrice--><g class="link" data-entity-1="ent0029" data-entity-2="ent0030" data-link-type="composition" data-source-line="179" id="lnk58"><path codeLine="179" d="M1650.08,117.2783 C1505.64,117.2783 1186,117.2783 1186,117.2783 C1186,117.2783 1186,169.7283 1186,212.8883" fill="none" id="Sale-UnitPrice" style="stroke:#181818;stroke-width:1;"/><polygon fill="#181818" points="1662.08,117.2783,1656.08,113.2783,1650.08,117.2783,1656.08,121.2783,1662.08,117.2783" style="stroke:#181818;stroke-width:1;"/><polygon fill="#181818" points="1186,218.8883,1190,209.8883,1186,213.8883,1182,209.8883,1186,218.8883" style="stroke:#181818;stroke-width:1;"/><text fill="#000000" font-family="sans-serif" font-size="13" lengthAdjust="spacing" textLength="8.2202" x="1177.429" y="208.7305">1</text></g><!--link Sale to TotalAmount--><g class="link" data-entity-1="ent0029" data-entity-2="ent0036" data-link-type="composition" data-source-line="180" id="lnk59"><path codeLine="180" d="M1790.82,163.4283 C1790.82,204.7683 1790.82,264.2783 1790.82,264.2783 C1790.82,264.2783 1797.36,264.2783 1813.48,264.2783" fill="none" id="Sale-TotalAmount" style="stroke:#181818;stroke-width:1;"/><polygon fill="#181818" points="1790.82,151.4283,1786.82,157.4283,1790.82,163.4283,1794.82,157.4283,1790.82,151.4283" style="stroke:#181818;stroke-width:1;"/><polygon fill="#181818" points="1819.48,264.2783,1810.48,260.2783,1814.48,264.2783,1810.48,268.2783,1819.48,264.2783" style="stroke:#181818;stroke-width:1;"/><text fill="#000000" font-family="sans-serif" font-size="13" lengthAdjust="spacing" textLength="8.2202" x="1803.4512" y="261.057">1</text></g><!--link Sale to Timestamp--><g class="link" data-entity-1="ent0029" data-entity-2="ent0037" data-link-type="composition" data-source-line="181" id="lnk60"><path codeLine="181" d="M1805.94,123.2783 C1900.14,123.2783 2050,123.2783 2050,123.2783 C2050,123.2783 2050,179.3983 2050,221.1383" fill="none" id="Sale-Timestamp" style="stroke:#181818;stroke-width:1;"/><polygon fill="#181818" points="1793.94,123.2783,1799.94,127.2783,1805.94,123.2783,1799.94,119.2783,1793.94,123.2783" style="stroke:#181818;stroke-width:1;"/><polygon fill="#181818" points="2050,227.1383,2054,218.1383,2050,222.1383,2046,218.1383,2050,227.1383" style="stroke:#181818;stroke-width:1;"/><text fill="#000000" font-family="sans-serif" font-size="13" lengthAdjust="spacing" textLength="8.2202" x="2041.3079" y="216.8051">1</text></g><!--link Sale to PaymentInfo--><g class="link" data-entity-1="ent0029" data-entity-2="ent0031" data-link-type="composition" data-source-line="182" id="lnk61"><path codeLine="182" d="M1665.18,163.4783 C1665.18,191.9183 1665.18,219.2783 1665.18,219.2783 C1665.18,219.2783 1572.04,219.2783 1493.43,219.2783" fill="none" id="Sale-PaymentInfo" style="stroke:#181818;stroke-width:1;"/><polygon fill="#181818" points="1665.18,151.4783,1661.18,157.4783,1665.18,163.4783,1669.18,157.4783,1665.18,151.4783" style="stroke:#181818;stroke-width:1;"/><polygon fill="#181818" points="1487.43,219.2783,1496.43,223.2783,1492.43,219.2783,1496.43,215.2783,1487.43,219.2783" style="stroke:#181818;stroke-width:1;"/><text fill="#000000" font-family="sans-serif" font-size="13" lengthAdjust="spacing" textLength="8.2202" x="1494.9917" y="207.8717">1</text></g><!--link PaymentInfo to PaymentMethod--><g class="link" data-entity-1="ent0031" data-entity-2="ent0032" data-link-type="composition" data-source-line="183" id="lnk62"><path codeLine="183" d="M1338.06,329.6183 C1338.06,348.5783 1338.06,351.9083 1338.06,370.8683" fill="none" id="PaymentInfo-PaymentMethod" style="stroke:#181818;stroke-width:1;"/><polygon fill="#181818" points="1338.06,317.6183,1334.06,323.6183,1338.06,329.6183,1342.06,323.6183,1338.06,317.6183" style="stroke:#181818;stroke-width:1;"/><polygon fill="#181818" points="1338.06,376.8683,1342.06,367.8683,1338.06,371.8683,1334.06,367.8683,1338.06,376.8683" style="stroke:#181818;stroke-width:1;"/><text fill="#000000" font-family="sans-serif" font-size="13" lengthAdjust="spacing" textLength="8.2202" x="1333.7114" y="366.279">1</text></g><!--link PaymentInfo to PaymentStatus--><g class="link" data-entity-1="ent0031" data-entity-2="ent0033" data-link-type="composition" data-source-line="184" id="lnk63"><path codeLine="184" d="M1449.85,329.6183 C1449.85,348.5783 1449.85,351.9083 1449.85,370.8683" fill="none" id="PaymentInfo-PaymentStatus" style="stroke:#181818;stroke-width:1;"/><polygon fill="#181818" points="1449.85,317.6183,1445.85,323.6183,1449.85,329.6183,1453.85,323.6183,1449.85,317.6183" style="stroke:#181818;stroke-width:1;"/><polygon fill="#181818" points="1449.85,376.8683,1453.85,367.8683,1449.85,371.8683,1445.85,367.8683,1449.85,376.8683" style="stroke:#181818;stroke-width:1;"/><text fill="#000000" font-family="sans-serif" font-size="13" lengthAdjust="spacing" textLength="8.2202" x="1437.5441" y="366.279">1</text></g><!--link User to UserId--><g class="link" data-entity-1="ent0003" data-entity-2="ent0064" data-link-type="composition" data-source-line="198" id="lnk67"><path codeLine="198" d="M630.98,128.2783 C754.66,128.2783 996.95,128.2783 996.95,128.2783 C996.95,128.2783 996.95,181.1383 996.95,221.3783" fill="none" id="User-UserId" style="stroke:#181818;stroke-width:1;"/><polygon fill="#181818" points="618.98,128.2783,624.98,132.2783,630.98,128.2783,624.98,124.2783,618.98,128.2783" style="stroke:#181818;stroke-width:1;"/><polygon fill="#181818" points="996.95,227.3783,1000.95,218.3783,996.95,222.3783,992.95,218.3783,996.95,227.3783" style="stroke:#181818;stroke-width:1;"/><text fill="#000000" font-family="sans-serif" font-size="13" lengthAdjust="spacing" textLength="8.2202" x="984.7213" y="216.8121">1</text></g><!--link VendingMachine to MachineId--><g class="link" data-entity-1="ent0011" data-entity-2="ent0065" data-link-type="composition" data-source-line="199" id="lnk68"><path codeLine="199" d="M2362.6,137.2783 C2289.4,137.2783 2199,137.2783 2199,137.2783 C2199,137.2783 2199,183.6683 2199,221.1083" fill="none" id="VendingMachine-MachineId" style="stroke:#181818;stroke-width:1;"/><polygon fill="#181818" points="2374.6,137.2783,2368.6,133.2783,2362.6,137.2783,2368.6,141.2783,2374.6,137.2783" style="stroke:#181818;stroke-width:1;"/><polygon fill="#181818" points="2199,227.1083,2203,218.1083,2199,222.1083,2195,218.1083,2199,227.1083" style="stroke:#181818;stroke-width:1;"/><text fill="#000000" font-family="sans-serif" font-size="13" lengthAdjust="spacing" textLength="8.2202" x="2190.3079" y="216.7698">1</text></g><!--link Product to ProductId--><g class="link" data-entity-1="ent0022" data-entity-2="ent0066" data-link-type="composition" data-source-line="200" id="lnk69"><path codeLine="200" d="M3818.18,106.2783 C3710.51,106.2783 3520.57,106.2783 3520.57,106.2783 C3520.57,106.2783 3520.57,174.4783 3520.57,221.1383" fill="none" id="Product-ProductId" style="stroke:#181818;stroke-width:1;"/><polygon fill="#181818" points="3830.18,106.2783,3824.18,102.2783,3818.18,106.2783,3824.18,110.2783,3830.18,106.2783" style="stroke:#181818;stroke-width:1;"/><polygon fill="#181818" points="3520.57,227.1383,3524.57,218.1383,3520.57,222.1383,3516.57,218.1383,3520.57,227.1383" style="stroke:#181818;stroke-width:1;"/><text fill="#000000" font-family="sans-serif" font-size="13" lengthAdjust="spacing" textLength="8.2202" x="3516.9669" y="216.8051">1</text></g><!--link Slot to MachineId--><g class="link" data-entity-1="ent0016" data-entity-2="ent0065" data-link-type="dependency" data-source-line="202" id="lnk70"><path codeLine="202" d="M3064.79,151.4383 C3064.79,170.2083 3064.79,191.2783 3064.79,191.2783 C3064.79,191.2783 2227.57,191.2783 2227.57,191.2783 C2227.57,191.2783 2227.57,203.2083 2227.57,221.2883" fill="none" id="Slot-to-MachineId" style="stroke:#181818;stroke-width:1;stroke-dasharray:7,7;"/><polygon fill="#181818" points="2227.57,227.2883,2231.57,218.2883,2227.57,222.2883,2223.57,218.2883,2227.57,227.2883" style="stroke:#181818;stroke-width:1;"/><text fill="#000000" font-family="sans-serif" font-size="13" lengthAdjust="spacing" textLength="65.7427" x="2582.1" y="187.8466">references</text></g><!--link Slot to ProductId--><g class="link" data-entity-1="ent0016" data-entity-2="ent0066" data-link-type="dependency" data-source-line="203" id="lnk71"><path codeLine="203" d="M3177.76,117.2783 C3286.52,117.2783 3492,117.2783 3492,117.2783 C3492,117.2783 3492,177.9683 3492,221.4683" fill="none" id="Slot-to-ProductId" style="stroke:#181818;stroke-width:1;stroke-dasharray:7,7;"/><polygon fill="#181818" points="3492,227.4683,3496,218.4683,3492,222.4683,3488,218.4683,3492,227.4683" style="stroke:#181818;stroke-width:1;"/><text fill="#000000" font-family="sans-serif" font-size="13" lengthAdjust="spacing" textLength="65.7427" x="3323.97" y="113.8466">references</text></g><!--link Sale to MachineId--><g class="link" data-entity-1="ent0029" data-entity-2="ent0065" data-link-type="dependency" data-source-line="204" id="lnk72"><path codeLine="204" d="M1793.76,108.2783 C1917,108.2783 2170.43,108.2783 2170.43,108.2783 C2170.43,108.2783 2170.43,175.1183 2170.43,221.2083" fill="none" id="Sale-to-MachineId" style="stroke:#181818;stroke-width:1;stroke-dasharray:7,7;"/><polygon fill="#181818" points="2170.43,227.2083,2174.43,218.2083,2170.43,222.2083,2166.43,218.2083,2170.43,227.2083" style="stroke:#181818;stroke-width:1;"/><text fill="#000000" font-family="sans-serif" font-size="13" lengthAdjust="spacing" textLength="65.7427" x="1975.56" y="104.8466">references</text></g><!--link Sale to ProductId--><g class="link" data-entity-1="ent0029" data-entity-2="ent0066" data-link-type="dependency" data-source-line="205" id="lnk73"><path codeLine="205" d="M1787.98,151.5583 C1787.98,161.9983 1787.98,171.2783 1787.98,171.2783 C1787.98,171.2783 3463.43,171.2783 3463.43,171.2783 C3463.43,171.2783 3463.43,195.2783 3463.43,221.1783" fill="none" id="Sale-to-ProductId" style="stroke:#181818;stroke-width:1;stroke-dasharray:7,7;"/><polygon fill="#181818" points="3463.43,227.1783,3467.43,218.1783,3463.43,222.1783,3459.43,218.1783,3463.43,227.1783" style="stroke:#181818;stroke-width:1;"/><text fill="#000000" font-family="sans-serif" font-size="13" lengthAdjust="spacing" textLength="65.7427" x="2577.79" y="167.8466">references</text></g><!--link Sale to UserId--><g class="link" data-entity-1="ent0029" data-entity-2="ent0064" data-link-type="dependency" data-source-line="206" id="lnk74"><path codeLine="206" d="M1661.87,106.2783 C1488.66,106.2783 1035.05,106.2783 1035.05,106.2783 C1035.05,106.2783 1035.05,174.4783 1035.05,221.1383" fill="none" id="Sale-to-UserId" style="stroke:#181818;stroke-width:1;stroke-dasharray:7,7;"/><polygon fill="#181818" points="1035.05,227.1383,1039.05,218.1383,1035.05,222.1383,1031.05,218.1383,1035.05,227.1383" style="stroke:#181818;stroke-width:1;"/><text fill="#000000" font-family="sans-serif" font-size="13" lengthAdjust="spacing" textLength="65.7427" x="1222.03" y="102.8466">references</text></g><?plantuml-src hLVhRjis5Fxlfo1SO6itf4YnFqKG151aQH5gIvvb1zYlWPOOcIj56YJLm1iAz27wX7sI7LAITR5bny608AREJUVw7KfzfdoB9SuHevpetPOW8VL6ZDIUaJ2ibAErfEj2ao0HFAR_47JT4b4Rd8fdoZFqX9aY8qqr8sWYSamvcecKCFJZstSq9L_WzDiDyWl6q8HeJ1bwfdg37Z4h28hMVvD4A_GJ2YPeGPw893mXQjHwqnOddt56qByZXExXd4bHyDGLJCZRMugJkplqnlSzntEE2UIvuNkEV-txn_Ygv7y4ldUClqqgVT-_FggFo_Vx7xqFew-ZKUtjE4W9XwJi83GdWP3K6DNkcaXiYj5A4Gba9yiaoR0cQ264hYJ064A45paG8RMtj-sCLJ88kQju6SsyXNs8vjx2MKRbWpEP1M4GBsjAOm_yWGXqhB4kr91Xnrq6ZvuzngjuxeKJRsAVff7xoHwjmIOEZlD1Bt-DePUWLxuOfbMjDRtSTCJ5QdFuzona-e3Lvd9jqupXHUwsApl3oGOc1yqmX-SSocnAQnkjgUmZuIcOg6LFrRXKc8e4QohuEPzmcaheffAMYc8DlS50KnSfwH85psfgK_lAeTErZy9f49QrZtn_VvuvGRZqGYTqlQxlCP4Kix38rxQTNv7Jc0dTIwZg9jHAd4-Z4GlIGITMAy2PmuOmMcVSfrmFABeOmZ2JVfcgMqW0E_r7WKkSU9bsEsbpAT8YqSZ56ZEHcQHjk_XIIvpFsrpIP7WUxcas8GdDCKCuDzZHAMbY8qbsdKO3fqWcv61SzzuZWDNlNbn2JEYudygZl_3YXx_yA9hqFRInXA-2cGbHYQJRbmpOeNAGGxfNahsojJ4Z5lpjgcWrD6OlmOKLf_h_B4wDdpipPm5_4eDsAvaPWSj1YdBxqp6j9UOA9oQfiBexIXM-AFlJwOkkrQ6jvYmcrI5-AB4dkW-ctZ5Bfw7CZMRpgRUiTfVlW97okF3yLRNJsl01HRaSFYwSuLfjAM1k7LkobnJtY06Q4qXnlXrK3pZm-m3oC_hn_HlyeOCxoWq2JyqgPoWH-LOeQeghAlcHlQxySdLrXyOVnlkbtoFRZTwZjTTrZsKkDprIlPvxvCwrfHN5uJu-4qPlD-zVq5vZWqBrdXuKw6pObfkz5NV6HolTU6QtsX5YvUmXervAFLPlwRJSwosJC-xLqas56tG-PBRGzvWcWDiXkTuVXvmQZjkvDHXxBgC6RviSsK7l4VTfwPBt4DoZj-Qtpwa7iqTlmUwe3S5zWH8TJueSzjS6IvAQxwZkfzNRH0gbhl1-py3d70UEaEfTdPlc5dyC_DvCQRRHVnB6nBC5bZOEVgsKgxP_jNvLvbVeDobmUv7A_GSbUhlUcTG8pdRlXk4CEkBCM8F4KEy3gvosz-_lMkcuGUF6Zt4ZqGJSbp0jSzf6BN7UHbNJ7li_?></g></svg>