<?plantuml 1.2026.2?><svg xmlns="http://www.w3.org/2000/svg" xmlns:xlink="http://www.w3.org/1999/xlink" contentStyleType="text/css" data-diagram-type="SEQUENCE" height="1343px" preserveAspectRatio="none" style="width:968px;height:1343px;background:#FFFFFF;" version="1.1" viewBox="0 0 968 1343" width="968px" zoomAndPan="magnify"><title>Encrypted Database Backup (Level 2) &#8212; VendNet</title><defs/><g><text fill="#000000" font-family="sans-serif" font-size="14" font-weight="bold" lengthAdjust="spacing" textLength="350.499" x="305.0422" y="28.5352">Encrypted Database Backup (Level 2) &#8212; VendNet</text><rect fill="#ADD8E6" height="1293.6191" style="stroke:#181818;stroke-width:0.5;" width="307.4902" x="261.7949" y="43.4883"/><text fill="#000000" font-family="sans-serif" font-size="13" font-weight="bold" lengthAdjust="spacing" textLength="82.8687" x="374.1057" y="56.0566">VendNet API</text><g><title>Controller</title><rect fill="#FFFFFF" height="1082.0215" style="stroke:#181818;stroke-width:1;" width="10" x="301.8755" y="165.5977"/></g><g><title>Backup Service</title><rect fill="#FFFFFF" height="844.582" style="stroke:#181818;stroke-width:1;" width="10" x="503.0854" y="276.8398"/></g><g><title>MySQL Database</title><rect fill="#FFFFFF" height="29.3105" style="stroke:#181818;stroke-width:1;" width="10" x="729.21" y="636.877"/></g><g><title>Server File System</title><rect fill="#FFFFFF" height="29.3105" style="stroke:#181818;stroke-width:1;" width="10" x="862.4839" y="519.6348"/></g><g><title>Server File System</title><rect fill="#FFFFFF" height="29.3105" style="stroke:#181818;stroke-width:1;" width="10" x="862.4839" y="811.7402"/></g><rect fill="none" height="1002.4004" style="stroke:#000000;stroke-width:1.5;" width="941.5835" x="10" y="238.2188"/><rect fill="none" height="708.3398" style="stroke:#000000;stroke-width:1.5;" width="921.5835" x="20" y="465.7031"/><g class="participant-lifeline" data-entity-uid="part1" data-qualified-name="Admin" id="part1-lifeline"><g><title>Administrator</title><rect fill="#000000" fill-opacity="0.00000" height="1138.6426" width="8" x="75.8604" y="118.9766"/><line style="stroke:#181818;stroke-width:0.5;stroke-dasharray:5,5;" x1="79" x2="79" y1="118.9766" y2="1257.6191"/></g></g><g class="participant-lifeline" data-entity-uid="part2" data-qualified-name="Controller" id="part2-lifeline"><g><title>Controller</title><rect fill="#000000" fill-opacity="0.00000" height="1138.6426" width="8" x="302.8755" y="118.9766"/><line style="stroke:#181818;stroke-width:0.5;stroke-dasharray:5,5;" x1="306.7949" x2="306.7949" y1="118.9766" y2="1257.6191"/></g></g><g class="participant-lifeline" data-entity-uid="part3" data-qualified-name="BackupService" id="part3-lifeline"><g><title>Backup Service</title><rect fill="#000000" fill-opacity="0.00000" height="1138.6426" width="8" x="504.0854" y="118.9766"/><line style="stroke:#181818;stroke-width:0.5;stroke-dasharray:5,5;" x1="507.8857" x2="507.8857" y1="118.9766" y2="1257.6191"/></g></g><g class="participant-lifeline" data-entity-uid="part4" data-qualified-name="DB" id="part4-lifeline"><g><title>MySQL Database</title><rect fill="#000000" fill-opacity="0.00000" height="1138.6426" width="8" x="730.21" y="118.9766"/><line style="stroke:#181818;stroke-width:0.5;stroke-dasharray:5,5;" x1="734.0356" x2="734.0356" y1="118.9766" y2="1257.6191"/></g></g><g class="participant-lifeline" data-entity-uid="part5" data-qualified-name="FS" id="part5-lifeline"><g><title>Server File System</title><rect fill="#000000" fill-opacity="0.00000" height="1138.6426" width="8" x="863.4839" y="118.9766"/><line style="stroke:#181818;stroke-width:0.5;stroke-dasharray:5,5;" x1="867.3843" x2="867.3843" y1="118.9766" y2="1257.6191"/></g></g><g class="participant participant-head" data-entity-uid="part1" data-qualified-name="Admin" id="part1-head"><text fill="#000000" font-family="sans-serif" font-size="14" lengthAdjust="spacing" textLength="93.7207" x="30" y="116.0234">Administrator</text><ellipse cx="79.8604" cy="50.9883" fill="#E2E2F0" rx="8" ry="8" style="stroke:#181818;stroke-width:0.5;"/><path d="M79.8604,58.9883 L79.8604,85.9883 M66.8604,66.9883 L92.8604,66.9883 M79.8604,85.9883 L66.8604,100.9883 M79.8604,85.9883 L92.8604,100.9883" fill="none" style="stroke:#181818;stroke-width:0.5;"/></g><g class="participant participant-tail" data-entity-uid="part1" data-qualified-name="Admin" id="part1-tail"><text fill="#000000" font-family="sans-serif" font-size="14" lengthAdjust="spacing" textLength="93.7207" x="30" y="1270.1543">Administrator</text><ellipse cx="79.8604" cy="1281.6074" fill="#E2E2F0" rx="8" ry="8" style="stroke:#181818;stroke-width:0.5;"/><path d="M79.8604,1289.6074 L79.8604,1316.6074 M66.8604,1297.6074 L92.8604,1297.6074 M79.8604,1316.6074 L66.8604,1331.6074 M79.8604,1316.6074 L92.8604,1331.6074" fill="none" style="stroke:#181818;stroke-width:0.5;"/></g><g class="participant participant-head" data-entity-uid="part2" data-qualified-name="Controller" id="part2-head"><rect fill="#E2E2F0" height="30.4883" rx="2.5" ry="2.5" style="stroke:#181818;stroke-width:0.5;" width="82.1611" x="265.7949" y="87.4883"/><text fill="#000000" font-family="sans-serif" font-size="14" lengthAdjust="spacing" textLength="68.1611" x="272.7949" y="108.0234">Controller</text></g><g class="participant participant-tail" data-entity-uid="part2" data-qualified-name="Controller" id="part2-tail"><rect fill="#E2E2F0" height="30.4883" rx="2.5" ry="2.5" style="stroke:#181818;stroke-width:0.5;" width="82.1611" x="265.7949" y="1256.6191"/><text fill="#000000" font-family="sans-serif" font-size="14" lengthAdjust="spacing" textLength="68.1611" x="272.7949" y="1277.1543">Controller</text></g><g class="participant participant-head" data-entity-uid="part3" data-qualified-name="BackupService" id="part3-head"><rect fill="#E2E2F0" height="30.4883" rx="2.5" ry="2.5" style="stroke:#181818;stroke-width:0.5;" width="114.3994" x="450.8857" y="87.4883"/><text fill="#000000" font-family="sans-serif" font-size="14" lengthAdjust="spacing" textLength="100.3994" x="457.8857" y="108.0234">Backup Service</text></g><g class="participant participant-tail" data-entity-uid="part3" data-qualified-name="BackupService" id="part3-tail"><rect fill="#E2E2F0" height="30.4883" rx="2.5" ry="2.5" style="stroke:#181818;stroke-width:0.5;" width="114.3994" x="450.8857" y="1256.6191"/><text fill="#000000" font-family="sans-serif" font-size="14" lengthAdjust="spacing" textLength="100.3994" x="457.8857" y="1277.1543">Backup Service</text></g><g class="participant participant-head" data-entity-uid="part4" data-qualified-name="DB" id="part4-head"><text fill="#000000" font-family="sans-serif" font-size="14" lengthAdjust="spacing" textLength="112.3486" x="675.0356" y="116.0234">MySQL Database</text><path d="M716.21,66.4883 C716.21,56.4883 734.21,56.4883 734.21,56.4883 C734.21,56.4883 752.21,56.4883 752.21,66.4883 L752.21,92.4883 C752.21,102.4883 734.21,102.4883 734.21,102.4883 C734.21,102.4883 716.21,102.4883 716.21,92.4883 L716.21,66.4883" fill="#E2E2F0" style="stroke:#181818;stroke-width:0.5;"/><path d="M716.21,66.4883 C716.21,76.4883 734.21,76.4883 734.21,76.4883 C734.21,76.4883 752.21,76.4883 752.21,66.4883" fill="none" style="stroke:#181818;stroke-width:0.5;"/></g><g class="participant participant-tail" data-entity-uid="part4" data-qualified-name="DB" id="part4-tail"><text fill="#000000" font-family="sans-serif" font-size="14" lengthAdjust="spacing" textLength="112.3486" x="675.0356" y="1270.1543">MySQL Database</text><path d="M716.21,1283.1074 C716.21,1273.1074 734.21,1273.1074 734.21,1273.1074 C734.21,1273.1074 752.21,1273.1074 752.21,1283.1074 L752.21,1309.1074 C752.21,1319.1074 734.21,1319.1074 734.21,1319.1074 C734.21,1319.1074 716.21,1319.1074 716.21,1309.1074 L716.21,1283.1074" fill="#E2E2F0" style="stroke:#181818;stroke-width:0.5;"/><path d="M716.21,1283.1074 C716.21,1293.1074 734.21,1293.1074 734.21,1293.1074 C734.21,1293.1074 752.21,1293.1074 752.21,1283.1074" fill="none" style="stroke:#181818;stroke-width:0.5;"/></g><g class="participant participant-head" data-entity-uid="part5" data-qualified-name="FS" id="part5-head"><text fill="#000000" font-family="sans-serif" font-size="14" lengthAdjust="spacing" textLength="122.1992" x="803.3843" y="116.0234">Server File System</text><path d="M849.4839,66.4883 C849.4839,56.4883 867.4839,56.4883 867.4839,56.4883 C867.4839,56.4883 885.4839,56.4883 885.4839,66.4883 L885.4839,92.4883 C885.4839,102.4883 867.4839,102.4883 867.4839,102.4883 C867.4839,102.4883 849.4839,102.4883 849.4839,92.4883 L849.4839,66.4883" fill="#E2E2F0" style="stroke:#181818;stroke-width:0.5;"/><path d="M849.4839,66.4883 C849.4839,76.4883 867.4839,76.4883 867.4839,76.4883 C867.4839,76.4883 885.4839,76.4883 885.4839,66.4883" fill="none" style="stroke:#181818;stroke-width:0.5;"/></g><g class="participant participant-tail" data-entity-uid="part5" data-qualified-name="FS" id="part5-tail"><text fill="#000000" font-family="sans-serif" font-size="14" lengthAdjust="spacing" textLength="122.1992" x="803.3843" y="1270.1543">Server File System</text><path d="M849.4839,1283.1074 C849.4839,1273.1074 867.4839,1273.1074 867.4839,1273.1074 C867.4839,1273.1074 885.4839,1273.1074 885.4839,1283.1074 L885.4839,1309.1074 C885.4839,1319.1074 867.4839,1319.1074 867.4839,1319.1074 C867.4839,1319.1074 849.4839,1319.1074 849.4839,1309.1074 L849.4839,1283.1074" fill="#E2E2F0" style="stroke:#181818;stroke-width:0.5;"/><path d="M849.4839,1283.1074 C849.4839,1293.1074 867.4839,1293.1074 867.4839,1293.1074 C867.4839,1293.1074 885.4839,1293.1074 885.4839,1283.1074" fill="none" style="stroke:#181818;stroke-width:0.5;"/></g><g><title>Controller</title><rect fill="#FFFFFF" height="1082.0215" style="stroke:#181818;stroke-width:1;" width="10" x="301.8755" y="165.5977"/></g><g><title>Backup Service</title><rect fill="#FFFFFF" height="844.582" style="stroke:#181818;stroke-width:1;" width="10" x="503.0854" y="276.8398"/></g><g><title>MySQL Database</title><rect fill="#FFFFFF" height="29.3105" style="stroke:#181818;stroke-width:1;" width="10" x="729.21" y="636.877"/></g><g><title>Server File System</title><rect fill="#FFFFFF" height="29.3105" style="stroke:#181818;stroke-width:1;" width="10" x="862.4839" y="519.6348"/></g><g><title>Server File System</title><rect fill="#FFFFFF" height="29.3105" style="stroke:#181818;stroke-width:1;" width="10" x="862.4839" y="811.7402"/></g><g class="message" data-entity-1="part1" data-entity-2="part2" id="msg1"><polygon fill="#181818" points="289.8755,161.5977,299.8755,165.5977,289.8755,169.5977,293.8755,165.5977" style="stroke:#181818;stroke-width:1;"/><line style="stroke:#181818;stroke-width:1;" x1="79.8604" x2="295.8755" y1="165.5977" y2="165.5977"/><text fill="#000000" font-family="sans-serif" font-size="13" lengthAdjust="spacing" textLength="142.0732" x="86.8604" y="145.5449">POST /admin/backups</text><text fill="#000000" font-family="sans-serif" font-size="13" lengthAdjust="spacing" textLength="170.2949" x="86.8604" y="160.8555">(Authorization: Bearer JWT)</text></g><g class="message" data-entity-1="part2" data-entity-2="part2" id="msg2"><line style="stroke:#181818;stroke-width:1;" x1="311.8755" x2="353.8755" y1="210.2188" y2="210.2188"/><line style="stroke:#181818;stroke-width:1;" x1="353.8755" x2="353.8755" y1="210.2188" y2="223.2188"/><line style="stroke:#181818;stroke-width:1;" x1="312.8755" x2="353.8755" y1="223.2188" y2="223.2188"/><polygon fill="#181818" points="322.8755,219.2188,312.8755,223.2188,322.8755,227.2188,318.8755,223.2188" style="stroke:#181818;stroke-width:1;"/><text fill="#000000" font-family="sans-serif" font-size="13" lengthAdjust="spacing" textLength="91.3364" x="318.8755" y="190.166">Validate JWT &amp;</text><text fill="#000000" font-family="sans-serif" font-size="13" lengthAdjust="spacing" textLength="112.1758" x="318.8755" y="205.4766">Verify ADMIN role</text></g><path d="M10,238.2188 L72.1387,238.2188 L72.1387,245.5293 L62.1387,255.5293 L10,255.5293 L10,238.2188" fill="#EEEEEE" style="stroke:#000000;stroke-width:1.5;"/><rect fill="none" height="1002.4004" style="stroke:#000000;stroke-width:1.5;" width="941.5835" x="10" y="238.2188"/><text fill="#000000" font-family="sans-serif" font-size="13" font-weight="bold" lengthAdjust="spacing" textLength="17.1387" x="25" y="251.7871">alt</text><text fill="#000000" font-family="sans-serif" font-size="11" font-weight="bold" lengthAdjust="spacing" textLength="204.7998" x="87.1387" y="250.8535">[Authorized (ADMINISTRATOR role)]</text><g class="message" data-entity-1="part2" data-entity-2="part3" id="msg3"><polygon fill="#181818" points="491.0854,272.8398,501.0854,276.8398,491.0854,280.8398,495.0854,276.8398" style="stroke:#181818;stroke-width:1;"/><line style="stroke:#181818;stroke-width:1;" x1="311.8755" x2="497.0854" y1="276.8398" y2="276.8398"/><text fill="#000000" font-family="sans-serif" font-size="13" lengthAdjust="spacing" textLength="108.8813" x="318.8755" y="272.0977">generateBackup()</text></g><rect fill="#EEEEEE" height="3" style="stroke:#EEEEEE;stroke-width:1;" width="961.5835" x="0" y="305.4951"/><line style="stroke:#000000;stroke-width:1;" x1="0" x2="961.5835" y1="305.4951" y2="305.4951"/><line style="stroke:#000000;stroke-width:1;" x1="0" x2="961.5835" y1="308.4951" y2="308.4951"/><rect fill="#EEEEEE" height="23.3105" style="stroke:#000000;stroke-width:2;" width="119.7646" x="420.9094" y="294.8398"/><text fill="#000000" font-family="sans-serif" font-size="13" font-weight="bold" lengthAdjust="spacing" textLength="101.48" x="426.9094" y="311.4082">Path Validation</text><g class="message" data-entity-1="part3" data-entity-2="part3" id="msg4"><line style="stroke:#181818;stroke-width:1;" x1="513.0854" x2="555.0854" y1="364.7715" y2="364.7715"/><line style="stroke:#181818;stroke-width:1;" x1="555.0854" x2="555.0854" y1="364.7715" y2="377.7715"/><line style="stroke:#181818;stroke-width:1;" x1="514.0854" x2="555.0854" y1="377.7715" y2="377.7715"/><polygon fill="#181818" points="524.0854,373.7715,514.0854,377.7715,524.0854,381.7715,520.0854,377.7715" style="stroke:#181818;stroke-width:1;"/><text fill="#000000" font-family="sans-serif" font-size="13" lengthAdjust="spacing" textLength="117.7427" x="520.0854" y="344.7188">Build backup path:</text><text fill="#000000" font-family="sans-serif" font-size="13" lengthAdjust="spacing" textLength="192.1245" x="520.0854" y="360.0293">/var/vendnet/backups/{date}/</text></g><g class="message" data-entity-1="part3" data-entity-2="part3" id="msg5"><line style="stroke:#181818;stroke-width:1;" x1="513.0854" x2="555.0854" y1="437.7031" y2="437.7031"/><line style="stroke:#181818;stroke-width:1;" x1="555.0854" x2="555.0854" y1="437.7031" y2="450.7031"/><line style="stroke:#181818;stroke-width:1;" x1="514.0854" x2="555.0854" y1="450.7031" y2="450.7031"/><polygon fill="#181818" points="524.0854,446.7031,514.0854,450.7031,524.0854,454.7031,520.0854,450.7031" style="stroke:#181818;stroke-width:1;"/><text fill="#000000" font-family="sans-serif" font-size="13" lengthAdjust="spacing" textLength="132.958" x="520.0854" y="402.3398">Validate path against</text><text fill="#000000" font-family="sans-serif" font-size="13" lengthAdjust="spacing" textLength="102.7813" x="520.0854" y="417.6504">whitelist pattern</text><text fill="#000000" font-family="sans-serif" font-size="13" lengthAdjust="spacing" textLength="146.834" x="520.0854" y="432.9609">(prevent path traversal)</text></g><path d="M20,465.7031 L82.1387,465.7031 L82.1387,473.0137 L72.1387,483.0137 L20,483.0137 L20,465.7031" fill="#EEEEEE" style="stroke:#000000;stroke-width:1.5;"/><rect fill="none" height="708.3398" style="stroke:#000000;stroke-width:1.5;" width="921.5835" x="20" y="465.7031"/><text fill="#000000" font-family="sans-serif" font-size="13" font-weight="bold" lengthAdjust="spacing" textLength="17.1387" x="35" y="479.2715">alt</text><text fill="#000000" font-family="sans-serif" font-size="11" font-weight="bold" lengthAdjust="spacing" textLength="65.2695" x="97.1387" y="478.3379">[Path Valid]</text><g class="message" data-entity-1="part3" data-entity-2="part5" id="msg6"><polygon fill="#181818" points="850.4839,515.6348,860.4839,519.6348,850.4839,523.6348,854.4839,519.6348" style="stroke:#181818;stroke-width:1;"/><line style="stroke:#181818;stroke-width:1;" x1="513.0854" x2="856.4839" y1="519.6348" y2="519.6348"/><text fill="#000000" font-family="sans-serif" font-size="13" lengthAdjust="spacing" textLength="187.5986" x="520.0854" y="499.582">Create timestamped directory</text><text fill="#000000" font-family="sans-serif" font-size="13" lengthAdjust="spacing" textLength="117.6729" x="520.0854" y="514.8926">(permissions: 700)</text></g><g class="message" data-entity-1="part5" data-entity-2="part3" id="msg7"><polygon fill="#181818" points="524.0854,544.9453,514.0854,548.9453,524.0854,552.9453,520.0854,548.9453" style="stroke:#181818;stroke-width:1;"/><line style="stroke:#181818;stroke-width:1;stroke-dasharray:2,2;" x1="518.0854" x2="866.4839" y1="548.9453" y2="548.9453"/><text fill="#000000" font-family="sans-serif" font-size="13" lengthAdjust="spacing" textLength="108.4751" x="530.0854" y="544.2031">Directory created</text></g><rect fill="#EEEEEE" height="3" style="stroke:#EEEEEE;stroke-width:1;" width="961.5835" x="0" y="577.6006"/><line style="stroke:#000000;stroke-width:1;" x1="0" x2="961.5835" y1="577.6006" y2="577.6006"/><line style="stroke:#000000;stroke-width:1;" x1="0" x2="961.5835" y1="580.6006" y2="580.6006"/><rect fill="#EEEEEE" height="23.3105" style="stroke:#000000;stroke-width:2;" width="124.7222" x="418.4307" y="566.9453"/><text fill="#000000" font-family="sans-serif" font-size="13" font-weight="bold" lengthAdjust="spacing" textLength="106.4375" x="424.4307" y="583.5137">Database Dump</text><g class="message" data-entity-1="part3" data-entity-2="part4" id="msg8"><polygon fill="#181818" points="717.21,632.877,727.21,636.877,717.21,640.877,721.21,636.877" style="stroke:#181818;stroke-width:1;"/><line style="stroke:#181818;stroke-width:1;" x1="513.0854" x2="723.21" y1="636.877" y2="636.877"/><text fill="#000000" font-family="sans-serif" font-size="13" lengthAdjust="spacing" textLength="127.2705" x="520.0854" y="616.8242">Execute mysqldump</text><text fill="#000000" font-family="sans-serif" font-size="13" lengthAdjust="spacing" textLength="113.2295" x="520.0854" y="632.1348">via ProcessBuilder</text></g><g class="message" data-entity-1="part4" data-entity-2="part3" id="msg9"><polygon fill="#181818" points="524.0854,662.1875,514.0854,666.1875,524.0854,670.1875,520.0854,666.1875" style="stroke:#181818;stroke-width:1;"/><line style="stroke:#181818;stroke-width:1;stroke-dasharray:2,2;" x1="518.0854" x2="733.21" y1="666.1875" y2="666.1875"/><text fill="#000000" font-family="sans-serif" font-size="13" lengthAdjust="spacing" textLength="112.1948" x="530.0854" y="661.4453">SQL dump stream</text></g><rect fill="#EEEEEE" height="3" style="stroke:#EEEEEE;stroke-width:1;" width="961.5835" x="0" y="694.8428"/><line style="stroke:#000000;stroke-width:1;" x1="0" x2="961.5835" y1="694.8428" y2="694.8428"/><line style="stroke:#000000;stroke-width:1;" x1="0" x2="961.5835" y1="697.8428" y2="697.8428"/><rect fill="#EEEEEE" height="23.3105" style="stroke:#000000;stroke-width:2;" width="158.9805" x="401.3015" y="684.1875"/><text fill="#000000" font-family="sans-serif" font-size="13" font-weight="bold" lengthAdjust="spacing" textLength="140.6958" x="407.3015" y="700.7559">Encryption &amp; Storage</text><g class="message" data-entity-1="part3" data-entity-2="part3" id="msg10"><line style="stroke:#181818;stroke-width:1;" x1="513.0854" x2="555.0854" y1="754.1191" y2="754.1191"/><line style="stroke:#181818;stroke-width:1;" x1="555.0854" x2="555.0854" y1="754.1191" y2="767.1191"/><line style="stroke:#181818;stroke-width:1;" x1="514.0854" x2="555.0854" y1="767.1191" y2="767.1191"/><polygon fill="#181818" points="524.0854,763.1191,514.0854,767.1191,524.0854,771.1191,520.0854,767.1191" style="stroke:#181818;stroke-width:1;"/><text fill="#000000" font-family="sans-serif" font-size="13" lengthAdjust="spacing" textLength="94.4087" x="520.0854" y="734.0664">Encrypt stream</text><text fill="#000000" font-family="sans-serif" font-size="13" lengthAdjust="spacing" textLength="100.7627" x="520.0854" y="749.377">(AES-256-GCM)</text></g><g class="message" data-entity-1="part3" data-entity-2="part5" id="msg11"><polygon fill="#181818" points="850.4839,807.7402,860.4839,811.7402,850.4839,815.7402,854.4839,811.7402" style="stroke:#181818;stroke-width:1;"/><line style="stroke:#181818;stroke-width:1;" x1="513.0854" x2="856.4839" y1="811.7402" y2="811.7402"/><text fill="#000000" font-family="sans-serif" font-size="13" lengthAdjust="spacing" textLength="122.6177" x="520.0854" y="791.6875">Write encrypted file</text><text fill="#000000" font-family="sans-serif" font-size="13" lengthAdjust="spacing" textLength="174.6621" x="520.0854" y="806.998">(.sql.enc, permissions: 600)</text></g><g class="message" data-entity-1="part5" data-entity-2="part3" id="msg12"><polygon fill="#181818" points="524.0854,837.0508,514.0854,841.0508,524.0854,845.0508,520.0854,841.0508" style="stroke:#181818;stroke-width:1;"/><line style="stroke:#181818;stroke-width:1;stroke-dasharray:2,2;" x1="518.0854" x2="866.4839" y1="841.0508" y2="841.0508"/><text fill="#000000" font-family="sans-serif" font-size="13" lengthAdjust="spacing" textLength="69.9702" x="530.0854" y="836.3086">File written</text></g><g class="message" data-entity-1="part3" data-entity-2="part3" id="msg13"><line style="stroke:#181818;stroke-width:1;" x1="513.0854" x2="555.0854" y1="885.6719" y2="885.6719"/><line style="stroke:#181818;stroke-width:1;" x1="555.0854" x2="555.0854" y1="885.6719" y2="898.6719"/><line style="stroke:#181818;stroke-width:1;" x1="514.0854" x2="555.0854" y1="898.6719" y2="898.6719"/><polygon fill="#181818" points="524.0854,894.6719,514.0854,898.6719,524.0854,902.6719,520.0854,898.6719" style="stroke:#181818;stroke-width:1;"/><text fill="#000000" font-family="sans-serif" font-size="13" lengthAdjust="spacing" textLength="119.52" x="520.0854" y="865.6191">Calculate SHA-256</text><text fill="#000000" font-family="sans-serif" font-size="13" lengthAdjust="spacing" textLength="63.0576" x="520.0854" y="880.9297">checksum</text></g><g class="message" data-entity-1="part3" data-entity-2="part4" id="msg14"><polygon fill="#181818" points="722.21,939.293,732.21,943.293,722.21,947.293,726.21,943.293" style="stroke:#181818;stroke-width:1;"/><line style="stroke:#181818;stroke-width:1;" x1="513.0854" x2="728.21" y1="943.293" y2="943.293"/><text fill="#000000" font-family="sans-serif" font-size="13" lengthAdjust="spacing" textLength="106.3486" x="520.0854" y="923.2402">INSERT audit_log</text><text fill="#000000" font-family="sans-serif" font-size="13" lengthAdjust="spacing" textLength="161.5669" x="520.0854" y="938.5508">(BACKUP_CREATED event)</text></g><g class="message" data-entity-1="part3" data-entity-2="part2" id="msg15"><polygon fill="#181818" points="322.8755,983.9141,312.8755,987.9141,322.8755,991.9141,318.8755,987.9141" style="stroke:#181818;stroke-width:1;"/><line style="stroke:#181818;stroke-width:1;stroke-dasharray:2,2;" x1="316.8755" x2="502.0854" y1="987.9141" y2="987.9141"/><text fill="#000000" font-family="sans-serif" font-size="13" lengthAdjust="spacing" textLength="83.9414" x="328.8755" y="967.8613">BackupResult</text><text fill="#000000" font-family="sans-serif" font-size="13" lengthAdjust="spacing" textLength="167.21" x="328.8755" y="983.1719">(filename, size, checksum)</text></g><g class="message" data-entity-1="part2" data-entity-2="part1" id="msg16"><polygon fill="#181818" points="90.8604,1028.5352,80.8604,1032.5352,90.8604,1036.5352,86.8604,1032.5352" style="stroke:#181818;stroke-width:1;"/><line style="stroke:#181818;stroke-width:1;stroke-dasharray:2,2;" x1="84.8604" x2="300.8755" y1="1032.5352" y2="1032.5352"/><text fill="#000000" font-family="sans-serif" font-size="13" lengthAdjust="spacing" textLength="77.7969" x="96.8604" y="1012.4824">201 Created</text><text fill="#000000" font-family="sans-serif" font-size="13" lengthAdjust="spacing" textLength="117.2603" x="96.8604" y="1027.793">(backup metadata)</text></g><line style="stroke:#000000;stroke-width:1;stroke-dasharray:2,2;" x1="20" x2="941.5835" y1="1041.5352" y2="1041.5352"/><text fill="#000000" font-family="sans-serif" font-size="11" font-weight="bold" lengthAdjust="spacing" textLength="131.3179" x="25" y="1052.1699">[Path Validation Failed]</text><g class="message" data-entity-1="part3" data-entity-2="part4" id="msg17"><polygon fill="#181818" points="722.21,1088.1113,732.21,1092.1113,722.21,1096.1113,726.21,1092.1113" style="stroke:#181818;stroke-width:1;"/><line style="stroke:#181818;stroke-width:1;" x1="513.0854" x2="728.21" y1="1092.1113" y2="1092.1113"/><text fill="#000000" font-family="sans-serif" font-size="13" lengthAdjust="spacing" textLength="106.3486" x="520.0854" y="1072.0586">INSERT audit_log</text><text fill="#000000" font-family="sans-serif" font-size="13" lengthAdjust="spacing" textLength="183.46" x="520.0854" y="1087.3691">(SECURITY_VIOLATION event)</text></g><g class="message" data-entity-1="part3" data-entity-2="part2" id="msg18"><polygon fill="#181818" points="322.8755,1117.4219,312.8755,1121.4219,322.8755,1125.4219,318.8755,1121.4219" style="stroke:#181818;stroke-width:1;"/><line style="stroke:#181818;stroke-width:1;stroke-dasharray:2,2;" x1="316.8755" x2="507.0854" y1="1121.4219" y2="1121.4219"/><text fill="#000000" font-family="sans-serif" font-size="13" lengthAdjust="spacing" textLength="111.4775" x="328.8755" y="1116.6797">SecurityException</text></g><g class="message" data-entity-1="part2" data-entity-2="part1" id="msg19"><polygon fill="#181818" points="90.8604,1162.043,80.8604,1166.043,90.8604,1170.043,86.8604,1166.043" style="stroke:#181818;stroke-width:1;"/><line style="stroke:#181818;stroke-width:1;stroke-dasharray:2,2;" x1="84.8604" x2="300.8755" y1="1166.043" y2="1166.043"/><text fill="#000000" font-family="sans-serif" font-size="13" lengthAdjust="spacing" textLength="106.1709" x="96.8604" y="1145.9902">400 Bad Request</text><text fill="#000000" font-family="sans-serif" font-size="13" lengthAdjust="spacing" textLength="188.5635" x="96.8604" y="1161.3008">(Invalid backup configuration)</text></g><line style="stroke:#000000;stroke-width:1;stroke-dasharray:2,2;" x1="10" x2="951.5835" y1="1182.043" y2="1182.043"/><text fill="#000000" font-family="sans-serif" font-size="11" font-weight="bold" lengthAdjust="spacing" textLength="84.686" x="15" y="1192.6777">[Unauthorized]</text><g class="message" data-entity-1="part2" data-entity-2="part1" id="msg20"><polygon fill="#181818" points="90.8604,1228.6191,80.8604,1232.6191,90.8604,1236.6191,86.8604,1232.6191" style="stroke:#181818;stroke-width:1;"/><line style="stroke:#181818;stroke-width:1;stroke-dasharray:2,2;" x1="84.8604" x2="300.8755" y1="1232.6191" y2="1232.6191"/><text fill="#000000" font-family="sans-serif" font-size="13" lengthAdjust="spacing" textLength="92.6631" x="96.8604" y="1212.5664">403 Forbidden</text><text fill="#000000" font-family="sans-serif" font-size="13" lengthAdjust="spacing" textLength="198.0151" x="96.8604" y="1227.877">(Administrator access required)</text></g><?plantuml-src dLNRRjf047ttLuoe584K0atRL49A9NDhQGbGJ8Wg8KKRUmAhsckokoQXLQL-HB-mNzBPnJQNKDAK9vYTFJFdpCv1SnqYj8GlbtED0JIPPZTC8TIP_pMPGx6B2mpXj0I_V_w2COgWXzfncAzZ2GKtYBZWIaj6Fml05DY8uzp43r18iy4TT0hmeikdCrqF4tI0FdCcDVVvd0aDXKOij8p345SOwv-FKzEsF9GBxgDDNuNIY4CrWQexJf0nALmilS_Td9czqwnld9khAA7DIGblgJH6DgVjEOwb0-Lt6ptLOD3tHb1XvgXoOukhYIYwYPx5adzZciUY1dLaaa0_NerAHYs-O1etcQs_xiAFMSW3aqrtuMWYnYZvxHBSvaMd1vI497z8ggRrQ6X5UzRnHaDtr1_Qd99ZjTkkigLK3QOea2Q7gt2nP6_alMxBQi_Eps70z2pha7XIo9vi9UyfLKzuI7DP3MzE6BM9g2oOh2neNW9rfcFbks7-e_9FeBbG1X3Ob76Xz4JSpxZ6a5wbYMkKWeOpb_ICXLvbqdEbUIiMfY8PDTUyR6Xl-RPNWuP4Kr7p29LcqPpK3xX4imvBKmTbn9KYPLGDtbQhfHmjrvMULHPhUr1-JAkPuO5lYwqx2d0J9G_JMFArRIRHF1lANXBDUWrQ3-Wd118jrLqOq8s9M7060ndxg9ITLRfxMvtJqcInPdrVvsRD31oG8o2BzlLD69jzfyPZNj8HU4IQJV5W-piLq_jfGRE5BQzy-kQi_BvnKJeyoIj9pmGmTxvRMdy2E259JYXw35kpFFk_MLfFkQTA6iLJOtoAQuE5VXAQMzu7rv2S27-6_bULH8V7tUbvhU48M19mVHt6Ks9PTnkVBWVNZM7B7RMQO9VZhthj-DFgT8Wg2MdRYaOtmI8y1aLcT0nPJskuJHCYBEkfDJYjlaotAI2Kr1eYrCmOSxgP6DAJthMSDgEAmRCfUwt6vR0p-d8zxlIxxgZJxpsFjaSxGuDSjXvyj2zstpotJVEm0A-hLSeFO8Xt2HhZAdR4mj3CVDAFnIsV9jBINhL9RkauLfLBmV8_0ETGaLVGZkKD3m8qHhZrZqqFsImyIEg0J2SeEHP_WyyQz0y0?></g></svg>