<svg xmlns="http://www.w3.org/2000/svg" xmlns:xlink="http://www.w3.org/1999/xlink" contentStyleType="text/css" height="463px" preserveAspectRatio="none" style="width:505px;height:463px;background:#FFFFFF;" version="1.1" viewBox="0 0 505 463" width="505px" zoomAndPan="magnify"><defs/><g><rect fill="#FFFFFF" height="254.377" style="stroke:#181818;stroke-width:1.0;" width="10" x="311.0327" y="116.9121"/><rect fill="none" height="187.0859" style="stroke:#000000;stroke-width:1.5;" width="488.1743" x="10" y="176.2031"/><line style="stroke:#181818;stroke-width:0.5;stroke-dasharray:5.0,5.0;" x1="37" x2="37" y1="83.6211" y2="380.2891"/><line style="stroke:#181818;stroke-width:0.5;stroke-dasharray:5.0,5.0;" x1="315.6948" x2="315.6948" y1="83.6211" y2="380.2891"/><text fill="#000000" font-family="sans-serif" font-size="14" lengthAdjust="spacing" textLength="29.5586" x="20" y="80.1074">User</text><ellipse cx="37.7793" cy="13.5" fill="#E2E2F0" rx="8" ry="8" style="stroke:#181818;stroke-width:0.5;"/><path d="M37.7793,21.5 L37.7793,48.5 M24.7793,29.5 L50.7793,29.5 M37.7793,48.5 L24.7793,63.5 M37.7793,48.5 L50.7793,63.5 " fill="none" style="stroke:#181818;stroke-width:0.5;"/><text fill="#000000" font-family="sans-serif" font-size="14" lengthAdjust="spacing" textLength="29.5586" x="20" y="394.3965">User</text><ellipse cx="37.7793" cy="406.4102" fill="#E2E2F0" rx="8" ry="8" style="stroke:#181818;stroke-width:0.5;"/><path d="M37.7793,414.4102 L37.7793,441.4102 M24.7793,422.4102 L50.7793,422.4102 M37.7793,441.4102 L24.7793,456.4102 M37.7793,441.4102 L50.7793,456.4102 " fill="none" style="stroke:#181818;stroke-width:0.5;"/><rect fill="#E2E2F0" height="32.6211" rx="2.5" ry="2.5" style="stroke:#181818;stroke-width:0.5;" width="60.6758" x="285.6948" y="50"/><text fill="#000000" font-family="sans-serif" font-size="14" lengthAdjust="spacing" textLength="46.6758" x="292.6948" y="72.1074">System</text><rect fill="#E2E2F0" height="32.6211" rx="2.5" ry="2.5" style="stroke:#181818;stroke-width:0.5;" width="60.6758" x="285.6948" y="379.2891"/><text fill="#000000" font-family="sans-serif" font-size="14" lengthAdjust="spacing" textLength="46.6758" x="292.6948" y="401.3965">System</text><rect fill="#FFFFFF" height="254.377" style="stroke:#181818;stroke-width:1.0;" width="10" x="311.0327" y="116.9121"/><polygon fill="#181818" points="299.0327,112.9121,309.0327,116.9121,299.0327,120.9121,303.0327,116.9121" style="stroke:#181818;stroke-width:1.0;"/><line style="stroke:#181818;stroke-width:1.0;" x1="37.7793" x2="305.0327" y1="116.9121" y2="116.9121"/><text fill="#000000" font-family="sans-serif" font-size="13" lengthAdjust="spacing" textLength="114.1816" x="44.7793" y="111.6494">Request data listing</text><line style="stroke:#181818;stroke-width:1.0;" x1="321.0327" x2="363.0327" y1="148.2031" y2="148.2031"/><line style="stroke:#181818;stroke-width:1.0;" x1="363.0327" x2="363.0327" y1="148.2031" y2="161.2031"/><line style="stroke:#181818;stroke-width:1.0;" x1="322.0327" x2="363.0327" y1="161.2031" y2="161.2031"/><polygon fill="#181818" points="332.0327,157.2031,322.0327,161.2031,332.0327,165.2031,328.0327,161.2031" style="stroke:#181818;stroke-width:1.0;"/><text fill="#000000" font-family="sans-serif" font-size="13" lengthAdjust="spacing" textLength="163.3125" x="328.0327" y="142.9404">Validate request parameters</text><path d="M10,176.2031 L70.1709,176.2031 L70.1709,185.4941 L60.1709,195.4941 L10,195.4941 L10,176.2031 " fill="#EEEEEE" style="stroke:#000000;stroke-width:1.5;"/><rect fill="none" height="187.0859" style="stroke:#000000;stroke-width:1.5;" width="488.1743" x="10" y="176.2031"/><text fill="#000000" font-family="sans-serif" font-size="13" font-weight="bold" lengthAdjust="spacing" textLength="15.1709" x="25" y="191.2314">alt</text><text fill="#000000" font-family="sans-serif" font-size="11" font-weight="bold" lengthAdjust="spacing" textLength="114.9521" x="85.1709" y="190.0732">[Parameters are valid]</text><line style="stroke:#181818;stroke-width:1.0;" x1="321.0327" x2="363.0327" y1="218.7852" y2="218.7852"/><line style="stroke:#181818;stroke-width:1.0;" x1="363.0327" x2="363.0327" y1="218.7852" y2="231.7852"/><line style="stroke:#181818;stroke-width:1.0;" x1="322.0327" x2="363.0327" y1="231.7852" y2="231.7852"/><polygon fill="#181818" points="332.0327,227.7852,322.0327,231.7852,332.0327,235.7852,328.0327,231.7852" style="stroke:#181818;stroke-width:1.0;"/><text fill="#000000" font-family="sans-serif" font-size="13" lengthAdjust="spacing" textLength="148.1416" x="328.0327" y="213.5225">Fetch data from database</text><line style="stroke:#181818;stroke-width:1.0;" x1="321.0327" x2="363.0327" y1="263.0762" y2="263.0762"/><line style="stroke:#181818;stroke-width:1.0;" x1="363.0327" x2="363.0327" y1="263.0762" y2="276.0762"/><line style="stroke:#181818;stroke-width:1.0;" x1="322.0327" x2="363.0327" y1="276.0762" y2="276.0762"/><polygon fill="#181818" points="332.0327,272.0762,322.0327,276.0762,332.0327,280.0762,328.0327,276.0762" style="stroke:#181818;stroke-width:1.0;"/><text fill="#000000" font-family="sans-serif" font-size="13" lengthAdjust="spacing" textLength="145.9707" x="328.0327" y="257.8135">Apply filtering and sorting</text><polygon fill="#181818" points="48.7793,303.3672,38.7793,307.3672,48.7793,311.3672,44.7793,307.3672" style="stroke:#181818;stroke-width:1.0;"/><line style="stroke:#181818;stroke-width:1.0;stroke-dasharray:2.0,2.0;" x1="42.7793" x2="310.0327" y1="307.3672" y2="307.3672"/><text fill="#000000" font-family="sans-serif" font-size="13" lengthAdjust="spacing" textLength="111.249" x="54.7793" y="302.1045">Display list of items</text><line style="stroke:#000000;stroke-width:1.0;stroke-dasharray:2.0,2.0;" x1="10" x2="498.1743" y1="316.3672" y2="316.3672"/><text fill="#000000" font-family="sans-serif" font-size="11" font-weight="bold" lengthAdjust="spacing" textLength="124.7275" x="15" y="328.2373">[Parameters are invalid]</text><polygon fill="#181818" points="48.7793,351.2891,38.7793,355.2891,48.7793,359.2891,44.7793,355.2891" style="stroke:#181818;stroke-width:1.0;"/><line style="stroke:#181818;stroke-width:1.0;stroke-dasharray:2.0,2.0;" x1="42.7793" x2="310.0327" y1="355.2891" y2="355.2891"/><text fill="#000000" font-family="sans-serif" font-size="13" lengthAdjust="spacing" textLength="249.2534" x="54.7793" y="350.0264">Display error message (Invalid parameters)</text><!--SRC=[TP31IiH038RlUOgVFUbXNs0FWY22DrdHUspJtS1qEYPneM_lj5sbR74kav3_I_w4cnWCxov6XIsqqS8vi7iRFQJVWHrBI3I9i7-uvWSSvUjRFD1oC99wQ3uHDw4N3lcbbc-DVN3ITbBObQzpkPSGS-8KUFrBmIQuJ792VTjMpnBDUPdVsT3FqIUxq3_wnrBIY4vJxLxDWdCB7smslYOgCYrxm9DwIJpEss7eeBNi9CdbrgRchT5D6p6hn-x5dK-2kvU5MHtWdYItFm00]--></g></svg>