<svg xmlns="http://www.w3.org/2000/svg" xmlns:xlink="http://www.w3.org/1999/xlink" contentStyleType="text/css" height="1063px" preserveAspectRatio="none" style="width:1230px;height:1063px;background:#FFFFFF;" version="1.1" viewBox="0 0 1230 1063" width="1230px" zoomAndPan="magnify"><title>Delete Process (Level 3)</title><defs/><g><text fill="#000000" font-family="sans-serif" font-size="14" font-weight="bold" lengthAdjust="spacing" textLength="161.082" x="535.5789" y="30.1074">Delete Process (Level 3)</text><rect fill="#ADD8E6" height="1012.1191" style="stroke:#181818;stroke-width:0.5;" width="652.2427" x="220.5991" y="45.6211"/><text fill="#000000" font-family="sans-serif" font-size="13" font-weight="bold" lengthAdjust="spacing" textLength="70.7764" x="511.3323" y="59.6494">Application</text><rect fill="#90EE90" height="1012.1191" style="stroke:#181818;stroke-width:0.5;" width="104.2617" x="932.2612" y="45.6211"/><text fill="#000000" font-family="sans-serif" font-size="13" font-weight="bold" lengthAdjust="spacing" textLength="47.6709" x="960.5566" y="59.6494">Domain</text><rect fill="#FFFFFF" height="809.5859" style="stroke:#181818;stroke-width:1.0;" width="10" x="287.6782" y="156.5332"/><rect fill="#FFFFFF" height="606.5" style="stroke:#181818;stroke-width:1.0;" width="10" x="491.4907" y="258.4063"/><rect fill="#FFFFFF" height="156.4551" style="stroke:#181818;stroke-width:1.0;" width="10" x="790.7041" y="289.6973"/><rect fill="#FFFFFF" height="93.873" style="stroke:#181818;stroke-width:1.0;" width="10" x="790.7041" y="574.3164"/><rect fill="#FFFFFF" height="31.291" style="stroke:#181818;stroke-width:1.0;" width="10" x="979.3921" y="383.5703"/><rect fill="#FFFFFF" height="31.291" style="stroke:#181818;stroke-width:1.0;" width="10" x="1112.8813" y="320.9883"/><rect fill="#FFFFFF" height="31.291" style="stroke:#181818;stroke-width:1.0;" width="10" x="1112.8813" y="605.6074"/><rect fill="none" height="743.2949" style="stroke:#000000;stroke-width:1.5;" width="1213.2397" x="10" y="215.8242"/><rect fill="none" height="443.0449" style="stroke:#000000;stroke-width:1.5;" width="1193.2397" x="20" y="461.1523"/><rect fill="none" height="286.25" style="stroke:#000000;stroke-width:1.5;" width="1173.2397" x="30" y="531.7344"/><line style="stroke:#181818;stroke-width:0.5;stroke-dasharray:5.0,5.0;" x1="57" x2="57" y1="123.2422" y2="976.1191"/><line style="stroke:#181818;stroke-width:0.5;stroke-dasharray:5.0,5.0;" x1="292.5991" x2="292.5991" y1="123.2422" y2="976.1191"/><line style="stroke:#181818;stroke-width:0.5;stroke-dasharray:5.0,5.0;" x1="496.0322" x2="496.0322" y1="123.2422" y2="976.1191"/><line style="stroke:#181818;stroke-width:0.5;stroke-dasharray:5.0,5.0;" x1="795.5664" x2="795.5664" y1="123.2422" y2="976.1191"/><line style="stroke:#181818;stroke-width:0.5;stroke-dasharray:5.0,5.0;" x1="984.2612" x2="984.2612" y1="123.2422" y2="976.1191"/><line style="stroke:#181818;stroke-width:0.5;stroke-dasharray:5.0,5.0;" x1="1117.5229" x2="1117.5229" y1="123.2422" y2="976.1191"/><text fill="#000000" font-family="sans-serif" font-size="14" lengthAdjust="spacing" textLength="29.5586" x="40" y="119.7285">User</text><ellipse cx="57.7793" cy="53.1211" fill="#E2E2F0" rx="8" ry="8" style="stroke:#181818;stroke-width:0.5;"/><path d="M57.7793,61.1211 L57.7793,88.1211 M44.7793,69.1211 L70.7793,69.1211 M57.7793,88.1211 L44.7793,103.1211 M57.7793,88.1211 L70.7793,103.1211 " fill="none" style="stroke:#181818;stroke-width:0.5;"/><text fill="#000000" font-family="sans-serif" font-size="14" lengthAdjust="spacing" textLength="29.5586" x="40" y="990.2266">User</text><ellipse cx="57.7793" cy="1002.2402" fill="#E2E2F0" rx="8" ry="8" style="stroke:#181818;stroke-width:0.5;"/><path d="M57.7793,1010.2402 L57.7793,1037.2402 M44.7793,1018.2402 L70.7793,1018.2402 M57.7793,1037.2402 L44.7793,1052.2402 M57.7793,1037.2402 L70.7793,1052.2402 " fill="none" style="stroke:#181818;stroke-width:0.5;"/><rect fill="#E2E2F0" height="32.6211" rx="2.5" ry="2.5" style="stroke:#181818;stroke-width:0.5;" width="136.1582" x="224.5991" y="89.6211"/><text fill="#000000" font-family="sans-serif" font-size="14" lengthAdjust="spacing" textLength="122.1582" x="231.5991" y="111.7285">Controller:controller</text><rect fill="#E2E2F0" height="32.6211" rx="2.5" ry="2.5" style="stroke:#181818;stroke-width:0.5;" width="136.1582" x="224.5991" y="975.1191"/><text fill="#000000" font-family="sans-serif" font-size="14" lengthAdjust="spacing" textLength="122.1582" x="231.5991" y="997.2266">Controller:controller</text><rect fill="#E2E2F0" height="32.6211" rx="2.5" ry="2.5" style="stroke:#181818;stroke-width:0.5;" width="108.917" x="442.0322" y="89.6211"/><text fill="#000000" font-family="sans-serif" font-size="14" lengthAdjust="spacing" textLength="94.917" x="449.0322" y="111.7285">Service:service</text><rect fill="#E2E2F0" height="32.6211" rx="2.5" ry="2.5" style="stroke:#181818;stroke-width:0.5;" width="108.917" x="442.0322" y="975.1191"/><text fill="#000000" font-family="sans-serif" font-size="14" lengthAdjust="spacing" textLength="94.917" x="449.0322" y="997.2266">Service:service</text><rect fill="#E2E2F0" height="32.6211" rx="2.5" ry="2.5" style="stroke:#181818;stroke-width:0.5;" width="146.2754" x="722.5664" y="89.6211"/><text fill="#000000" font-family="sans-serif" font-size="14" lengthAdjust="spacing" textLength="132.2754" x="729.5664" y="111.7285">Repository:repository</text><rect fill="#E2E2F0" height="32.6211" rx="2.5" ry="2.5" style="stroke:#181818;stroke-width:0.5;" width="146.2754" x="722.5664" y="975.1191"/><text fill="#000000" font-family="sans-serif" font-size="14" lengthAdjust="spacing" textLength="132.2754" x="729.5664" y="997.2266">Repository:repository</text><text fill="#000000" font-family="sans-serif" font-size="14" lengthAdjust="spacing" textLength="90.2617" x="936.2612" y="119.7285">Domain Model</text><ellipse cx="984.3921" cy="88.6211" fill="#E2E2F0" rx="12" ry="12" style="stroke:#181818;stroke-width:0.5;"/><line style="stroke:#181818;stroke-width:0.5;" x1="972.3921" x2="996.3921" y1="102.6211" y2="102.6211"/><text fill="#000000" font-family="sans-serif" font-size="14" lengthAdjust="spacing" textLength="90.2617" x="936.2612" y="990.2266">Domain Model</text><ellipse cx="984.3921" cy="1009.7402" fill="#E2E2F0" rx="12" ry="12" style="stroke:#181818;stroke-width:0.5;"/><line style="stroke:#181818;stroke-width:0.5;" x1="972.3921" x2="996.3921" y1="1023.7402" y2="1023.7402"/><text fill="#000000" font-family="sans-serif" font-size="14" lengthAdjust="spacing" textLength="144.7168" x="1042.5229" y="119.7285">Persistence Layer (DB)</text><path d="M1099.8813,68.6211 C1099.8813,58.6211 1117.8813,58.6211 1117.8813,58.6211 C1117.8813,58.6211 1135.8813,58.6211 1135.8813,68.6211 L1135.8813,94.6211 C1135.8813,104.6211 1117.8813,104.6211 1117.8813,104.6211 C1117.8813,104.6211 1099.8813,104.6211 1099.8813,94.6211 L1099.8813,68.6211 " fill="#E2E2F0" style="stroke:#181818;stroke-width:1.5;"/><path d="M1099.8813,68.6211 C1099.8813,78.6211 1117.8813,78.6211 1117.8813,78.6211 C1117.8813,78.6211 1135.8813,78.6211 1135.8813,68.6211 " fill="none" style="stroke:#181818;stroke-width:1.5;"/><text fill="#000000" font-family="sans-serif" font-size="14" lengthAdjust="spacing" textLength="144.7168" x="1042.5229" y="990.2266">Persistence Layer (DB)</text><path d="M1099.8813,1003.7402 C1099.8813,993.7402 1117.8813,993.7402 1117.8813,993.7402 C1117.8813,993.7402 1135.8813,993.7402 1135.8813,1003.7402 L1135.8813,1029.7402 C1135.8813,1039.7402 1117.8813,1039.7402 1117.8813,1039.7402 C1117.8813,1039.7402 1099.8813,1039.7402 1099.8813,1029.7402 L1099.8813,1003.7402 " fill="#E2E2F0" style="stroke:#181818;stroke-width:1.5;"/><path d="M1099.8813,1003.7402 C1099.8813,1013.7402 1117.8813,1013.7402 1117.8813,1013.7402 C1117.8813,1013.7402 1135.8813,1013.7402 1135.8813,1003.7402 " fill="none" style="stroke:#181818;stroke-width:1.5;"/><rect fill="#FFFFFF" height="809.5859" style="stroke:#181818;stroke-width:1.0;" width="10" x="287.6782" y="156.5332"/><rect fill="#FFFFFF" height="606.5" style="stroke:#181818;stroke-width:1.0;" width="10" x="491.4907" y="258.4063"/><rect fill="#FFFFFF" height="156.4551" style="stroke:#181818;stroke-width:1.0;" width="10" x="790.7041" y="289.6973"/><rect fill="#FFFFFF" height="93.873" style="stroke:#181818;stroke-width:1.0;" width="10" x="790.7041" y="574.3164"/><rect fill="#FFFFFF" height="31.291" style="stroke:#181818;stroke-width:1.0;" width="10" x="979.3921" y="383.5703"/><rect fill="#FFFFFF" height="31.291" style="stroke:#181818;stroke-width:1.0;" width="10" x="1112.8813" y="320.9883"/><rect fill="#FFFFFF" height="31.291" style="stroke:#181818;stroke-width:1.0;" width="10" x="1112.8813" y="605.6074"/><polygon fill="#181818" points="275.6782,152.5332,285.6782,156.5332,275.6782,160.5332,279.6782,156.5332" style="stroke:#181818;stroke-width:1.0;"/><line style="stroke:#181818;stroke-width:1.0;" x1="57.7793" x2="281.6782" y1="156.5332" y2="156.5332"/><text fill="#000000" font-family="sans-serif" font-size="13" lengthAdjust="spacing" textLength="124.998" x="64.7793" y="151.2705">Request Deletion (ID)</text><line style="stroke:#181818;stroke-width:1.0;" x1="297.6782" x2="339.6782" y1="187.8242" y2="187.8242"/><line style="stroke:#181818;stroke-width:1.0;" x1="339.6782" x2="339.6782" y1="187.8242" y2="200.8242"/><line style="stroke:#181818;stroke-width:1.0;" x1="298.6782" x2="339.6782" y1="200.8242" y2="200.8242"/><polygon fill="#181818" points="308.6782,196.8242,298.6782,200.8242,308.6782,204.8242,304.6782,200.8242" style="stroke:#181818;stroke-width:1.0;"/><text fill="#000000" font-family="sans-serif" font-size="13" lengthAdjust="spacing" textLength="169.8125" x="304.6782" y="182.5615">Validate Request Parameters</text><path d="M10,215.8242 L70.1709,215.8242 L70.1709,225.1152 L60.1709,235.1152 L10,235.1152 L10,215.8242 " fill="#EEEEEE" style="stroke:#000000;stroke-width:1.5;"/><rect fill="none" height="743.2949" style="stroke:#000000;stroke-width:1.5;" width="1213.2397" x="10" y="215.8242"/><text fill="#000000" font-family="sans-serif" font-size="13" font-weight="bold" lengthAdjust="spacing" textLength="15.1709" x="25" y="230.8525">alt</text><text fill="#000000" font-family="sans-serif" font-size="11" font-weight="bold" lengthAdjust="spacing" textLength="96.5991" x="85.1709" y="229.6943">[Parameters Valid]</text><polygon fill="#181818" points="479.4907,254.4063,489.4907,258.4063,479.4907,262.4063,483.4907,258.4063" style="stroke:#181818;stroke-width:1.0;"/><line style="stroke:#181818;stroke-width:1.0;" x1="297.6782" x2="485.4907" y1="258.4063" y2="258.4063"/><text fill="#000000" font-family="sans-serif" font-size="13" lengthAdjust="spacing" textLength="59.2363" x="304.6782" y="253.1436">Delete(ID)</text><polygon fill="#181818" points="778.7041,285.6973,788.7041,289.6973,778.7041,293.6973,782.7041,289.6973" style="stroke:#181818;stroke-width:1.0;"/><line style="stroke:#181818;stroke-width:1.0;" x1="501.4907" x2="784.7041" y1="289.6973" y2="289.6973"/><text fill="#000000" font-family="sans-serif" font-size="13" lengthAdjust="spacing" textLength="270.2134" x="508.4907" y="284.4346">Find Object(ID) (for validation/existence check)</text><polygon fill="#181818" points="1100.8813,316.9883,1110.8813,320.9883,1100.8813,324.9883,1104.8813,320.9883" style="stroke:#181818;stroke-width:1.0;"/><line style="stroke:#181818;stroke-width:1.0;" x1="800.7041" x2="1106.8813" y1="320.9883" y2="320.9883"/><text fill="#000000" font-family="sans-serif" font-size="13" lengthAdjust="spacing" textLength="115.6035" x="807.7041" y="315.7256">Query Existing Data</text><polygon fill="#181818" points="811.7041,348.2793,801.7041,352.2793,811.7041,356.2793,807.7041,352.2793" style="stroke:#181818;stroke-width:1.0;"/><line style="stroke:#181818;stroke-width:1.0;stroke-dasharray:2.0,2.0;" x1="805.7041" x2="1116.8813" y1="352.2793" y2="352.2793"/><text fill="#000000" font-family="sans-serif" font-size="13" lengthAdjust="spacing" textLength="57.0781" x="817.7041" y="347.0166">Raw Data</text><polygon fill="#181818" points="967.3921,379.5703,977.3921,383.5703,967.3921,387.5703,971.3921,383.5703" style="stroke:#181818;stroke-width:1.0;"/><line style="stroke:#181818;stroke-width:1.0;" x1="800.7041" x2="973.3921" y1="383.5703" y2="383.5703"/><text fill="#000000" font-family="sans-serif" font-size="13" lengthAdjust="spacing" textLength="159.688" x="807.7041" y="378.3076">Reconstitute Domain Model</text><polygon fill="#181818" points="811.7041,410.8613,801.7041,414.8613,811.7041,418.8613,807.7041,414.8613" style="stroke:#181818;stroke-width:1.0;"/><line style="stroke:#181818;stroke-width:1.0;stroke-dasharray:2.0,2.0;" x1="805.7041" x2="983.3921" y1="414.8613" y2="414.8613"/><text fill="#000000" font-family="sans-serif" font-size="13" lengthAdjust="spacing" textLength="124.998" x="817.7041" y="409.5986">Domain Model Object</text><polygon fill="#181818" points="512.4907,442.1523,502.4907,446.1523,512.4907,450.1523,508.4907,446.1523" style="stroke:#181818;stroke-width:1.0;"/><line style="stroke:#181818;stroke-width:1.0;stroke-dasharray:2.0,2.0;" x1="506.4907" x2="794.7041" y1="446.1523" y2="446.1523"/><text fill="#000000" font-family="sans-serif" font-size="13" lengthAdjust="spacing" textLength="174.1289" x="518.4907" y="440.8896">Existing Domain Model Object</text><path d="M20,461.1523 L80.1709,461.1523 L80.1709,470.4434 L70.1709,480.4434 L20,480.4434 L20,461.1523 " fill="#EEEEEE" style="stroke:#000000;stroke-width:1.5;"/><rect fill="none" height="443.0449" style="stroke:#000000;stroke-width:1.5;" width="1193.2397" x="20" y="461.1523"/><text fill="#000000" font-family="sans-serif" font-size="13" font-weight="bold" lengthAdjust="spacing" textLength="15.1709" x="35" y="476.1807">alt</text><text fill="#000000" font-family="sans-serif" font-size="11" font-weight="bold" lengthAdjust="spacing" textLength="77.0215" x="95.1709" y="475.0225">[Object Exists]</text><line style="stroke:#181818;stroke-width:1.0;" x1="501.4907" x2="543.4907" y1="503.7344" y2="503.7344"/><line style="stroke:#181818;stroke-width:1.0;" x1="543.4907" x2="543.4907" y1="503.7344" y2="516.7344"/><line style="stroke:#181818;stroke-width:1.0;" x1="502.4907" x2="543.4907" y1="516.7344" y2="516.7344"/><polygon fill="#181818" points="512.4907,512.7344,502.4907,516.7344,512.4907,520.7344,508.4907,516.7344" style="stroke:#181818;stroke-width:1.0;"/><text fill="#000000" font-family="sans-serif" font-size="13" lengthAdjust="spacing" textLength="177.0361" x="508.4907" y="498.4717">Apply Deletion Business Rules</text><path d="M30,531.7344 L90.1709,531.7344 L90.1709,541.0254 L80.1709,551.0254 L30,551.0254 L30,531.7344 " fill="#EEEEEE" style="stroke:#000000;stroke-width:1.5;"/><rect fill="none" height="286.25" style="stroke:#000000;stroke-width:1.5;" width="1173.2397" x="30" y="531.7344"/><text fill="#000000" font-family="sans-serif" font-size="13" font-weight="bold" lengthAdjust="spacing" textLength="15.1709" x="45" y="546.7627">alt</text><text fill="#000000" font-family="sans-serif" font-size="11" font-weight="bold" lengthAdjust="spacing" textLength="112.4761" x="105.1709" y="545.6045">[Deletion Rules Pass]</text><polygon fill="#181818" points="778.7041,570.3164,788.7041,574.3164,778.7041,578.3164,782.7041,574.3164" style="stroke:#181818;stroke-width:1.0;"/><line style="stroke:#181818;stroke-width:1.0;" x1="501.4907" x2="784.7041" y1="574.3164" y2="574.3164"/><text fill="#000000" font-family="sans-serif" font-size="13" lengthAdjust="spacing" textLength="171.2344" x="508.4907" y="569.0537">Delete(Domain Model Object)</text><polygon fill="#181818" points="1100.8813,601.6074,1110.8813,605.6074,1100.8813,609.6074,1104.8813,605.6074" style="stroke:#181818;stroke-width:1.0;"/><line style="stroke:#181818;stroke-width:1.0;" x1="800.7041" x2="1106.8813" y1="605.6074" y2="605.6074"/><text fill="#000000" font-family="sans-serif" font-size="13" lengthAdjust="spacing" textLength="79.479" x="807.7041" y="600.3447">Remove Data</text><polygon fill="#181818" points="811.7041,632.8984,801.7041,636.8984,811.7041,640.8984,807.7041,636.8984" style="stroke:#181818;stroke-width:1.0;"/><line style="stroke:#181818;stroke-width:1.0;stroke-dasharray:2.0,2.0;" x1="805.7041" x2="1116.8813" y1="636.8984" y2="636.8984"/><text fill="#000000" font-family="sans-serif" font-size="13" lengthAdjust="spacing" textLength="86.709" x="817.7041" y="631.6357">Data Removed</text><polygon fill="#181818" points="512.4907,664.1895,502.4907,668.1895,512.4907,672.1895,508.4907,668.1895" style="stroke:#181818;stroke-width:1.0;"/><line style="stroke:#181818;stroke-width:1.0;stroke-dasharray:2.0,2.0;" x1="506.4907" x2="794.7041" y1="668.1895" y2="668.1895"/><text fill="#000000" font-family="sans-serif" font-size="13" lengthAdjust="spacing" textLength="114.1689" x="518.4907" y="662.9268">Deletion Successful</text><polygon fill="#181818" points="308.6782,695.4805,298.6782,699.4805,308.6782,703.4805,304.6782,699.4805" style="stroke:#181818;stroke-width:1.0;"/><line style="stroke:#181818;stroke-width:1.0;stroke-dasharray:2.0,2.0;" x1="302.6782" x2="490.4907" y1="699.4805" y2="699.4805"/><text fill="#000000" font-family="sans-serif" font-size="13" lengthAdjust="spacing" textLength="114.1689" x="314.6782" y="694.2178">Deletion Successful</text><polygon fill="#181818" points="68.7793,726.7715,58.7793,730.7715,68.7793,734.7715,64.7793,730.7715" style="stroke:#181818;stroke-width:1.0;"/><line style="stroke:#181818;stroke-width:1.0;stroke-dasharray:2.0,2.0;" x1="62.7793" x2="286.6782" y1="730.7715" y2="730.7715"/><text fill="#000000" font-family="sans-serif" font-size="13" lengthAdjust="spacing" textLength="105.4917" x="74.7793" y="725.5088">Success Message</text><line style="stroke:#000000;stroke-width:1.0;stroke-dasharray:2.0,2.0;" x1="30" x2="1203.2397" y1="739.7715" y2="739.7715"/><text fill="#000000" font-family="sans-serif" font-size="11" font-weight="bold" lengthAdjust="spacing" textLength="105.7354" x="35" y="751.6416">[Deletion Rules Fail]</text><polygon fill="#181818" points="308.6782,774.6934,298.6782,778.6934,308.6782,782.6934,304.6782,778.6934" style="stroke:#181818;stroke-width:1.0;"/><line style="stroke:#181818;stroke-width:1.0;stroke-dasharray:2.0,2.0;" x1="302.6782" x2="490.4907" y1="778.6934" y2="778.6934"/><text fill="#000000" font-family="sans-serif" font-size="13" lengthAdjust="spacing" textLength="131.5234" x="314.6782" y="773.4307">Deletion Rule Violation</text><polygon fill="#181818" points="68.7793,805.9844,58.7793,809.9844,68.7793,813.9844,64.7793,809.9844" style="stroke:#181818;stroke-width:1.0;"/><line style="stroke:#181818;stroke-width:1.0;stroke-dasharray:2.0,2.0;" x1="62.7793" x2="286.6782" y1="809.9844" y2="809.9844"/><text fill="#000000" font-family="sans-serif" font-size="13" lengthAdjust="spacing" textLength="180.6289" x="74.7793" y="804.7217">Error Message (Cannot Delete)</text><line style="stroke:#000000;stroke-width:1.0;stroke-dasharray:2.0,2.0;" x1="20" x2="1213.2397" y1="825.9844" y2="825.9844"/><text fill="#000000" font-family="sans-serif" font-size="11" font-weight="bold" lengthAdjust="spacing" textLength="122.2407" x="25" y="837.8545">[Object Does Not Exist]</text><polygon fill="#181818" points="308.6782,860.9063,298.6782,864.9063,308.6782,868.9063,304.6782,864.9063" style="stroke:#181818;stroke-width:1.0;"/><line style="stroke:#181818;stroke-width:1.0;stroke-dasharray:2.0,2.0;" x1="302.6782" x2="495.4907" y1="864.9063" y2="864.9063"/><text fill="#000000" font-family="sans-serif" font-size="13" lengthAdjust="spacing" textLength="101.8862" x="314.6782" y="859.6436">Object Not Found</text><polygon fill="#181818" points="68.7793,892.1973,58.7793,896.1973,68.7793,900.1973,64.7793,896.1973" style="stroke:#181818;stroke-width:1.0;"/><line style="stroke:#181818;stroke-width:1.0;stroke-dasharray:2.0,2.0;" x1="62.7793" x2="286.6782" y1="896.1973" y2="896.1973"/><text fill="#000000" font-family="sans-serif" font-size="13" lengthAdjust="spacing" textLength="199.4053" x="74.7793" y="890.9346">Error Message (Object Not Found)</text><line style="stroke:#000000;stroke-width:1.0;stroke-dasharray:2.0,2.0;" x1="10" x2="1223.2397" y1="912.1973" y2="912.1973"/><text fill="#000000" font-family="sans-serif" font-size="11" font-weight="bold" lengthAdjust="spacing" textLength="105.1553" x="15" y="924.0674">[Parameters Invalid]</text><polygon fill="#181818" points="68.7793,947.1191,58.7793,951.1191,68.7793,955.1191,64.7793,951.1191" style="stroke:#181818;stroke-width:1.0;"/><line style="stroke:#181818;stroke-width:1.0;stroke-dasharray:2.0,2.0;" x1="62.7793" x2="286.6782" y1="951.1191" y2="951.1191"/><text fill="#000000" font-family="sans-serif" font-size="13" lengthAdjust="spacing" textLength="205.8989" x="74.7793" y="945.8564">Error Message (Invalid Parameters)</text><!--SRC=[bLLDSziW4BtpAtRKYtN8zD2R3fsfehYJ6QTrdMdkMDeuj1XSG6hyxmi82IpPSQg3pSVku_7sQMMOuGWLSZG8QoLhr1eMA-oGmwUS45eRgI3xgL5bG3Mu0I5R-GhPbyE1iveQ9aK67rPizs9AtY81-noeCgnc1oeCPBTI62KvHrNKuz2ZnPrvrYEgZjLOwFxVnuUrUV063r8pI_LOg77eK-8EGT60PHxeLt9FsSZygq8K7XU5OUOuxCE3R91xf7x1poDKGmtTKesGhL5ffWsA6c55ZwXWKPLvdraIueI3cy_9bGlBxK-BslJoMnbXSL_bJdBMKLkEH9qud68yKSuQ5ps0hQcYUrjDfGdbwRGFzNSyXHkK3ZRm95pKI2ILFOnTNY8wB9bLvFls5zR6vSFYsTgcwxdPctt4rq6R-WNhtvC3aYAvzJXrnrHb0JzQj9Cx1yB43Ygh-Yc2bTZDgn9k9imsz6-CRt2QCJahrjYLnzhL7cXQ5vxOON9quWlF8SvdP5AK8DUCrmGk9PWMAufn7NEYh_D57zYZQBywgUvua7lFZz6ZPQkPS5rYqtACcGvpZF5Rrdewxh_XdM2xC_V8Jz8lNMTuvhRPu5vs6Ci_Gmec69upzd6v0QSvYPrRwHoFsUlbv7biQzTddrj-2V723KS19qtW6lB997tvBOvhJCMG20_sX-vmJ42kSLhN9MNy_sYvF7XYaljcGDv7wKufsqC28LZSKY5ay1X6OzXEJ4QYmTILj2o_oU1kSerco789IzcAMEQa86aBV2_ZAMvE1iAURDAPxqLtjZTVGWxn2KJkFaaa8HnX_W40]--></g></svg>