<svg xmlns="http://www.w3.org/2000/svg" xmlns:xlink="http://www.w3.org/1999/xlink" contentStyleType="text/css" height="870px" preserveAspectRatio="none" style="width:1147px;height:870px;background:#FFFFFF;" version="1.1" viewBox="0 0 1147 870" width="1147px" zoomAndPan="magnify"><title>Create Process (Level 3)</title><defs/><g><text fill="#000000" font-family="sans-serif" font-size="14" font-weight="bold" lengthAdjust="spacing" textLength="162.6406" x="493.1921" y="30.1074">Create Process (Level 3)</text><rect fill="#ADD8E6" height="818.7422" style="stroke:#181818;stroke-width:0.5;" width="628.3818" x="228.6646" y="45.6211"/><text fill="#000000" font-family="sans-serif" font-size="13" font-weight="bold" lengthAdjust="spacing" textLength="70.7764" x="507.4673" y="59.6494">Application</text><rect fill="#90EE90" height="818.7422" style="stroke:#181818;stroke-width:0.5;" width="104.2617" x="859.0464" y="45.6211"/><text fill="#000000" font-family="sans-serif" font-size="13" font-weight="bold" lengthAdjust="spacing" textLength="47.6709" x="887.3418" y="59.6494">Domain</text><rect fill="#FFFFFF" height="616.209" style="stroke:#181818;stroke-width:1.0;" width="10" x="295.7437" y="156.5332"/><rect fill="#FFFFFF" height="413.123" style="stroke:#181818;stroke-width:1.0;" width="10" x="582.6216" y="258.4063"/><rect fill="#FFFFFF" height="93.873" style="stroke:#181818;stroke-width:1.0;" width="10" x="774.9087" y="422.8613"/><rect fill="#FFFFFF" height="31.291" style="stroke:#181818;stroke-width:1.0;" width="10" x="906.1772" y="289.6973"/><rect fill="#FFFFFF" height="31.291" style="stroke:#181818;stroke-width:1.0;" width="10" x="1039.6665" y="454.1523"/><rect fill="none" height="549.918" style="stroke:#000000;stroke-width:1.5;" width="1130.0249" x="10" y="215.8242"/><rect fill="none" height="330.541" style="stroke:#000000;stroke-width:1.5;" width="1110.0249" x="20" y="380.2793"/><line style="stroke:#181818;stroke-width:0.5;stroke-dasharray:5.0,5.0;" x1="47" x2="47" y1="123.2422" y2="782.7422"/><line style="stroke:#181818;stroke-width:0.5;stroke-dasharray:5.0,5.0;" x1="300.6646" x2="300.6646" y1="123.2422" y2="782.7422"/><line style="stroke:#181818;stroke-width:0.5;stroke-dasharray:5.0,5.0;" x1="587.1631" x2="587.1631" y1="123.2422" y2="782.7422"/><line style="stroke:#181818;stroke-width:0.5;stroke-dasharray:5.0,5.0;" x1="779.771" x2="779.771" y1="123.2422" y2="782.7422"/><line style="stroke:#181818;stroke-width:0.5;stroke-dasharray:5.0,5.0;" x1="911.0464" x2="911.0464" y1="123.2422" y2="782.7422"/><line style="stroke:#181818;stroke-width:0.5;stroke-dasharray:5.0,5.0;" x1="1044.3081" x2="1044.3081" y1="123.2422" y2="782.7422"/><text fill="#000000" font-family="sans-serif" font-size="14" lengthAdjust="spacing" textLength="29.5586" x="30" y="119.7285">User</text><ellipse cx="47.7793" cy="53.1211" fill="#E2E2F0" rx="8" ry="8" style="stroke:#181818;stroke-width:0.5;"/><path d="M47.7793,61.1211 L47.7793,88.1211 M34.7793,69.1211 L60.7793,69.1211 M47.7793,88.1211 L34.7793,103.1211 M47.7793,88.1211 L60.7793,103.1211 " fill="none" style="stroke:#181818;stroke-width:0.5;"/><text fill="#000000" font-family="sans-serif" font-size="14" lengthAdjust="spacing" textLength="29.5586" x="30" y="796.8496">User</text><ellipse cx="47.7793" cy="808.8633" fill="#E2E2F0" rx="8" ry="8" style="stroke:#181818;stroke-width:0.5;"/><path d="M47.7793,816.8633 L47.7793,843.8633 M34.7793,824.8633 L60.7793,824.8633 M47.7793,843.8633 L34.7793,858.8633 M47.7793,843.8633 L60.7793,858.8633 " fill="none" style="stroke:#181818;stroke-width:0.5;"/><rect fill="#E2E2F0" height="32.6211" rx="2.5" ry="2.5" style="stroke:#181818;stroke-width:0.5;" width="136.1582" x="232.6646" y="89.6211"/><text fill="#000000" font-family="sans-serif" font-size="14" lengthAdjust="spacing" textLength="122.1582" x="239.6646" y="111.7285">Controller:controller</text><rect fill="#E2E2F0" height="32.6211" rx="2.5" ry="2.5" style="stroke:#181818;stroke-width:0.5;" width="136.1582" x="232.6646" y="781.7422"/><text fill="#000000" font-family="sans-serif" font-size="14" lengthAdjust="spacing" textLength="122.1582" x="239.6646" y="803.8496">Controller:controller</text><rect fill="#E2E2F0" height="32.6211" rx="2.5" ry="2.5" style="stroke:#181818;stroke-width:0.5;" width="108.917" x="533.1631" y="89.6211"/><text fill="#000000" font-family="sans-serif" font-size="14" lengthAdjust="spacing" textLength="94.917" x="540.1631" y="111.7285">Service:service</text><rect fill="#E2E2F0" height="32.6211" rx="2.5" ry="2.5" style="stroke:#181818;stroke-width:0.5;" width="108.917" x="533.1631" y="781.7422"/><text fill="#000000" font-family="sans-serif" font-size="14" lengthAdjust="spacing" textLength="94.917" x="540.1631" y="803.8496">Service:service</text><rect fill="#E2E2F0" height="32.6211" rx="2.5" ry="2.5" style="stroke:#181818;stroke-width:0.5;" width="146.2754" x="706.771" y="89.6211"/><text fill="#000000" font-family="sans-serif" font-size="14" lengthAdjust="spacing" textLength="132.2754" x="713.771" y="111.7285">Repository:repository</text><rect fill="#E2E2F0" height="32.6211" rx="2.5" ry="2.5" style="stroke:#181818;stroke-width:0.5;" width="146.2754" x="706.771" y="781.7422"/><text fill="#000000" font-family="sans-serif" font-size="14" lengthAdjust="spacing" textLength="132.2754" x="713.771" y="803.8496">Repository:repository</text><text fill="#000000" font-family="sans-serif" font-size="14" lengthAdjust="spacing" textLength="90.2617" x="863.0464" y="119.7285">Domain Model</text><ellipse cx="911.1772" cy="88.6211" fill="#E2E2F0" rx="12" ry="12" style="stroke:#181818;stroke-width:0.5;"/><line style="stroke:#181818;stroke-width:0.5;" x1="899.1772" x2="923.1772" y1="102.6211" y2="102.6211"/><text fill="#000000" font-family="sans-serif" font-size="14" lengthAdjust="spacing" textLength="90.2617" x="863.0464" y="796.8496">Domain Model</text><ellipse cx="911.1772" cy="816.3633" fill="#E2E2F0" rx="12" ry="12" style="stroke:#181818;stroke-width:0.5;"/><line style="stroke:#181818;stroke-width:0.5;" x1="899.1772" x2="923.1772" y1="830.3633" y2="830.3633"/><text fill="#000000" font-family="sans-serif" font-size="14" lengthAdjust="spacing" textLength="144.7168" x="969.3081" y="119.7285">Persistence Layer (DB)</text><path d="M1026.6665,68.6211 C1026.6665,58.6211 1044.6665,58.6211 1044.6665,58.6211 C1044.6665,58.6211 1062.6665,58.6211 1062.6665,68.6211 L1062.6665,94.6211 C1062.6665,104.6211 1044.6665,104.6211 1044.6665,104.6211 C1044.6665,104.6211 1026.6665,104.6211 1026.6665,94.6211 L1026.6665,68.6211 " fill="#E2E2F0" style="stroke:#181818;stroke-width:1.5;"/><path d="M1026.6665,68.6211 C1026.6665,78.6211 1044.6665,78.6211 1044.6665,78.6211 C1044.6665,78.6211 1062.6665,78.6211 1062.6665,68.6211 " fill="none" style="stroke:#181818;stroke-width:1.5;"/><text fill="#000000" font-family="sans-serif" font-size="14" lengthAdjust="spacing" textLength="144.7168" x="969.3081" y="796.8496">Persistence Layer (DB)</text><path d="M1026.6665,810.3633 C1026.6665,800.3633 1044.6665,800.3633 1044.6665,800.3633 C1044.6665,800.3633 1062.6665,800.3633 1062.6665,810.3633 L1062.6665,836.3633 C1062.6665,846.3633 1044.6665,846.3633 1044.6665,846.3633 C1044.6665,846.3633 1026.6665,846.3633 1026.6665,836.3633 L1026.6665,810.3633 " fill="#E2E2F0" style="stroke:#181818;stroke-width:1.5;"/><path d="M1026.6665,810.3633 C1026.6665,820.3633 1044.6665,820.3633 1044.6665,820.3633 C1044.6665,820.3633 1062.6665,820.3633 1062.6665,810.3633 " fill="none" style="stroke:#181818;stroke-width:1.5;"/><rect fill="#FFFFFF" height="616.209" style="stroke:#181818;stroke-width:1.0;" width="10" x="295.7437" y="156.5332"/><rect fill="#FFFFFF" height="413.123" style="stroke:#181818;stroke-width:1.0;" width="10" x="582.6216" y="258.4063"/><rect fill="#FFFFFF" height="93.873" style="stroke:#181818;stroke-width:1.0;" width="10" x="774.9087" y="422.8613"/><rect fill="#FFFFFF" height="31.291" style="stroke:#181818;stroke-width:1.0;" width="10" x="906.1772" y="289.6973"/><rect fill="#FFFFFF" height="31.291" style="stroke:#181818;stroke-width:1.0;" width="10" x="1039.6665" y="454.1523"/><polygon fill="#181818" points="283.7437,152.5332,293.7437,156.5332,283.7437,160.5332,287.7437,156.5332" style="stroke:#181818;stroke-width:1.0;"/><line style="stroke:#181818;stroke-width:1.0;" x1="47.7793" x2="289.7437" y1="156.5332" y2="156.5332"/><text fill="#000000" font-family="sans-serif" font-size="13" lengthAdjust="spacing" textLength="198.6816" x="54.7793" y="151.2705">Request Creation with Data (DTO)</text><line style="stroke:#181818;stroke-width:1.0;" x1="305.7437" x2="347.7437" y1="187.8242" y2="187.8242"/><line style="stroke:#181818;stroke-width:1.0;" x1="347.7437" x2="347.7437" y1="187.8242" y2="200.8242"/><line style="stroke:#181818;stroke-width:1.0;" x1="306.7437" x2="347.7437" y1="200.8242" y2="200.8242"/><polygon fill="#181818" points="316.7437,196.8242,306.7437,200.8242,316.7437,204.8242,312.7437,200.8242" style="stroke:#181818;stroke-width:1.0;"/><text fill="#000000" font-family="sans-serif" font-size="13" lengthAdjust="spacing" textLength="150.2871" x="312.7437" y="182.5615">Validate Input Data (DTO)</text><path d="M10,215.8242 L70.1709,215.8242 L70.1709,225.1152 L60.1709,235.1152 L10,235.1152 L10,215.8242 " fill="#EEEEEE" style="stroke:#000000;stroke-width:1.5;"/><rect fill="none" height="549.918" style="stroke:#000000;stroke-width:1.5;" width="1130.0249" x="10" y="215.8242"/><text fill="#000000" font-family="sans-serif" font-size="13" font-weight="bold" lengthAdjust="spacing" textLength="15.1709" x="25" y="230.8525">alt</text><text fill="#000000" font-family="sans-serif" font-size="11" font-weight="bold" lengthAdjust="spacing" textLength="63.5454" x="85.1709" y="229.6943">[Input Valid]</text><polygon fill="#181818" points="570.6216,254.4063,580.6216,258.4063,570.6216,262.4063,574.6216,258.4063" style="stroke:#181818;stroke-width:1.0;"/><line style="stroke:#181818;stroke-width:1.0;" x1="305.7437" x2="576.6216" y1="258.4063" y2="258.4063"/><text fill="#000000" font-family="sans-serif" font-size="13" lengthAdjust="spacing" textLength="72.979" x="312.7437" y="253.1436">Create(data)</text><polygon fill="#181818" points="894.1772,285.6973,904.1772,289.6973,894.1772,293.6973,898.1772,289.6973" style="stroke:#181818;stroke-width:1.0;"/><line style="stroke:#181818;stroke-width:1.0;" x1="592.6216" x2="900.1772" y1="289.6973" y2="289.6973"/><text fill="#000000" font-family="sans-serif" font-size="13" lengthAdjust="spacing" textLength="197.2471" x="599.6216" y="284.4346">Create New Domain Model Object</text><polygon fill="#181818" points="603.6216,316.9883,593.6216,320.9883,603.6216,324.9883,599.6216,320.9883" style="stroke:#181818;stroke-width:1.0;"/><line style="stroke:#181818;stroke-width:1.0;stroke-dasharray:2.0,2.0;" x1="597.6216" x2="910.1772" y1="320.9883" y2="320.9883"/><text fill="#000000" font-family="sans-serif" font-size="13" lengthAdjust="spacing" textLength="67.1899" x="609.6216" y="315.7256">New Object</text><line style="stroke:#181818;stroke-width:1.0;" x1="592.6216" x2="634.6216" y1="352.2793" y2="352.2793"/><line style="stroke:#181818;stroke-width:1.0;" x1="634.6216" x2="634.6216" y1="352.2793" y2="365.2793"/><line style="stroke:#181818;stroke-width:1.0;" x1="593.6216" x2="634.6216" y1="365.2793" y2="365.2793"/><polygon fill="#181818" points="603.6216,361.2793,593.6216,365.2793,603.6216,369.2793,599.6216,365.2793" style="stroke:#181818;stroke-width:1.0;"/><text fill="#000000" font-family="sans-serif" font-size="13" lengthAdjust="spacing" textLength="125.728" x="599.6216" y="347.0166">Apply Business Rules</text><path d="M20,380.2793 L80.1709,380.2793 L80.1709,389.5703 L70.1709,399.5703 L20,399.5703 L20,380.2793 " fill="#EEEEEE" style="stroke:#000000;stroke-width:1.5;"/><rect fill="none" height="330.541" style="stroke:#000000;stroke-width:1.5;" width="1110.0249" x="20" y="380.2793"/><text fill="#000000" font-family="sans-serif" font-size="13" font-weight="bold" lengthAdjust="spacing" textLength="15.1709" x="35" y="395.3076">alt</text><text fill="#000000" font-family="sans-serif" font-size="11" font-weight="bold" lengthAdjust="spacing" textLength="117.9922" x="95.1709" y="394.1494">[Business Rules Pass]</text><polygon fill="#181818" points="762.9087,418.8613,772.9087,422.8613,762.9087,426.8613,766.9087,422.8613" style="stroke:#181818;stroke-width:1.0;"/><line style="stroke:#181818;stroke-width:1.0;" x1="592.6216" x2="768.9087" y1="422.8613" y2="422.8613"/><text fill="#000000" font-family="sans-serif" font-size="13" lengthAdjust="spacing" textLength="163.2871" x="599.6216" y="417.5986">Save(Domain Model Object)</text><polygon fill="#181818" points="1027.6665,450.1523,1037.6665,454.1523,1027.6665,458.1523,1031.6665,454.1523" style="stroke:#181818;stroke-width:1.0;"/><line style="stroke:#181818;stroke-width:1.0;" x1="784.9087" x2="1033.6665" y1="454.1523" y2="454.1523"/><text fill="#000000" font-family="sans-serif" font-size="13" lengthAdjust="spacing" textLength="70.8018" x="791.9087" y="448.8896">Persist Data</text><polygon fill="#181818" points="795.9087,481.4434,785.9087,485.4434,795.9087,489.4434,791.9087,485.4434" style="stroke:#181818;stroke-width:1.0;"/><line style="stroke:#181818;stroke-width:1.0;stroke-dasharray:2.0,2.0;" x1="789.9087" x2="1043.6665" y1="485.4434" y2="485.4434"/><text fill="#000000" font-family="sans-serif" font-size="13" lengthAdjust="spacing" textLength="69.3735" x="801.9087" y="480.1807">Data Stored</text><polygon fill="#181818" points="603.6216,512.7344,593.6216,516.7344,603.6216,520.7344,599.6216,516.7344" style="stroke:#181818;stroke-width:1.0;"/><line style="stroke:#181818;stroke-width:1.0;stroke-dasharray:2.0,2.0;" x1="597.6216" x2="778.9087" y1="516.7344" y2="516.7344"/><text fill="#000000" font-family="sans-serif" font-size="13" lengthAdjust="spacing" textLength="78.0444" x="609.6216" y="511.4717">Saved Object</text><polygon fill="#181818" points="316.7437,544.0254,306.7437,548.0254,316.7437,552.0254,312.7437,548.0254" style="stroke:#181818;stroke-width:1.0;"/><line style="stroke:#181818;stroke-width:1.0;stroke-dasharray:2.0,2.0;" x1="310.7437" x2="581.6216" y1="548.0254" y2="548.0254"/><text fill="#000000" font-family="sans-serif" font-size="13" lengthAdjust="spacing" textLength="252.8779" x="322.7437" y="542.7627">Creation Successful (Domain Model Object)</text><line style="stroke:#181818;stroke-width:1.0;" x1="305.7437" x2="347.7437" y1="579.3164" y2="579.3164"/><line style="stroke:#181818;stroke-width:1.0;" x1="347.7437" x2="347.7437" y1="579.3164" y2="592.3164"/><line style="stroke:#181818;stroke-width:1.0;" x1="306.7437" x2="347.7437" y1="592.3164" y2="592.3164"/><polygon fill="#181818" points="316.7437,588.3164,306.7437,592.3164,316.7437,596.3164,312.7437,592.3164" style="stroke:#181818;stroke-width:1.0;"/><text fill="#000000" font-family="sans-serif" font-size="13" lengthAdjust="spacing" textLength="158.2217" x="312.7437" y="574.0537">Map Domain Model to DTO</text><polygon fill="#181818" points="58.7793,619.6074,48.7793,623.6074,58.7793,627.6074,54.7793,623.6074" style="stroke:#181818;stroke-width:1.0;"/><line style="stroke:#181818;stroke-width:1.0;stroke-dasharray:2.0,2.0;" x1="52.7793" x2="294.7437" y1="623.6074" y2="623.6074"/><text fill="#000000" font-family="sans-serif" font-size="13" lengthAdjust="spacing" textLength="195.0635" x="64.7793" y="618.3447">Success Message (Created DTO)</text><line style="stroke:#000000;stroke-width:1.0;stroke-dasharray:2.0,2.0;" x1="20" x2="1130.0249" y1="632.6074" y2="632.6074"/><text fill="#000000" font-family="sans-serif" font-size="11" font-weight="bold" lengthAdjust="spacing" textLength="111.2515" x="25" y="644.4775">[Business Rules Fail]</text><polygon fill="#181818" points="316.7437,667.5293,306.7437,671.5293,316.7437,675.5293,312.7437,671.5293" style="stroke:#181818;stroke-width:1.0;"/><line style="stroke:#181818;stroke-width:1.0;stroke-dasharray:2.0,2.0;" x1="310.7437" x2="586.6216" y1="671.5293" y2="671.5293"/><text fill="#000000" font-family="sans-serif" font-size="13" lengthAdjust="spacing" textLength="136.5762" x="322.7437" y="666.2666">Business Rule Violation</text><polygon fill="#181818" points="58.7793,698.8203,48.7793,702.8203,58.7793,706.8203,54.7793,702.8203" style="stroke:#181818;stroke-width:1.0;"/><line style="stroke:#181818;stroke-width:1.0;stroke-dasharray:2.0,2.0;" x1="52.7793" x2="294.7437" y1="702.8203" y2="702.8203"/><text fill="#000000" font-family="sans-serif" font-size="13" lengthAdjust="spacing" textLength="223.9644" x="64.7793" y="697.5576">Error Message (Business Rule Failure)</text><line style="stroke:#000000;stroke-width:1.0;stroke-dasharray:2.0,2.0;" x1="10" x2="1140.0249" y1="718.8203" y2="718.8203"/><text fill="#000000" font-family="sans-serif" font-size="11" font-weight="bold" lengthAdjust="spacing" textLength="72.1016" x="15" y="730.6904">[Input Invalid]</text><polygon fill="#181818" points="58.7793,753.7422,48.7793,757.7422,58.7793,761.7422,54.7793,757.7422" style="stroke:#181818;stroke-width:1.0;"/><line style="stroke:#181818;stroke-width:1.0;stroke-dasharray:2.0,2.0;" x1="52.7793" x2="294.7437" y1="757.7422" y2="757.7422"/><text fill="#000000" font-family="sans-serif" font-size="13" lengthAdjust="spacing" textLength="167.6226" x="64.7793" y="752.4795">Error Message (Invalid Input)</text><!--SRC=[XLJ1Sfim4BthAtRe1GuvzSQXCoLkEvcn6q_SvYx3Db57bQYqaFhlAmaG0kFM1xn8ku-tJsz5WYJ2lK5E24UZQxGMyZtsAE5zmHYlIHl8lbiq6N0BFc3ihFz0zh5jfQWv2QqoUBSNBwzKoGuPk5_B3ObQj5mHPFTQaT5IeYdh60QqUUUwweIc5pMMTlWF-UFQTV8JjjeAH_LIcXY6adc7eMh0CH_fx_GlBYBpBmPH1LnK9EWoxSD1DoW3qh0GtcUeXXC_SukG7T5OOGbLZR3d5pIGxwfYgAmOyyB1tOUavT9n-zsXfK5-9oEy2Ng5dODqjTyU2w- -wFt994BDuHhkcKlH-Em7rNQqm94qBeQSqESIPr9xj4Bk-of2NkIGYZ_6lZAHPQg6h_W6gNxmUFw9DItnKZtzHl8EToabZvO0D7WJ8g4LgxrDBr1rLYZlxQTEeXs8E56Mot3aTjXRWINsWXFlCTzeheY5aLxYlMblNWhQLIMClWd7TGtXh3EjxQeWIyeb7F79nTZ4j5IUQlExgJg-coPLTmMnqKBKPMM_wE9JL_jhv4SduTz2tRRoWRTB0v46v-JDIbVgXwkSlWi7z-0l2FdWnWR238JPbcvILsV-cGlvtzuMDV0ij0ojRYcMZibDgf-CSTTg9Bg4zumwWoDbrR10UvZV1zLlJl0jv35_g2xylSKIhZF2Nm00]--></g></svg>