<?plantuml 1.2026.2?><svg xmlns="http://www.w3.org/2000/svg" xmlns:xlink="http://www.w3.org/1999/xlink" contentStyleType="text/css" data-diagram-type="SEQUENCE" height="1447px" preserveAspectRatio="none" style="width:858px;height:1447px;background:#FFFFFF;" version="1.1" viewBox="0 0 858 1447" width="858px" zoomAndPan="magnify"><title>Machine Restock (Level 2) &#8212; VendNet</title><defs/><g><text fill="#000000" font-family="sans-serif" font-size="14" font-weight="bold" lengthAdjust="spacing" textLength="271.4209" x="294.2922" y="28.5352">Machine Restock (Level 2) &#8212; VendNet</text><rect fill="#ADD8E6" height="1397.6582" style="stroke:#181818;stroke-width:0.5;" width="303.8237" x="252.3262" y="43.4883"/><text fill="#000000" font-family="sans-serif" font-size="13" font-weight="bold" lengthAdjust="spacing" textLength="82.8687" x="362.8037" y="56.0566">VendNet API</text><g><title>Controller</title><rect fill="#FFFFFF" height="1155.4395" style="stroke:#181818;stroke-width:1;" width="10" x="292.4067" y="196.2188"/></g><g><title>Slot Service</title><rect fill="#FFFFFF" height="784.8027" style="stroke:#181818;stroke-width:1;" width="10" x="501.5576" y="404.7031"/></g><g><title>MySQL Database</title><rect fill="#FFFFFF" height="44.6211" style="stroke:#181818;stroke-width:1;" width="10" x="736.8311" y="449.3242"/></g><g><title>MySQL Database</title><rect fill="#FFFFFF" height="68.9316" style="stroke:#181818;stroke-width:1;" width="10" x="736.8311" y="675.4297"/></g><rect fill="none" height="1075.8184" style="stroke:#000000;stroke-width:1.5;" width="841.0054" x="10" y="268.8398"/><rect fill="none" height="927.3105" style="stroke:#000000;stroke-width:1.5;" width="821.0054" x="20" y="350.7715"/><rect fill="none" height="717.8711" style="stroke:#000000;stroke-width:1.5;" width="801.0054" x="30" y="508.9453"/><rect fill="none" height="540.0527" style="stroke:#000000;stroke-width:1.5;" width="781.0054" x="40" y="606.1875"/><rect fill="none" height="359.9238" style="stroke:#000000;stroke-width:1.5;" width="761.0054" x="50" y="690.4297"/><g class="participant-lifeline" data-entity-uid="part1" data-qualified-name="Operator" id="part1-lifeline"><g><title>Operator</title><rect fill="#000000" fill-opacity="0.00000" height="1242.6816" width="8" x="89.2559" y="118.9766"/><line style="stroke:#181818;stroke-width:0.5;stroke-dasharray:5,5;" x1="93" x2="93" y1="118.9766" y2="1361.6582"/></g></g><g class="participant-lifeline" data-entity-uid="part2" data-qualified-name="Controller" id="part2-lifeline"><g><title>Controller</title><rect fill="#000000" fill-opacity="0.00000" height="1242.6816" width="8" x="293.4067" y="118.9766"/><line style="stroke:#181818;stroke-width:0.5;stroke-dasharray:5,5;" x1="297.3262" x2="297.3262" y1="118.9766" y2="1361.6582"/></g></g><g class="participant-lifeline" data-entity-uid="part3" data-qualified-name="SlotService" id="part3-lifeline"><g><title>Slot Service</title><rect fill="#000000" fill-opacity="0.00000" height="1242.6816" width="8" x="502.5576" y="118.9766"/><line style="stroke:#181818;stroke-width:0.5;stroke-dasharray:5,5;" x1="505.9653" x2="505.9653" y1="118.9766" y2="1361.6582"/></g></g><g class="participant-lifeline" data-entity-uid="part4" data-qualified-name="DB" id="part4-lifeline"><g><title>MySQL Database</title><rect fill="#000000" fill-opacity="0.00000" height="1242.6816" width="8" x="737.8311" y="118.9766"/><line style="stroke:#181818;stroke-width:0.5;stroke-dasharray:5,5;" x1="741.6567" x2="741.6567" y1="118.9766" y2="1361.6582"/></g></g><g class="participant participant-head" data-entity-uid="part1" data-qualified-name="Operator" id="part1-head"><text fill="#000000" font-family="sans-serif" font-size="14" lengthAdjust="spacing" textLength="60.5117" x="60" y="116.0234">Operator</text><ellipse cx="93.2559" cy="50.9883" fill="#E2E2F0" rx="8" ry="8" style="stroke:#181818;stroke-width:0.5;"/><path d="M93.2559,58.9883 L93.2559,85.9883 M80.2559,66.9883 L106.2559,66.9883 M93.2559,85.9883 L80.2559,100.9883 M93.2559,85.9883 L106.2559,100.9883" fill="none" style="stroke:#181818;stroke-width:0.5;"/></g><g class="participant participant-tail" data-entity-uid="part1" data-qualified-name="Operator" id="part1-tail"><text fill="#000000" font-family="sans-serif" font-size="14" lengthAdjust="spacing" textLength="60.5117" x="60" y="1374.1934">Operator</text><ellipse cx="93.2559" cy="1385.6465" fill="#E2E2F0" rx="8" ry="8" style="stroke:#181818;stroke-width:0.5;"/><path d="M93.2559,1393.6465 L93.2559,1420.6465 M80.2559,1401.6465 L106.2559,1401.6465 M93.2559,1420.6465 L80.2559,1435.6465 M93.2559,1420.6465 L106.2559,1435.6465" fill="none" style="stroke:#181818;stroke-width:0.5;"/></g><g class="participant participant-head" data-entity-uid="part2" data-qualified-name="Controller" id="part2-head"><rect fill="#E2E2F0" height="30.4883" rx="2.5" ry="2.5" style="stroke:#181818;stroke-width:0.5;" width="82.1611" x="256.3262" y="87.4883"/><text fill="#000000" font-family="sans-serif" font-size="14" lengthAdjust="spacing" textLength="68.1611" x="263.3262" y="108.0234">Controller</text></g><g class="participant participant-tail" data-entity-uid="part2" data-qualified-name="Controller" id="part2-tail"><rect fill="#E2E2F0" height="30.4883" rx="2.5" ry="2.5" style="stroke:#181818;stroke-width:0.5;" width="82.1611" x="256.3262" y="1360.6582"/><text fill="#000000" font-family="sans-serif" font-size="14" lengthAdjust="spacing" textLength="68.1611" x="263.3262" y="1381.1934">Controller</text></g><g class="participant participant-head" data-entity-uid="part3" data-qualified-name="SlotService" id="part3-head"><rect fill="#E2E2F0" height="30.4883" rx="2.5" ry="2.5" style="stroke:#181818;stroke-width:0.5;" width="91.1846" x="460.9653" y="87.4883"/><text fill="#000000" font-family="sans-serif" font-size="14" lengthAdjust="spacing" textLength="77.1846" x="467.9653" y="108.0234">Slot Service</text></g><g class="participant participant-tail" data-entity-uid="part3" data-qualified-name="SlotService" id="part3-tail"><rect fill="#E2E2F0" height="30.4883" rx="2.5" ry="2.5" style="stroke:#181818;stroke-width:0.5;" width="91.1846" x="460.9653" y="1360.6582"/><text fill="#000000" font-family="sans-serif" font-size="14" lengthAdjust="spacing" textLength="77.1846" x="467.9653" y="1381.1934">Slot Service</text></g><g class="participant participant-head" data-entity-uid="part4" data-qualified-name="DB" id="part4-head"><text fill="#000000" font-family="sans-serif" font-size="14" lengthAdjust="spacing" textLength="112.3486" x="682.6567" y="116.0234">MySQL Database</text><path d="M723.8311,66.4883 C723.8311,56.4883 741.8311,56.4883 741.8311,56.4883 C741.8311,56.4883 759.8311,56.4883 759.8311,66.4883 L759.8311,92.4883 C759.8311,102.4883 741.8311,102.4883 741.8311,102.4883 C741.8311,102.4883 723.8311,102.4883 723.8311,92.4883 L723.8311,66.4883" fill="#E2E2F0" style="stroke:#181818;stroke-width:0.5;"/><path d="M723.8311,66.4883 C723.8311,76.4883 741.8311,76.4883 741.8311,76.4883 C741.8311,76.4883 759.8311,76.4883 759.8311,66.4883" fill="none" style="stroke:#181818;stroke-width:0.5;"/></g><g class="participant participant-tail" data-entity-uid="part4" data-qualified-name="DB" id="part4-tail"><text fill="#000000" font-family="sans-serif" font-size="14" lengthAdjust="spacing" textLength="112.3486" x="682.6567" y="1374.1934">MySQL Database</text><path d="M723.8311,1387.1465 C723.8311,1377.1465 741.8311,1377.1465 741.8311,1377.1465 C741.8311,1377.1465 759.8311,1377.1465 759.8311,1387.1465 L759.8311,1413.1465 C759.8311,1423.1465 741.8311,1423.1465 741.8311,1423.1465 C741.8311,1423.1465 723.8311,1423.1465 723.8311,1413.1465 L723.8311,1387.1465" fill="#E2E2F0" style="stroke:#181818;stroke-width:0.5;"/><path d="M723.8311,1387.1465 C723.8311,1397.1465 741.8311,1397.1465 741.8311,1397.1465 C741.8311,1397.1465 759.8311,1397.1465 759.8311,1387.1465" fill="none" style="stroke:#181818;stroke-width:0.5;"/></g><g><title>Controller</title><rect fill="#FFFFFF" height="1155.4395" style="stroke:#181818;stroke-width:1;" width="10" x="292.4067" y="196.2188"/></g><g><title>Slot Service</title><rect fill="#FFFFFF" height="784.8027" style="stroke:#181818;stroke-width:1;" width="10" x="501.5576" y="404.7031"/></g><g><title>MySQL Database</title><rect fill="#FFFFFF" height="44.6211" style="stroke:#181818;stroke-width:1;" width="10" x="736.8311" y="449.3242"/></g><g><title>MySQL Database</title><rect fill="#FFFFFF" height="68.9316" style="stroke:#181818;stroke-width:1;" width="10" x="736.8311" y="675.4297"/></g><g class="message" data-entity-1="part1" data-entity-2="part2" id="msg1"><polygon fill="#181818" points="280.4067,192.2188,290.4067,196.2188,280.4067,200.2188,284.4067,196.2188" style="stroke:#181818;stroke-width:1;"/><line style="stroke:#181818;stroke-width:1;" x1="93.2559" x2="286.4067" y1="196.2188" y2="196.2188"/><text fill="#000000" font-family="sans-serif" font-size="13" lengthAdjust="spacing" textLength="175.3921" x="100.2559" y="145.5449">PUT /machines/{machineId}</text><text fill="#000000" font-family="sans-serif" font-size="13" lengthAdjust="spacing" textLength="140.2197" x="100.2559" y="160.8555">/slots/{slotId}/restock</text><text fill="#000000" font-family="sans-serif" font-size="13" lengthAdjust="spacing" textLength="60.2266" x="100.2559" y="176.166">(quantity)</text><text fill="#000000" font-family="sans-serif" font-size="13" lengthAdjust="spacing" textLength="170.2949" x="100.2559" y="191.4766">(Authorization: Bearer JWT)</text></g><g class="message" data-entity-1="part2" data-entity-2="part2" id="msg2"><line style="stroke:#181818;stroke-width:1;" x1="302.4067" x2="344.4067" y1="240.8398" y2="240.8398"/><line style="stroke:#181818;stroke-width:1;" x1="344.4067" x2="344.4067" y1="240.8398" y2="253.8398"/><line style="stroke:#181818;stroke-width:1;" x1="303.4067" x2="344.4067" y1="253.8398" y2="253.8398"/><polygon fill="#181818" points="313.4067,249.8398,303.4067,253.8398,313.4067,257.8398,309.4067,253.8398" style="stroke:#181818;stroke-width:1;"/><text fill="#000000" font-family="sans-serif" font-size="13" lengthAdjust="spacing" textLength="91.3364" x="309.4067" y="220.7871">Validate JWT &amp;</text><text fill="#000000" font-family="sans-serif" font-size="13" lengthAdjust="spacing" textLength="75.2197" x="309.4067" y="236.0977">Extract Role</text></g><path d="M10,268.8398 L72.1387,268.8398 L72.1387,276.1504 L62.1387,286.1504 L10,286.1504 L10,268.8398" fill="#EEEEEE" style="stroke:#000000;stroke-width:1.5;"/><rect fill="none" height="1075.8184" style="stroke:#000000;stroke-width:1.5;" width="841.0054" x="10" y="268.8398"/><text fill="#000000" font-family="sans-serif" font-size="13" font-weight="bold" lengthAdjust="spacing" textLength="17.1387" x="25" y="282.4082">alt</text><text fill="#000000" font-family="sans-serif" font-size="11" font-weight="bold" lengthAdjust="spacing" textLength="228.9644" x="87.1387" y="281.4746">[Authorized (OPERATOR or ADMIN role)]</text><g class="message" data-entity-1="part2" data-entity-2="part2" id="msg3"><line style="stroke:#181818;stroke-width:1;" x1="302.4067" x2="344.4067" y1="322.7715" y2="322.7715"/><line style="stroke:#181818;stroke-width:1;" x1="344.4067" x2="344.4067" y1="322.7715" y2="335.7715"/><line style="stroke:#181818;stroke-width:1;" x1="303.4067" x2="344.4067" y1="335.7715" y2="335.7715"/><polygon fill="#181818" points="313.4067,331.7715,303.4067,335.7715,313.4067,339.7715,309.4067,335.7715" style="stroke:#181818;stroke-width:1;"/><text fill="#000000" font-family="sans-serif" font-size="13" lengthAdjust="spacing" textLength="87.6992" x="309.4067" y="302.7188">Validate Input</text><text fill="#000000" font-family="sans-serif" font-size="13" lengthAdjust="spacing" textLength="87.0073" x="309.4067" y="318.0293">(quantity &gt; 0)</text></g><path d="M20,350.7715 L82.1387,350.7715 L82.1387,358.082 L72.1387,368.082 L20,368.082 L20,350.7715" fill="#EEEEEE" style="stroke:#000000;stroke-width:1.5;"/><rect fill="none" height="927.3105" style="stroke:#000000;stroke-width:1.5;" width="821.0054" x="20" y="350.7715"/><text fill="#000000" font-family="sans-serif" font-size="13" font-weight="bold" lengthAdjust="spacing" textLength="17.1387" x="35" y="364.3398">alt</text><text fill="#000000" font-family="sans-serif" font-size="11" font-weight="bold" lengthAdjust="spacing" textLength="70.2163" x="97.1387" y="363.4063">[Input Valid]</text><g class="message" data-entity-1="part2" data-entity-2="part3" id="msg4"><polygon fill="#181818" points="489.5576,400.7031,499.5576,404.7031,489.5576,408.7031,493.5576,404.7031" style="stroke:#181818;stroke-width:1;"/><line style="stroke:#181818;stroke-width:1;" x1="302.4067" x2="495.5576" y1="404.7031" y2="404.7031"/><text fill="#000000" font-family="sans-serif" font-size="13" lengthAdjust="spacing" textLength="119.6724" x="309.4067" y="384.6504">restock(machineId,</text><text fill="#000000" font-family="sans-serif" font-size="13" lengthAdjust="spacing" textLength="99.3853" x="309.4067" y="399.9609">slotId, quantity)</text></g><g class="message" data-entity-1="part3" data-entity-2="part4" id="msg5"><polygon fill="#181818" points="724.8311,445.3242,734.8311,449.3242,724.8311,453.3242,728.8311,449.3242" style="stroke:#181818;stroke-width:1;"/><line style="stroke:#181818;stroke-width:1;" x1="511.5576" x2="730.8311" y1="449.3242" y2="449.3242"/><text fill="#000000" font-family="sans-serif" font-size="13" lengthAdjust="spacing" textLength="72.5854" x="518.5576" y="429.2715">SELECT slot</text><text fill="#000000" font-family="sans-serif" font-size="13" lengthAdjust="spacing" textLength="183.8345" x="518.5576" y="444.582">WHERE machineId AND slotId</text></g><g class="message" data-entity-1="part4" data-entity-2="part3" id="msg6"><polygon fill="#181818" points="522.5576,489.9453,512.5576,493.9453,522.5576,497.9453,518.5576,493.9453" style="stroke:#181818;stroke-width:1;"/><line style="stroke:#181818;stroke-width:1;stroke-dasharray:2,2;" x1="516.5576" x2="740.8311" y1="493.9453" y2="493.9453"/><text fill="#000000" font-family="sans-serif" font-size="13" lengthAdjust="spacing" textLength="71.3286" x="528.5576" y="473.8926">Slot Record</text><text fill="#000000" font-family="sans-serif" font-size="13" lengthAdjust="spacing" textLength="167.1782" x="528.5576" y="489.2031">(currentQuantity, capacity)</text></g><path d="M30,508.9453 L92.1387,508.9453 L92.1387,516.2559 L82.1387,526.2559 L30,526.2559 L30,508.9453" fill="#EEEEEE" style="stroke:#000000;stroke-width:1.5;"/><rect fill="none" height="717.8711" style="stroke:#000000;stroke-width:1.5;" width="801.0054" x="30" y="508.9453"/><text fill="#000000" font-family="sans-serif" font-size="13" font-weight="bold" lengthAdjust="spacing" textLength="17.1387" x="45" y="522.5137">alt</text><text fill="#000000" font-family="sans-serif" font-size="11" font-weight="bold" lengthAdjust="spacing" textLength="68.2021" x="107.1387" y="521.5801">[Slot Found]</text><g class="message" data-entity-1="part3" data-entity-2="part3" id="msg7"><line style="stroke:#181818;stroke-width:1;" x1="511.5576" x2="553.5576" y1="578.1875" y2="578.1875"/><line style="stroke:#181818;stroke-width:1;" x1="553.5576" x2="553.5576" y1="578.1875" y2="591.1875"/><line style="stroke:#181818;stroke-width:1;" x1="512.5576" x2="553.5576" y1="591.1875" y2="591.1875"/><polygon fill="#181818" points="522.5576,587.1875,512.5576,591.1875,522.5576,595.1875,518.5576,591.1875" style="stroke:#181818;stroke-width:1;"/><text fill="#000000" font-family="sans-serif" font-size="13" lengthAdjust="spacing" textLength="54.7739" x="518.5576" y="542.8242">Validate:</text><text fill="#000000" font-family="sans-serif" font-size="13" lengthAdjust="spacing" textLength="169.5586" x="518.5576" y="558.1348">currentQuantity + quantity</text><text fill="#000000" font-family="sans-serif" font-size="13" lengthAdjust="spacing" textLength="65.7236" x="518.5576" y="573.4453">&#8804; capacity</text></g><path d="M40,606.1875 L102.1387,606.1875 L102.1387,613.498 L92.1387,623.498 L40,623.498 L40,606.1875" fill="#EEEEEE" style="stroke:#000000;stroke-width:1.5;"/><rect fill="none" height="540.0527" style="stroke:#000000;stroke-width:1.5;" width="781.0054" x="40" y="606.1875"/><text fill="#000000" font-family="sans-serif" font-size="13" font-weight="bold" lengthAdjust="spacing" textLength="17.1387" x="55" y="619.7559">alt</text><text fill="#000000" font-family="sans-serif" font-size="11" font-weight="bold" lengthAdjust="spacing" textLength="96.1426" x="117.1387" y="618.8223">[Within Capacity]</text><g class="message" data-entity-1="part3" data-entity-2="part4" id="msg8"><polygon fill="#181818" points="724.8311,671.4297,734.8311,675.4297,724.8311,679.4297,728.8311,675.4297" style="stroke:#181818;stroke-width:1;"/><line style="stroke:#181818;stroke-width:1;" x1="511.5576" x2="730.8311" y1="675.4297" y2="675.4297"/><text fill="#000000" font-family="sans-serif" font-size="13" lengthAdjust="spacing" textLength="77.5112" x="518.5576" y="640.0664">UPDATE slot</text><text fill="#000000" font-family="sans-serif" font-size="13" lengthAdjust="spacing" textLength="206.2734" x="518.5576" y="655.377">SET currentQuantity += quantity</text><text fill="#000000" font-family="sans-serif" font-size="13" lengthAdjust="spacing" textLength="191.3374" x="518.5576" y="670.6875">(optimistic lock version check)</text></g><path d="M50,690.4297 L112.1387,690.4297 L112.1387,697.7402 L102.1387,707.7402 L50,707.7402 L50,690.4297" fill="#EEEEEE" style="stroke:#000000;stroke-width:1.5;"/><rect fill="none" height="359.9238" style="stroke:#000000;stroke-width:1.5;" width="761.0054" x="50" y="690.4297"/><text fill="#000000" font-family="sans-serif" font-size="13" font-weight="bold" lengthAdjust="spacing" textLength="17.1387" x="65" y="703.998">alt</text><text fill="#000000" font-family="sans-serif" font-size="11" font-weight="bold" lengthAdjust="spacing" textLength="164.7959" x="127.1387" y="703.0645">[No Concurrent Modification]</text><g class="message" data-entity-1="part4" data-entity-2="part3" id="msg9"><polygon fill="#181818" points="522.5576,740.3613,512.5576,744.3613,522.5576,748.3613,518.5576,744.3613" style="stroke:#181818;stroke-width:1;"/><line style="stroke:#181818;stroke-width:1;stroke-dasharray:2,2;" x1="516.5576" x2="740.8311" y1="744.3613" y2="744.3613"/><text fill="#000000" font-family="sans-serif" font-size="13" lengthAdjust="spacing" textLength="52.8379" x="528.5576" y="724.3086">Updated</text><text fill="#000000" font-family="sans-serif" font-size="13" lengthAdjust="spacing" textLength="99.1504" x="528.5576" y="739.6191">(1 row affected)</text></g><g class="message" data-entity-1="part3" data-entity-2="part4" id="msg10"><polygon fill="#181818" points="729.8311,815.6035,739.8311,819.6035,729.8311,823.6035,733.8311,819.6035" style="stroke:#181818;stroke-width:1;"/><line style="stroke:#181818;stroke-width:1;" x1="511.5576" x2="735.8311" y1="819.6035" y2="819.6035"/><text fill="#000000" font-family="sans-serif" font-size="13" lengthAdjust="spacing" textLength="106.3486" x="518.5576" y="768.9297">INSERT audit_log</text><text fill="#000000" font-family="sans-serif" font-size="13" lengthAdjust="spacing" textLength="104.6665" x="518.5576" y="784.2402">(RESTOCK event,</text><text fill="#000000" font-family="sans-serif" font-size="13" lengthAdjust="spacing" textLength="143.3809" x="518.5576" y="799.5508">operatorId, machineId,</text><text fill="#000000" font-family="sans-serif" font-size="13" lengthAdjust="spacing" textLength="99.3853" x="518.5576" y="814.8613">slotId, quantity)</text></g><g class="message" data-entity-1="part3" data-entity-2="part2" id="msg11"><polygon fill="#181818" points="313.4067,860.2246,303.4067,864.2246,313.4067,868.2246,309.4067,864.2246" style="stroke:#181818;stroke-width:1;"/><line style="stroke:#181818;stroke-width:1;stroke-dasharray:2,2;" x1="307.4067" x2="500.5576" y1="864.2246" y2="864.2246"/><text fill="#000000" font-family="sans-serif" font-size="13" lengthAdjust="spacing" textLength="87.9722" x="319.4067" y="844.1719">RestockResult</text><text fill="#000000" font-family="sans-serif" font-size="13" lengthAdjust="spacing" textLength="83.9604" x="319.4067" y="859.4824">(updatedSlot)</text></g><g class="message" data-entity-1="part2" data-entity-2="part1" id="msg12"><polygon fill="#181818" points="104.2559,904.8457,94.2559,908.8457,104.2559,912.8457,100.2559,908.8457" style="stroke:#181818;stroke-width:1;"/><line style="stroke:#181818;stroke-width:1;stroke-dasharray:2,2;" x1="98.2559" x2="291.4067" y1="908.8457" y2="908.8457"/><text fill="#000000" font-family="sans-serif" font-size="13" lengthAdjust="spacing" textLength="47.3599" x="110.2559" y="888.793">200 OK</text><text fill="#000000" font-family="sans-serif" font-size="13" lengthAdjust="spacing" textLength="119.8691" x="110.2559" y="904.1035">(updated slot DTO)</text></g><line style="stroke:#000000;stroke-width:1;stroke-dasharray:2,2;" x1="50" x2="811.0054" y1="917.8457" y2="917.8457"/><text fill="#000000" font-family="sans-serif" font-size="11" font-weight="bold" lengthAdjust="spacing" textLength="199.4341" x="55" y="928.4805">[Concurrent Modification Detected]</text><g class="message" data-entity-1="part4" data-entity-2="part3" id="msg13"><polygon fill="#181818" points="522.5576,949.1113,512.5576,953.1113,522.5576,957.1113,518.5576,953.1113" style="stroke:#181818;stroke-width:1;"/><line style="stroke:#181818;stroke-width:1;stroke-dasharray:2,2;" x1="516.5576" x2="740.8311" y1="953.1113" y2="953.1113"/><text fill="#000000" font-family="sans-serif" font-size="13" lengthAdjust="spacing" textLength="155.6509" x="528.5576" y="948.3691">OptimisticLockException</text></g><g class="message" data-entity-1="part3" data-entity-2="part2" id="msg14"><polygon fill="#181818" points="313.4067,978.4219,303.4067,982.4219,313.4067,986.4219,309.4067,982.4219" style="stroke:#181818;stroke-width:1;"/><line style="stroke:#181818;stroke-width:1;stroke-dasharray:2,2;" x1="307.4067" x2="500.5576" y1="982.4219" y2="982.4219"/><text fill="#000000" font-family="sans-serif" font-size="13" lengthAdjust="spacing" textLength="110.6396" x="319.4067" y="977.6797">ConflictException</text></g><g class="message" data-entity-1="part2" data-entity-2="part1" id="msg15"><polygon fill="#181818" points="104.2559,1038.3535,94.2559,1042.3535,104.2559,1046.3535,100.2559,1042.3535" style="stroke:#181818;stroke-width:1;"/><line style="stroke:#181818;stroke-width:1;stroke-dasharray:2,2;" x1="98.2559" x2="291.4067" y1="1042.3535" y2="1042.3535"/><text fill="#000000" font-family="sans-serif" font-size="13" lengthAdjust="spacing" textLength="77.6382" x="110.2559" y="1006.9902">409 Conflict</text><text fill="#000000" font-family="sans-serif" font-size="13" lengthAdjust="spacing" textLength="175.1509" x="110.2559" y="1022.3008">(Concurrent modification &#8212;</text><text fill="#000000" font-family="sans-serif" font-size="13" lengthAdjust="spacing" textLength="85.4204" x="110.2559" y="1037.6113">retry request)</text></g><line style="stroke:#000000;stroke-width:1;stroke-dasharray:2,2;" x1="40" x2="821.0054" y1="1058.3535" y2="1058.3535"/><text fill="#000000" font-family="sans-serif" font-size="11" font-weight="bold" lengthAdjust="spacing" textLength="105.499" x="45" y="1068.9883">[Exceeds Capacity]</text><g class="message" data-entity-1="part3" data-entity-2="part2" id="msg16"><polygon fill="#181818" points="313.4067,1089.6191,303.4067,1093.6191,313.4067,1097.6191,309.4067,1093.6191" style="stroke:#181818;stroke-width:1;"/><line style="stroke:#181818;stroke-width:1;stroke-dasharray:2,2;" x1="307.4067" x2="500.5576" y1="1093.6191" y2="1093.6191"/><text fill="#000000" font-family="sans-serif" font-size="13" lengthAdjust="spacing" textLength="175.1509" x="319.4067" y="1088.877">CapacityExceededException</text></g><g class="message" data-entity-1="part2" data-entity-2="part1" id="msg17"><polygon fill="#181818" points="104.2559,1134.2402,94.2559,1138.2402,104.2559,1142.2402,100.2559,1138.2402" style="stroke:#181818;stroke-width:1;"/><line style="stroke:#181818;stroke-width:1;stroke-dasharray:2,2;" x1="98.2559" x2="291.4067" y1="1138.2402" y2="1138.2402"/><text fill="#000000" font-family="sans-serif" font-size="13" lengthAdjust="spacing" textLength="160.3545" x="110.2559" y="1118.1875">422 Unprocessable Entity</text><text fill="#000000" font-family="sans-serif" font-size="13" lengthAdjust="spacing" textLength="142.1558" x="110.2559" y="1133.498">(Exceeds slot capacity)</text></g><line style="stroke:#000000;stroke-width:1;stroke-dasharray:2,2;" x1="30" x2="831.0054" y1="1154.2402" y2="1154.2402"/><text fill="#000000" font-family="sans-serif" font-size="11" font-weight="bold" lengthAdjust="spacing" textLength="91.7651" x="35" y="1164.875">[Slot Not Found]</text><g class="message" data-entity-1="part3" data-entity-2="part2" id="msg18"><polygon fill="#181818" points="313.4067,1185.5059,303.4067,1189.5059,313.4067,1193.5059,309.4067,1189.5059" style="stroke:#181818;stroke-width:1;"/><line style="stroke:#181818;stroke-width:1;stroke-dasharray:2,2;" x1="307.4067" x2="505.5576" y1="1189.5059" y2="1189.5059"/><text fill="#000000" font-family="sans-serif" font-size="13" lengthAdjust="spacing" textLength="147.1069" x="319.4067" y="1184.7637">SlotNotFoundException</text></g><g class="message" data-entity-1="part2" data-entity-2="part1" id="msg19"><polygon fill="#181818" points="104.2559,1214.8164,94.2559,1218.8164,104.2559,1222.8164,100.2559,1218.8164" style="stroke:#181818;stroke-width:1;"/><line style="stroke:#181818;stroke-width:1;stroke-dasharray:2,2;" x1="98.2559" x2="291.4067" y1="1218.8164" y2="1218.8164"/><text fill="#000000" font-family="sans-serif" font-size="13" lengthAdjust="spacing" textLength="94.6118" x="110.2559" y="1214.0742">404 Not Found</text></g><line style="stroke:#000000;stroke-width:1;stroke-dasharray:2,2;" x1="20" x2="841.0054" y1="1234.8164" y2="1234.8164"/><text fill="#000000" font-family="sans-serif" font-size="11" font-weight="bold" lengthAdjust="spacing" textLength="79.9272" x="25" y="1245.4512">[Input Invalid]</text><g class="message" data-entity-1="part2" data-entity-2="part1" id="msg20"><polygon fill="#181818" points="104.2559,1266.082,94.2559,1270.082,104.2559,1274.082,100.2559,1270.082" style="stroke:#181818;stroke-width:1;"/><line style="stroke:#181818;stroke-width:1;stroke-dasharray:2,2;" x1="98.2559" x2="291.4067" y1="1270.082" y2="1270.082"/><text fill="#000000" font-family="sans-serif" font-size="13" lengthAdjust="spacing" textLength="106.1709" x="110.2559" y="1265.3398">400 Bad Request</text></g><line style="stroke:#000000;stroke-width:1;stroke-dasharray:2,2;" x1="10" x2="851.0054" y1="1286.082" y2="1286.082"/><text fill="#000000" font-family="sans-serif" font-size="11" font-weight="bold" lengthAdjust="spacing" textLength="84.686" x="15" y="1296.7168">[Unauthorized]</text><g class="message" data-entity-1="part2" data-entity-2="part1" id="msg21"><polygon fill="#181818" points="104.2559,1332.6582,94.2559,1336.6582,104.2559,1340.6582,100.2559,1336.6582" style="stroke:#181818;stroke-width:1;"/><line style="stroke:#181818;stroke-width:1;stroke-dasharray:2,2;" x1="98.2559" x2="291.4067" y1="1336.6582" y2="1336.6582"/><text fill="#000000" font-family="sans-serif" font-size="13" lengthAdjust="spacing" textLength="92.6631" x="110.2559" y="1316.6055">403 Forbidden</text><text fill="#000000" font-family="sans-serif" font-size="13" lengthAdjust="spacing" textLength="159.3135" x="110.2559" y="1331.916">(Insufficient permissions)</text></g><?plantuml-src ZLNDRjf04BxxAKPKga1D14rpAL8ZGUogj0GICCa5gThOGxAAi-kirpHfLQdNtli8VR8yIMVNnXXiKdpnUZtxVJFV_ApcEa8uOy4j5mWJJBGCxg0vn2L6SDI2vrz_u195E4BjE2pGKa5Z7ADYj6e0Is3ruJZNyX4QkItqpWSDU3NaDxUw7wNe03qnKve7F6P2G-DK2gra5646i_wicauZgM6AQia3jCPc8_zsY0-8sN52fjarIn0QPq_JYo6u-RSzuVOTP-Kf79wKwBfmFlEXVPyfaBH_vAj1-7CksWanqPvvqKPRPVhCHVCX9TUuVchHkfVgMwduTwQv55te8rEeuFELtpAAyINJM8vllTpsv995F3JMT1PUpuNtg1KXm4H6IEf796jEXI4qn-VUfEUF9q0XzTopmGW81rkE5N0Fae68KrqA1KwWavysLFPtPfrjLc5BUUX2haspqEzWBZBT3g1Ggm0gX2ddilXRsZGyRhyBKs_edVfW4EVYwfCtyQ1WWjx8XOohIa2fN-svVJZSTjiMrmG3gKBI8aYLGg4lSdyF860n2pOy3x4ClUOZoIpMHvcAac8ruMpmhzBHdOijSdXJw3ONpx__5hviWXlYAwv92JXT6S3MKwFdxDpj-LwkvzJpeSB-eKJVbB7czpoXfeJ8J8WbgeIg7O9R3EvQ5S8wzSiEZwGffPmIpcJ85pom_LCntvMuMMnaCqbxIuN_3TXYWG5jj6eHDhDMPr6ZqM0qzIO-i3Ja-ciaRuXhuatzyUaNeFaeD5Mup8UAgVBzAdydvrQVvhEONcbasZJDuZL7wi7AlKbOgt7NXQDE1yPVrX0swU3wuoeEHWdkoWougAt2UwTeN1JDa2Bn7WECTwRu9IbelOXue5z6s1d_SUTz0K4gbCAxBuT7LzrSADJgYMRPGqhor-YptTfMCECNXicU_RSTN7ue0y5mTv2x0pmwWfc8bGmmITWrNUZUgczNhjcKLuTP9IORZvrZesAMxHk9-KUdxA7wA4fTM9xxUsRnkCQdmddhU7Pd3SJItbfxG7QWpq9gDPjkfm2qO3F1YjlM-G_EEt9BNVCmH46Y3qIIBgYkkAanig8UCCCoQJaMlQJ26l8V?></g></svg>