<svg xmlns="http://www.w3.org/2000/svg" xmlns:xlink="http://www.w3.org/1999/xlink" contentStyleType="text/css" height="638px" preserveAspectRatio="none" style="width:618px;height:638px;background:#FFFFFF;" version="1.1" viewBox="0 0 618 638" width="618px" zoomAndPan="magnify"><title>Read Process (Level 2)</title><defs/><g><text fill="#000000" font-family="sans-serif" font-size="14" font-weight="bold" lengthAdjust="spacing" textLength="153.2959" x="233.5999" y="30.1074">Read Process (Level 2)</text><rect fill="#ADD8E6" height="586.7051" style="stroke:#181818;stroke-width:0.5;" width="384.8965" x="210.5991" y="45.6211"/><text fill="#000000" font-family="sans-serif" font-size="13" font-weight="bold" lengthAdjust="spacing" textLength="70.7764" x="367.6592" y="59.6494">Application</text><rect fill="#FFFFFF" height="384.1719" style="stroke:#181818;stroke-width:1.0;" width="10" x="277.6782" y="156.5332"/><rect fill="#FFFFFF" height="181.0859" style="stroke:#181818;stroke-width:1.0;" width="10" x="532.0371" y="258.4063"/><rect fill="none" height="317.8809" style="stroke:#000000;stroke-width:1.5;" width="601.4956" x="10" y="215.8242"/><rect fill="none" height="205.377" style="stroke:#000000;stroke-width:1.5;" width="581.4956" x="20" y="273.4063"/><line style="stroke:#181818;stroke-width:0.5;stroke-dasharray:5.0,5.0;" x1="47" x2="47" y1="123.2422" y2="550.7051"/><line style="stroke:#181818;stroke-width:0.5;stroke-dasharray:5.0,5.0;" x1="282.5991" x2="282.5991" y1="123.2422" y2="550.7051"/><line style="stroke:#181818;stroke-width:0.5;stroke-dasharray:5.0,5.0;" x1="536.5786" x2="536.5786" y1="123.2422" y2="550.7051"/><text fill="#000000" font-family="sans-serif" font-size="14" lengthAdjust="spacing" textLength="29.5586" x="30" y="119.7285">User</text><ellipse cx="47.7793" cy="53.1211" fill="#E2E2F0" rx="8" ry="8" style="stroke:#181818;stroke-width:0.5;"/><path d="M47.7793,61.1211 L47.7793,88.1211 M34.7793,69.1211 L60.7793,69.1211 M47.7793,88.1211 L34.7793,103.1211 M47.7793,88.1211 L60.7793,103.1211 " fill="none" style="stroke:#181818;stroke-width:0.5;"/><text fill="#000000" font-family="sans-serif" font-size="14" lengthAdjust="spacing" textLength="29.5586" x="30" y="564.8125">User</text><ellipse cx="47.7793" cy="576.8262" fill="#E2E2F0" rx="8" ry="8" style="stroke:#181818;stroke-width:0.5;"/><path d="M47.7793,584.8262 L47.7793,611.8262 M34.7793,592.8262 L60.7793,592.8262 M47.7793,611.8262 L34.7793,626.8262 M47.7793,611.8262 L60.7793,626.8262 " fill="none" style="stroke:#181818;stroke-width:0.5;"/><rect fill="#E2E2F0" height="32.6211" rx="2.5" ry="2.5" style="stroke:#181818;stroke-width:0.5;" width="136.1582" x="214.5991" y="89.6211"/><text fill="#000000" font-family="sans-serif" font-size="14" lengthAdjust="spacing" textLength="122.1582" x="221.5991" y="111.7285">Controller:controller</text><rect fill="#E2E2F0" height="32.6211" rx="2.5" ry="2.5" style="stroke:#181818;stroke-width:0.5;" width="136.1582" x="214.5991" y="549.7051"/><text fill="#000000" font-family="sans-serif" font-size="14" lengthAdjust="spacing" textLength="122.1582" x="221.5991" y="571.8125">Controller:controller</text><rect fill="#E2E2F0" height="32.6211" rx="2.5" ry="2.5" style="stroke:#181818;stroke-width:0.5;" width="108.917" x="482.5786" y="89.6211"/><text fill="#000000" font-family="sans-serif" font-size="14" lengthAdjust="spacing" textLength="94.917" x="489.5786" y="111.7285">Service:service</text><rect fill="#E2E2F0" height="32.6211" rx="2.5" ry="2.5" style="stroke:#181818;stroke-width:0.5;" width="108.917" x="482.5786" y="549.7051"/><text fill="#000000" font-family="sans-serif" font-size="14" lengthAdjust="spacing" textLength="94.917" x="489.5786" y="571.8125">Service:service</text><rect fill="#FFFFFF" height="384.1719" style="stroke:#181818;stroke-width:1.0;" width="10" x="277.6782" y="156.5332"/><rect fill="#FFFFFF" height="181.0859" style="stroke:#181818;stroke-width:1.0;" width="10" x="532.0371" y="258.4063"/><polygon fill="#181818" points="265.6782,152.5332,275.6782,156.5332,265.6782,160.5332,269.6782,156.5332" style="stroke:#181818;stroke-width:1.0;"/><line style="stroke:#181818;stroke-width:1.0;" x1="47.7793" x2="271.6782" y1="156.5332" y2="156.5332"/><text fill="#000000" font-family="sans-serif" font-size="13" lengthAdjust="spacing" textLength="150.2681" x="54.7793" y="151.2705">Request Data (ID/Criteria)</text><line style="stroke:#181818;stroke-width:1.0;" x1="287.6782" x2="329.6782" y1="187.8242" y2="187.8242"/><line style="stroke:#181818;stroke-width:1.0;" x1="329.6782" x2="329.6782" y1="187.8242" y2="200.8242"/><line style="stroke:#181818;stroke-width:1.0;" x1="288.6782" x2="329.6782" y1="200.8242" y2="200.8242"/><polygon fill="#181818" points="298.6782,196.8242,288.6782,200.8242,298.6782,204.8242,294.6782,200.8242" style="stroke:#181818;stroke-width:1.0;"/><text fill="#000000" font-family="sans-serif" font-size="13" lengthAdjust="spacing" textLength="169.8125" x="294.6782" y="182.5615">Validate Request Parameters</text><path d="M10,215.8242 L70.1709,215.8242 L70.1709,225.1152 L60.1709,235.1152 L10,235.1152 L10,215.8242 " fill="#EEEEEE" style="stroke:#000000;stroke-width:1.5;"/><rect fill="none" height="317.8809" style="stroke:#000000;stroke-width:1.5;" width="601.4956" x="10" y="215.8242"/><text fill="#000000" font-family="sans-serif" font-size="13" font-weight="bold" lengthAdjust="spacing" textLength="15.1709" x="25" y="230.8525">alt</text><text fill="#000000" font-family="sans-serif" font-size="11" font-weight="bold" lengthAdjust="spacing" textLength="96.5991" x="85.1709" y="229.6943">[Parameters Valid]</text><polygon fill="#181818" points="520.0371,254.4063,530.0371,258.4063,520.0371,262.4063,524.0371,258.4063" style="stroke:#181818;stroke-width:1.0;"/><line style="stroke:#181818;stroke-width:1.0;" x1="287.6782" x2="526.0371" y1="258.4063" y2="258.4063"/><text fill="#000000" font-family="sans-serif" font-size="13" lengthAdjust="spacing" textLength="98.2427" x="294.6782" y="253.1436">Read(ID/Criteria)</text><path d="M20,273.4063 L80.1709,273.4063 L80.1709,282.6973 L70.1709,292.6973 L20,292.6973 L20,273.4063 " fill="#EEEEEE" style="stroke:#000000;stroke-width:1.5;"/><rect fill="none" height="205.377" style="stroke:#000000;stroke-width:1.5;" width="581.4956" x="20" y="273.4063"/><text fill="#000000" font-family="sans-serif" font-size="13" font-weight="bold" lengthAdjust="spacing" textLength="15.1709" x="35" y="288.4346">alt</text><text fill="#000000" font-family="sans-serif" font-size="11" font-weight="bold" lengthAdjust="spacing" textLength="67.8208" x="95.1709" y="287.2764">[Data Found]</text><polygon fill="#181818" points="298.6782,311.9883,288.6782,315.9883,298.6782,319.9883,294.6782,315.9883" style="stroke:#181818;stroke-width:1.0;"/><line style="stroke:#181818;stroke-width:1.0;stroke-dasharray:2.0,2.0;" x1="292.6782" x2="531.0371" y1="315.9883" y2="315.9883"/><text fill="#000000" font-family="sans-serif" font-size="13" lengthAdjust="spacing" textLength="220.3589" x="304.6782" y="310.7256">Data Found (Domain Model Object(s))</text><line style="stroke:#181818;stroke-width:1.0;" x1="287.6782" x2="329.6782" y1="347.2793" y2="347.2793"/><line style="stroke:#181818;stroke-width:1.0;" x1="329.6782" x2="329.6782" y1="347.2793" y2="360.2793"/><line style="stroke:#181818;stroke-width:1.0;" x1="288.6782" x2="329.6782" y1="360.2793" y2="360.2793"/><polygon fill="#181818" points="298.6782,356.2793,288.6782,360.2793,298.6782,364.2793,294.6782,360.2793" style="stroke:#181818;stroke-width:1.0;"/><text fill="#000000" font-family="sans-serif" font-size="13" lengthAdjust="spacing" textLength="158.2217" x="294.6782" y="342.0166">Map Domain Model to DTO</text><polygon fill="#181818" points="58.7793,387.5703,48.7793,391.5703,58.7793,395.5703,54.7793,391.5703" style="stroke:#181818;stroke-width:1.0;"/><line style="stroke:#181818;stroke-width:1.0;stroke-dasharray:2.0,2.0;" x1="52.7793" x2="276.6782" y1="391.5703" y2="391.5703"/><text fill="#000000" font-family="sans-serif" font-size="13" lengthAdjust="spacing" textLength="179.8989" x="64.7793" y="386.3076">Display Requested Data (DTO)</text><line style="stroke:#000000;stroke-width:1.0;stroke-dasharray:2.0,2.0;" x1="20" x2="601.4956" y1="400.5703" y2="400.5703"/><text fill="#000000" font-family="sans-serif" font-size="11" font-weight="bold" lengthAdjust="spacing" textLength="89.2031" x="25" y="412.4404">[Data Not Found]</text><polygon fill="#181818" points="298.6782,435.4922,288.6782,439.4922,298.6782,443.4922,294.6782,439.4922" style="stroke:#181818;stroke-width:1.0;"/><line style="stroke:#181818;stroke-width:1.0;stroke-dasharray:2.0,2.0;" x1="292.6782" x2="536.0371" y1="439.4922" y2="439.4922"/><text fill="#000000" font-family="sans-serif" font-size="13" lengthAdjust="spacing" textLength="91.7744" x="304.6782" y="434.2295">Data Not Found</text><polygon fill="#181818" points="58.7793,466.7832,48.7793,470.7832,58.7793,474.7832,54.7793,470.7832" style="stroke:#181818;stroke-width:1.0;"/><line style="stroke:#181818;stroke-width:1.0;stroke-dasharray:2.0,2.0;" x1="52.7793" x2="276.6782" y1="470.7832" y2="470.7832"/><text fill="#000000" font-family="sans-serif" font-size="13" lengthAdjust="spacing" textLength="189.2935" x="64.7793" y="465.5205">Error Message (Data Not Found)</text><line style="stroke:#000000;stroke-width:1.0;stroke-dasharray:2.0,2.0;" x1="10" x2="611.4956" y1="486.7832" y2="486.7832"/><text fill="#000000" font-family="sans-serif" font-size="11" font-weight="bold" lengthAdjust="spacing" textLength="105.1553" x="15" y="498.6533">[Parameters Invalid]</text><polygon fill="#181818" points="58.7793,521.7051,48.7793,525.7051,58.7793,529.7051,54.7793,525.7051" style="stroke:#181818;stroke-width:1.0;"/><line style="stroke:#181818;stroke-width:1.0;stroke-dasharray:2.0,2.0;" x1="52.7793" x2="276.6782" y1="525.7051" y2="525.7051"/><text fill="#000000" font-family="sans-serif" font-size="13" lengthAdjust="spacing" textLength="205.8989" x="64.7793" y="520.4424">Error Message (Invalid Parameters)</text><!--SRC=[bPBBRiCW44NtVCN8tTYBg5ANMLHgurQAb3HHN_i97gLK15oOMEtV5_o8xJmMOMF0Tmxt3h1YJV1AMC3QMKdUGxgWYZJSPKAWPEiW-V3a4a0FSIB4nlv2yb2MMabaPKq2Dmkr_U97lIS1OPJeM4bLec58PjQmirgJcyh3jARrVqwhtiXLIjBKDzzQt-u9CWK43q94Ep2v7u2c8ShFdZn3ZeoGplFRcLDCJc4MqwWAcOO7zzDZq2TgLKHrHroZmnq5bXUeXyj6McSOuxeGTN_7NgBuuASBLc_grlkptPi66aShWScHoruAQMvtg0miRH6kRxNv9icfpx83utBM9POmgcOB-VlgR6KeZNqFHojVQlph-aD5s_DGs9n9sbEpzsBvcZodyeBEDkkYjoVdmiDTXkUCMmgMHjJMNS3N3WSNEJVLsQkyn6tr0qGMNwSOsEqn_m00]--></g></svg>