<svg xmlns="http://www.w3.org/2000/svg" xmlns:xlink="http://www.w3.org/1999/xlink" contentStyleType="text/css" height="485px" preserveAspectRatio="none" style="width:402px;height:485px;background:#FFFFFF;" version="1.1" viewBox="0 0 402 485" width="402px" zoomAndPan="magnify"><title>Physical View - Library Deployment</title><defs/><g><text fill="#000000" font-family="sans-serif" font-size="14" font-weight="bold" lengthAdjust="spacing" textLength="236.5234" x="75.7383" y="25.1074">Physical View - Library Deployment</text><!--cluster Client--><g id="cluster_Client"><polygon fill="#FFFAF0" points="140,55.6211,150,45.6211,264,45.6211,264,142.6211,254,152.6211,140,152.6211,140,55.6211" style="stroke:#333333;stroke-width:1.0;"/><line style="stroke:#333333;stroke-width:1.0;" x1="254" x2="264" y1="55.6211" y2="45.6211"/><line style="stroke:#333333;stroke-width:1.0;" x1="140" x2="254" y1="55.6211" y2="55.6211"/><line style="stroke:#333333;stroke-width:1.0;" x1="254" x2="254" y1="55.6211" y2="152.6211"/><text fill="#000000" font-family="sans-serif" font-size="14" font-weight="bold" lengthAdjust="spacing" textLength="38.8896" x="178.5552" y="73.7285">Client</text></g><!--cluster Web--><g id="cluster_Web"><polygon fill="#FFFAF0" points="125,213.6211,135,203.6211,279,203.6211,279,300.6211,269,310.6211,125,310.6211,125,213.6211" style="stroke:#333333;stroke-width:1.0;"/><line style="stroke:#333333;stroke-width:1.0;" x1="269" x2="279" y1="213.6211" y2="203.6211"/><line style="stroke:#333333;stroke-width:1.0;" x1="125" x2="269" y1="213.6211" y2="213.6211"/><line style="stroke:#333333;stroke-width:1.0;" x1="269" x2="269" y1="213.6211" y2="310.6211"/><text fill="#000000" font-family="sans-serif" font-size="14" font-weight="bold" lengthAdjust="spacing" textLength="77.0342" x="159.4829" y="231.7285">Web Server</text></g><!--cluster DB--><g id="cluster_DB"><polygon fill="#FFFAF0" points="16,371.6211,26,361.6211,195,361.6211,195,458.6211,185,468.6211,16,468.6211,16,371.6211" style="stroke:#333333;stroke-width:1.0;"/><line style="stroke:#333333;stroke-width:1.0;" x1="185" x2="195" y1="371.6211" y2="361.6211"/><line style="stroke:#333333;stroke-width:1.0;" x1="16" x2="185" y1="371.6211" y2="371.6211"/><line style="stroke:#333333;stroke-width:1.0;" x1="185" x2="185" y1="371.6211" y2="468.6211"/><text fill="#000000" font-family="sans-serif" font-size="14" font-weight="bold" lengthAdjust="spacing" textLength="103.5029" x="49.7485" y="389.7285">Database Layer</text></g><!--cluster External--><g id="cluster_External"><polygon fill="#FFFAF0" points="219,371.6211,229,361.6211,385,361.6211,385,458.6211,375,468.6211,219,468.6211,219,371.6211" style="stroke:#333333;stroke-width:1.0;"/><line style="stroke:#333333;stroke-width:1.0;" x1="375" x2="385" y1="371.6211" y2="361.6211"/><line style="stroke:#333333;stroke-width:1.0;" x1="219" x2="375" y1="371.6211" y2="371.6211"/><line style="stroke:#333333;stroke-width:1.0;" x1="375" x2="375" y1="371.6211" y2="468.6211"/><text fill="#000000" font-family="sans-serif" font-size="14" font-weight="bold" lengthAdjust="spacing" textLength="90.2617" x="252.8691" y="389.7285">External APIs</text></g><!--entity Browser--><g id="elem_Browser"><rect fill="#F1F1F1" height="48.6211" rx="2.5" ry="2.5" style="stroke:#181818;stroke-width:0.5;" width="91.3447" x="156.5" y="87.6211"/><rect fill="#F1F1F1" height="10" style="stroke:#181818;stroke-width:0.5;" width="15" x="227.8447" y="92.6211"/><rect fill="#F1F1F1" height="2" style="stroke:#181818;stroke-width:0.5;" width="4" x="225.8447" y="94.6211"/><rect fill="#F1F1F1" height="2" style="stroke:#181818;stroke-width:0.5;" width="4" x="225.8447" y="98.6211"/><text fill="#000000" font-family="sans-serif" font-size="14" lengthAdjust="spacing" textLength="51.3447" x="171.5" y="122.7285">Browser</text></g><!--entity HTTPServer--><g id="elem_HTTPServer"><rect fill="#F1F1F1" height="48.6211" rx="2.5" ry="2.5" style="stroke:#181818;stroke-width:0.5;" width="121.6758" x="141" y="245.6211"/><rect fill="#F1F1F1" height="10" style="stroke:#181818;stroke-width:0.5;" width="15" x="242.6758" y="250.6211"/><rect fill="#F1F1F1" height="2" style="stroke:#181818;stroke-width:0.5;" width="4" x="240.6758" y="252.6211"/><rect fill="#F1F1F1" height="2" style="stroke:#181818;stroke-width:0.5;" width="4" x="240.6758" y="256.6211"/><text fill="#000000" font-family="sans-serif" font-size="14" lengthAdjust="spacing" textLength="81.6758" x="156" y="280.7285">HTTP Server</text></g><!--entity SQL--><g id="elem_SQL"><rect fill="#F1F1F1" height="48.6211" rx="2.5" ry="2.5" style="stroke:#181818;stroke-width:0.5;" width="113.1377" x="65.5" y="403.6211"/><rect fill="#F1F1F1" height="10" style="stroke:#181818;stroke-width:0.5;" width="15" x="158.6377" y="408.6211"/><rect fill="#F1F1F1" height="2" style="stroke:#181818;stroke-width:0.5;" width="4" x="156.6377" y="410.6211"/><rect fill="#F1F1F1" height="2" style="stroke:#181818;stroke-width:0.5;" width="4" x="156.6377" y="414.6211"/><text fill="#000000" font-family="sans-serif" font-size="14" lengthAdjust="spacing" textLength="73.1377" x="80.5" y="438.7285">SQL Server</text></g><!--entity Ninja--><g id="elem_Ninja"><rect fill="#F1F1F1" height="48.6211" rx="2.5" ry="2.5" style="stroke:#181818;stroke-width:0.5;" width="98.3584" x="235" y="403.6211"/><rect fill="#F1F1F1" height="10" style="stroke:#181818;stroke-width:0.5;" width="15" x="313.3584" y="408.6211"/><rect fill="#F1F1F1" height="2" style="stroke:#181818;stroke-width:0.5;" width="4" x="311.3584" y="410.6211"/><rect fill="#F1F1F1" height="2" style="stroke:#181818;stroke-width:0.5;" width="4" x="311.3584" y="414.6211"/><text fill="#000000" font-family="sans-serif" font-size="14" lengthAdjust="spacing" textLength="58.3584" x="250" y="438.7285">Ninja API</text></g><!--link Browser to HTTPServer--><g id="link_Browser_HTTPServer"><path d="M202,136.8111 C202,166.2211 202,210.0711 202,239.4611 " fill="none" id="Browser-to-HTTPServer" style="stroke:#181818;stroke-width:1.0;"/><polygon fill="#181818" points="202,245.4611,206,236.4611,202,240.4611,198,236.4611,202,245.4611" style="stroke:#181818;stroke-width:1.0;"/><text fill="#000000" font-family="sans-serif" font-size="13" lengthAdjust="spacing" textLength="80.1646" x="203" y="183.6494">HTTP/HTTPS</text></g><!--link HTTPServer to SQL--><g id="link_HTTPServer_SQL"><path d="M189.85,294.8111 C174.77,324.2211 151.9491,368.7328 136.8691,398.1228 " fill="none" id="HTTPServer-to-SQL" style="stroke:#181818;stroke-width:1.0;"/><polygon fill="#181818" points="134.13,403.4611,141.7975,397.2797,136.4126,399.0125,134.6798,393.6276,134.13,403.4611" style="stroke:#181818;stroke-width:1.0;"/><text fill="#000000" font-family="sans-serif" font-size="13" lengthAdjust="spacing" textLength="45.519" x="173" y="341.6494">Queries</text></g><!--link HTTPServer to Ninja--><g id="link_HTTPServer_Ninja"><path d="M214.45,294.8111 C229.91,324.2211 253.3181,368.7602 268.7681,398.1502 " fill="none" id="HTTPServer-to-Ninja" style="stroke:#181818;stroke-width:1.0;"/><polygon fill="#181818" points="271.56,403.4611,270.9128,393.6335,269.2334,399.0354,263.8316,397.356,271.56,403.4611" style="stroke:#181818;stroke-width:1.0;"/><text fill="#000000" font-family="sans-serif" font-size="13" lengthAdjust="spacing" textLength="34.6709" x="241" y="341.6494">REST</text></g><!--SRC=[NOy_JyCm4CLtVufJ6PWYXcmPa4XI15A4KXBH0J5SaXCrTUtgx58Yn7SdjYE8kbZttlFl_jYzr4TaF80s0y6t0CYntx-pEUcXCCemt4yFgkrEElAfuO4u9bTfceeV8PnqYg3UZLRsgE15qXaIg6J7o2EKT5HcF91sGeGXgqB9IQq0BSGop7tDsPmjyPltvzftZyoMEcY8Fua3vsM07jgsdeC0UXtbFrkYmmujGONZp9Tvn9jDjQGdwR6PMtyvOZrTT5S_se3zEG5-ale3VHZOe3nz3ONHcdedZRPYlWIIv1OMsq4Mn4rmnCBt__nM6MnEn9BiPHYdPl2yRbgOTlq5]--></g></svg>