<?plantuml 1.2026.2?><svg xmlns="http://www.w3.org/2000/svg" xmlns:xlink="http://www.w3.org/1999/xlink" contentStyleType="text/css" data-diagram-type="SEQUENCE" height="2203px" preserveAspectRatio="none" style="width:1245px;height:2203px;background:#FFFFFF;" version="1.1" viewBox="0 0 1245 2203" width="1245px" zoomAndPan="magnify"><title>User Registration (Level 3) &#8212; VendNet</title><defs/><g><text fill="#000000" font-family="sans-serif" font-size="14" font-weight="bold" lengthAdjust="spacing" textLength="276.1719" x="480.7571" y="28.5352">User Registration (Level 3) &#8212; VendNet</text><rect fill="#ADD8E6" height="2154.3984" style="stroke:#181818;stroke-width:0.5;" width="130.084" x="244.7129" y="43.4883"/><text fill="#000000" font-family="sans-serif" font-size="13" font-weight="bold" lengthAdjust="spacing" textLength="124.084" x="247.7129" y="56.0566">Interface Adapters</text><rect fill="#FFFFE0" height="2154.3984" style="stroke:#181818;stroke-width:0.5;" width="181.5303" x="441.8125" y="43.4883"/><text fill="#000000" font-family="sans-serif" font-size="13" font-weight="bold" lengthAdjust="spacing" textLength="135.2178" x="464.9688" y="56.0566">Application Services</text><rect fill="#90EE90" height="2154.3984" style="stroke:#181818;stroke-width:0.5;" width="118.9385" x="630.1597" y="43.4883"/><text fill="#000000" font-family="sans-serif" font-size="13" font-weight="bold" lengthAdjust="spacing" textLength="51.6255" x="663.8162" y="56.0566">Domain</text><rect fill="#F08080" height="2154.3984" style="stroke:#181818;stroke-width:0.5;" width="257.0596" x="807.2778" y="43.4883"/><text fill="#000000" font-family="sans-serif" font-size="13" font-weight="bold" lengthAdjust="spacing" textLength="93.1074" x="889.2539" y="56.0566">Infrastructure</text><g><title>UserController</title><rect fill="#FFFFFF" height="1912.1797" style="stroke:#181818;stroke-width:1;" width="10" x="304.7549" y="196.2188"/></g><g><title>UserRegistrationService</title><rect fill="#FFFFFF" height="1464.9902" style="stroke:#181818;stroke-width:1;" width="10" x="527.5776" y="465.9453"/></g><g><title>User Aggregate</title><rect fill="#FFFFFF" height="329.1055" style="stroke:#181818;stroke-width:1;" width="10" x="684.6289" y="972.1563"/></g><g><title>UserRepository</title><rect fill="#FFFFFF" height="118.5527" style="stroke:#181818;stroke-width:1;" width="10" x="864.5234" y="553.877"/></g><g><title>UserRepository</title><rect fill="#FFFFFF" height="118.5527" style="stroke:#181818;stroke-width:1;" width="10" x="864.5234" y="726.0508"/></g><g><title>UserRepository</title><rect fill="#FFFFFF" height="149.1738" style="stroke:#181818;stroke-width:1;" width="10" x="864.5234" y="1373.8828"/></g><g><title>AuditRepository</title><rect fill="#FFFFFF" height="44.6211" style="stroke:#181818;stroke-width:1;" width="10" x="994.0532" y="1641.6094"/></g><g><title>MySQL Database</title><rect fill="#FFFFFF" height="29.3105" style="stroke:#181818;stroke-width:1;" width="10" x="1124.5117" y="613.8086"/></g><g><title>MySQL Database</title><rect fill="#FFFFFF" height="29.3105" style="stroke:#181818;stroke-width:1;" width="10" x="1124.5117" y="785.9824"/></g><g><title>MySQL Database</title><rect fill="#FFFFFF" height="29.3105" style="stroke:#181818;stroke-width:1;" width="10" x="1124.5117" y="1464.4355"/></g><rect fill="none" height="1832.5586" style="stroke:#000000;stroke-width:1.5;" width="1218.686" x="10" y="268.8398"/><rect fill="none" height="1622.8086" style="stroke:#000000;stroke-width:1.5;" width="1198.686" x="20" y="427.3242"/><rect fill="none" height="1296.127" style="stroke:#000000;stroke-width:1.5;" width="1178.686" x="30" y="687.4297"/><rect fill="none" height="1028.0664" style="stroke:#000000;stroke-width:1.5;" width="1158.686" x="40" y="859.6035"/><g class="participant-lifeline" data-entity-uid="part1" data-qualified-name="Admin" id="part1-lifeline"><g><title>Administrator</title><rect fill="#000000" fill-opacity="0.00000" height="1999.4219" width="8" x="95.8604" y="118.9766"/><line style="stroke:#181818;stroke-width:0.5;stroke-dasharray:5,5;" x1="99" x2="99" y1="118.9766" y2="2118.3984"/></g></g><g class="participant-lifeline" data-entity-uid="part2" data-qualified-name="Controller" id="part2-lifeline"><g><title>UserController</title><rect fill="#000000" fill-opacity="0.00000" height="1999.4219" width="8" x="305.7549" y="118.9766"/><line style="stroke:#181818;stroke-width:0.5;stroke-dasharray:5,5;" x1="309.4917" x2="309.4917" y1="118.9766" y2="2118.3984"/></g></g><g class="participant-lifeline" data-entity-uid="part3" data-qualified-name="RegService" id="part3-lifeline"><g><title>UserRegistrationService</title><rect fill="#000000" fill-opacity="0.00000" height="1999.4219" width="8" x="528.5776" y="118.9766"/><line style="stroke:#181818;stroke-width:0.5;stroke-dasharray:5,5;" x1="531.8125" x2="531.8125" y1="118.9766" y2="2118.3984"/></g></g><g class="participant-lifeline" data-entity-uid="part4" data-qualified-name="UserEntity" id="part4-lifeline"><g><title>User Aggregate</title><rect fill="#000000" fill-opacity="0.00000" height="1999.4219" width="8" x="685.6289" y="118.9766"/><line style="stroke:#181818;stroke-width:0.5;stroke-dasharray:5,5;" x1="689.1597" x2="689.1597" y1="118.9766" y2="2118.3984"/></g></g><g class="participant-lifeline" data-entity-uid="part5" data-qualified-name="UserRepo" id="part5-lifeline"><g><title>UserRepository</title><rect fill="#000000" fill-opacity="0.00000" height="1999.4219" width="8" x="865.5234" y="118.9766"/><line style="stroke:#181818;stroke-width:0.5;stroke-dasharray:5,5;" x1="869.2778" x2="869.2778" y1="118.9766" y2="2118.3984"/></g></g><g class="participant-lifeline" data-entity-uid="part6" data-qualified-name="AuditRepo" id="part6-lifeline"><g><title>AuditRepository</title><rect fill="#000000" fill-opacity="0.00000" height="1999.4219" width="8" x="995.0532" y="118.9766"/><line style="stroke:#181818;stroke-width:0.5;stroke-dasharray:5,5;" x1="998.769" x2="998.769" y1="118.9766" y2="2118.3984"/></g></g><g class="participant-lifeline" data-entity-uid="part7" data-qualified-name="DB" id="part7-lifeline"><g><title>MySQL Database</title><rect fill="#000000" fill-opacity="0.00000" height="1999.4219" width="8" x="1125.5117" y="118.9766"/><line style="stroke:#181818;stroke-width:0.5;stroke-dasharray:5,5;" x1="1129.3374" x2="1129.3374" y1="118.9766" y2="2118.3984"/></g></g><g class="participant participant-head" data-entity-uid="part1" data-qualified-name="Admin" id="part1-head"><text fill="#000000" font-family="sans-serif" font-size="14" lengthAdjust="spacing" textLength="93.7207" x="50" y="116.0234">Administrator</text><ellipse cx="99.8604" cy="50.9883" fill="#E2E2F0" rx="8" ry="8" style="stroke:#181818;stroke-width:0.5;"/><path d="M99.8604,58.9883 L99.8604,85.9883 M86.8604,66.9883 L112.8604,66.9883 M99.8604,85.9883 L86.8604,100.9883 M99.8604,85.9883 L112.8604,100.9883" fill="none" style="stroke:#181818;stroke-width:0.5;"/></g><g class="participant participant-tail" data-entity-uid="part1" data-qualified-name="Admin" id="part1-tail"><text fill="#000000" font-family="sans-serif" font-size="14" lengthAdjust="spacing" textLength="93.7207" x="50" y="2130.9336">Administrator</text><ellipse cx="99.8604" cy="2142.3867" fill="#E2E2F0" rx="8" ry="8" style="stroke:#181818;stroke-width:0.5;"/><path d="M99.8604,2150.3867 L99.8604,2177.3867 M86.8604,2158.3867 L112.8604,2158.3867 M99.8604,2177.3867 L86.8604,2192.3867 M99.8604,2177.3867 L112.8604,2192.3867" fill="none" style="stroke:#181818;stroke-width:0.5;"/></g><g class="participant participant-head" data-entity-uid="part2" data-qualified-name="Controller" id="part2-head"><rect fill="#E2E2F0" height="30.4883" rx="2.5" ry="2.5" style="stroke:#181818;stroke-width:0.5;" width="112.5264" x="253.4917" y="87.4883"/><text fill="#000000" font-family="sans-serif" font-size="14" lengthAdjust="spacing" textLength="98.5264" x="260.4917" y="108.0234">UserController</text></g><g class="participant participant-tail" data-entity-uid="part2" data-qualified-name="Controller" id="part2-tail"><rect fill="#E2E2F0" height="30.4883" rx="2.5" ry="2.5" style="stroke:#181818;stroke-width:0.5;" width="112.5264" x="253.4917" y="2117.3984"/><text fill="#000000" font-family="sans-serif" font-size="14" lengthAdjust="spacing" textLength="98.5264" x="260.4917" y="2137.9336">UserController</text></g><g class="participant participant-head" data-entity-uid="part3" data-qualified-name="RegService" id="part3-head"><rect fill="#E2E2F0" height="30.4883" rx="2.5" ry="2.5" style="stroke:#181818;stroke-width:0.5;" width="173.5303" x="445.8125" y="87.4883"/><text fill="#000000" font-family="sans-serif" font-size="14" lengthAdjust="spacing" textLength="159.5303" x="452.8125" y="108.0234">UserRegistrationService</text></g><g class="participant participant-tail" data-entity-uid="part3" data-qualified-name="RegService" id="part3-tail"><rect fill="#E2E2F0" height="30.4883" rx="2.5" ry="2.5" style="stroke:#181818;stroke-width:0.5;" width="173.5303" x="445.8125" y="2117.3984"/><text fill="#000000" font-family="sans-serif" font-size="14" lengthAdjust="spacing" textLength="159.5303" x="452.8125" y="2137.9336">UserRegistrationService</text></g><g class="participant participant-head" data-entity-uid="part4" data-qualified-name="UserEntity" id="part4-head"><text fill="#000000" font-family="sans-serif" font-size="14" lengthAdjust="spacing" textLength="104.9385" x="634.1597" y="116.0234">User Aggregate</text><ellipse cx="689.6289" cy="86.4883" fill="#E2E2F0" rx="12" ry="12" style="stroke:#181818;stroke-width:0.5;"/><line style="stroke:#181818;stroke-width:0.5;" x1="677.6289" x2="701.6289" y1="100.4883" y2="100.4883"/></g><g class="participant participant-tail" data-entity-uid="part4" data-qualified-name="UserEntity" id="part4-tail"><text fill="#000000" font-family="sans-serif" font-size="14" lengthAdjust="spacing" textLength="104.9385" x="634.1597" y="2130.9336">User Aggregate</text><ellipse cx="689.6289" cy="2149.8867" fill="#E2E2F0" rx="12" ry="12" style="stroke:#181818;stroke-width:0.5;"/><line style="stroke:#181818;stroke-width:0.5;" x1="677.6289" x2="701.6289" y1="2163.8867" y2="2163.8867"/></g><g class="participant participant-head" data-entity-uid="part5" data-qualified-name="UserRepo" id="part5-head"><rect fill="#E2E2F0" height="30.4883" rx="2.5" ry="2.5" style="stroke:#181818;stroke-width:0.5;" width="116.4912" x="811.2778" y="87.4883"/><text fill="#000000" font-family="sans-serif" font-size="14" lengthAdjust="spacing" textLength="102.4912" x="818.2778" y="108.0234">UserRepository</text></g><g class="participant participant-tail" data-entity-uid="part5" data-qualified-name="UserRepo" id="part5-tail"><rect fill="#E2E2F0" height="30.4883" rx="2.5" ry="2.5" style="stroke:#181818;stroke-width:0.5;" width="116.4912" x="811.2778" y="2117.3984"/><text fill="#000000" font-family="sans-serif" font-size="14" lengthAdjust="spacing" textLength="102.4912" x="818.2778" y="2137.9336">UserRepository</text></g><g class="participant participant-head" data-entity-uid="part6" data-qualified-name="AuditRepo" id="part6-head"><rect fill="#E2E2F0" height="30.4883" rx="2.5" ry="2.5" style="stroke:#181818;stroke-width:0.5;" width="122.5684" x="937.769" y="87.4883"/><text fill="#000000" font-family="sans-serif" font-size="14" lengthAdjust="spacing" textLength="108.5684" x="944.769" y="108.0234">AuditRepository</text></g><g class="participant participant-tail" data-entity-uid="part6" data-qualified-name="AuditRepo" id="part6-tail"><rect fill="#E2E2F0" height="30.4883" rx="2.5" ry="2.5" style="stroke:#181818;stroke-width:0.5;" width="122.5684" x="937.769" y="2117.3984"/><text fill="#000000" font-family="sans-serif" font-size="14" lengthAdjust="spacing" textLength="108.5684" x="944.769" y="2137.9336">AuditRepository</text></g><g class="participant participant-head" data-entity-uid="part7" data-qualified-name="DB" id="part7-head"><text fill="#000000" font-family="sans-serif" font-size="14" lengthAdjust="spacing" textLength="112.3486" x="1070.3374" y="116.0234">MySQL Database</text><path d="M1111.5117,66.4883 C1111.5117,56.4883 1129.5117,56.4883 1129.5117,56.4883 C1129.5117,56.4883 1147.5117,56.4883 1147.5117,66.4883 L1147.5117,92.4883 C1147.5117,102.4883 1129.5117,102.4883 1129.5117,102.4883 C1129.5117,102.4883 1111.5117,102.4883 1111.5117,92.4883 L1111.5117,66.4883" fill="#E2E2F0" style="stroke:#181818;stroke-width:0.5;"/><path d="M1111.5117,66.4883 C1111.5117,76.4883 1129.5117,76.4883 1129.5117,76.4883 C1129.5117,76.4883 1147.5117,76.4883 1147.5117,66.4883" fill="none" style="stroke:#181818;stroke-width:0.5;"/></g><g class="participant participant-tail" data-entity-uid="part7" data-qualified-name="DB" id="part7-tail"><text fill="#000000" font-family="sans-serif" font-size="14" lengthAdjust="spacing" textLength="112.3486" x="1070.3374" y="2130.9336">MySQL Database</text><path d="M1111.5117,2143.8867 C1111.5117,2133.8867 1129.5117,2133.8867 1129.5117,2133.8867 C1129.5117,2133.8867 1147.5117,2133.8867 1147.5117,2143.8867 L1147.5117,2169.8867 C1147.5117,2179.8867 1129.5117,2179.8867 1129.5117,2179.8867 C1129.5117,2179.8867 1111.5117,2179.8867 1111.5117,2169.8867 L1111.5117,2143.8867" fill="#E2E2F0" style="stroke:#181818;stroke-width:0.5;"/><path d="M1111.5117,2143.8867 C1111.5117,2153.8867 1129.5117,2153.8867 1129.5117,2153.8867 C1129.5117,2153.8867 1147.5117,2153.8867 1147.5117,2143.8867" fill="none" style="stroke:#181818;stroke-width:0.5;"/></g><g><title>UserController</title><rect fill="#FFFFFF" height="1912.1797" style="stroke:#181818;stroke-width:1;" width="10" x="304.7549" y="196.2188"/></g><g><title>UserRegistrationService</title><rect fill="#FFFFFF" height="1464.9902" style="stroke:#181818;stroke-width:1;" width="10" x="527.5776" y="465.9453"/></g><g><title>User Aggregate</title><rect fill="#FFFFFF" height="329.1055" style="stroke:#181818;stroke-width:1;" width="10" x="684.6289" y="972.1563"/></g><g><title>UserRepository</title><rect fill="#FFFFFF" height="118.5527" style="stroke:#181818;stroke-width:1;" width="10" x="864.5234" y="553.877"/></g><g><title>UserRepository</title><rect fill="#FFFFFF" height="118.5527" style="stroke:#181818;stroke-width:1;" width="10" x="864.5234" y="726.0508"/></g><g><title>UserRepository</title><rect fill="#FFFFFF" height="149.1738" style="stroke:#181818;stroke-width:1;" width="10" x="864.5234" y="1373.8828"/></g><g><title>AuditRepository</title><rect fill="#FFFFFF" height="44.6211" style="stroke:#181818;stroke-width:1;" width="10" x="994.0532" y="1641.6094"/></g><g><title>MySQL Database</title><rect fill="#FFFFFF" height="29.3105" style="stroke:#181818;stroke-width:1;" width="10" x="1124.5117" y="613.8086"/></g><g><title>MySQL Database</title><rect fill="#FFFFFF" height="29.3105" style="stroke:#181818;stroke-width:1;" width="10" x="1124.5117" y="785.9824"/></g><g><title>MySQL Database</title><rect fill="#FFFFFF" height="29.3105" style="stroke:#181818;stroke-width:1;" width="10" x="1124.5117" y="1464.4355"/></g><g class="message" data-entity-1="part1" data-entity-2="part2" id="msg1"><polygon fill="#181818" points="292.7549,192.2188,302.7549,196.2188,292.7549,200.2188,296.7549,196.2188" style="stroke:#181818;stroke-width:1;"/><line style="stroke:#181818;stroke-width:1;" x1="99.8604" x2="298.7549" y1="196.2188" y2="196.2188"/><text fill="#000000" font-family="sans-serif" font-size="13" lengthAdjust="spacing" textLength="123.4619" x="106.8604" y="145.5449">POST /admin/users</text><text fill="#000000" font-family="sans-serif" font-size="13" lengthAdjust="spacing" textLength="180.8701" x="106.8604" y="160.8555">{username, email, password,</text><text fill="#000000" font-family="sans-serif" font-size="13" lengthAdjust="spacing" textLength="93.2852" x="106.8604" y="176.166">fullName, role}</text><text fill="#000000" font-family="sans-serif" font-size="13" lengthAdjust="spacing" textLength="170.2949" x="106.8604" y="191.4766">(Authorization: Bearer JWT)</text></g><g class="message" data-entity-1="part2" data-entity-2="part2" id="msg2"><line style="stroke:#181818;stroke-width:1;" x1="314.7549" x2="356.7549" y1="240.8398" y2="240.8398"/><line style="stroke:#181818;stroke-width:1;" x1="356.7549" x2="356.7549" y1="240.8398" y2="253.8398"/><line style="stroke:#181818;stroke-width:1;" x1="315.7549" x2="356.7549" y1="253.8398" y2="253.8398"/><polygon fill="#181818" points="325.7549,249.8398,315.7549,253.8398,325.7549,257.8398,321.7549,253.8398" style="stroke:#181818;stroke-width:1;"/><text fill="#000000" font-family="sans-serif" font-size="13" lengthAdjust="spacing" textLength="91.3364" x="321.7549" y="220.7871">Validate JWT &amp;</text><text fill="#000000" font-family="sans-serif" font-size="13" lengthAdjust="spacing" textLength="112.1758" x="321.7549" y="236.0977">Verify ADMIN role</text></g><path d="M10,268.8398 L72.1387,268.8398 L72.1387,276.1504 L62.1387,286.1504 L10,286.1504 L10,268.8398" fill="#EEEEEE" style="stroke:#000000;stroke-width:1.5;"/><rect fill="none" height="1832.5586" style="stroke:#000000;stroke-width:1.5;" width="1218.686" x="10" y="268.8398"/><text fill="#000000" font-family="sans-serif" font-size="13" font-weight="bold" lengthAdjust="spacing" textLength="17.1387" x="25" y="282.4082">alt</text><text fill="#000000" font-family="sans-serif" font-size="11" font-weight="bold" lengthAdjust="spacing" textLength="179.126" x="87.1387" y="281.4746">[Authorized (ADMINISTRATOR)]</text><g class="message" data-entity-1="part2" data-entity-2="part2" id="msg3"><line style="stroke:#181818;stroke-width:1;" x1="314.7549" x2="356.7549" y1="399.3242" y2="399.3242"/><line style="stroke:#181818;stroke-width:1;" x1="356.7549" x2="356.7549" y1="399.3242" y2="412.3242"/><line style="stroke:#181818;stroke-width:1;" x1="315.7549" x2="356.7549" y1="412.3242" y2="412.3242"/><polygon fill="#181818" points="325.7549,408.3242,315.7549,412.3242,325.7549,416.3242,321.7549,412.3242" style="stroke:#181818;stroke-width:1;"/><text fill="#000000" font-family="sans-serif" font-size="13" lengthAdjust="spacing" textLength="50.6606" x="321.7549" y="302.7188">Validate</text><text fill="#000000" font-family="sans-serif" font-size="13" lengthAdjust="spacing" textLength="151.6519" x="321.7549" y="318.0293">CreateUserRequest DTO</text><text fill="#000000" font-family="sans-serif" font-size="13" lengthAdjust="spacing" textLength="177.3853" x="321.7549" y="333.3398">(username: 3-30 alphanum,</text><text fill="#000000" font-family="sans-serif" font-size="13" lengthAdjust="spacing" textLength="107.5928" x="321.7549" y="348.6504">email: RFC 5322,</text><text fill="#000000" font-family="sans-serif" font-size="13" lengthAdjust="spacing" textLength="150.8267" x="321.7549" y="363.9609">password: min 12 chars</text><text fill="#000000" font-family="sans-serif" font-size="13" lengthAdjust="spacing" textLength="123.0366" x="321.7549" y="379.2715">+ complexity rules,</text><text fill="#000000" font-family="sans-serif" font-size="13" lengthAdjust="spacing" textLength="113.4834" x="321.7549" y="394.582">role &#8712; valid enum)</text></g><path d="M20,427.3242 L82.1387,427.3242 L82.1387,434.6348 L72.1387,444.6348 L20,444.6348 L20,427.3242" fill="#EEEEEE" style="stroke:#000000;stroke-width:1.5;"/><rect fill="none" height="1622.8086" style="stroke:#000000;stroke-width:1.5;" width="1198.686" x="20" y="427.3242"/><text fill="#000000" font-family="sans-serif" font-size="13" font-weight="bold" lengthAdjust="spacing" textLength="17.1387" x="35" y="440.8926">alt</text><text fill="#000000" font-family="sans-serif" font-size="11" font-weight="bold" lengthAdjust="spacing" textLength="70.2163" x="97.1387" y="439.959">[Input Valid]</text><g class="message" data-entity-1="part2" data-entity-2="part3" id="msg4"><polygon fill="#181818" points="515.5776,461.9453,525.5776,465.9453,515.5776,469.9453,519.5776,465.9453" style="stroke:#181818;stroke-width:1;"/><line style="stroke:#181818;stroke-width:1;" x1="314.7549" x2="521.5776" y1="465.9453" y2="465.9453"/><text fill="#000000" font-family="sans-serif" font-size="13" lengthAdjust="spacing" textLength="132.6724" x="321.7549" y="461.2031">registerUser(request)</text></g><rect fill="#EEEEEE" height="3" style="stroke:#EEEEEE;stroke-width:1;" width="1238.686" x="0" y="494.6006"/><line style="stroke:#000000;stroke-width:1;" x1="0" x2="1238.686" y1="494.6006" y2="494.6006"/><line style="stroke:#000000;stroke-width:1;" x1="0" x2="1238.686" y1="497.6006" y2="497.6006"/><rect fill="#EEEEEE" height="23.3105" style="stroke:#000000;stroke-width:2;" width="148.4434" x="545.1213" y="483.9453"/><text fill="#000000" font-family="sans-serif" font-size="13" font-weight="bold" lengthAdjust="spacing" textLength="130.1587" x="551.1213" y="500.5137">Uniqueness Checks</text><g class="message" data-entity-1="part3" data-entity-2="part5" id="msg5"><polygon fill="#181818" points="852.5234,549.877,862.5234,553.877,852.5234,557.877,856.5234,553.877" style="stroke:#181818;stroke-width:1;"/><line style="stroke:#181818;stroke-width:1;" x1="537.5776" x2="858.5234" y1="553.877" y2="553.877"/><text fill="#000000" font-family="sans-serif" font-size="13" lengthAdjust="spacing" textLength="114.1816" x="544.5776" y="533.8242">existsByUsername</text><text fill="#000000" font-family="sans-serif" font-size="13" lengthAdjust="spacing" textLength="70.3384" x="544.5776" y="549.1348">(username)</text></g><g class="message" data-entity-1="part5" data-entity-2="part7" id="msg6"><polygon fill="#181818" points="1112.5117,609.8086,1122.5117,613.8086,1112.5117,617.8086,1116.5117,613.8086" style="stroke:#181818;stroke-width:1;"/><line style="stroke:#181818;stroke-width:1;" x1="874.5234" x2="1118.5117" y1="613.8086" y2="613.8086"/><text fill="#000000" font-family="sans-serif" font-size="13" lengthAdjust="spacing" textLength="109.9985" x="881.5234" y="578.4453">SELECT COUNT(*)</text><text fill="#000000" font-family="sans-serif" font-size="13" lengthAdjust="spacing" textLength="74.4834" x="881.5234" y="593.7559">FROM users</text><text fill="#000000" font-family="sans-serif" font-size="13" lengthAdjust="spacing" textLength="133.0278" x="881.5234" y="609.0664">WHERE username = ?</text></g><g class="message" data-entity-1="part7" data-entity-2="part5" id="msg7"><polygon fill="#181818" points="885.5234,639.1191,875.5234,643.1191,885.5234,647.1191,881.5234,643.1191" style="stroke:#181818;stroke-width:1;"/><line style="stroke:#181818;stroke-width:1;stroke-dasharray:2,2;" x1="879.5234" x2="1128.5117" y1="643.1191" y2="643.1191"/><text fill="#000000" font-family="sans-serif" font-size="13" lengthAdjust="spacing" textLength="35.6421" x="891.5234" y="638.377">count</text></g><g class="message" data-entity-1="part5" data-entity-2="part3" id="msg8"><polygon fill="#181818" points="548.5776,668.4297,538.5776,672.4297,548.5776,676.4297,544.5776,672.4297" style="stroke:#181818;stroke-width:1;"/><line style="stroke:#181818;stroke-width:1;stroke-dasharray:2,2;" x1="542.5776" x2="868.5234" y1="672.4297" y2="672.4297"/><text fill="#000000" font-family="sans-serif" font-size="13" lengthAdjust="spacing" textLength="50.4004" x="554.5776" y="667.6875">boolean</text></g><path d="M30,687.4297 L92.1387,687.4297 L92.1387,694.7402 L82.1387,704.7402 L30,704.7402 L30,687.4297" fill="#EEEEEE" style="stroke:#000000;stroke-width:1.5;"/><rect fill="none" height="1296.127" style="stroke:#000000;stroke-width:1.5;" width="1178.686" x="30" y="687.4297"/><text fill="#000000" font-family="sans-serif" font-size="13" font-weight="bold" lengthAdjust="spacing" textLength="17.1387" x="45" y="700.998">alt</text><text fill="#000000" font-family="sans-serif" font-size="11" font-weight="bold" lengthAdjust="spacing" textLength="120.3716" x="107.1387" y="700.0645">[Username Available]</text><g class="message" data-entity-1="part3" data-entity-2="part5" id="msg9"><polygon fill="#181818" points="852.5234,722.0508,862.5234,726.0508,852.5234,730.0508,856.5234,726.0508" style="stroke:#181818;stroke-width:1;"/><line style="stroke:#181818;stroke-width:1;" x1="537.5776" x2="858.5234" y1="726.0508" y2="726.0508"/><text fill="#000000" font-family="sans-serif" font-size="13" lengthAdjust="spacing" textLength="127.7656" x="544.5776" y="721.3086">existsByEmail(email)</text></g><g class="message" data-entity-1="part5" data-entity-2="part7" id="msg10"><polygon fill="#181818" points="1112.5117,781.9824,1122.5117,785.9824,1112.5117,789.9824,1116.5117,785.9824" style="stroke:#181818;stroke-width:1;"/><line style="stroke:#181818;stroke-width:1;" x1="874.5234" x2="1118.5117" y1="785.9824" y2="785.9824"/><text fill="#000000" font-family="sans-serif" font-size="13" lengthAdjust="spacing" textLength="109.9985" x="881.5234" y="750.6191">SELECT COUNT(*)</text><text fill="#000000" font-family="sans-serif" font-size="13" lengthAdjust="spacing" textLength="74.4834" x="881.5234" y="765.9297">FROM users</text><text fill="#000000" font-family="sans-serif" font-size="13" lengthAdjust="spacing" textLength="105.2188" x="881.5234" y="781.2402">WHERE email = ?</text></g><g class="message" data-entity-1="part7" data-entity-2="part5" id="msg11"><polygon fill="#181818" points="885.5234,811.293,875.5234,815.293,885.5234,819.293,881.5234,815.293" style="stroke:#181818;stroke-width:1;"/><line style="stroke:#181818;stroke-width:1;stroke-dasharray:2,2;" x1="879.5234" x2="1128.5117" y1="815.293" y2="815.293"/><text fill="#000000" font-family="sans-serif" font-size="13" lengthAdjust="spacing" textLength="35.6421" x="891.5234" y="810.5508">count</text></g><g class="message" data-entity-1="part5" data-entity-2="part3" id="msg12"><polygon fill="#181818" points="548.5776,840.6035,538.5776,844.6035,548.5776,848.6035,544.5776,844.6035" style="stroke:#181818;stroke-width:1;"/><line style="stroke:#181818;stroke-width:1;stroke-dasharray:2,2;" x1="542.5776" x2="868.5234" y1="844.6035" y2="844.6035"/><text fill="#000000" font-family="sans-serif" font-size="13" lengthAdjust="spacing" textLength="50.4004" x="554.5776" y="839.8613">boolean</text></g><path d="M40,859.6035 L102.1387,859.6035 L102.1387,866.9141 L92.1387,876.9141 L40,876.9141 L40,859.6035" fill="#EEEEEE" style="stroke:#000000;stroke-width:1.5;"/><rect fill="none" height="1028.0664" style="stroke:#000000;stroke-width:1.5;" width="1158.686" x="40" y="859.6035"/><text fill="#000000" font-family="sans-serif" font-size="13" font-weight="bold" lengthAdjust="spacing" textLength="17.1387" x="55" y="873.1719">alt</text><text fill="#000000" font-family="sans-serif" font-size="11" font-weight="bold" lengthAdjust="spacing" textLength="94.6978" x="117.1387" y="872.2383">[Email Available]</text><rect fill="#EEEEEE" height="3" style="stroke:#EEEEEE;stroke-width:1;" width="1238.686" x="0" y="897.5693"/><line style="stroke:#000000;stroke-width:1;" x1="0" x2="1238.686" y1="897.5693" y2="897.5693"/><line style="stroke:#000000;stroke-width:1;" x1="0" x2="1238.686" y1="900.5693" y2="900.5693"/><rect fill="#EEEEEE" height="23.3105" style="stroke:#000000;stroke-width:2;" width="178.6963" x="529.9949" y="886.9141"/><text fill="#000000" font-family="sans-serif" font-size="13" font-weight="bold" lengthAdjust="spacing" textLength="160.4116" x="535.9949" y="903.4824">Domain Object Creation</text><g class="message" data-entity-1="part3" data-entity-2="part4" id="msg13"><polygon fill="#181818" points="672.6289,968.1563,682.6289,972.1563,672.6289,976.1563,676.6289,972.1563" style="stroke:#181818;stroke-width:1;"/><line style="stroke:#181818;stroke-width:1;" x1="537.5776" x2="678.6289" y1="972.1563" y2="972.1563"/><text fill="#000000" font-family="sans-serif" font-size="13" lengthAdjust="spacing" textLength="108.729" x="544.5776" y="936.793">create(username,</text><text fill="#000000" font-family="sans-serif" font-size="13" lengthAdjust="spacing" textLength="128.0513" x="544.5776" y="952.1035">email, rawPassword,</text><text fill="#000000" font-family="sans-serif" font-size="13" lengthAdjust="spacing" textLength="93.2852" x="544.5776" y="967.4141">fullName, role)</text></g><g class="message" data-entity-1="part4" data-entity-2="part4" id="msg14"><line style="stroke:#181818;stroke-width:1;" x1="694.6289" x2="736.6289" y1="1016.7773" y2="1016.7773"/><line style="stroke:#181818;stroke-width:1;" x1="736.6289" x2="736.6289" y1="1016.7773" y2="1029.7773"/><line style="stroke:#181818;stroke-width:1;" x1="695.6289" x2="736.6289" y1="1029.7773" y2="1029.7773"/><polygon fill="#181818" points="705.6289,1025.7773,695.6289,1029.7773,705.6289,1033.7773,701.6289,1029.7773" style="stroke:#181818;stroke-width:1;"/><text fill="#000000" font-family="sans-serif" font-size="13" lengthAdjust="spacing" textLength="116.6572" x="701.6289" y="996.7246">Validate username</text><text fill="#000000" font-family="sans-serif" font-size="13" lengthAdjust="spacing" textLength="130.3682" x="701.6289" y="1012.0352">(3-30 alphanumeric)</text></g><g class="message" data-entity-1="part4" data-entity-2="part4" id="msg15"><line style="stroke:#181818;stroke-width:1;" x1="694.6289" x2="736.6289" y1="1074.3984" y2="1074.3984"/><line style="stroke:#181818;stroke-width:1;" x1="736.6289" x2="736.6289" y1="1074.3984" y2="1087.3984"/><line style="stroke:#181818;stroke-width:1;" x1="695.6289" x2="736.6289" y1="1087.3984" y2="1087.3984"/><polygon fill="#181818" points="705.6289,1083.3984,695.6289,1087.3984,705.6289,1091.3984,701.6289,1087.3984" style="stroke:#181818;stroke-width:1;"/><text fill="#000000" font-family="sans-serif" font-size="13" lengthAdjust="spacing" textLength="88.8481" x="701.6289" y="1054.3457">Validate email</text><text fill="#000000" font-family="sans-serif" font-size="13" lengthAdjust="spacing" textLength="116.0098" x="701.6289" y="1069.6563">(RFC 5322 format)</text></g><g class="message" data-entity-1="part4" data-entity-2="part4" id="msg16"><line style="stroke:#181818;stroke-width:1;" x1="694.6289" x2="736.6289" y1="1132.0195" y2="1132.0195"/><line style="stroke:#181818;stroke-width:1;" x1="736.6289" x2="736.6289" y1="1132.0195" y2="1145.0195"/><line style="stroke:#181818;stroke-width:1;" x1="695.6289" x2="736.6289" y1="1145.0195" y2="1145.0195"/><polygon fill="#181818" points="705.6289,1141.0195,695.6289,1145.0195,705.6289,1149.0195,701.6289,1145.0195" style="stroke:#181818;stroke-width:1;"/><text fill="#000000" font-family="sans-serif" font-size="13" lengthAdjust="spacing" textLength="95.6592" x="701.6289" y="1111.9668">Hash password</text><text fill="#000000" font-family="sans-serif" font-size="13" lengthAdjust="spacing" textLength="145.8945" x="701.6289" y="1127.2773">(BCrypt, cost factor 12)</text></g><g class="message" data-entity-1="part4" data-entity-2="part4" id="msg17"><line style="stroke:#181818;stroke-width:1;" x1="694.6289" x2="736.6289" y1="1174.3301" y2="1174.3301"/><line style="stroke:#181818;stroke-width:1;" x1="736.6289" x2="736.6289" y1="1174.3301" y2="1187.3301"/><line style="stroke:#181818;stroke-width:1;" x1="695.6289" x2="736.6289" y1="1187.3301" y2="1187.3301"/><polygon fill="#181818" points="705.6289,1183.3301,695.6289,1187.3301,705.6289,1191.3301,701.6289,1187.3301" style="stroke:#181818;stroke-width:1;"/><text fill="#000000" font-family="sans-serif" font-size="13" lengthAdjust="spacing" textLength="125.4805" x="701.6289" y="1169.5879">Set status = ACTIVE</text></g><g class="message" data-entity-1="part4" data-entity-2="part4" id="msg18"><line style="stroke:#181818;stroke-width:1;" x1="694.6289" x2="736.6289" y1="1216.6406" y2="1216.6406"/><line style="stroke:#181818;stroke-width:1;" x1="736.6289" x2="736.6289" y1="1216.6406" y2="1229.6406"/><line style="stroke:#181818;stroke-width:1;" x1="695.6289" x2="736.6289" y1="1229.6406" y2="1229.6406"/><polygon fill="#181818" points="705.6289,1225.6406,695.6289,1229.6406,705.6289,1233.6406,701.6289,1229.6406" style="stroke:#181818;stroke-width:1;"/><text fill="#000000" font-family="sans-serif" font-size="13" lengthAdjust="spacing" textLength="136.8237" x="701.6289" y="1211.8984">Set createdAt = now()</text></g><g class="message" data-entity-1="part4" data-entity-2="part4" id="msg19"><line style="stroke:#181818;stroke-width:1;" x1="694.6289" x2="736.6289" y1="1258.9512" y2="1258.9512"/><line style="stroke:#181818;stroke-width:1;" x1="736.6289" x2="736.6289" y1="1258.9512" y2="1271.9512"/><line style="stroke:#181818;stroke-width:1;" x1="695.6289" x2="736.6289" y1="1271.9512" y2="1271.9512"/><polygon fill="#181818" points="705.6289,1267.9512,695.6289,1271.9512,705.6289,1275.9512,701.6289,1271.9512" style="stroke:#181818;stroke-width:1;"/><text fill="#000000" font-family="sans-serif" font-size="13" lengthAdjust="spacing" textLength="92.1616" x="701.6289" y="1254.209">Generate UUID</text></g><g class="message" data-entity-1="part4" data-entity-2="part3" id="msg20"><polygon fill="#181818" points="548.5776,1297.2617,538.5776,1301.2617,548.5776,1305.2617,544.5776,1301.2617" style="stroke:#181818;stroke-width:1;"/><line style="stroke:#181818;stroke-width:1;stroke-dasharray:2,2;" x1="542.5776" x2="688.6289" y1="1301.2617" y2="1301.2617"/><text fill="#000000" font-family="sans-serif" font-size="13" lengthAdjust="spacing" textLength="95.6528" x="554.5776" y="1296.5195">User aggregate</text></g><rect fill="#EEEEEE" height="3" style="stroke:#EEEEEE;stroke-width:1;" width="1238.686" x="0" y="1329.917"/><line style="stroke:#000000;stroke-width:1;" x1="0" x2="1238.686" y1="1329.917" y2="1329.917"/><line style="stroke:#000000;stroke-width:1;" x1="0" x2="1238.686" y1="1332.917" y2="1332.917"/><rect fill="#EEEEEE" height="23.3105" style="stroke:#000000;stroke-width:2;" width="94.6724" x="572.0068" y="1319.2617"/><text fill="#000000" font-family="sans-serif" font-size="13" font-weight="bold" lengthAdjust="spacing" textLength="76.3877" x="578.0068" y="1335.8301">Persistence</text><g class="message" data-entity-1="part3" data-entity-2="part5" id="msg21"><polygon fill="#181818" points="852.5234,1369.8828,862.5234,1373.8828,852.5234,1377.8828,856.5234,1373.8828" style="stroke:#181818;stroke-width:1;"/><line style="stroke:#181818;stroke-width:1;" x1="537.5776" x2="858.5234" y1="1373.8828" y2="1373.8828"/><text fill="#000000" font-family="sans-serif" font-size="13" lengthAdjust="spacing" textLength="63.4893" x="544.5776" y="1369.1406">save(user)</text></g><g class="message" data-entity-1="part5" data-entity-2="part7" id="msg22"><polygon fill="#181818" points="1112.5117,1460.4355,1122.5117,1464.4355,1112.5117,1468.4355,1116.5117,1464.4355" style="stroke:#181818;stroke-width:1;"/><line style="stroke:#181818;stroke-width:1;" x1="874.5234" x2="1118.5117" y1="1464.4355" y2="1464.4355"/><text fill="#000000" font-family="sans-serif" font-size="13" lengthAdjust="spacing" textLength="117.6157" x="881.5234" y="1398.4512">INSERT INTO users</text><text fill="#000000" font-family="sans-serif" font-size="13" lengthAdjust="spacing" textLength="132.6914" x="881.5234" y="1413.7617">(id, username, email,</text><text fill="#000000" font-family="sans-serif" font-size="13" lengthAdjust="spacing" textLength="133.2056" x="881.5234" y="1429.0723">password_hash, role,</text><text fill="#000000" font-family="sans-serif" font-size="13" lengthAdjust="spacing" textLength="112.0552" x="881.5234" y="1444.3828">full_name, status,</text><text fill="#000000" font-family="sans-serif" font-size="13" lengthAdjust="spacing" textLength="69.4561" x="881.5234" y="1459.6934">created_at)</text></g><g class="message" data-entity-1="part7" data-entity-2="part5" id="msg23"><polygon fill="#181818" points="885.5234,1489.7461,875.5234,1493.7461,885.5234,1497.7461,881.5234,1493.7461" style="stroke:#181818;stroke-width:1;"/><line style="stroke:#181818;stroke-width:1;stroke-dasharray:2,2;" x1="879.5234" x2="1128.5117" y1="1493.7461" y2="1493.7461"/><text fill="#000000" font-family="sans-serif" font-size="13" lengthAdjust="spacing" textLength="40.5933" x="891.5234" y="1489.0039">Stored</text></g><g class="message" data-entity-1="part5" data-entity-2="part3" id="msg24"><polygon fill="#181818" points="548.5776,1519.0566,538.5776,1523.0566,548.5776,1527.0566,544.5776,1523.0566" style="stroke:#181818;stroke-width:1;"/><line style="stroke:#181818;stroke-width:1;stroke-dasharray:2,2;" x1="542.5776" x2="868.5234" y1="1523.0566" y2="1523.0566"/><text fill="#000000" font-family="sans-serif" font-size="13" lengthAdjust="spacing" textLength="68.6436" x="554.5776" y="1518.3145">Saved User</text></g><rect fill="#EEEEEE" height="3" style="stroke:#EEEEEE;stroke-width:1;" width="1238.686" x="0" y="1551.7119"/><line style="stroke:#000000;stroke-width:1;" x1="0" x2="1238.686" y1="1551.7119" y2="1551.7119"/><line style="stroke:#000000;stroke-width:1;" x1="0" x2="1238.686" y1="1554.7119" y2="1554.7119"/><rect fill="#EEEEEE" height="23.3105" style="stroke:#000000;stroke-width:2;" width="54.5044" x="592.0908" y="1541.0566"/><text fill="#000000" font-family="sans-serif" font-size="13" font-weight="bold" lengthAdjust="spacing" textLength="36.2197" x="598.0908" y="1557.625">Audit</text><g class="message" data-entity-1="part3" data-entity-2="part6" id="msg25"><polygon fill="#181818" points="982.0532,1637.6094,992.0532,1641.6094,982.0532,1645.6094,986.0532,1641.6094" style="stroke:#181818;stroke-width:1;"/><line style="stroke:#181818;stroke-width:1;" x1="537.5776" x2="988.0532" y1="1641.6094" y2="1641.6094"/><text fill="#000000" font-family="sans-serif" font-size="13" lengthAdjust="spacing" textLength="53.7964" x="544.5776" y="1590.9355">logEvent</text><text fill="#000000" font-family="sans-serif" font-size="13" lengthAdjust="spacing" textLength="104.3491" x="544.5776" y="1606.2461">(USER_CREATED,</text><text fill="#000000" font-family="sans-serif" font-size="13" lengthAdjust="spacing" textLength="129.0415" x="544.5776" y="1621.5566">adminId, newUserId,</text><text fill="#000000" font-family="sans-serif" font-size="13" lengthAdjust="spacing" textLength="28.5327" x="544.5776" y="1636.8672">role)</text></g><g class="message" data-entity-1="part6" data-entity-2="part7" id="msg26"><polygon fill="#181818" points="1117.5117,1682.2305,1127.5117,1686.2305,1117.5117,1690.2305,1121.5117,1686.2305" style="stroke:#181818;stroke-width:1;"/><line style="stroke:#181818;stroke-width:1;" x1="999.0532" x2="1123.5117" y1="1686.2305" y2="1686.2305"/><text fill="#000000" font-family="sans-serif" font-size="13" lengthAdjust="spacing" textLength="79.6187" x="1006.0532" y="1666.1777">INSERT INTO</text><text fill="#000000" font-family="sans-serif" font-size="13" lengthAdjust="spacing" textLength="58.3984" x="1006.0532" y="1681.4883">audit_log</text></g><g class="message" data-entity-1="part3" data-entity-2="part2" id="msg27"><polygon fill="#181818" points="325.7549,1726.8516,315.7549,1730.8516,325.7549,1734.8516,321.7549,1730.8516" style="stroke:#181818;stroke-width:1;"/><line style="stroke:#181818;stroke-width:1;stroke-dasharray:2,2;" x1="319.7549" x2="526.5776" y1="1730.8516" y2="1730.8516"/><text fill="#000000" font-family="sans-serif" font-size="13" lengthAdjust="spacing" textLength="66.9741" x="331.7549" y="1710.7988">UserResult</text><text fill="#000000" font-family="sans-serif" font-size="13" lengthAdjust="spacing" textLength="150.2808" x="331.7549" y="1726.1094">(userId, username, role)</text></g><g class="message" data-entity-1="part2" data-entity-2="part1" id="msg28"><polygon fill="#181818" points="110.8604,1786.7832,100.8604,1790.7832,110.8604,1794.7832,106.8604,1790.7832" style="stroke:#181818;stroke-width:1;"/><line style="stroke:#181818;stroke-width:1;stroke-dasharray:2,2;" x1="104.8604" x2="303.7549" y1="1790.7832" y2="1790.7832"/><text fill="#000000" font-family="sans-serif" font-size="13" lengthAdjust="spacing" textLength="77.7969" x="116.8604" y="1755.4199">201 Created</text><text fill="#000000" font-family="sans-serif" font-size="13" lengthAdjust="spacing" textLength="80.7676" x="116.8604" y="1770.7305">{user DTO &#8212;</text><text fill="#000000" font-family="sans-serif" font-size="13" lengthAdjust="spacing" textLength="176.1157" x="116.8604" y="1786.041">no password hash exposed}</text></g><line style="stroke:#000000;stroke-width:1;stroke-dasharray:2,2;" x1="40" x2="1198.686" y1="1799.7832" y2="1799.7832"/><text fill="#000000" font-family="sans-serif" font-size="11" font-weight="bold" lengthAdjust="spacing" textLength="150.3154" x="45" y="1810.418">[Email Already Registered]</text><g class="message" data-entity-1="part3" data-entity-2="part2" id="msg29"><polygon fill="#181818" points="325.7549,1831.0488,315.7549,1835.0488,325.7549,1839.0488,321.7549,1835.0488" style="stroke:#181818;stroke-width:1;"/><line style="stroke:#181818;stroke-width:1;stroke-dasharray:2,2;" x1="319.7549" x2="526.5776" y1="1835.0488" y2="1835.0488"/><text fill="#000000" font-family="sans-serif" font-size="13" lengthAdjust="spacing" textLength="155.0986" x="331.7549" y="1830.3066">DuplicateEmailException</text></g><g class="message" data-entity-1="part2" data-entity-2="part1" id="msg30"><polygon fill="#181818" points="110.8604,1875.6699,100.8604,1879.6699,110.8604,1883.6699,106.8604,1879.6699" style="stroke:#181818;stroke-width:1;"/><line style="stroke:#181818;stroke-width:1;stroke-dasharray:2,2;" x1="104.8604" x2="303.7549" y1="1879.6699" y2="1879.6699"/><text fill="#000000" font-family="sans-serif" font-size="13" lengthAdjust="spacing" textLength="77.6382" x="116.8604" y="1859.6172">409 Conflict</text><text fill="#000000" font-family="sans-serif" font-size="13" lengthAdjust="spacing" textLength="160.1133" x="116.8604" y="1874.9277">(Email already registered)</text></g><line style="stroke:#000000;stroke-width:1;stroke-dasharray:2,2;" x1="30" x2="1208.686" y1="1895.6699" y2="1895.6699"/><text fill="#000000" font-family="sans-serif" font-size="11" font-weight="bold" lengthAdjust="spacing" textLength="149.9502" x="35" y="1906.3047">[Username Already Taken]</text><g class="message" data-entity-1="part3" data-entity-2="part2" id="msg31"><polygon fill="#181818" points="325.7549,1926.9355,315.7549,1930.9355,325.7549,1934.9355,321.7549,1930.9355" style="stroke:#181818;stroke-width:1;"/><line style="stroke:#181818;stroke-width:1;stroke-dasharray:2,2;" x1="319.7549" x2="531.5776" y1="1930.9355" y2="1930.9355"/><text fill="#000000" font-family="sans-serif" font-size="13" lengthAdjust="spacing" textLength="184.0439" x="331.7549" y="1926.1934">DuplicateUsernameException</text></g><g class="message" data-entity-1="part2" data-entity-2="part1" id="msg32"><polygon fill="#181818" points="110.8604,1971.5566,100.8604,1975.5566,110.8604,1979.5566,106.8604,1975.5566" style="stroke:#181818;stroke-width:1;"/><line style="stroke:#181818;stroke-width:1;stroke-dasharray:2,2;" x1="104.8604" x2="303.7549" y1="1975.5566" y2="1975.5566"/><text fill="#000000" font-family="sans-serif" font-size="13" lengthAdjust="spacing" textLength="77.6382" x="116.8604" y="1955.5039">409 Conflict</text><text fill="#000000" font-family="sans-serif" font-size="13" lengthAdjust="spacing" textLength="160.1069" x="116.8604" y="1970.8145">(Username already taken)</text></g><line style="stroke:#000000;stroke-width:1;stroke-dasharray:2,2;" x1="20" x2="1218.686" y1="1991.5566" y2="1991.5566"/><text fill="#000000" font-family="sans-serif" font-size="11" font-weight="bold" lengthAdjust="spacing" textLength="79.9272" x="25" y="2002.1914">[Input Invalid]</text><g class="message" data-entity-1="part2" data-entity-2="part1" id="msg33"><polygon fill="#181818" points="110.8604,2038.1328,100.8604,2042.1328,110.8604,2046.1328,106.8604,2042.1328" style="stroke:#181818;stroke-width:1;"/><line style="stroke:#181818;stroke-width:1;stroke-dasharray:2,2;" x1="104.8604" x2="303.7549" y1="2042.1328" y2="2042.1328"/><text fill="#000000" font-family="sans-serif" font-size="13" lengthAdjust="spacing" textLength="106.1709" x="116.8604" y="2022.0801">400 Bad Request</text><text fill="#000000" font-family="sans-serif" font-size="13" lengthAdjust="spacing" textLength="111.8394" x="116.8604" y="2037.3906">(validation errors)</text></g><line style="stroke:#000000;stroke-width:1;stroke-dasharray:2,2;" x1="10" x2="1228.686" y1="2058.1328" y2="2058.1328"/><text fill="#000000" font-family="sans-serif" font-size="11" font-weight="bold" lengthAdjust="spacing" textLength="84.686" x="15" y="2068.7676">[Unauthorized]</text><g class="message" data-entity-1="part2" data-entity-2="part1" id="msg34"><polygon fill="#181818" points="110.8604,2089.3984,100.8604,2093.3984,110.8604,2097.3984,106.8604,2093.3984" style="stroke:#181818;stroke-width:1;"/><line style="stroke:#181818;stroke-width:1;stroke-dasharray:2,2;" x1="104.8604" x2="303.7549" y1="2093.3984" y2="2093.3984"/><text fill="#000000" font-family="sans-serif" font-size="13" lengthAdjust="spacing" textLength="92.6631" x="116.8604" y="2088.6563">403 Forbidden</text></g><?plantuml-src dLVRRkCs47tNLmnSeB3R19jDseSQI0jVb5qLIPpQSXO530IqDBRLbIajHJbnYmNwk1_GBzmlwP3KnPPbErw_o28vPsOE3uSZ6SWGOPoWW27EWqGA9eE8G_CMLnZ2LGk-_liVF2Btxr5Q5lDa9A3HyPS1DuiZqG2MW1wnh6dq0Ws7InGpvY6DifZ-9mtuxZQOBsGtJD42-iLCoC0BOiObD9JtNiIbYC8G3LpvQf5h8DWCknF7OU2P64SeLe671VgV68RHSpt-PdAPdNP4uzbhnL4_MhA0vz3l12BNoCXb8DS653hpkS0vamPB3TbwkeBby9bWv3trP2emn-n5WeNxeesZ921krmMm6jfTt4dzG5PM5sDb53wJRCeIXCRTUlJ7BVIpTxs-txKilNrm_ki6yMru68nSUCFKr9kKGaWc_1_rv6o9Pu34JtX6uIJ9SoJyimcVfM5uh-S80JzFUBEJoaKaWhyrxMte8XF4skyVt9PIKh0YvZQtklnR3UMHXO6lLfCjV3_XZoY2sHew_JldNdiZQOOISd_eGrFFEIDts747mvQbkJlkOC9x0kbfAF-KOYAXxmuebpppDboTNrq02-C5u-cIyjPCj65uquEVhoulQIGdfGsArhUNu2sOekz7yA9b7EABaf18GqneiGeVldxv0YiL0maiNMRXgfGS7gVIX6S6T_CeDTm6eNMEGiNV52Q1Lc5NaBuX-sBo-Xh6F20BZWcTm0Lw7nCQBEPB6-KqrsGRA9j49jtrE2DeWwiQprjQLhzyG87sksqOsRTspuNUO7plDdzeJVZDS707cVu-lBU7DkJmS0s_xNeWFUTZ_IwSRyNgHIcNnRIFTKPbG1Lkfn7j5EDrvaLMPJYqTpaZq5cHGjWqt63xDOpQIbXDBQ_Mbk5-Dh-HKUrZYyvzbBw2rltKdaJlKOfpcZLD-pZEb6tAEGocVw4dGPznTOLio7l_ffYQJbdgob28Ep_vLExOyyE-CjZQSR2LKNPVLDUKKzKWYagObiTjgo1HPVHQtmAeao6ql8x1B19B9a_1Ui-IHN4Z45It9zQnF2DzK1cTcURXxUKfY2EKa4WcKof5qEcvpgDzehNPDRyZ2O17pyrJlB-ZMYZqLesT_a6xYfPrTy3oxc37iYBhJ0HrkdsWGweAEYSvlagiva0cR6M4UaH-ExMZhduuzoDxwDB37UHLenduPr3j1Sfxxsb1GZ3wpmx4arbejfB6ibrvgjFNlifHMtf6f2dq3p5SWxAt1es8DrzF7zkptLAKxPXkluxlLT6bjI6CvlQA-agYTKnCF_M6TiUr-yIIxhqSefhZitBg-5c_S82qilshBYbcQZQMVAdP9uhbKEOb-C7qAisLuIj9Gvdr1iwMUkeJsknn55-AYZPSNhmrrHlzh1jLxPdwI9bm7XMr1vG0wHwbnXZzpzl1OaYDS7PdX0JbhxDF7wmJqe6q-gdv5a4DPhzu6AjBvPMP_7JnYvgP4OIYnGJ4ie144T0sCTJHbydeHCeU8pDrsKVargafv33rMMmeOADpF3d78jOyJQbYBJCiijEPcSxNuRejjeuvke0kyo5hsSdNobnhwf978IAHjAp2XI6E59z_BLY7aA_W9XBJmFU9Lcs-mKPfypy0?></g></svg>