<?xml version="1.0" encoding="UTF-8" standalone="no"?>
<!DOCTYPE svg PUBLIC "-//W3C//DTD SVG 1.1//EN"
 "http://www.w3.org/Graphics/SVG/1.1/DTD/svg11.dtd">
<!-- Generated by graphviz version 14.1.5 (20260411.2331)
 -->
<!-- Title: tm Pages: 1 -->
<svg width="1502pt" height="609pt"
 viewBox="0.00 0.00 1502.00 609.00" xmlns="http://www.w3.org/2000/svg" xmlns:xlink="http://www.w3.org/1999/xlink">
<g id="graph0" class="graph" transform="scale(1 1) rotate(0) translate(4 604.91)">
<title>tm</title>
<polygon fill="white" stroke="none" points="-4,4 -4,-604.91 1498,-604.91 1498,4 -4,4"/>
<g id="clust1" class="cluster">
<title>cluster_boundary_TBBackEnd_88f2d9c06f</title>
<polygon fill="none" stroke="#ee2c2c" stroke-dasharray="5,2" points="8,-8 8,-592.91 1216,-592.91 1216,-8 8,-8"/>
<text xml:space="preserve" text-anchor="start" x="578.62" y="-580.41" font-family="Arial" font-style="italic" font-size="10.00">TB3: Back&#45;End</text>
</g>
<g id="clust2" class="cluster">
<title>cluster_boundary_TBFileSystem_579e9aae81</title>
<polygon fill="none" stroke="#ee2c2c" stroke-dasharray="5,2" points="724,-269.24 724,-341.24 1046,-341.24 1046,-269.24 724,-269.24"/>
<text xml:space="preserve" text-anchor="start" x="846.75" y="-328.74" font-family="Arial" font-style="italic" font-size="10.00">TB5: File System</text>
</g>
<g id="clust3" class="cluster">
<title>cluster_boundary_TBDatabase_f2eb7a3ff7</title>
<polygon fill="none" stroke="#ee2c2c" stroke-dasharray="5,2" points="474,-269.24 474,-341.24 556,-341.24 556,-269.24 474,-269.24"/>
<text xml:space="preserve" text-anchor="start" x="482" y="-328.74" font-family="Arial" font-style="italic" font-size="10.00">TB4: Database</text>
</g>
<g id="clust4" class="cluster">
<title>cluster_boundary_TBInternet_acf3059e70</title>
<polygon fill="none" stroke="#ee2c2c" stroke-dasharray="5,2" points="1252,-245.68 1252,-364.81 1486,-364.81 1486,-245.68 1252,-245.68"/>
<text xml:space="preserve" text-anchor="start" x="1340.5" y="-352.31" font-family="Arial" font-style="italic" font-size="10.00">TB1: Internet</text>
</g>
<!-- datastore_varvendnetbackups_9345ab4c19 -->
<g id="node1" class="node">
<title>datastore_varvendnetbackups_9345ab4c19</title>
<image xlink:href="C:\Users\afons\AppData\Local\Packages\PythonSoftwareFoundation.Python.3.13_qbz5n2kfra8p0\LocalCache\local-packages\Python313\site-packages\pytm\images\datastore_black.png" width="49.6px" height="36px" preserveAspectRatio="xMinYMin meet" x="860.2" y="-313.244"/>
<text xml:space="preserve" text-anchor="middle" x="801" y="-263.94" font-family="Arial" font-size="14.00">/var/vendnet/backu</text>
<text xml:space="preserve" text-anchor="middle" x="801" y="-248.19" font-family="Arial" font-size="14.00">ps</text>
</g>
<!-- datastore_varvendnetlogs_86e4604564 -->
<g id="node2" class="node">
<title>datastore_varvendnetlogs_86e4604564</title>
<image xlink:href="C:\Users\afons\AppData\Local\Packages\PythonSoftwareFoundation.Python.3.13_qbz5n2kfra8p0\LocalCache\local-packages\Python313\site-packages\pytm\images\datastore_black.png" width="49.6px" height="36px" preserveAspectRatio="xMinYMin meet" x="734.2" y="-313.244"/>
<text xml:space="preserve" text-anchor="middle" x="680.62" y="-315.69" font-family="Arial" font-size="14.00">/var/vendnet/logs</text>
</g>
<!-- datastore_varvendnetreports_b2e5892d06 -->
<g id="node3" class="node">
<title>datastore_varvendnetreports_b2e5892d06</title>
<image xlink:href="C:\Users\afons\AppData\Local\Packages\PythonSoftwareFoundation.Python.3.13_qbz5n2kfra8p0\LocalCache\local-packages\Python313\site-packages\pytm\images\datastore_black.png" width="49.6px" height="36px" preserveAspectRatio="xMinYMin meet" x="986.2" y="-313.244"/>
<text xml:space="preserve" text-anchor="middle" x="929.25" y="-263.94" font-family="Arial" font-size="14.00">/var/vendnet/repor</text>
<text xml:space="preserve" text-anchor="middle" x="929.25" y="-248.19" font-family="Arial" font-size="14.00">ts</text>
</g>
<!-- process_VendorReportBuilder_c76a0a7067 -->
<g id="node7" class="node">
<title>process_VendorReportBuilder_c76a0a7067</title>
<ellipse fill="none" stroke="black" cx="926" cy="-95.46" rx="79.46" ry="79.46"/>
<text xml:space="preserve" text-anchor="middle" x="926" y="-97.91" font-family="Arial" font-size="14.00">5.3 Vendor Report</text>
<text xml:space="preserve" text-anchor="middle" x="926" y="-82.16" font-family="Arial" font-size="14.00">Builder</text>
</g>
<!-- datastore_varvendnetreports_b2e5892d06&#45;&gt;process_VendorReportBuilder_c76a0a7067 -->
<g id="edge14" class="edge">
<title>datastore_varvendnetreports_b2e5892d06&#45;&gt;process_VendorReportBuilder_c76a0a7067</title>
<path fill="none" stroke="black" d="M994.45,-277.35C982.6,-266.38 965.67,-252.82 948,-245.68 929.5,-238.2 872.05,-250.56 858.75,-235.68 839.87,-214.57 847.98,-187.21 864.04,-162.34"/>
<polygon fill="black" stroke="black" points="866.86,-164.4 869.68,-154.19 861.11,-160.42 866.86,-164.4"/>
<text xml:space="preserve" text-anchor="middle" x="904.88" y="-217.15" font-family="Arial" font-size="12.00">(14) Report Read</text>
<text xml:space="preserve" text-anchor="middle" x="904.88" y="-202.9" font-family="Arial" font-size="12.00">Stream</text>
</g>
<!-- datastore_AllDBsMySQL_c6f87088c2 -->
<g id="node4" class="node">
<title>datastore_AllDBsMySQL_c6f87088c2</title>
<image xlink:href="C:\Users\afons\AppData\Local\Packages\PythonSoftwareFoundation.Python.3.13_qbz5n2kfra8p0\LocalCache\local-packages\Python313\site-packages\pytm\images\datastore_black.png" width="49.6px" height="36px" preserveAspectRatio="xMinYMin meet" x="490.2" y="-313.244"/>
<text xml:space="preserve" text-anchor="middle" x="436.25" y="-279.69" font-family="Arial" font-size="14.00">All DBs (MySQL)</text>
</g>
<!-- process_DBBackupGenerator_2c440ebe53 -->
<g id="node5" class="node">
<title>process_DBBackupGenerator_2c440ebe53</title>
<ellipse fill="none" stroke="black" cx="1110" cy="-499.24" rx="65.68" ry="65.68"/>
<text xml:space="preserve" text-anchor="middle" x="1110" y="-501.69" font-family="Arial" font-size="14.00">5.1 DB Backup</text>
<text xml:space="preserve" text-anchor="middle" x="1110" y="-485.94" font-family="Arial" font-size="14.00">Generator</text>
</g>
<!-- datastore_AllDBsMySQL_c6f87088c2&#45;&gt;process_DBBackupGenerator_2c440ebe53 -->
<g id="edge3" class="edge">
<title>datastore_AllDBsMySQL_c6f87088c2&#45;&gt;process_DBBackupGenerator_2c440ebe53</title>
<path fill="none" stroke="black" d="M541.81,-308.63C578.14,-324.76 645.43,-352.37 706,-364.81 763.57,-376.64 781.49,-356.66 838,-372.81 876.39,-383.78 881.06,-398.18 917,-415.56 956.58,-434.69 1001.69,-454.15 1038.35,-469.37"/>
<polygon fill="black" stroke="black" points="1036.97,-472.59 1047.55,-473.18 1039.64,-466.12 1036.97,-472.59"/>
<text xml:space="preserve" text-anchor="middle" x="966.5" y="-397.03" font-family="Arial" font-size="12.00">(3) SQL Dump File</text>
<text xml:space="preserve" text-anchor="middle" x="966.5" y="-382.78" font-family="Arial" font-size="12.00">Stream</text>
</g>
<!-- process_AuditLogRotator_0291419f72 -->
<g id="node6" class="node">
<title>process_AuditLogRotator_0291419f72</title>
<ellipse fill="none" stroke="black" cx="345" cy="-499.24" rx="57.72" ry="57.72"/>
<text xml:space="preserve" text-anchor="middle" x="345" y="-501.69" font-family="Arial" font-size="14.00">5.2 Audit Log</text>
<text xml:space="preserve" text-anchor="middle" x="345" y="-485.94" font-family="Arial" font-size="14.00">Rotator</text>
</g>
<!-- datastore_AllDBsMySQL_c6f87088c2&#45;&gt;process_AuditLogRotator_0291419f72 -->
<g id="edge7" class="edge">
<title>datastore_AllDBsMySQL_c6f87088c2&#45;&gt;process_AuditLogRotator_0291419f72</title>
<path fill="none" stroke="black" d="M488.02,-297.28C407.59,-301 172.23,-316.59 126,-372.81 77.62,-431.63 195.91,-468.4 276.84,-485.94"/>
<polygon fill="black" stroke="black" points="276,-489.34 286.5,-487.98 277.44,-482.5 276,-489.34"/>
<text xml:space="preserve" text-anchor="middle" x="172.5" y="-389.91" font-family="Arial" font-size="12.00">(7) Audit Records</text>
</g>
<!-- datastore_AllDBsMySQL_c6f87088c2&#45;&gt;process_VendorReportBuilder_c76a0a7067 -->
<g id="edge12" class="edge">
<title>datastore_AllDBsMySQL_c6f87088c2&#45;&gt;process_VendorReportBuilder_c76a0a7067</title>
<path fill="none" stroke="black" d="M515.46,-277.28C517.02,-254.76 523.19,-215.23 546.75,-192.93 588.02,-153.86 737.32,-124.65 835.83,-109.11"/>
<polygon fill="black" stroke="black" points="836.14,-112.6 845.49,-107.61 835.07,-105.69 836.14,-112.6"/>
<text xml:space="preserve" text-anchor="middle" x="588.38" y="-217.15" font-family="Arial" font-size="12.00">(12) Sales Data</text>
<text xml:space="preserve" text-anchor="middle" x="588.38" y="-202.9" font-family="Arial" font-size="12.00">Result Set</text>
</g>
<!-- process_DBBackupGenerator_2c440ebe53&#45;&gt;datastore_varvendnetbackups_9345ab4c19 -->
<g id="edge4" class="edge">
<title>process_DBBackupGenerator_2c440ebe53&#45;&gt;datastore_varvendnetbackups_9345ab4c19</title>
<path fill="none" stroke="black" d="M1087.36,-437.21C1075.27,-413.15 1057.85,-387.74 1034,-372.81 1001.46,-352.44 982.39,-381.86 948,-364.81 928.99,-355.39 912.91,-337.6 901.76,-322.51"/>
<polygon fill="black" stroke="black" points="904.63,-320.51 896.03,-314.33 898.9,-324.53 904.63,-320.51"/>
<text xml:space="preserve" text-anchor="middle" x="1123.9" y="-397.03" font-family="Arial" font-size="12.00">(4) Encrypted SQL</text>
<text xml:space="preserve" text-anchor="middle" x="1123.9" y="-382.78" font-family="Arial" font-size="12.00">Backup File</text>
</g>
<!-- process_DBBackupGenerator_2c440ebe53&#45;&gt;datastore_AllDBsMySQL_c6f87088c2 -->
<g id="edge2" class="edge">
<title>process_DBBackupGenerator_2c440ebe53&#45;&gt;datastore_AllDBsMySQL_c6f87088c2</title>
<path fill="none" stroke="black" d="M1044.12,-495.23C918.91,-488.37 652.49,-467.9 578.75,-415.56 547.75,-393.56 530.46,-351.67 521.94,-323.85"/>
<polygon fill="black" stroke="black" points="525.34,-322.99 519.23,-314.34 518.61,-324.92 525.34,-322.99"/>
<text xml:space="preserve" text-anchor="middle" x="621.88" y="-397.03" font-family="Arial" font-size="12.00">(2) mysqldump</text>
<text xml:space="preserve" text-anchor="middle" x="621.88" y="-382.78" font-family="Arial" font-size="12.00">command (auth)</text>
</g>
<!-- actor_Administrator_d2006ce1bb -->
<g id="node8" class="node">
<title>actor_Administrator_d2006ce1bb</title>
<polygon fill="none" stroke="black" points="1343.57,-336.81 1260.43,-336.81 1260.43,-253.68 1343.57,-253.68 1343.57,-336.81"/>
<text xml:space="preserve" text-anchor="middle" x="1302" y="-289.82" font-family="Arial" font-size="14.00">Administrator</text>
</g>
<!-- process_DBBackupGenerator_2c440ebe53&#45;&gt;actor_Administrator_d2006ce1bb -->
<g id="edge5" class="edge">
<title>process_DBBackupGenerator_2c440ebe53&#45;&gt;actor_Administrator_d2006ce1bb</title>
<path fill="none" stroke="black" d="M1161.95,-458.36C1177.68,-445.37 1194.6,-430.45 1209,-415.56 1229.61,-394.25 1250.12,-368.53 1266.62,-346.44"/>
<polygon fill="black" stroke="black" points="1269.41,-348.56 1272.53,-338.44 1263.78,-344.4 1269.41,-348.56"/>
<text xml:space="preserve" text-anchor="middle" x="1293.68" y="-397.03" font-family="Arial" font-size="12.00">(5) Backup</text>
<text xml:space="preserve" text-anchor="middle" x="1293.68" y="-382.78" font-family="Arial" font-size="12.00">Completion Status</text>
</g>
<!-- process_AuditLogRotator_0291419f72&#45;&gt;datastore_varvendnetlogs_86e4604564 -->
<g id="edge8" class="edge">
<title>process_AuditLogRotator_0291419f72&#45;&gt;datastore_varvendnetlogs_86e4604564</title>
<path fill="none" stroke="black" d="M403.01,-496.92C474.99,-492.6 598.54,-476.08 683,-415.56 715.28,-392.42 737.11,-350.91 748.8,-323.46"/>
<polygon fill="black" stroke="black" points="751.96,-324.99 752.49,-314.4 745.48,-322.35 751.96,-324.99"/>
<text xml:space="preserve" text-anchor="middle" x="771.08" y="-404.16" font-family="Arial" font-size="12.00">(8)</text>
<text xml:space="preserve" text-anchor="middle" x="771.08" y="-389.91" font-family="Arial" font-size="12.00">Compress/Archive</text>
<text xml:space="preserve" text-anchor="middle" x="771.08" y="-375.66" font-family="Arial" font-size="12.00">Log File</text>
</g>
<!-- process_AuditLogRotator_0291419f72&#45;&gt;datastore_AllDBsMySQL_c6f87088c2 -->
<g id="edge6" class="edge">
<title>process_AuditLogRotator_0291419f72&#45;&gt;datastore_AllDBsMySQL_c6f87088c2</title>
<path fill="none" stroke="black" d="M295.64,-469.16C259.18,-443.94 219.92,-406.33 245.25,-372.81 273.27,-335.73 409.57,-311.37 477.03,-301.38"/>
<polygon fill="black" stroke="black" points="477.12,-304.9 486.52,-300.01 476.12,-297.98 477.12,-304.9"/>
<text xml:space="preserve" text-anchor="middle" x="293.62" y="-404.16" font-family="Arial" font-size="12.00">(6) Fetch Audit</text>
<text xml:space="preserve" text-anchor="middle" x="293.62" y="-389.91" font-family="Arial" font-size="12.00">Events (older than</text>
<text xml:space="preserve" text-anchor="middle" x="293.62" y="-375.66" font-family="Arial" font-size="12.00">X)</text>
</g>
<!-- process_AuditLogRotator_0291419f72&#45;&gt;datastore_AllDBsMySQL_c6f87088c2 -->
<g id="edge9" class="edge">
<title>process_AuditLogRotator_0291419f72&#45;&gt;datastore_AllDBsMySQL_c6f87088c2</title>
<path fill="none" stroke="black" d="M369.76,-446.9C382.62,-423.02 399.68,-395.04 419,-372.81 436.58,-352.57 460.06,-333.74 479.39,-319.82"/>
<polygon fill="black" stroke="black" points="481.39,-322.69 487.55,-314.07 477.36,-316.97 481.39,-322.69"/>
<text xml:space="preserve" text-anchor="middle" x="462.5" y="-397.03" font-family="Arial" font-size="12.00">(9) Delete</text>
<text xml:space="preserve" text-anchor="middle" x="462.5" y="-382.78" font-family="Arial" font-size="12.00">Archived Events</text>
</g>
<!-- process_VendorReportBuilder_c76a0a7067&#45;&gt;datastore_varvendnetreports_b2e5892d06 -->
<g id="edge13" class="edge">
<title>process_VendorReportBuilder_c76a0a7067&#45;&gt;datastore_varvendnetreports_b2e5892d06</title>
<path fill="none" stroke="black" d="M957.17,-168.99C971.86,-203.18 988.51,-241.91 999.35,-267.13"/>
<polygon fill="black" stroke="black" points="995.99,-268.19 1003.16,-275.99 1002.42,-265.42 995.99,-268.19"/>
<text xml:space="preserve" text-anchor="middle" x="1019.13" y="-224.28" font-family="Arial" font-size="12.00">(13) Write</text>
<text xml:space="preserve" text-anchor="middle" x="1019.13" y="-210.03" font-family="Arial" font-size="12.00">Directory/File</text>
<text xml:space="preserve" text-anchor="middle" x="1019.13" y="-195.78" font-family="Arial" font-size="12.00">Output</text>
</g>
<!-- process_VendorReportBuilder_c76a0a7067&#45;&gt;datastore_AllDBsMySQL_c6f87088c2 -->
<g id="edge11" class="edge">
<title>process_VendorReportBuilder_c76a0a7067&#45;&gt;datastore_AllDBsMySQL_c6f87088c2</title>
<path fill="none" stroke="black" d="M854.56,-130.84C766.58,-173.18 620.45,-243.5 552.23,-276.33"/>
<polygon fill="black" stroke="black" points="550.82,-273.12 543.33,-280.61 553.86,-279.43 550.82,-273.12"/>
<text xml:space="preserve" text-anchor="middle" x="765.5" y="-224.28" font-family="Arial" font-size="12.00">(11) Fetch</text>
<text xml:space="preserve" text-anchor="middle" x="765.5" y="-210.03" font-family="Arial" font-size="12.00">Aggregated Sale</text>
<text xml:space="preserve" text-anchor="middle" x="765.5" y="-195.78" font-family="Arial" font-size="12.00">Data</text>
</g>
<!-- process_VendorReportBuilder_c76a0a7067&#45;&gt;actor_Administrator_d2006ce1bb -->
<g id="edge15" class="edge">
<title>process_VendorReportBuilder_c76a0a7067&#45;&gt;actor_Administrator_d2006ce1bb</title>
<path fill="none" stroke="black" d="M992.32,-139.77C1052.77,-179.15 1133.83,-231.74 1141.75,-235.68 1176.38,-252.91 1217.39,-267.8 1249.25,-278.26"/>
<polygon fill="black" stroke="black" points="1248.08,-281.56 1258.67,-281.3 1250.23,-274.9 1248.08,-281.56"/>
<text xml:space="preserve" text-anchor="middle" x="1183.38" y="-217.15" font-family="Arial" font-size="12.00">(15) Report File</text>
<text xml:space="preserve" text-anchor="middle" x="1183.38" y="-202.9" font-family="Arial" font-size="12.00">Download</text>
</g>
<!-- actor_Administrator_d2006ce1bb&#45;&gt;process_DBBackupGenerator_2c440ebe53 -->
<g id="edge1" class="edge">
<title>actor_Administrator_d2006ce1bb&#45;&gt;process_DBBackupGenerator_2c440ebe53</title>
<path fill="none" stroke="black" d="M1343.8,-329.82C1361.64,-345.18 1379.42,-362.27 1384,-372.81 1391.57,-390.24 1395.33,-400.31 1384,-415.56 1360.22,-447.57 1258.55,-471.94 1186,-485.67"/>
<polygon fill="black" stroke="black" points="1185.76,-482.16 1176.56,-487.42 1187.03,-489.04 1185.76,-482.16"/>
<text xml:space="preserve" text-anchor="middle" x="1440.28" y="-397.03" font-family="Arial" font-size="12.00">(1) Trigger Backup</text>
<text xml:space="preserve" text-anchor="middle" x="1440.28" y="-382.78" font-family="Arial" font-size="12.00">Command</text>
</g>
<!-- actor_Administrator_d2006ce1bb&#45;&gt;process_VendorReportBuilder_c76a0a7067 -->
<g id="edge10" class="edge">
<title>actor_Administrator_d2006ce1bb&#45;&gt;process_VendorReportBuilder_c76a0a7067</title>
<path fill="none" stroke="black" d="M1286.67,-253.2C1277.02,-232.46 1262.63,-208.47 1243,-192.93 1177.73,-141.28 1084.97,-117.2 1016.65,-106.02"/>
<polygon fill="black" stroke="black" points="1017.39,-102.59 1006.97,-104.51 1016.31,-109.51 1017.39,-102.59"/>
<text xml:space="preserve" text-anchor="middle" x="1315.6" y="-217.15" font-family="Arial" font-size="12.00">(10) Request</text>
<text xml:space="preserve" text-anchor="middle" x="1315.6" y="-202.9" font-family="Arial" font-size="12.00">Vendor Report</text>
</g>
<!-- actor_Customer_f8af758679 -->
<g id="node9" class="node">
<title>actor_Customer_f8af758679</title>
<polygon fill="none" stroke="black" points="1478.07,-326.31 1415.93,-326.31 1415.93,-264.18 1478.07,-264.18 1478.07,-326.31"/>
<text xml:space="preserve" text-anchor="middle" x="1447" y="-289.82" font-family="Arial" font-size="14.00">Customer</text>
</g>
</g>
</svg>
