<?xml version="1.0" encoding="UTF-8" standalone="no"?>
<!DOCTYPE svg PUBLIC "-//W3C//DTD SVG 1.1//EN"
 "http://www.w3.org/Graphics/SVG/1.1/DTD/svg11.dtd">
<!-- Generated by graphviz version 14.1.5 (20260411.2331)
 -->
<!-- Title: tm Pages: 1 -->
<svg width="1062pt" height="821pt"
 viewBox="0.00 0.00 1062.00 821.00" xmlns="http://www.w3.org/2000/svg" xmlns:xlink="http://www.w3.org/1999/xlink">
<g id="graph0" class="graph" transform="scale(1 1) rotate(0) translate(4 817.28)">
<title>tm</title>
<polygon fill="white" stroke="none" points="-4,4 -4,-817.28 1058.47,-817.28 1058.47,4 -4,4"/>
<g id="clust1" class="cluster">
<title>cluster_boundary_TBBackEnd_579e9aae81</title>
<polygon fill="none" stroke="#ee2c2c" stroke-dasharray="5,2" points="8,-231.88 8,-591.15 1021,-591.15 1021,-231.88 8,-231.88"/>
<text xml:space="preserve" text-anchor="start" x="481.12" y="-578.65" font-family="Arial" font-style="italic" font-size="10.00">TB3: Back&#45;End</text>
</g>
<g id="clust2" class="cluster">
<title>cluster_boundary_TBDatabase_f2eb7a3ff7</title>
<polygon fill="none" stroke="#ee2c2c" stroke-dasharray="5,2" points="264,-458.37 264,-550.37 460,-550.37 460,-458.37 264,-458.37"/>
<text xml:space="preserve" text-anchor="start" x="329" y="-537.87" font-family="Arial" font-style="italic" font-size="10.00">TB4: Database</text>
</g>
<g id="clust3" class="cluster">
<title>cluster_boundary_TBInternet_acf3059e70</title>
<polygon fill="none" stroke="#ee2c2c" stroke-dasharray="5,2" points="860,-666.15 860,-805.28 960,-805.28 960,-666.15 860,-666.15"/>
<text xml:space="preserve" text-anchor="start" x="881.5" y="-792.78" font-family="Arial" font-style="italic" font-size="10.00">TB1: Internet</text>
</g>
<g id="clust4" class="cluster">
<title>cluster_boundary_TBExternalSystems_88f2d9c06f</title>
<polygon fill="none" stroke="#ee2c2c" stroke-dasharray="5,2" points="426,-8 426,-171.13 550,-171.13 550,-8 426,-8"/>
<text xml:space="preserve" text-anchor="start" x="434.38" y="-158.63" font-family="Arial" font-style="italic" font-size="10.00">TB2: External\nSystems</text>
</g>
<!-- datastore_ProductStore_c6f87088c2 -->
<g id="node1" class="node">
<title>datastore_ProductStore_c6f87088c2</title>
<image xlink:href="C:\Users\afons\AppData\Local\Packages\PythonSoftwareFoundation.Python.3.13_qbz5n2kfra8p0\LocalCache\local-packages\Python313\site-packages\pytm\images\datastore_black.png" width="49.6px" height="36px" preserveAspectRatio="xMinYMin meet" x="274.2" y="-502.369"/>
<text xml:space="preserve" text-anchor="middle" x="230.75" y="-504.82" font-family="Arial" font-size="14.00">Product Store</text>
</g>
<!-- process_PriceManagement_2c440ebe53 -->
<g id="node3" class="node">
<title>process_PriceManagement_2c440ebe53</title>
<ellipse fill="none" stroke="black" cx="710" cy="-484.37" rx="58.78" ry="58.78"/>
<text xml:space="preserve" text-anchor="middle" x="710" y="-486.82" font-family="Arial" font-size="14.00">6.1 Price</text>
<text xml:space="preserve" text-anchor="middle" x="710" y="-471.07" font-family="Arial" font-size="14.00">Management</text>
</g>
<!-- datastore_ProductStore_c6f87088c2&#45;&gt;process_PriceManagement_2c440ebe53 -->
<g id="edge3" class="edge">
<title>datastore_ProductStore_c6f87088c2&#45;&gt;process_PriceManagement_2c440ebe53</title>
<path fill="none" stroke="black" d="M305.89,-502.28C315.5,-525.3 334.84,-565.36 362,-591.15 404.3,-631.32 435.53,-625.09 491.88,-610.02 551.73,-594.01 612.19,-557.2 654.23,-527.53"/>
<polygon fill="black" stroke="black" points="656.12,-530.48 662.21,-521.81 652.04,-524.79 656.12,-530.48"/>
<text xml:space="preserve" text-anchor="middle" x="445" y="-630.5" font-family="Arial" font-size="12.00">(3) Price Updated</text>
<text xml:space="preserve" text-anchor="middle" x="445" y="-616.25" font-family="Arial" font-size="12.00">Ack</text>
</g>
<!-- process_SyncDeployment_c76a0a7067 -->
<g id="node5" class="node">
<title>process_SyncDeployment_c76a0a7067</title>
<ellipse fill="none" stroke="black" cx="488" cy="-293.36" rx="53.48" ry="53.48"/>
<text xml:space="preserve" text-anchor="middle" x="488" y="-295.81" font-family="Arial" font-size="14.00">6.3 Sync &amp;</text>
<text xml:space="preserve" text-anchor="middle" x="488" y="-280.06" font-family="Arial" font-size="14.00">Deployment</text>
</g>
<!-- datastore_ProductStore_c6f87088c2&#45;&gt;process_SyncDeployment_c76a0a7067 -->
<g id="edge12" class="edge">
<title>datastore_ProductStore_c6f87088c2&#45;&gt;process_SyncDeployment_c76a0a7067</title>
<path fill="none" stroke="black" d="M291.7,-466.67C282.14,-441.97 268.98,-395.36 290.5,-364.84 320.28,-322.59 377.77,-305.53 423.08,-298.71"/>
<polygon fill="black" stroke="black" points="423.37,-302.2 432.81,-297.39 422.43,-295.26 423.37,-302.2"/>
<text xml:space="preserve" text-anchor="middle" x="327.25" y="-381.94" font-family="Arial" font-size="12.00">(12) Price List</text>
</g>
<!-- datastore_MachineStore_9345ab4c19 -->
<g id="node2" class="node">
<title>datastore_MachineStore_9345ab4c19</title>
<image xlink:href="C:\Users\afons\AppData\Local\Packages\PythonSoftwareFoundation.Python.3.13_qbz5n2kfra8p0\LocalCache\local-packages\Python313\site-packages\pytm\images\datastore_black.png" width="49.6px" height="36px" preserveAspectRatio="xMinYMin meet" x="400.2" y="-502.369"/>
<text xml:space="preserve" text-anchor="middle" x="354.12" y="-504.82" font-family="Arial" font-size="14.00">Machine Store</text>
</g>
<!-- process_MachineConfigurator_0291419f72 -->
<g id="node4" class="node">
<title>process_MachineConfigurator_0291419f72</title>
<ellipse fill="none" stroke="black" cx="900" cy="-484.37" rx="54.54" ry="54.54"/>
<text xml:space="preserve" text-anchor="middle" x="900" y="-486.82" font-family="Arial" font-size="14.00">6.2 Machine</text>
<text xml:space="preserve" text-anchor="middle" x="900" y="-471.07" font-family="Arial" font-size="14.00">Configurator</text>
</g>
<!-- datastore_MachineStore_9345ab4c19&#45;&gt;process_MachineConfigurator_0291419f72 -->
<g id="edge6" class="edge">
<title>datastore_MachineStore_9345ab4c19&#45;&gt;process_MachineConfigurator_0291419f72</title>
<path fill="none" stroke="black" d="M424.47,-502.01C424.81,-526.27 429.4,-569.4 456,-591.15 510.62,-635.83 704.92,-628.6 773,-610.02 810.94,-599.67 842.44,-568.75 864.59,-540.18"/>
<polygon fill="black" stroke="black" points="867.35,-542.33 870.54,-532.23 861.75,-538.14 867.35,-542.33"/>
<text xml:space="preserve" text-anchor="middle" x="728" y="-630.5" font-family="Arial" font-size="12.00">(6) Config Saved</text>
<text xml:space="preserve" text-anchor="middle" x="728" y="-616.25" font-family="Arial" font-size="12.00">Ack</text>
</g>
<!-- datastore_MachineStore_9345ab4c19&#45;&gt;process_SyncDeployment_c76a0a7067 -->
<g id="edge10" class="edge">
<title>datastore_MachineStore_9345ab4c19&#45;&gt;process_SyncDeployment_c76a0a7067</title>
<path fill="none" stroke="black" d="M411.87,-466.55C395.12,-442.9 370.33,-398.9 388,-364.84 397.16,-347.18 412.99,-333.02 429.39,-322.15"/>
<polygon fill="black" stroke="black" points="431.14,-325.18 437.78,-316.93 427.44,-319.24 431.14,-325.18"/>
<text xml:space="preserve" text-anchor="middle" x="433" y="-389.06" font-family="Arial" font-size="12.00">(10) Machine</text>
<text xml:space="preserve" text-anchor="middle" x="433" y="-374.81" font-family="Arial" font-size="12.00">Endpoint Targets</text>
</g>
<!-- process_PriceManagement_2c440ebe53&#45;&gt;datastore_ProductStore_c6f87088c2 -->
<g id="edge2" class="edge">
<title>process_PriceManagement_2c440ebe53&#45;&gt;datastore_ProductStore_c6f87088c2</title>
<path fill="none" stroke="black" d="M675.49,-532.37C651.91,-560.83 617.93,-594.33 578.88,-610.02 489.1,-646.09 442.49,-644.84 362,-591.15 334.36,-572.71 317.15,-537.69 307.84,-512.78"/>
<polygon fill="black" stroke="black" points="311.22,-511.85 304.61,-503.57 304.61,-514.17 311.22,-511.85"/>
<text xml:space="preserve" text-anchor="middle" x="538" y="-630.5" font-family="Arial" font-size="12.00">(2) Persist New</text>
<text xml:space="preserve" text-anchor="middle" x="538" y="-616.25" font-family="Arial" font-size="12.00">Price</text>
</g>
<!-- process_PriceManagement_2c440ebe53&#45;&gt;process_SyncDeployment_c76a0a7067 -->
<g id="edge7" class="edge">
<title>process_PriceManagement_2c440ebe53&#45;&gt;process_SyncDeployment_c76a0a7067</title>
<path fill="none" stroke="black" d="M683.91,-431.25C670.69,-408.71 652.98,-383.31 632,-364.84 607.92,-343.63 576.33,-327.23 548.87,-315.61"/>
<polygon fill="black" stroke="black" points="550.56,-312.52 539.98,-311.97 547.9,-319 550.56,-312.52"/>
<text xml:space="preserve" text-anchor="middle" x="710.28" y="-389.06" font-family="Arial" font-size="12.00">(7) Trigger Price</text>
<text xml:space="preserve" text-anchor="middle" x="710.28" y="-374.81" font-family="Arial" font-size="12.00">Sync Event</text>
</g>
<!-- process_MachineConfigurator_0291419f72&#45;&gt;datastore_MachineStore_9345ab4c19 -->
<g id="edge5" class="edge">
<title>process_MachineConfigurator_0291419f72&#45;&gt;datastore_MachineStore_9345ab4c19</title>
<path fill="none" stroke="black" d="M870.43,-530.49C853.89,-552.44 831.3,-576.93 805,-591.15 754.9,-618.24 735.05,-605.82 678.25,-610.02 579.39,-617.34 530.7,-656.33 456,-591.15 433.98,-571.93 427.16,-538.09 425.27,-513.65"/>
<polygon fill="black" stroke="black" points="428.76,-513.5 424.76,-503.69 421.77,-513.86 428.76,-513.5"/>
<text xml:space="preserve" text-anchor="middle" x="631" y="-630.5" font-family="Arial" font-size="12.00">(5) Persist Device</text>
<text xml:space="preserve" text-anchor="middle" x="631" y="-616.25" font-family="Arial" font-size="12.00">Configuration</text>
</g>
<!-- process_MachineConfigurator_0291419f72&#45;&gt;process_SyncDeployment_c76a0a7067 -->
<g id="edge8" class="edge">
<title>process_MachineConfigurator_0291419f72&#45;&gt;process_SyncDeployment_c76a0a7067</title>
<path fill="none" stroke="black" d="M865.02,-442C841.05,-416.19 807.16,-384.29 771,-364.84 701.67,-327.54 612.17,-309.55 552.57,-301.17"/>
<polygon fill="black" stroke="black" points="553.31,-297.74 542.93,-299.87 552.37,-304.68 553.31,-297.74"/>
<text xml:space="preserve" text-anchor="middle" x="875.6" y="-389.06" font-family="Arial" font-size="12.00">(8) Trigger Config</text>
<text xml:space="preserve" text-anchor="middle" x="875.6" y="-374.81" font-family="Arial" font-size="12.00">Sync Event</text>
</g>
<!-- process_SyncDeployment_c76a0a7067&#45;&gt;datastore_ProductStore_c6f87088c2 -->
<g id="edge11" class="edge">
<title>process_SyncDeployment_c76a0a7067&#45;&gt;datastore_ProductStore_c6f87088c2</title>
<path fill="none" stroke="black" d="M434.35,-295.3C333.3,-298.34 120.83,-311.11 75.5,-364.84 19.47,-431.25 183.53,-465.81 260.96,-478.08"/>
<polygon fill="black" stroke="black" points="260.25,-481.51 270.67,-479.57 261.31,-474.59 260.25,-481.51"/>
<text xml:space="preserve" text-anchor="middle" x="119.75" y="-389.06" font-family="Arial" font-size="12.00">(11) Fetch Latest</text>
<text xml:space="preserve" text-anchor="middle" x="119.75" y="-374.81" font-family="Arial" font-size="12.00">Prices</text>
</g>
<!-- process_SyncDeployment_c76a0a7067&#45;&gt;datastore_MachineStore_9345ab4c19 -->
<g id="edge9" class="edge">
<title>process_SyncDeployment_c76a0a7067&#45;&gt;datastore_MachineStore_9345ab4c19</title>
<path fill="none" stroke="black" d="M504.27,-344.79C507.95,-365.7 507.82,-389.3 496,-407.59 485.41,-423.96 470.26,-412.29 456,-425.59 447.04,-433.94 440.14,-445.49 435.14,-456.06"/>
<polygon fill="black" stroke="black" points="431.96,-454.59 431.22,-465.16 438.39,-457.36 431.96,-454.59"/>
<text xml:space="preserve" text-anchor="middle" x="560.4" y="-396.19" font-family="Arial" font-size="12.00">(9) Fetch</text>
<text xml:space="preserve" text-anchor="middle" x="560.4" y="-381.94" font-family="Arial" font-size="12.00">Associated Machine</text>
<text xml:space="preserve" text-anchor="middle" x="560.4" y="-367.69" font-family="Arial" font-size="12.00">List</text>
</g>
<!-- externalentity_VendingMachine_f8af758679 -->
<g id="node7" class="node">
<title>externalentity_VendingMachine_f8af758679</title>
<polygon fill="none" stroke="black" points="541.57,-123.13 434.44,-123.13 434.44,-16 541.57,-16 541.57,-123.13"/>
<text xml:space="preserve" text-anchor="middle" x="488" y="-64.14" font-family="Arial" font-size="14.00">Vending Machine</text>
</g>
<!-- process_SyncDeployment_c76a0a7067&#45;&gt;externalentity_VendingMachine_f8af758679 -->
<g id="edge14" class="edge">
<title>process_SyncDeployment_c76a0a7067&#45;&gt;externalentity_VendingMachine_f8af758679</title>
<path fill="none" stroke="black" d="M438.39,-272.25C417.14,-260.85 394.49,-244.32 382.5,-221.88 373.54,-205.12 375.35,-196.74 382.5,-179.13 391.8,-156.22 408.51,-135.48 425.94,-118.42"/>
<polygon fill="black" stroke="black" points="428,-121.29 432.87,-111.88 423.19,-116.2 428,-121.29"/>
<text xml:space="preserve" text-anchor="middle" x="432.75" y="-203.35" font-family="Arial" font-size="12.00">(14) Push Updated</text>
<text xml:space="preserve" text-anchor="middle" x="432.75" y="-189.1" font-family="Arial" font-size="12.00">Config &amp; Prices</text>
</g>
<!-- actor_Administrator_d2006ce1bb -->
<g id="node6" class="node">
<title>actor_Administrator_d2006ce1bb</title>
<polygon fill="none" stroke="black" points="951.57,-757.28 868.43,-757.28 868.43,-674.15 951.57,-674.15 951.57,-757.28"/>
<text xml:space="preserve" text-anchor="middle" x="910" y="-710.29" font-family="Arial" font-size="14.00">Administrator</text>
</g>
<!-- actor_Administrator_d2006ce1bb&#45;&gt;process_PriceManagement_2c440ebe53 -->
<g id="edge1" class="edge">
<title>actor_Administrator_d2006ce1bb&#45;&gt;process_PriceManagement_2c440ebe53</title>
<path fill="none" stroke="black" d="M868.06,-686.08C856.29,-677.15 843.88,-666.82 833.5,-656.15 800.5,-622.23 769.32,-578.99 746.54,-544.51"/>
<polygon fill="black" stroke="black" points="749.58,-542.75 741.18,-536.3 743.72,-546.58 749.58,-542.75"/>
<text xml:space="preserve" text-anchor="middle" x="883.75" y="-630.5" font-family="Arial" font-size="12.00">(1) Update Product</text>
<text xml:space="preserve" text-anchor="middle" x="883.75" y="-616.25" font-family="Arial" font-size="12.00">Pricing</text>
</g>
<!-- actor_Administrator_d2006ce1bb&#45;&gt;process_MachineConfigurator_0291419f72 -->
<g id="edge4" class="edge">
<title>actor_Administrator_d2006ce1bb&#45;&gt;process_MachineConfigurator_0291419f72</title>
<path fill="none" stroke="black" d="M943.91,-673.88C947.21,-668.2 950.05,-662.23 952,-656.15 959.75,-632.03 957.39,-623.9 952,-599.15 947.81,-579.9 940.06,-560.01 931.8,-542.35"/>
<polygon fill="black" stroke="black" points="935.07,-541.07 927.56,-533.59 928.77,-544.12 935.07,-541.07"/>
<text xml:space="preserve" text-anchor="middle" x="1005.72" y="-644.75" font-family="Arial" font-size="12.00">(4) Update</text>
<text xml:space="preserve" text-anchor="middle" x="1005.72" y="-630.5" font-family="Arial" font-size="12.00">Operational</text>
<text xml:space="preserve" text-anchor="middle" x="1005.72" y="-616.25" font-family="Arial" font-size="12.00">Parameters (Temp</text>
<text xml:space="preserve" text-anchor="middle" x="1005.72" y="-602" font-family="Arial" font-size="12.00">targets, limits)</text>
</g>
<!-- externalentity_VendingMachine_f8af758679&#45;&gt;process_SyncDeployment_c76a0a7067 -->
<g id="edge13" class="edge">
<title>externalentity_VendingMachine_f8af758679&#45;&gt;process_SyncDeployment_c76a0a7067</title>
<path fill="none" stroke="black" d="M497.13,-123.45C501,-152.51 503.99,-189.19 501,-221.88 500.77,-224.35 500.51,-226.86 500.2,-229.39"/>
<polygon fill="black" stroke="black" points="496.77,-228.66 498.87,-239.05 503.7,-229.62 496.77,-228.66"/>
<text xml:space="preserve" text-anchor="middle" x="547.22" y="-210.48" font-family="Arial" font-size="12.00">(13) Poll for Conf</text>
<text xml:space="preserve" text-anchor="middle" x="547.22" y="-196.23" font-family="Arial" font-size="12.00">iguration/Prices</text>
<text xml:space="preserve" text-anchor="middle" x="547.22" y="-181.98" font-family="Arial" font-size="12.00">(mTLS)</text>
</g>
</g>
</svg>
