<?xml version="1.0" encoding="UTF-8" standalone="no"?>
<!DOCTYPE svg PUBLIC "-//W3C//DTD SVG 1.1//EN"
 "http://www.w3.org/Graphics/SVG/1.1/DTD/svg11.dtd">
<!-- Generated by graphviz version 14.1.5 (20260411.2331)
 -->
<!-- Title: tm Pages: 1 -->
<svg width="1043pt" height="688pt"
 viewBox="0.00 0.00 1043.00 688.00" xmlns="http://www.w3.org/2000/svg" xmlns:xlink="http://www.w3.org/1999/xlink">
<g id="graph0" class="graph" transform="scale(1 1) rotate(0) translate(4 684.23)">
<title>tm</title>
<polygon fill="white" stroke="none" points="-4,4 -4,-684.23 1038.68,-684.23 1038.68,4 -4,4"/>
<g id="clust1" class="cluster">
<title>cluster_boundary_TBBackEnd_88f2d9c06f</title>
<polygon fill="none" stroke="#ee2c2c" stroke-dasharray="5,2" points="8,-8 8,-506.6 999,-506.6 999,-8 8,-8"/>
<text xml:space="preserve" text-anchor="start" x="470.12" y="-494.1" font-family="Arial" font-style="italic" font-size="10.00">TB3: Back&#45;End</text>
</g>
<g id="clust2" class="cluster">
<title>cluster_boundary_TBDatabase_579e9aae81</title>
<polygon fill="none" stroke="#ee2c2c" stroke-dasharray="5,2" points="655,-221.3 655,-293.3 851,-293.3 851,-221.3 655,-221.3"/>
<text xml:space="preserve" text-anchor="start" x="720" y="-280.8" font-family="Arial" font-style="italic" font-size="10.00">TB4: Database</text>
</g>
<g id="clust3" class="cluster">
<title>cluster_boundary_TBInternet_acf3059e70</title>
<polygon fill="none" stroke="#ee2c2c" stroke-dasharray="5,2" points="561,-553.1 561,-672.23 789,-672.23 789,-553.1 561,-553.1"/>
<text xml:space="preserve" text-anchor="start" x="646.5" y="-659.73" font-family="Arial" font-style="italic" font-size="10.00">TB1: Internet</text>
</g>
<!-- datastore_ProductStore_c6f87088c2 -->
<g id="node1" class="node">
<title>datastore_ProductStore_c6f87088c2</title>
<image xlink:href="C:\Users\afons\AppData\Local\Packages\PythonSoftwareFoundation.Python.3.13_qbz5n2kfra8p0\LocalCache\local-packages\Python313\site-packages\pytm\images\datastore_black.png" width="49.6px" height="36px" preserveAspectRatio="xMinYMin meet" x="791.2" y="-265.299"/>
<text xml:space="preserve" text-anchor="middle" x="747.75" y="-216" font-family="Arial" font-size="14.00">Product Store</text>
</g>
<!-- process_CatalogManagement_2c440ebe53 -->
<g id="node4" class="node">
<title>process_CatalogManagement_2c440ebe53</title>
<ellipse fill="none" stroke="black" cx="932" cy="-74.78" rx="58.78" ry="58.78"/>
<text xml:space="preserve" text-anchor="middle" x="932" y="-77.23" font-family="Arial" font-size="14.00">2.1 Catalog</text>
<text xml:space="preserve" text-anchor="middle" x="932" y="-61.48" font-family="Arial" font-size="14.00">Management</text>
</g>
<!-- datastore_ProductStore_c6f87088c2&#45;&gt;process_CatalogManagement_2c440ebe53 -->
<g id="edge3" class="edge">
<title>datastore_ProductStore_c6f87088c2&#45;&gt;process_CatalogManagement_2c440ebe53</title>
<path fill="none" stroke="black" d="M827.55,-229.33C842.68,-207.07 870.01,-166.91 892.91,-133.24"/>
<polygon fill="black" stroke="black" points="895.66,-135.42 898.39,-125.19 889.87,-131.49 895.66,-135.42"/>
<text xml:space="preserve" text-anchor="middle" x="906.73" y="-168.66" font-family="Arial" font-size="12.00">(3) Product</text>
<text xml:space="preserve" text-anchor="middle" x="906.73" y="-154.41" font-family="Arial" font-size="12.00">Details</text>
</g>
<!-- datastore_MachineStoreSlots_9345ab4c19 -->
<g id="node2" class="node">
<title>datastore_MachineStoreSlots_9345ab4c19</title>
<image xlink:href="C:\Users\afons\AppData\Local\Packages\PythonSoftwareFoundation.Python.3.13_qbz5n2kfra8p0\LocalCache\local-packages\Python313\site-packages\pytm\images\datastore_black.png" width="49.6px" height="36px" preserveAspectRatio="xMinYMin meet" x="665.2" y="-265.299"/>
<text xml:space="preserve" text-anchor="middle" x="619.12" y="-283.5" font-family="Arial" font-size="14.00">Machine Store</text>
<text xml:space="preserve" text-anchor="middle" x="619.12" y="-267.75" font-family="Arial" font-size="14.00">(Slots)</text>
</g>
<!-- process_SlotConfiguration_c76a0a7067 -->
<g id="node6" class="node">
<title>process_SlotConfiguration_c76a0a7067</title>
<ellipse fill="none" stroke="black" cx="739" cy="-419.82" rx="58.78" ry="58.78"/>
<text xml:space="preserve" text-anchor="middle" x="739" y="-422.27" font-family="Arial" font-size="14.00">2.3 Slot</text>
<text xml:space="preserve" text-anchor="middle" x="739" y="-406.52" font-family="Arial" font-size="14.00">Configuration</text>
</g>
<!-- datastore_MachineStoreSlots_9345ab4c19&#45;&gt;process_SlotConfiguration_c76a0a7067 -->
<g id="edge11" class="edge">
<title>datastore_MachineStoreSlots_9345ab4c19&#45;&gt;process_SlotConfiguration_c76a0a7067</title>
<path fill="none" stroke="black" d="M694.88,-265.27C700.69,-285.49 710.75,-320.52 719.81,-352.02"/>
<polygon fill="black" stroke="black" points="716.41,-352.88 722.54,-361.53 723.14,-350.95 716.41,-352.88"/>
<text xml:space="preserve" text-anchor="middle" x="757.22" y="-331.64" font-family="Arial" font-size="12.00">(11) Slot Config</text>
<text xml:space="preserve" text-anchor="middle" x="757.22" y="-317.39" font-family="Arial" font-size="12.00">Saved</text>
</g>
<!-- process_SalesProcessing_f8af758679 -->
<g id="node3" class="node">
<title>process_SalesProcessing_f8af758679</title>
<ellipse fill="none" stroke="black" cx="171" cy="-247.3" rx="49.24" ry="49.24"/>
<text xml:space="preserve" text-anchor="middle" x="171" y="-249.75" font-family="Arial" font-size="14.00">3.0 Sales</text>
<text xml:space="preserve" text-anchor="middle" x="171" y="-234" font-family="Arial" font-size="14.00">Processing</text>
</g>
<!-- process_StockOperations_0291419f72 -->
<g id="node5" class="node">
<title>process_StockOperations_0291419f72</title>
<ellipse fill="none" stroke="black" cx="334" cy="-419.82" rx="49.24" ry="49.24"/>
<text xml:space="preserve" text-anchor="middle" x="334" y="-422.27" font-family="Arial" font-size="14.00">2.2 Stock</text>
<text xml:space="preserve" text-anchor="middle" x="334" y="-406.52" font-family="Arial" font-size="14.00">Operations</text>
</g>
<!-- process_SalesProcessing_f8af758679&#45;&gt;process_StockOperations_0291419f72 -->
<g id="edge6" class="edge">
<title>process_SalesProcessing_f8af758679&#45;&gt;process_StockOperations_0291419f72</title>
<path fill="none" stroke="black" d="M125.99,-268.43C91.88,-286.55 54.22,-314.62 75.5,-343.04 99.3,-374.82 205.25,-397.78 273.9,-409.64"/>
<polygon fill="black" stroke="black" points="273.07,-413.04 283.51,-411.26 274.23,-406.14 273.07,-413.04"/>
<text xml:space="preserve" text-anchor="middle" x="119.75" y="-331.64" font-family="Arial" font-size="12.00">(6) Decrement</text>
<text xml:space="preserve" text-anchor="middle" x="119.75" y="-317.39" font-family="Arial" font-size="12.00">Stock Command</text>
</g>
<!-- process_CatalogManagement_2c440ebe53&#45;&gt;datastore_ProductStore_c6f87088c2 -->
<g id="edge2" class="edge">
<title>process_CatalogManagement_2c440ebe53&#45;&gt;datastore_ProductStore_c6f87088c2</title>
<path fill="none" stroke="black" d="M873.66,-83.5C832.25,-92.37 779.45,-111.29 752.75,-151.56 736.74,-175.72 759.78,-203.26 782.42,-222.4"/>
<polygon fill="black" stroke="black" points="780.15,-225.07 790.14,-228.6 784.53,-219.61 780.15,-225.07"/>
<text xml:space="preserve" text-anchor="middle" x="797.38" y="-168.66" font-family="Arial" font-size="12.00">(2) Write Product</text>
<text xml:space="preserve" text-anchor="middle" x="797.38" y="-154.41" font-family="Arial" font-size="12.00">Record</text>
</g>
<!-- process_StockOperations_0291419f72&#45;&gt;datastore_MachineStoreSlots_9345ab4c19 -->
<g id="edge5" class="edge">
<title>process_StockOperations_0291419f72&#45;&gt;datastore_MachineStoreSlots_9345ab4c19</title>
<path fill="none" stroke="black" d="M364.43,-380.69C385.49,-357.28 415.65,-329.07 449,-314.54 491.94,-295.82 618.89,-320.72 659,-296.54 667.27,-291.55 673.73,-283.41 678.55,-275.23"/>
<polygon fill="black" stroke="black" points="681.63,-276.91 683.12,-266.42 675.41,-273.69 681.63,-276.91"/>
<text xml:space="preserve" text-anchor="middle" x="491" y="-331.64" font-family="Arial" font-size="12.00">(5) Update</text>
<text xml:space="preserve" text-anchor="middle" x="491" y="-317.39" font-family="Arial" font-size="12.00">CurrentQuantity</text>
</g>
<!-- process_StockOperations_0291419f72&#45;&gt;process_SalesProcessing_f8af758679 -->
<g id="edge7" class="edge">
<title>process_StockOperations_0291419f72&#45;&gt;process_SalesProcessing_f8af758679</title>
<path fill="none" stroke="black" d="M294.69,-390.21C277.44,-376.79 257.47,-360.04 241.25,-343.04 228.14,-329.29 215.31,-313.08 204.27,-297.98"/>
<polygon fill="black" stroke="black" points="207.21,-296.06 198.53,-289.98 201.52,-300.15 207.21,-296.06"/>
<text xml:space="preserve" text-anchor="middle" x="282.12" y="-331.64" font-family="Arial" font-size="12.00">(7) Stock</text>
<text xml:space="preserve" text-anchor="middle" x="282.12" y="-317.39" font-family="Arial" font-size="12.00">Decrement Ack</text>
</g>
<!-- process_SlotConfiguration_c76a0a7067&#45;&gt;datastore_ProductStore_c6f87088c2 -->
<g id="edge9" class="edge">
<title>process_SlotConfiguration_c76a0a7067&#45;&gt;datastore_ProductStore_c6f87088c2</title>
<path fill="none" stroke="black" d="M785.91,-384.19C798.02,-372.59 809.48,-358.61 816,-343.04 824.84,-321.93 824.07,-295.78 821.53,-276.31"/>
<polygon fill="black" stroke="black" points="825.02,-275.99 820.02,-266.65 818.1,-277.07 825.02,-275.99"/>
<text xml:space="preserve" text-anchor="middle" x="868.28" y="-331.64" font-family="Arial" font-size="12.00">(9) Verify Product</text>
<text xml:space="preserve" text-anchor="middle" x="868.28" y="-317.39" font-family="Arial" font-size="12.00">Exists</text>
</g>
<!-- process_SlotConfiguration_c76a0a7067&#45;&gt;datastore_MachineStoreSlots_9345ab4c19 -->
<g id="edge10" class="edge">
<title>process_SlotConfiguration_c76a0a7067&#45;&gt;datastore_MachineStoreSlots_9345ab4c19</title>
<path fill="none" stroke="black" d="M680.7,-410.86C639.69,-401.88 587.6,-382.92 561.25,-343.04 514.51,-272.29 638.77,-310.11 659,-296.54 666.91,-291.23 673.23,-283.16 678.05,-275.13"/>
<polygon fill="black" stroke="black" points="681.02,-276.99 682.65,-266.52 674.85,-273.69 681.02,-276.99"/>
<text xml:space="preserve" text-anchor="middle" x="605.12" y="-331.64" font-family="Arial" font-size="12.00">(10) Update</text>
<text xml:space="preserve" text-anchor="middle" x="605.12" y="-317.39" font-family="Arial" font-size="12.00">ProductId in Slot</text>
</g>
<!-- actor_Operator_f2eb7a3ff7 -->
<g id="node7" class="node">
<title>actor_Operator_f2eb7a3ff7</title>
<polygon fill="none" stroke="black" points="625.44,-631.1 568.56,-631.1 568.56,-574.22 625.44,-574.22 625.44,-631.1"/>
<text xml:space="preserve" text-anchor="middle" x="597" y="-597.24" font-family="Arial" font-size="14.00">Operator</text>
</g>
<!-- actor_Operator_f2eb7a3ff7&#45;&gt;process_StockOperations_0291419f72 -->
<g id="edge4" class="edge">
<title>actor_Operator_f2eb7a3ff7&#45;&gt;process_StockOperations_0291419f72</title>
<path fill="none" stroke="black" d="M568.1,-581.79C523.67,-551.24 438,-492.33 383.54,-454.88"/>
<polygon fill="black" stroke="black" points="385.55,-452.02 375.33,-449.23 381.58,-457.78 385.55,-452.02"/>
<text xml:space="preserve" text-anchor="middle" x="551.67" y="-531.7" font-family="Arial" font-size="12.00">(4) Restock Event</text>
<text xml:space="preserve" text-anchor="middle" x="551.67" y="-517.45" font-family="Arial" font-size="12.00">(Quantities)</text>
</g>
<!-- actor_Administrator_d2006ce1bb -->
<g id="node8" class="node">
<title>actor_Administrator_d2006ce1bb</title>
<polygon fill="none" stroke="black" points="780.57,-644.23 697.43,-644.23 697.43,-561.1 780.57,-561.1 780.57,-644.23"/>
<text xml:space="preserve" text-anchor="middle" x="739" y="-597.24" font-family="Arial" font-size="14.00">Administrator</text>
</g>
<!-- actor_Administrator_d2006ce1bb&#45;&gt;process_CatalogManagement_2c440ebe53 -->
<g id="edge1" class="edge">
<title>actor_Administrator_d2006ce1bb&#45;&gt;process_CatalogManagement_2c440ebe53</title>
<path fill="none" stroke="black" d="M781.06,-588.98C805.49,-579.72 835.25,-564.93 855,-543.1 918.91,-472.44 908.36,-435.33 932,-343.04 953.26,-260.06 966.06,-236.37 954,-151.56 953.55,-148.38 952.99,-145.15 952.36,-141.9"/>
<polygon fill="black" stroke="black" points="955.82,-141.34 950.26,-132.32 948.98,-142.84 955.82,-141.34"/>
<text xml:space="preserve" text-anchor="middle" x="987.06" y="-331.64" font-family="Arial" font-size="12.00">(1) Create/Update</text>
<text xml:space="preserve" text-anchor="middle" x="987.06" y="-317.39" font-family="Arial" font-size="12.00">Product</text>
</g>
<!-- actor_Administrator_d2006ce1bb&#45;&gt;process_SlotConfiguration_c76a0a7067 -->
<g id="edge8" class="edge">
<title>actor_Administrator_d2006ce1bb&#45;&gt;process_SlotConfiguration_c76a0a7067</title>
<path fill="none" stroke="black" d="M739,-560.63C739,-539.85 739,-514.05 739,-490.3"/>
<polygon fill="black" stroke="black" points="742.5,-490.34 739,-480.34 735.5,-490.34 742.5,-490.34"/>
<text xml:space="preserve" text-anchor="middle" x="788.12" y="-531.7" font-family="Arial" font-size="12.00">(8) Assign Product</text>
<text xml:space="preserve" text-anchor="middle" x="788.12" y="-517.45" font-family="Arial" font-size="12.00">to Slot</text>
</g>
</g>
</svg>
