<?plantuml 1.2026.2?><svg xmlns="http://www.w3.org/2000/svg" xmlns:xlink="http://www.w3.org/1999/xlink" contentStyleType="text/css" data-diagram-type="SEQUENCE" height="1610px" preserveAspectRatio="none" style="width:1898px;height:1610px;background:#FFFFFF;" version="1.1" viewBox="0 0 1898 1610" width="1898px" zoomAndPan="magnify"><title>Authentication Flow &#8212; Human Actor (JWT) + Edge Device (mTLS)</title><defs/><g><text fill="#000000" font-family="sans-serif" font-size="14" font-weight="bold" lengthAdjust="spacing" textLength="467.4141" x="711.6738" y="28.5352">Authentication Flow &#8212; Human Actor (JWT) + Edge Device (mTLS)</text><rect fill="none" height="370.6367" style="stroke:#000000;stroke-width:1.5;" width="1752.0068" x="10" y="385.9492"/><rect fill="none" height="149.5078" style="stroke:#000000;stroke-width:1.5;" width="1732.0068" x="20" y="600.0781"/><rect fill="none" height="285.75" style="stroke:#000000;stroke-width:1.5;" width="1861.7617" x="20" y="917.1387"/><rect fill="none" height="148.5078" style="stroke:#000000;stroke-width:1.5;" width="691.0396" x="230.5234" y="1347.1309"/><g class="participant-lifeline" data-entity-uid="part1" data-qualified-name="User" id="part1-lifeline"><g><title>Human User</title><rect fill="#000000" fill-opacity="0.00000" height="1377.1738" width="8" x="126.2617" y="135.4648"/><line style="stroke:#181818;stroke-width:0.5;stroke-dasharray:5,5;" x1="130" x2="130" y1="135.4648" y2="1512.6387"/></g></g><g class="participant-lifeline" data-entity-uid="part2" data-qualified-name="VM" id="part2-lifeline"><g><title>Vending Machine</title><rect fill="#000000" fill-opacity="0.00000" height="1377.1738" width="8" x="297.7896" y="135.4648"/><line style="stroke:#181818;stroke-width:0.5;stroke-dasharray:5,5;" x1="301.5234" x2="301.5234" y1="135.4648" y2="1512.6387"/></g></g><g class="participant-lifeline" data-entity-uid="part3" data-qualified-name="SEC" id="part3-lifeline"><g><title>Spring Security</title><rect fill="#000000" fill-opacity="0.00000" height="1377.1738" width="8" x="546.814" y="135.4648"/><line style="stroke:#181818;stroke-width:0.5;stroke-dasharray:5,5;" x1="550.064" x2="550.064" y1="135.4648" y2="1512.6387"/></g></g><g class="participant-lifeline" data-entity-uid="part4" data-qualified-name="Auth" id="part4-lifeline"><g><title>Auth Service</title><rect fill="#000000" fill-opacity="0.00000" height="1377.1738" width="8" x="912.563" y="135.4648"/><line style="stroke:#181818;stroke-width:0.5;stroke-dasharray:5,5;" x1="916.5459" x2="916.5459" y1="135.4648" y2="1512.6387"/></g></g><g class="participant-lifeline" data-entity-uid="part5" data-qualified-name="JWT" id="part5-lifeline"><g><title>JWT Token</title><rect fill="#000000" fill-opacity="0.00000" height="1377.1738" width="8" x="1173.2925" y="135.4648"/><line style="stroke:#181818;stroke-width:0.5;stroke-dasharray:5,5;" x1="1176.4243" x2="1176.4243" y1="135.4648" y2="1512.6387"/></g></g><g class="participant-lifeline" data-entity-uid="part6" data-qualified-name="DB" id="part6-lifeline"><g><title>Users DB</title><rect fill="#000000" fill-opacity="0.00000" height="1377.1738" width="8" x="1521.791" y="135.4648"/><line style="stroke:#181818;stroke-width:0.5;stroke-dasharray:5,5;" x1="1525.5557" x2="1525.5557" y1="135.4648" y2="1512.6387"/></g></g><g class="participant-lifeline" data-entity-uid="part7" data-qualified-name="Redis" id="part7-lifeline"><g><title>Redis</title><rect fill="#000000" fill-opacity="0.00000" height="1377.1738" width="8" x="1596.2861" y="135.4648"/><line style="stroke:#181818;stroke-width:0.5;stroke-dasharray:5,5;" x1="1600.0264" x2="1600.0264" y1="135.4648" y2="1512.6387"/></g></g><g class="participant-lifeline" data-entity-uid="part8" data-qualified-name="MFA" id="part8-lifeline"><g><title>TOTP MFA</title><rect fill="#000000" fill-opacity="0.00000" height="1377.1738" width="8" x="1687.7764" y="135.4648"/><line style="stroke:#181818;stroke-width:0.5;stroke-dasharray:5,5;" x1="1691.5459" x2="1691.5459" y1="135.4648" y2="1512.6387"/></g></g><g class="participant participant-head" data-entity-uid="part1" data-qualified-name="User" id="part1-head"><text fill="#000000" font-family="sans-serif" font-size="14" lengthAdjust="spacing" textLength="83.2617" x="85.6309" y="116.0234">Human User</text><text fill="#000000" font-family="sans-serif" font-size="14" lengthAdjust="spacing" textLength="194.5234" x="30" y="132.5117">(Customer/Operator/Admin)</text><ellipse cx="130.2617" cy="50.9883" fill="#E2E2F0" rx="8" ry="8" style="stroke:#181818;stroke-width:0.5;"/><path d="M130.2617,58.9883 L130.2617,85.9883 M117.2617,66.9883 L143.2617,66.9883 M130.2617,85.9883 L117.2617,100.9883 M130.2617,85.9883 L143.2617,100.9883" fill="none" style="stroke:#181818;stroke-width:0.5;"/></g><g class="participant participant-tail" data-entity-uid="part1" data-qualified-name="User" id="part1-tail"><text fill="#000000" font-family="sans-serif" font-size="14" lengthAdjust="spacing" textLength="83.2617" x="85.6309" y="1525.1738">Human User</text><text fill="#000000" font-family="sans-serif" font-size="14" lengthAdjust="spacing" textLength="194.5234" x="30" y="1541.6621">(Customer/Operator/Admin)</text><ellipse cx="130.2617" cy="1553.1152" fill="#E2E2F0" rx="8" ry="8" style="stroke:#181818;stroke-width:0.5;"/><path d="M130.2617,1561.1152 L130.2617,1588.1152 M117.2617,1569.1152 L143.2617,1569.1152 M130.2617,1588.1152 L117.2617,1603.1152 M130.2617,1588.1152 L143.2617,1603.1152" fill="none" style="stroke:#181818;stroke-width:0.5;"/></g><g class="participant participant-head" data-entity-uid="part2" data-qualified-name="VM" id="part2-head"><text fill="#000000" font-family="sans-serif" font-size="14" lengthAdjust="spacing" textLength="116.5322" x="240.5234" y="116.0234">Vending Machine</text><text fill="#000000" font-family="sans-serif" font-size="14" lengthAdjust="spacing" textLength="91.0137" x="253.2827" y="132.5117">(Edge Device)</text><ellipse cx="301.7896" cy="50.9883" fill="#E2E2F0" rx="8" ry="8" style="stroke:#181818;stroke-width:0.5;"/><path d="M301.7896,58.9883 L301.7896,85.9883 M288.7896,66.9883 L314.7896,66.9883 M301.7896,85.9883 L288.7896,100.9883 M301.7896,85.9883 L314.7896,100.9883" fill="none" style="stroke:#181818;stroke-width:0.5;"/></g><g class="participant participant-tail" data-entity-uid="part2" data-qualified-name="VM" id="part2-tail"><text fill="#000000" font-family="sans-serif" font-size="14" lengthAdjust="spacing" textLength="116.5322" x="240.5234" y="1525.1738">Vending Machine</text><text fill="#000000" font-family="sans-serif" font-size="14" lengthAdjust="spacing" textLength="91.0137" x="253.2827" y="1541.6621">(Edge Device)</text><ellipse cx="301.7896" cy="1553.1152" fill="#E2E2F0" rx="8" ry="8" style="stroke:#181818;stroke-width:0.5;"/><path d="M301.7896,1561.1152 L301.7896,1588.1152 M288.7896,1569.1152 L314.7896,1569.1152 M301.7896,1588.1152 L288.7896,1603.1152 M301.7896,1588.1152 L314.7896,1603.1152" fill="none" style="stroke:#181818;stroke-width:0.5;"/></g><g class="participant participant-head" data-entity-uid="part3" data-qualified-name="SEC" id="part3-head"><rect fill="#E2E2F0" height="46.9766" rx="2.5" ry="2.5" style="stroke:#181818;stroke-width:0.5;" width="115.5" x="493.064" y="87.4883"/><text fill="#000000" font-family="sans-serif" font-size="14" lengthAdjust="spacing" textLength="101.5" x="500.064" y="108.0234">Spring Security</text><text fill="#000000" font-family="sans-serif" font-size="14" lengthAdjust="spacing" textLength="77.6357" x="511.9961" y="124.5117">Filter Chain</text></g><g class="participant participant-tail" data-entity-uid="part3" data-qualified-name="SEC" id="part3-tail"><rect fill="#E2E2F0" height="46.9766" rx="2.5" ry="2.5" style="stroke:#181818;stroke-width:0.5;" width="115.5" x="493.064" y="1511.6387"/><text fill="#000000" font-family="sans-serif" font-size="14" lengthAdjust="spacing" textLength="101.5" x="500.064" y="1532.1738">Spring Security</text><text fill="#000000" font-family="sans-serif" font-size="14" lengthAdjust="spacing" textLength="77.6357" x="511.9961" y="1548.6621">Filter Chain</text></g><g class="participant participant-head" data-entity-uid="part4" data-qualified-name="Auth" id="part4-head"><rect fill="#E2E2F0" height="46.9766" rx="2.5" ry="2.5" style="stroke:#181818;stroke-width:0.5;" width="98.0342" x="867.5459" y="87.4883"/><text fill="#000000" font-family="sans-serif" font-size="14" lengthAdjust="spacing" textLength="84.0342" x="874.5459" y="108.0234">Auth Service</text><text fill="#000000" font-family="sans-serif" font-size="14" lengthAdjust="spacing" textLength="38.9785" x="897.0737" y="124.5117">(P1.0)</text></g><g class="participant participant-tail" data-entity-uid="part4" data-qualified-name="Auth" id="part4-tail"><rect fill="#E2E2F0" height="46.9766" rx="2.5" ry="2.5" style="stroke:#181818;stroke-width:0.5;" width="98.0342" x="867.5459" y="1511.6387"/><text fill="#000000" font-family="sans-serif" font-size="14" lengthAdjust="spacing" textLength="84.0342" x="874.5459" y="1532.1738">Auth Service</text><text fill="#000000" font-family="sans-serif" font-size="14" lengthAdjust="spacing" textLength="38.9785" x="897.0737" y="1548.6621">(P1.0)</text></g><g class="participant participant-head" data-entity-uid="part5" data-qualified-name="JWT" id="part5-head"><rect fill="#E2E2F0" height="46.9766" rx="2.5" ry="2.5" style="stroke:#181818;stroke-width:0.5;" width="85.7363" x="1134.4243" y="87.4883"/><text fill="#000000" font-family="sans-serif" font-size="14" lengthAdjust="spacing" textLength="71.7363" x="1141.4243" y="108.0234">JWT Token</text><text fill="#000000" font-family="sans-serif" font-size="14" lengthAdjust="spacing" textLength="61.0859" x="1146.7495" y="124.5117">Validator</text></g><g class="participant participant-tail" data-entity-uid="part5" data-qualified-name="JWT" id="part5-tail"><rect fill="#E2E2F0" height="46.9766" rx="2.5" ry="2.5" style="stroke:#181818;stroke-width:0.5;" width="85.7363" x="1134.4243" y="1511.6387"/><text fill="#000000" font-family="sans-serif" font-size="14" lengthAdjust="spacing" textLength="71.7363" x="1141.4243" y="1532.1738">JWT Token</text><text fill="#000000" font-family="sans-serif" font-size="14" lengthAdjust="spacing" textLength="61.0859" x="1146.7495" y="1548.6621">Validator</text></g><g class="participant participant-head" data-entity-uid="part6" data-qualified-name="DB" id="part6-head"><text fill="#000000" font-family="sans-serif" font-size="14" lengthAdjust="spacing" textLength="60.4707" x="1492.5557" y="116.0234">Users DB</text><text fill="#000000" font-family="sans-serif" font-size="14" lengthAdjust="spacing" textLength="35.9844" x="1504.7988" y="132.5117">(DS1)</text><path d="M1507.791,66.4883 C1507.791,56.4883 1525.791,56.4883 1525.791,56.4883 C1525.791,56.4883 1543.791,56.4883 1543.791,66.4883 L1543.791,92.4883 C1543.791,102.4883 1525.791,102.4883 1525.791,102.4883 C1525.791,102.4883 1507.791,102.4883 1507.791,92.4883 L1507.791,66.4883" fill="#E2E2F0" style="stroke:#181818;stroke-width:0.5;"/><path d="M1507.791,66.4883 C1507.791,76.4883 1525.791,76.4883 1525.791,76.4883 C1525.791,76.4883 1543.791,76.4883 1543.791,66.4883" fill="none" style="stroke:#181818;stroke-width:0.5;"/></g><g class="participant participant-tail" data-entity-uid="part6" data-qualified-name="DB" id="part6-tail"><text fill="#000000" font-family="sans-serif" font-size="14" lengthAdjust="spacing" textLength="60.4707" x="1492.5557" y="1525.1738">Users DB</text><text fill="#000000" font-family="sans-serif" font-size="14" lengthAdjust="spacing" textLength="35.9844" x="1504.7988" y="1541.6621">(DS1)</text><path d="M1507.791,1554.6152 C1507.791,1544.6152 1525.791,1544.6152 1525.791,1544.6152 C1525.791,1544.6152 1543.791,1544.6152 1543.791,1554.6152 L1543.791,1580.6152 C1543.791,1590.6152 1525.791,1590.6152 1525.791,1590.6152 C1525.791,1590.6152 1507.791,1590.6152 1507.791,1580.6152 L1507.791,1554.6152" fill="#E2E2F0" style="stroke:#181818;stroke-width:0.5;"/><path d="M1507.791,1554.6152 C1507.791,1564.6152 1525.791,1564.6152 1525.791,1564.6152 C1525.791,1564.6152 1543.791,1564.6152 1543.791,1554.6152" fill="none" style="stroke:#181818;stroke-width:0.5;"/></g><g class="participant participant-head" data-entity-uid="part7" data-qualified-name="Redis" id="part7-head"><text fill="#000000" font-family="sans-serif" font-size="14" lengthAdjust="spacing" textLength="36.6475" x="1578.9624" y="116.0234">Redis</text><text fill="#000000" font-family="sans-serif" font-size="14" lengthAdjust="spacing" textLength="56.5195" x="1569.0264" y="132.5117">Blocklist</text><path d="M1582.2861,66.4883 C1582.2861,56.4883 1600.2861,56.4883 1600.2861,56.4883 C1600.2861,56.4883 1618.2861,56.4883 1618.2861,66.4883 L1618.2861,92.4883 C1618.2861,102.4883 1600.2861,102.4883 1600.2861,102.4883 C1600.2861,102.4883 1582.2861,102.4883 1582.2861,92.4883 L1582.2861,66.4883" fill="#E2E2F0" style="stroke:#181818;stroke-width:0.5;"/><path d="M1582.2861,66.4883 C1582.2861,76.4883 1600.2861,76.4883 1600.2861,76.4883 C1600.2861,76.4883 1618.2861,76.4883 1618.2861,66.4883" fill="none" style="stroke:#181818;stroke-width:0.5;"/></g><g class="participant participant-tail" data-entity-uid="part7" data-qualified-name="Redis" id="part7-tail"><text fill="#000000" font-family="sans-serif" font-size="14" lengthAdjust="spacing" textLength="36.6475" x="1578.9624" y="1525.1738">Redis</text><text fill="#000000" font-family="sans-serif" font-size="14" lengthAdjust="spacing" textLength="56.5195" x="1569.0264" y="1541.6621">Blocklist</text><path d="M1582.2861,1554.6152 C1582.2861,1544.6152 1600.2861,1544.6152 1600.2861,1544.6152 C1600.2861,1544.6152 1618.2861,1544.6152 1618.2861,1554.6152 L1618.2861,1580.6152 C1618.2861,1590.6152 1600.2861,1590.6152 1600.2861,1590.6152 C1600.2861,1590.6152 1582.2861,1590.6152 1582.2861,1580.6152 L1582.2861,1554.6152" fill="#E2E2F0" style="stroke:#181818;stroke-width:0.5;"/><path d="M1582.2861,1554.6152 C1582.2861,1564.6152 1600.2861,1564.6152 1600.2861,1564.6152 C1600.2861,1564.6152 1618.2861,1564.6152 1618.2861,1554.6152" fill="none" style="stroke:#181818;stroke-width:0.5;"/></g><g class="participant participant-head" data-entity-uid="part8" data-qualified-name="MFA" id="part8-head"><rect fill="#E2E2F0" height="46.9766" rx="2.5" ry="2.5" style="stroke:#181818;stroke-width:0.5;" width="100.4609" x="1641.5459" y="87.4883"/><text fill="#000000" font-family="sans-serif" font-size="14" lengthAdjust="spacing" textLength="69.9727" x="1656.79" y="108.0234">TOTP MFA</text><text fill="#000000" font-family="sans-serif" font-size="14" lengthAdjust="spacing" textLength="86.4609" x="1648.5459" y="124.5117">(Admin only)</text></g><g class="participant participant-tail" data-entity-uid="part8" data-qualified-name="MFA" id="part8-tail"><rect fill="#E2E2F0" height="46.9766" rx="2.5" ry="2.5" style="stroke:#181818;stroke-width:0.5;" width="100.4609" x="1641.5459" y="1511.6387"/><text fill="#000000" font-family="sans-serif" font-size="14" lengthAdjust="spacing" textLength="69.9727" x="1656.79" y="1532.1738">TOTP MFA</text><text fill="#000000" font-family="sans-serif" font-size="14" lengthAdjust="spacing" textLength="86.4609" x="1648.5459" y="1548.6621">(Admin only)</text></g><rect fill="#EEEEEE" height="3" style="stroke:#EEEEEE;stroke-width:1;" width="1891.7617" x="0" y="166.1201"/><line style="stroke:#000000;stroke-width:1;" x1="0" x2="1891.7617" y1="166.1201" y2="166.1201"/><line style="stroke:#000000;stroke-width:1;" x1="0" x2="1891.7617" y1="169.1201" y2="169.1201"/><rect fill="#EEEEEE" height="23.3105" style="stroke:#000000;stroke-width:2;" width="179.0962" x="856.3328" y="155.4648"/><text fill="#000000" font-family="sans-serif" font-size="13" font-weight="bold" lengthAdjust="spacing" textLength="160.8115" x="862.3328" y="172.0332">Human: Password Login</text><g class="message" data-entity-1="part1" data-entity-2="part3" id="msg1"><polygon fill="#181818" points="538.814,221.3965,548.814,225.3965,538.814,229.3965,542.814,225.3965" style="stroke:#181818;stroke-width:1;"/><line style="stroke:#181818;stroke-width:1;" x1="130.2617" x2="544.814" y1="225.3965" y2="225.3965"/><text fill="#000000" font-family="sans-serif" font-size="13" lengthAdjust="spacing" textLength="225.0942" x="137.2617" y="205.3438">POST /auth/login {email, password}</text><text fill="#000000" font-family="sans-serif" font-size="13" lengthAdjust="spacing" textLength="91.1143" x="137.2617" y="220.6543">HTTPS TLS 1.3</text></g><g class="message" data-entity-1="part3" data-entity-2="part4" id="msg2"><polygon fill="#181818" points="904.563,250.707,914.563,254.707,904.563,258.707,908.563,254.707" style="stroke:#181818;stroke-width:1;"/><line style="stroke:#181818;stroke-width:1;" x1="550.814" x2="910.563" y1="254.707" y2="254.707"/><text fill="#000000" font-family="sans-serif" font-size="13" lengthAdjust="spacing" textLength="237.3198" x="557.814" y="249.9648">AuthenticationManager.authenticate()</text></g><g class="message" data-entity-1="part4" data-entity-2="part6" id="msg3"><polygon fill="#181818" points="1513.791,280.0176,1523.791,284.0176,1513.791,288.0176,1517.791,284.0176" style="stroke:#181818;stroke-width:1;"/><line style="stroke:#181818;stroke-width:1;" x1="916.563" x2="1519.791" y1="284.0176" y2="284.0176"/><text fill="#000000" font-family="sans-serif" font-size="13" lengthAdjust="spacing" textLength="218.645" x="923.563" y="279.2754">SELECT user WHERE email = :email</text></g><g class="message" data-entity-1="part6" data-entity-2="part4" id="msg4"><polygon fill="#181818" points="927.563,309.3281,917.563,313.3281,927.563,317.3281,923.563,313.3281" style="stroke:#181818;stroke-width:1;"/><line style="stroke:#181818;stroke-width:1;stroke-dasharray:2,2;" x1="921.563" x2="1524.791" y1="313.3281" y2="313.3281"/><text fill="#000000" font-family="sans-serif" font-size="13" lengthAdjust="spacing" textLength="261.1489" x="933.563" y="308.5859">User {passwordHash, accountStatus, role}</text></g><g class="message" data-entity-1="part4" data-entity-2="part4" id="msg5"><line style="stroke:#181818;stroke-width:1;" x1="916.563" x2="958.563" y1="357.9492" y2="357.9492"/><line style="stroke:#181818;stroke-width:1;" x1="958.563" x2="958.563" y1="357.9492" y2="370.9492"/><line style="stroke:#181818;stroke-width:1;" x1="917.563" x2="958.563" y1="370.9492" y2="370.9492"/><polygon fill="#181818" points="927.563,366.9492,917.563,370.9492,927.563,374.9492,923.563,370.9492" style="stroke:#181818;stroke-width:1;"/><text fill="#000000" font-family="sans-serif" font-size="13" lengthAdjust="spacing" textLength="212.6147" x="923.563" y="337.8965">BCryptPasswordEncoder(cost=12)</text><text fill="#000000" font-family="sans-serif" font-size="13" lengthAdjust="spacing" textLength="163.6299" x="923.563" y="353.207">.matches(password, hash)</text></g><path d="M10,385.9492 L72.1387,385.9492 L72.1387,393.2598 L62.1387,403.2598 L10,403.2598 L10,385.9492" fill="#EEEEEE" style="stroke:#000000;stroke-width:1.5;"/><rect fill="none" height="370.6367" style="stroke:#000000;stroke-width:1.5;" width="1752.0068" x="10" y="385.9492"/><text fill="#000000" font-family="sans-serif" font-size="13" font-weight="bold" lengthAdjust="spacing" textLength="17.1387" x="25" y="399.5176">alt</text><text fill="#000000" font-family="sans-serif" font-size="11" font-weight="bold" lengthAdjust="spacing" textLength="237.2358" x="87.1387" y="398.584">[AccountStatus = SUSPENDED or LOCKED]</text><g class="message" data-entity-1="part4" data-entity-2="part3" id="msg6"><polygon fill="#181818" points="561.814,420.5703,551.814,424.5703,561.814,428.5703,557.814,424.5703" style="stroke:#181818;stroke-width:1;"/><line style="stroke:#181818;stroke-width:1;stroke-dasharray:2,2;" x1="555.814" x2="915.563" y1="424.5703" y2="424.5703"/><text fill="#000000" font-family="sans-serif" font-size="13" lengthAdjust="spacing" textLength="116.4414" x="567.814" y="419.8281">DisabledException</text></g><g class="message" data-entity-1="part3" data-entity-2="part1" id="msg7"><polygon fill="#181818" points="141.2617,449.8809,131.2617,453.8809,141.2617,457.8809,137.2617,453.8809" style="stroke:#181818;stroke-width:1;"/><line style="stroke:#181818;stroke-width:1;stroke-dasharray:2,2;" x1="135.2617" x2="549.814" y1="453.8809" y2="453.8809"/><text fill="#000000" font-family="sans-serif" font-size="13" lengthAdjust="spacing" textLength="243.6738" x="147.2617" y="449.1387">HTTP 401 {"error":"Invalid credentials"}</text></g><line style="stroke:#000000;stroke-width:1;stroke-dasharray:2,2;" x1="10" x2="1762.0068" y1="462.8809" y2="462.8809"/><text fill="#000000" font-family="sans-serif" font-size="11" font-weight="bold" lengthAdjust="spacing" textLength="102.9316" x="15" y="473.5156">[Valid credentials]</text><g class="message" data-entity-1="part4" data-entity-2="part5" id="msg8"><polygon fill="#181818" points="1165.2925,494.1465,1175.2925,498.1465,1165.2925,502.1465,1169.2925,498.1465" style="stroke:#181818;stroke-width:1;"/><line style="stroke:#181818;stroke-width:1;" x1="916.563" x2="1171.2925" y1="498.1465" y2="498.1465"/><text fill="#000000" font-family="sans-serif" font-size="13" lengthAdjust="spacing" textLength="236.7295" x="923.563" y="493.4043">issue(sub, jti=UUID, exp, alg=HS256)</text></g><g class="message" data-entity-1="part5" data-entity-2="part5" id="msg9"><line style="stroke:#181818;stroke-width:1;" x1="1177.2925" x2="1219.2925" y1="542.7676" y2="542.7676"/><line style="stroke:#181818;stroke-width:1;" x1="1219.2925" x2="1219.2925" y1="542.7676" y2="555.7676"/><line style="stroke:#181818;stroke-width:1;" x1="1178.2925" x2="1219.2925" y1="555.7676" y2="555.7676"/><polygon fill="#181818" points="1188.2925,551.7676,1178.2925,555.7676,1188.2925,559.7676,1184.2925,555.7676" style="stroke:#181818;stroke-width:1;"/><text fill="#000000" font-family="sans-serif" font-size="13" lengthAdjust="spacing" textLength="225.1704" x="1184.2925" y="522.7148">sign with Keys.secretKeyFor(HS256)</text><text fill="#000000" font-family="sans-serif" font-size="13" lengthAdjust="spacing" textLength="247.5396" x="1184.2925" y="538.0254">[256-bit key from JWT_SECRET env var]</text></g><g class="message" data-entity-1="part5" data-entity-2="part4" id="msg10"><polygon fill="#181818" points="927.563,581.0781,917.563,585.0781,927.563,589.0781,923.563,585.0781" style="stroke:#181818;stroke-width:1;"/><line style="stroke:#181818;stroke-width:1;stroke-dasharray:2,2;" x1="921.563" x2="1176.2925" y1="585.0781" y2="585.0781"/><text fill="#000000" font-family="sans-serif" font-size="13" lengthAdjust="spacing" textLength="233.4351" x="933.563" y="580.3359">signed JWT (no role claim in payload)</text></g><path d="M20,600.0781 L82.1387,600.0781 L82.1387,607.3887 L72.1387,617.3887 L20,617.3887 L20,600.0781" fill="#EEEEEE" style="stroke:#000000;stroke-width:1.5;"/><rect fill="none" height="149.5078" style="stroke:#000000;stroke-width:1.5;" width="1732.0068" x="20" y="600.0781"/><text fill="#000000" font-family="sans-serif" font-size="13" font-weight="bold" lengthAdjust="spacing" textLength="17.1387" x="35" y="613.6465">alt</text><text fill="#000000" font-family="sans-serif" font-size="11" font-weight="bold" lengthAdjust="spacing" textLength="145.1431" x="97.1387" y="612.7129">[Role = ADMINISTRATOR]</text><g class="message" data-entity-1="part4" data-entity-2="part1" id="msg11"><polygon fill="#181818" points="141.2617,634.6992,131.2617,638.6992,141.2617,642.6992,137.2617,638.6992" style="stroke:#181818;stroke-width:1;"/><line style="stroke:#181818;stroke-width:1;stroke-dasharray:2,2;" x1="135.2617" x2="915.563" y1="638.6992" y2="638.6992"/><text fill="#000000" font-family="sans-serif" font-size="13" lengthAdjust="spacing" textLength="255.3916" x="147.2617" y="633.957">HTTP 200 + partial token (mfa_pending)</text></g><g class="message" data-entity-1="part1" data-entity-2="part8" id="msg12"><polygon fill="#181818" points="1679.7764,664.0098,1689.7764,668.0098,1679.7764,672.0098,1683.7764,668.0098" style="stroke:#181818;stroke-width:1;"/><line style="stroke:#181818;stroke-width:1;" x1="130.2617" x2="1685.7764" y1="668.0098" y2="668.0098"/><text fill="#000000" font-family="sans-serif" font-size="13" lengthAdjust="spacing" textLength="218.9941" x="137.2617" y="663.2676">POST /auth/mfa/verify {totp_code}</text></g><g class="message" data-entity-1="part8" data-entity-2="part1" id="msg13"><polygon fill="#181818" points="141.2617,693.3203,131.2617,697.3203,141.2617,701.3203,137.2617,697.3203" style="stroke:#181818;stroke-width:1;"/><line style="stroke:#181818;stroke-width:1;stroke-dasharray:2,2;" x1="135.2617" x2="1690.7764" y1="697.3203" y2="697.3203"/><text fill="#000000" font-family="sans-serif" font-size="13" lengthAdjust="spacing" textLength="173.6021" x="147.2617" y="692.5781">HTTP 200 + full Admin JWT</text></g><line style="stroke:#000000;stroke-width:1;stroke-dasharray:2,2;" x1="20" x2="1752.0068" y1="706.3203" y2="706.3203"/><text fill="#000000" font-family="sans-serif" font-size="11" font-weight="bold" lengthAdjust="spacing" textLength="73.106" x="25" y="716.9551">[Non-admin]</text><g class="message" data-entity-1="part4" data-entity-2="part1" id="msg14"><polygon fill="#181818" points="141.2617,737.5859,131.2617,741.5859,141.2617,745.5859,137.2617,741.5859" style="stroke:#181818;stroke-width:1;"/><line style="stroke:#181818;stroke-width:1;stroke-dasharray:2,2;" x1="135.2617" x2="915.563" y1="741.5859" y2="741.5859"/><text fill="#000000" font-family="sans-serif" font-size="13" lengthAdjust="spacing" textLength="103.8984" x="147.2617" y="736.8438">HTTP 200 + JWT</text></g><rect fill="#EEEEEE" height="3" style="stroke:#EEEEEE;stroke-width:1;" width="1891.7617" x="0" y="784.2412"/><line style="stroke:#000000;stroke-width:1;" x1="0" x2="1891.7617" y1="784.2412" y2="784.2412"/><line style="stroke:#000000;stroke-width:1;" x1="0" x2="1891.7617" y1="787.2412" y2="787.2412"/><rect fill="#EEEEEE" height="23.3105" style="stroke:#000000;stroke-width:2;" width="162.0146" x="864.8735" y="773.5859"/><text fill="#000000" font-family="sans-serif" font-size="13" font-weight="bold" lengthAdjust="spacing" textLength="143.73" x="870.8735" y="790.1543">Subsequent Requests</text><g class="message" data-entity-1="part1" data-entity-2="part3" id="msg15"><polygon fill="#181818" points="538.814,839.5176,548.814,843.5176,538.814,847.5176,542.814,843.5176" style="stroke:#181818;stroke-width:1;"/><line style="stroke:#181818;stroke-width:1;" x1="130.2617" x2="544.814" y1="843.5176" y2="843.5176"/><text fill="#000000" font-family="sans-serif" font-size="13" lengthAdjust="spacing" textLength="120.7959" x="137.2617" y="823.4648">GET /any/endpoint</text><text fill="#000000" font-family="sans-serif" font-size="13" lengthAdjust="spacing" textLength="182.5078" x="137.2617" y="838.7754">Authorization: Bearer &lt;JWT&gt;</text></g><g class="message" data-entity-1="part3" data-entity-2="part5" id="msg16"><polygon fill="#181818" points="1165.2925,868.8281,1175.2925,872.8281,1165.2925,876.8281,1169.2925,872.8281" style="stroke:#181818;stroke-width:1;"/><line style="stroke:#181818;stroke-width:1;" x1="550.814" x2="1171.2925" y1="872.8281" y2="872.8281"/><text fill="#000000" font-family="sans-serif" font-size="13" lengthAdjust="spacing" textLength="274.2759" x="557.814" y="868.0859">parse &amp; verify alg=HS256 (rejects alg:none)</text></g><g class="message" data-entity-1="part5" data-entity-2="part7" id="msg17"><polygon fill="#181818" points="1588.2861,898.1387,1598.2861,902.1387,1588.2861,906.1387,1592.2861,902.1387" style="stroke:#181818;stroke-width:1;"/><line style="stroke:#181818;stroke-width:1;" x1="1177.2925" x2="1594.2861" y1="902.1387" y2="902.1387"/><text fill="#000000" font-family="sans-serif" font-size="13" lengthAdjust="spacing" textLength="127.1626" x="1184.2925" y="897.3965">GET jwt:revoked:{jti}</text></g><path d="M20,917.1387 L82.1387,917.1387 L82.1387,924.4492 L72.1387,934.4492 L20,934.4492 L20,917.1387" fill="#EEEEEE" style="stroke:#000000;stroke-width:1.5;"/><rect fill="none" height="285.75" style="stroke:#000000;stroke-width:1.5;" width="1861.7617" x="20" y="917.1387"/><text fill="#000000" font-family="sans-serif" font-size="13" font-weight="bold" lengthAdjust="spacing" textLength="17.1387" x="35" y="930.707">alt</text><text fill="#000000" font-family="sans-serif" font-size="11" font-weight="bold" lengthAdjust="spacing" textLength="92.7158" x="97.1387" y="929.7734">[Token revoked]</text><g class="message" data-entity-1="part7" data-entity-2="part5" id="msg18"><polygon fill="#181818" points="1188.2925,951.7598,1178.2925,955.7598,1188.2925,959.7598,1184.2925,955.7598" style="stroke:#181818;stroke-width:1;"/><line style="stroke:#181818;stroke-width:1;stroke-dasharray:2,2;" x1="1182.2925" x2="1599.2861" y1="955.7598" y2="955.7598"/><text fill="#000000" font-family="sans-serif" font-size="13" lengthAdjust="spacing" textLength="60.0107" x="1194.2925" y="951.0176">"revoked"</text></g><g class="message" data-entity-1="part5" data-entity-2="part3" id="msg19"><polygon fill="#181818" points="561.814,981.0703,551.814,985.0703,561.814,989.0703,557.814,985.0703" style="stroke:#181818;stroke-width:1;"/><line style="stroke:#181818;stroke-width:1;stroke-dasharray:2,2;" x1="555.814" x2="1176.2925" y1="985.0703" y2="985.0703"/><text fill="#000000" font-family="sans-serif" font-size="13" lengthAdjust="spacing" textLength="80.6978" x="567.814" y="980.3281">JwtException</text></g><g class="message" data-entity-1="part3" data-entity-2="part1" id="msg20"><polygon fill="#181818" points="141.2617,1010.3809,131.2617,1014.3809,141.2617,1018.3809,137.2617,1014.3809" style="stroke:#181818;stroke-width:1;"/><line style="stroke:#181818;stroke-width:1;stroke-dasharray:2,2;" x1="135.2617" x2="549.814" y1="1014.3809" y2="1014.3809"/><text fill="#000000" font-family="sans-serif" font-size="13" lengthAdjust="spacing" textLength="61.9531" x="147.2617" y="1009.6387">HTTP 401</text></g><line style="stroke:#000000;stroke-width:1;stroke-dasharray:2,2;" x1="20" x2="1881.7617" y1="1023.3809" y2="1023.3809"/><text fill="#000000" font-family="sans-serif" font-size="11" font-weight="bold" lengthAdjust="spacing" textLength="80.3516" x="25" y="1034.0156">[Token active]</text><g class="message" data-entity-1="part5" data-entity-2="part6" id="msg21"><polygon fill="#181818" points="1513.791,1057.6465,1523.791,1061.6465,1513.791,1065.6465,1517.791,1061.6465" style="stroke:#181818;stroke-width:1;"/><line style="stroke:#181818;stroke-width:1;" x1="1177.2925" x2="1519.791" y1="1061.6465" y2="1061.6465"/><text fill="#000000" font-family="sans-serif" font-size="13" lengthAdjust="spacing" textLength="324.4985" x="1184.2925" y="1056.9043">SELECT role, accountStatus WHERE username = sub</text></g><path d="M1530,1042.3359 L1530,1067.3359 L1865,1067.3359 L1865,1052.3359 L1855,1042.3359 L1530,1042.3359" fill="#FEFFDD" style="stroke:#181818;stroke-width:0.5;"/><path d="M1855,1042.3359 L1855,1052.3359 L1865,1052.3359 L1855,1042.3359" fill="#FEFFDD" style="stroke:#181818;stroke-width:0.5;"/><text fill="#000000" font-family="sans-serif" font-size="13" lengthAdjust="spacing" textLength="314.9707" x="1536" y="1059.9043">role loaded from DB &#8212; JWT payload claim ignored</text><g class="message" data-entity-1="part6" data-entity-2="part5" id="msg23"><polygon fill="#181818" points="1188.2925,1089.957,1178.2925,1093.957,1188.2925,1097.957,1184.2925,1093.957" style="stroke:#181818;stroke-width:1;"/><line style="stroke:#181818;stroke-width:1;stroke-dasharray:2,2;" x1="1182.2925" x2="1524.791" y1="1093.957" y2="1093.957"/><text fill="#000000" font-family="sans-serif" font-size="13" lengthAdjust="spacing" textLength="184.8755" x="1194.2925" y="1089.2148">{role, accountStatus=ACTIVE}</text></g><g class="message" data-entity-1="part5" data-entity-2="part3" id="msg24"><polygon fill="#181818" points="561.814,1119.2676,551.814,1123.2676,561.814,1127.2676,557.814,1123.2676" style="stroke:#181818;stroke-width:1;"/><line style="stroke:#181818;stroke-width:1;stroke-dasharray:2,2;" x1="555.814" x2="1176.2925" y1="1123.2676" y2="1123.2676"/><text fill="#000000" font-family="sans-serif" font-size="13" lengthAdjust="spacing" textLength="184.6343" x="567.814" y="1118.5254">Authentication{ROLE_&lt;role&gt;}</text></g><g class="message" data-entity-1="part3" data-entity-2="part3" id="msg25"><line style="stroke:#181818;stroke-width:1;" x1="550.814" x2="592.814" y1="1152.5781" y2="1152.5781"/><line style="stroke:#181818;stroke-width:1;" x1="592.814" x2="592.814" y1="1152.5781" y2="1165.5781"/><line style="stroke:#181818;stroke-width:1;" x1="551.814" x2="592.814" y1="1165.5781" y2="1165.5781"/><polygon fill="#181818" points="561.814,1161.5781,551.814,1165.5781,561.814,1169.5781,557.814,1165.5781" style="stroke:#181818;stroke-width:1;"/><text fill="#000000" font-family="sans-serif" font-size="13" lengthAdjust="spacing" textLength="180.6733" x="557.814" y="1147.8359">@PreAuthorize("hasRole(...)")</text></g><g class="message" data-entity-1="part3" data-entity-2="part1" id="msg26"><polygon fill="#181818" points="141.2617,1190.8887,131.2617,1194.8887,141.2617,1198.8887,137.2617,1194.8887" style="stroke:#181818;stroke-width:1;"/><line style="stroke:#181818;stroke-width:1;stroke-dasharray:2,2;" x1="135.2617" x2="549.814" y1="1194.8887" y2="1194.8887"/><text fill="#000000" font-family="sans-serif" font-size="13" lengthAdjust="spacing" textLength="137.8076" x="147.2617" y="1190.1465">HTTP 200 + response</text></g><rect fill="#EEEEEE" height="3" style="stroke:#EEEEEE;stroke-width:1;" width="1891.7617" x="0" y="1230.5439"/><line style="stroke:#000000;stroke-width:1;" x1="0" x2="1891.7617" y1="1230.5439" y2="1230.5439"/><line style="stroke:#000000;stroke-width:1;" x1="0" x2="1891.7617" y1="1233.5439" y2="1233.5439"/><rect fill="#EEEEEE" height="23.3105" style="stroke:#000000;stroke-width:2;" width="177.103" x="857.3293" y="1219.8887"/><text fill="#000000" font-family="sans-serif" font-size="13" font-weight="bold" lengthAdjust="spacing" textLength="158.8184" x="863.3293" y="1236.457">Vending Machine: mTLS</text><g class="message" data-entity-1="part2" data-entity-2="part3" id="msg27"><polygon fill="#181818" points="538.814,1270.5098,548.814,1274.5098,538.814,1278.5098,542.814,1274.5098" style="stroke:#181818;stroke-width:1;"/><line style="stroke:#181818;stroke-width:1;" x1="301.7896" x2="544.814" y1="1274.5098" y2="1274.5098"/><text fill="#000000" font-family="sans-serif" font-size="13" lengthAdjust="spacing" textLength="225.0244" x="308.7896" y="1269.7676">POST /telemetry + client X.509 cert</text></g><g class="message" data-entity-1="part3" data-entity-2="part3" id="msg28"><line style="stroke:#181818;stroke-width:1;" x1="550.814" x2="592.814" y1="1319.1309" y2="1319.1309"/><line style="stroke:#181818;stroke-width:1;" x1="592.814" x2="592.814" y1="1319.1309" y2="1332.1309"/><line style="stroke:#181818;stroke-width:1;" x1="551.814" x2="592.814" y1="1332.1309" y2="1332.1309"/><polygon fill="#181818" points="561.814,1328.1309,551.814,1332.1309,561.814,1336.1309,557.814,1332.1309" style="stroke:#181818;stroke-width:1;"/><text fill="#000000" font-family="sans-serif" font-size="13" lengthAdjust="spacing" textLength="175.2144" x="557.814" y="1299.0781">TrustManager validates cert</text><text fill="#000000" font-family="sans-serif" font-size="13" lengthAdjust="spacing" textLength="114.1372" x="557.814" y="1314.3887">against CRL/OCSP</text></g><path d="M230.5234,1347.1309 L292.6621,1347.1309 L292.6621,1354.4414 L282.6621,1364.4414 L230.5234,1364.4414 L230.5234,1347.1309" fill="#EEEEEE" style="stroke:#000000;stroke-width:1.5;"/><rect fill="none" height="148.5078" style="stroke:#000000;stroke-width:1.5;" width="691.0396" x="230.5234" y="1347.1309"/><text fill="#000000" font-family="sans-serif" font-size="13" font-weight="bold" lengthAdjust="spacing" textLength="17.1387" x="245.5234" y="1360.6992">alt</text><text fill="#000000" font-family="sans-serif" font-size="11" font-weight="bold" lengthAdjust="spacing" textLength="138.7246" x="307.6621" y="1359.7656">[Cert revoked or invalid]</text><g class="message" data-entity-1="part3" data-entity-2="part2" id="msg29"><polygon fill="#181818" points="312.7896,1381.752,302.7896,1385.752,312.7896,1389.752,308.7896,1385.752" style="stroke:#181818;stroke-width:1;"/><line style="stroke:#181818;stroke-width:1;stroke-dasharray:2,2;" x1="306.7896" x2="549.814" y1="1385.752" y2="1385.752"/><text fill="#000000" font-family="sans-serif" font-size="13" lengthAdjust="spacing" textLength="138.6963" x="318.7896" y="1381.0098">TLS handshake failure</text></g><line style="stroke:#000000;stroke-width:1;stroke-dasharray:2,2;" x1="230.5234" x2="921.563" y1="1394.752" y2="1394.752"/><text fill="#000000" font-family="sans-serif" font-size="11" font-weight="bold" lengthAdjust="spacing" textLength="62.1328" x="235.5234" y="1405.3867">[Valid cert]</text><g class="message" data-entity-1="part3" data-entity-2="part3" id="msg30"><line style="stroke:#181818;stroke-width:1;" x1="550.814" x2="592.814" y1="1445.3281" y2="1445.3281"/><line style="stroke:#181818;stroke-width:1;" x1="592.814" x2="592.814" y1="1445.3281" y2="1458.3281"/><line style="stroke:#181818;stroke-width:1;" x1="551.814" x2="592.814" y1="1458.3281" y2="1458.3281"/><polygon fill="#181818" points="561.814,1454.3281,551.814,1458.3281,561.814,1462.3281,557.814,1458.3281" style="stroke:#181818;stroke-width:1;"/><text fill="#000000" font-family="sans-serif" font-size="13" lengthAdjust="spacing" textLength="271.5337" x="557.814" y="1425.2754">Extract CN &#8594; MachineAuthenticationToken</text><text fill="#000000" font-family="sans-serif" font-size="13" lengthAdjust="spacing" textLength="351.749" x="557.814" y="1440.5859">ROLE_MACHINE (scoped to /telemetry, /sales/firmware)</text></g><g class="message" data-entity-1="part3" data-entity-2="part2" id="msg31"><polygon fill="#181818" points="312.7896,1483.6387,302.7896,1487.6387,312.7896,1491.6387,308.7896,1487.6387" style="stroke:#181818;stroke-width:1;"/><line style="stroke:#181818;stroke-width:1;stroke-dasharray:2,2;" x1="306.7896" x2="549.814" y1="1487.6387" y2="1487.6387"/><text fill="#000000" font-family="sans-serif" font-size="13" lengthAdjust="spacing" textLength="192.7275" x="318.7896" y="1482.8965">HTTP 200 + process telemetry</text></g><?plantuml-src ZLNRRY9747sVhoZn40qA5zlPZHIqMC4mZhrh36B6RAGGMUsPClHww9vqzs0JX9IdV42KBzmlINNF30Pse-G10LrrwdBwLBNX9aNevMQ1ml2O6Iu5NARo6Jx_yJTSvKice1SRgS1__p6gmxSG97E40QvuZE0levkmxddCUTGAzpkDQYRyVgwDNA9gZp9KZEpjNhBaebu3ffrFXPgYIBYOmv352owGe7if2lVfqCkOelfuneI1MfWfYmWnpXKtwvcuvAb11Vq5uy8Xmg1_2B4j4a3Pe9HYVDewAM9Rmw4hDGgHV48n4rEMyiGMxrp9uD4_zi0qGitse65mGT46uMaHR72nvp31XEkPk4Xb_9HoRPo7EppC5usYCGmlUnJ8KGHIfEiY7frwNhTRN4G7naphPwaIk95pykjsFLi4DCzjlq3sKHX1cr57xTHvR739UDg0h0HkP-8gYiOXqBt1QUixp-88xjZf7EbWo0IResgnrrFqwvxp9SpWWX1XS1Fq8yXj6H-lWaa0BYDqeUD-UEJLV4tWojrKrLmnlMW0YsEP2nCQPdBT02LJtEwIbBYBlbfdfce_4B5CKFcnrAPxUbQVYTQIcNY1sgz2Ds11mUiUImtfToy1LHRUXUFWTX0CWEHtC-f_20OU59cQEoe7NBE759FW9SRCia4kZYpoS5rqm389RqvEOLD3fKWZdTgrM5d5GAmmiPInLDUs7gOaX-cnOPVpt0gBud6jS_Hr_j20JuPtx-wk1mt0bumeIkVTg_3ixVTr0bdd7KRpkO1dJc4-u5gtD582GpylfV8Bn4pyGb_D1sxW2TVmgEJIOk-fcKaG0OeLh9ZwjGhyohaDZOaxzOLqzm9nolWII5WPMwUI9ROUI_746hlG6molRw_3QDABHXCoxR6wpzdPoGaj4ZS3B0LZHurMoIExpufLK7VGIjeq0uVI9i_s2XL_NCF6I9FTMpLi7SRwVZtROvwcK8oN7MC0ToctKZIPFVolOakCI3pxiICPvWyQVylfCcccwLiR_UL0_XJOeiMwJQXCSc5cmYQHYl_kHeoKZKmHuXqbEA-ciRXQueSg_0RALdSQ05_X9umf7HrrX1HOzqfDkELIfltqR3eALqHkqjcGdhPk5jnUW_ASEYeGpLtIMccgxUcXQENzi_aVir1elSX2-vsly5Mn-ml3gkbezClzOLU9O4ih9ne5GWjf41IVBqod4A4L7WdJAPbYseVAPYWbMMbqBgHoBPORgEXlyvN4tLu_kfu6sozQFbo7cyde9hX_PmESRoi6AjSVnmghcqM_Hil7ZeJVQhNgjVg_q5KeIw7EfD2u4zRHUzW1-yXQQKs7nvlUO8fBD6fDSUAKMot-t7fxyWF4g8ntK62aw3qkDpgiYcSDjNESqI6zczf0VtBJ7lN3iPDAdqoLKkocvCLkssk62kgubsJ1HA8Nx0dXaNP-hl1WvTbQZkWANemYUK3_5Zx_-LVLwY7VvHFiM1_s-bVNjm7uEfOPbMFaNlCDQ6kMecu_ShLyfd6g7zUultMKZ55hsA4jx_y0?></g></svg>