<?plantuml 1.2026.2?><svg xmlns="http://www.w3.org/2000/svg" xmlns:xlink="http://www.w3.org/1999/xlink" contentStyleType="text/css" data-diagram-type="DESCRIPTION" height="592px" preserveAspectRatio="none" style="width:895px;height:592px;background:#FFFFFF;" version="1.1" viewBox="0 0 895 592" width="895px" zoomAndPan="magnify"><title>OS Sandbox &amp; Filesystem Permissions</title><defs/><g><g class="title" data-source-line="1"><text fill="#000000" font-family="sans-serif" font-size="14" font-weight="bold" lengthAdjust="spacing" textLength="274.1074" x="303.4463" y="23.5352">OS Sandbox &amp; Filesystem Permissions</text></g><!--cluster /var/vendnet/ (owner: vendnet, 750)--><g class="cluster" data-qualified-name=".var.vendnet. .owner. vendnet. 750." data-source-line="12" id="ent0003"><path d="M8.5,212.3983 L275.876,212.3983 A3.75,3.75 0 0 1 278.376,214.8983 L285.376,234.8866 L885.5,234.8866 A2.5,2.5 0 0 1 888,237.3866 L888,511.3383 A2.5,2.5 0 0 1 885.5,513.8383 L8.5,513.8383 A2.5,2.5 0 0 1 6,511.3383 L6,214.8983 A2.5,2.5 0 0 1 8.5,212.3983" fill="none" style="stroke:#000000;stroke-width:1.5;"/><line style="stroke:#000000;stroke-width:1.5;" x1="6" x2="285.376" y1="234.8866" y2="234.8866"/><text fill="#000000" font-family="sans-serif" font-size="14" font-weight="bold" lengthAdjust="spacing" textLength="266.376" x="10" y="227.9334">/var/vendnet/ (owner: vendnet, 750)</text></g><!--cluster BDIR--><g class="cluster" data-qualified-name=".var.vendnet. .owner. vendnet. 750..BDIR" data-source-line="14" id="ent0004"><rect fill="#E8F5E9" height="218.44" rx="2.5" ry="2.5" style="stroke:#546E7A;stroke-width:1;" width="259" x="38" y="263.3983"/><text fill="#000000" font-family="sans-serif" font-size="14" font-style="italic" lengthAdjust="spacing" textLength="33.2568" x="150.8716" y="278.9334">&#171;dir&#187;</text><text fill="#000000" font-family="sans-serif" font-size="14" font-weight="bold" lengthAdjust="spacing" textLength="68.1201" x="133.4399" y="295.4217">backups/</text><text fill="#000000" font-family="sans-serif" font-size="14" font-weight="bold" lengthAdjust="spacing" textLength="77.8682" x="128.5659" y="311.91">POSIX: 700</text><text fill="#000000" font-family="sans-serif" font-size="14" font-weight="bold" lengthAdjust="spacing" textLength="157.5889" x="88.7056" y="328.3983">(only service account)</text></g><!--cluster LDIR--><g class="cluster" data-qualified-name=".var.vendnet. .owner. vendnet. 750..LDIR" data-source-line="18" id="ent0006"><rect fill="#E8F5E9" height="202.44" rx="2.5" ry="2.5" style="stroke:#546E7A;stroke-width:1;" width="251" x="337" y="279.3983"/><text fill="#000000" font-family="sans-serif" font-size="14" font-style="italic" lengthAdjust="spacing" textLength="33.2568" x="445.8716" y="294.9334">&#171;dir&#187;</text><text fill="#000000" font-family="sans-serif" font-size="14" font-weight="bold" lengthAdjust="spacing" textLength="83.4053" x="420.7974" y="311.4217">logs/audit/</text><text fill="#000000" font-family="sans-serif" font-size="14" font-weight="bold" lengthAdjust="spacing" textLength="77.8682" x="423.5659" y="327.91">POSIX: 750</text></g><!--cluster RDIR--><g class="cluster" data-qualified-name=".var.vendnet. .owner. vendnet. 750..RDIR" data-source-line="22" id="ent0008"><rect fill="#E8F5E9" height="185.95" rx="2.5" ry="2.5" style="stroke:#546E7A;stroke-width:1;" width="228" x="628" y="287.6383"/><text fill="#000000" font-family="sans-serif" font-size="14" font-style="italic" lengthAdjust="spacing" textLength="33.2568" x="725.3716" y="303.1734">&#171;dir&#187;</text><text fill="#000000" font-family="sans-serif" font-size="14" font-weight="bold" lengthAdjust="spacing" textLength="60.6553" x="711.6724" y="319.6617">reports/</text><text fill="#000000" font-family="sans-serif" font-size="14" font-weight="bold" lengthAdjust="spacing" textLength="77.8682" x="703.0659" y="336.15">POSIX: 750</text></g><!--entity BFILE--><g class="entity" data-qualified-name=".var.vendnet. .owner. vendnet. 750..BDIR.BFILE" data-source-line="15" id="ent0005"><rect fill="#E3F2FD" height="102.4414" rx="2.5" ry="2.5" style="stroke:#546E7A;stroke-width:0.5;" width="191.1992" x="62.4" y="355.3983"/><text fill="#000000" font-family="sans-serif" font-size="14" font-style="italic" lengthAdjust="spacing" textLength="35.7109" x="140.1441" y="378.9334">&#171;file&#187;</text><text fill="#000000" font-family="sans-serif" font-size="14" lengthAdjust="spacing" textLength="115.6572" x="72.4" y="395.4217">backup_*.sql.enc</text><text fill="#000000" font-family="sans-serif" font-size="14" lengthAdjust="spacing" textLength="74.3682" x="72.4" y="411.91">POSIX: 600</text><text fill="#000000" font-family="sans-serif" font-size="14" lengthAdjust="spacing" textLength="171.1992" x="72.4" y="428.3983">AES-256-GCM encrypted</text><text fill="#000000" font-family="sans-serif" font-size="14" lengthAdjust="spacing" textLength="102.3613" x="72.4" y="444.8866">(SR-56, SR-61)</text></g><!--entity LFILE--><g class="entity" data-qualified-name=".var.vendnet. .owner. vendnet. 750..LDIR.LFILE" data-source-line="19" id="ent0007"><rect fill="#E3F2FD" height="102.4414" rx="2.5" ry="2.5" style="stroke:#546E7A;stroke-width:0.5;" width="183.502" x="361.25" y="355.3983"/><text fill="#000000" font-family="sans-serif" font-size="14" font-style="italic" lengthAdjust="spacing" textLength="35.7109" x="435.1455" y="378.9334">&#171;file&#187;</text><text fill="#000000" font-family="sans-serif" font-size="14" lengthAdjust="spacing" textLength="163.502" x="371.25" y="395.4217">audit_YYYY-MM-DD.log</text><text fill="#000000" font-family="sans-serif" font-size="14" lengthAdjust="spacing" textLength="136.9443" x="371.25" y="411.91">POSIX: 640 (current)</text><text fill="#000000" font-family="sans-serif" font-size="14" lengthAdjust="spacing" textLength="131.7695" x="371.25" y="428.3983">.log.gz after 7 days</text><text fill="#000000" font-family="sans-serif" font-size="14" lengthAdjust="spacing" textLength="126.9365" x="371.25" y="444.8866">Deleted at 90 days</text></g><!--entity RFILE--><g class="entity" data-qualified-name=".var.vendnet. .owner. vendnet. 750..RDIR.RFILE" data-source-line="23" id="ent0009"><rect fill="#E3F2FD" height="85.9531" rx="2.5" ry="2.5" style="stroke:#546E7A;stroke-width:0.5;" width="160.9775" x="651.51" y="363.6383"/><text fill="#000000" font-family="sans-serif" font-size="14" font-style="italic" lengthAdjust="spacing" textLength="35.7109" x="714.1433" y="387.1734">&#171;file&#187;</text><text fill="#000000" font-family="sans-serif" font-size="14" lengthAdjust="spacing" textLength="89.291" x="661.51" y="403.6617">sales/ stock/</text><text fill="#000000" font-family="sans-serif" font-size="14" lengthAdjust="spacing" textLength="140.9775" x="661.51" y="420.15">Generated CSV/JSON</text><text fill="#000000" font-family="sans-serif" font-size="14" lengthAdjust="spacing" textLength="74.3682" x="661.51" y="436.6383">POSIX: 640</text></g><!--entity SYSTEMD--><g class="entity" data-qualified-name="SYSTEMD" data-source-line="10" id="ent0002"><rect fill="#FFCDD2" height="151.9063" rx="2.5" ry="2.5" style="stroke:#546E7A;stroke-width:0.5;" width="232.6455" x="463.68" y="44.4883"/><text fill="#000000" font-family="sans-serif" font-size="14" font-style="italic" lengthAdjust="spacing" textLength="71.1758" x="544.4149" y="68.0234">&#171;systemd&#187;</text><text fill="#000000" font-family="sans-serif" font-size="14" font-weight="bold" lengthAdjust="spacing" textLength="192.1924" x="473.68" y="84.5117">systemd Unit Confinement</text><text fill="#000000" font-family="sans-serif" font-size="14" lengthAdjust="spacing" textLength="95.7646" x="473.68" y="101">User=vendnet</text><text fill="#000000" font-family="sans-serif" font-size="14" lengthAdjust="spacing" textLength="150.7734" x="473.68" y="117.4883">NoNewPrivileges=true</text><text fill="#000000" font-family="sans-serif" font-size="14" lengthAdjust="spacing" textLength="135.7959" x="473.68" y="133.9766">PrivateDevices=true</text><text fill="#000000" font-family="sans-serif" font-size="14" lengthAdjust="spacing" textLength="114.8438" x="473.68" y="150.4648">PrivateTmp=true</text><text fill="#000000" font-family="sans-serif" font-size="14" lengthAdjust="spacing" textLength="212.6455" x="473.68" y="166.9531">ReadWritePaths=/var/vendnet/</text><text fill="#000000" font-family="sans-serif" font-size="14" lengthAdjust="spacing" textLength="51.3037" x="473.68" y="183.4414">(SR-17)</text></g><g class="entity" data-qualified-name="GMN13" data-source-line="32" id="ent0014"><path d="M162.18,529.8383 L162.18,585.7699 L415.8153,585.7699 L415.8153,539.8383 L405.8153,529.8383 L162.18,529.8383" fill="#FEFFDD" style="stroke:#181818;stroke-width:0.5;"/><path d="M405.8153,529.8383 L405.8153,539.8383 L415.8153,539.8383 L405.8153,529.8383" fill="#FEFFDD" style="stroke:#181818;stroke-width:1;"/><text fill="#000000" font-family="sans-serif" font-size="13" lengthAdjust="spacing" textLength="223.7168" x="168.18" y="547.4066">No sudo rights for vendnet account</text><text fill="#000000" font-family="sans-serif" font-size="13" lengthAdjust="spacing" textLength="232.6353" x="168.18" y="562.7172">useradd -r -s /sbin/nologin vendnet</text><text fill="#000000" font-family="sans-serif" font-size="13" lengthAdjust="spacing" textLength="149.7539" x="168.18" y="578.0277">(mitigating T-61, T-63)</text></g><!--link SYSTEMD to BDIR--><g class="link" data-entity-1="ent0002" data-entity-2="ent0004" data-link-type="dependency" data-source-line="27" id="lnk10"><path d="M463.24,139.4183 C420.91,151.3783 375.94,171.2783 345,204.3983 C329.405,221.0908 318.0944,241.7539 309.9038,263.4223 C305.8084,274.2566 302.4931,285.3421 299.8123,296.3083 C299.1421,299.0499 298.5115,301.784 297.9183,304.5048 C297.6217,305.8652 298.5428,301.3453 298.2646,302.6983" fill="none" id="SYSTEMD-to-BDIR" style="stroke:#181818;stroke-width:1;"/><polygon fill="#181818" points="297.0563,308.5754,302.7868,300.5653,298.0632,303.6779,294.9507,298.9543,297.0563,308.5754" style="stroke:#181818;stroke-width:1;"/></g><!--link SYSTEMD to LDIR--><g class="link" data-entity-1="ent0002" data-entity-2="ent0006" data-link-type="dependency" data-source-line="28" id="lnk11"><path d="M580,196.8483 C580,217.5658 580,240.7295 580,263.8809 C580,266.7749 580,269.6686 580,272.5573 C580,274.0017 580,275.4448 580,276.8861 C580,277.6067 580,272.3269 580,273.0465" fill="none" id="SYSTEMD-to-LDIR" style="stroke:#181818;stroke-width:1;"/><polygon fill="#181818" points="580,279.0465,584,270.0465,580,274.0465,576,270.0465,580,279.0465" style="stroke:#181818;stroke-width:1;"/></g><!--link SYSTEMD to RDIR--><g class="link" data-entity-1="ent0002" data-entity-2="ent0008" data-link-type="dependency" data-source-line="29" id="lnk12"><path d="M696.7,132.8583 C744.62,143.7083 796.21,164.5583 828,204.3983 C855.59,238.9733 860.865,288.2583 859.1088,329.397 C858.6697,339.6817 857.7912,349.4573 856.712,358.3665 C856.5771,359.4802 856.4391,360.5803 856.2984,361.6662 C856.228,362.2092 856.9521,356.8015 856.8805,357.3372" fill="none" id="SYSTEMD-to-RDIR" style="stroke:#181818;stroke-width:1;"/><polygon fill="#181818" points="856.0854,363.2843,861.2428,354.8937,856.748,358.3284,853.3133,353.8336,856.0854,363.2843" style="stroke:#181818;stroke-width:1;"/></g><!--link BDIR to GMN13--><g class="link" data-entity-1="ent0004" data-entity-2="ent0014" data-link-type="association" data-source-line="32" id="lnk15"><path d="M289,482.0156 C289,482.4302 289,482.8447 289,483.2593 C289,486.5755 289,489.8889 289,493.1734 C289,506.3114 289,518.9858 289,529.5183" fill="none" id="BDIR-GMN13" style="stroke:#181818;stroke-width:1;stroke-dasharray:7,7;"/></g><?plantuml-src VPDjJ-904CVVzrDCDBaWiHGVWDEeYL9gk00IgdTdGcAMxb0tjhkukyNZZD_zfgK-zEIE5oMP_Sz_VhCpQuLD4Av229daC_KBla0W4ZGhOp65CUfK62EKD8vZ7eHSCCrIq1XP9cDAV7O0BbZq46kLITvLYT8d9-jaVdO6sq7GzVtzJI8kT2xeVGrQlQDDWZbX58g3O3_mSuNI77Ln2jkjmtQlS-wyECuxp5QzNfQ66oaiT9MS2uafIbklJ-MDGNswHCabsgaSgH4-ZRLOKfaOpQdL6Kvb7c0MVLoAwE_WTRee0nDa_8SM5iVCtfjJRycqLnfxKraB9-vUPsSBFju4Cn3UXjUzeUyu2sgLnSHRIOIQUfAeZw4Cx4AdrIINPuTwhpGve_niORoygV5LsFzv39rcamehcQo0kipXWKKHtQOjEDQNJGmNVdzI3ArYkJQygpVCOz906RtPjdFRyrxexhVQxcLt27IeLmkBVDrcgxqBzDVUAwgK4ylB1Fr1ZwgyV69FL6mybd5XA_YjPWLpi16pIBkxfPyx7Bg-to2pTzJ39jIYJ6kQzivKvcUD-3UmkKKD7U1iPQRInmG97fY5esOHgt8F_icjSQ6qDV-3dco4DenUamV6gkY1bkCIQSOiP-Y6txrluTNeOmTLciaR3V6KsmCkfpLnpuf9VWeEDWLpBiUHoYBCbBKg1JLVfmEC59YCAz0YlhS6vlIqolLxtHyIPRHIZ7DmDRW6F3CJqfFq36CXNzMaggN2YfXP8MEuffNOpRy7Emu982_k_040?></g></svg>