<?plantuml 1.2026.2?><svg xmlns="http://www.w3.org/2000/svg" xmlns:xlink="http://www.w3.org/1999/xlink" contentStyleType="text/css" data-diagram-type="ACTIVITY" height="1661px" preserveAspectRatio="none" style="width:561px;height:1661px;background:#FFFFFF;" version="1.1" viewBox="0 0 561 1661" width="561px" zoomAndPan="magnify"><title>Path Validation Pipeline &#8212; OS Operations Security</title><defs/><g><rect fill="#FFFFCC" height="48.2813" rx="2.5" ry="2.5" style="stroke:#FFDD88;stroke-width:3;" width="550.8252" x="5" y="5"/><text fill="#000000" font-family="monospace" font-size="10" lengthAdjust="spacing" textLength="535.8252" x="10" y="20">This&#160;syntax&#160;is&#160;deprecated,&#160;you&#160;must&#160;add&#160;&lt;&lt;#FF8A80&gt;&gt;&#160;at&#160;the&#160;end&#160;of&#160;the&#160;line,&#160;after&#160;the&#160;';'</text><text fill="#000000" font-family="monospace" font-size="10" lengthAdjust="spacing" textLength="535.8252" x="10" y="41.6406">This&#160;syntax&#160;is&#160;deprecated,&#160;you&#160;must&#160;add&#160;&lt;&lt;#A5D6A7&gt;&gt;&#160;at&#160;the&#160;end&#160;of&#160;the&#160;line,&#160;after&#160;the&#160;';'</text><g class="title" data-source-line="1"><text fill="#000000" font-family="sans-serif" font-size="14" font-weight="bold" lengthAdjust="spacing" textLength="360.4795" x="20" y="91.8164">Path Validation Pipeline &#8212; OS Operations Security</text></g><ellipse cx="204.2397" cy="115.7695" fill="#222222" rx="10" ry="10" style="stroke:#222222;stroke-width:1;"/><rect fill="#E3F2FD" height="62.3984" rx="12.5" ry="12.5" style="stroke:#1565C0;stroke-width:0.5;" width="160.1328" x="124.1733" y="145.7695"/><text fill="#000000" font-family="sans-serif" font-size="12" lengthAdjust="spacing" textLength="140.1328" x="134.1733" y="167.3711">Receive user-influenced</text><text fill="#000000" font-family="sans-serif" font-size="12" lengthAdjust="spacing" textLength="95.625" x="134.1733" y="181.5039">path component</text><text fill="#000000" font-family="sans-serif" font-size="12" lengthAdjust="spacing" textLength="97.377" x="134.1733" y="195.6367">(e.g. reportType)</text><rect fill="none" height="278.8643" style="stroke:#000000;stroke-width:1.5;" width="271.5283" x="68.4756" y="218.6211"/><path d="M330.0039,218.6211 L330.0039,228.1094 L320.0039,238.1094 L68.4756,238.1094" fill="none" style="stroke:#000000;stroke-width:1.5;"/><text fill="#000000" font-family="sans-serif" font-size="14" font-weight="bold" lengthAdjust="spacing" textLength="187.3389" x="71.4756" y="233.1563">Layer 1 &#8212; Whitelist Regex</text><text fill="#000000" font-family="sans-serif" font-size="14" lengthAdjust="spacing" textLength="59.7598" x="263.2441" y="233.1563">(fast fail)</text><rect fill="#E3F2FD" height="48.2656" rx="12.5" ry="12.5" style="stroke:#1565C0;stroke-width:0.5;" width="153.2715" x="127.604" y="255.1094"/><text fill="#000000" font-family="sans-serif" font-size="12" lengthAdjust="spacing" textLength="70.043" x="137.604" y="276.7109">Apply regex</text><text fill="#000000" font-family="sans-serif" font-size="12" lengthAdjust="spacing" textLength="133.2715" x="137.604" y="290.8438">^^[a-zA-Z0-9_-]+$^^</text><rect fill="#E3F2FD" height="48.2656" rx="12.5" ry="12.5" style="stroke:#1565C0;stroke-width:0.5;" width="77.1875" x="165.646" y="371.8525"/><text fill="#000000" font-family="sans-serif" font-size="12" lengthAdjust="spacing" textLength="35.2441" x="175.646" y="393.4541">Reject</text><text fill="#000000" font-family="sans-serif" font-size="12" lengthAdjust="spacing" textLength="57.1875" x="175.646" y="407.5869">HTTP 400</text><ellipse cx="204.2397" cy="452.4854" fill="none" rx="11" ry="11" style="stroke:#222222;stroke-width:1;"/><ellipse cx="204.2397" cy="452.4854" fill="#222222" rx="6" ry="6" style="stroke:#222222;stroke-width:1;"/><polygon fill="#FFF9C4" points="179.9893,323.375,228.4902,323.375,240.4902,335.375,228.4902,347.375,179.9893,347.375,167.9893,335.375,179.9893,323.375" style="stroke:#F9A825;stroke-width:0.5;"/><text fill="#000000" font-family="sans-serif" font-size="11" lengthAdjust="spacing" textLength="13.5835" x="208.2397" y="358.0098">no</text><text fill="#000000" font-family="sans-serif" font-size="11" lengthAdjust="spacing" textLength="48.501" x="179.9893" y="339.5322">Matches?</text><text fill="#000000" font-family="sans-serif" font-size="11" lengthAdjust="spacing" textLength="17.4829" x="240.4902" y="333.0547">yes</text><rect fill="none" height="428.1611" style="stroke:#000000;stroke-width:1.5;" width="254.793" x="76.8433" y="507.4854"/><path d="M295.1753,507.4854 L295.1753,516.9736 L285.1753,526.9736 L76.8433,526.9736" fill="none" style="stroke:#000000;stroke-width:1.5;"/><text fill="#000000" font-family="sans-serif" font-size="14" font-weight="bold" lengthAdjust="spacing" textLength="208.332" x="79.8433" y="522.0205">Layer 2 &#8212; Bypass Prevention</text><rect fill="#E3F2FD" height="48.2656" rx="12.5" ry="12.5" style="stroke:#1565C0;stroke-width:0.5;" width="218.1582" x="95.1606" y="543.9736"/><text fill="#000000" font-family="sans-serif" font-size="12" lengthAdjust="spacing" textLength="71.2383" x="105.1606" y="565.5752">URL-decode</text><text fill="#000000" font-family="sans-serif" font-size="12" lengthAdjust="spacing" textLength="198.1582" x="105.1606" y="579.708">URLDecoder.decode(input, UTF_8)</text><rect fill="#E3F2FD" height="48.2656" rx="12.5" ry="12.5" style="stroke:#1565C0;stroke-width:0.5;" width="234.793" x="86.8433" y="612.2393"/><text fill="#000000" font-family="sans-serif" font-size="12" lengthAdjust="spacing" textLength="135.4805" x="96.8433" y="633.8408">Unicode NFC normalise</text><text fill="#000000" font-family="sans-serif" font-size="12" lengthAdjust="spacing" textLength="214.793" x="96.8433" y="647.9736">Normalizer.normalize(decoded, NFC)</text><rect fill="#E3F2FD" height="48.2656" rx="12.5" ry="12.5" style="stroke:#1565C0;stroke-width:0.5;" width="150.6172" x="128.9312" y="680.5049"/><text fill="#000000" font-family="sans-serif" font-size="12" lengthAdjust="spacing" textLength="130.6172" x="138.9312" y="702.1064">Re-run whitelist regex</text><text fill="#000000" font-family="sans-serif" font-size="12" lengthAdjust="spacing" textLength="115.1602" x="138.9312" y="716.2393">on normalised form</text><rect fill="#E3F2FD" height="62.3984" rx="12.5" ry="12.5" style="stroke:#1565C0;stroke-width:0.5;" width="185.1699" x="111.6548" y="797.248"/><text fill="#000000" font-family="sans-serif" font-size="12" lengthAdjust="spacing" textLength="35.2441" x="121.6548" y="818.8496">Reject</text><text fill="#000000" font-family="sans-serif" font-size="12" lengthAdjust="spacing" textLength="57.1875" x="121.6548" y="832.9824">HTTP 400</text><text fill="#000000" font-family="sans-serif" font-size="12" lengthAdjust="spacing" textLength="165.1699" x="121.6548" y="847.1152">(encoded traversal detected)</text><ellipse cx="204.2397" cy="890.6465" fill="none" rx="11" ry="11" style="stroke:#222222;stroke-width:1;"/><ellipse cx="204.2397" cy="890.6465" fill="#222222" rx="6" ry="6" style="stroke:#222222;stroke-width:1;"/><polygon fill="#FFF9C4" points="179.9893,748.7705,228.4902,748.7705,240.4902,760.7705,228.4902,772.7705,179.9893,772.7705,167.9893,760.7705,179.9893,748.7705" style="stroke:#F9A825;stroke-width:0.5;"/><text fill="#000000" font-family="sans-serif" font-size="11" lengthAdjust="spacing" textLength="13.5835" x="208.2397" y="783.4053">no</text><text fill="#000000" font-family="sans-serif" font-size="11" lengthAdjust="spacing" textLength="48.501" x="179.9893" y="764.9277">Matches?</text><text fill="#000000" font-family="sans-serif" font-size="11" lengthAdjust="spacing" textLength="17.4829" x="240.4902" y="758.4502">yes</text><rect fill="none" height="291.6299" style="stroke:#000000;stroke-width:1.5;" width="371.0361" x="16.2217" y="946.0996"/><path d="M382.2578,946.0996 L382.2578,955.5879 L372.2578,965.5879 L16.2217,965.5879" fill="none" style="stroke:#000000;stroke-width:1.5;"/><text fill="#000000" font-family="sans-serif" font-size="14" font-weight="bold" lengthAdjust="spacing" textLength="256.4844" x="19.2217" y="960.6348">Layer 3 &#8212; Canonical Path Assertion</text><text fill="#000000" font-family="sans-serif" font-size="14" lengthAdjust="spacing" textLength="95.1221" x="280.1357" y="960.6348">(authoritative)</text><rect fill="#E3F2FD" height="48.2656" rx="12.5" ry="12.5" style="stroke:#1565C0;stroke-width:0.5;" width="217.4668" x="95.5063" y="982.5879"/><text fill="#000000" font-family="sans-serif" font-size="12" lengthAdjust="spacing" textLength="74.0391" x="105.5063" y="1004.1895">Resolve path</text><text fill="#000000" font-family="sans-serif" font-size="12" lengthAdjust="spacing" textLength="197.4668" x="105.5063" y="1018.3223">baseDir.resolve(input).normalize()</text><rect fill="#E3F2FD" height="62.3984" rx="12.5" ry="12.5" style="stroke:#1565C0;stroke-width:0.5;" width="157.4727" x="125.5034" y="1099.3311"/><text fill="#000000" font-family="sans-serif" font-size="12" lengthAdjust="spacing" textLength="35.2441" x="135.5034" y="1120.9326">Reject</text><text fill="#000000" font-family="sans-serif" font-size="12" lengthAdjust="spacing" textLength="102.9023" x="135.5034" y="1135.0654">SecurityException</text><text fill="#000000" font-family="sans-serif" font-size="12" lengthAdjust="spacing" textLength="137.4727" x="135.5034" y="1149.1982">(path escapes sandbox)</text><ellipse cx="204.2397" cy="1192.7295" fill="none" rx="11" ry="11" style="stroke:#222222;stroke-width:1;"/><ellipse cx="204.2397" cy="1192.7295" fill="#222222" rx="6" ry="6" style="stroke:#222222;stroke-width:1;"/><polygon fill="#FFF9C4" points="127.041,1050.8535,281.4385,1050.8535,293.4385,1062.8535,281.4385,1074.8535,127.041,1074.8535,115.041,1062.8535,127.041,1050.8535" style="stroke:#F9A825;stroke-width:0.5;"/><text fill="#000000" font-family="sans-serif" font-size="11" lengthAdjust="spacing" textLength="13.5835" x="208.2397" y="1085.4883">no</text><text fill="#000000" font-family="sans-serif" font-size="11" lengthAdjust="spacing" textLength="154.3975" x="127.041" y="1067.0107">resolved.startsWith(baseDir)?</text><text fill="#000000" font-family="sans-serif" font-size="11" lengthAdjust="spacing" textLength="17.4829" x="293.4385" y="1060.5332">yes</text><rect fill="none" height="291.6299" style="stroke:#000000;stroke-width:1.5;" width="226.6846" x="97.6694" y="1248.1826"/><path d="M314.354,1248.1826 L314.354,1257.6709 L304.354,1267.6709 L97.6694,1267.6709" fill="none" style="stroke:#000000;stroke-width:1.5;"/><text fill="#000000" font-family="sans-serif" font-size="14" font-weight="bold" lengthAdjust="spacing" textLength="206.6846" x="100.6694" y="1262.7178">Layer 4 &#8212; Symlink Detection</text><rect fill="#E3F2FD" height="48.2656" rx="12.5" ry="12.5" style="stroke:#1565C0;stroke-width:0.5;" width="170.1172" x="119.1812" y="1284.6709"/><text fill="#000000" font-family="sans-serif" font-size="12" lengthAdjust="spacing" textLength="150.1172" x="129.1812" y="1306.2725">Check each path segment</text><text fill="#000000" font-family="sans-serif" font-size="12" lengthAdjust="spacing" textLength="103.4004" x="129.1812" y="1320.4053">for symbolic links</text><rect fill="#E3F2FD" height="62.3984" rx="12.5" ry="12.5" style="stroke:#1565C0;stroke-width:0.5;" width="122.9023" x="142.7886" y="1401.4141"/><text fill="#000000" font-family="sans-serif" font-size="12" lengthAdjust="spacing" textLength="35.2441" x="152.7886" y="1423.0156">Reject</text><text fill="#000000" font-family="sans-serif" font-size="12" lengthAdjust="spacing" textLength="102.9023" x="152.7886" y="1437.1484">SecurityException</text><text fill="#000000" font-family="sans-serif" font-size="12" lengthAdjust="spacing" textLength="97.418" x="152.7886" y="1451.2813">(symlink in path)</text><ellipse cx="204.2397" cy="1494.8125" fill="none" rx="11" ry="11" style="stroke:#222222;stroke-width:1;"/><ellipse cx="204.2397" cy="1494.8125" fill="#222222" rx="6" ry="6" style="stroke:#222222;stroke-width:1;"/><polygon fill="#FFF9C4" points="138.6372,1352.9365,269.8423,1352.9365,281.8423,1364.9365,269.8423,1376.9365,138.6372,1376.9365,126.6372,1364.9365,138.6372,1352.9365" style="stroke:#F9A825;stroke-width:0.5;"/><text fill="#000000" font-family="sans-serif" font-size="11" lengthAdjust="spacing" textLength="17.4829" x="208.2397" y="1387.5713">yes</text><text fill="#000000" font-family="sans-serif" font-size="11" lengthAdjust="spacing" textLength="131.2051" x="138.6372" y="1369.0938">Any segment is symlink?</text><text fill="#000000" font-family="sans-serif" font-size="11" lengthAdjust="spacing" textLength="13.5835" x="281.8423" y="1362.6162">no</text><rect fill="#E3F2FD" height="48.2656" rx="12.5" ry="12.5" style="stroke:#1565C0;stroke-width:0.5;" width="97.7539" x="155.3628" y="1559.8125"/><text fill="#000000" font-family="sans-serif" font-size="12" lengthAdjust="spacing" textLength="74.4316" x="165.3628" y="1581.4141">Proceed with</text><text fill="#000000" font-family="sans-serif" font-size="12" lengthAdjust="spacing" textLength="77.7539" x="165.3628" y="1595.5469">file operation</text><ellipse cx="204.2397" cy="1639.0781" fill="none" rx="11" ry="11" style="stroke:#222222;stroke-width:1;"/><ellipse cx="204.2397" cy="1639.0781" fill="#222222" rx="6" ry="6" style="stroke:#222222;stroke-width:1;"/><line style="stroke:#181818;stroke-width:1;" x1="204.2397" x2="204.2397" y1="125.7695" y2="145.7695"/><polygon fill="#181818" points="200.2397,135.7695,204.2397,145.7695,208.2397,135.7695,204.2397,139.7695" style="stroke:#181818;stroke-width:1;"/><line style="stroke:#181818;stroke-width:1;" x1="204.2397" x2="204.2397" y1="420.1182" y2="441.4854"/><polygon fill="#181818" points="200.2397,431.4854,204.2397,441.4854,208.2397,431.4854,204.2397,435.4854" style="stroke:#181818;stroke-width:1;"/><line style="stroke:#181818;stroke-width:1;" x1="204.2397" x2="204.2397" y1="347.375" y2="371.8525"/><polygon fill="#181818" points="200.2397,361.8525,204.2397,371.8525,208.2397,361.8525,204.2397,365.8525" style="stroke:#181818;stroke-width:1;"/><line style="stroke:#181818;stroke-width:1;" x1="240.4902" x2="252.8335" y1="335.375" y2="335.375"/><polygon fill="#181818" points="248.8335,411.4854,252.8335,421.4854,256.8335,411.4854,252.8335,415.4854" style="stroke:#181818;stroke-width:1;"/><line style="stroke:#181818;stroke-width:1;" x1="252.8335" x2="252.8335" y1="335.375" y2="485.4854"/><line style="stroke:#181818;stroke-width:1;" x1="252.8335" x2="204.2397" y1="485.4854" y2="485.4854"/><line style="stroke:#181818;stroke-width:1;" x1="204.2397" x2="204.2397" y1="485.4854" y2="543.9736"/><polygon fill="#181818" points="200.2397,533.9736,204.2397,543.9736,208.2397,533.9736,204.2397,537.9736" style="stroke:#181818;stroke-width:1;"/><line style="stroke:#181818;stroke-width:1;" x1="204.2397" x2="204.2397" y1="303.375" y2="323.375"/><polygon fill="#181818" points="200.2397,313.375,204.2397,323.375,208.2397,313.375,204.2397,317.375" style="stroke:#181818;stroke-width:1;"/><line style="stroke:#181818;stroke-width:1;" x1="204.2397" x2="204.2397" y1="208.168" y2="255.1094"/><polygon fill="#181818" points="200.2397,245.1094,204.2397,255.1094,208.2397,245.1094,204.2397,249.1094" style="stroke:#181818;stroke-width:1;"/><line style="stroke:#181818;stroke-width:1;" x1="204.2397" x2="204.2397" y1="592.2393" y2="612.2393"/><polygon fill="#181818" points="200.2397,602.2393,204.2397,612.2393,208.2397,602.2393,204.2397,606.2393" style="stroke:#181818;stroke-width:1;"/><line style="stroke:#181818;stroke-width:1;" x1="204.2397" x2="204.2397" y1="660.5049" y2="680.5049"/><polygon fill="#181818" points="200.2397,670.5049,204.2397,680.5049,208.2397,670.5049,204.2397,674.5049" style="stroke:#181818;stroke-width:1;"/><line style="stroke:#181818;stroke-width:1;" x1="204.2397" x2="204.2397" y1="859.6465" y2="879.6465"/><polygon fill="#181818" points="200.2397,869.6465,204.2397,879.6465,208.2397,869.6465,204.2397,873.6465" style="stroke:#181818;stroke-width:1;"/><line style="stroke:#181818;stroke-width:1;" x1="204.2397" x2="204.2397" y1="772.7705" y2="797.248"/><polygon fill="#181818" points="200.2397,787.248,204.2397,797.248,208.2397,787.248,204.2397,791.248" style="stroke:#181818;stroke-width:1;"/><line style="stroke:#181818;stroke-width:1;" x1="240.4902" x2="306.8247" y1="760.7705" y2="760.7705"/><polygon fill="#181818" points="302.8247,843.9473,306.8247,853.9473,310.8247,843.9473,306.8247,847.9473" style="stroke:#181818;stroke-width:1;"/><line style="stroke:#181818;stroke-width:1;" x1="306.8247" x2="306.8247" y1="760.7705" y2="923.6465"/><line style="stroke:#181818;stroke-width:1;" x1="306.8247" x2="204.2397" y1="923.6465" y2="923.6465"/><line style="stroke:#181818;stroke-width:1;" x1="204.2397" x2="204.2397" y1="923.6465" y2="982.5879"/><polygon fill="#181818" points="200.2397,972.5879,204.2397,982.5879,208.2397,972.5879,204.2397,976.5879" style="stroke:#181818;stroke-width:1;"/><line style="stroke:#181818;stroke-width:1;" x1="204.2397" x2="204.2397" y1="728.7705" y2="748.7705"/><polygon fill="#181818" points="200.2397,738.7705,204.2397,748.7705,208.2397,738.7705,204.2397,742.7705" style="stroke:#181818;stroke-width:1;"/><line style="stroke:#181818;stroke-width:1;" x1="204.2397" x2="204.2397" y1="1161.7295" y2="1181.7295"/><polygon fill="#181818" points="200.2397,1171.7295,204.2397,1181.7295,208.2397,1171.7295,204.2397,1175.7295" style="stroke:#181818;stroke-width:1;"/><line style="stroke:#181818;stroke-width:1;" x1="204.2397" x2="204.2397" y1="1074.8535" y2="1099.3311"/><polygon fill="#181818" points="200.2397,1089.3311,204.2397,1099.3311,208.2397,1089.3311,204.2397,1093.3311" style="stroke:#181818;stroke-width:1;"/><line style="stroke:#181818;stroke-width:1;" x1="293.4385" x2="305.4385" y1="1062.8535" y2="1062.8535"/><polygon fill="#181818" points="301.4385,1146.0303,305.4385,1156.0303,309.4385,1146.0303,305.4385,1150.0303" style="stroke:#181818;stroke-width:1;"/><line style="stroke:#181818;stroke-width:1;" x1="305.4385" x2="305.4385" y1="1062.8535" y2="1225.7295"/><line style="stroke:#181818;stroke-width:1;" x1="305.4385" x2="204.2397" y1="1225.7295" y2="1225.7295"/><line style="stroke:#181818;stroke-width:1;" x1="204.2397" x2="204.2397" y1="1225.7295" y2="1284.6709"/><polygon fill="#181818" points="200.2397,1274.6709,204.2397,1284.6709,208.2397,1274.6709,204.2397,1278.6709" style="stroke:#181818;stroke-width:1;"/><line style="stroke:#181818;stroke-width:1;" x1="204.2397" x2="204.2397" y1="1030.8535" y2="1050.8535"/><polygon fill="#181818" points="200.2397,1040.8535,204.2397,1050.8535,208.2397,1040.8535,204.2397,1044.8535" style="stroke:#181818;stroke-width:1;"/><line style="stroke:#181818;stroke-width:1;" x1="204.2397" x2="204.2397" y1="1463.8125" y2="1483.8125"/><polygon fill="#181818" points="200.2397,1473.8125,204.2397,1483.8125,208.2397,1473.8125,204.2397,1477.8125" style="stroke:#181818;stroke-width:1;"/><line style="stroke:#181818;stroke-width:1;" x1="204.2397" x2="204.2397" y1="1376.9365" y2="1401.4141"/><polygon fill="#181818" points="200.2397,1391.4141,204.2397,1401.4141,208.2397,1391.4141,204.2397,1395.4141" style="stroke:#181818;stroke-width:1;"/><line style="stroke:#181818;stroke-width:1;" x1="281.8423" x2="293.8423" y1="1364.9365" y2="1364.9365"/><polygon fill="#181818" points="289.8423,1448.1133,293.8423,1458.1133,297.8423,1448.1133,293.8423,1452.1133" style="stroke:#181818;stroke-width:1;"/><line style="stroke:#181818;stroke-width:1;" x1="293.8423" x2="293.8423" y1="1364.9365" y2="1527.8125"/><line style="stroke:#181818;stroke-width:1;" x1="293.8423" x2="204.2397" y1="1527.8125" y2="1527.8125"/><line style="stroke:#181818;stroke-width:1;" x1="204.2397" x2="204.2397" y1="1527.8125" y2="1559.8125"/><polygon fill="#181818" points="200.2397,1549.8125,204.2397,1559.8125,208.2397,1549.8125,204.2397,1553.8125" style="stroke:#181818;stroke-width:1;"/><line style="stroke:#181818;stroke-width:1;" x1="204.2397" x2="204.2397" y1="1332.9365" y2="1352.9365"/><polygon fill="#181818" points="200.2397,1342.9365,204.2397,1352.9365,208.2397,1342.9365,204.2397,1346.9365" style="stroke:#181818;stroke-width:1;"/><line style="stroke:#181818;stroke-width:1;" x1="204.2397" x2="204.2397" y1="1608.0781" y2="1628.0781"/><polygon fill="#181818" points="200.2397,1618.0781,204.2397,1628.0781,208.2397,1618.0781,204.2397,1622.0781" style="stroke:#181818;stroke-width:1;"/><?plantuml-src dLJDJjj04BxxAKRGWvsIA4120pbK9i7gWK8KGf7QD6XPZ-Djd5rhTnCmLQK-H9-mJzBnseaY5QaLj_7y-Vk-cLahR8OmOZQ5JomJCRD2IHY973CX4Nx__0NNDt2TetOH0pV8LrhOmlFCGiYSQRO4ngrOam--Um3dZ2_cMgraF52Pqh1_SHmTHSCoedICklOUTa-wWpPvXu8jbOp_AekYw7JGsKdOhOvEmzvHr_j1A2pJrlFEniXHh15M1dLJo2HReUGOJmaYSUDgcIk9qawbZwrv2pJcIjj9aMFGzpoYOOLZljTeNB82DHmwxdUfiAI4iJ36EJur6k0dZBuI9h9Wp_4z2_CyAwWXnQToDll2cizXytExUNhV_FhspMpMfoIHWF-HMPwYUH-0JL62BrL04IYPzi9UcnXyGqu0Fqmc8-YqstqNDLRbP61c4Fm2JLc3CXP9IVu5t4SEztcHCsDWf75Df2cXqQZHteulcp5o5UDKaZrqfcvLBfyckh87S3k9xdj1t-LBKKRWAXg0L7f9IsAezAeodwbKRao_QX8VbCbLzHYRUYNXSIjZBHCXtZQB8I7pjIgL0vNkjs0rMwCsB8COBILX7BnEmsEduO0HJC6fdJkFqD1cLLA2prOsLNG6T1Hht2p268tAQ0NBZPlA1sPmA7HBLzvAsc17hM13kSw8MswNpPsmgLzN1__KONEF5qySyn8U2U9M7WrdEHemJCOFwkcLKdIS53V5afw31GoThhlhD4YHBm0PJnrjC3XVkZEZcO8fbWyg4npAOhEX6yfYamR2b4bbU4kq1lL_JEjY4DBz_YMIbN1RZljXTtWIlZiRQSMHbkPHbCDA1Bs2QlFAzJtNuGy0?></g></svg>