<svg xmlns="http://www.w3.org/2000/svg" xmlns:xlink="http://www.w3.org/1999/xlink" contentStyleType="text/css" height="826px" preserveAspectRatio="none" style="width:1166px;height:826px;background:#FFFFFF;" version="1.1" viewBox="0 0 1166 826" width="1166px" zoomAndPan="magnify"><title>Read Process (Level 3)</title><defs/><g><text fill="#000000" font-family="sans-serif" font-size="14" font-weight="bold" lengthAdjust="spacing" textLength="153.2959" x="507.4529" y="30.1074">Read Process (Level 3)</text><rect fill="#ADD8E6" height="774.4512" style="stroke:#181818;stroke-width:0.5;" width="618.2046" x="210.5991" y="45.6211"/><text fill="#000000" font-family="sans-serif" font-size="13" font-weight="bold" lengthAdjust="spacing" textLength="70.7764" x="484.3132" y="59.6494">Application</text><rect fill="#90EE90" height="774.4512" style="stroke:#181818;stroke-width:0.5;" width="104.2617" x="888.2231" y="45.6211"/><text fill="#000000" font-family="sans-serif" font-size="13" font-weight="bold" lengthAdjust="spacing" textLength="47.6709" x="916.5186" y="59.6494">Domain</text><rect fill="#FFFFFF" height="571.918" style="stroke:#181818;stroke-width:1.0;" width="10" x="277.6782" y="156.5332"/><rect fill="#FFFFFF" height="368.832" style="stroke:#181818;stroke-width:1.0;" width="10" x="532.0371" y="258.4063"/><rect fill="#FFFFFF" height="156.4551" style="stroke:#181818;stroke-width:1.0;" width="10" x="746.666" y="289.6973"/><rect fill="#FFFFFF" height="31.291" style="stroke:#181818;stroke-width:1.0;" width="10" x="935.354" y="383.5703"/><rect fill="#FFFFFF" height="31.291" style="stroke:#181818;stroke-width:1.0;" width="10" x="1068.8433" y="320.9883"/><rect fill="none" height="505.627" style="stroke:#000000;stroke-width:1.5;" width="1149.2017" x="10" y="215.8242"/><rect fill="none" height="205.377" style="stroke:#000000;stroke-width:1.5;" width="581.4956" x="20" y="461.1523"/><line style="stroke:#181818;stroke-width:0.5;stroke-dasharray:5.0,5.0;" x1="47" x2="47" y1="123.2422" y2="738.4512"/><line style="stroke:#181818;stroke-width:0.5;stroke-dasharray:5.0,5.0;" x1="282.5991" x2="282.5991" y1="123.2422" y2="738.4512"/><line style="stroke:#181818;stroke-width:0.5;stroke-dasharray:5.0,5.0;" x1="536.5786" x2="536.5786" y1="123.2422" y2="738.4512"/><line style="stroke:#181818;stroke-width:0.5;stroke-dasharray:5.0,5.0;" x1="751.5283" x2="751.5283" y1="123.2422" y2="738.4512"/><line style="stroke:#181818;stroke-width:0.5;stroke-dasharray:5.0,5.0;" x1="940.2231" x2="940.2231" y1="123.2422" y2="738.4512"/><line style="stroke:#181818;stroke-width:0.5;stroke-dasharray:5.0,5.0;" x1="1073.4849" x2="1073.4849" y1="123.2422" y2="738.4512"/><text fill="#000000" font-family="sans-serif" font-size="14" lengthAdjust="spacing" textLength="29.5586" x="30" y="119.7285">User</text><ellipse cx="47.7793" cy="53.1211" fill="#E2E2F0" rx="8" ry="8" style="stroke:#181818;stroke-width:0.5;"/><path d="M47.7793,61.1211 L47.7793,88.1211 M34.7793,69.1211 L60.7793,69.1211 M47.7793,88.1211 L34.7793,103.1211 M47.7793,88.1211 L60.7793,103.1211 " fill="none" style="stroke:#181818;stroke-width:0.5;"/><text fill="#000000" font-family="sans-serif" font-size="14" lengthAdjust="spacing" textLength="29.5586" x="30" y="752.5586">User</text><ellipse cx="47.7793" cy="764.5723" fill="#E2E2F0" rx="8" ry="8" style="stroke:#181818;stroke-width:0.5;"/><path d="M47.7793,772.5723 L47.7793,799.5723 M34.7793,780.5723 L60.7793,780.5723 M47.7793,799.5723 L34.7793,814.5723 M47.7793,799.5723 L60.7793,814.5723 " fill="none" style="stroke:#181818;stroke-width:0.5;"/><rect fill="#E2E2F0" height="32.6211" rx="2.5" ry="2.5" style="stroke:#181818;stroke-width:0.5;" width="136.1582" x="214.5991" y="89.6211"/><text fill="#000000" font-family="sans-serif" font-size="14" lengthAdjust="spacing" textLength="122.1582" x="221.5991" y="111.7285">Controller:controller</text><rect fill="#E2E2F0" height="32.6211" rx="2.5" ry="2.5" style="stroke:#181818;stroke-width:0.5;" width="136.1582" x="214.5991" y="737.4512"/><text fill="#000000" font-family="sans-serif" font-size="14" lengthAdjust="spacing" textLength="122.1582" x="221.5991" y="759.5586">Controller:controller</text><rect fill="#E2E2F0" height="32.6211" rx="2.5" ry="2.5" style="stroke:#181818;stroke-width:0.5;" width="108.917" x="482.5786" y="89.6211"/><text fill="#000000" font-family="sans-serif" font-size="14" lengthAdjust="spacing" textLength="94.917" x="489.5786" y="111.7285">Service:service</text><rect fill="#E2E2F0" height="32.6211" rx="2.5" ry="2.5" style="stroke:#181818;stroke-width:0.5;" width="108.917" x="482.5786" y="737.4512"/><text fill="#000000" font-family="sans-serif" font-size="14" lengthAdjust="spacing" textLength="94.917" x="489.5786" y="759.5586">Service:service</text><rect fill="#E2E2F0" height="32.6211" rx="2.5" ry="2.5" style="stroke:#181818;stroke-width:0.5;" width="146.2754" x="678.5283" y="89.6211"/><text fill="#000000" font-family="sans-serif" font-size="14" lengthAdjust="spacing" textLength="132.2754" x="685.5283" y="111.7285">Repository:repository</text><rect fill="#E2E2F0" height="32.6211" rx="2.5" ry="2.5" style="stroke:#181818;stroke-width:0.5;" width="146.2754" x="678.5283" y="737.4512"/><text fill="#000000" font-family="sans-serif" font-size="14" lengthAdjust="spacing" textLength="132.2754" x="685.5283" y="759.5586">Repository:repository</text><text fill="#000000" font-family="sans-serif" font-size="14" lengthAdjust="spacing" textLength="90.2617" x="892.2231" y="119.7285">Domain Model</text><ellipse cx="940.354" cy="88.6211" fill="#E2E2F0" rx="12" ry="12" style="stroke:#181818;stroke-width:0.5;"/><line style="stroke:#181818;stroke-width:0.5;" x1="928.354" x2="952.354" y1="102.6211" y2="102.6211"/><text fill="#000000" font-family="sans-serif" font-size="14" lengthAdjust="spacing" textLength="90.2617" x="892.2231" y="752.5586">Domain Model</text><ellipse cx="940.354" cy="772.0723" fill="#E2E2F0" rx="12" ry="12" style="stroke:#181818;stroke-width:0.5;"/><line style="stroke:#181818;stroke-width:0.5;" x1="928.354" x2="952.354" y1="786.0723" y2="786.0723"/><text fill="#000000" font-family="sans-serif" font-size="14" lengthAdjust="spacing" textLength="144.7168" x="998.4849" y="119.7285">Persistence Layer (DB)</text><path d="M1055.8433,68.6211 C1055.8433,58.6211 1073.8433,58.6211 1073.8433,58.6211 C1073.8433,58.6211 1091.8433,58.6211 1091.8433,68.6211 L1091.8433,94.6211 C1091.8433,104.6211 1073.8433,104.6211 1073.8433,104.6211 C1073.8433,104.6211 1055.8433,104.6211 1055.8433,94.6211 L1055.8433,68.6211 " fill="#E2E2F0" style="stroke:#181818;stroke-width:1.5;"/><path d="M1055.8433,68.6211 C1055.8433,78.6211 1073.8433,78.6211 1073.8433,78.6211 C1073.8433,78.6211 1091.8433,78.6211 1091.8433,68.6211 " fill="none" style="stroke:#181818;stroke-width:1.5;"/><text fill="#000000" font-family="sans-serif" font-size="14" lengthAdjust="spacing" textLength="144.7168" x="998.4849" y="752.5586">Persistence Layer (DB)</text><path d="M1055.8433,766.0723 C1055.8433,756.0723 1073.8433,756.0723 1073.8433,756.0723 C1073.8433,756.0723 1091.8433,756.0723 1091.8433,766.0723 L1091.8433,792.0723 C1091.8433,802.0723 1073.8433,802.0723 1073.8433,802.0723 C1073.8433,802.0723 1055.8433,802.0723 1055.8433,792.0723 L1055.8433,766.0723 " fill="#E2E2F0" style="stroke:#181818;stroke-width:1.5;"/><path d="M1055.8433,766.0723 C1055.8433,776.0723 1073.8433,776.0723 1073.8433,776.0723 C1073.8433,776.0723 1091.8433,776.0723 1091.8433,766.0723 " fill="none" style="stroke:#181818;stroke-width:1.5;"/><rect fill="#FFFFFF" height="571.918" style="stroke:#181818;stroke-width:1.0;" width="10" x="277.6782" y="156.5332"/><rect fill="#FFFFFF" height="368.832" style="stroke:#181818;stroke-width:1.0;" width="10" x="532.0371" y="258.4063"/><rect fill="#FFFFFF" height="156.4551" style="stroke:#181818;stroke-width:1.0;" width="10" x="746.666" y="289.6973"/><rect fill="#FFFFFF" height="31.291" style="stroke:#181818;stroke-width:1.0;" width="10" x="935.354" y="383.5703"/><rect fill="#FFFFFF" height="31.291" style="stroke:#181818;stroke-width:1.0;" width="10" x="1068.8433" y="320.9883"/><polygon fill="#181818" points="265.6782,152.5332,275.6782,156.5332,265.6782,160.5332,269.6782,156.5332" style="stroke:#181818;stroke-width:1.0;"/><line style="stroke:#181818;stroke-width:1.0;" x1="47.7793" x2="271.6782" y1="156.5332" y2="156.5332"/><text fill="#000000" font-family="sans-serif" font-size="13" lengthAdjust="spacing" textLength="150.2681" x="54.7793" y="151.2705">Request Data (ID/Criteria)</text><line style="stroke:#181818;stroke-width:1.0;" x1="287.6782" x2="329.6782" y1="187.8242" y2="187.8242"/><line style="stroke:#181818;stroke-width:1.0;" x1="329.6782" x2="329.6782" y1="187.8242" y2="200.8242"/><line style="stroke:#181818;stroke-width:1.0;" x1="288.6782" x2="329.6782" y1="200.8242" y2="200.8242"/><polygon fill="#181818" points="298.6782,196.8242,288.6782,200.8242,298.6782,204.8242,294.6782,200.8242" style="stroke:#181818;stroke-width:1.0;"/><text fill="#000000" font-family="sans-serif" font-size="13" lengthAdjust="spacing" textLength="169.8125" x="294.6782" y="182.5615">Validate Request Parameters</text><path d="M10,215.8242 L70.1709,215.8242 L70.1709,225.1152 L60.1709,235.1152 L10,235.1152 L10,215.8242 " fill="#EEEEEE" style="stroke:#000000;stroke-width:1.5;"/><rect fill="none" height="505.627" style="stroke:#000000;stroke-width:1.5;" width="1149.2017" x="10" y="215.8242"/><text fill="#000000" font-family="sans-serif" font-size="13" font-weight="bold" lengthAdjust="spacing" textLength="15.1709" x="25" y="230.8525">alt</text><text fill="#000000" font-family="sans-serif" font-size="11" font-weight="bold" lengthAdjust="spacing" textLength="96.5991" x="85.1709" y="229.6943">[Parameters Valid]</text><polygon fill="#181818" points="520.0371,254.4063,530.0371,258.4063,520.0371,262.4063,524.0371,258.4063" style="stroke:#181818;stroke-width:1.0;"/><line style="stroke:#181818;stroke-width:1.0;" x1="287.6782" x2="526.0371" y1="258.4063" y2="258.4063"/><text fill="#000000" font-family="sans-serif" font-size="13" lengthAdjust="spacing" textLength="153.8926" x="294.6782" y="253.1436">Delegate Read(ID/Criteria)</text><polygon fill="#181818" points="734.666,285.6973,744.666,289.6973,734.666,293.6973,738.666,289.6973" style="stroke:#181818;stroke-width:1.0;"/><line style="stroke:#181818;stroke-width:1.0;" x1="542.0371" x2="740.666" y1="289.6973" y2="289.6973"/><text fill="#000000" font-family="sans-serif" font-size="13" lengthAdjust="spacing" textLength="123.5254" x="549.0371" y="284.4346">Find Data(ID/Criteria)</text><polygon fill="#181818" points="1056.8433,316.9883,1066.8433,320.9883,1056.8433,324.9883,1060.8433,320.9883" style="stroke:#181818;stroke-width:1.0;"/><line style="stroke:#181818;stroke-width:1.0;" x1="756.666" x2="1062.8433" y1="320.9883" y2="320.9883"/><text fill="#000000" font-family="sans-serif" font-size="13" lengthAdjust="spacing" textLength="66.4727" x="763.666" y="315.7256">Query Data</text><polygon fill="#181818" points="767.666,348.2793,757.666,352.2793,767.666,356.2793,763.666,352.2793" style="stroke:#181818;stroke-width:1.0;"/><line style="stroke:#181818;stroke-width:1.0;stroke-dasharray:2.0,2.0;" x1="761.666" x2="1072.8433" y1="352.2793" y2="352.2793"/><text fill="#000000" font-family="sans-serif" font-size="13" lengthAdjust="spacing" textLength="57.0781" x="773.666" y="347.0166">Raw Data</text><polygon fill="#181818" points="923.354,379.5703,933.354,383.5703,923.354,387.5703,927.354,383.5703" style="stroke:#181818;stroke-width:1.0;"/><line style="stroke:#181818;stroke-width:1.0;" x1="756.666" x2="929.354" y1="383.5703" y2="383.5703"/><text fill="#000000" font-family="sans-serif" font-size="13" lengthAdjust="spacing" textLength="159.688" x="763.666" y="378.3076">Reconstitute Domain Model</text><polygon fill="#181818" points="767.666,410.8613,757.666,414.8613,767.666,418.8613,763.666,414.8613" style="stroke:#181818;stroke-width:1.0;"/><line style="stroke:#181818;stroke-width:1.0;stroke-dasharray:2.0,2.0;" x1="761.666" x2="939.354" y1="414.8613" y2="414.8613"/><text fill="#000000" font-family="sans-serif" font-size="13" lengthAdjust="spacing" textLength="124.998" x="773.666" y="409.5986">Domain Model Object</text><polygon fill="#181818" points="553.0371,442.1523,543.0371,446.1523,553.0371,450.1523,549.0371,446.1523" style="stroke:#181818;stroke-width:1.0;"/><line style="stroke:#181818;stroke-width:1.0;stroke-dasharray:2.0,2.0;" x1="547.0371" x2="750.666" y1="446.1523" y2="446.1523"/><text fill="#000000" font-family="sans-serif" font-size="13" lengthAdjust="spacing" textLength="180.6289" x="559.0371" y="440.8896">Found Domain Model Object(s)</text><path d="M20,461.1523 L80.1709,461.1523 L80.1709,470.4434 L70.1709,480.4434 L20,480.4434 L20,461.1523 " fill="#EEEEEE" style="stroke:#000000;stroke-width:1.5;"/><rect fill="none" height="205.377" style="stroke:#000000;stroke-width:1.5;" width="581.4956" x="20" y="461.1523"/><text fill="#000000" font-family="sans-serif" font-size="13" font-weight="bold" lengthAdjust="spacing" textLength="15.1709" x="35" y="476.1807">alt</text><text fill="#000000" font-family="sans-serif" font-size="11" font-weight="bold" lengthAdjust="spacing" textLength="67.8208" x="95.1709" y="475.0225">[Data Found]</text><polygon fill="#181818" points="298.6782,499.7344,288.6782,503.7344,298.6782,507.7344,294.6782,503.7344" style="stroke:#181818;stroke-width:1.0;"/><line style="stroke:#181818;stroke-width:1.0;stroke-dasharray:2.0,2.0;" x1="292.6782" x2="531.0371" y1="503.7344" y2="503.7344"/><text fill="#000000" font-family="sans-serif" font-size="13" lengthAdjust="spacing" textLength="220.3589" x="304.6782" y="498.4717">Data Found (Domain Model Object(s))</text><line style="stroke:#181818;stroke-width:1.0;" x1="287.6782" x2="329.6782" y1="535.0254" y2="535.0254"/><line style="stroke:#181818;stroke-width:1.0;" x1="329.6782" x2="329.6782" y1="535.0254" y2="548.0254"/><line style="stroke:#181818;stroke-width:1.0;" x1="288.6782" x2="329.6782" y1="548.0254" y2="548.0254"/><polygon fill="#181818" points="298.6782,544.0254,288.6782,548.0254,298.6782,552.0254,294.6782,548.0254" style="stroke:#181818;stroke-width:1.0;"/><text fill="#000000" font-family="sans-serif" font-size="13" lengthAdjust="spacing" textLength="158.2217" x="294.6782" y="529.7627">Map Domain Model to DTO</text><polygon fill="#181818" points="58.7793,575.3164,48.7793,579.3164,58.7793,583.3164,54.7793,579.3164" style="stroke:#181818;stroke-width:1.0;"/><line style="stroke:#181818;stroke-width:1.0;stroke-dasharray:2.0,2.0;" x1="52.7793" x2="276.6782" y1="579.3164" y2="579.3164"/><text fill="#000000" font-family="sans-serif" font-size="13" lengthAdjust="spacing" textLength="179.8989" x="64.7793" y="574.0537">Display Requested Data (DTO)</text><line style="stroke:#000000;stroke-width:1.0;stroke-dasharray:2.0,2.0;" x1="20" x2="601.4956" y1="588.3164" y2="588.3164"/><text fill="#000000" font-family="sans-serif" font-size="11" font-weight="bold" lengthAdjust="spacing" textLength="89.2031" x="25" y="600.1865">[Data Not Found]</text><polygon fill="#181818" points="298.6782,623.2383,288.6782,627.2383,298.6782,631.2383,294.6782,627.2383" style="stroke:#181818;stroke-width:1.0;"/><line style="stroke:#181818;stroke-width:1.0;stroke-dasharray:2.0,2.0;" x1="292.6782" x2="536.0371" y1="627.2383" y2="627.2383"/><text fill="#000000" font-family="sans-serif" font-size="13" lengthAdjust="spacing" textLength="91.7744" x="304.6782" y="621.9756">Data Not Found</text><polygon fill="#181818" points="58.7793,654.5293,48.7793,658.5293,58.7793,662.5293,54.7793,658.5293" style="stroke:#181818;stroke-width:1.0;"/><line style="stroke:#181818;stroke-width:1.0;stroke-dasharray:2.0,2.0;" x1="52.7793" x2="276.6782" y1="658.5293" y2="658.5293"/><text fill="#000000" font-family="sans-serif" font-size="13" lengthAdjust="spacing" textLength="189.2935" x="64.7793" y="653.2666">Error Message (Data Not Found)</text><line style="stroke:#000000;stroke-width:1.0;stroke-dasharray:2.0,2.0;" x1="10" x2="1159.2017" y1="674.5293" y2="674.5293"/><text fill="#000000" font-family="sans-serif" font-size="11" font-weight="bold" lengthAdjust="spacing" textLength="105.1553" x="15" y="686.3994">[Parameters Invalid]</text><polygon fill="#181818" points="58.7793,709.4512,48.7793,713.4512,58.7793,717.4512,54.7793,713.4512" style="stroke:#181818;stroke-width:1.0;"/><line style="stroke:#181818;stroke-width:1.0;stroke-dasharray:2.0,2.0;" x1="52.7793" x2="276.6782" y1="713.4512" y2="713.4512"/><text fill="#000000" font-family="sans-serif" font-size="13" lengthAdjust="spacing" textLength="205.8989" x="64.7793" y="708.1885">Error Message (Invalid Parameters)</text><!--SRC=[bPHDRzim38Rl-XM4TuaFnGwx-J1WgTkYGB9csSUTiObCXMfvafmj_twKx5YodGnOBY5byj4hafAJJX7i2MlO6LsHjR3Qq8aKVCY5mCff0zbtIoO3jE0D8Gxw3sIVsbR92ftKJGRlDlBuqwrLHmBurw9nif8jDWwoUzquevKYKrIZ6MZnopBhAvcJhAYm_N-87zQMmNjgjPKizLoOqGmfyOkWfWPMFiWlzHlAKVcJ8Me2bnedtVdo7RQw9XL8_KBm8wf6XmUq1DcEZ9NMKLCHRF1C1bRbEkyprqBumi7Tn-J81MlxrP5rK384Li_b-tiZ7Hc9kQ-xFA6Zj4JHd8D-e9ArZxuGTsZmZPXb1QhKxKF3GQUuIxcX94N7deNrL9JF6eMblHXipqaw0O-Io-GFzmzCqX-_7bqFAzS5VEc87K-P9d9HlL-kuMwsxHv_n_YQvXcpBM9NVKDuG2ttl_FXoG3Cjauc8MY8_a9CIe6NmojLRg5hXai5ffrvr9slvnAuilcSEIkh7u8mPO4HbYPzcyrJ3EKXlhfVFZ96u_PuRh6TodOQocylLpCvrLyLrY1jg_1y6McgXsl2YVtcfFZQXRNFsltFmPRXIU7IiRwfxS4OVXMt_5RYaLZIX3geOtnGcDozv-PqzVRTuWxn2IBtBuz8v4RCNm00]--></g></svg>