<?plantuml 1.2026.2?><svg xmlns="http://www.w3.org/2000/svg" xmlns:xlink="http://www.w3.org/1999/xlink" contentStyleType="text/css" data-diagram-type="SEQUENCE" height="2226px" preserveAspectRatio="none" style="width:1382px;height:2226px;background:#FFFFFF;" version="1.1" viewBox="0 0 1382 2226" width="1382px" zoomAndPan="magnify"><title>Encrypted Database Backup (Level 3) &#8212; VendNet</title><defs/><g><text fill="#000000" font-family="sans-serif" font-size="14" font-weight="bold" lengthAdjust="spacing" textLength="350.499" x="512.1184" y="28.5352">Encrypted Database Backup (Level 3) &#8212; VendNet</text><rect fill="#ADD8E6" height="2170.3965" style="stroke:#181818;stroke-width:0.5;" width="138.7988" x="204.7559" y="43.4883"/><text fill="#000000" font-family="sans-serif" font-size="13" font-weight="bold" lengthAdjust="spacing" textLength="124.084" x="212.1133" y="56.0566">Interface Adapters</text><rect fill="#FFFFE0" height="2170.3965" style="stroke:#181818;stroke-width:0.5;" width="141.2178" x="361.3462" y="43.4883"/><text fill="#000000" font-family="sans-serif" font-size="13" font-weight="bold" lengthAdjust="spacing" textLength="135.2178" x="364.3462" y="56.0566">Application Services</text><rect fill="#F08080" height="2170.3965" style="stroke:#181818;stroke-width:0.5;" width="544.0894" x="539.0986" y="43.4883"/><text fill="#000000" font-family="sans-serif" font-size="13" font-weight="bold" lengthAdjust="spacing" textLength="93.1074" x="764.5896" y="56.0566">Infrastructure</text><g><title>BackupController</title><rect fill="#FFFFFF" height="1953.8223" style="stroke:#181818;stroke-width:1;" width="10" x="269.1553" y="168.0859"/></g><g><title>BackupService</title><rect fill="#FFFFFF" height="1731.6934" style="stroke:#181818;stroke-width:1;" width="10" x="426.9551" y="279.3281"/></g><g><title>OsOperationsService</title><rect fill="#FFFFFF" height="361.6582" style="stroke:#181818;stroke-width:1;" width="10" x="615.0986" y="351.9492"/></g><g><title>OsOperationsService</title><rect fill="#FFFFFF" height="206.7949" style="stroke:#181818;stroke-width:1;" width="10" x="615.0986" y="786.2285"/></g><g><title>OsOperationsService</title><rect fill="#FFFFFF" height="73.9316" style="stroke:#181818;stroke-width:1;" width="10" x="615.0986" y="1668.4082"/></g><g><title>EncryptionService</title><rect fill="#FFFFFF" height="379.6582" style="stroke:#181818;stroke-width:1;" width="10" x="826.4585" y="1080.9551"/></g><g><title>AuditRepository</title><rect fill="#FFFFFF" height="44.6211" style="stroke:#181818;stroke-width:1;" width="10" x="1012.9038" y="1579.166"/></g><g><title>MySQL Database</title><rect fill="#FFFFFF" height="29.3105" style="stroke:#181818;stroke-width:1;" width="10" x="1143.3623" y="919.0918"/></g><g><title>Server File System</title><rect fill="#FFFFFF" height="29.3105" style="stroke:#181818;stroke-width:1;" width="10" x="1276.6362" y="654.9863"/></g><g><title>Server File System</title><rect fill="#FFFFFF" height="29.3105" style="stroke:#181818;stroke-width:1;" width="10" x="1276.6362" y="1298.4395"/></g><rect fill="none" height="1874.2012" style="stroke:#000000;stroke-width:1.5;" width="1355.7358" x="10" y="240.707"/><rect fill="none" height="1477.8984" style="stroke:#000000;stroke-width:1.5;" width="1335.7358" x="20" y="585.7441"/><g class="participant-lifeline" data-entity-uid="part1" data-qualified-name="Admin" id="part1-lifeline"><g><title>Administrator</title><rect fill="#000000" fill-opacity="0.00000" height="2010.4434" width="8" x="75.8604" y="121.4648"/><line style="stroke:#181818;stroke-width:0.5;stroke-dasharray:5,5;" x1="79" x2="79" y1="121.4648" y2="2131.9082"/></g></g><g class="participant-lifeline" data-entity-uid="part2" data-qualified-name="Controller" id="part2-lifeline"><g><title>BackupController</title><rect fill="#000000" fill-opacity="0.00000" height="2010.4434" width="8" x="270.1553" y="121.4648"/><line style="stroke:#181818;stroke-width:0.5;stroke-dasharray:5,5;" x1="273.7559" x2="273.7559" y1="121.4648" y2="2131.9082"/></g></g><g class="participant-lifeline" data-entity-uid="part3" data-qualified-name="BackupService" id="part3-lifeline"><g><title>BackupService</title><rect fill="#000000" fill-opacity="0.00000" height="2010.4434" width="8" x="427.9551" y="121.4648"/><line style="stroke:#181818;stroke-width:0.5;stroke-dasharray:5,5;" x1="430.9702" x2="430.9702" y1="121.4648" y2="2131.9082"/></g></g><g class="participant-lifeline" data-entity-uid="part4" data-qualified-name="OsOps" id="part4-lifeline"><g><title>OsOperationsService</title><rect fill="#000000" fill-opacity="0.00000" height="2010.4434" width="8" x="616.0986" y="121.4648"/><line style="stroke:#181818;stroke-width:0.5;stroke-dasharray:5,5;" x1="620.0986" x2="620.0986" y1="121.4648" y2="2131.9082"/></g></g><g class="participant-lifeline" data-entity-uid="part5" data-qualified-name="Crypto" id="part5-lifeline"><g><title>EncryptionService</title><rect fill="#000000" fill-opacity="0.00000" height="2010.4434" width="8" x="827.4585" y="121.4648"/><line style="stroke:#181818;stroke-width:0.5;stroke-dasharray:5,5;" x1="830.856" x2="830.856" y1="121.4648" y2="2131.9082"/></g></g><g class="participant-lifeline" data-entity-uid="part6" data-qualified-name="AuditRepo" id="part6-lifeline"><g><title>AuditRepository</title><rect fill="#000000" fill-opacity="0.00000" height="2010.4434" width="8" x="1013.9038" y="121.4648"/><line style="stroke:#181818;stroke-width:0.5;stroke-dasharray:5,5;" x1="1017.6196" x2="1017.6196" y1="121.4648" y2="2131.9082"/></g></g><g class="participant-lifeline" data-entity-uid="part7" data-qualified-name="DB" id="part7-lifeline"><g><title>MySQL Database</title><rect fill="#000000" fill-opacity="0.00000" height="2010.4434" width="8" x="1144.3623" y="121.4648"/><line style="stroke:#181818;stroke-width:0.5;stroke-dasharray:5,5;" x1="1148.188" x2="1148.188" y1="121.4648" y2="2131.9082"/></g></g><g class="participant-lifeline" data-entity-uid="part8" data-qualified-name="FS" id="part8-lifeline"><g><title>Server File System</title><rect fill="#000000" fill-opacity="0.00000" height="2010.4434" width="8" x="1277.6362" y="121.4648"/><line style="stroke:#181818;stroke-width:0.5;stroke-dasharray:5,5;" x1="1281.5366" x2="1281.5366" y1="121.4648" y2="2131.9082"/></g></g><g class="participant participant-head" data-entity-uid="part1" data-qualified-name="Admin" id="part1-head"><text fill="#000000" font-family="sans-serif" font-size="14" lengthAdjust="spacing" textLength="93.7207" x="30" y="118.5117">Administrator</text><ellipse cx="79.8604" cy="53.4766" fill="#E2E2F0" rx="8" ry="8" style="stroke:#181818;stroke-width:0.5;"/><path d="M79.8604,61.4766 L79.8604,88.4766 M66.8604,69.4766 L92.8604,69.4766 M79.8604,88.4766 L66.8604,103.4766 M79.8604,88.4766 L92.8604,103.4766" fill="none" style="stroke:#181818;stroke-width:0.5;"/></g><g class="participant participant-tail" data-entity-uid="part1" data-qualified-name="Admin" id="part1-tail"><text fill="#000000" font-family="sans-serif" font-size="14" lengthAdjust="spacing" textLength="93.7207" x="30" y="2144.4434">Administrator</text><ellipse cx="79.8604" cy="2155.8965" fill="#E2E2F0" rx="8" ry="8" style="stroke:#181818;stroke-width:0.5;"/><path d="M79.8604,2163.8965 L79.8604,2190.8965 M66.8604,2171.8965 L92.8604,2171.8965 M79.8604,2190.8965 L66.8604,2205.8965 M79.8604,2190.8965 L92.8604,2205.8965" fill="none" style="stroke:#181818;stroke-width:0.5;"/></g><g class="participant participant-head" data-entity-uid="part2" data-qualified-name="Controller" id="part2-head"><rect fill="#E2E2F0" height="30.4883" rx="2.5" ry="2.5" style="stroke:#181818;stroke-width:0.5;" width="130.7988" x="208.7559" y="89.9766"/><text fill="#000000" font-family="sans-serif" font-size="14" lengthAdjust="spacing" textLength="116.7988" x="215.7559" y="110.5117">BackupController</text></g><g class="participant participant-tail" data-entity-uid="part2" data-qualified-name="Controller" id="part2-tail"><rect fill="#E2E2F0" height="30.4883" rx="2.5" ry="2.5" style="stroke:#181818;stroke-width:0.5;" width="130.7988" x="208.7559" y="2130.9082"/><text fill="#000000" font-family="sans-serif" font-size="14" lengthAdjust="spacing" textLength="116.7988" x="215.7559" y="2151.4434">BackupController</text></g><g class="participant participant-head" data-entity-uid="part3" data-qualified-name="BackupService" id="part3-head"><rect fill="#E2E2F0" height="30.4883" rx="2.5" ry="2.5" style="stroke:#181818;stroke-width:0.5;" width="109.9697" x="376.9702" y="89.9766"/><text fill="#000000" font-family="sans-serif" font-size="14" lengthAdjust="spacing" textLength="95.9697" x="383.9702" y="110.5117">BackupService</text></g><g class="participant participant-tail" data-entity-uid="part3" data-qualified-name="BackupService" id="part3-tail"><rect fill="#E2E2F0" height="30.4883" rx="2.5" ry="2.5" style="stroke:#181818;stroke-width:0.5;" width="109.9697" x="376.9702" y="2130.9082"/><text fill="#000000" font-family="sans-serif" font-size="14" lengthAdjust="spacing" textLength="95.9697" x="383.9702" y="2151.4434">BackupService</text></g><g class="participant participant-head" data-entity-uid="part4" data-qualified-name="OsOps" id="part4-head"><rect fill="#E2E2F0" height="30.4883" rx="2.5" ry="2.5" style="stroke:#181818;stroke-width:0.5;" width="154" x="543.0986" y="89.9766"/><text fill="#000000" font-family="sans-serif" font-size="14" lengthAdjust="spacing" textLength="140" x="550.0986" y="110.5117">OsOperationsService</text></g><g class="participant participant-tail" data-entity-uid="part4" data-qualified-name="OsOps" id="part4-tail"><rect fill="#E2E2F0" height="30.4883" rx="2.5" ry="2.5" style="stroke:#181818;stroke-width:0.5;" width="154" x="543.0986" y="2130.9082"/><text fill="#000000" font-family="sans-serif" font-size="14" lengthAdjust="spacing" textLength="140" x="550.0986" y="2151.4434">OsOperationsService</text></g><g class="participant participant-head" data-entity-uid="part5" data-qualified-name="Crypto" id="part5-head"><rect fill="#E2E2F0" height="30.4883" rx="2.5" ry="2.5" style="stroke:#181818;stroke-width:0.5;" width="133.2051" x="764.856" y="89.9766"/><text fill="#000000" font-family="sans-serif" font-size="14" lengthAdjust="spacing" textLength="119.2051" x="771.856" y="110.5117">EncryptionService</text></g><g class="participant participant-tail" data-entity-uid="part5" data-qualified-name="Crypto" id="part5-tail"><rect fill="#E2E2F0" height="30.4883" rx="2.5" ry="2.5" style="stroke:#181818;stroke-width:0.5;" width="133.2051" x="764.856" y="2130.9082"/><text fill="#000000" font-family="sans-serif" font-size="14" lengthAdjust="spacing" textLength="119.2051" x="771.856" y="2151.4434">EncryptionService</text></g><g class="participant participant-head" data-entity-uid="part6" data-qualified-name="AuditRepo" id="part6-head"><rect fill="#E2E2F0" height="30.4883" rx="2.5" ry="2.5" style="stroke:#181818;stroke-width:0.5;" width="122.5684" x="956.6196" y="89.9766"/><text fill="#000000" font-family="sans-serif" font-size="14" lengthAdjust="spacing" textLength="108.5684" x="963.6196" y="110.5117">AuditRepository</text></g><g class="participant participant-tail" data-entity-uid="part6" data-qualified-name="AuditRepo" id="part6-tail"><rect fill="#E2E2F0" height="30.4883" rx="2.5" ry="2.5" style="stroke:#181818;stroke-width:0.5;" width="122.5684" x="956.6196" y="2130.9082"/><text fill="#000000" font-family="sans-serif" font-size="14" lengthAdjust="spacing" textLength="108.5684" x="963.6196" y="2151.4434">AuditRepository</text></g><g class="participant participant-head" data-entity-uid="part7" data-qualified-name="DB" id="part7-head"><text fill="#000000" font-family="sans-serif" font-size="14" lengthAdjust="spacing" textLength="112.3486" x="1089.188" y="118.5117">MySQL Database</text><path d="M1130.3623,68.9766 C1130.3623,58.9766 1148.3623,58.9766 1148.3623,58.9766 C1148.3623,58.9766 1166.3623,58.9766 1166.3623,68.9766 L1166.3623,94.9766 C1166.3623,104.9766 1148.3623,104.9766 1148.3623,104.9766 C1148.3623,104.9766 1130.3623,104.9766 1130.3623,94.9766 L1130.3623,68.9766" fill="#E2E2F0" style="stroke:#181818;stroke-width:0.5;"/><path d="M1130.3623,68.9766 C1130.3623,78.9766 1148.3623,78.9766 1148.3623,78.9766 C1148.3623,78.9766 1166.3623,78.9766 1166.3623,68.9766" fill="none" style="stroke:#181818;stroke-width:0.5;"/></g><g class="participant participant-tail" data-entity-uid="part7" data-qualified-name="DB" id="part7-tail"><text fill="#000000" font-family="sans-serif" font-size="14" lengthAdjust="spacing" textLength="112.3486" x="1089.188" y="2144.4434">MySQL Database</text><path d="M1130.3623,2157.3965 C1130.3623,2147.3965 1148.3623,2147.3965 1148.3623,2147.3965 C1148.3623,2147.3965 1166.3623,2147.3965 1166.3623,2157.3965 L1166.3623,2183.3965 C1166.3623,2193.3965 1148.3623,2193.3965 1148.3623,2193.3965 C1148.3623,2193.3965 1130.3623,2193.3965 1130.3623,2183.3965 L1130.3623,2157.3965" fill="#E2E2F0" style="stroke:#181818;stroke-width:0.5;"/><path d="M1130.3623,2157.3965 C1130.3623,2167.3965 1148.3623,2167.3965 1148.3623,2167.3965 C1148.3623,2167.3965 1166.3623,2167.3965 1166.3623,2157.3965" fill="none" style="stroke:#181818;stroke-width:0.5;"/></g><g class="participant participant-head" data-entity-uid="part8" data-qualified-name="FS" id="part8-head"><text fill="#000000" font-family="sans-serif" font-size="14" lengthAdjust="spacing" textLength="122.1992" x="1217.5366" y="102.0234">Server File System</text><text fill="#000000" font-family="sans-serif" font-size="14" lengthAdjust="spacing" textLength="106.1074" x="1225.5825" y="118.5117">(/var/vendnet/)</text><path d="M1263.6362,52.4883 C1263.6362,42.4883 1281.6362,42.4883 1281.6362,42.4883 C1281.6362,42.4883 1299.6362,42.4883 1299.6362,52.4883 L1299.6362,78.4883 C1299.6362,88.4883 1281.6362,88.4883 1281.6362,88.4883 C1281.6362,88.4883 1263.6362,88.4883 1263.6362,78.4883 L1263.6362,52.4883" fill="#E2E2F0" style="stroke:#181818;stroke-width:0.5;"/><path d="M1263.6362,52.4883 C1263.6362,62.4883 1281.6362,62.4883 1281.6362,62.4883 C1281.6362,62.4883 1299.6362,62.4883 1299.6362,52.4883" fill="none" style="stroke:#181818;stroke-width:0.5;"/></g><g class="participant participant-tail" data-entity-uid="part8" data-qualified-name="FS" id="part8-tail"><text fill="#000000" font-family="sans-serif" font-size="14" lengthAdjust="spacing" textLength="122.1992" x="1217.5366" y="2144.4434">Server File System</text><text fill="#000000" font-family="sans-serif" font-size="14" lengthAdjust="spacing" textLength="106.1074" x="1225.5825" y="2160.9316">(/var/vendnet/)</text><path d="M1263.6362,2173.8848 C1263.6362,2163.8848 1281.6362,2163.8848 1281.6362,2163.8848 C1281.6362,2163.8848 1299.6362,2163.8848 1299.6362,2173.8848 L1299.6362,2199.8848 C1299.6362,2209.8848 1281.6362,2209.8848 1281.6362,2209.8848 C1281.6362,2209.8848 1263.6362,2209.8848 1263.6362,2199.8848 L1263.6362,2173.8848" fill="#E2E2F0" style="stroke:#181818;stroke-width:0.5;"/><path d="M1263.6362,2173.8848 C1263.6362,2183.8848 1281.6362,2183.8848 1281.6362,2183.8848 C1281.6362,2183.8848 1299.6362,2183.8848 1299.6362,2173.8848" fill="none" style="stroke:#181818;stroke-width:0.5;"/></g><g><title>BackupController</title><rect fill="#FFFFFF" height="1953.8223" style="stroke:#181818;stroke-width:1;" width="10" x="269.1553" y="168.0859"/></g><g><title>BackupService</title><rect fill="#FFFFFF" height="1731.6934" style="stroke:#181818;stroke-width:1;" width="10" x="426.9551" y="279.3281"/></g><g><title>OsOperationsService</title><rect fill="#FFFFFF" height="361.6582" style="stroke:#181818;stroke-width:1;" width="10" x="615.0986" y="351.9492"/></g><g><title>OsOperationsService</title><rect fill="#FFFFFF" height="206.7949" style="stroke:#181818;stroke-width:1;" width="10" x="615.0986" y="786.2285"/></g><g><title>OsOperationsService</title><rect fill="#FFFFFF" height="73.9316" style="stroke:#181818;stroke-width:1;" width="10" x="615.0986" y="1668.4082"/></g><g><title>EncryptionService</title><rect fill="#FFFFFF" height="379.6582" style="stroke:#181818;stroke-width:1;" width="10" x="826.4585" y="1080.9551"/></g><g><title>AuditRepository</title><rect fill="#FFFFFF" height="44.6211" style="stroke:#181818;stroke-width:1;" width="10" x="1012.9038" y="1579.166"/></g><g><title>MySQL Database</title><rect fill="#FFFFFF" height="29.3105" style="stroke:#181818;stroke-width:1;" width="10" x="1143.3623" y="919.0918"/></g><g><title>Server File System</title><rect fill="#FFFFFF" height="29.3105" style="stroke:#181818;stroke-width:1;" width="10" x="1276.6362" y="654.9863"/></g><g><title>Server File System</title><rect fill="#FFFFFF" height="29.3105" style="stroke:#181818;stroke-width:1;" width="10" x="1276.6362" y="1298.4395"/></g><g class="message" data-entity-1="part1" data-entity-2="part2" id="msg1"><polygon fill="#181818" points="257.1553,164.0859,267.1553,168.0859,257.1553,172.0859,261.1553,168.0859" style="stroke:#181818;stroke-width:1;"/><line style="stroke:#181818;stroke-width:1;" x1="79.8604" x2="263.1553" y1="168.0859" y2="168.0859"/><text fill="#000000" font-family="sans-serif" font-size="13" lengthAdjust="spacing" textLength="142.0732" x="86.8604" y="148.0332">POST /admin/backups</text><text fill="#000000" font-family="sans-serif" font-size="13" lengthAdjust="spacing" textLength="170.2949" x="86.8604" y="163.3438">(Authorization: Bearer JWT)</text></g><g class="message" data-entity-1="part2" data-entity-2="part2" id="msg2"><line style="stroke:#181818;stroke-width:1;" x1="279.1553" x2="321.1553" y1="212.707" y2="212.707"/><line style="stroke:#181818;stroke-width:1;" x1="321.1553" x2="321.1553" y1="212.707" y2="225.707"/><line style="stroke:#181818;stroke-width:1;" x1="280.1553" x2="321.1553" y1="225.707" y2="225.707"/><polygon fill="#181818" points="290.1553,221.707,280.1553,225.707,290.1553,229.707,286.1553,225.707" style="stroke:#181818;stroke-width:1;"/><text fill="#000000" font-family="sans-serif" font-size="13" lengthAdjust="spacing" textLength="91.3364" x="286.1553" y="192.6543">Validate JWT &amp;</text><text fill="#000000" font-family="sans-serif" font-size="13" lengthAdjust="spacing" textLength="112.1758" x="286.1553" y="207.9648">Verify ADMIN role</text></g><path d="M10,240.707 L72.1387,240.707 L72.1387,248.0176 L62.1387,258.0176 L10,258.0176 L10,240.707" fill="#EEEEEE" style="stroke:#000000;stroke-width:1.5;"/><rect fill="none" height="1874.2012" style="stroke:#000000;stroke-width:1.5;" width="1355.7358" x="10" y="240.707"/><text fill="#000000" font-family="sans-serif" font-size="13" font-weight="bold" lengthAdjust="spacing" textLength="17.1387" x="25" y="254.2754">alt</text><text fill="#000000" font-family="sans-serif" font-size="11" font-weight="bold" lengthAdjust="spacing" textLength="179.126" x="87.1387" y="253.3418">[Authorized (ADMINISTRATOR)]</text><g class="message" data-entity-1="part2" data-entity-2="part3" id="msg3"><polygon fill="#181818" points="414.9551,275.3281,424.9551,279.3281,414.9551,283.3281,418.9551,279.3281" style="stroke:#181818;stroke-width:1;"/><line style="stroke:#181818;stroke-width:1;" x1="279.1553" x2="420.9551" y1="279.3281" y2="279.3281"/><text fill="#000000" font-family="sans-serif" font-size="13" lengthAdjust="spacing" textLength="108.8813" x="286.1553" y="274.5859">generateBackup()</text></g><rect fill="#EEEEEE" height="3" style="stroke:#EEEEEE;stroke-width:1;" width="1375.7358" x="0" y="307.9834"/><line style="stroke:#000000;stroke-width:1;" x1="0" x2="1375.7358" y1="307.9834" y2="307.9834"/><line style="stroke:#000000;stroke-width:1;" x1="0" x2="1375.7358" y1="310.9834" y2="310.9834"/><rect fill="#EEEEEE" height="23.3105" style="stroke:#000000;stroke-width:2;" width="119.7646" x="627.9856" y="297.3281"/><text fill="#000000" font-family="sans-serif" font-size="13" font-weight="bold" lengthAdjust="spacing" textLength="101.48" x="633.9856" y="313.8965">Path Validation</text><g class="message" data-entity-1="part3" data-entity-2="part4" id="msg4"><polygon fill="#181818" points="603.0986,347.9492,613.0986,351.9492,603.0986,355.9492,607.0986,351.9492" style="stroke:#181818;stroke-width:1;"/><line style="stroke:#181818;stroke-width:1;" x1="436.9551" x2="609.0986" y1="351.9492" y2="351.9492"/><text fill="#000000" font-family="sans-serif" font-size="13" lengthAdjust="spacing" textLength="140.3276" x="443.9551" y="347.207">buildBackupPath(date)</text></g><g class="message" data-entity-1="part4" data-entity-2="part4" id="msg5"><line style="stroke:#181818;stroke-width:1;" x1="625.0986" x2="667.0986" y1="411.8809" y2="411.8809"/><line style="stroke:#181818;stroke-width:1;" x1="667.0986" x2="667.0986" y1="411.8809" y2="424.8809"/><line style="stroke:#181818;stroke-width:1;" x1="626.0986" x2="667.0986" y1="424.8809" y2="424.8809"/><polygon fill="#181818" points="636.0986,420.8809,626.0986,424.8809,636.0986,428.8809,632.0986,424.8809" style="stroke:#181818;stroke-width:1;"/><text fill="#000000" font-family="sans-serif" font-size="13" lengthAdjust="spacing" textLength="97.9634" x="632.0986" y="376.5176">Construct path:</text><text fill="#000000" font-family="sans-serif" font-size="13" lengthAdjust="spacing" textLength="149.3857" x="632.0986" y="391.8281">/var/vendnet/backups/</text><text fill="#000000" font-family="sans-serif" font-size="13" lengthAdjust="spacing" textLength="42.7388" x="632.0986" y="407.1387">{date}/</text></g><g class="message" data-entity-1="part4" data-entity-2="part4" id="msg6"><line style="stroke:#181818;stroke-width:1;" x1="625.0986" x2="667.0986" y1="484.8125" y2="484.8125"/><line style="stroke:#181818;stroke-width:1;" x1="667.0986" x2="667.0986" y1="484.8125" y2="497.8125"/><line style="stroke:#181818;stroke-width:1;" x1="626.0986" x2="667.0986" y1="497.8125" y2="497.8125"/><polygon fill="#181818" points="636.0986,493.8125,626.0986,497.8125,636.0986,501.8125,632.0986,497.8125" style="stroke:#181818;stroke-width:1;"/><text fill="#000000" font-family="sans-serif" font-size="13" lengthAdjust="spacing" textLength="161.7319" x="632.0986" y="449.4492">Validate against whitelist:</text><text fill="#000000" font-family="sans-serif" font-size="13" lengthAdjust="spacing" textLength="157.606" x="632.0986" y="464.7598">^/var/vendnet/backups/</text><text fill="#000000" font-family="sans-serif" font-size="13" lengthAdjust="spacing" textLength="177.3599" x="632.0986" y="480.0703">[0-9]{4}-[0-9]{2}-[0-9]{2}/$</text></g><g class="message" data-entity-1="part4" data-entity-2="part4" id="msg7"><line style="stroke:#181818;stroke-width:1;" x1="625.0986" x2="667.0986" y1="557.7441" y2="557.7441"/><line style="stroke:#181818;stroke-width:1;" x1="667.0986" x2="667.0986" y1="557.7441" y2="570.7441"/><line style="stroke:#181818;stroke-width:1;" x1="626.0986" x2="667.0986" y1="570.7441" y2="570.7441"/><polygon fill="#181818" points="636.0986,566.7441,626.0986,570.7441,636.0986,574.7441,632.0986,570.7441" style="stroke:#181818;stroke-width:1;"/><text fill="#000000" font-family="sans-serif" font-size="13" lengthAdjust="spacing" textLength="133.6182" x="632.0986" y="522.3809">Canonicalize &amp; check</text><text fill="#000000" font-family="sans-serif" font-size="13" lengthAdjust="spacing" textLength="106.7866" x="632.0986" y="537.6914">no path traversal</text><text fill="#000000" font-family="sans-serif" font-size="13" lengthAdjust="spacing" textLength="86.7534" x="632.0986" y="553.002">(.. sequences)</text></g><path d="M20,585.7441 L82.1387,585.7441 L82.1387,593.0547 L72.1387,603.0547 L20,603.0547 L20,585.7441" fill="#EEEEEE" style="stroke:#000000;stroke-width:1.5;"/><rect fill="none" height="1477.8984" style="stroke:#000000;stroke-width:1.5;" width="1335.7358" x="20" y="585.7441"/><text fill="#000000" font-family="sans-serif" font-size="13" font-weight="bold" lengthAdjust="spacing" textLength="17.1387" x="35" y="599.3125">alt</text><text fill="#000000" font-family="sans-serif" font-size="11" font-weight="bold" lengthAdjust="spacing" textLength="65.2695" x="97.1387" y="598.3789">[Path Valid]</text><g class="message" data-entity-1="part4" data-entity-2="part8" id="msg8"><polygon fill="#181818" points="1264.6362,650.9863,1274.6362,654.9863,1264.6362,658.9863,1268.6362,654.9863" style="stroke:#181818;stroke-width:1;"/><line style="stroke:#181818;stroke-width:1;" x1="625.0986" x2="1270.6362" y1="654.9863" y2="654.9863"/><text fill="#000000" font-family="sans-serif" font-size="13" lengthAdjust="spacing" textLength="139.4834" x="632.0986" y="619.623">Files.createDirectories</text><text fill="#000000" font-family="sans-serif" font-size="13" lengthAdjust="spacing" textLength="67.5645" x="632.0986" y="634.9336">(path) with</text><text fill="#000000" font-family="sans-serif" font-size="13" lengthAdjust="spacing" textLength="137.6362" x="632.0986" y="650.2441">PosixPermissions 700</text></g><g class="message" data-entity-1="part8" data-entity-2="part4" id="msg9"><polygon fill="#181818" points="636.0986,680.2969,626.0986,684.2969,636.0986,688.2969,632.0986,684.2969" style="stroke:#181818;stroke-width:1;"/><line style="stroke:#181818;stroke-width:1;stroke-dasharray:2,2;" x1="630.0986" x2="1280.6362" y1="684.2969" y2="684.2969"/><text fill="#000000" font-family="sans-serif" font-size="13" lengthAdjust="spacing" textLength="108.4751" x="642.0986" y="679.5547">Directory created</text></g><g class="message" data-entity-1="part4" data-entity-2="part3" id="msg10"><polygon fill="#181818" points="447.9551,709.6074,437.9551,713.6074,447.9551,717.6074,443.9551,713.6074" style="stroke:#181818;stroke-width:1;"/><line style="stroke:#181818;stroke-width:1;stroke-dasharray:2,2;" x1="441.9551" x2="619.0986" y1="713.6074" y2="713.6074"/><text fill="#000000" font-family="sans-serif" font-size="13" lengthAdjust="spacing" textLength="91.2476" x="453.9551" y="708.8652">Validated path</text></g><rect fill="#EEEEEE" height="3" style="stroke:#EEEEEE;stroke-width:1;" width="1375.7358" x="0" y="742.2627"/><line style="stroke:#000000;stroke-width:1;" x1="0" x2="1375.7358" y1="742.2627" y2="742.2627"/><line style="stroke:#000000;stroke-width:1;" x1="0" x2="1375.7358" y1="745.2627" y2="745.2627"/><rect fill="#EEEEEE" height="23.3105" style="stroke:#000000;stroke-width:2;" width="124.7222" x="625.5068" y="731.6074"/><text fill="#000000" font-family="sans-serif" font-size="13" font-weight="bold" lengthAdjust="spacing" textLength="106.4375" x="631.5068" y="748.1758">Database Dump</text><g class="message" data-entity-1="part3" data-entity-2="part4" id="msg11"><polygon fill="#181818" points="603.0986,782.2285,613.0986,786.2285,603.0986,790.2285,607.0986,786.2285" style="stroke:#181818;stroke-width:1;"/><line style="stroke:#181818;stroke-width:1;" x1="436.9551" x2="609.0986" y1="786.2285" y2="786.2285"/><text fill="#000000" font-family="sans-serif" font-size="13" lengthAdjust="spacing" textLength="137.8901" x="443.9551" y="781.4863">executeMySQLDump()</text></g><g class="message" data-entity-1="part4" data-entity-2="part4" id="msg12"><line style="stroke:#181818;stroke-width:1;" x1="625.0986" x2="667.0986" y1="861.4707" y2="861.4707"/><line style="stroke:#181818;stroke-width:1;" x1="667.0986" x2="667.0986" y1="861.4707" y2="874.4707"/><line style="stroke:#181818;stroke-width:1;" x1="626.0986" x2="667.0986" y1="874.4707" y2="874.4707"/><polygon fill="#181818" points="636.0986,870.4707,626.0986,874.4707,636.0986,878.4707,632.0986,874.4707" style="stroke:#181818;stroke-width:1;"/><text fill="#000000" font-family="sans-serif" font-size="13" lengthAdjust="spacing" textLength="126.8071" x="632.0986" y="810.7969">Build ProcessBuilder</text><text fill="#000000" font-family="sans-serif" font-size="13" lengthAdjust="spacing" textLength="78.292" x="632.0986" y="826.1074">(mysqldump</text><text fill="#000000" font-family="sans-serif" font-size="13" lengthAdjust="spacing" textLength="130.6919" x="632.0986" y="841.418">--single-transaction</text><text fill="#000000" font-family="sans-serif" font-size="13" lengthAdjust="spacing" text-decoration="line-through" textLength="51.9302" x="632.0986" y="856.7285">routines</text><text fill="#000000" font-family="sans-serif" font-size="13" lengthAdjust="spacing" textLength="53.5679" x="688.1421" y="856.7285">triggers)</text></g><g class="message" data-entity-1="part4" data-entity-2="part7" id="msg13"><polygon fill="#181818" points="1131.3623,915.0918,1141.3623,919.0918,1131.3623,923.0918,1135.3623,919.0918" style="stroke:#181818;stroke-width:1;"/><line style="stroke:#181818;stroke-width:1;" x1="625.0986" x2="1137.3623" y1="919.0918" y2="919.0918"/><text fill="#000000" font-family="sans-serif" font-size="13" lengthAdjust="spacing" textLength="142.5303" x="632.0986" y="899.0391">Execute dump process</text><text fill="#000000" font-family="sans-serif" font-size="13" lengthAdjust="spacing" textLength="90.1431" x="632.0986" y="914.3496">(piped output)</text></g><g class="message" data-entity-1="part7" data-entity-2="part4" id="msg14"><polygon fill="#181818" points="636.0986,944.4023,626.0986,948.4023,636.0986,952.4023,632.0986,948.4023" style="stroke:#181818;stroke-width:1;"/><line style="stroke:#181818;stroke-width:1;stroke-dasharray:2,2;" x1="630.0986" x2="1147.3623" y1="948.4023" y2="948.4023"/><text fill="#000000" font-family="sans-serif" font-size="13" lengthAdjust="spacing" textLength="112.1948" x="642.0986" y="943.6602">SQL dump stream</text></g><g class="message" data-entity-1="part4" data-entity-2="part3" id="msg15"><polygon fill="#181818" points="447.9551,989.0234,437.9551,993.0234,447.9551,997.0234,443.9551,993.0234" style="stroke:#181818;stroke-width:1;"/><line style="stroke:#181818;stroke-width:1;stroke-dasharray:2,2;" x1="441.9551" x2="619.0986" y1="993.0234" y2="993.0234"/><text fill="#000000" font-family="sans-serif" font-size="13" lengthAdjust="spacing" textLength="76.667" x="453.9551" y="972.9707">InputStream</text><text fill="#000000" font-family="sans-serif" font-size="13" lengthAdjust="spacing" textLength="71.6523" x="453.9551" y="988.2813">(raw dump)</text></g><rect fill="#EEEEEE" height="3" style="stroke:#EEEEEE;stroke-width:1;" width="1375.7358" x="0" y="1021.6787"/><line style="stroke:#000000;stroke-width:1;" x1="0" x2="1375.7358" y1="1021.6787" y2="1021.6787"/><line style="stroke:#000000;stroke-width:1;" x1="0" x2="1375.7358" y1="1024.6787" y2="1024.6787"/><rect fill="#EEEEEE" height="23.3105" style="stroke:#000000;stroke-width:2;" width="89.9878" x="642.874" y="1011.0234"/><text fill="#000000" font-family="sans-serif" font-size="13" font-weight="bold" lengthAdjust="spacing" textLength="71.7031" x="648.874" y="1027.5918">Encryption</text><g class="message" data-entity-1="part3" data-entity-2="part5" id="msg16"><polygon fill="#181818" points="814.4585,1076.9551,824.4585,1080.9551,814.4585,1084.9551,818.4585,1080.9551" style="stroke:#181818;stroke-width:1;"/><line style="stroke:#181818;stroke-width:1;" x1="436.9551" x2="820.4585" y1="1080.9551" y2="1080.9551"/><text fill="#000000" font-family="sans-serif" font-size="13" lengthAdjust="spacing" textLength="47.125" x="443.9551" y="1060.9023">encrypt</text><text fill="#000000" font-family="sans-serif" font-size="13" lengthAdjust="spacing" textLength="162.6841" x="443.9551" y="1076.2129">(inputStream, outputPath)</text></g><g class="message" data-entity-1="part5" data-entity-2="part5" id="msg17"><line style="stroke:#181818;stroke-width:1;" x1="836.4585" x2="878.4585" y1="1125.5762" y2="1125.5762"/><line style="stroke:#181818;stroke-width:1;" x1="878.4585" x2="878.4585" y1="1125.5762" y2="1138.5762"/><line style="stroke:#181818;stroke-width:1;" x1="837.4585" x2="878.4585" y1="1138.5762" y2="1138.5762"/><polygon fill="#181818" points="847.4585,1134.5762,837.4585,1138.5762,847.4585,1142.5762,843.4585,1138.5762" style="stroke:#181818;stroke-width:1;"/><text fill="#000000" font-family="sans-serif" font-size="13" lengthAdjust="spacing" textLength="152.4453" x="843.4585" y="1105.5234">Load AES-256-GCM key</text><text fill="#000000" font-family="sans-serif" font-size="13" lengthAdjust="spacing" textLength="133.2754" x="843.4585" y="1120.834">from secure keystore</text></g><g class="message" data-entity-1="part5" data-entity-2="part5" id="msg18"><line style="stroke:#181818;stroke-width:1;" x1="836.4585" x2="878.4585" y1="1183.1973" y2="1183.1973"/><line style="stroke:#181818;stroke-width:1;" x1="878.4585" x2="878.4585" y1="1183.1973" y2="1196.1973"/><line style="stroke:#181818;stroke-width:1;" x1="837.4585" x2="878.4585" y1="1196.1973" y2="1196.1973"/><polygon fill="#181818" points="847.4585,1192.1973,837.4585,1196.1973,847.4585,1200.1973,843.4585,1196.1973" style="stroke:#181818;stroke-width:1;"/><text fill="#000000" font-family="sans-serif" font-size="13" lengthAdjust="spacing" textLength="125.8931" x="843.4585" y="1163.1445">Generate random IV</text><text fill="#000000" font-family="sans-serif" font-size="13" lengthAdjust="spacing" textLength="49.2197" x="843.4585" y="1178.4551">(96-bit)</text></g><g class="message" data-entity-1="part5" data-entity-2="part5" id="msg19"><line style="stroke:#181818;stroke-width:1;" x1="836.4585" x2="878.4585" y1="1240.8184" y2="1240.8184"/><line style="stroke:#181818;stroke-width:1;" x1="878.4585" x2="878.4585" y1="1240.8184" y2="1253.8184"/><line style="stroke:#181818;stroke-width:1;" x1="837.4585" x2="878.4585" y1="1253.8184" y2="1253.8184"/><polygon fill="#181818" points="847.4585,1249.8184,837.4585,1253.8184,847.4585,1257.8184,843.4585,1253.8184" style="stroke:#181818;stroke-width:1;"/><text fill="#000000" font-family="sans-serif" font-size="13" lengthAdjust="spacing" textLength="94.4087" x="843.4585" y="1220.7656">Encrypt stream</text><text fill="#000000" font-family="sans-serif" font-size="13" lengthAdjust="spacing" textLength="135.0273" x="843.4585" y="1236.0762">(chunked processing)</text></g><g class="message" data-entity-1="part5" data-entity-2="part8" id="msg20"><polygon fill="#181818" points="1264.6362,1294.4395,1274.6362,1298.4395,1264.6362,1302.4395,1268.6362,1298.4395" style="stroke:#181818;stroke-width:1;"/><line style="stroke:#181818;stroke-width:1;" x1="836.4585" x2="1270.6362" y1="1298.4395" y2="1298.4395"/><text fill="#000000" font-family="sans-serif" font-size="13" lengthAdjust="spacing" textLength="108.8306" x="843.4585" y="1278.3867">Write .sql.enc file</text><text fill="#000000" font-family="sans-serif" font-size="13" lengthAdjust="spacing" textLength="135.9224" x="843.4585" y="1293.6973">with permissions 600</text></g><g class="message" data-entity-1="part8" data-entity-2="part5" id="msg21"><polygon fill="#181818" points="847.4585,1323.75,837.4585,1327.75,847.4585,1331.75,843.4585,1327.75" style="stroke:#181818;stroke-width:1;"/><line style="stroke:#181818;stroke-width:1;stroke-dasharray:2,2;" x1="841.4585" x2="1280.6362" y1="1327.75" y2="1327.75"/><text fill="#000000" font-family="sans-serif" font-size="13" lengthAdjust="spacing" textLength="69.9702" x="853.4585" y="1323.0078">File written</text></g><g class="message" data-entity-1="part5" data-entity-2="part5" id="msg22"><line style="stroke:#181818;stroke-width:1;" x1="836.4585" x2="878.4585" y1="1387.6816" y2="1387.6816"/><line style="stroke:#181818;stroke-width:1;" x1="878.4585" x2="878.4585" y1="1387.6816" y2="1400.6816"/><line style="stroke:#181818;stroke-width:1;" x1="837.4585" x2="878.4585" y1="1400.6816" y2="1400.6816"/><polygon fill="#181818" points="847.4585,1396.6816,837.4585,1400.6816,847.4585,1404.6816,843.4585,1400.6816" style="stroke:#181818;stroke-width:1;"/><text fill="#000000" font-family="sans-serif" font-size="13" lengthAdjust="spacing" textLength="119.52" x="843.4585" y="1352.3184">Calculate SHA-256</text><text fill="#000000" font-family="sans-serif" font-size="13" lengthAdjust="spacing" textLength="79.936" x="843.4585" y="1367.6289">checksum of</text><text fill="#000000" font-family="sans-serif" font-size="13" lengthAdjust="spacing" textLength="86.2012" x="843.4585" y="1382.9395">encrypted file</text></g><g class="message" data-entity-1="part5" data-entity-2="part3" id="msg23"><polygon fill="#181818" points="447.9551,1456.6133,437.9551,1460.6133,447.9551,1464.6133,443.9551,1460.6133" style="stroke:#181818;stroke-width:1;"/><line style="stroke:#181818;stroke-width:1;stroke-dasharray:2,2;" x1="441.9551" x2="830.4585" y1="1460.6133" y2="1460.6133"/><text fill="#000000" font-family="sans-serif" font-size="13" lengthAdjust="spacing" textLength="105.5171" x="453.9551" y="1425.25">EncryptionResult</text><text fill="#000000" font-family="sans-serif" font-size="13" lengthAdjust="spacing" textLength="95.8115" x="453.9551" y="1440.5605">(filename, size,</text><text fill="#000000" font-family="sans-serif" font-size="13" lengthAdjust="spacing" textLength="67.2852" x="453.9551" y="1455.8711">checksum)</text></g><rect fill="#EEEEEE" height="3" style="stroke:#EEEEEE;stroke-width:1;" width="1375.7358" x="0" y="1489.2686"/><line style="stroke:#000000;stroke-width:1;" x1="0" x2="1375.7358" y1="1489.2686" y2="1489.2686"/><line style="stroke:#000000;stroke-width:1;" x1="0" x2="1375.7358" y1="1492.2686" y2="1492.2686"/><rect fill="#EEEEEE" height="23.3105" style="stroke:#000000;stroke-width:2;" width="127.1914" x="624.2722" y="1478.6133"/><text fill="#000000" font-family="sans-serif" font-size="13" font-weight="bold" lengthAdjust="spacing" textLength="108.9067" x="630.2722" y="1495.1816">Audit &amp; Cleanup</text><g class="message" data-entity-1="part3" data-entity-2="part6" id="msg24"><polygon fill="#181818" points="1000.9038,1575.166,1010.9038,1579.166,1000.9038,1583.166,1004.9038,1579.166" style="stroke:#181818;stroke-width:1;"/><line style="stroke:#181818;stroke-width:1;" x1="436.9551" x2="1006.9038" y1="1579.166" y2="1579.166"/><text fill="#000000" font-family="sans-serif" font-size="13" lengthAdjust="spacing" textLength="53.7964" x="443.9551" y="1528.4922">logEvent</text><text fill="#000000" font-family="sans-serif" font-size="13" lengthAdjust="spacing" textLength="123.1953" x="443.9551" y="1543.8027">(BACKUP_CREATED,</text><text fill="#000000" font-family="sans-serif" font-size="13" lengthAdjust="spacing" textLength="105.8281" x="443.9551" y="1559.1133">admin, filename,</text><text fill="#000000" font-family="sans-serif" font-size="13" lengthAdjust="spacing" textLength="67.2852" x="443.9551" y="1574.4238">checksum)</text></g><g class="message" data-entity-1="part6" data-entity-2="part7" id="msg25"><polygon fill="#181818" points="1136.3623,1619.7871,1146.3623,1623.7871,1136.3623,1627.7871,1140.3623,1623.7871" style="stroke:#181818;stroke-width:1;"/><line style="stroke:#181818;stroke-width:1;" x1="1017.9038" x2="1142.3623" y1="1623.7871" y2="1623.7871"/><text fill="#000000" font-family="sans-serif" font-size="13" lengthAdjust="spacing" textLength="79.6187" x="1024.9038" y="1603.7344">INSERT INTO</text><text fill="#000000" font-family="sans-serif" font-size="13" lengthAdjust="spacing" textLength="58.3984" x="1024.9038" y="1619.0449">audit_log</text></g><g class="message" data-entity-1="part3" data-entity-2="part4" id="msg26"><polygon fill="#181818" points="603.0986,1664.4082,613.0986,1668.4082,603.0986,1672.4082,607.0986,1668.4082" style="stroke:#181818;stroke-width:1;"/><line style="stroke:#181818;stroke-width:1;" x1="436.9551" x2="609.0986" y1="1668.4082" y2="1668.4082"/><text fill="#000000" font-family="sans-serif" font-size="13" lengthAdjust="spacing" textLength="111.2808" x="443.9551" y="1648.3555">rotateOldBackups</text><text fill="#000000" font-family="sans-serif" font-size="13" lengthAdjust="spacing" textLength="122.9731" x="443.9551" y="1663.666">(retentionDays=30)</text></g><g class="message" data-entity-1="part4" data-entity-2="part8" id="msg27"><polygon fill="#181818" points="1269.6362,1709.0293,1279.6362,1713.0293,1269.6362,1717.0293,1273.6362,1713.0293" style="stroke:#181818;stroke-width:1;"/><line style="stroke:#181818;stroke-width:1;" x1="625.0986" x2="1275.6362" y1="1713.0293" y2="1713.0293"/><text fill="#000000" font-family="sans-serif" font-size="13" lengthAdjust="spacing" textLength="134.6084" x="632.0986" y="1692.9766">List &amp; delete backups</text><text fill="#000000" font-family="sans-serif" font-size="13" lengthAdjust="spacing" textLength="118.2251" x="632.0986" y="1708.2871">older than 30 days</text></g><g class="message" data-entity-1="part4" data-entity-2="part3" id="msg28"><polygon fill="#181818" points="447.9551,1738.3398,437.9551,1742.3398,447.9551,1746.3398,443.9551,1742.3398" style="stroke:#181818;stroke-width:1;"/><line style="stroke:#181818;stroke-width:1;stroke-dasharray:2,2;" x1="441.9551" x2="619.0986" y1="1742.3398" y2="1742.3398"/><text fill="#000000" font-family="sans-serif" font-size="13" lengthAdjust="spacing" textLength="113.6738" x="453.9551" y="1737.5977">Cleanup complete</text></g><g class="message" data-entity-1="part3" data-entity-2="part2" id="msg29"><polygon fill="#181818" points="290.1553,1798.2715,280.1553,1802.2715,290.1553,1806.2715,286.1553,1802.2715" style="stroke:#181818;stroke-width:1;"/><line style="stroke:#181818;stroke-width:1;stroke-dasharray:2,2;" x1="284.1553" x2="425.9551" y1="1802.2715" y2="1802.2715"/><text fill="#000000" font-family="sans-serif" font-size="13" lengthAdjust="spacing" textLength="83.9414" x="296.1553" y="1766.9082">BackupResult</text><text fill="#000000" font-family="sans-serif" font-size="13" lengthAdjust="spacing" textLength="95.8115" x="296.1553" y="1782.2188">(filename, size,</text><text fill="#000000" font-family="sans-serif" font-size="13" lengthAdjust="spacing" textLength="67.2852" x="296.1553" y="1797.5293">checksum)</text></g><g class="message" data-entity-1="part2" data-entity-2="part1" id="msg30"><polygon fill="#181818" points="90.8604,1858.2031,80.8604,1862.2031,90.8604,1866.2031,86.8604,1862.2031" style="stroke:#181818;stroke-width:1;"/><line style="stroke:#181818;stroke-width:1;stroke-dasharray:2,2;" x1="84.8604" x2="268.1553" y1="1862.2031" y2="1862.2031"/><text fill="#000000" font-family="sans-serif" font-size="13" lengthAdjust="spacing" textLength="77.7969" x="96.8604" y="1826.8398">201 Created</text><text fill="#000000" font-family="sans-serif" font-size="13" lengthAdjust="spacing" textLength="95.8115" x="96.8604" y="1842.1504">{filename, size,</text><text fill="#000000" font-family="sans-serif" font-size="13" lengthAdjust="spacing" textLength="142.4985" x="96.8604" y="1857.4609">checksum, timestamp}</text></g><line style="stroke:#000000;stroke-width:1;stroke-dasharray:2,2;" x1="20" x2="1355.7358" y1="1871.2031" y2="1871.2031"/><text fill="#000000" font-family="sans-serif" font-size="11" font-weight="bold" lengthAdjust="spacing" textLength="131.3179" x="25" y="1881.8379">[Path Validation Failed]</text><g class="message" data-entity-1="part4" data-entity-2="part3" id="msg31"><polygon fill="#181818" points="447.9551,1917.7793,437.9551,1921.7793,447.9551,1925.7793,443.9551,1921.7793" style="stroke:#181818;stroke-width:1;"/><line style="stroke:#181818;stroke-width:1;stroke-dasharray:2,2;" x1="441.9551" x2="619.0986" y1="1921.7793" y2="1921.7793"/><text fill="#000000" font-family="sans-serif" font-size="13" lengthAdjust="spacing" textLength="111.4775" x="453.9551" y="1901.7266">SecurityException</text><text fill="#000000" font-family="sans-serif" font-size="13" lengthAdjust="spacing" textLength="147.5195" x="453.9551" y="1917.0371">(Path traversal attempt)</text></g><g class="message" data-entity-1="part3" data-entity-2="part6" id="msg32"><polygon fill="#181818" points="1005.9038,1977.7109,1015.9038,1981.7109,1005.9038,1985.7109,1009.9038,1981.7109" style="stroke:#181818;stroke-width:1;"/><line style="stroke:#181818;stroke-width:1;" x1="436.9551" x2="1011.9038" y1="1981.7109" y2="1981.7109"/><text fill="#000000" font-family="sans-serif" font-size="13" lengthAdjust="spacing" textLength="53.7964" x="443.9551" y="1946.3477">logEvent</text><text fill="#000000" font-family="sans-serif" font-size="13" lengthAdjust="spacing" textLength="145.0884" x="443.9551" y="1961.6582">(SECURITY_VIOLATION,</text><text fill="#000000" font-family="sans-serif" font-size="13" lengthAdjust="spacing" textLength="143.8252" x="443.9551" y="1976.9688">admin, attemptedPath)</text></g><g class="message" data-entity-1="part3" data-entity-2="part2" id="msg33"><polygon fill="#181818" points="290.1553,2007.0215,280.1553,2011.0215,290.1553,2015.0215,286.1553,2011.0215" style="stroke:#181818;stroke-width:1;"/><line style="stroke:#181818;stroke-width:1;stroke-dasharray:2,2;" x1="284.1553" x2="430.9551" y1="2011.0215" y2="2011.0215"/><text fill="#000000" font-family="sans-serif" font-size="13" lengthAdjust="spacing" textLength="111.4775" x="296.1553" y="2006.2793">SecurityException</text></g><g class="message" data-entity-1="part2" data-entity-2="part1" id="msg34"><polygon fill="#181818" points="90.8604,2051.6426,80.8604,2055.6426,90.8604,2059.6426,86.8604,2055.6426" style="stroke:#181818;stroke-width:1;"/><line style="stroke:#181818;stroke-width:1;stroke-dasharray:2,2;" x1="84.8604" x2="268.1553" y1="2055.6426" y2="2055.6426"/><text fill="#000000" font-family="sans-serif" font-size="13" lengthAdjust="spacing" textLength="106.1709" x="96.8604" y="2035.5898">400 Bad Request</text><text fill="#000000" font-family="sans-serif" font-size="13" lengthAdjust="spacing" textLength="82.2783" x="96.8604" y="2050.9004">(Invalid path)</text></g><line style="stroke:#000000;stroke-width:1;stroke-dasharray:2,2;" x1="10" x2="1365.7358" y1="2071.6426" y2="2071.6426"/><text fill="#000000" font-family="sans-serif" font-size="11" font-weight="bold" lengthAdjust="spacing" textLength="84.686" x="15" y="2082.2773">[Unauthorized]</text><g class="message" data-entity-1="part2" data-entity-2="part1" id="msg35"><polygon fill="#181818" points="90.8604,2102.9082,80.8604,2106.9082,90.8604,2110.9082,86.8604,2106.9082" style="stroke:#181818;stroke-width:1;"/><line style="stroke:#181818;stroke-width:1;stroke-dasharray:2,2;" x1="84.8604" x2="268.1553" y1="2106.9082" y2="2106.9082"/><text fill="#000000" font-family="sans-serif" font-size="13" lengthAdjust="spacing" textLength="92.6631" x="96.8604" y="2102.166">403 Forbidden</text></g><?plantuml-src bLPjJoCt4FwUNp6YrIcH24dXIdMHg9Gthcc1fDd0wTIqoDaT4ejTxvxj1T8JKdz4Vs5_ISVUroHBuFX2rlOyCvxdcV5ehds4eN3bEjBemO1fjc0AeSVS-pY2-WK-e0yd3VZldt_X1eLtXRfMOwuE9HnqlO0BhhHaz7a0J85TgTKMuHCSZ8H6USTSf5L6w58Tm7SNVBdIFJ_66j1VnAJcBe-Oq72GkEo7GilGzp41B3vhv1m8E4NlHf7FNQPvAC11-S1TpF4_e--7ZozvI4zR-8sLBGyZSISPNIvsTImnm-w7alcxq6CrZb3QS5JPWLbNkyVJZDFfyk6-MGjtJtTZZ-ifHg7YbEXrakbihOZQoyWxk5mxlr_aPDhpWrvftpX52UUSo7VMIcCm5_NM0vEj1q8Jg5iDQtJkr6gMKcZ-NAAY0vEnCuCMCrkjXSsX8eHkh5UXv7_RD7IWXqoIbry_pHf6CVo1QImJMlpSXhzXFlVCQRA5TtDnWvBVhQ4xk1nT0Hr2ag2l8VD7mgtRlP4pctPduscZPfEuwM23wmuiKHZ2C5ckDwn57kQcCEpUsHbCc5vbmHdXdPtPdOt3nfLblGEBcFjUicaiw-PAMtuAVTXV9MCAFX4VQK6lEdEnmK-QzDPSV3MepwrAZ3oFRCaumS7ZYclqgMG9xwyN0FzeDp_y-VNzSpFvSLpyQ7rV7IaJeQ1Qz8a9U0Vk2jtxkH2X3HoeEv3M5FD984T7eF1BZ8AADUN8y5YarIvj-3XtEbQdwiYLI5SPS8cc-t0qYZCU6l38zMek9bGUJnEK0LVAb27yr6xdU7d2ITBPsha3pU8M6V0Q4aT5B1vMMQSHxWehIxfdxr-5af2Uxv2myhuxY8CeazK-QU4Jkh56M-Z69jNl2zggOgrdn0aJ6H8NodwWf8m6Q_N5zmXnBffDnSNInoPHA9I13OLPbM6ikK1pUItvSadiDdRT37eT62PHWi63A75bMECHPOTGebXNn4sjAbiRzCeKcQPceQWma0LLgItPlaZGI91Vnq9GC98zMj36svWgElTUcf9MJZmbnyaFBxmUfdStkg-uV-aPi5tCVfP1BqBcGNVeD8z_F6r-x5_2FQxdz5g50PMNIu-LML2aPTm3yZ7jVq3aUcGvkg4WFvms5xp4oQvPUl-K0Z9nLx6uDs9Fw2N5L9cRCluagVd04UdhYD82TrJLSs5g5w9IrPw-hMgpUEmRzaZ86iKh5RjxcJxptTWtnvnVkYQRSs6xbue32E_c0lF1o0Ix0xGhhK8TKrInRtWtbe85U0YA-kDXuQ5IS2dtPSNPbvxwQjz79kBztI6V2ZhWXyiXDNSJGg_R_-rwSjkV3hkpuO12i0_t8UIXLGMLXrHC6jbMlfBL-UZA6Kvdz6ys9d2pUqlkg-vNWBtQucIeoMASlQ2cSKWabars1sojpaxQRszwHdyNzEvH7Ztq2GRoiIKqdG_qYWauQOD7oA-ta8mBDmmYW_Q6th5rpQs99zdz5j6KXnl3lA6q0yVj7qX3zlsYqU15c4FGF42bMH0z9o6YJw_FzdnppWZ0UpqTZkawNA-7Jov6oJDHdsmy_i2eG8D8x-cotoXgPzY_devcdszlHkEBxcmqlYg4dJf3RxF3xgTWvn9LeMxEXVkvUDzkqtaFfcRaKIRcaNWmoRM3GH8MJL-rcitzDHLEDixMze6Um7ae5zppgE5PytBxo6t-1m00?></g></svg>