<?plantuml 1.2026.2?><svg xmlns="http://www.w3.org/2000/svg" xmlns:xlink="http://www.w3.org/1999/xlink" contentStyleType="text/css" data-diagram-type="SEQUENCE" height="1139px" preserveAspectRatio="none" style="width:527px;height:1139px;background:#FFFFFF;" version="1.1" viewBox="0 0 527 1139" width="527px" zoomAndPan="magnify"><title>Machine Restock (Level 1) &#8212; VendNet</title><defs/><g><text fill="#000000" font-family="sans-serif" font-size="14" font-weight="bold" lengthAdjust="spacing" textLength="271.4209" x="129.2722" y="28.5352">Machine Restock (Level 1) &#8212; VendNet</text><g><title>VendNet System</title><rect fill="#FFFFFF" height="868.0918" style="stroke:#181818;stroke-width:1;" width="10" x="292.4067" y="180.9082"/></g><rect fill="none" height="788.4707" style="stroke:#000000;stroke-width:1.5;" width="510.9653" x="10" y="253.5293"/><rect fill="none" height="639.9629" style="stroke:#000000;stroke-width:1.5;" width="490.9653" x="20" y="335.4609"/><rect fill="none" height="506.7656" style="stroke:#000000;stroke-width:1.5;" width="470.9653" x="30" y="417.3926"/><rect fill="none" height="358.2578" style="stroke:#000000;stroke-width:1.5;" width="443.3125" x="40" y="514.6348"/><rect fill="none" height="209.75" style="stroke:#000000;stroke-width:1.5;" width="422.1216" x="50" y="596.5664"/><g class="participant-lifeline" data-entity-uid="part1" data-qualified-name="Operator" id="part1-lifeline"><g><title>Operator</title><rect fill="#000000" fill-opacity="0.00000" height="940.0234" width="8" x="89.2559" y="118.9766"/><line style="stroke:#181818;stroke-width:0.5;stroke-dasharray:5,5;" x1="93" x2="93" y1="118.9766" y2="1059"/></g></g><g class="participant-lifeline" data-entity-uid="part2" data-qualified-name="VendNet" id="part2-lifeline"><g><title>VendNet System</title><rect fill="#000000" fill-opacity="0.00000" height="940.0234" width="8" x="293.4067" y="118.9766"/><line style="stroke:#181818;stroke-width:0.5;stroke-dasharray:5,5;" x1="297.2271" x2="297.2271" y1="118.9766" y2="1059"/></g></g><g class="participant participant-head" data-entity-uid="part1" data-qualified-name="Operator" id="part1-head"><text fill="#000000" font-family="sans-serif" font-size="14" lengthAdjust="spacing" textLength="60.5117" x="60" y="116.0234">Operator</text><ellipse cx="93.2559" cy="50.9883" fill="#E2E2F0" rx="8" ry="8" style="stroke:#181818;stroke-width:0.5;"/><path d="M93.2559,58.9883 L93.2559,85.9883 M80.2559,66.9883 L106.2559,66.9883 M93.2559,85.9883 L80.2559,100.9883 M93.2559,85.9883 L106.2559,100.9883" fill="none" style="stroke:#181818;stroke-width:0.5;"/></g><g class="participant participant-tail" data-entity-uid="part1" data-qualified-name="Operator" id="part1-tail"><text fill="#000000" font-family="sans-serif" font-size="14" lengthAdjust="spacing" textLength="60.5117" x="60" y="1071.5352">Operator</text><ellipse cx="93.2559" cy="1082.9883" fill="#E2E2F0" rx="8" ry="8" style="stroke:#181818;stroke-width:0.5;"/><path d="M93.2559,1090.9883 L93.2559,1117.9883 M80.2559,1098.9883 L106.2559,1098.9883 M93.2559,1117.9883 L80.2559,1132.9883 M93.2559,1117.9883 L106.2559,1132.9883" fill="none" style="stroke:#181818;stroke-width:0.5;"/></g><g class="participant participant-head" data-entity-uid="part2" data-qualified-name="VendNet" id="part2-head"><rect fill="#ADD8E6" height="30.4883" rx="2.5" ry="2.5" style="stroke:#181818;stroke-width:0.5;" width="124.3594" x="235.2271" y="87.4883"/><text fill="#000000" font-family="sans-serif" font-size="14" lengthAdjust="spacing" textLength="110.3594" x="242.2271" y="108.0234">VendNet System</text></g><g class="participant participant-tail" data-entity-uid="part2" data-qualified-name="VendNet" id="part2-tail"><rect fill="#ADD8E6" height="30.4883" rx="2.5" ry="2.5" style="stroke:#181818;stroke-width:0.5;" width="124.3594" x="235.2271" y="1058"/><text fill="#000000" font-family="sans-serif" font-size="14" lengthAdjust="spacing" textLength="110.3594" x="242.2271" y="1078.5352">VendNet System</text></g><g><title>VendNet System</title><rect fill="#FFFFFF" height="868.0918" style="stroke:#181818;stroke-width:1;" width="10" x="292.4067" y="180.9082"/></g><g class="message" data-entity-1="part1" data-entity-2="part2" id="msg1"><polygon fill="#181818" points="280.4067,176.9082,290.4067,180.9082,280.4067,184.9082,284.4067,180.9082" style="stroke:#181818;stroke-width:1;"/><line style="stroke:#181818;stroke-width:1;" x1="93.2559" x2="286.4067" y1="180.9082" y2="180.9082"/><text fill="#000000" font-family="sans-serif" font-size="13" lengthAdjust="spacing" textLength="76.54" x="100.2559" y="145.5449">Restock slot</text><text fill="#000000" font-family="sans-serif" font-size="13" lengthAdjust="spacing" textLength="176.8774" x="100.2559" y="160.8555">(machineId, slotId, quantity)</text><text fill="#000000" font-family="sans-serif" font-size="13" lengthAdjust="spacing" textLength="170.2949" x="100.2559" y="176.166">[Authorization: Bearer JWT]</text></g><g class="message" data-entity-1="part2" data-entity-2="part2" id="msg2"><line style="stroke:#181818;stroke-width:1;" x1="302.4067" x2="344.4067" y1="225.5293" y2="225.5293"/><line style="stroke:#181818;stroke-width:1;" x1="344.4067" x2="344.4067" y1="225.5293" y2="238.5293"/><line style="stroke:#181818;stroke-width:1;" x1="303.4067" x2="344.4067" y1="238.5293" y2="238.5293"/><polygon fill="#181818" points="313.4067,234.5293,303.4067,238.5293,313.4067,242.5293,309.4067,238.5293" style="stroke:#181818;stroke-width:1;"/><text fill="#000000" font-family="sans-serif" font-size="13" lengthAdjust="spacing" textLength="91.3364" x="309.4067" y="205.4766">Validate JWT &amp;</text><text fill="#000000" font-family="sans-serif" font-size="13" lengthAdjust="spacing" textLength="72.5156" x="309.4067" y="220.7871">extract role</text></g><path d="M10,253.5293 L72.1387,253.5293 L72.1387,260.8398 L62.1387,270.8398 L10,270.8398 L10,253.5293" fill="#EEEEEE" style="stroke:#000000;stroke-width:1.5;"/><rect fill="none" height="788.4707" style="stroke:#000000;stroke-width:1.5;" width="510.9653" x="10" y="253.5293"/><text fill="#000000" font-family="sans-serif" font-size="13" font-weight="bold" lengthAdjust="spacing" textLength="17.1387" x="25" y="267.0977">alt</text><text fill="#000000" font-family="sans-serif" font-size="11" font-weight="bold" lengthAdjust="spacing" textLength="203.2905" x="87.1387" y="266.1641">[Authorized (OPERATOR or ADMIN)]</text><g class="message" data-entity-1="part2" data-entity-2="part2" id="msg3"><line style="stroke:#181818;stroke-width:1;" x1="302.4067" x2="344.4067" y1="307.4609" y2="307.4609"/><line style="stroke:#181818;stroke-width:1;" x1="344.4067" x2="344.4067" y1="307.4609" y2="320.4609"/><line style="stroke:#181818;stroke-width:1;" x1="303.4067" x2="344.4067" y1="320.4609" y2="320.4609"/><polygon fill="#181818" points="313.4067,316.4609,303.4067,320.4609,313.4067,324.4609,309.4067,320.4609" style="stroke:#181818;stroke-width:1;"/><text fill="#000000" font-family="sans-serif" font-size="13" lengthAdjust="spacing" textLength="87.7119" x="309.4067" y="287.4082">Validate input</text><text fill="#000000" font-family="sans-serif" font-size="13" lengthAdjust="spacing" textLength="87.0073" x="309.4067" y="302.7188">(quantity &gt; 0)</text></g><path d="M20,335.4609 L82.1387,335.4609 L82.1387,342.7715 L72.1387,352.7715 L20,352.7715 L20,335.4609" fill="#EEEEEE" style="stroke:#000000;stroke-width:1.5;"/><rect fill="none" height="639.9629" style="stroke:#000000;stroke-width:1.5;" width="490.9653" x="20" y="335.4609"/><text fill="#000000" font-family="sans-serif" font-size="13" font-weight="bold" lengthAdjust="spacing" textLength="17.1387" x="35" y="349.0293">alt</text><text fill="#000000" font-family="sans-serif" font-size="11" font-weight="bold" lengthAdjust="spacing" textLength="70.2163" x="97.1387" y="348.0957">[Input Valid]</text><g class="message" data-entity-1="part2" data-entity-2="part2" id="msg4"><line style="stroke:#181818;stroke-width:1;" x1="302.4067" x2="344.4067" y1="389.3926" y2="389.3926"/><line style="stroke:#181818;stroke-width:1;" x1="344.4067" x2="344.4067" y1="389.3926" y2="402.3926"/><line style="stroke:#181818;stroke-width:1;" x1="303.4067" x2="344.4067" y1="402.3926" y2="402.3926"/><polygon fill="#181818" points="313.4067,398.3926,303.4067,402.3926,313.4067,406.3926,309.4067,402.3926" style="stroke:#181818;stroke-width:1;"/><text fill="#000000" font-family="sans-serif" font-size="13" lengthAdjust="spacing" textLength="93.6152" x="309.4067" y="369.3398">Verify machine</text><text fill="#000000" font-family="sans-serif" font-size="13" lengthAdjust="spacing" textLength="70.9858" x="309.4067" y="384.6504">&amp; slot exist</text></g><path d="M30,417.3926 L92.1387,417.3926 L92.1387,424.7031 L82.1387,434.7031 L30,434.7031 L30,417.3926" fill="#EEEEEE" style="stroke:#000000;stroke-width:1.5;"/><rect fill="none" height="506.7656" style="stroke:#000000;stroke-width:1.5;" width="470.9653" x="30" y="417.3926"/><text fill="#000000" font-family="sans-serif" font-size="13" font-weight="bold" lengthAdjust="spacing" textLength="17.1387" x="45" y="430.9609">alt</text><text fill="#000000" font-family="sans-serif" font-size="11" font-weight="bold" lengthAdjust="spacing" textLength="68.2021" x="107.1387" y="430.0273">[Slot Found]</text><g class="message" data-entity-1="part2" data-entity-2="part2" id="msg5"><line style="stroke:#181818;stroke-width:1;" x1="302.4067" x2="344.4067" y1="486.6348" y2="486.6348"/><line style="stroke:#181818;stroke-width:1;" x1="344.4067" x2="344.4067" y1="486.6348" y2="499.6348"/><line style="stroke:#181818;stroke-width:1;" x1="303.4067" x2="344.4067" y1="499.6348" y2="499.6348"/><polygon fill="#181818" points="313.4067,495.6348,303.4067,499.6348,313.4067,503.6348,309.4067,499.6348" style="stroke:#181818;stroke-width:1;"/><text fill="#000000" font-family="sans-serif" font-size="13" lengthAdjust="spacing" textLength="98.0586" x="309.4067" y="451.2715">Check capacity:</text><text fill="#000000" font-family="sans-serif" font-size="13" lengthAdjust="spacing" textLength="169.5586" x="309.4067" y="466.582">currentQuantity + quantity</text><text fill="#000000" font-family="sans-serif" font-size="13" lengthAdjust="spacing" textLength="91.292" x="309.4067" y="481.8926">&#8804; slotCapacity</text></g><path d="M40,514.6348 L102.1387,514.6348 L102.1387,521.9453 L92.1387,531.9453 L40,531.9453 L40,514.6348" fill="#EEEEEE" style="stroke:#000000;stroke-width:1.5;"/><rect fill="none" height="358.2578" style="stroke:#000000;stroke-width:1.5;" width="443.3125" x="40" y="514.6348"/><text fill="#000000" font-family="sans-serif" font-size="13" font-weight="bold" lengthAdjust="spacing" textLength="17.1387" x="55" y="528.2031">alt</text><text fill="#000000" font-family="sans-serif" font-size="11" font-weight="bold" lengthAdjust="spacing" textLength="96.1426" x="117.1387" y="527.2695">[Within Capacity]</text><g class="message" data-entity-1="part2" data-entity-2="part2" id="msg6"><line style="stroke:#181818;stroke-width:1;" x1="302.4067" x2="344.4067" y1="568.5664" y2="568.5664"/><line style="stroke:#181818;stroke-width:1;" x1="344.4067" x2="344.4067" y1="568.5664" y2="581.5664"/><line style="stroke:#181818;stroke-width:1;" x1="303.4067" x2="344.4067" y1="581.5664" y2="581.5664"/><polygon fill="#181818" points="313.4067,577.5664,303.4067,581.5664,313.4067,585.5664,309.4067,581.5664" style="stroke:#181818;stroke-width:1;"/><text fill="#000000" font-family="sans-serif" font-size="13" lengthAdjust="spacing" textLength="127.8862" x="309.4067" y="548.5137">Update slot quantity</text><text fill="#000000" font-family="sans-serif" font-size="13" lengthAdjust="spacing" textLength="151.9058" x="309.4067" y="563.8242">(with optimistic locking)</text></g><path d="M50,596.5664 L112.1387,596.5664 L112.1387,603.877 L102.1387,613.877 L50,613.877 L50,596.5664" fill="#EEEEEE" style="stroke:#000000;stroke-width:1.5;"/><rect fill="none" height="209.75" style="stroke:#000000;stroke-width:1.5;" width="422.1216" x="50" y="596.5664"/><text fill="#000000" font-family="sans-serif" font-size="13" font-weight="bold" lengthAdjust="spacing" textLength="17.1387" x="65" y="610.1348">alt</text><text fill="#000000" font-family="sans-serif" font-size="11" font-weight="bold" lengthAdjust="spacing" textLength="164.7959" x="127.1387" y="609.2012">[No Concurrent Modification]</text><g class="message" data-entity-1="part2" data-entity-2="part2" id="msg7"><line style="stroke:#181818;stroke-width:1;" x1="302.4067" x2="344.4067" y1="665.8086" y2="665.8086"/><line style="stroke:#181818;stroke-width:1;" x1="344.4067" x2="344.4067" y1="665.8086" y2="678.8086"/><line style="stroke:#181818;stroke-width:1;" x1="303.4067" x2="344.4067" y1="678.8086" y2="678.8086"/><polygon fill="#181818" points="313.4067,674.8086,303.4067,678.8086,313.4067,682.8086,309.4067,678.8086" style="stroke:#181818;stroke-width:1;"/><text fill="#000000" font-family="sans-serif" font-size="13" lengthAdjust="spacing" textLength="118.0283" x="309.4067" y="630.4453">Record audit event</text><text fill="#000000" font-family="sans-serif" font-size="13" lengthAdjust="spacing" textLength="140.6387" x="309.4067" y="645.7559">(RESTOCK, operatorId,</text><text fill="#000000" font-family="sans-serif" font-size="13" lengthAdjust="spacing" textLength="140.7148" x="309.4067" y="661.0664">machineId, slotId, qty)</text></g><g class="message" data-entity-1="part2" data-entity-2="part1" id="msg8"><polygon fill="#181818" points="104.2559,719.4297,94.2559,723.4297,104.2559,727.4297,100.2559,723.4297" style="stroke:#181818;stroke-width:1;"/><line style="stroke:#181818;stroke-width:1;stroke-dasharray:2,2;" x1="98.2559" x2="291.4067" y1="723.4297" y2="723.4297"/><text fill="#000000" font-family="sans-serif" font-size="13" lengthAdjust="spacing" textLength="47.3599" x="110.2559" y="703.377">200 OK</text><text fill="#000000" font-family="sans-serif" font-size="13" lengthAdjust="spacing" textLength="119.2153" x="110.2559" y="718.6875">(updated slot data)</text></g><line style="stroke:#000000;stroke-width:1;stroke-dasharray:2,2;" x1="50" x2="472.1216" y1="732.4297" y2="732.4297"/><text fill="#000000" font-family="sans-serif" font-size="11" font-weight="bold" lengthAdjust="spacing" textLength="145.6909" x="55" y="743.0645">[Concurrent Modification]</text><g class="message" data-entity-1="part2" data-entity-2="part1" id="msg9"><polygon fill="#181818" points="104.2559,794.3164,94.2559,798.3164,104.2559,802.3164,100.2559,798.3164" style="stroke:#181818;stroke-width:1;"/><line style="stroke:#181818;stroke-width:1;stroke-dasharray:2,2;" x1="98.2559" x2="291.4067" y1="798.3164" y2="798.3164"/><text fill="#000000" font-family="sans-serif" font-size="13" lengthAdjust="spacing" textLength="77.6382" x="110.2559" y="762.9531">409 Conflict</text><text fill="#000000" font-family="sans-serif" font-size="13" lengthAdjust="spacing" textLength="175.1509" x="110.2559" y="778.2637">(Concurrent modification &#8212;</text><text fill="#000000" font-family="sans-serif" font-size="13" lengthAdjust="spacing" textLength="85.4204" x="110.2559" y="793.5742">retry request)</text></g><line style="stroke:#000000;stroke-width:1;stroke-dasharray:2,2;" x1="40" x2="483.3125" y1="814.3164" y2="814.3164"/><text fill="#000000" font-family="sans-serif" font-size="11" font-weight="bold" lengthAdjust="spacing" textLength="105.499" x="45" y="824.9512">[Exceeds Capacity]</text><g class="message" data-entity-1="part2" data-entity-2="part1" id="msg10"><polygon fill="#181818" points="104.2559,860.8926,94.2559,864.8926,104.2559,868.8926,100.2559,864.8926" style="stroke:#181818;stroke-width:1;"/><line style="stroke:#181818;stroke-width:1;stroke-dasharray:2,2;" x1="98.2559" x2="291.4067" y1="864.8926" y2="864.8926"/><text fill="#000000" font-family="sans-serif" font-size="13" lengthAdjust="spacing" textLength="160.3545" x="110.2559" y="844.8398">422 Unprocessable Entity</text><text fill="#000000" font-family="sans-serif" font-size="13" lengthAdjust="spacing" textLength="142.1558" x="110.2559" y="860.1504">(Exceeds slot capacity)</text></g><line style="stroke:#000000;stroke-width:1;stroke-dasharray:2,2;" x1="30" x2="500.9653" y1="880.8926" y2="880.8926"/><text fill="#000000" font-family="sans-serif" font-size="11" font-weight="bold" lengthAdjust="spacing" textLength="91.7651" x="35" y="891.5273">[Slot Not Found]</text><g class="message" data-entity-1="part2" data-entity-2="part1" id="msg11"><polygon fill="#181818" points="104.2559,912.1582,94.2559,916.1582,104.2559,920.1582,100.2559,916.1582" style="stroke:#181818;stroke-width:1;"/><line style="stroke:#181818;stroke-width:1;stroke-dasharray:2,2;" x1="98.2559" x2="291.4067" y1="916.1582" y2="916.1582"/><text fill="#000000" font-family="sans-serif" font-size="13" lengthAdjust="spacing" textLength="94.6118" x="110.2559" y="911.416">404 Not Found</text></g><line style="stroke:#000000;stroke-width:1;stroke-dasharray:2,2;" x1="20" x2="510.9653" y1="932.1582" y2="932.1582"/><text fill="#000000" font-family="sans-serif" font-size="11" font-weight="bold" lengthAdjust="spacing" textLength="79.9272" x="25" y="942.793">[Invalid Input]</text><g class="message" data-entity-1="part2" data-entity-2="part1" id="msg12"><polygon fill="#181818" points="104.2559,963.4238,94.2559,967.4238,104.2559,971.4238,100.2559,967.4238" style="stroke:#181818;stroke-width:1;"/><line style="stroke:#181818;stroke-width:1;stroke-dasharray:2,2;" x1="98.2559" x2="291.4067" y1="967.4238" y2="967.4238"/><text fill="#000000" font-family="sans-serif" font-size="13" lengthAdjust="spacing" textLength="106.1709" x="110.2559" y="962.6816">400 Bad Request</text></g><line style="stroke:#000000;stroke-width:1;stroke-dasharray:2,2;" x1="10" x2="520.9653" y1="983.4238" y2="983.4238"/><text fill="#000000" font-family="sans-serif" font-size="11" font-weight="bold" lengthAdjust="spacing" textLength="84.686" x="15" y="994.0586">[Unauthorized]</text><g class="message" data-entity-1="part2" data-entity-2="part1" id="msg13"><polygon fill="#181818" points="104.2559,1030,94.2559,1034,104.2559,1038,100.2559,1034" style="stroke:#181818;stroke-width:1;"/><line style="stroke:#181818;stroke-width:1;stroke-dasharray:2,2;" x1="98.2559" x2="291.4067" y1="1034" y2="1034"/><text fill="#000000" font-family="sans-serif" font-size="13" lengthAdjust="spacing" textLength="92.6631" x="110.2559" y="1013.9473">403 Forbidden</text><text fill="#000000" font-family="sans-serif" font-size="13" lengthAdjust="spacing" textLength="159.3135" x="110.2559" y="1029.2578">(Insufficient permissions)</text></g><?plantuml-src dLHDRnen4BtlhnXHAG8rbIZDfHmY0QKIJO2MZ-JGxS6nXs1riJTUBu6UUkszFw6_BB-aOo_c8tmqwbvsrvvvxytuZQsq2KANyQbK20FChERVeNoDSqpWRGMUVlw66rIYXpQA6BVQGAcVec7qLGAMGVY9efGPAxbCcR9GMkN0S9bPdFd8iFJgMjvFRJF9COf2Dhov3FlrjOeiqJPMvLaXhYFE_OfxF-H48kso4gklZTnEjP4_c9LQrQ69pA21JxUZRqwld3EBcmg2Xcsw6vP8uQ8e1yvYXGjhA1ECJaWXIom42XHGxdzk3ngZ_W18TED3jzEhH17GSn9PgZHtfGJTS0dLLPx3xxZj8hfOF0g8HawMiEf8hCvyHm0NChERJ0SvTEiVTQws48-XjgP8tUOiPPoqrMF5SsDGsIz1xUjrmsFrzEkF9ssjmdVX7VMjjAGE3WSSqp1EVQDyEHkoyYDXWKwjd565aaD2lf3glh8FwfXx6bewg8Uk5d8YkVV5NlWn7GFasWXWkP3KrpdXa8f1UpZgjwxEIKbXL_9Wh0xvaYnvceguWkVhKAjMeNz51BclNXJbqoSxK20c6VvVUJkS5zNt3cMIIEvAsmASRG6wkO-LGMkMOF0XfudSBmoVcyjBR2yueiWsv_z2NRKQZ5LgDCSiOtTqARM32GAYxqwmwQwS7IbUXX-0tde8NjAOYmFnQs0Fsb5pDwJ5m4R_mgj2ambob6zVj4RpI6F5rfTAT0ha7GaoTr88LDIAZiho2HsIT0T6KJGM6HrNLeayjC3dLzvV?></g></svg>