<?xml version="1.0" encoding="UTF-8" standalone="no"?>
<!DOCTYPE svg PUBLIC "-//W3C//DTD SVG 1.1//EN"
 "http://www.w3.org/Graphics/SVG/1.1/DTD/svg11.dtd">
<!-- Generated by graphviz version 14.1.5 (20260411.2331)
 -->
<!-- Title: tm Pages: 1 -->
<svg width="1112pt" height="860pt"
 viewBox="0.00 0.00 1112.00 860.00" xmlns="http://www.w3.org/2000/svg" xmlns:xlink="http://www.w3.org/1999/xlink">
<g id="graph0" class="graph" transform="scale(1 1) rotate(0) translate(4 856.01)">
<title>tm</title>
<polygon fill="white" stroke="none" points="-4,4 -4,-856.01 1108.09,-856.01 1108.09,4 -4,4"/>
<g id="clust1" class="cluster">
<title>cluster_boundary_TBBackEnd_579e9aae81</title>
<polygon fill="none" stroke="#ee2c2c" stroke-dasharray="5,2" points="8,-8 8,-620.13 692,-620.13 692,-8 8,-8"/>
<text xml:space="preserve" text-anchor="start" x="316.62" y="-607.63" font-family="Arial" font-style="italic" font-size="10.00">TB3: Back&#45;End</text>
</g>
<g id="clust2" class="cluster">
<title>cluster_boundary_TBDatabase_f2eb7a3ff7</title>
<polygon fill="none" stroke="#ee2c2c" stroke-dasharray="5,2" points="214,-291.7 214,-383.7 410,-383.7 410,-291.7 214,-291.7"/>
<text xml:space="preserve" text-anchor="start" x="279" y="-371.2" font-family="Arial" font-style="italic" font-size="10.00">TB4: Database</text>
</g>
<g id="clust3" class="cluster">
<title>cluster_boundary_TBInternet_acf3059e70</title>
<polygon fill="none" stroke="#ee2c2c" stroke-dasharray="5,2" points="799,-46.96 799,-186.09 1027,-186.09 1027,-46.96 799,-46.96"/>
<text xml:space="preserve" text-anchor="start" x="884.5" y="-173.59" font-family="Arial" font-style="italic" font-size="10.00">TB1: Internet</text>
</g>
<g id="clust4" class="cluster">
<title>cluster_boundary_TBExternalSystems_88f2d9c06f</title>
<polygon fill="none" stroke="#ee2c2c" stroke-dasharray="5,2" points="274,-680.88 274,-844.01 398,-844.01 398,-680.88 274,-680.88"/>
<text xml:space="preserve" text-anchor="start" x="282.38" y="-831.51" font-family="Arial" font-style="italic" font-size="10.00">TB2: External\nSystems</text>
</g>
<!-- datastore_TelemetryStore_9345ab4c19 -->
<g id="node1" class="node">
<title>datastore_TelemetryStore_9345ab4c19</title>
<image xlink:href="C:\Users\afons\AppData\Local\Packages\PythonSoftwareFoundation.Python.3.13_qbz5n2kfra8p0\LocalCache\local-packages\Python313\site-packages\pytm\images\datastore_black.png" width="49.6px" height="36px" preserveAspectRatio="xMinYMin meet" x="350.2" y="-335.695"/>
<text xml:space="preserve" text-anchor="middle" x="300.38" y="-338.15" font-family="Arial" font-size="14.00">Telemetry Store</text>
</g>
<!-- process_SystemHealthAggregator_c76a0a7067 -->
<g id="node4" class="node">
<title>process_SystemHealthAggregator_c76a0a7067</title>
<ellipse fill="none" stroke="black" cx="508" cy="-96.53" rx="80.53" ry="80.53"/>
<text xml:space="preserve" text-anchor="middle" x="508" y="-98.98" font-family="Arial" font-size="14.00">4.2 System Health</text>
<text xml:space="preserve" text-anchor="middle" x="508" y="-83.23" font-family="Arial" font-size="14.00">Aggregator</text>
</g>
<!-- datastore_TelemetryStore_9345ab4c19&#45;&gt;process_SystemHealthAggregator_c76a0a7067 -->
<g id="edge11" class="edge">
<title>datastore_TelemetryStore_9345ab4c19&#45;&gt;process_SystemHealthAggregator_c76a0a7067</title>
<path fill="none" stroke="black" d="M374.92,-299.8C375.52,-275.17 379.36,-228.71 398.5,-195.05 407.57,-179.11 420.2,-164.41 433.68,-151.53"/>
<polygon fill="black" stroke="black" points="436.04,-154.11 441.04,-144.77 431.31,-148.95 436.04,-154.11"/>
<text xml:space="preserve" text-anchor="middle" x="433.75" y="-233.53" font-family="Arial" font-size="12.00">(11) Average</text>
<text xml:space="preserve" text-anchor="middle" x="433.75" y="-219.28" font-family="Arial" font-size="12.00">Temp/Uptime</text>
<text xml:space="preserve" text-anchor="middle" x="433.75" y="-205.03" font-family="Arial" font-size="12.00">Records</text>
</g>
<!-- datastore_MachineStore_86e4604564 -->
<g id="node2" class="node">
<title>datastore_MachineStore_86e4604564</title>
<image xlink:href="C:\Users\afons\AppData\Local\Packages\PythonSoftwareFoundation.Python.3.13_qbz5n2kfra8p0\LocalCache\local-packages\Python313\site-packages\pytm\images\datastore_black.png" width="49.6px" height="36px" preserveAspectRatio="xMinYMin meet" x="224.2" y="-335.695"/>
<text xml:space="preserve" text-anchor="middle" x="178.12" y="-338.15" font-family="Arial" font-size="14.00">Machine Store</text>
</g>
<!-- process_TelemetryIngestionAPI_0291419f72 -->
<g id="node3" class="node">
<title>process_TelemetryIngestionAPI_0291419f72</title>
<ellipse fill="none" stroke="black" cx="336" cy="-512.29" rx="59.84" ry="59.84"/>
<text xml:space="preserve" text-anchor="middle" x="336" y="-514.74" font-family="Arial" font-size="14.00">4.1 Telemetry</text>
<text xml:space="preserve" text-anchor="middle" x="336" y="-498.99" font-family="Arial" font-size="14.00">Ingestion API</text>
</g>
<!-- datastore_MachineStore_86e4604564&#45;&gt;process_TelemetryIngestionAPI_0291419f72 -->
<g id="edge4" class="edge">
<title>datastore_MachineStore_86e4604564&#45;&gt;process_TelemetryIngestionAPI_0291419f72</title>
<path fill="none" stroke="black" d="M222.07,-326.27C192.96,-336.07 148.02,-356.23 128,-391.7 118.66,-408.24 117.14,-418.86 128,-434.45 158.66,-478.46 217.56,-497.32 264.88,-505.38"/>
<polygon fill="black" stroke="black" points="264.1,-508.8 274.52,-506.88 265.18,-501.88 264.1,-508.8"/>
<text xml:space="preserve" text-anchor="middle" x="170" y="-415.92" font-family="Arial" font-size="12.00">(4) Current</text>
<text xml:space="preserve" text-anchor="middle" x="170" y="-401.67" font-family="Arial" font-size="12.00">Machine Config</text>
</g>
<!-- datastore_MachineStore_86e4604564&#45;&gt;process_SystemHealthAggregator_c76a0a7067 -->
<g id="edge13" class="edge">
<title>datastore_MachineStore_86e4604564&#45;&gt;process_SystemHealthAggregator_c76a0a7067</title>
<path fill="none" stroke="black" d="M222.24,-306.8C199.55,-296.82 168.48,-278.99 154.25,-252.05 142.42,-229.65 138.9,-215.2 154.25,-195.05 186.01,-153.35 323.11,-124.96 417,-110"/>
<polygon fill="black" stroke="black" points="417.39,-113.48 426.73,-108.48 416.31,-106.57 417.39,-113.48"/>
<text xml:space="preserve" text-anchor="middle" x="189.12" y="-226.4" font-family="Arial" font-size="12.00">(13) Machine</text>
<text xml:space="preserve" text-anchor="middle" x="189.12" y="-212.15" font-family="Arial" font-size="12.00">Status Data</text>
</g>
<!-- process_TelemetryIngestionAPI_0291419f72&#45;&gt;datastore_TelemetryStore_9345ab4c19 -->
<g id="edge2" class="edge">
<title>process_TelemetryIngestionAPI_0291419f72&#45;&gt;datastore_TelemetryStore_9345ab4c19</title>
<path fill="none" stroke="black" d="M347.75,-453.24C354.9,-417.93 363.71,-374.43 369.34,-346.62"/>
<polygon fill="black" stroke="black" points="372.76,-347.37 371.32,-336.87 365.9,-345.98 372.76,-347.37"/>
<text xml:space="preserve" text-anchor="middle" x="402.89" y="-415.92" font-family="Arial" font-size="12.00">(2) Insert Raw</text>
<text xml:space="preserve" text-anchor="middle" x="402.89" y="-401.67" font-family="Arial" font-size="12.00">Telemetry Event</text>
</g>
<!-- process_TelemetryIngestionAPI_0291419f72&#45;&gt;datastore_MachineStore_86e4604564 -->
<g id="edge3" class="edge">
<title>process_TelemetryIngestionAPI_0291419f72&#45;&gt;datastore_MachineStore_86e4604564</title>
<path fill="none" stroke="black" d="M283.14,-483.47C265.16,-471.07 247.13,-454.64 237.25,-434.45 223.62,-406.56 230.58,-370.45 238.33,-346.03"/>
<polygon fill="black" stroke="black" points="241.56,-347.41 241.5,-336.82 234.94,-345.14 241.56,-347.41"/>
<text xml:space="preserve" text-anchor="middle" x="285.62" y="-423.05" font-family="Arial" font-size="12.00">(3) Update</text>
<text xml:space="preserve" text-anchor="middle" x="285.62" y="-408.8" font-family="Arial" font-size="12.00">LastTelemetryAt &amp;</text>
<text xml:space="preserve" text-anchor="middle" x="285.62" y="-394.55" font-family="Arial" font-size="12.00">Status</text>
</g>
<!-- process_AlertDispatcher_c6f87088c2 -->
<g id="node5" class="node">
<title>process_AlertDispatcher_c6f87088c2</title>
<ellipse fill="none" stroke="black" cx="636" cy="-317.7" rx="47.64" ry="47.64"/>
<text xml:space="preserve" text-anchor="middle" x="636" y="-320.15" font-family="Arial" font-size="14.00">4.3 Alert</text>
<text xml:space="preserve" text-anchor="middle" x="636" y="-304.4" font-family="Arial" font-size="14.00">Dispatcher</text>
</g>
<!-- process_TelemetryIngestionAPI_0291419f72&#45;&gt;process_AlertDispatcher_c6f87088c2 -->
<g id="edge5" class="edge">
<title>process_TelemetryIngestionAPI_0291419f72&#45;&gt;process_AlertDispatcher_c6f87088c2</title>
<path fill="none" stroke="black" d="M387.45,-481.23C410.96,-467.28 439.07,-450.3 464,-434.45 506.33,-407.52 553.56,-375.6 587.8,-352.1"/>
<polygon fill="black" stroke="black" points="589.6,-355.12 595.85,-346.57 585.63,-349.35 589.6,-355.12"/>
<text xml:space="preserve" text-anchor="middle" x="574.79" y="-423.05" font-family="Arial" font-size="12.00">(5) Detect</text>
<text xml:space="preserve" text-anchor="middle" x="574.79" y="-408.8" font-family="Arial" font-size="12.00">Critical Anomalies</text>
<text xml:space="preserve" text-anchor="middle" x="574.79" y="-394.55" font-family="Arial" font-size="12.00">(e.g., Temp High)</text>
</g>
<!-- process_SystemHealthAggregator_c76a0a7067&#45;&gt;datastore_TelemetryStore_9345ab4c19 -->
<g id="edge10" class="edge">
<title>process_SystemHealthAggregator_c76a0a7067&#45;&gt;datastore_TelemetryStore_9345ab4c19</title>
<path fill="none" stroke="black" d="M514.56,-177.14C512.61,-203.91 505.42,-232.02 487,-252.05 462.04,-279.19 436.41,-249.18 406,-270.05 398.61,-275.12 392.53,-282.58 387.77,-290.06"/>
<polygon fill="black" stroke="black" points="384.74,-288.3 382.84,-298.72 390.83,-291.76 384.74,-288.3"/>
<text xml:space="preserve" text-anchor="middle" x="558.35" y="-233.53" font-family="Arial" font-size="12.00">(10) Fetch</text>
<text xml:space="preserve" text-anchor="middle" x="558.35" y="-219.28" font-family="Arial" font-size="12.00">Aggregated</text>
<text xml:space="preserve" text-anchor="middle" x="558.35" y="-205.03" font-family="Arial" font-size="12.00">Telemetry History</text>
</g>
<!-- process_SystemHealthAggregator_c76a0a7067&#45;&gt;datastore_MachineStore_86e4604564 -->
<g id="edge12" class="edge">
<title>process_SystemHealthAggregator_c76a0a7067&#45;&gt;datastore_MachineStore_86e4604564</title>
<path fill="none" stroke="black" d="M427.67,-106.84C371.1,-117.93 298.69,-142.15 259.25,-195.05 239.26,-221.87 240.02,-261.86 243.55,-288.58"/>
<polygon fill="black" stroke="black" points="240.07,-288.99 245.06,-298.34 246.98,-287.92 240.07,-288.99"/>
<text xml:space="preserve" text-anchor="middle" x="310.62" y="-226.4" font-family="Arial" font-size="12.00">(12) Fetch Machine</text>
<text xml:space="preserve" text-anchor="middle" x="310.62" y="-212.15" font-family="Arial" font-size="12.00">Current Status</text>
</g>
<!-- actor_Operator_f8af758679 -->
<g id="node6" class="node">
<title>actor_Operator_f8af758679</title>
<polygon fill="none" stroke="black" points="863.44,-124.97 806.56,-124.97 806.56,-68.09 863.44,-68.09 863.44,-124.97"/>
<text xml:space="preserve" text-anchor="middle" x="835" y="-91.1" font-family="Arial" font-size="14.00">Operator</text>
</g>
<!-- process_SystemHealthAggregator_c76a0a7067&#45;&gt;actor_Operator_f8af758679 -->
<g id="edge14" class="edge">
<title>process_SystemHealthAggregator_c76a0a7067&#45;&gt;actor_Operator_f8af758679</title>
<path fill="none" stroke="black" d="M588.83,-96.53C654.32,-96.53 743.81,-96.53 794.89,-96.53"/>
<polygon fill="black" stroke="black" points="794.89,-100.03 804.89,-96.53 794.89,-93.03 794.89,-100.03"/>
<text xml:space="preserve" text-anchor="middle" x="697.54" y="-116.63" font-family="Arial" font-size="12.00">(14) Machine</text>
<text xml:space="preserve" text-anchor="middle" x="697.54" y="-102.38" font-family="Arial" font-size="12.00">Health Dashboard</text>
</g>
<!-- actor_Administrator_2c440ebe53 -->
<g id="node7" class="node">
<title>actor_Administrator_2c440ebe53</title>
<polygon fill="none" stroke="black" points="1018.57,-138.09 935.43,-138.09 935.43,-54.96 1018.57,-54.96 1018.57,-138.09"/>
<text xml:space="preserve" text-anchor="middle" x="977" y="-91.1" font-family="Arial" font-size="14.00">Administrator</text>
</g>
<!-- process_SystemHealthAggregator_c76a0a7067&#45;&gt;actor_Administrator_2c440ebe53 -->
<g id="edge15" class="edge">
<title>process_SystemHealthAggregator_c76a0a7067&#45;&gt;actor_Administrator_2c440ebe53</title>
<path fill="none" stroke="black" d="M576.19,-139.78C624.52,-167.78 692.02,-201.67 756.75,-216.46 802.89,-227 818.82,-232.78 863.25,-216.46 897.47,-203.89 925.73,-174.26 945.53,-147.61"/>
<polygon fill="black" stroke="black" points="948.31,-149.73 951.29,-139.56 942.62,-145.65 948.31,-149.73"/>
<text xml:space="preserve" text-anchor="middle" x="810" y="-226.4" font-family="Arial" font-size="12.00">(15) Global</text>
<text xml:space="preserve" text-anchor="middle" x="810" y="-212.15" font-family="Arial" font-size="12.00">Network Dashboard</text>
</g>
<!-- process_AlertDispatcher_c6f87088c2&#45;&gt;actor_Operator_f8af758679 -->
<g id="edge6" class="edge">
<title>process_AlertDispatcher_c6f87088c2&#45;&gt;actor_Operator_f8af758679</title>
<path fill="none" stroke="black" d="M683.51,-310C743.72,-300.43 842.29,-280.77 864,-252.05 889.43,-218.41 873.6,-169.08 857.05,-135.26"/>
<polygon fill="black" stroke="black" points="860.31,-133.94 852.63,-126.64 854.08,-137.14 860.31,-133.94"/>
<text xml:space="preserve" text-anchor="middle" x="923.45" y="-240.65" font-family="Arial" font-size="12.00">(6) Dispatch Alert</text>
<text xml:space="preserve" text-anchor="middle" x="923.45" y="-226.4" font-family="Arial" font-size="12.00">Notification</text>
<text xml:space="preserve" text-anchor="middle" x="923.45" y="-212.15" font-family="Arial" font-size="12.00">(Threshold</text>
<text xml:space="preserve" text-anchor="middle" x="923.45" y="-197.9" font-family="Arial" font-size="12.00">Exceeded)</text>
</g>
<!-- process_AlertDispatcher_c6f87088c2&#45;&gt;actor_Administrator_2c440ebe53 -->
<g id="edge7" class="edge">
<title>process_AlertDispatcher_c6f87088c2&#45;&gt;actor_Administrator_2c440ebe53</title>
<path fill="none" stroke="black" d="M683.84,-315.19C770.91,-311.33 949.82,-297.88 988,-252.05 1011.35,-224.02 1006.87,-182.3 997.49,-149.27"/>
<polygon fill="black" stroke="black" points="1000.88,-148.41 994.6,-139.89 994.19,-150.47 1000.88,-148.41"/>
<text xml:space="preserve" text-anchor="middle" x="1054.59" y="-226.4" font-family="Arial" font-size="12.00">(7) Dispatch</text>
<text xml:space="preserve" text-anchor="middle" x="1054.59" y="-212.15" font-family="Arial" font-size="12.00">System&#45;Wide Alert</text>
</g>
<!-- actor_Operator_f8af758679&#45;&gt;process_SystemHealthAggregator_c76a0a7067 -->
<g id="edge8" class="edge">
<title>actor_Operator_f8af758679&#45;&gt;process_SystemHealthAggregator_c76a0a7067</title>
<path fill="none" stroke="black" d="M806.41,-96.53C760.85,-96.53 669.84,-96.53 600.24,-96.53"/>
<polygon fill="black" stroke="black" points="600.35,-93.03 590.35,-96.53 600.34,-100.03 600.35,-93.03"/>
<text xml:space="preserve" text-anchor="middle" x="697.54" y="-116.63" font-family="Arial" font-size="12.00">(8) View Machine</text>
<text xml:space="preserve" text-anchor="middle" x="697.54" y="-102.38" font-family="Arial" font-size="12.00">Dashboard Request</text>
</g>
<!-- actor_Administrator_2c440ebe53&#45;&gt;process_SystemHealthAggregator_c76a0a7067 -->
<g id="edge9" class="edge">
<title>actor_Administrator_2c440ebe53&#45;&gt;process_SystemHealthAggregator_c76a0a7067</title>
<path fill="none" stroke="black" d="M950.01,-138.14C936.68,-155.51 919.12,-174.34 899,-186.09 806.78,-239.95 761.56,-251.37 660.62,-216.46 628.15,-205.22 597.33,-183.91 572,-162.33"/>
<polygon fill="black" stroke="black" points="574.6,-159.95 564.76,-156.01 569.99,-165.22 574.6,-159.95"/>
<text xml:space="preserve" text-anchor="middle" x="706" y="-226.4" font-family="Arial" font-size="12.00">(9) View Network</text>
<text xml:space="preserve" text-anchor="middle" x="706" y="-212.15" font-family="Arial" font-size="12.00">Health Map</text>
</g>
<!-- externalentity_VendingMachine_d2006ce1bb -->
<g id="node8" class="node">
<title>externalentity_VendingMachine_d2006ce1bb</title>
<polygon fill="none" stroke="black" points="389.56,-796.01 282.44,-796.01 282.44,-688.88 389.56,-688.88 389.56,-796.01"/>
<text xml:space="preserve" text-anchor="middle" x="336" y="-737.02" font-family="Arial" font-size="14.00">Vending Machine</text>
</g>
<!-- externalentity_VendingMachine_d2006ce1bb&#45;&gt;process_TelemetryIngestionAPI_0291419f72 -->
<g id="edge1" class="edge">
<title>externalentity_VendingMachine_d2006ce1bb&#45;&gt;process_TelemetryIngestionAPI_0291419f72</title>
<path fill="none" stroke="black" d="M336,-688.53C336,-657.3 336,-617.4 336,-583.56"/>
<polygon fill="black" stroke="black" points="339.5,-583.85 336,-573.85 332.5,-583.85 339.5,-583.85"/>
<text xml:space="preserve" text-anchor="middle" x="388.12" y="-659.48" font-family="Arial" font-size="12.00">(1) mTLS Telemetry</text>
<text xml:space="preserve" text-anchor="middle" x="388.12" y="-645.23" font-family="Arial" font-size="12.00">Data (Temp, Power,</text>
<text xml:space="preserve" text-anchor="middle" x="388.12" y="-630.98" font-family="Arial" font-size="12.00">Connectivity)</text>
</g>
</g>
</svg>
