<svg xmlns="http://www.w3.org/2000/svg" xmlns:xlink="http://www.w3.org/1999/xlink" contentStyleType="text/css" height="414px" preserveAspectRatio="none" style="width:382px;height:414px;background:#FFFFFF;" version="1.1" viewBox="0 0 382 414" width="382px" zoomAndPan="magnify"><title>Update Process</title><defs/><g><text fill="#000000" font-family="sans-serif" font-size="14" font-weight="bold" lengthAdjust="spacing" textLength="105.8203" x="145.1052" y="30.1074">Update Process</text><rect fill="#FFFFFF" height="164.7949" style="stroke:#181818;stroke-width:1.0;" width="10" x="213.5073" y="156.5332"/><rect fill="none" height="98.5039" style="stroke:#000000;stroke-width:1.5;" width="285.0347" x="10" y="215.8242"/><line style="stroke:#181818;stroke-width:0.5;stroke-dasharray:5.0,5.0;" x1="37" x2="37" y1="123.2422" y2="331.3281"/><line style="stroke:#181818;stroke-width:0.5;stroke-dasharray:5.0,5.0;" x1="217.98" x2="217.98" y1="123.2422" y2="331.3281"/><text fill="#000000" font-family="sans-serif" font-size="14" lengthAdjust="spacing" textLength="29.5586" x="20" y="119.7285">User</text><ellipse cx="37.7793" cy="53.1211" fill="#E2E2F0" rx="8" ry="8" style="stroke:#181818;stroke-width:0.5;"/><path d="M37.7793,61.1211 L37.7793,88.1211 M24.7793,69.1211 L50.7793,69.1211 M37.7793,88.1211 L24.7793,103.1211 M37.7793,88.1211 L50.7793,103.1211 " fill="none" style="stroke:#181818;stroke-width:0.5;"/><text fill="#000000" font-family="sans-serif" font-size="14" lengthAdjust="spacing" textLength="29.5586" x="20" y="345.4355">User</text><ellipse cx="37.7793" cy="357.4492" fill="#E2E2F0" rx="8" ry="8" style="stroke:#181818;stroke-width:0.5;"/><path d="M37.7793,365.4492 L37.7793,392.4492 M24.7793,373.4492 L50.7793,373.4492 M37.7793,392.4492 L24.7793,407.4492 M37.7793,392.4492 L50.7793,407.4492 " fill="none" style="stroke:#181818;stroke-width:0.5;"/><rect fill="#E2E2F0" height="32.6211" rx="2.5" ry="2.5" style="stroke:#181818;stroke-width:0.5;" width="133.0547" x="151.98" y="89.6211"/><text fill="#000000" font-family="sans-serif" font-size="14" lengthAdjust="spacing" textLength="119.0547" x="158.98" y="111.7285">Application System</text><rect fill="#E2E2F0" height="32.6211" rx="2.5" ry="2.5" style="stroke:#181818;stroke-width:0.5;" width="133.0547" x="151.98" y="330.3281"/><text fill="#000000" font-family="sans-serif" font-size="14" lengthAdjust="spacing" textLength="119.0547" x="158.98" y="352.4355">Application System</text><rect fill="#FFFFFF" height="164.7949" style="stroke:#181818;stroke-width:1.0;" width="10" x="213.5073" y="156.5332"/><polygon fill="#181818" points="201.5073,152.5332,211.5073,156.5332,201.5073,160.5332,205.5073,156.5332" style="stroke:#181818;stroke-width:1.0;"/><line style="stroke:#181818;stroke-width:1.0;" x1="37.7793" x2="207.5073" y1="156.5332" y2="156.5332"/><text fill="#000000" font-family="sans-serif" font-size="13" lengthAdjust="spacing" textLength="141.6353" x="44.7793" y="151.2705">Initiate Update with Data</text><line style="stroke:#181818;stroke-width:1.0;" x1="223.5073" x2="265.5073" y1="187.8242" y2="187.8242"/><line style="stroke:#181818;stroke-width:1.0;" x1="265.5073" x2="265.5073" y1="187.8242" y2="200.8242"/><line style="stroke:#181818;stroke-width:1.0;" x1="224.5073" x2="265.5073" y1="200.8242" y2="200.8242"/><polygon fill="#181818" points="234.5073,196.8242,224.5073,200.8242,234.5073,204.8242,230.5073,200.8242" style="stroke:#181818;stroke-width:1.0;"/><text fill="#000000" font-family="sans-serif" font-size="13" lengthAdjust="spacing" textLength="144.5234" x="230.5073" y="182.5615">Process Update Request</text><path d="M10,215.8242 L70.1709,215.8242 L70.1709,225.1152 L60.1709,235.1152 L10,235.1152 L10,215.8242 " fill="#EEEEEE" style="stroke:#000000;stroke-width:1.5;"/><rect fill="none" height="98.5039" style="stroke:#000000;stroke-width:1.5;" width="285.0347" x="10" y="215.8242"/><text fill="#000000" font-family="sans-serif" font-size="13" font-weight="bold" lengthAdjust="spacing" textLength="15.1709" x="25" y="230.8525">alt</text><text fill="#000000" font-family="sans-serif" font-size="11" font-weight="bold" lengthAdjust="spacing" textLength="105.7461" x="85.1709" y="229.6943">[Update Successful]</text><polygon fill="#181818" points="48.7793,254.4063,38.7793,258.4063,48.7793,262.4063,44.7793,258.4063" style="stroke:#181818;stroke-width:1.0;"/><line style="stroke:#181818;stroke-width:1.0;stroke-dasharray:2.0,2.0;" x1="42.7793" x2="212.5073" y1="258.4063" y2="258.4063"/><text fill="#000000" font-family="sans-serif" font-size="13" lengthAdjust="spacing" textLength="151.728" x="54.7793" y="253.1436">Display Success Message</text><line style="stroke:#000000;stroke-width:1.0;stroke-dasharray:2.0,2.0;" x1="10" x2="295.0347" y1="267.4063" y2="267.4063"/><text fill="#000000" font-family="sans-serif" font-size="11" font-weight="bold" lengthAdjust="spacing" textLength="79.4492" x="15" y="279.2764">[Update Failed]</text><polygon fill="#181818" points="48.7793,302.3281,38.7793,306.3281,48.7793,310.3281,44.7793,306.3281" style="stroke:#181818;stroke-width:1.0;"/><line style="stroke:#181818;stroke-width:1.0;stroke-dasharray:2.0,2.0;" x1="42.7793" x2="212.5073" y1="306.3281" y2="306.3281"/><text fill="#000000" font-family="sans-serif" font-size="13" lengthAdjust="spacing" textLength="131.4854" x="54.7793" y="301.0654">Display Error Message</text><!--SRC=[VP312i8m38RlUOgmko-mWo1CmOCWZZr0wA86wbRRJDdRsxfMn8Czj4dul_m_LL7BsBcUbF7eHyCX093HqMFL1VOLKi1KW2ElOiJHe5XjdBDYI6KSi9s3ykqjN4g01E1gdViQzuEe98liz1IzOaDAoKeUQPJHvVbcSwg2dlW-SL0WgsNKJYOfpfC5ZAUiY3jIZXeR2SxIN7HuY1TT6DY6Jw8TYUN-Fx_rFdxBXnvwwFad_mi0]--></g></svg>