<?plantuml 1.2026.2?><svg xmlns="http://www.w3.org/2000/svg" xmlns:xlink="http://www.w3.org/1999/xlink" contentStyleType="text/css" data-diagram-type="SEQUENCE" height="1152px" preserveAspectRatio="none" style="width:563px;height:1152px;background:#FFFFFF;" version="1.1" viewBox="0 0 563 1152" width="563px" zoomAndPan="magnify"><title>User Registration (Level 1) &#8212; VendNet</title><defs/><g><text fill="#000000" font-family="sans-serif" font-size="14" font-weight="bold" lengthAdjust="spacing" textLength="276.1719" x="144.8799" y="28.5352">User Registration (Level 1) &#8212; VendNet</text><g><title>VendNet System</title><rect fill="#FFFFFF" height="865.4473" style="stroke:#181818;stroke-width:1;" width="10" x="327.3091" y="196.2188"/></g><rect fill="none" height="785.8262" style="stroke:#000000;stroke-width:1.5;" width="546.9316" x="10" y="268.8398"/><rect fill="none" height="576.0762" style="stroke:#000000;stroke-width:1.5;" width="526.9316" x="20" y="412.0137"/><rect fill="none" height="442.8789" style="stroke:#000000;stroke-width:1.5;" width="489.1226" x="30" y="478.6348"/><rect fill="none" height="309.6816" style="stroke:#000000;stroke-width:1.5;" width="472.2036" x="40" y="545.2559"/><g class="participant-lifeline" data-entity-uid="part1" data-qualified-name="Admin" id="part1-lifeline"><g><title>Administrator</title><rect fill="#000000" fill-opacity="0.00000" height="952.6895" width="8" x="95.8604" y="118.9766"/><line style="stroke:#181818;stroke-width:0.5;stroke-dasharray:5,5;" x1="99" x2="99" y1="118.9766" y2="1071.666"/></g></g><g class="participant-lifeline" data-entity-uid="part2" data-qualified-name="VendNet" id="part2-lifeline"><g><title>VendNet System</title><rect fill="#000000" fill-opacity="0.00000" height="952.6895" width="8" x="328.3091" y="118.9766"/><line style="stroke:#181818;stroke-width:0.5;stroke-dasharray:5,5;" x1="332.1294" x2="332.1294" y1="118.9766" y2="1071.666"/></g></g><g class="participant participant-head" data-entity-uid="part1" data-qualified-name="Admin" id="part1-head"><text fill="#000000" font-family="sans-serif" font-size="14" lengthAdjust="spacing" textLength="93.7207" x="50" y="116.0234">Administrator</text><ellipse cx="99.8604" cy="50.9883" fill="#E2E2F0" rx="8" ry="8" style="stroke:#181818;stroke-width:0.5;"/><path d="M99.8604,58.9883 L99.8604,85.9883 M86.8604,66.9883 L112.8604,66.9883 M99.8604,85.9883 L86.8604,100.9883 M99.8604,85.9883 L112.8604,100.9883" fill="none" style="stroke:#181818;stroke-width:0.5;"/></g><g class="participant participant-tail" data-entity-uid="part1" data-qualified-name="Admin" id="part1-tail"><text fill="#000000" font-family="sans-serif" font-size="14" lengthAdjust="spacing" textLength="93.7207" x="50" y="1084.2012">Administrator</text><ellipse cx="99.8604" cy="1095.6543" fill="#E2E2F0" rx="8" ry="8" style="stroke:#181818;stroke-width:0.5;"/><path d="M99.8604,1103.6543 L99.8604,1130.6543 M86.8604,1111.6543 L112.8604,1111.6543 M99.8604,1130.6543 L86.8604,1145.6543 M99.8604,1130.6543 L112.8604,1145.6543" fill="none" style="stroke:#181818;stroke-width:0.5;"/></g><g class="participant participant-head" data-entity-uid="part2" data-qualified-name="VendNet" id="part2-head"><rect fill="#ADD8E6" height="30.4883" rx="2.5" ry="2.5" style="stroke:#181818;stroke-width:0.5;" width="124.3594" x="270.1294" y="87.4883"/><text fill="#000000" font-family="sans-serif" font-size="14" lengthAdjust="spacing" textLength="110.3594" x="277.1294" y="108.0234">VendNet System</text></g><g class="participant participant-tail" data-entity-uid="part2" data-qualified-name="VendNet" id="part2-tail"><rect fill="#ADD8E6" height="30.4883" rx="2.5" ry="2.5" style="stroke:#181818;stroke-width:0.5;" width="124.3594" x="270.1294" y="1070.666"/><text fill="#000000" font-family="sans-serif" font-size="14" lengthAdjust="spacing" textLength="110.3594" x="277.1294" y="1091.2012">VendNet System</text></g><g><title>VendNet System</title><rect fill="#FFFFFF" height="865.4473" style="stroke:#181818;stroke-width:1;" width="10" x="327.3091" y="196.2188"/></g><g class="message" data-entity-1="part1" data-entity-2="part2" id="msg1"><polygon fill="#181818" points="315.3091,192.2188,325.3091,196.2188,315.3091,200.2188,319.3091,196.2188" style="stroke:#181818;stroke-width:1;"/><line style="stroke:#181818;stroke-width:1;" x1="99.8604" x2="321.3091" y1="196.2188" y2="196.2188"/><text fill="#000000" font-family="sans-serif" font-size="13" lengthAdjust="spacing" textLength="72.2109" x="106.8604" y="145.5449">Create user</text><text fill="#000000" font-family="sans-serif" font-size="13" lengthAdjust="spacing" textLength="180.8701" x="106.8604" y="160.8555">(username, email, password,</text><text fill="#000000" font-family="sans-serif" font-size="13" lengthAdjust="spacing" textLength="93.2852" x="106.8604" y="176.166">fullName, role)</text><text fill="#000000" font-family="sans-serif" font-size="13" lengthAdjust="spacing" textLength="170.2949" x="106.8604" y="191.4766">[Authorization: Bearer JWT]</text></g><g class="message" data-entity-1="part2" data-entity-2="part2" id="msg2"><line style="stroke:#181818;stroke-width:1;" x1="337.3091" x2="379.3091" y1="240.8398" y2="240.8398"/><line style="stroke:#181818;stroke-width:1;" x1="379.3091" x2="379.3091" y1="240.8398" y2="253.8398"/><line style="stroke:#181818;stroke-width:1;" x1="338.3091" x2="379.3091" y1="253.8398" y2="253.8398"/><polygon fill="#181818" points="348.3091,249.8398,338.3091,253.8398,348.3091,257.8398,344.3091,253.8398" style="stroke:#181818;stroke-width:1;"/><text fill="#000000" font-family="sans-serif" font-size="13" lengthAdjust="spacing" textLength="91.3364" x="344.3091" y="220.7871">Validate JWT &amp;</text><text fill="#000000" font-family="sans-serif" font-size="13" lengthAdjust="spacing" textLength="110.4048" x="344.3091" y="236.0977">verify ADMIN role</text></g><path d="M10,268.8398 L72.1387,268.8398 L72.1387,276.1504 L62.1387,286.1504 L10,286.1504 L10,268.8398" fill="#EEEEEE" style="stroke:#000000;stroke-width:1.5;"/><rect fill="none" height="785.8262" style="stroke:#000000;stroke-width:1.5;" width="546.9316" x="10" y="268.8398"/><text fill="#000000" font-family="sans-serif" font-size="13" font-weight="bold" lengthAdjust="spacing" textLength="17.1387" x="25" y="282.4082">alt</text><text fill="#000000" font-family="sans-serif" font-size="11" font-weight="bold" lengthAdjust="spacing" textLength="204.7998" x="87.1387" y="281.4746">[Authorized (ADMINISTRATOR role)]</text><g class="message" data-entity-1="part2" data-entity-2="part2" id="msg3"><line style="stroke:#181818;stroke-width:1;" x1="337.3091" x2="379.3091" y1="384.0137" y2="384.0137"/><line style="stroke:#181818;stroke-width:1;" x1="379.3091" x2="379.3091" y1="384.0137" y2="397.0137"/><line style="stroke:#181818;stroke-width:1;" x1="338.3091" x2="379.3091" y1="397.0137" y2="397.0137"/><polygon fill="#181818" points="348.3091,393.0137,338.3091,397.0137,348.3091,401.0137,344.3091,397.0137" style="stroke:#181818;stroke-width:1;"/><text fill="#000000" font-family="sans-serif" font-size="13" lengthAdjust="spacing" textLength="87.7119" x="344.3091" y="302.7188">Validate input</text><text fill="#000000" font-family="sans-serif" font-size="13" lengthAdjust="spacing" textLength="144.4854" x="344.3091" y="318.0293">(username 3-30 chars,</text><text fill="#000000" font-family="sans-serif" font-size="13" lengthAdjust="spacing" textLength="103.4795" x="344.3091" y="333.3398">email RFC 5322,</text><text fill="#000000" font-family="sans-serif" font-size="13" lengthAdjust="spacing" textLength="105.479" x="344.3091" y="348.6504">password policy,</text><text fill="#000000" font-family="sans-serif" font-size="13" lengthAdjust="spacing" textLength="118.1489" x="344.3091" y="363.9609">role &#8712; {CUSTOMER,</text><text fill="#000000" font-family="sans-serif" font-size="13" lengthAdjust="spacing" textLength="127.9941" x="344.3091" y="379.2715">OPERATOR, ADMIN})</text></g><path d="M20,412.0137 L82.1387,412.0137 L82.1387,419.3242 L72.1387,429.3242 L20,429.3242 L20,412.0137" fill="#EEEEEE" style="stroke:#000000;stroke-width:1.5;"/><rect fill="none" height="576.0762" style="stroke:#000000;stroke-width:1.5;" width="526.9316" x="20" y="412.0137"/><text fill="#000000" font-family="sans-serif" font-size="13" font-weight="bold" lengthAdjust="spacing" textLength="17.1387" x="35" y="425.582">alt</text><text fill="#000000" font-family="sans-serif" font-size="11" font-weight="bold" lengthAdjust="spacing" textLength="70.2163" x="97.1387" y="424.6484">[Input Valid]</text><g class="message" data-entity-1="part2" data-entity-2="part2" id="msg4"><line style="stroke:#181818;stroke-width:1;" x1="337.3091" x2="379.3091" y1="450.6348" y2="450.6348"/><line style="stroke:#181818;stroke-width:1;" x1="379.3091" x2="379.3091" y1="450.6348" y2="463.6348"/><line style="stroke:#181818;stroke-width:1;" x1="338.3091" x2="379.3091" y1="463.6348" y2="463.6348"/><polygon fill="#181818" points="348.3091,459.6348,338.3091,463.6348,348.3091,467.6348,344.3091,463.6348" style="stroke:#181818;stroke-width:1;"/><text fill="#000000" font-family="sans-serif" font-size="13" lengthAdjust="spacing" textLength="180.6226" x="344.3091" y="445.8926">Check username uniqueness</text></g><path d="M30,478.6348 L92.1387,478.6348 L92.1387,485.9453 L82.1387,495.9453 L30,495.9453 L30,478.6348" fill="#EEEEEE" style="stroke:#000000;stroke-width:1.5;"/><rect fill="none" height="442.8789" style="stroke:#000000;stroke-width:1.5;" width="489.1226" x="30" y="478.6348"/><text fill="#000000" font-family="sans-serif" font-size="13" font-weight="bold" lengthAdjust="spacing" textLength="17.1387" x="45" y="492.2031">alt</text><text fill="#000000" font-family="sans-serif" font-size="11" font-weight="bold" lengthAdjust="spacing" textLength="120.3716" x="107.1387" y="491.2695">[Username Available]</text><g class="message" data-entity-1="part2" data-entity-2="part2" id="msg5"><line style="stroke:#181818;stroke-width:1;" x1="337.3091" x2="379.3091" y1="517.2559" y2="517.2559"/><line style="stroke:#181818;stroke-width:1;" x1="379.3091" x2="379.3091" y1="517.2559" y2="530.2559"/><line style="stroke:#181818;stroke-width:1;" x1="338.3091" x2="379.3091" y1="530.2559" y2="530.2559"/><polygon fill="#181818" points="348.3091,526.2559,338.3091,530.2559,348.3091,534.2559,344.3091,530.2559" style="stroke:#181818;stroke-width:1;"/><text fill="#000000" font-family="sans-serif" font-size="13" lengthAdjust="spacing" textLength="152.8135" x="344.3091" y="512.5137">Check email uniqueness</text></g><path d="M40,545.2559 L102.1387,545.2559 L102.1387,552.5664 L92.1387,562.5664 L40,562.5664 L40,545.2559" fill="#EEEEEE" style="stroke:#000000;stroke-width:1.5;"/><rect fill="none" height="309.6816" style="stroke:#000000;stroke-width:1.5;" width="472.2036" x="40" y="545.2559"/><text fill="#000000" font-family="sans-serif" font-size="13" font-weight="bold" lengthAdjust="spacing" textLength="17.1387" x="55" y="558.8242">alt</text><text fill="#000000" font-family="sans-serif" font-size="11" font-weight="bold" lengthAdjust="spacing" textLength="94.6978" x="117.1387" y="557.8906">[Email Available]</text><g class="message" data-entity-1="part2" data-entity-2="part2" id="msg6"><line style="stroke:#181818;stroke-width:1;" x1="337.3091" x2="379.3091" y1="599.1875" y2="599.1875"/><line style="stroke:#181818;stroke-width:1;" x1="379.3091" x2="379.3091" y1="599.1875" y2="612.1875"/><line style="stroke:#181818;stroke-width:1;" x1="338.3091" x2="379.3091" y1="612.1875" y2="612.1875"/><polygon fill="#181818" points="348.3091,608.1875,338.3091,612.1875,348.3091,616.1875,344.3091,612.1875" style="stroke:#181818;stroke-width:1;"/><text fill="#000000" font-family="sans-serif" font-size="13" lengthAdjust="spacing" textLength="95.6592" x="344.3091" y="579.1348">Hash password</text><text fill="#000000" font-family="sans-serif" font-size="13" lengthAdjust="spacing" textLength="145.8945" x="344.3091" y="594.4453">(BCrypt, cost factor 12)</text></g><g class="message" data-entity-1="part2" data-entity-2="part2" id="msg7"><line style="stroke:#181818;stroke-width:1;" x1="337.3091" x2="379.3091" y1="656.8086" y2="656.8086"/><line style="stroke:#181818;stroke-width:1;" x1="379.3091" x2="379.3091" y1="656.8086" y2="669.8086"/><line style="stroke:#181818;stroke-width:1;" x1="338.3091" x2="379.3091" y1="669.8086" y2="669.8086"/><polygon fill="#181818" points="348.3091,665.8086,338.3091,669.8086,348.3091,673.8086,344.3091,669.8086" style="stroke:#181818;stroke-width:1;"/><text fill="#000000" font-family="sans-serif" font-size="13" lengthAdjust="spacing" textLength="72.2109" x="344.3091" y="636.7559">Create user</text><text fill="#000000" font-family="sans-serif" font-size="13" lengthAdjust="spacing" textLength="110.7158" x="344.3091" y="652.0664">(status = ACTIVE)</text></g><g class="message" data-entity-1="part2" data-entity-2="part2" id="msg8"><line style="stroke:#181818;stroke-width:1;" x1="337.3091" x2="379.3091" y1="729.7402" y2="729.7402"/><line style="stroke:#181818;stroke-width:1;" x1="379.3091" x2="379.3091" y1="729.7402" y2="742.7402"/><line style="stroke:#181818;stroke-width:1;" x1="338.3091" x2="379.3091" y1="742.7402" y2="742.7402"/><polygon fill="#181818" points="348.3091,738.7402,338.3091,742.7402,348.3091,746.7402,344.3091,742.7402" style="stroke:#181818;stroke-width:1;"/><text fill="#000000" font-family="sans-serif" font-size="13" lengthAdjust="spacing" textLength="118.0283" x="344.3091" y="694.377">Record audit event</text><text fill="#000000" font-family="sans-serif" font-size="13" lengthAdjust="spacing" textLength="104.3491" x="344.3091" y="709.6875">(USER_CREATED,</text><text fill="#000000" font-family="sans-serif" font-size="13" lengthAdjust="spacing" textLength="129.1558" x="344.3091" y="724.998">adminId, newUserId)</text></g><g class="message" data-entity-1="part2" data-entity-2="part1" id="msg9"><polygon fill="#181818" points="110.8604,783.3613,100.8604,787.3613,110.8604,791.3613,106.8604,787.3613" style="stroke:#181818;stroke-width:1;"/><line style="stroke:#181818;stroke-width:1;stroke-dasharray:2,2;" x1="104.8604" x2="326.3091" y1="787.3613" y2="787.3613"/><text fill="#000000" font-family="sans-serif" font-size="13" lengthAdjust="spacing" textLength="77.7969" x="116.8604" y="767.3086">201 Created</text><text fill="#000000" font-family="sans-serif" font-size="13" lengthAdjust="spacing" textLength="203.4487" x="116.8604" y="782.6191">{user DTO &#8212; no password hash}</text></g><line style="stroke:#000000;stroke-width:1;stroke-dasharray:2,2;" x1="40" x2="512.2036" y1="796.3613" y2="796.3613"/><text fill="#000000" font-family="sans-serif" font-size="11" font-weight="bold" lengthAdjust="spacing" textLength="150.3154" x="45" y="806.9961">[Email Already Registered]</text><g class="message" data-entity-1="part2" data-entity-2="part1" id="msg10"><polygon fill="#181818" points="110.8604,842.9375,100.8604,846.9375,110.8604,850.9375,106.8604,846.9375" style="stroke:#181818;stroke-width:1;"/><line style="stroke:#181818;stroke-width:1;stroke-dasharray:2,2;" x1="104.8604" x2="326.3091" y1="846.9375" y2="846.9375"/><text fill="#000000" font-family="sans-serif" font-size="13" lengthAdjust="spacing" textLength="77.6382" x="116.8604" y="826.8848">409 Conflict</text><text fill="#000000" font-family="sans-serif" font-size="13" lengthAdjust="spacing" textLength="160.1133" x="116.8604" y="842.1953">(Email already registered)</text></g><line style="stroke:#000000;stroke-width:1;stroke-dasharray:2,2;" x1="30" x2="519.1226" y1="862.9375" y2="862.9375"/><text fill="#000000" font-family="sans-serif" font-size="11" font-weight="bold" lengthAdjust="spacing" textLength="149.9502" x="35" y="873.5723">[Username Already Taken]</text><g class="message" data-entity-1="part2" data-entity-2="part1" id="msg11"><polygon fill="#181818" points="110.8604,909.5137,100.8604,913.5137,110.8604,917.5137,106.8604,913.5137" style="stroke:#181818;stroke-width:1;"/><line style="stroke:#181818;stroke-width:1;stroke-dasharray:2,2;" x1="104.8604" x2="326.3091" y1="913.5137" y2="913.5137"/><text fill="#000000" font-family="sans-serif" font-size="13" lengthAdjust="spacing" textLength="77.6382" x="116.8604" y="893.4609">409 Conflict</text><text fill="#000000" font-family="sans-serif" font-size="13" lengthAdjust="spacing" textLength="160.1069" x="116.8604" y="908.7715">(Username already taken)</text></g><line style="stroke:#000000;stroke-width:1;stroke-dasharray:2,2;" x1="20" x2="546.9316" y1="929.5137" y2="929.5137"/><text fill="#000000" font-family="sans-serif" font-size="11" font-weight="bold" lengthAdjust="spacing" textLength="79.9272" x="25" y="940.1484">[Input Invalid]</text><g class="message" data-entity-1="part2" data-entity-2="part1" id="msg12"><polygon fill="#181818" points="110.8604,976.0898,100.8604,980.0898,110.8604,984.0898,106.8604,980.0898" style="stroke:#181818;stroke-width:1;"/><line style="stroke:#181818;stroke-width:1;stroke-dasharray:2,2;" x1="104.8604" x2="326.3091" y1="980.0898" y2="980.0898"/><text fill="#000000" font-family="sans-serif" font-size="13" lengthAdjust="spacing" textLength="106.1709" x="116.8604" y="960.0371">400 Bad Request</text><text fill="#000000" font-family="sans-serif" font-size="13" lengthAdjust="spacing" textLength="113.6104" x="116.8604" y="975.3477">(Validation errors)</text></g><line style="stroke:#000000;stroke-width:1;stroke-dasharray:2,2;" x1="10" x2="556.9316" y1="996.0898" y2="996.0898"/><text fill="#000000" font-family="sans-serif" font-size="11" font-weight="bold" lengthAdjust="spacing" textLength="84.686" x="15" y="1006.7246">[Unauthorized]</text><g class="message" data-entity-1="part2" data-entity-2="part1" id="msg13"><polygon fill="#181818" points="110.8604,1042.666,100.8604,1046.666,110.8604,1050.666,106.8604,1046.666" style="stroke:#181818;stroke-width:1;"/><line style="stroke:#181818;stroke-width:1;stroke-dasharray:2,2;" x1="104.8604" x2="326.3091" y1="1046.666" y2="1046.666"/><text fill="#000000" font-family="sans-serif" font-size="13" lengthAdjust="spacing" textLength="92.6631" x="116.8604" y="1026.6133">403 Forbidden</text><text fill="#000000" font-family="sans-serif" font-size="13" lengthAdjust="spacing" textLength="198.0151" x="116.8604" y="1041.9238">(Administrator access required)</text></g><?plantuml-src bLJTQjim5BxtKnmo60cua9_jOe4D7CTb7cqo72UxMCPGhPD6r95JIKv9Is6NVO0zOPzaaloJP2mXyutXIFh-T8uKKod2LAA026-PL88ebd5eNk46K-YquFNNRvWXfoDKZaCIbGbeU7J5UB4v4mqW4cp5STP4A9QmDU4A6kKfc6obmfNTLfNUNB7RfHgaEJgEFGeNdwh5FlW2YKB8jQevRveV9ojq0LU4fIwiYPGFcQ3kd2_oD1tPDP6bs9hpxrwkbfbWZzP67mP8XFRsvLlymuXd6mDSswdax9FFICgesQNFmDivtw1WYorum-jmP5bq2gc2YWSfDErQE8aZBnv7XHB70VsTn6TydQizVz2xwBKXMH8XjJFh5Q9B7zxtkbrTg5p3EajPijKLGmIlBo_mv4ydyVWwY7Hn_3MmCjn2yNEfn4WE3M71NnIFIVINcDn1hIldx3v7ZbBkZXcyQRN1ssYjvCP40tlVSUZ2tBzmA-p0xZW2V0pyCv7BkZjqiWDVRDVAXIIJ2XP5xtQwhREm3djGAg9o2H_1y-Dm5fm74M5Yxelab2dGuyJDRKydGVJJZm8l3eRwkeXf_f2wmF71v1dI4zWQt0vB7xhjJgbG-tmo8c4OZ-siygoE09OwaEV3x32LMAMRQWIwBGSV1T9pgD-rFu2VyOLkGkEdW28bbAYX3crec9qCAs7NFENHcDmXT_wFl0Qf-9K1sL7Nj9QowF-GR-m4d6Hfmu1G7OpkJsc8og4rBoCAaGbPS5ZymWudzOFW78NjmMKcRXYbo3NemIiA94dq9EW4xtDcyxFW5Fz-jVu0?></g></svg>