<?xml version="1.0" encoding="UTF-8" standalone="no"?>
<!DOCTYPE svg PUBLIC "-//W3C//DTD SVG 1.1//EN"
 "http://www.w3.org/Graphics/SVG/1.1/DTD/svg11.dtd">
<!-- Generated by graphviz version 14.1.5 (20260411.2331)
 -->
<!-- Title: tm Pages: 1 -->
<svg width="790pt" height="726pt"
 viewBox="0.00 0.00 790.00 726.00" xmlns="http://www.w3.org/2000/svg" xmlns:xlink="http://www.w3.org/1999/xlink">
<g id="graph0" class="graph" transform="scale(1 1) rotate(0) translate(4 722.28)">
<title>tm</title>
<polygon fill="white" stroke="none" points="-4,4 -4,-722.28 786,-722.28 786,4 -4,4"/>
<g id="clust1" class="cluster">
<title>cluster_boundary_TBBackEnd_88f2d9c06f</title>
<polygon fill="none" stroke="#ee2c2c" stroke-dasharray="5,2" points="8,-8 8,-710.28 345,-710.28 345,-8 8,-8"/>
<text xml:space="preserve" text-anchor="start" x="143.12" y="-697.78" font-family="Arial" font-style="italic" font-size="10.00">TB3: Back&#45;End</text>
</g>
<g id="clust2" class="cluster">
<title>cluster_boundary_TBDatabase_579e9aae81</title>
<polygon fill="none" stroke="#ee2c2c" stroke-dasharray="5,2" points="131,-590.28 131,-682.28 213,-682.28 213,-590.28 131,-590.28"/>
<text xml:space="preserve" text-anchor="start" x="139" y="-669.78" font-family="Arial" font-style="italic" font-size="10.00">TB4: Database</text>
</g>
<g id="clust3" class="cluster">
<title>cluster_boundary_TBInternet_acf3059e70</title>
<polygon fill="none" stroke="#ee2c2c" stroke-dasharray="5,2" points="411,-203.04 411,-342.17 774,-342.17 774,-203.04 411,-203.04"/>
<text xml:space="preserve" text-anchor="start" x="564" y="-329.67" font-family="Arial" font-style="italic" font-size="10.00">TB1: Internet</text>
</g>
<!-- datastore_UserStore_c6f87088c2 -->
<g id="node1" class="node">
<title>datastore_UserStore_c6f87088c2</title>
<image xlink:href="C:\Users\afons\AppData\Local\Packages\PythonSoftwareFoundation.Python.3.13_qbz5n2kfra8p0\LocalCache\local-packages\Python313\site-packages\pytm\images\datastore_black.png" width="49.6px" height="36px" preserveAspectRatio="xMinYMin meet" x="147.2" y="-634.285"/>
<text xml:space="preserve" text-anchor="middle" x="112.75" y="-636.73" font-family="Arial" font-size="14.00">User Store</text>
</g>
<!-- process_CredentialVerification_2c440ebe53 -->
<g id="node2" class="node">
<title>process_CredentialVerification_2c440ebe53</title>
<ellipse fill="none" stroke="black" cx="251" cy="-458.1" rx="61.43" ry="61.43"/>
<text xml:space="preserve" text-anchor="middle" x="251" y="-460.55" font-family="Arial" font-size="14.00">1.1 Credential</text>
<text xml:space="preserve" text-anchor="middle" x="251" y="-444.8" font-family="Arial" font-size="14.00">Verification</text>
</g>
<!-- datastore_UserStore_c6f87088c2&#45;&gt;process_CredentialVerification_2c440ebe53 -->
<g id="edge5" class="edge">
<title>datastore_UserStore_c6f87088c2&#45;&gt;process_CredentialVerification_2c440ebe53</title>
<path fill="none" stroke="black" d="M145.35,-609.75C129.29,-604.89 110.09,-596.03 100.25,-580.28 90.18,-564.17 90.39,-553.78 100.25,-537.53 117.98,-508.32 150.54,-489.48 180.86,-477.62"/>
<polygon fill="black" stroke="black" points="181.88,-480.97 190.05,-474.23 179.46,-474.4 181.88,-480.97"/>
<text xml:space="preserve" text-anchor="middle" x="136.62" y="-568.88" font-family="Arial" font-size="12.00">(5) Hashed</text>
<text xml:space="preserve" text-anchor="middle" x="136.62" y="-554.63" font-family="Arial" font-size="12.00">Credentials &amp;</text>
<text xml:space="preserve" text-anchor="middle" x="136.62" y="-540.38" font-family="Arial" font-size="12.00">Status</text>
</g>
<!-- process_CredentialVerification_2c440ebe53&#45;&gt;datastore_UserStore_c6f87088c2 -->
<g id="edge4" class="edge">
<title>process_CredentialVerification_2c440ebe53&#45;&gt;datastore_UserStore_c6f87088c2</title>
<path fill="none" stroke="black" d="M223.55,-513.38C210.72,-538.73 196.03,-567.78 185.62,-588.36"/>
<polygon fill="black" stroke="black" points="182.53,-586.72 181.14,-597.22 188.77,-589.88 182.53,-586.72"/>
<text xml:space="preserve" text-anchor="middle" x="254.13" y="-561.76" font-family="Arial" font-size="12.00">(4) Fetch hashed</text>
<text xml:space="preserve" text-anchor="middle" x="254.13" y="-547.51" font-family="Arial" font-size="12.00">password &amp; role</text>
</g>
<!-- process_TokenGenerationManagement_0291419f72 -->
<g id="node3" class="node">
<title>process_TokenGenerationManagement_0291419f72</title>
<ellipse fill="none" stroke="black" cx="192" cy="-252.6" rx="58.78" ry="58.78"/>
<text xml:space="preserve" text-anchor="middle" x="192" y="-262.93" font-family="Arial" font-size="14.00">1.2 Token</text>
<text xml:space="preserve" text-anchor="middle" x="192" y="-247.18" font-family="Arial" font-size="14.00">Generation &amp;</text>
<text xml:space="preserve" text-anchor="middle" x="192" y="-231.43" font-family="Arial" font-size="14.00">Management</text>
</g>
<!-- process_CredentialVerification_2c440ebe53&#45;&gt;process_TokenGenerationManagement_0291419f72 -->
<g id="edge6" class="edge">
<title>process_CredentialVerification_2c440ebe53&#45;&gt;process_TokenGenerationManagement_0291419f72</title>
<path fill="none" stroke="black" d="M190.26,-447.34C150.17,-437.4 100.53,-417.63 75.25,-378.67 52.3,-343.29 90.71,-308.69 129.48,-284.88"/>
<polygon fill="black" stroke="black" points="131.18,-287.94 138.01,-279.84 127.62,-281.92 131.18,-287.94"/>
<text xml:space="preserve" text-anchor="middle" x="120.62" y="-367.27" font-family="Arial" font-size="12.00">(6) Authenticated</text>
<text xml:space="preserve" text-anchor="middle" x="120.62" y="-353.02" font-family="Arial" font-size="12.00">User ID</text>
</g>
<!-- process_RBACEnforcement_c76a0a7067 -->
<g id="node4" class="node">
<title>process_RBACEnforcement_c76a0a7067</title>
<ellipse fill="none" stroke="black" cx="243" cy="-72.66" rx="56.66" ry="56.66"/>
<text xml:space="preserve" text-anchor="middle" x="243" y="-75.11" font-family="Arial" font-size="14.00">1.3 RBAC</text>
<text xml:space="preserve" text-anchor="middle" x="243" y="-59.36" font-family="Arial" font-size="14.00">Enforcement</text>
</g>
<!-- process_TokenGenerationManagement_0291419f72&#45;&gt;process_RBACEnforcement_c76a0a7067 -->
<g id="edge12" class="edge">
<title>process_TokenGenerationManagement_0291419f72&#45;&gt;process_RBACEnforcement_c76a0a7067</title>
<path fill="none" stroke="black" d="M144.17,-217.73C122.26,-197.86 103.96,-171.9 118,-147.32 131.34,-123.98 155.27,-107.3 178.66,-95.79"/>
<polygon fill="black" stroke="black" points="179.99,-99.02 187.59,-91.64 177.05,-92.67 179.99,-99.02"/>
<text xml:space="preserve" text-anchor="middle" x="157" y="-164.42" font-family="Arial" font-size="12.00">(12) Token</text>
<text xml:space="preserve" text-anchor="middle" x="157" y="-150.17" font-family="Arial" font-size="12.00">Validity &amp; Role</text>
</g>
<!-- actor_Customer_f2eb7a3ff7 -->
<g id="node5" class="node">
<title>actor_Customer_f2eb7a3ff7</title>
<polygon fill="none" stroke="black" points="481.06,-283.67 418.94,-283.67 418.94,-221.54 481.06,-221.54 481.06,-283.67"/>
<text xml:space="preserve" text-anchor="middle" x="450" y="-247.18" font-family="Arial" font-size="14.00">Customer</text>
</g>
<!-- process_TokenGenerationManagement_0291419f72&#45;&gt;actor_Customer_f2eb7a3ff7 -->
<g id="edge7" class="edge">
<title>process_TokenGenerationManagement_0291419f72&#45;&gt;actor_Customer_f2eb7a3ff7</title>
<path fill="none" stroke="black" d="M251.19,-252.6C298.79,-252.6 364.52,-252.6 407.15,-252.6"/>
<polygon fill="black" stroke="black" points="407.01,-256.1 417.01,-252.6 407.01,-249.1 407.01,-256.1"/>
<text xml:space="preserve" text-anchor="middle" x="334.86" y="-258.45" font-family="Arial" font-size="12.00">(7) JWT JWT</text>
</g>
<!-- actor_Operator_d2006ce1bb -->
<g id="node6" class="node">
<title>actor_Operator_d2006ce1bb</title>
<polygon fill="none" stroke="black" points="610.44,-281.04 553.56,-281.04 553.56,-224.16 610.44,-224.16 610.44,-281.04"/>
<text xml:space="preserve" text-anchor="middle" x="582" y="-247.18" font-family="Arial" font-size="14.00">Operator</text>
</g>
<!-- process_TokenGenerationManagement_0291419f72&#45;&gt;actor_Operator_d2006ce1bb -->
<g id="edge8" class="edge">
<title>process_TokenGenerationManagement_0291419f72&#45;&gt;actor_Operator_d2006ce1bb</title>
<path fill="none" stroke="black" d="M242.8,-282.68C284.65,-305.62 346.38,-335.32 404.75,-347.78 453.6,-358.2 474.4,-368.25 517,-342.17 536.77,-330.06 552.34,-309.47 563.28,-291.09"/>
<polygon fill="black" stroke="black" points="566.27,-292.91 568.14,-282.48 560.18,-289.47 566.27,-292.91"/>
<text xml:space="preserve" text-anchor="middle" x="443" y="-360.14" font-family="Arial" font-size="12.00">(8) JWT Token</text>
</g>
<!-- actor_Administrator_f8af758679 -->
<g id="node7" class="node">
<title>actor_Administrator_f8af758679</title>
<polygon fill="none" stroke="black" points="765.57,-294.17 682.43,-294.17 682.43,-211.04 765.57,-211.04 765.57,-294.17"/>
<text xml:space="preserve" text-anchor="middle" x="724" y="-247.18" font-family="Arial" font-size="14.00">Administrator</text>
</g>
<!-- process_TokenGenerationManagement_0291419f72&#45;&gt;actor_Administrator_f8af758679 -->
<g id="edge9" class="edge">
<title>process_TokenGenerationManagement_0291419f72&#45;&gt;actor_Administrator_f8af758679</title>
<path fill="none" stroke="black" d="M234.32,-294.07C258.19,-314.52 289.78,-337.05 322.75,-347.78 353.64,-357.83 585.65,-370.47 646,-342.17 664.1,-333.68 679.68,-318.77 692.05,-303.52"/>
<polygon fill="black" stroke="black" points="694.71,-305.81 698.04,-295.75 689.16,-301.54 694.71,-305.81"/>
<text xml:space="preserve" text-anchor="middle" x="361" y="-360.14" font-family="Arial" font-size="12.00">(9) JWT Token</text>
</g>
<!-- process_RBACEnforcement_c76a0a7067&#45;&gt;process_TokenGenerationManagement_0291419f72 -->
<g id="edge11" class="edge">
<title>process_RBACEnforcement_c76a0a7067&#45;&gt;process_TokenGenerationManagement_0291419f72</title>
<path fill="none" stroke="black" d="M227.58,-127.45C222.41,-145.52 216.57,-165.89 211.14,-184.83"/>
<polygon fill="black" stroke="black" points="207.8,-183.76 208.41,-194.33 214.53,-185.69 207.8,-183.76"/>
<text xml:space="preserve" text-anchor="middle" x="267.43" y="-164.42" font-family="Arial" font-size="12.00">(11) Validate JWT</text>
<text xml:space="preserve" text-anchor="middle" x="267.43" y="-150.17" font-family="Arial" font-size="12.00">Token</text>
</g>
<!-- actor_Customer_f2eb7a3ff7&#45;&gt;process_CredentialVerification_2c440ebe53 -->
<g id="edge1" class="edge">
<title>actor_Customer_f2eb7a3ff7&#45;&gt;process_CredentialVerification_2c440ebe53</title>
<path fill="none" stroke="black" d="M429.49,-283.92C413.87,-304.27 390.42,-329.57 363,-342.17 350.91,-347.72 252.59,-340.45 243.5,-350.17 233.82,-360.52 230.56,-374.17 230.76,-388.25"/>
<polygon fill="black" stroke="black" points="227.26,-388.35 231.49,-398.06 234.24,-387.83 227.26,-388.35"/>
<text xml:space="preserve" text-anchor="middle" x="274.25" y="-367.27" font-family="Arial" font-size="12.00">(1) Login</text>
<text xml:space="preserve" text-anchor="middle" x="274.25" y="-353.02" font-family="Arial" font-size="12.00">Credentials</text>
</g>
<!-- actor_Customer_f2eb7a3ff7&#45;&gt;process_RBACEnforcement_c76a0a7067 -->
<g id="edge10" class="edge">
<title>actor_Customer_f2eb7a3ff7&#45;&gt;process_RBACEnforcement_c76a0a7067</title>
<path fill="none" stroke="black" d="M418.69,-223.44C395.05,-202.29 361.71,-172.73 332,-147.32 320.23,-137.25 307.45,-126.55 295.36,-116.52"/>
<polygon fill="black" stroke="black" points="297.79,-113.99 287.86,-110.31 293.33,-119.38 297.79,-113.99"/>
<text xml:space="preserve" text-anchor="middle" x="417.95" y="-157.3" font-family="Arial" font-size="12.00">(10) Request + JWT</text>
</g>
<!-- actor_Operator_d2006ce1bb&#45;&gt;process_CredentialVerification_2c440ebe53 -->
<g id="edge2" class="edge">
<title>actor_Operator_d2006ce1bb&#45;&gt;process_CredentialVerification_2c440ebe53</title>
<path fill="none" stroke="black" d="M569.13,-281.49C554.67,-309.85 528.63,-353.16 494,-378.67 443.54,-415.84 374.7,-435.88 323.18,-446.37"/>
<polygon fill="black" stroke="black" points="322.76,-442.88 313.61,-448.23 324.1,-449.75 322.76,-442.88"/>
<text xml:space="preserve" text-anchor="middle" x="554.91" y="-367.27" font-family="Arial" font-size="12.00">(2) Login</text>
<text xml:space="preserve" text-anchor="middle" x="554.91" y="-353.02" font-family="Arial" font-size="12.00">Credentials</text>
</g>
<!-- actor_Administrator_f8af758679&#45;&gt;process_CredentialVerification_2c440ebe53 -->
<g id="edge3" class="edge">
<title>actor_Administrator_f8af758679&#45;&gt;process_CredentialVerification_2c440ebe53</title>
<path fill="none" stroke="black" d="M696.5,-294.47C674.9,-323.05 642.15,-359.43 604,-378.67 513.76,-424.17 397.42,-443.46 323.49,-451.51"/>
<polygon fill="black" stroke="black" points="323.54,-447.99 313.96,-452.51 324.27,-454.95 323.54,-447.99"/>
<text xml:space="preserve" text-anchor="middle" x="673.64" y="-367.27" font-family="Arial" font-size="12.00">(3) Login</text>
<text xml:space="preserve" text-anchor="middle" x="673.64" y="-353.02" font-family="Arial" font-size="12.00">Credentials</text>
</g>
</g>
</svg>
