<?plantuml 1.2026.2?><svg xmlns="http://www.w3.org/2000/svg" xmlns:xlink="http://www.w3.org/1999/xlink" contentStyleType="text/css" data-diagram-type="SEQUENCE" height="1633px" preserveAspectRatio="none" style="width:644px;height:1633px;background:#FFFFFF;" version="1.1" viewBox="0 0 644 1633" width="644px" zoomAndPan="magnify"><title>Purchase Product (Level 1) &#8212; VendNet</title><defs/><g><text fill="#000000" font-family="sans-serif" font-size="14" font-weight="bold" lengthAdjust="spacing" textLength="275.8096" x="185.2749" y="28.5352">Purchase Product (Level 1) &#8212; VendNet</text><g><title>VendNet System</title><rect fill="#FFFFFF" height="1361.2813" style="stroke:#181818;stroke-width:1;" width="10" x="314.6362" y="180.9082"/></g><g><title>Payment Gateway</title><rect fill="#FFFFFF" height="68.9316" style="stroke:#181818;stroke-width:1;" width="10" x="525.9961" y="486.6348"/></g><rect fill="none" height="1281.6602" style="stroke:#000000;stroke-width:1.5;" width="627.3594" x="10" y="253.5293"/><rect fill="none" height="1104.1973" style="stroke:#000000;stroke-width:1.5;" width="607.3594" x="20" y="335.4609"/><rect fill="none" height="955.6895" style="stroke:#000000;stroke-width:1.5;" width="587.3594" x="30" y="417.3926"/><rect fill="none" height="804.8711" style="stroke:#000000;stroke-width:1.5;" width="567.3594" x="40" y="501.6348"/><g class="participant-lifeline" data-entity-uid="part1" data-qualified-name="Customer" id="part1-lifeline"><g><title>Customer</title><rect fill="#000000" fill-opacity="0.00000" height="1433.2129" width="8" x="81.9731" y="118.9766"/><line style="stroke:#181818;stroke-width:0.5;stroke-dasharray:5,5;" x1="85" x2="85" y1="118.9766" y2="1552.1895"/></g></g><g class="participant-lifeline" data-entity-uid="part2" data-qualified-name="VendNet" id="part2-lifeline"><g><title>VendNet System</title><rect fill="#000000" fill-opacity="0.00000" height="1433.2129" width="8" x="315.6362" y="118.9766"/><line style="stroke:#181818;stroke-width:0.5;stroke-dasharray:5,5;" x1="319.4565" x2="319.4565" y1="118.9766" y2="1552.1895"/></g></g><g class="participant-lifeline" data-entity-uid="part3" data-qualified-name="PG" id="part3-lifeline"><g><title>Payment Gateway</title><rect fill="#000000" fill-opacity="0.00000" height="1433.2129" width="8" x="526.9961" y="118.9766"/><line style="stroke:#181818;stroke-width:0.5;stroke-dasharray:5,5;" x1="530.6328" x2="530.6328" y1="118.9766" y2="1552.1895"/></g></g><g class="participant participant-head" data-entity-uid="part1" data-qualified-name="Customer" id="part1-head"><text fill="#000000" font-family="sans-serif" font-size="14" lengthAdjust="spacing" textLength="65.9463" x="50" y="116.0234">Customer</text><ellipse cx="85.9731" cy="50.9883" fill="#E2E2F0" rx="8" ry="8" style="stroke:#181818;stroke-width:0.5;"/><path d="M85.9731,58.9883 L85.9731,85.9883 M72.9731,66.9883 L98.9731,66.9883 M85.9731,85.9883 L72.9731,100.9883 M85.9731,85.9883 L98.9731,100.9883" fill="none" style="stroke:#181818;stroke-width:0.5;"/></g><g class="participant participant-tail" data-entity-uid="part1" data-qualified-name="Customer" id="part1-tail"><text fill="#000000" font-family="sans-serif" font-size="14" lengthAdjust="spacing" textLength="65.9463" x="50" y="1564.7246">Customer</text><ellipse cx="85.9731" cy="1576.1777" fill="#E2E2F0" rx="8" ry="8" style="stroke:#181818;stroke-width:0.5;"/><path d="M85.9731,1584.1777 L85.9731,1611.1777 M72.9731,1592.1777 L98.9731,1592.1777 M85.9731,1611.1777 L72.9731,1626.1777 M85.9731,1611.1777 L98.9731,1626.1777" fill="none" style="stroke:#181818;stroke-width:0.5;"/></g><g class="participant participant-head" data-entity-uid="part2" data-qualified-name="VendNet" id="part2-head"><rect fill="#ADD8E6" height="30.4883" rx="2.5" ry="2.5" style="stroke:#181818;stroke-width:0.5;" width="124.3594" x="257.4565" y="87.4883"/><text fill="#000000" font-family="sans-serif" font-size="14" lengthAdjust="spacing" textLength="110.3594" x="264.4565" y="108.0234">VendNet System</text></g><g class="participant participant-tail" data-entity-uid="part2" data-qualified-name="VendNet" id="part2-tail"><rect fill="#ADD8E6" height="30.4883" rx="2.5" ry="2.5" style="stroke:#181818;stroke-width:0.5;" width="124.3594" x="257.4565" y="1551.1895"/><text fill="#000000" font-family="sans-serif" font-size="14" lengthAdjust="spacing" textLength="110.3594" x="264.4565" y="1571.7246">VendNet System</text></g><g class="participant participant-head" data-entity-uid="part3" data-qualified-name="PG" id="part3-head"><rect fill="#E2E2F0" height="46.9766" rx="2.5" ry="2.5" style="stroke:#181818;stroke-width:0.5;" width="132.7266" x="464.6328" y="71"/><text fill="#000000" font-family="sans-serif" font-size="14" lengthAdjust="spacing" textLength="118.7266" x="471.6328" y="91.5352">Payment Gateway</text><text fill="#000000" font-family="sans-serif" font-size="14" lengthAdjust="spacing" textLength="64.5107" x="498.7407" y="108.0234">(External)</text></g><g class="participant participant-tail" data-entity-uid="part3" data-qualified-name="PG" id="part3-tail"><rect fill="#E2E2F0" height="46.9766" rx="2.5" ry="2.5" style="stroke:#181818;stroke-width:0.5;" width="132.7266" x="464.6328" y="1551.1895"/><text fill="#000000" font-family="sans-serif" font-size="14" lengthAdjust="spacing" textLength="118.7266" x="471.6328" y="1571.7246">Payment Gateway</text><text fill="#000000" font-family="sans-serif" font-size="14" lengthAdjust="spacing" textLength="64.5107" x="498.7407" y="1588.2129">(External)</text></g><g><title>VendNet System</title><rect fill="#FFFFFF" height="1361.2813" style="stroke:#181818;stroke-width:1;" width="10" x="314.6362" y="180.9082"/></g><g><title>Payment Gateway</title><rect fill="#FFFFFF" height="68.9316" style="stroke:#181818;stroke-width:1;" width="10" x="525.9961" y="486.6348"/></g><g class="message" data-entity-1="part1" data-entity-2="part2" id="msg1"><polygon fill="#181818" points="302.6362,176.9082,312.6362,180.9082,302.6362,184.9082,306.6362,180.9082" style="stroke:#181818;stroke-width:1;"/><line style="stroke:#181818;stroke-width:1;" x1="85.9731" x2="308.6362" y1="180.9082" y2="180.9082"/><text fill="#000000" font-family="sans-serif" font-size="13" lengthAdjust="spacing" textLength="111.9028" x="92.9731" y="145.5449">Request purchase</text><text fill="#000000" font-family="sans-serif" font-size="13" lengthAdjust="spacing" textLength="142.7905" x="92.9731" y="160.8555">(productId, machineId,</text><text fill="#000000" font-family="sans-serif" font-size="13" lengthAdjust="spacing" textLength="209.6631" x="92.9731" y="176.166">paymentToken, idempotencyKey)</text></g><g class="message" data-entity-1="part2" data-entity-2="part2" id="msg2"><line style="stroke:#181818;stroke-width:1;" x1="324.6362" x2="366.6362" y1="225.5293" y2="225.5293"/><line style="stroke:#181818;stroke-width:1;" x1="366.6362" x2="366.6362" y1="225.5293" y2="238.5293"/><line style="stroke:#181818;stroke-width:1;" x1="325.6362" x2="366.6362" y1="238.5293" y2="238.5293"/><polygon fill="#181818" points="335.6362,234.5293,325.6362,238.5293,335.6362,242.5293,331.6362,238.5293" style="stroke:#181818;stroke-width:1;"/><text fill="#000000" font-family="sans-serif" font-size="13" lengthAdjust="spacing" textLength="93.0186" x="331.6362" y="205.4766">Authenticate &amp;</text><text fill="#000000" font-family="sans-serif" font-size="13" lengthAdjust="spacing" textLength="85.9409" x="331.6362" y="220.7871">validate input</text></g><path d="M10,253.5293 L72.1387,253.5293 L72.1387,260.8398 L62.1387,270.8398 L10,270.8398 L10,253.5293" fill="#EEEEEE" style="stroke:#000000;stroke-width:1.5;"/><rect fill="none" height="1281.6602" style="stroke:#000000;stroke-width:1.5;" width="627.3594" x="10" y="253.5293"/><text fill="#000000" font-family="sans-serif" font-size="13" font-weight="bold" lengthAdjust="spacing" textLength="17.1387" x="25" y="267.0977">alt</text><text fill="#000000" font-family="sans-serif" font-size="11" font-weight="bold" lengthAdjust="spacing" textLength="164.8818" x="87.1387" y="266.1641">[Authenticated &amp; Input Valid]</text><g class="message" data-entity-1="part2" data-entity-2="part2" id="msg3"><line style="stroke:#181818;stroke-width:1;" x1="324.6362" x2="366.6362" y1="307.4609" y2="307.4609"/><line style="stroke:#181818;stroke-width:1;" x1="366.6362" x2="366.6362" y1="307.4609" y2="320.4609"/><line style="stroke:#181818;stroke-width:1;" x1="325.6362" x2="366.6362" y1="320.4609" y2="320.4609"/><polygon fill="#181818" points="335.6362,316.4609,325.6362,320.4609,335.6362,324.4609,331.6362,320.4609" style="stroke:#181818;stroke-width:1;"/><text fill="#000000" font-family="sans-serif" font-size="13" lengthAdjust="spacing" textLength="149.5317" x="331.6362" y="287.4082">Check idempotency key</text><text fill="#000000" font-family="sans-serif" font-size="13" lengthAdjust="spacing" textLength="171.4185" x="331.6362" y="302.7188">(prevent duplicate charges)</text></g><path d="M20,335.4609 L82.1387,335.4609 L82.1387,342.7715 L72.1387,352.7715 L20,352.7715 L20,335.4609" fill="#EEEEEE" style="stroke:#000000;stroke-width:1.5;"/><rect fill="none" height="1104.1973" style="stroke:#000000;stroke-width:1.5;" width="607.3594" x="20" y="335.4609"/><text fill="#000000" font-family="sans-serif" font-size="13" font-weight="bold" lengthAdjust="spacing" textLength="17.1387" x="35" y="349.0293">alt</text><text fill="#000000" font-family="sans-serif" font-size="11" font-weight="bold" lengthAdjust="spacing" textLength="81.8394" x="97.1387" y="348.0957">[New Request]</text><g class="message" data-entity-1="part2" data-entity-2="part2" id="msg4"><line style="stroke:#181818;stroke-width:1;" x1="324.6362" x2="366.6362" y1="389.3926" y2="389.3926"/><line style="stroke:#181818;stroke-width:1;" x1="366.6362" x2="366.6362" y1="389.3926" y2="402.3926"/><line style="stroke:#181818;stroke-width:1;" x1="325.6362" x2="366.6362" y1="402.3926" y2="402.3926"/><polygon fill="#181818" points="335.6362,398.3926,325.6362,402.3926,335.6362,406.3926,331.6362,402.3926" style="stroke:#181818;stroke-width:1;"/><text fill="#000000" font-family="sans-serif" font-size="13" lengthAdjust="spacing" textLength="162.938" x="331.6362" y="369.3398">Check product availability</text><text fill="#000000" font-family="sans-serif" font-size="13" lengthAdjust="spacing" textLength="96.7446" x="331.6362" y="384.6504">&amp; reserve stock</text></g><path d="M30,417.3926 L92.1387,417.3926 L92.1387,424.7031 L82.1387,434.7031 L30,434.7031 L30,417.3926" fill="#EEEEEE" style="stroke:#000000;stroke-width:1.5;"/><rect fill="none" height="955.6895" style="stroke:#000000;stroke-width:1.5;" width="587.3594" x="30" y="417.3926"/><text fill="#000000" font-family="sans-serif" font-size="13" font-weight="bold" lengthAdjust="spacing" textLength="17.1387" x="45" y="430.9609">alt</text><text fill="#000000" font-family="sans-serif" font-size="11" font-weight="bold" lengthAdjust="spacing" textLength="100.4556" x="107.1387" y="430.0273">[Product In Stock]</text><g class="message" data-entity-1="part2" data-entity-2="part3" id="msg5"><polygon fill="#181818" points="513.9961,482.6348,523.9961,486.6348,513.9961,490.6348,517.9961,486.6348" style="stroke:#181818;stroke-width:1;"/><line style="stroke:#181818;stroke-width:1;" x1="324.6362" x2="519.9961" y1="486.6348" y2="486.6348"/><text fill="#000000" font-family="sans-serif" font-size="13" lengthAdjust="spacing" textLength="120.3008" x="331.6362" y="451.2715">Authorize payment</text><text fill="#000000" font-family="sans-serif" font-size="13" lengthAdjust="spacing" textLength="158.4438" x="331.6362" y="466.582">(amount, paymentToken,</text><text fill="#000000" font-family="sans-serif" font-size="13" lengthAdjust="spacing" textLength="107.8594" x="331.6362" y="481.8926">idempotencyKey)</text></g><path d="M40,501.6348 L102.1387,501.6348 L102.1387,508.9453 L92.1387,518.9453 L40,518.9453 L40,501.6348" fill="#EEEEEE" style="stroke:#000000;stroke-width:1.5;"/><rect fill="none" height="804.8711" style="stroke:#000000;stroke-width:1.5;" width="567.3594" x="40" y="501.6348"/><text fill="#000000" font-family="sans-serif" font-size="13" font-weight="bold" lengthAdjust="spacing" textLength="17.1387" x="55" y="515.2031">alt</text><text fill="#000000" font-family="sans-serif" font-size="11" font-weight="bold" lengthAdjust="spacing" textLength="123.041" x="117.1387" y="514.2695">[Payment Authorized]</text><g class="message" data-entity-1="part3" data-entity-2="part2" id="msg6"><polygon fill="#181818" points="335.6362,551.5664,325.6362,555.5664,335.6362,559.5664,331.6362,555.5664" style="stroke:#181818;stroke-width:1;"/><line style="stroke:#181818;stroke-width:1;stroke-dasharray:2,2;" x1="329.6362" x2="529.9961" y1="555.5664" y2="555.5664"/><text fill="#000000" font-family="sans-serif" font-size="13" lengthAdjust="spacing" textLength="136.3604" x="341.6362" y="535.5137">PaymentConfirmation</text><text fill="#000000" font-family="sans-serif" font-size="13" lengthAdjust="spacing" textLength="99.2646" x="341.6362" y="550.8242">(transactionRef)</text></g><g class="message" data-entity-1="part2" data-entity-2="part2" id="msg7"><line style="stroke:#181818;stroke-width:1;" x1="324.6362" x2="366.6362" y1="600.1875" y2="600.1875"/><line style="stroke:#181818;stroke-width:1;" x1="366.6362" x2="366.6362" y1="600.1875" y2="613.1875"/><line style="stroke:#181818;stroke-width:1;" x1="325.6362" x2="366.6362" y1="613.1875" y2="613.1875"/><polygon fill="#181818" points="335.6362,609.1875,325.6362,613.1875,335.6362,617.1875,331.6362,613.1875" style="stroke:#181818;stroke-width:1;"/><text fill="#000000" font-family="sans-serif" font-size="13" lengthAdjust="spacing" textLength="156.0063" x="331.6362" y="580.1348">Confirm stock deduction</text><text fill="#000000" font-family="sans-serif" font-size="13" lengthAdjust="spacing" textLength="171.8311" x="331.6362" y="595.4453">&amp; record sale (COMPLETED)</text></g><g class="message" data-entity-1="part2" data-entity-2="part2" id="msg8"><line style="stroke:#181818;stroke-width:1;" x1="324.6362" x2="366.6362" y1="642.498" y2="642.498"/><line style="stroke:#181818;stroke-width:1;" x1="366.6362" x2="366.6362" y1="642.498" y2="655.498"/><line style="stroke:#181818;stroke-width:1;" x1="325.6362" x2="366.6362" y1="655.498" y2="655.498"/><polygon fill="#181818" points="335.6362,651.498,325.6362,655.498,335.6362,659.498,331.6362,655.498" style="stroke:#181818;stroke-width:1;"/><text fill="#000000" font-family="sans-serif" font-size="13" lengthAdjust="spacing" textLength="177.3599" x="331.6362" y="637.7559">Store idempotency mapping</text></g><g class="message" data-entity-1="part2" data-entity-2="part1" id="msg9"><polygon fill="#181818" points="96.9731,696.1191,86.9731,700.1191,96.9731,704.1191,92.9731,700.1191" style="stroke:#181818;stroke-width:1;"/><line style="stroke:#181818;stroke-width:1;stroke-dasharray:2,2;" x1="90.9731" x2="313.6362" y1="700.1191" y2="700.1191"/><text fill="#000000" font-family="sans-serif" font-size="13" lengthAdjust="spacing" textLength="77.7969" x="102.9731" y="680.0664">201 Created</text><text fill="#000000" font-family="sans-serif" font-size="13" lengthAdjust="spacing" textLength="150.7568" x="102.9731" y="695.377">(receipt, transactionRef)</text></g><line style="stroke:#000000;stroke-width:1;stroke-dasharray:2,2;" x1="40" x2="607.3594" y1="709.1191" y2="709.1191"/><text fill="#000000" font-family="sans-serif" font-size="11" font-weight="bold" lengthAdjust="spacing" textLength="109.334" x="45" y="719.7539">[Payment Declined]</text><g class="message" data-entity-1="part3" data-entity-2="part2" id="msg10"><polygon fill="#181818" points="335.6362,740.3848,325.6362,744.3848,335.6362,748.3848,331.6362,744.3848" style="stroke:#181818;stroke-width:1;"/><line style="stroke:#181818;stroke-width:1;stroke-dasharray:2,2;" x1="329.6362" x2="529.9961" y1="744.3848" y2="744.3848"/><text fill="#000000" font-family="sans-serif" font-size="13" lengthAdjust="spacing" textLength="158.9897" x="341.6362" y="739.6426">PaymentDeclined(reason)</text></g><g class="message" data-entity-1="part2" data-entity-2="part2" id="msg11"><line style="stroke:#181818;stroke-width:1;" x1="324.6362" x2="366.6362" y1="789.0059" y2="789.0059"/><line style="stroke:#181818;stroke-width:1;" x1="366.6362" x2="366.6362" y1="789.0059" y2="802.0059"/><line style="stroke:#181818;stroke-width:1;" x1="325.6362" x2="366.6362" y1="802.0059" y2="802.0059"/><polygon fill="#181818" points="335.6362,798.0059,325.6362,802.0059,335.6362,806.0059,331.6362,802.0059" style="stroke:#181818;stroke-width:1;"/><text fill="#000000" font-family="sans-serif" font-size="13" lengthAdjust="spacing" textLength="143.3745" x="331.6362" y="768.9531">Release reserved stock</text><text fill="#000000" font-family="sans-serif" font-size="13" lengthAdjust="spacing" textLength="138.7725" x="331.6362" y="784.2637">&amp; record sale (FAILED)</text></g><g class="message" data-entity-1="part2" data-entity-2="part1" id="msg12"><polygon fill="#181818" points="96.9731,842.627,86.9731,846.627,96.9731,850.627,92.9731,846.627" style="stroke:#181818;stroke-width:1;"/><line style="stroke:#181818;stroke-width:1;stroke-dasharray:2,2;" x1="90.9731" x2="313.6362" y1="846.627" y2="846.627"/><text fill="#000000" font-family="sans-serif" font-size="13" lengthAdjust="spacing" textLength="142.5684" x="102.9731" y="826.5742">402 Payment Required</text><text fill="#000000" font-family="sans-serif" font-size="13" lengthAdjust="spacing" textLength="169.7744" x="102.9731" y="841.8848">(Payment declined: reason)</text></g><line style="stroke:#000000;stroke-width:1;stroke-dasharray:2,2;" x1="40" x2="607.3594" y1="855.627" y2="855.627"/><text fill="#000000" font-family="sans-serif" font-size="11" font-weight="bold" lengthAdjust="spacing" textLength="106.7075" x="45" y="866.2617">[Gateway Timeout]</text><g class="message" data-entity-1="part3" data-entity-2="part2" id="msg13"><polygon fill="#181818" points="335.6362,886.8926,325.6362,890.8926,335.6362,894.8926,331.6362,890.8926" style="stroke:#181818;stroke-width:1;"/><line style="stroke:#181818;stroke-width:1;stroke-dasharray:2,2;" x1="329.6362" x2="529.9961" y1="890.8926" y2="890.8926"/><text fill="#000000" font-family="sans-serif" font-size="13" lengthAdjust="spacing" textLength="62.5371" x="341.6362" y="886.1504">&#171;timeout&#187;</text></g><g class="message" data-entity-1="part2" data-entity-2="part2" id="msg14"><line style="stroke:#181818;stroke-width:1;" x1="324.6362" x2="366.6362" y1="935.5137" y2="935.5137"/><line style="stroke:#181818;stroke-width:1;" x1="366.6362" x2="366.6362" y1="935.5137" y2="948.5137"/><line style="stroke:#181818;stroke-width:1;" x1="325.6362" x2="366.6362" y1="948.5137" y2="948.5137"/><polygon fill="#181818" points="335.6362,944.5137,325.6362,948.5137,335.6362,952.5137,331.6362,948.5137" style="stroke:#181818;stroke-width:1;"/><text fill="#000000" font-family="sans-serif" font-size="13" lengthAdjust="spacing" textLength="72.5283" x="331.6362" y="915.4609">Record sale</text><text fill="#000000" font-family="sans-serif" font-size="13" lengthAdjust="spacing" textLength="159.1294" x="331.6362" y="930.7715">(PENDING_VERIFICATION)</text></g><g class="message" data-entity-1="part2" data-entity-2="part2" id="msg15"><line style="stroke:#181818;stroke-width:1;" x1="324.6362" x2="366.6362" y1="993.1348" y2="993.1348"/><line style="stroke:#181818;stroke-width:1;" x1="366.6362" x2="366.6362" y1="993.1348" y2="1006.1348"/><line style="stroke:#181818;stroke-width:1;" x1="325.6362" x2="366.6362" y1="1006.1348" y2="1006.1348"/><polygon fill="#181818" points="335.6362,1002.1348,325.6362,1006.1348,335.6362,1010.1348,331.6362,1006.1348" style="stroke:#181818;stroke-width:1;"/><text fill="#000000" font-family="sans-serif" font-size="13" lengthAdjust="spacing" textLength="95.6592" x="331.6362" y="973.082">Schedule async</text><text fill="#000000" font-family="sans-serif" font-size="13" lengthAdjust="spacing" textLength="94.3325" x="331.6362" y="988.3926">verification job</text></g><g class="message" data-entity-1="part2" data-entity-2="part1" id="msg16"><polygon fill="#181818" points="96.9731,1062.0664,86.9731,1066.0664,96.9731,1070.0664,92.9731,1066.0664" style="stroke:#181818;stroke-width:1;"/><line style="stroke:#181818;stroke-width:1;stroke-dasharray:2,2;" x1="90.9731" x2="313.6362" y1="1066.0664" y2="1066.0664"/><text fill="#000000" font-family="sans-serif" font-size="13" lengthAdjust="spacing" textLength="86.7725" x="102.9731" y="1030.7031">202 Accepted</text><text fill="#000000" font-family="sans-serif" font-size="13" lengthAdjust="spacing" textLength="147.4941" x="102.9731" y="1046.0137">(Payment processing &#8212;</text><text fill="#000000" font-family="sans-serif" font-size="13" lengthAdjust="spacing" textLength="115.2671" x="102.9731" y="1061.3242">check status later)</text></g><line style="stroke:#000000;stroke-width:1;stroke-dasharray:2,2;" x1="40" x2="607.3594" y1="1075.0664" y2="1075.0664"/><text fill="#000000" font-family="sans-serif" font-size="11" font-weight="bold" lengthAdjust="spacing" textLength="98.2212" x="45" y="1085.7012">[Network Failure]</text><g class="message" data-entity-1="part2" data-entity-2="part2" id="msg17"><line style="stroke:#181818;stroke-width:1;" x1="324.6362" x2="366.6362" y1="1110.332" y2="1110.332"/><line style="stroke:#181818;stroke-width:1;" x1="366.6362" x2="366.6362" y1="1110.332" y2="1123.332"/><line style="stroke:#181818;stroke-width:1;" x1="325.6362" x2="366.6362" y1="1123.332" y2="1123.332"/><polygon fill="#181818" points="335.6362,1119.332,325.6362,1123.332,335.6362,1127.332,331.6362,1123.332" style="stroke:#181818;stroke-width:1;"/><text fill="#000000" font-family="sans-serif" font-size="13" lengthAdjust="spacing" textLength="143.3745" x="331.6362" y="1105.5898">Release reserved stock</text></g><g class="message" data-entity-1="part2" data-entity-2="part2" id="msg18"><line style="stroke:#181818;stroke-width:1;" x1="324.6362" x2="366.6362" y1="1167.9531" y2="1167.9531"/><line style="stroke:#181818;stroke-width:1;" x1="366.6362" x2="366.6362" y1="1167.9531" y2="1180.9531"/><line style="stroke:#181818;stroke-width:1;" x1="325.6362" x2="366.6362" y1="1180.9531" y2="1180.9531"/><polygon fill="#181818" points="335.6362,1176.9531,325.6362,1180.9531,335.6362,1184.9531,331.6362,1180.9531" style="stroke:#181818;stroke-width:1;"/><text fill="#000000" font-family="sans-serif" font-size="13" lengthAdjust="spacing" textLength="72.5283" x="331.6362" y="1147.9004">Record sale</text><text fill="#000000" font-family="sans-serif" font-size="13" lengthAdjust="spacing" textLength="159.1294" x="331.6362" y="1163.2109">(PENDING_VERIFICATION)</text></g><g class="message" data-entity-1="part2" data-entity-2="part2" id="msg19"><line style="stroke:#181818;stroke-width:1;" x1="324.6362" x2="366.6362" y1="1225.5742" y2="1225.5742"/><line style="stroke:#181818;stroke-width:1;" x1="366.6362" x2="366.6362" y1="1225.5742" y2="1238.5742"/><line style="stroke:#181818;stroke-width:1;" x1="325.6362" x2="366.6362" y1="1238.5742" y2="1238.5742"/><polygon fill="#181818" points="335.6362,1234.5742,325.6362,1238.5742,335.6362,1242.5742,331.6362,1238.5742" style="stroke:#181818;stroke-width:1;"/><text fill="#000000" font-family="sans-serif" font-size="13" lengthAdjust="spacing" textLength="120.688" x="331.6362" y="1205.5215">Schedule retry with</text><text fill="#000000" font-family="sans-serif" font-size="13" lengthAdjust="spacing" textLength="144.1553" x="331.6362" y="1220.832">same idempotency key</text></g><g class="message" data-entity-1="part2" data-entity-2="part1" id="msg20"><polygon fill="#181818" points="96.9731,1294.5059,86.9731,1298.5059,96.9731,1302.5059,92.9731,1298.5059" style="stroke:#181818;stroke-width:1;"/><line style="stroke:#181818;stroke-width:1;stroke-dasharray:2,2;" x1="90.9731" x2="313.6362" y1="1298.5059" y2="1298.5059"/><text fill="#000000" font-family="sans-serif" font-size="13" lengthAdjust="spacing" textLength="86.7725" x="102.9731" y="1263.1426">202 Accepted</text><text fill="#000000" font-family="sans-serif" font-size="13" lengthAdjust="spacing" textLength="181.3589" x="102.9731" y="1278.4531">(Temporary network issue &#8212;</text><text fill="#000000" font-family="sans-serif" font-size="13" lengthAdjust="spacing" textLength="112.271" x="102.9731" y="1293.7637">retrying payment)</text></g><line style="stroke:#000000;stroke-width:1;stroke-dasharray:2,2;" x1="30" x2="617.3594" y1="1314.5059" y2="1314.5059"/><text fill="#000000" font-family="sans-serif" font-size="11" font-weight="bold" lengthAdjust="spacing" textLength="78.3105" x="35" y="1325.1406">[Out of Stock]</text><g class="message" data-entity-1="part2" data-entity-2="part1" id="msg21"><polygon fill="#181818" points="96.9731,1361.082,86.9731,1365.082,96.9731,1369.082,92.9731,1365.082" style="stroke:#181818;stroke-width:1;"/><line style="stroke:#181818;stroke-width:1;stroke-dasharray:2,2;" x1="90.9731" x2="313.6362" y1="1365.082" y2="1365.082"/><text fill="#000000" font-family="sans-serif" font-size="13" lengthAdjust="spacing" textLength="77.6382" x="102.9731" y="1345.0293">409 Conflict</text><text fill="#000000" font-family="sans-serif" font-size="13" lengthAdjust="spacing" textLength="136.4683" x="102.9731" y="1360.3398">(Product out of stock)</text></g><line style="stroke:#000000;stroke-width:1;stroke-dasharray:2,2;" x1="20" x2="627.3594" y1="1381.082" y2="1381.082"/><text fill="#000000" font-family="sans-serif" font-size="11" font-weight="bold" lengthAdjust="spacing" textLength="111.0635" x="25" y="1391.7168">[Duplicate Request]</text><g class="message" data-entity-1="part2" data-entity-2="part1" id="msg22"><polygon fill="#181818" points="96.9731,1427.6582,86.9731,1431.6582,96.9731,1435.6582,92.9731,1431.6582" style="stroke:#181818;stroke-width:1;"/><line style="stroke:#181818;stroke-width:1;stroke-dasharray:2,2;" x1="90.9731" x2="313.6362" y1="1431.6582" y2="1431.6582"/><text fill="#000000" font-family="sans-serif" font-size="13" lengthAdjust="spacing" textLength="151.29" x="102.9731" y="1411.6055">Return cached response</text><text fill="#000000" font-family="sans-serif" font-size="13" lengthAdjust="spacing" textLength="80.9771" x="102.9731" y="1426.916">(idempotent)</text></g><line style="stroke:#000000;stroke-width:1;stroke-dasharray:2,2;" x1="10" x2="637.3594" y1="1447.6582" y2="1447.6582"/><text fill="#000000" font-family="sans-serif" font-size="11" font-weight="bold" lengthAdjust="spacing" textLength="79.9272" x="15" y="1458.293">[Invalid Input]</text><g class="message" data-entity-1="part2" data-entity-2="part1" id="msg23"><polygon fill="#181818" points="96.9731,1478.9238,86.9731,1482.9238,96.9731,1486.9238,92.9731,1482.9238" style="stroke:#181818;stroke-width:1;"/><line style="stroke:#181818;stroke-width:1;stroke-dasharray:2,2;" x1="90.9731" x2="313.6362" y1="1482.9238" y2="1482.9238"/><text fill="#000000" font-family="sans-serif" font-size="13" lengthAdjust="spacing" textLength="106.1709" x="102.9731" y="1478.1816">400 Bad Request</text></g><line style="stroke:#000000;stroke-width:1;stroke-dasharray:2,2;" x1="10" x2="637.3594" y1="1491.9238" y2="1491.9238"/><text fill="#000000" font-family="sans-serif" font-size="11" font-weight="bold" lengthAdjust="spacing" textLength="101.0679" x="15" y="1502.5586">[Unauthenticated]</text><g class="message" data-entity-1="part2" data-entity-2="part1" id="msg24"><polygon fill="#181818" points="96.9731,1523.1895,86.9731,1527.1895,96.9731,1531.1895,92.9731,1527.1895" style="stroke:#181818;stroke-width:1;"/><line style="stroke:#181818;stroke-width:1;stroke-dasharray:2,2;" x1="90.9731" x2="313.6362" y1="1527.1895" y2="1527.1895"/><text fill="#000000" font-family="sans-serif" font-size="13" lengthAdjust="spacing" textLength="113.9658" x="102.9731" y="1522.4473">401 Unauthorized</text></g><?plantuml-src nPN1RXen48Rl-nIZL8g2b4X9r4kZA181WbQb116Q4rBbU8VWicjlRIzqU-f3z0dx91rxlS2IbABsK4vcxPb_vlDunWgR8emApUVCq4AhfE0MJWQun1GkMl3p-mzuH9aCqKOHurPfEEeKngeCzH4m0_MVACgPjeABd4aBHy467afZCVCdwqzl1k9vRc_J0fic8rPcI8i-ixXYvLIUzBvQr9AbBMy_waTHhGPdDxM_AnZZbmADXJoaGPPvbKYSd4B6-5n8fELKvfN4H2rGde98CCkLHSdBzrYsN7fYIUARXEkGjzNQXPsJ3y7ToUEfNB9K96ujP5uuIAbjd4dW66At1O_kP1G1_Lvpt9aZNsm71GiiVIvq6SGbAVAqKgKizJEQLkNB2GvnLMEeFkuN2NY0BPb8sPD8XIMbOz1eK2yH239VR1mvXReqOWaFpTqTgL6_OgIq-8OGY5CQB5E5jAVGk8EftBs4RQ_h2t5NtzXm0OLoMMibZIFkD-h3sNRomQIZv4peZ5cX90LcDPF6IIavnbdhXPS4j-FOtNqLSYLGOIHx1yvhES9SwGGCesTtqhd_C1hq9hrkwo2tn5rZeq0obkT2Fl_Uciph9tC5b-SNqD7eQfBIfaXGv7GXk_atl67gsa90tKMUqbCw67HzdhIOKVAmBCUOekj5eHQJYk8BTdVjUB0NN2Frj-UNwopSEn7QCwW_9I7GAwWZVGaXj2MOY0mLFVG_CRY-jjN9cvi3yrvdvoBh3RlniF_fiJUEx-9EUnBV3m-i4ZwdWYD4p9IIKtz2BMQkRz3zmcVrT72nN4ARSynjWnHr3ex6KD6vqJ2LtFSJOvaj3AI4IB_6Zjolb5x07RMRGkC_rC7_GQdHwX9Mmiwdz5GotEtIVyTqudneHfvbu2ECAR02woKTvj0lcn6J-mrcZ_YU1eoQXTvyo8DuvziKJHJNdElkhYel7lL6SQtcbRhhELHFdFrIOxI5bi2Pe-ckCrVI3-arn92Sb_4ISJLLgxaPxSlY76vPiXbztlgZPDlpTw_zHJWT9eWFOQlX1xDV?></g></svg>