<?plantuml 1.2026.2?><svg xmlns="http://www.w3.org/2000/svg" xmlns:xlink="http://www.w3.org/1999/xlink" contentStyleType="text/css" data-diagram-type="SEQUENCE" height="1532px" preserveAspectRatio="none" style="width:840px;height:1532px;background:#FFFFFF;" version="1.1" viewBox="0 0 840 1532" width="840px" zoomAndPan="magnify"><title>User Registration (Level 2) &#8212; VendNet</title><defs/><g><text fill="#000000" font-family="sans-serif" font-size="14" font-weight="bold" lengthAdjust="spacing" textLength="276.1719" x="278.4082" y="28.5352">User Registration (Level 2) &#8212; VendNet</text><rect fill="#ADD8E6" height="1482.6348" style="stroke:#181818;stroke-width:0.5;" width="315.188" x="281.7949" y="43.4883"/><text fill="#000000" font-family="sans-serif" font-size="13" font-weight="bold" lengthAdjust="spacing" textLength="82.8687" x="397.9546" y="56.0566">VendNet API</text><g><title>Controller</title><rect fill="#FFFFFF" height="1240.416" style="stroke:#181818;stroke-width:1;" width="10" x="321.8755" y="196.2188"/></g><g><title>User Service</title><rect fill="#FFFFFF" height="793.2266" style="stroke:#181818;stroke-width:1;" width="10" x="539.9194" y="450.6348"/></g><g><title>MySQL Database</title><rect fill="#FFFFFF" height="29.3105" style="stroke:#181818;stroke-width:1;" width="10" x="719.814" y="538.5664"/></g><g><title>MySQL Database</title><rect fill="#FFFFFF" height="29.3105" style="stroke:#181818;stroke-width:1;" width="10" x="719.814" y="636.8086"/></g><g><title>MySQL Database</title><rect fill="#FFFFFF" height="29.3105" style="stroke:#181818;stroke-width:1;" width="10" x="719.814" y="925.2246"/></g><rect fill="none" height="1160.7949" style="stroke:#000000;stroke-width:1.5;" width="813.9883" x="10" y="268.8398"/><rect fill="none" height="951.0449" style="stroke:#000000;stroke-width:1.5;" width="793.9883" x="20" y="412.0137"/><rect fill="none" height="713.6055" style="stroke:#000000;stroke-width:1.5;" width="773.9883" x="30" y="582.877"/><rect fill="none" height="519.4766" style="stroke:#000000;stroke-width:1.5;" width="753.9883" x="40" y="681.1191"/><g class="participant-lifeline" data-entity-uid="part1" data-qualified-name="Admin" id="part1-lifeline"><g><title>Administrator</title><rect fill="#000000" fill-opacity="0.00000" height="1327.6582" width="8" x="95.8604" y="118.9766"/><line style="stroke:#181818;stroke-width:0.5;stroke-dasharray:5,5;" x1="99" x2="99" y1="118.9766" y2="1446.6348"/></g></g><g class="participant-lifeline" data-entity-uid="part2" data-qualified-name="Controller" id="part2-lifeline"><g><title>Controller</title><rect fill="#000000" fill-opacity="0.00000" height="1327.6582" width="8" x="322.8755" y="118.9766"/><line style="stroke:#181818;stroke-width:0.5;stroke-dasharray:5,5;" x1="326.7949" x2="326.7949" y1="118.9766" y2="1446.6348"/></g></g><g class="participant-lifeline" data-entity-uid="part3" data-qualified-name="UserService" id="part3-lifeline"><g><title>User Service</title><rect fill="#000000" fill-opacity="0.00000" height="1327.6582" width="8" x="540.9194" y="118.9766"/><line style="stroke:#181818;stroke-width:0.5;stroke-dasharray:5,5;" x1="544.856" x2="544.856" y1="118.9766" y2="1446.6348"/></g></g><g class="participant-lifeline" data-entity-uid="part4" data-qualified-name="DB" id="part4-lifeline"><g><title>MySQL Database</title><rect fill="#000000" fill-opacity="0.00000" height="1327.6582" width="8" x="720.814" y="118.9766"/><line style="stroke:#181818;stroke-width:0.5;stroke-dasharray:5,5;" x1="724.6396" x2="724.6396" y1="118.9766" y2="1446.6348"/></g></g><g class="participant participant-head" data-entity-uid="part1" data-qualified-name="Admin" id="part1-head"><text fill="#000000" font-family="sans-serif" font-size="14" lengthAdjust="spacing" textLength="93.7207" x="50" y="116.0234">Administrator</text><ellipse cx="99.8604" cy="50.9883" fill="#E2E2F0" rx="8" ry="8" style="stroke:#181818;stroke-width:0.5;"/><path d="M99.8604,58.9883 L99.8604,85.9883 M86.8604,66.9883 L112.8604,66.9883 M99.8604,85.9883 L86.8604,100.9883 M99.8604,85.9883 L112.8604,100.9883" fill="none" style="stroke:#181818;stroke-width:0.5;"/></g><g class="participant participant-tail" data-entity-uid="part1" data-qualified-name="Admin" id="part1-tail"><text fill="#000000" font-family="sans-serif" font-size="14" lengthAdjust="spacing" textLength="93.7207" x="50" y="1459.1699">Administrator</text><ellipse cx="99.8604" cy="1470.623" fill="#E2E2F0" rx="8" ry="8" style="stroke:#181818;stroke-width:0.5;"/><path d="M99.8604,1478.623 L99.8604,1505.623 M86.8604,1486.623 L112.8604,1486.623 M99.8604,1505.623 L86.8604,1520.623 M99.8604,1505.623 L112.8604,1520.623" fill="none" style="stroke:#181818;stroke-width:0.5;"/></g><g class="participant participant-head" data-entity-uid="part2" data-qualified-name="Controller" id="part2-head"><rect fill="#E2E2F0" height="30.4883" rx="2.5" ry="2.5" style="stroke:#181818;stroke-width:0.5;" width="82.1611" x="285.7949" y="87.4883"/><text fill="#000000" font-family="sans-serif" font-size="14" lengthAdjust="spacing" textLength="68.1611" x="292.7949" y="108.0234">Controller</text></g><g class="participant participant-tail" data-entity-uid="part2" data-qualified-name="Controller" id="part2-tail"><rect fill="#E2E2F0" height="30.4883" rx="2.5" ry="2.5" style="stroke:#181818;stroke-width:0.5;" width="82.1611" x="285.7949" y="1445.6348"/><text fill="#000000" font-family="sans-serif" font-size="14" lengthAdjust="spacing" textLength="68.1611" x="292.7949" y="1466.1699">Controller</text></g><g class="participant participant-head" data-entity-uid="part3" data-qualified-name="UserService" id="part3-head"><rect fill="#E2E2F0" height="30.4883" rx="2.5" ry="2.5" style="stroke:#181818;stroke-width:0.5;" width="96.127" x="496.856" y="87.4883"/><text fill="#000000" font-family="sans-serif" font-size="14" lengthAdjust="spacing" textLength="82.127" x="503.856" y="108.0234">User Service</text></g><g class="participant participant-tail" data-entity-uid="part3" data-qualified-name="UserService" id="part3-tail"><rect fill="#E2E2F0" height="30.4883" rx="2.5" ry="2.5" style="stroke:#181818;stroke-width:0.5;" width="96.127" x="496.856" y="1445.6348"/><text fill="#000000" font-family="sans-serif" font-size="14" lengthAdjust="spacing" textLength="82.127" x="503.856" y="1466.1699">User Service</text></g><g class="participant participant-head" data-entity-uid="part4" data-qualified-name="DB" id="part4-head"><text fill="#000000" font-family="sans-serif" font-size="14" lengthAdjust="spacing" textLength="112.3486" x="665.6396" y="116.0234">MySQL Database</text><path d="M706.814,66.4883 C706.814,56.4883 724.814,56.4883 724.814,56.4883 C724.814,56.4883 742.814,56.4883 742.814,66.4883 L742.814,92.4883 C742.814,102.4883 724.814,102.4883 724.814,102.4883 C724.814,102.4883 706.814,102.4883 706.814,92.4883 L706.814,66.4883" fill="#E2E2F0" style="stroke:#181818;stroke-width:0.5;"/><path d="M706.814,66.4883 C706.814,76.4883 724.814,76.4883 724.814,76.4883 C724.814,76.4883 742.814,76.4883 742.814,66.4883" fill="none" style="stroke:#181818;stroke-width:0.5;"/></g><g class="participant participant-tail" data-entity-uid="part4" data-qualified-name="DB" id="part4-tail"><text fill="#000000" font-family="sans-serif" font-size="14" lengthAdjust="spacing" textLength="112.3486" x="665.6396" y="1459.1699">MySQL Database</text><path d="M706.814,1472.123 C706.814,1462.123 724.814,1462.123 724.814,1462.123 C724.814,1462.123 742.814,1462.123 742.814,1472.123 L742.814,1498.123 C742.814,1508.123 724.814,1508.123 724.814,1508.123 C724.814,1508.123 706.814,1508.123 706.814,1498.123 L706.814,1472.123" fill="#E2E2F0" style="stroke:#181818;stroke-width:0.5;"/><path d="M706.814,1472.123 C706.814,1482.123 724.814,1482.123 724.814,1482.123 C724.814,1482.123 742.814,1482.123 742.814,1472.123" fill="none" style="stroke:#181818;stroke-width:0.5;"/></g><g><title>Controller</title><rect fill="#FFFFFF" height="1240.416" style="stroke:#181818;stroke-width:1;" width="10" x="321.8755" y="196.2188"/></g><g><title>User Service</title><rect fill="#FFFFFF" height="793.2266" style="stroke:#181818;stroke-width:1;" width="10" x="539.9194" y="450.6348"/></g><g><title>MySQL Database</title><rect fill="#FFFFFF" height="29.3105" style="stroke:#181818;stroke-width:1;" width="10" x="719.814" y="538.5664"/></g><g><title>MySQL Database</title><rect fill="#FFFFFF" height="29.3105" style="stroke:#181818;stroke-width:1;" width="10" x="719.814" y="636.8086"/></g><g><title>MySQL Database</title><rect fill="#FFFFFF" height="29.3105" style="stroke:#181818;stroke-width:1;" width="10" x="719.814" y="925.2246"/></g><g class="message" data-entity-1="part1" data-entity-2="part2" id="msg1"><polygon fill="#181818" points="309.8755,192.2188,319.8755,196.2188,309.8755,200.2188,313.8755,196.2188" style="stroke:#181818;stroke-width:1;"/><line style="stroke:#181818;stroke-width:1;" x1="99.8604" x2="315.8755" y1="196.2188" y2="196.2188"/><text fill="#000000" font-family="sans-serif" font-size="13" lengthAdjust="spacing" textLength="123.4619" x="106.8604" y="145.5449">POST /admin/users</text><text fill="#000000" font-family="sans-serif" font-size="13" lengthAdjust="spacing" textLength="180.8701" x="106.8604" y="160.8555">{username, email, password,</text><text fill="#000000" font-family="sans-serif" font-size="13" lengthAdjust="spacing" textLength="93.2852" x="106.8604" y="176.166">fullName, role}</text><text fill="#000000" font-family="sans-serif" font-size="13" lengthAdjust="spacing" textLength="170.2949" x="106.8604" y="191.4766">(Authorization: Bearer JWT)</text></g><g class="message" data-entity-1="part2" data-entity-2="part2" id="msg2"><line style="stroke:#181818;stroke-width:1;" x1="331.8755" x2="373.8755" y1="240.8398" y2="240.8398"/><line style="stroke:#181818;stroke-width:1;" x1="373.8755" x2="373.8755" y1="240.8398" y2="253.8398"/><line style="stroke:#181818;stroke-width:1;" x1="332.8755" x2="373.8755" y1="253.8398" y2="253.8398"/><polygon fill="#181818" points="342.8755,249.8398,332.8755,253.8398,342.8755,257.8398,338.8755,253.8398" style="stroke:#181818;stroke-width:1;"/><text fill="#000000" font-family="sans-serif" font-size="13" lengthAdjust="spacing" textLength="91.3364" x="338.8755" y="220.7871">Validate JWT &amp;</text><text fill="#000000" font-family="sans-serif" font-size="13" lengthAdjust="spacing" textLength="112.1758" x="338.8755" y="236.0977">Verify ADMIN role</text></g><path d="M10,268.8398 L72.1387,268.8398 L72.1387,276.1504 L62.1387,286.1504 L10,286.1504 L10,268.8398" fill="#EEEEEE" style="stroke:#000000;stroke-width:1.5;"/><rect fill="none" height="1160.7949" style="stroke:#000000;stroke-width:1.5;" width="813.9883" x="10" y="268.8398"/><text fill="#000000" font-family="sans-serif" font-size="13" font-weight="bold" lengthAdjust="spacing" textLength="17.1387" x="25" y="282.4082">alt</text><text fill="#000000" font-family="sans-serif" font-size="11" font-weight="bold" lengthAdjust="spacing" textLength="204.7998" x="87.1387" y="281.4746">[Authorized (ADMINISTRATOR role)]</text><g class="message" data-entity-1="part2" data-entity-2="part2" id="msg3"><line style="stroke:#181818;stroke-width:1;" x1="331.8755" x2="373.8755" y1="384.0137" y2="384.0137"/><line style="stroke:#181818;stroke-width:1;" x1="373.8755" x2="373.8755" y1="384.0137" y2="397.0137"/><line style="stroke:#181818;stroke-width:1;" x1="332.8755" x2="373.8755" y1="397.0137" y2="397.0137"/><polygon fill="#181818" points="342.8755,393.0137,332.8755,397.0137,342.8755,401.0137,338.8755,397.0137" style="stroke:#181818;stroke-width:1;"/><text fill="#000000" font-family="sans-serif" font-size="13" lengthAdjust="spacing" textLength="119.8691" x="338.8755" y="302.7188">Validate Input DTO</text><text fill="#000000" font-family="sans-serif" font-size="13" lengthAdjust="spacing" textLength="144.4854" x="338.8755" y="318.0293">(username 3-30 chars,</text><text fill="#000000" font-family="sans-serif" font-size="13" lengthAdjust="spacing" textLength="103.4795" x="338.8755" y="333.3398">email RFC 5322,</text><text fill="#000000" font-family="sans-serif" font-size="13" lengthAdjust="spacing" textLength="105.479" x="338.8755" y="348.6504">password policy,</text><text fill="#000000" font-family="sans-serif" font-size="13" lengthAdjust="spacing" textLength="118.1489" x="338.8755" y="363.9609">role &#8712; {CUSTOMER,</text><text fill="#000000" font-family="sans-serif" font-size="13" lengthAdjust="spacing" textLength="127.9941" x="338.8755" y="379.2715">OPERATOR, ADMIN})</text></g><path d="M20,412.0137 L82.1387,412.0137 L82.1387,419.3242 L72.1387,429.3242 L20,429.3242 L20,412.0137" fill="#EEEEEE" style="stroke:#000000;stroke-width:1.5;"/><rect fill="none" height="951.0449" style="stroke:#000000;stroke-width:1.5;" width="793.9883" x="20" y="412.0137"/><text fill="#000000" font-family="sans-serif" font-size="13" font-weight="bold" lengthAdjust="spacing" textLength="17.1387" x="35" y="425.582">alt</text><text fill="#000000" font-family="sans-serif" font-size="11" font-weight="bold" lengthAdjust="spacing" textLength="70.2163" x="97.1387" y="424.6484">[Input Valid]</text><g class="message" data-entity-1="part2" data-entity-2="part3" id="msg4"><polygon fill="#181818" points="527.9194,446.6348,537.9194,450.6348,527.9194,454.6348,531.9194,450.6348" style="stroke:#181818;stroke-width:1;"/><line style="stroke:#181818;stroke-width:1;" x1="331.8755" x2="533.9194" y1="450.6348" y2="450.6348"/><text fill="#000000" font-family="sans-serif" font-size="13" lengthAdjust="spacing" textLength="122.7002" x="338.8755" y="445.8926">createUser(request)</text></g><rect fill="#EEEEEE" height="3" style="stroke:#EEEEEE;stroke-width:1;" width="833.9883" x="0" y="479.29"/><line style="stroke:#000000;stroke-width:1;" x1="0" x2="833.9883" y1="479.29" y2="479.29"/><line style="stroke:#000000;stroke-width:1;" x1="0" x2="833.9883" y1="482.29" y2="482.29"/><rect fill="#EEEEEE" height="23.3105" style="stroke:#000000;stroke-width:2;" width="148.4434" x="342.7725" y="468.6348"/><text fill="#000000" font-family="sans-serif" font-size="13" font-weight="bold" lengthAdjust="spacing" textLength="130.1587" x="348.7725" y="485.2031">Uniqueness Checks</text><g class="message" data-entity-1="part3" data-entity-2="part4" id="msg5"><polygon fill="#181818" points="707.814,534.5664,717.814,538.5664,707.814,542.5664,711.814,538.5664" style="stroke:#181818;stroke-width:1;"/><line style="stroke:#181818;stroke-width:1;" x1="549.9194" x2="713.814" y1="538.5664" y2="538.5664"/><text fill="#000000" font-family="sans-serif" font-size="13" lengthAdjust="spacing" textLength="109.9985" x="556.9194" y="518.5137">SELECT COUNT(*)</text><text fill="#000000" font-family="sans-serif" font-size="13" lengthAdjust="spacing" textLength="133.0278" x="556.9194" y="533.8242">WHERE username = ?</text></g><g class="message" data-entity-1="part4" data-entity-2="part3" id="msg6"><polygon fill="#181818" points="560.9194,563.877,550.9194,567.877,560.9194,571.877,556.9194,567.877" style="stroke:#181818;stroke-width:1;"/><line style="stroke:#181818;stroke-width:1;stroke-dasharray:2,2;" x1="554.9194" x2="723.814" y1="567.877" y2="567.877"/><text fill="#000000" font-family="sans-serif" font-size="13" lengthAdjust="spacing" textLength="35.6421" x="566.9194" y="563.1348">count</text></g><path d="M30,582.877 L92.1387,582.877 L92.1387,590.1875 L82.1387,600.1875 L30,600.1875 L30,582.877" fill="#EEEEEE" style="stroke:#000000;stroke-width:1.5;"/><rect fill="none" height="713.6055" style="stroke:#000000;stroke-width:1.5;" width="773.9883" x="30" y="582.877"/><text fill="#000000" font-family="sans-serif" font-size="13" font-weight="bold" lengthAdjust="spacing" textLength="17.1387" x="45" y="596.4453">alt</text><text fill="#000000" font-family="sans-serif" font-size="11" font-weight="bold" lengthAdjust="spacing" textLength="120.3716" x="107.1387" y="595.5117">[Username Available]</text><g class="message" data-entity-1="part3" data-entity-2="part4" id="msg7"><polygon fill="#181818" points="707.814,632.8086,717.814,636.8086,707.814,640.8086,711.814,636.8086" style="stroke:#181818;stroke-width:1;"/><line style="stroke:#181818;stroke-width:1;" x1="549.9194" x2="713.814" y1="636.8086" y2="636.8086"/><text fill="#000000" font-family="sans-serif" font-size="13" lengthAdjust="spacing" textLength="109.9985" x="556.9194" y="616.7559">SELECT COUNT(*)</text><text fill="#000000" font-family="sans-serif" font-size="13" lengthAdjust="spacing" textLength="105.2188" x="556.9194" y="632.0664">WHERE email = ?</text></g><g class="message" data-entity-1="part4" data-entity-2="part3" id="msg8"><polygon fill="#181818" points="560.9194,662.1191,550.9194,666.1191,560.9194,670.1191,556.9194,666.1191" style="stroke:#181818;stroke-width:1;"/><line style="stroke:#181818;stroke-width:1;stroke-dasharray:2,2;" x1="554.9194" x2="723.814" y1="666.1191" y2="666.1191"/><text fill="#000000" font-family="sans-serif" font-size="13" lengthAdjust="spacing" textLength="35.6421" x="566.9194" y="661.377">count</text></g><path d="M40,681.1191 L102.1387,681.1191 L102.1387,688.4297 L92.1387,698.4297 L40,698.4297 L40,681.1191" fill="#EEEEEE" style="stroke:#000000;stroke-width:1.5;"/><rect fill="none" height="519.4766" style="stroke:#000000;stroke-width:1.5;" width="753.9883" x="40" y="681.1191"/><text fill="#000000" font-family="sans-serif" font-size="13" font-weight="bold" lengthAdjust="spacing" textLength="17.1387" x="55" y="694.6875">alt</text><text fill="#000000" font-family="sans-serif" font-size="11" font-weight="bold" lengthAdjust="spacing" textLength="94.6978" x="117.1387" y="693.7539">[Email Available]</text><rect fill="#EEEEEE" height="3" style="stroke:#EEEEEE;stroke-width:1;" width="833.9883" x="0" y="719.085"/><line style="stroke:#000000;stroke-width:1;" x1="0" x2="833.9883" y1="719.085" y2="719.085"/><line style="stroke:#000000;stroke-width:1;" x1="0" x2="833.9883" y1="722.085" y2="722.085"/><rect fill="#EEEEEE" height="23.3105" style="stroke:#000000;stroke-width:2;" width="141.9434" x="346.0225" y="708.4297"/><text fill="#000000" font-family="sans-serif" font-size="13" font-weight="bold" lengthAdjust="spacing" textLength="123.6587" x="352.0225" y="724.998">Password Hashing</text><g class="message" data-entity-1="part3" data-entity-2="part3" id="msg9"><line style="stroke:#181818;stroke-width:1;" x1="549.9194" x2="591.9194" y1="778.3613" y2="778.3613"/><line style="stroke:#181818;stroke-width:1;" x1="591.9194" x2="591.9194" y1="778.3613" y2="791.3613"/><line style="stroke:#181818;stroke-width:1;" x1="550.9194" x2="591.9194" y1="791.3613" y2="791.3613"/><polygon fill="#181818" points="560.9194,787.3613,550.9194,791.3613,560.9194,795.3613,556.9194,791.3613" style="stroke:#181818;stroke-width:1;"/><text fill="#000000" font-family="sans-serif" font-size="13" lengthAdjust="spacing" textLength="95.6592" x="556.9194" y="758.3086">Hash password</text><text fill="#000000" font-family="sans-serif" font-size="13" lengthAdjust="spacing" textLength="145.8945" x="556.9194" y="773.6191">(BCrypt, cost factor 12)</text></g><rect fill="#EEEEEE" height="3" style="stroke:#EEEEEE;stroke-width:1;" width="833.9883" x="0" y="820.0166"/><line style="stroke:#000000;stroke-width:1;" x1="0" x2="833.9883" y1="820.0166" y2="820.0166"/><line style="stroke:#000000;stroke-width:1;" x1="0" x2="833.9883" y1="823.0166" y2="823.0166"/><rect fill="#EEEEEE" height="23.3105" style="stroke:#000000;stroke-width:2;" width="98.7158" x="367.6362" y="809.3613"/><text fill="#000000" font-family="sans-serif" font-size="13" font-weight="bold" lengthAdjust="spacing" textLength="80.4312" x="373.6362" y="825.9297">Persist User</text><g class="message" data-entity-1="part3" data-entity-2="part4" id="msg10"><polygon fill="#181818" points="707.814,921.2246,717.814,925.2246,707.814,929.2246,711.814,925.2246" style="stroke:#181818;stroke-width:1;"/><line style="stroke:#181818;stroke-width:1;" x1="549.9194" x2="713.814" y1="925.2246" y2="925.2246"/><text fill="#000000" font-family="sans-serif" font-size="13" lengthAdjust="spacing" textLength="117.6157" x="556.9194" y="859.2402">INSERT INTO users</text><text fill="#000000" font-family="sans-serif" font-size="13" lengthAdjust="spacing" textLength="132.6914" x="556.9194" y="874.5508">(id, username, email,</text><text fill="#000000" font-family="sans-serif" font-size="13" lengthAdjust="spacing" textLength="133.2056" x="556.9194" y="889.8613">password_hash, role,</text><text fill="#000000" font-family="sans-serif" font-size="13" lengthAdjust="spacing" textLength="65.603" x="556.9194" y="905.1719">full_name,</text><text fill="#000000" font-family="sans-serif" font-size="13" lengthAdjust="spacing" textLength="106.4883" x="556.9194" y="920.4824">status = ACTIVE)</text></g><g class="message" data-entity-1="part4" data-entity-2="part3" id="msg11"><polygon fill="#181818" points="560.9194,950.5352,550.9194,954.5352,560.9194,958.5352,556.9194,954.5352" style="stroke:#181818;stroke-width:1;"/><line style="stroke:#181818;stroke-width:1;stroke-dasharray:2,2;" x1="554.9194" x2="723.814" y1="954.5352" y2="954.5352"/><text fill="#000000" font-family="sans-serif" font-size="13" lengthAdjust="spacing" textLength="72.5283" x="566.9194" y="949.793">User stored</text></g><g class="message" data-entity-1="part3" data-entity-2="part4" id="msg12"><polygon fill="#181818" points="712.814,1010.4668,722.814,1014.4668,712.814,1018.4668,716.814,1014.4668" style="stroke:#181818;stroke-width:1;"/><line style="stroke:#181818;stroke-width:1;" x1="549.9194" x2="718.814" y1="1014.4668" y2="1014.4668"/><text fill="#000000" font-family="sans-serif" font-size="13" lengthAdjust="spacing" textLength="106.3486" x="556.9194" y="979.1035">INSERT audit_log</text><text fill="#000000" font-family="sans-serif" font-size="13" lengthAdjust="spacing" textLength="142.6064" x="556.9194" y="994.4141">(USER_CREATED event,</text><text fill="#000000" font-family="sans-serif" font-size="13" lengthAdjust="spacing" textLength="129.1558" x="556.9194" y="1009.7246">adminId, newUserId)</text></g><g class="message" data-entity-1="part3" data-entity-2="part2" id="msg13"><polygon fill="#181818" points="342.8755,1055.0879,332.8755,1059.0879,342.8755,1063.0879,338.8755,1059.0879" style="stroke:#181818;stroke-width:1;"/><line style="stroke:#181818;stroke-width:1;stroke-dasharray:2,2;" x1="336.8755" x2="538.9194" y1="1059.0879" y2="1059.0879"/><text fill="#000000" font-family="sans-serif" font-size="13" lengthAdjust="spacing" textLength="66.9741" x="348.8755" y="1039.0352">UserResult</text><text fill="#000000" font-family="sans-serif" font-size="13" lengthAdjust="spacing" textLength="150.2808" x="348.8755" y="1054.3457">(userId, username, role)</text></g><g class="message" data-entity-1="part2" data-entity-2="part1" id="msg14"><polygon fill="#181818" points="110.8604,1099.709,100.8604,1103.709,110.8604,1107.709,106.8604,1103.709" style="stroke:#181818;stroke-width:1;"/><line style="stroke:#181818;stroke-width:1;stroke-dasharray:2,2;" x1="104.8604" x2="320.8755" y1="1103.709" y2="1103.709"/><text fill="#000000" font-family="sans-serif" font-size="13" lengthAdjust="spacing" textLength="77.7969" x="116.8604" y="1083.6563">201 Created</text><text fill="#000000" font-family="sans-serif" font-size="13" lengthAdjust="spacing" textLength="67.8818" x="116.8604" y="1098.9668">{user DTO}</text></g><line style="stroke:#000000;stroke-width:1;stroke-dasharray:2,2;" x1="40" x2="793.9883" y1="1112.709" y2="1112.709"/><text fill="#000000" font-family="sans-serif" font-size="11" font-weight="bold" lengthAdjust="spacing" textLength="150.3154" x="45" y="1123.3438">[Email Already Registered]</text><g class="message" data-entity-1="part3" data-entity-2="part2" id="msg15"><polygon fill="#181818" points="342.8755,1143.9746,332.8755,1147.9746,342.8755,1151.9746,338.8755,1147.9746" style="stroke:#181818;stroke-width:1;"/><line style="stroke:#181818;stroke-width:1;stroke-dasharray:2,2;" x1="336.8755" x2="538.9194" y1="1147.9746" y2="1147.9746"/><text fill="#000000" font-family="sans-serif" font-size="13" lengthAdjust="spacing" textLength="155.0986" x="348.8755" y="1143.2324">DuplicateEmailException</text></g><g class="message" data-entity-1="part2" data-entity-2="part1" id="msg16"><polygon fill="#181818" points="110.8604,1188.5957,100.8604,1192.5957,110.8604,1196.5957,106.8604,1192.5957" style="stroke:#181818;stroke-width:1;"/><line style="stroke:#181818;stroke-width:1;stroke-dasharray:2,2;" x1="104.8604" x2="320.8755" y1="1192.5957" y2="1192.5957"/><text fill="#000000" font-family="sans-serif" font-size="13" lengthAdjust="spacing" textLength="77.6382" x="116.8604" y="1172.543">409 Conflict</text><text fill="#000000" font-family="sans-serif" font-size="13" lengthAdjust="spacing" textLength="160.1133" x="116.8604" y="1187.8535">(Email already registered)</text></g><line style="stroke:#000000;stroke-width:1;stroke-dasharray:2,2;" x1="30" x2="803.9883" y1="1208.5957" y2="1208.5957"/><text fill="#000000" font-family="sans-serif" font-size="11" font-weight="bold" lengthAdjust="spacing" textLength="149.9502" x="35" y="1219.2305">[Username Already Taken]</text><g class="message" data-entity-1="part3" data-entity-2="part2" id="msg17"><polygon fill="#181818" points="342.8755,1239.8613,332.8755,1243.8613,342.8755,1247.8613,338.8755,1243.8613" style="stroke:#181818;stroke-width:1;"/><line style="stroke:#181818;stroke-width:1;stroke-dasharray:2,2;" x1="336.8755" x2="543.9194" y1="1243.8613" y2="1243.8613"/><text fill="#000000" font-family="sans-serif" font-size="13" lengthAdjust="spacing" textLength="184.0439" x="348.8755" y="1239.1191">DuplicateUsernameException</text></g><g class="message" data-entity-1="part2" data-entity-2="part1" id="msg18"><polygon fill="#181818" points="110.8604,1284.4824,100.8604,1288.4824,110.8604,1292.4824,106.8604,1288.4824" style="stroke:#181818;stroke-width:1;"/><line style="stroke:#181818;stroke-width:1;stroke-dasharray:2,2;" x1="104.8604" x2="320.8755" y1="1288.4824" y2="1288.4824"/><text fill="#000000" font-family="sans-serif" font-size="13" lengthAdjust="spacing" textLength="77.6382" x="116.8604" y="1268.4297">409 Conflict</text><text fill="#000000" font-family="sans-serif" font-size="13" lengthAdjust="spacing" textLength="160.1069" x="116.8604" y="1283.7402">(Username already taken)</text></g><line style="stroke:#000000;stroke-width:1;stroke-dasharray:2,2;" x1="20" x2="813.9883" y1="1304.4824" y2="1304.4824"/><text fill="#000000" font-family="sans-serif" font-size="11" font-weight="bold" lengthAdjust="spacing" textLength="79.9272" x="25" y="1315.1172">[Input Invalid]</text><g class="message" data-entity-1="part2" data-entity-2="part1" id="msg19"><polygon fill="#181818" points="110.8604,1351.0586,100.8604,1355.0586,110.8604,1359.0586,106.8604,1355.0586" style="stroke:#181818;stroke-width:1;"/><line style="stroke:#181818;stroke-width:1;stroke-dasharray:2,2;" x1="104.8604" x2="320.8755" y1="1355.0586" y2="1355.0586"/><text fill="#000000" font-family="sans-serif" font-size="13" lengthAdjust="spacing" textLength="106.1709" x="116.8604" y="1335.0059">400 Bad Request</text><text fill="#000000" font-family="sans-serif" font-size="13" lengthAdjust="spacing" textLength="111.8394" x="116.8604" y="1350.3164">(validation errors)</text></g><line style="stroke:#000000;stroke-width:1;stroke-dasharray:2,2;" x1="10" x2="823.9883" y1="1371.0586" y2="1371.0586"/><text fill="#000000" font-family="sans-serif" font-size="11" font-weight="bold" lengthAdjust="spacing" textLength="84.686" x="15" y="1381.6934">[Unauthorized]</text><g class="message" data-entity-1="part2" data-entity-2="part1" id="msg20"><polygon fill="#181818" points="110.8604,1417.6348,100.8604,1421.6348,110.8604,1425.6348,106.8604,1421.6348" style="stroke:#181818;stroke-width:1;"/><line style="stroke:#181818;stroke-width:1;stroke-dasharray:2,2;" x1="104.8604" x2="320.8755" y1="1421.6348" y2="1421.6348"/><text fill="#000000" font-family="sans-serif" font-size="13" lengthAdjust="spacing" textLength="92.6631" x="116.8604" y="1401.582">403 Forbidden</text><text fill="#000000" font-family="sans-serif" font-size="13" lengthAdjust="spacing" textLength="198.0151" x="116.8604" y="1416.8926">(Administrator access required)</text></g><?plantuml-src bLR1Rjf04BtxAqPKgg0YQaBQGv7I2eoZkaeWDIQz84KRUn9MSTPqTqrAgqWzvWFwXVcIpgwDRK924YxWsTbvxysktw2vJX0c2YK4UCcLbappL43p21UOGAS5zt__mIcAU8ZQSLYaKmcDNdpDHPwSoWOm1JRYEEVfBsWKsT0xyHlmveXVpdG_oT01-ioPr3pYSoOqDDnKQ9ac2UOrgiVDLCjmZ7B18xJ99b0yEuG7XEmuCTFid2c4nl5o_Fq81iMptJ7eEuwb2JkVQrXTE1cDGtZFpDBxZCgggVXZlWMxnZRWDUD9czWeTPFAk3qL5rcI3EqQLS3RgMZsCZrB9VzjUzU5FZ99TB_z25kcOtp1DDRLLJyVKZbb2OzDDks5jrDnYf9VBA4tEFQ75esE8A7E5dWOGzEk-UCmw8MZmEQq7Dk_5w3uOfvf68GZqh1I3Fix-xiGpPXKfDMgX-3GXO_xdGu5Lds0UPhmQ4aH0mdtTtVmnvsCmz6n5r1mTE9PGksS-st1oP3FGIs7FBX9jdQuNOWa4bSJQahycQ7IhN9RsTtwTIXN3mvW8ZXj4QZeUiqmkb8KBDThcmpgeD-5iNVakI6ueyamRBvhJSMFhrxWGTcS0_Yo2KutQnKRz65dGq2Q2Lrcn5ZVLnMZpanMABq5TPsT9rWkluvkVcfrha_nVHddBRnNt3qBMH5VIoWEusHrTxuoDUFYiduMJuXS8sMsbIyYNTc-AvTptIQoIiD5xarxdTRZsFHUasFbLlSyhcckFnnxGKXVuGWANsZok0qFlQ5wASvcn32tXS8dpcpYL2ZDT4QN3tfkw9zwhGtyfmxdgGEoEXGfndWZVyjHRPVAifZhioIz9AKJYfovWTSBlG7GC12QP5YJzAa70czC6JzkRI__m7dCMe0gItJXEFvQFtFtUbYmxWrKptfu5pgxU-1QQuWBlpP6Thik5nCQ1iNLJ2WvNXPZ3X_hspRcWsnEVaTejfhtAyAvCViNalsm-yciN509epndn0f6icIqhft6MgN6AgaCejWQiYiKpgirhEeyBgDsVUgs-cgL9TkLK6tOLXfBVLPRFXPyiR23uJcWNUYpcCxIpWF2MkGZpVnrGIbJgN8O2v6tJh1oQ3hRAk_3OIhFUHoZC9Ez_a-7NjB8J18pXhWzBbk_rg-gw7y0?></g></svg>