<?plantuml 1.2026.2?><svg xmlns="http://www.w3.org/2000/svg" xmlns:xlink="http://www.w3.org/1999/xlink" contentStyleType="text/css" data-diagram-type="SEQUENCE" height="2128px" preserveAspectRatio="none" style="width:1007px;height:2128px;background:#FFFFFF;" version="1.1" viewBox="0 0 1007 2128" width="1007px" zoomAndPan="magnify"><title>Purchase Product (Level 2) &#8212; VendNet</title><defs/><g><text fill="#000000" font-family="sans-serif" font-size="14" font-weight="bold" lengthAdjust="spacing" textLength="275.8096" x="361.7659" y="28.5352">Purchase Product (Level 2) &#8212; VendNet</text><rect fill="#ADD8E6" height="2078.7559" style="stroke:#181818;stroke-width:0.5;" width="302.9775" x="264.5557" y="43.4883"/><text fill="#000000" font-family="sans-serif" font-size="13" font-weight="bold" lengthAdjust="spacing" textLength="82.8687" x="374.6101" y="56.0566">VendNet API</text><g><title>Controller</title><rect fill="#FFFFFF" height="1851.8477" style="stroke:#181818;stroke-width:1;" width="10" x="304.6362" y="180.9082"/></g><g><title>Sales Service</title><rect fill="#FFFFFF" height="1585.4531" style="stroke:#181818;stroke-width:1;" width="10" x="508.5249" y="292.1504"/></g><g><title>MySQL Database</title><rect fill="#FFFFFF" height="29.3105" style="stroke:#181818;stroke-width:1;" width="10" x="753.4404" y="380.082"/></g><g><title>MySQL Database</title><rect fill="#FFFFFF" height="44.6211" style="stroke:#181818;stroke-width:1;" width="10" x="753.4404" y="497.3242"/></g><g><title>MySQL Database</title><rect fill="#FFFFFF" height="29.3105" style="stroke:#181818;stroke-width:1;" width="10" x="753.4404" y="929.9141"/></g><g><title>Payment Gateway</title><rect fill="#FFFFFF" height="68.9316" style="stroke:#181818;stroke-width:1;" width="10" x="888.978" y="727.1191"/></g><rect fill="none" height="1772.2266" style="stroke:#000000;stroke-width:1.5;" width="980.3413" x="10" y="253.5293"/><rect fill="none" height="1373.2793" style="stroke:#000000;stroke-width:1.5;" width="960.3413" x="20" y="556.9453"/><rect fill="none" height="1092.2188" style="stroke:#000000;stroke-width:1.5;" width="940.3413" x="30" y="742.1191"/><g class="participant-lifeline" data-entity-uid="part1" data-qualified-name="Customer" id="part1-lifeline"><g><title>Customer</title><rect fill="#000000" fill-opacity="0.00000" height="1923.7793" width="8" x="71.9731" y="118.9766"/><line style="stroke:#181818;stroke-width:0.5;stroke-dasharray:5,5;" x1="75" x2="75" y1="118.9766" y2="2042.7559"/></g></g><g class="participant-lifeline" data-entity-uid="part2" data-qualified-name="Controller" id="part2-lifeline"><g><title>Controller</title><rect fill="#000000" fill-opacity="0.00000" height="1923.7793" width="8" x="305.6362" y="118.9766"/><line style="stroke:#181818;stroke-width:0.5;stroke-dasharray:5,5;" x1="309.5557" x2="309.5557" y1="118.9766" y2="2042.7559"/></g></g><g class="participant-lifeline" data-entity-uid="part3" data-qualified-name="SalesService" id="part3-lifeline"><g><title>Sales Service</title><rect fill="#000000" fill-opacity="0.00000" height="1923.7793" width="8" x="509.5249" y="118.9766"/><line style="stroke:#181818;stroke-width:0.5;stroke-dasharray:5,5;" x1="513.5166" x2="513.5166" y1="118.9766" y2="2042.7559"/></g></g><g class="participant-lifeline" data-entity-uid="part4" data-qualified-name="DB" id="part4-lifeline"><g><title>MySQL Database</title><rect fill="#000000" fill-opacity="0.00000" height="1923.7793" width="8" x="754.4404" y="118.9766"/><line style="stroke:#181818;stroke-width:0.5;stroke-dasharray:5,5;" x1="758.2661" x2="758.2661" y1="118.9766" y2="2042.7559"/></g></g><g class="participant-lifeline" data-entity-uid="part5" data-qualified-name="PG" id="part5-lifeline"><g><title>Payment Gateway</title><rect fill="#000000" fill-opacity="0.00000" height="1923.7793" width="8" x="889.978" y="118.9766"/><line style="stroke:#181818;stroke-width:0.5;stroke-dasharray:5,5;" x1="893.6147" x2="893.6147" y1="118.9766" y2="2042.7559"/></g></g><g class="participant participant-head" data-entity-uid="part1" data-qualified-name="Customer" id="part1-head"><text fill="#000000" font-family="sans-serif" font-size="14" lengthAdjust="spacing" textLength="65.9463" x="40" y="116.0234">Customer</text><ellipse cx="75.9731" cy="50.9883" fill="#E2E2F0" rx="8" ry="8" style="stroke:#181818;stroke-width:0.5;"/><path d="M75.9731,58.9883 L75.9731,85.9883 M62.9731,66.9883 L88.9731,66.9883 M75.9731,85.9883 L62.9731,100.9883 M75.9731,85.9883 L88.9731,100.9883" fill="none" style="stroke:#181818;stroke-width:0.5;"/></g><g class="participant participant-tail" data-entity-uid="part1" data-qualified-name="Customer" id="part1-tail"><text fill="#000000" font-family="sans-serif" font-size="14" lengthAdjust="spacing" textLength="65.9463" x="40" y="2055.291">Customer</text><ellipse cx="75.9731" cy="2066.7441" fill="#E2E2F0" rx="8" ry="8" style="stroke:#181818;stroke-width:0.5;"/><path d="M75.9731,2074.7441 L75.9731,2101.7441 M62.9731,2082.7441 L88.9731,2082.7441 M75.9731,2101.7441 L62.9731,2116.7441 M75.9731,2101.7441 L88.9731,2116.7441" fill="none" style="stroke:#181818;stroke-width:0.5;"/></g><g class="participant participant-head" data-entity-uid="part2" data-qualified-name="Controller" id="part2-head"><rect fill="#E2E2F0" height="30.4883" rx="2.5" ry="2.5" style="stroke:#181818;stroke-width:0.5;" width="82.1611" x="268.5557" y="87.4883"/><text fill="#000000" font-family="sans-serif" font-size="14" lengthAdjust="spacing" textLength="68.1611" x="275.5557" y="108.0234">Controller</text></g><g class="participant participant-tail" data-entity-uid="part2" data-qualified-name="Controller" id="part2-tail"><rect fill="#E2E2F0" height="30.4883" rx="2.5" ry="2.5" style="stroke:#181818;stroke-width:0.5;" width="82.1611" x="268.5557" y="2041.7559"/><text fill="#000000" font-family="sans-serif" font-size="14" lengthAdjust="spacing" textLength="68.1611" x="275.5557" y="2062.291">Controller</text></g><g class="participant participant-head" data-entity-uid="part3" data-qualified-name="SalesService" id="part3-head"><rect fill="#E2E2F0" height="30.4883" rx="2.5" ry="2.5" style="stroke:#181818;stroke-width:0.5;" width="100.0166" x="463.5166" y="87.4883"/><text fill="#000000" font-family="sans-serif" font-size="14" lengthAdjust="spacing" textLength="86.0166" x="470.5166" y="108.0234">Sales Service</text></g><g class="participant participant-tail" data-entity-uid="part3" data-qualified-name="SalesService" id="part3-tail"><rect fill="#E2E2F0" height="30.4883" rx="2.5" ry="2.5" style="stroke:#181818;stroke-width:0.5;" width="100.0166" x="463.5166" y="2041.7559"/><text fill="#000000" font-family="sans-serif" font-size="14" lengthAdjust="spacing" textLength="86.0166" x="470.5166" y="2062.291">Sales Service</text></g><g class="participant participant-head" data-entity-uid="part4" data-qualified-name="DB" id="part4-head"><text fill="#000000" font-family="sans-serif" font-size="14" lengthAdjust="spacing" textLength="112.3486" x="699.2661" y="116.0234">MySQL Database</text><path d="M740.4404,66.4883 C740.4404,56.4883 758.4404,56.4883 758.4404,56.4883 C758.4404,56.4883 776.4404,56.4883 776.4404,66.4883 L776.4404,92.4883 C776.4404,102.4883 758.4404,102.4883 758.4404,102.4883 C758.4404,102.4883 740.4404,102.4883 740.4404,92.4883 L740.4404,66.4883" fill="#E2E2F0" style="stroke:#181818;stroke-width:0.5;"/><path d="M740.4404,66.4883 C740.4404,76.4883 758.4404,76.4883 758.4404,76.4883 C758.4404,76.4883 776.4404,76.4883 776.4404,66.4883" fill="none" style="stroke:#181818;stroke-width:0.5;"/></g><g class="participant participant-tail" data-entity-uid="part4" data-qualified-name="DB" id="part4-tail"><text fill="#000000" font-family="sans-serif" font-size="14" lengthAdjust="spacing" textLength="112.3486" x="699.2661" y="2055.291">MySQL Database</text><path d="M740.4404,2068.2441 C740.4404,2058.2441 758.4404,2058.2441 758.4404,2058.2441 C758.4404,2058.2441 776.4404,2058.2441 776.4404,2068.2441 L776.4404,2094.2441 C776.4404,2104.2441 758.4404,2104.2441 758.4404,2104.2441 C758.4404,2104.2441 740.4404,2104.2441 740.4404,2094.2441 L740.4404,2068.2441" fill="#E2E2F0" style="stroke:#181818;stroke-width:0.5;"/><path d="M740.4404,2068.2441 C740.4404,2078.2441 758.4404,2078.2441 758.4404,2078.2441 C758.4404,2078.2441 776.4404,2078.2441 776.4404,2068.2441" fill="none" style="stroke:#181818;stroke-width:0.5;"/></g><g class="participant participant-head" data-entity-uid="part5" data-qualified-name="PG" id="part5-head"><rect fill="#E2E2F0" height="46.9766" rx="2.5" ry="2.5" style="stroke:#181818;stroke-width:0.5;" width="132.7266" x="827.6147" y="71"/><text fill="#000000" font-family="sans-serif" font-size="14" lengthAdjust="spacing" textLength="118.7266" x="834.6147" y="91.5352">Payment Gateway</text><text fill="#000000" font-family="sans-serif" font-size="14" lengthAdjust="spacing" textLength="64.5107" x="861.7227" y="108.0234">(External)</text></g><g class="participant participant-tail" data-entity-uid="part5" data-qualified-name="PG" id="part5-tail"><rect fill="#E2E2F0" height="46.9766" rx="2.5" ry="2.5" style="stroke:#181818;stroke-width:0.5;" width="132.7266" x="827.6147" y="2041.7559"/><text fill="#000000" font-family="sans-serif" font-size="14" lengthAdjust="spacing" textLength="118.7266" x="834.6147" y="2062.291">Payment Gateway</text><text fill="#000000" font-family="sans-serif" font-size="14" lengthAdjust="spacing" textLength="64.5107" x="861.7227" y="2078.7793">(External)</text></g><g><title>Controller</title><rect fill="#FFFFFF" height="1851.8477" style="stroke:#181818;stroke-width:1;" width="10" x="304.6362" y="180.9082"/></g><g><title>Sales Service</title><rect fill="#FFFFFF" height="1585.4531" style="stroke:#181818;stroke-width:1;" width="10" x="508.5249" y="292.1504"/></g><g><title>MySQL Database</title><rect fill="#FFFFFF" height="29.3105" style="stroke:#181818;stroke-width:1;" width="10" x="753.4404" y="380.082"/></g><g><title>MySQL Database</title><rect fill="#FFFFFF" height="44.6211" style="stroke:#181818;stroke-width:1;" width="10" x="753.4404" y="497.3242"/></g><g><title>MySQL Database</title><rect fill="#FFFFFF" height="29.3105" style="stroke:#181818;stroke-width:1;" width="10" x="753.4404" y="929.9141"/></g><g><title>Payment Gateway</title><rect fill="#FFFFFF" height="68.9316" style="stroke:#181818;stroke-width:1;" width="10" x="888.978" y="727.1191"/></g><g class="message" data-entity-1="part1" data-entity-2="part2" id="msg1"><polygon fill="#181818" points="292.6362,176.9082,302.6362,180.9082,292.6362,184.9082,296.6362,180.9082" style="stroke:#181818;stroke-width:1;"/><line style="stroke:#181818;stroke-width:1;" x1="75.9731" x2="298.6362" y1="180.9082" y2="180.9082"/><text fill="#000000" font-family="sans-serif" font-size="13" lengthAdjust="spacing" textLength="139.0327" x="82.9731" y="145.5449">POST /sales/purchase</text><text fill="#000000" font-family="sans-serif" font-size="13" lengthAdjust="spacing" textLength="142.7905" x="82.9731" y="160.8555">(productId, machineId,</text><text fill="#000000" font-family="sans-serif" font-size="13" lengthAdjust="spacing" textLength="209.6631" x="82.9731" y="176.166">paymentToken, idempotencyKey)</text></g><g class="message" data-entity-1="part2" data-entity-2="part2" id="msg2"><line style="stroke:#181818;stroke-width:1;" x1="314.6362" x2="356.6362" y1="225.5293" y2="225.5293"/><line style="stroke:#181818;stroke-width:1;" x1="356.6362" x2="356.6362" y1="225.5293" y2="238.5293"/><line style="stroke:#181818;stroke-width:1;" x1="315.6362" x2="356.6362" y1="238.5293" y2="238.5293"/><polygon fill="#181818" points="325.6362,234.5293,315.6362,238.5293,325.6362,242.5293,321.6362,238.5293" style="stroke:#181818;stroke-width:1;"/><text fill="#000000" font-family="sans-serif" font-size="13" lengthAdjust="spacing" textLength="100.877" x="321.6362" y="205.4766">Validate Input &amp;</text><text fill="#000000" font-family="sans-serif" font-size="13" lengthAdjust="spacing" textLength="115.7939" x="321.6362" y="220.7871">Authenticate (JWT)</text></g><path d="M10,253.5293 L72.1387,253.5293 L72.1387,260.8398 L62.1387,270.8398 L10,270.8398 L10,253.5293" fill="#EEEEEE" style="stroke:#000000;stroke-width:1.5;"/><rect fill="none" height="1772.2266" style="stroke:#000000;stroke-width:1.5;" width="980.3413" x="10" y="253.5293"/><text fill="#000000" font-family="sans-serif" font-size="13" font-weight="bold" lengthAdjust="spacing" textLength="17.1387" x="25" y="267.0977">alt</text><text fill="#000000" font-family="sans-serif" font-size="11" font-weight="bold" lengthAdjust="spacing" textLength="164.8818" x="87.1387" y="266.1641">[Input Valid &amp; Authenticated]</text><g class="message" data-entity-1="part2" data-entity-2="part3" id="msg3"><polygon fill="#181818" points="496.5249,288.1504,506.5249,292.1504,496.5249,296.1504,500.5249,292.1504" style="stroke:#181818;stroke-width:1;"/><line style="stroke:#181818;stroke-width:1;" x1="314.6362" x2="502.5249" y1="292.1504" y2="292.1504"/><text fill="#000000" font-family="sans-serif" font-size="13" lengthAdjust="spacing" textLength="160.9893" x="321.6362" y="287.4082">processPurchase(request)</text></g><rect fill="#EEEEEE" height="3" style="stroke:#EEEEEE;stroke-width:1;" width="1000.3413" x="0" y="320.8057"/><line style="stroke:#000000;stroke-width:1;" x1="0" x2="1000.3413" y1="320.8057" y2="320.8057"/><line style="stroke:#000000;stroke-width:1;" x1="0" x2="1000.3413" y1="323.8057" y2="323.8057"/><rect fill="#EEEEEE" height="23.3105" style="stroke:#000000;stroke-width:2;" width="149.1162" x="425.6125" y="310.1504"/><text fill="#000000" font-family="sans-serif" font-size="13" font-weight="bold" lengthAdjust="spacing" textLength="130.8315" x="431.6125" y="326.7188">Idempotency Check</text><g class="message" data-entity-1="part3" data-entity-2="part4" id="msg4"><polygon fill="#181818" points="741.4404,376.082,751.4404,380.082,741.4404,384.082,745.4404,380.082" style="stroke:#181818;stroke-width:1;"/><line style="stroke:#181818;stroke-width:1;" x1="518.5249" x2="747.4404" y1="380.082" y2="380.082"/><text fill="#000000" font-family="sans-serif" font-size="13" lengthAdjust="spacing" textLength="146.3071" x="525.5249" y="360.0293">Check idempotencyKey</text><text fill="#000000" font-family="sans-serif" font-size="13" lengthAdjust="spacing" textLength="171.4185" x="525.5249" y="375.3398">(prevent duplicate charges)</text></g><g class="message" data-entity-1="part4" data-entity-2="part3" id="msg5"><polygon fill="#181818" points="529.5249,405.3926,519.5249,409.3926,529.5249,413.3926,525.5249,409.3926" style="stroke:#181818;stroke-width:1;"/><line style="stroke:#181818;stroke-width:1;stroke-dasharray:2,2;" x1="523.5249" x2="757.4404" y1="409.3926" y2="409.3926"/><text fill="#000000" font-family="sans-serif" font-size="13" lengthAdjust="spacing" textLength="120.7896" x="535.5249" y="404.6504">No duplicate found</text></g><rect fill="#EEEEEE" height="3" style="stroke:#EEEEEE;stroke-width:1;" width="1000.3413" x="0" y="438.0479"/><line style="stroke:#000000;stroke-width:1;" x1="0" x2="1000.3413" y1="438.0479" y2="438.0479"/><line style="stroke:#000000;stroke-width:1;" x1="0" x2="1000.3413" y1="441.0479" y2="441.0479"/><rect fill="#EEEEEE" height="23.3105" style="stroke:#000000;stroke-width:2;" width="126.4868" x="436.9272" y="427.3926"/><text fill="#000000" font-family="sans-serif" font-size="13" font-weight="bold" lengthAdjust="spacing" textLength="108.2021" x="442.9272" y="443.9609">Stock Validation</text><g class="message" data-entity-1="part3" data-entity-2="part4" id="msg6"><polygon fill="#181818" points="741.4404,493.3242,751.4404,497.3242,741.4404,501.3242,745.4404,497.3242" style="stroke:#181818;stroke-width:1;"/><line style="stroke:#181818;stroke-width:1;" x1="518.5249" x2="747.4404" y1="497.3242" y2="497.3242"/><text fill="#000000" font-family="sans-serif" font-size="13" lengthAdjust="spacing" textLength="72.5854" x="525.5249" y="477.2715">SELECT slot</text><text fill="#000000" font-family="sans-serif" font-size="13" lengthAdjust="spacing" textLength="209.8599" x="525.5249" y="492.582">WHERE machineId AND productId</text></g><g class="message" data-entity-1="part4" data-entity-2="part3" id="msg7"><polygon fill="#181818" points="529.5249,537.9453,519.5249,541.9453,529.5249,545.9453,525.5249,541.9453" style="stroke:#181818;stroke-width:1;"/><line style="stroke:#181818;stroke-width:1;stroke-dasharray:2,2;" x1="523.5249" x2="757.4404" y1="541.9453" y2="541.9453"/><text fill="#000000" font-family="sans-serif" font-size="13" lengthAdjust="spacing" textLength="23.6069" x="535.5249" y="521.8926">Slot</text><text fill="#000000" font-family="sans-serif" font-size="13" lengthAdjust="spacing" textLength="147.0688" x="535.5249" y="537.2031">(currentQuantity, price)</text></g><path d="M20,556.9453 L82.1387,556.9453 L82.1387,564.2559 L72.1387,574.2559 L20,574.2559 L20,556.9453" fill="#EEEEEE" style="stroke:#000000;stroke-width:1.5;"/><rect fill="none" height="1373.2793" style="stroke:#000000;stroke-width:1.5;" width="960.3413" x="20" y="556.9453"/><text fill="#000000" font-family="sans-serif" font-size="13" font-weight="bold" lengthAdjust="spacing" textLength="17.1387" x="35" y="570.5137">alt</text><text fill="#000000" font-family="sans-serif" font-size="11" font-weight="bold" lengthAdjust="spacing" textLength="182.6011" x="97.1387" y="569.5801">[Product In Stock (quantity &gt; 0)]</text><g class="message" data-entity-1="part3" data-entity-2="part3" id="msg8"><line style="stroke:#181818;stroke-width:1;" x1="518.5249" x2="560.5249" y1="610.877" y2="610.877"/><line style="stroke:#181818;stroke-width:1;" x1="560.5249" x2="560.5249" y1="610.877" y2="623.877"/><line style="stroke:#181818;stroke-width:1;" x1="519.5249" x2="560.5249" y1="623.877" y2="623.877"/><polygon fill="#181818" points="529.5249,619.877,519.5249,623.877,529.5249,627.877,525.5249,623.877" style="stroke:#181818;stroke-width:1;"/><text fill="#000000" font-family="sans-serif" font-size="13" lengthAdjust="spacing" textLength="86.8423" x="525.5249" y="590.8242">Reserve Stock</text><text fill="#000000" font-family="sans-serif" font-size="13" lengthAdjust="spacing" textLength="101.1563" x="525.5249" y="606.1348">(optimistic lock)</text></g><rect fill="#EEEEEE" height="3" style="stroke:#EEEEEE;stroke-width:1;" width="1000.3413" x="0" y="652.5322"/><line style="stroke:#000000;stroke-width:1;" x1="0" x2="1000.3413" y1="652.5322" y2="652.5322"/><line style="stroke:#000000;stroke-width:1;" x1="0" x2="1000.3413" y1="655.5322" y2="655.5322"/><rect fill="#EEEEEE" height="23.3105" style="stroke:#000000;stroke-width:2;" width="152.5566" x="423.8923" y="641.877"/><text fill="#000000" font-family="sans-serif" font-size="13" font-weight="bold" lengthAdjust="spacing" textLength="134.272" x="429.8923" y="658.4453">Payment Processing</text><g class="message" data-entity-1="part3" data-entity-2="part5" id="msg9"><polygon fill="#181818" points="876.978,723.1191,886.978,727.1191,876.978,731.1191,880.978,727.1191" style="stroke:#181818;stroke-width:1;"/><line style="stroke:#181818;stroke-width:1;" x1="518.5249" x2="882.978" y1="727.1191" y2="727.1191"/><text fill="#000000" font-family="sans-serif" font-size="13" lengthAdjust="spacing" textLength="119.3042" x="525.5249" y="691.7559">Authorize Payment</text><text fill="#000000" font-family="sans-serif" font-size="13" lengthAdjust="spacing" textLength="158.4438" x="525.5249" y="707.0664">(amount, paymentToken,</text><text fill="#000000" font-family="sans-serif" font-size="13" lengthAdjust="spacing" textLength="107.8594" x="525.5249" y="722.377">idempotencyKey)</text></g><path d="M30,742.1191 L92.1387,742.1191 L92.1387,749.4297 L82.1387,759.4297 L30,759.4297 L30,742.1191" fill="#EEEEEE" style="stroke:#000000;stroke-width:1.5;"/><rect fill="none" height="1092.2188" style="stroke:#000000;stroke-width:1.5;" width="940.3413" x="30" y="742.1191"/><text fill="#000000" font-family="sans-serif" font-size="13" font-weight="bold" lengthAdjust="spacing" textLength="17.1387" x="45" y="755.6875">alt</text><text fill="#000000" font-family="sans-serif" font-size="11" font-weight="bold" lengthAdjust="spacing" textLength="123.041" x="107.1387" y="754.7539">[Payment Authorized]</text><g class="message" data-entity-1="part5" data-entity-2="part3" id="msg10"><polygon fill="#181818" points="529.5249,792.0508,519.5249,796.0508,529.5249,800.0508,525.5249,796.0508" style="stroke:#181818;stroke-width:1;"/><line style="stroke:#181818;stroke-width:1;stroke-dasharray:2,2;" x1="523.5249" x2="892.978" y1="796.0508" y2="796.0508"/><text fill="#000000" font-family="sans-serif" font-size="13" lengthAdjust="spacing" textLength="136.3604" x="535.5249" y="775.998">PaymentConfirmation</text><text fill="#000000" font-family="sans-serif" font-size="13" lengthAdjust="spacing" textLength="99.2646" x="535.5249" y="791.3086">(transactionRef)</text></g><g class="message" data-entity-1="part3" data-entity-2="part4" id="msg11"><polygon fill="#181818" points="746.4404,836.6719,756.4404,840.6719,746.4404,844.6719,750.4404,840.6719" style="stroke:#181818;stroke-width:1;"/><line style="stroke:#181818;stroke-width:1;" x1="518.5249" x2="752.4404" y1="840.6719" y2="840.6719"/><text fill="#000000" font-family="sans-serif" font-size="13" lengthAdjust="spacing" textLength="77.5112" x="525.5249" y="820.6191">UPDATE slot</text><text fill="#000000" font-family="sans-serif" font-size="13" lengthAdjust="spacing" textLength="88.8926" x="525.5249" y="835.9297">quantity &#8722;= 1</text></g><g class="message" data-entity-1="part3" data-entity-2="part4" id="msg12"><polygon fill="#181818" points="746.4404,881.293,756.4404,885.293,746.4404,889.293,750.4404,885.293" style="stroke:#181818;stroke-width:1;"/><line style="stroke:#181818;stroke-width:1;" x1="518.5249" x2="752.4404" y1="885.293" y2="885.293"/><text fill="#000000" font-family="sans-serif" font-size="13" lengthAdjust="spacing" textLength="117.5776" x="525.5249" y="865.2402">INSERT sale record</text><text fill="#000000" font-family="sans-serif" font-size="13" lengthAdjust="spacing" textLength="141.6987" x="525.5249" y="880.5508">(status = COMPLETED)</text></g><g class="message" data-entity-1="part3" data-entity-2="part4" id="msg13"><polygon fill="#181818" points="741.4404,925.9141,751.4404,929.9141,741.4404,933.9141,745.4404,929.9141" style="stroke:#181818;stroke-width:1;"/><line style="stroke:#181818;stroke-width:1;" x1="518.5249" x2="747.4404" y1="929.9141" y2="929.9141"/><text fill="#000000" font-family="sans-serif" font-size="13" lengthAdjust="spacing" textLength="140.1563" x="525.5249" y="909.8613">Store idempotencyKey</text><text fill="#000000" font-family="sans-serif" font-size="13" lengthAdjust="spacing" textLength="167.6479" x="525.5249" y="925.1719">&#8594; transactionRef mapping</text></g><g class="message" data-entity-1="part4" data-entity-2="part3" id="msg14"><polygon fill="#181818" points="529.5249,955.2246,519.5249,959.2246,529.5249,963.2246,525.5249,959.2246" style="stroke:#181818;stroke-width:1;"/><line style="stroke:#181818;stroke-width:1;stroke-dasharray:2,2;" x1="523.5249" x2="757.4404" y1="959.2246" y2="959.2246"/><text fill="#000000" font-family="sans-serif" font-size="13" lengthAdjust="spacing" textLength="70.1606" x="535.5249" y="954.4824">Committed</text></g><g class="message" data-entity-1="part3" data-entity-2="part2" id="msg15"><polygon fill="#181818" points="325.6362,1015.1563,315.6362,1019.1563,325.6362,1023.1563,321.6362,1019.1563" style="stroke:#181818;stroke-width:1;"/><line style="stroke:#181818;stroke-width:1;stroke-dasharray:2,2;" x1="319.6362" x2="507.5249" y1="1019.1563" y2="1019.1563"/><text fill="#000000" font-family="sans-serif" font-size="13" lengthAdjust="spacing" textLength="63.959" x="331.6362" y="983.793">SaleResult</text><text fill="#000000" font-family="sans-serif" font-size="13" lengthAdjust="spacing" textLength="155.8857" x="331.6362" y="999.1035">(success, transactionRef,</text><text fill="#000000" font-family="sans-serif" font-size="13" lengthAdjust="spacing" textLength="47.4932" x="331.6362" y="1014.4141">receipt)</text></g><g class="message" data-entity-1="part2" data-entity-2="part1" id="msg16"><polygon fill="#181818" points="86.9731,1059.7773,76.9731,1063.7773,86.9731,1067.7773,82.9731,1063.7773" style="stroke:#181818;stroke-width:1;"/><line style="stroke:#181818;stroke-width:1;stroke-dasharray:2,2;" x1="80.9731" x2="303.6362" y1="1063.7773" y2="1063.7773"/><text fill="#000000" font-family="sans-serif" font-size="13" lengthAdjust="spacing" textLength="77.7969" x="92.9731" y="1043.7246">201 Created</text><text fill="#000000" font-family="sans-serif" font-size="13" lengthAdjust="spacing" textLength="150.7568" x="92.9731" y="1059.0352">(receipt, transactionRef)</text></g><line style="stroke:#000000;stroke-width:1;stroke-dasharray:2,2;" x1="30" x2="970.3413" y1="1072.7773" y2="1072.7773"/><text fill="#000000" font-family="sans-serif" font-size="11" font-weight="bold" lengthAdjust="spacing" textLength="109.334" x="35" y="1083.4121">[Payment Declined]</text><g class="message" data-entity-1="part5" data-entity-2="part3" id="msg17"><polygon fill="#181818" points="529.5249,1104.043,519.5249,1108.043,529.5249,1112.043,525.5249,1108.043" style="stroke:#181818;stroke-width:1;"/><line style="stroke:#181818;stroke-width:1;stroke-dasharray:2,2;" x1="523.5249" x2="892.978" y1="1108.043" y2="1108.043"/><text fill="#000000" font-family="sans-serif" font-size="13" lengthAdjust="spacing" textLength="158.9897" x="535.5249" y="1103.3008">PaymentDeclined(reason)</text></g><g class="message" data-entity-1="part3" data-entity-2="part3" id="msg18"><line style="stroke:#181818;stroke-width:1;" x1="518.5249" x2="560.5249" y1="1137.3535" y2="1137.3535"/><line style="stroke:#181818;stroke-width:1;" x1="560.5249" x2="560.5249" y1="1137.3535" y2="1150.3535"/><line style="stroke:#181818;stroke-width:1;" x1="519.5249" x2="560.5249" y1="1150.3535" y2="1150.3535"/><polygon fill="#181818" points="529.5249,1146.3535,519.5249,1150.3535,529.5249,1154.3535,525.5249,1150.3535" style="stroke:#181818;stroke-width:1;"/><text fill="#000000" font-family="sans-serif" font-size="13" lengthAdjust="spacing" textLength="146.6499" x="525.5249" y="1132.6113">Release Reserved Stock</text></g><g class="message" data-entity-1="part3" data-entity-2="part4" id="msg19"><polygon fill="#181818" points="746.4404,1190.9746,756.4404,1194.9746,746.4404,1198.9746,750.4404,1194.9746" style="stroke:#181818;stroke-width:1;"/><line style="stroke:#181818;stroke-width:1;" x1="518.5249" x2="752.4404" y1="1194.9746" y2="1194.9746"/><text fill="#000000" font-family="sans-serif" font-size="13" lengthAdjust="spacing" textLength="117.5776" x="525.5249" y="1174.9219">INSERT sale record</text><text fill="#000000" font-family="sans-serif" font-size="13" lengthAdjust="spacing" textLength="159.2881" x="525.5249" y="1190.2324">(status = FAILED, reason)</text></g><g class="message" data-entity-1="part3" data-entity-2="part2" id="msg20"><polygon fill="#181818" points="325.6362,1220.2852,315.6362,1224.2852,325.6362,1228.2852,321.6362,1224.2852" style="stroke:#181818;stroke-width:1;"/><line style="stroke:#181818;stroke-width:1;stroke-dasharray:2,2;" x1="319.6362" x2="507.5249" y1="1224.2852" y2="1224.2852"/><text fill="#000000" font-family="sans-serif" font-size="13" lengthAdjust="spacing" textLength="169.8887" x="331.6362" y="1219.543">PaymentDeclinedException</text></g><g class="message" data-entity-1="part2" data-entity-2="part1" id="msg21"><polygon fill="#181818" points="86.9731,1264.9063,76.9731,1268.9063,86.9731,1272.9063,82.9731,1268.9063" style="stroke:#181818;stroke-width:1;"/><line style="stroke:#181818;stroke-width:1;stroke-dasharray:2,2;" x1="80.9731" x2="303.6362" y1="1268.9063" y2="1268.9063"/><text fill="#000000" font-family="sans-serif" font-size="13" lengthAdjust="spacing" textLength="142.5684" x="92.9731" y="1248.8535">402 Payment Required</text><text fill="#000000" font-family="sans-serif" font-size="13" lengthAdjust="spacing" textLength="169.7744" x="92.9731" y="1264.1641">(Payment declined: reason)</text></g><line style="stroke:#000000;stroke-width:1;stroke-dasharray:2,2;" x1="30" x2="970.3413" y1="1277.9063" y2="1277.9063"/><text fill="#000000" font-family="sans-serif" font-size="11" font-weight="bold" lengthAdjust="spacing" textLength="106.7075" x="35" y="1288.541">[Gateway Timeout]</text><g class="message" data-entity-1="part5" data-entity-2="part3" id="msg22"><polygon fill="#181818" points="529.5249,1309.1719,519.5249,1313.1719,529.5249,1317.1719,525.5249,1313.1719" style="stroke:#181818;stroke-width:1;"/><line style="stroke:#181818;stroke-width:1;stroke-dasharray:2,2;" x1="523.5249" x2="892.978" y1="1313.1719" y2="1313.1719"/><text fill="#000000" font-family="sans-serif" font-size="13" lengthAdjust="spacing" textLength="62.5371" x="535.5249" y="1308.4297">&#171;timeout&#187;</text></g><g class="message" data-entity-1="part3" data-entity-2="part4" id="msg23"><polygon fill="#181818" points="746.4404,1353.793,756.4404,1357.793,746.4404,1361.793,750.4404,1357.793" style="stroke:#181818;stroke-width:1;"/><line style="stroke:#181818;stroke-width:1;" x1="518.5249" x2="752.4404" y1="1357.793" y2="1357.793"/><text fill="#000000" font-family="sans-serif" font-size="13" lengthAdjust="spacing" textLength="117.5776" x="525.5249" y="1337.7402">INSERT sale record</text><text fill="#000000" font-family="sans-serif" font-size="13" lengthAdjust="spacing" textLength="215.9155" x="525.5249" y="1353.0508">(status = PENDING_VERIFICATION)</text></g><g class="message" data-entity-1="part3" data-entity-2="part3" id="msg24"><line style="stroke:#181818;stroke-width:1;" x1="518.5249" x2="560.5249" y1="1402.4141" y2="1402.4141"/><line style="stroke:#181818;stroke-width:1;" x1="560.5249" x2="560.5249" y1="1402.4141" y2="1415.4141"/><line style="stroke:#181818;stroke-width:1;" x1="519.5249" x2="560.5249" y1="1415.4141" y2="1415.4141"/><polygon fill="#181818" points="529.5249,1411.4141,519.5249,1415.4141,529.5249,1419.4141,525.5249,1415.4141" style="stroke:#181818;stroke-width:1;"/><text fill="#000000" font-family="sans-serif" font-size="13" lengthAdjust="spacing" textLength="95.6592" x="525.5249" y="1382.3613">Schedule async</text><text fill="#000000" font-family="sans-serif" font-size="13" lengthAdjust="spacing" textLength="94.3325" x="525.5249" y="1397.6719">verification job</text></g><g class="message" data-entity-1="part3" data-entity-2="part2" id="msg25"><polygon fill="#181818" points="325.6362,1440.7246,315.6362,1444.7246,325.6362,1448.7246,321.6362,1444.7246" style="stroke:#181818;stroke-width:1;"/><line style="stroke:#181818;stroke-width:1;stroke-dasharray:2,2;" x1="319.6362" x2="507.5249" y1="1444.7246" y2="1444.7246"/><text fill="#000000" font-family="sans-serif" font-size="13" lengthAdjust="spacing" textLength="142.854" x="331.6362" y="1439.9824">PaymentPendingResult</text></g><g class="message" data-entity-1="part2" data-entity-2="part1" id="msg26"><polygon fill="#181818" points="86.9731,1515.9668,76.9731,1519.9668,86.9731,1523.9668,82.9731,1519.9668" style="stroke:#181818;stroke-width:1;"/><line style="stroke:#181818;stroke-width:1;stroke-dasharray:2,2;" x1="80.9731" x2="303.6362" y1="1519.9668" y2="1519.9668"/><text fill="#000000" font-family="sans-serif" font-size="13" lengthAdjust="spacing" textLength="86.7725" x="92.9731" y="1469.293">202 Accepted</text><text fill="#000000" font-family="sans-serif" font-size="13" lengthAdjust="spacing" textLength="147.4941" x="92.9731" y="1484.6035">(Payment processing &#8212;</text><text fill="#000000" font-family="sans-serif" font-size="13" lengthAdjust="spacing" textLength="100.3438" x="92.9731" y="1499.9141">check status via</text><text fill="#000000" font-family="sans-serif" font-size="13" lengthAdjust="spacing" textLength="98.4648" x="92.9731" y="1515.2246">GET /sales/{id})</text></g><line style="stroke:#000000;stroke-width:1;stroke-dasharray:2,2;" x1="30" x2="970.3413" y1="1528.9668" y2="1528.9668"/><text fill="#000000" font-family="sans-serif" font-size="11" font-weight="bold" lengthAdjust="spacing" textLength="164.4146" x="35" y="1539.6016">[Network Failure &#8594; Gateway]</text><g class="message" data-entity-1="part3" data-entity-2="part3" id="msg27"><line style="stroke:#181818;stroke-width:1;" x1="518.5249" x2="560.5249" y1="1579.543" y2="1579.543"/><line style="stroke:#181818;stroke-width:1;" x1="560.5249" x2="560.5249" y1="1579.543" y2="1592.543"/><line style="stroke:#181818;stroke-width:1;" x1="519.5249" x2="560.5249" y1="1592.543" y2="1592.543"/><polygon fill="#181818" points="529.5249,1588.543,519.5249,1592.543,529.5249,1596.543,525.5249,1592.543" style="stroke:#181818;stroke-width:1;"/><text fill="#000000" font-family="sans-serif" font-size="13" lengthAdjust="spacing" textLength="137.7759" x="525.5249" y="1559.4902">Connection exception</text><text fill="#000000" font-family="sans-serif" font-size="13" lengthAdjust="spacing" textLength="42.9419" x="525.5249" y="1574.8008">caught</text></g><g class="message" data-entity-1="part3" data-entity-2="part3" id="msg28"><line style="stroke:#181818;stroke-width:1;" x1="518.5249" x2="560.5249" y1="1621.8535" y2="1621.8535"/><line style="stroke:#181818;stroke-width:1;" x1="560.5249" x2="560.5249" y1="1621.8535" y2="1634.8535"/><line style="stroke:#181818;stroke-width:1;" x1="519.5249" x2="560.5249" y1="1634.8535" y2="1634.8535"/><polygon fill="#181818" points="529.5249,1630.8535,519.5249,1634.8535,529.5249,1638.8535,525.5249,1634.8535" style="stroke:#181818;stroke-width:1;"/><text fill="#000000" font-family="sans-serif" font-size="13" lengthAdjust="spacing" textLength="146.6499" x="525.5249" y="1617.1113">Release Reserved Stock</text></g><g class="message" data-entity-1="part3" data-entity-2="part4" id="msg29"><polygon fill="#181818" points="746.4404,1675.4746,756.4404,1679.4746,746.4404,1683.4746,750.4404,1679.4746" style="stroke:#181818;stroke-width:1;"/><line style="stroke:#181818;stroke-width:1;" x1="518.5249" x2="752.4404" y1="1679.4746" y2="1679.4746"/><text fill="#000000" font-family="sans-serif" font-size="13" lengthAdjust="spacing" textLength="117.5776" x="525.5249" y="1659.4219">INSERT sale record</text><text fill="#000000" font-family="sans-serif" font-size="13" lengthAdjust="spacing" textLength="215.9155" x="525.5249" y="1674.7324">(status = PENDING_VERIFICATION)</text></g><g class="message" data-entity-1="part3" data-entity-2="part3" id="msg30"><line style="stroke:#181818;stroke-width:1;" x1="518.5249" x2="560.5249" y1="1724.0957" y2="1724.0957"/><line style="stroke:#181818;stroke-width:1;" x1="560.5249" x2="560.5249" y1="1724.0957" y2="1737.0957"/><line style="stroke:#181818;stroke-width:1;" x1="519.5249" x2="560.5249" y1="1737.0957" y2="1737.0957"/><polygon fill="#181818" points="529.5249,1733.0957,519.5249,1737.0957,529.5249,1741.0957,525.5249,1737.0957" style="stroke:#181818;stroke-width:1;"/><text fill="#000000" font-family="sans-serif" font-size="13" lengthAdjust="spacing" textLength="120.688" x="525.5249" y="1704.043">Schedule retry with</text><text fill="#000000" font-family="sans-serif" font-size="13" lengthAdjust="spacing" textLength="140.9307" x="525.5249" y="1719.3535">same idempotencyKey</text></g><g class="message" data-entity-1="part3" data-entity-2="part2" id="msg31"><polygon fill="#181818" points="325.6362,1762.4063,315.6362,1766.4063,325.6362,1770.4063,321.6362,1766.4063" style="stroke:#181818;stroke-width:1;"/><line style="stroke:#181818;stroke-width:1;stroke-dasharray:2,2;" x1="319.6362" x2="507.5249" y1="1766.4063" y2="1766.4063"/><text fill="#000000" font-family="sans-serif" font-size="13" lengthAdjust="spacing" textLength="142.854" x="331.6362" y="1761.6641">PaymentPendingResult</text></g><g class="message" data-entity-1="part2" data-entity-2="part1" id="msg32"><polygon fill="#181818" points="86.9731,1822.3379,76.9731,1826.3379,86.9731,1830.3379,82.9731,1826.3379" style="stroke:#181818;stroke-width:1;"/><line style="stroke:#181818;stroke-width:1;stroke-dasharray:2,2;" x1="80.9731" x2="303.6362" y1="1826.3379" y2="1826.3379"/><text fill="#000000" font-family="sans-serif" font-size="13" lengthAdjust="spacing" textLength="86.7725" x="92.9731" y="1790.9746">202 Accepted</text><text fill="#000000" font-family="sans-serif" font-size="13" lengthAdjust="spacing" textLength="181.3589" x="92.9731" y="1806.2852">(Temporary network issue &#8212;</text><text fill="#000000" font-family="sans-serif" font-size="13" lengthAdjust="spacing" textLength="112.271" x="92.9731" y="1821.5957">retrying payment)</text></g><line style="stroke:#000000;stroke-width:1;stroke-dasharray:2,2;" x1="20" x2="980.3413" y1="1842.3379" y2="1842.3379"/><text fill="#000000" font-family="sans-serif" font-size="11" font-weight="bold" lengthAdjust="spacing" textLength="78.3105" x="25" y="1852.9727">[Out of Stock]</text><g class="message" data-entity-1="part3" data-entity-2="part2" id="msg33"><polygon fill="#181818" points="325.6362,1873.6035,315.6362,1877.6035,325.6362,1881.6035,321.6362,1877.6035" style="stroke:#181818;stroke-width:1;"/><line style="stroke:#181818;stroke-width:1;stroke-dasharray:2,2;" x1="319.6362" x2="512.5249" y1="1877.6035" y2="1877.6035"/><text fill="#000000" font-family="sans-serif" font-size="13" lengthAdjust="spacing" textLength="133.7896" x="331.6362" y="1872.8613">OutOfStockException</text></g><g class="message" data-entity-1="part2" data-entity-2="part1" id="msg34"><polygon fill="#181818" points="86.9731,1918.2246,76.9731,1922.2246,86.9731,1926.2246,82.9731,1922.2246" style="stroke:#181818;stroke-width:1;"/><line style="stroke:#181818;stroke-width:1;stroke-dasharray:2,2;" x1="80.9731" x2="303.6362" y1="1922.2246" y2="1922.2246"/><text fill="#000000" font-family="sans-serif" font-size="13" lengthAdjust="spacing" textLength="77.6382" x="92.9731" y="1902.1719">409 Conflict</text><text fill="#000000" font-family="sans-serif" font-size="13" lengthAdjust="spacing" textLength="136.4683" x="92.9731" y="1917.4824">(Product out of stock)</text></g><line style="stroke:#000000;stroke-width:1;stroke-dasharray:2,2;" x1="10" x2="990.3413" y1="1938.2246" y2="1938.2246"/><text fill="#000000" font-family="sans-serif" font-size="11" font-weight="bold" lengthAdjust="spacing" textLength="79.9272" x="15" y="1948.8594">[Invalid Input]</text><g class="message" data-entity-1="part2" data-entity-2="part1" id="msg35"><polygon fill="#181818" points="86.9731,1969.4902,76.9731,1973.4902,86.9731,1977.4902,82.9731,1973.4902" style="stroke:#181818;stroke-width:1;"/><line style="stroke:#181818;stroke-width:1;stroke-dasharray:2,2;" x1="80.9731" x2="303.6362" y1="1973.4902" y2="1973.4902"/><text fill="#000000" font-family="sans-serif" font-size="13" lengthAdjust="spacing" textLength="106.1709" x="92.9731" y="1968.748">400 Bad Request</text></g><line style="stroke:#000000;stroke-width:1;stroke-dasharray:2,2;" x1="10" x2="990.3413" y1="1982.4902" y2="1982.4902"/><text fill="#000000" font-family="sans-serif" font-size="11" font-weight="bold" lengthAdjust="spacing" textLength="101.0679" x="15" y="1993.125">[Unauthenticated]</text><g class="message" data-entity-1="part2" data-entity-2="part1" id="msg36"><polygon fill="#181818" points="86.9731,2013.7559,76.9731,2017.7559,86.9731,2021.7559,82.9731,2017.7559" style="stroke:#181818;stroke-width:1;"/><line style="stroke:#181818;stroke-width:1;stroke-dasharray:2,2;" x1="80.9731" x2="303.6362" y1="2017.7559" y2="2017.7559"/><text fill="#000000" font-family="sans-serif" font-size="13" lengthAdjust="spacing" textLength="113.9658" x="92.9731" y="2013.0137">401 Unauthorized</text></g><?plantuml-src nLPHRzis47xNhpXaG643APe4UvdH171inTFcsghjfYy61aQYOouIgPAK4tSOiATXpyL-ONx9ZXGbIqeQ9-Y0waaIZtVVVVSTUPhfX4AOosXD5Bv84UUHXiwORcW29rsu_-jVkAGydb3jUIJIGiB185TQf5GU055GVdZUbRY30sSB_J0uW1_6x7gjpvESUe1FHgHc4Si8r-X4S2r5afHkgi-7fdEIK0LpAZSiejRQ_d4_F8m86DlpOgB9bKdZuDrs_duCG_TjjmpFlORJa6nJYYyZekajsIvvnx_JL7AITArzEFAyCZTuVLO3s8DmEb_06sL0lCaST-WWAzWBuaD8IRHcdEBhacT5f8MueVmGM4pJJ6ZAe-slTDirdB8DOgWpi7jjHxua2OkDTS2pNCEh9U_dUetUMMJ-TdxvkEXYdHBj3Amzl8AwLUnPYfj1weps03E9g5AbBZgIVigfqbsxiKBSg89TEZs5O9SV3DOqki6VTgrkRI8EptlEe4c99HBbXxM9yomf4aCOyfgg5W2igVaUdiFh1obCH6txIkGyjhOnhUykGS-rG1oEN2RuKvZd_jWVB40bGY_vnv_zcR-hDlGdGwXay7omS-ki4-LIOjxlSrGeqzj3T8NBtQy1DsKkEpRWBedE9xSRpk2eMnW-baeJm8mgVAM53qGYCirIfb0maE2VcXzagsoTi509uzSbNuy52aSzApyXsMTQxiKG9CMYQContXvBtkwFqcsLlMdCwgTXmA6fOiJLidd2qIDykptO0YicKrjoHAGbuSh44Nn6Lzs6cnhz2A2-yfX6FeJ3_i9t6gaASl_FbrCuthivcCpz6GeCbq3IICWOiIbDTAxW50RJT-7ON_Z3xbv7M4n97tJN_TzVe9afwZVBi8eDXstTbi-Z-Xs8D6LQjwXlIlRhQ5jdd5b4FUQ9KOdA8wEnmnPa50fIGrcccpJK3pNZrXtWFJWvEeQ1fERuGwzkRzjhJUOqKPLOOKYZ1Flx-S8gDs0WeWH_kbJjJaoekSDSHyP5ItwZQ2xwmTWV7i9-EEsRhfcFVnVHp93rFD9_F3gfE9pX5SAaPR_y5JkllGfNatvtDSE2fLJaUZ_xRz_gmlJix1i92_t9C9YCVhlqPy55CEWlWkda9LMSHsiQv-YQg2sFbdn39LkPkyXSBh-BgnTN8CGf1rkqw8ldIlu4-f4fM8FrR7Tgut2tv96zWrtc6qQMVEHNqyqVBFwpNHOSxsw5l84Bmf8S3nXpeBXIlO0XXCsfRJoWfQeG3CbnOlpUxVA_LLzIBRTmo_HwYSTCsZwCluCA5YQ-98YAkp8ofN9QIC72DS9mT_8kPunRgC0gO8gJfLYrg7uIF-wOhgpzmoEaTaqq9ifd72y_cSKL3ddcgYX78L6WKzeEBXLwYppW6piHs-dOs-Fz2Cv9R0ykd7sTWm-SD4RfFIwEtGOtc5WWjNntE_y3?></g></svg>