<svg xmlns="http://www.w3.org/2000/svg" xmlns:xlink="http://www.w3.org/1999/xlink" contentStyleType="text/css" height="414px" preserveAspectRatio="none" style="width:305px;height:414px;background:#FFFFFF;" version="1.1" viewBox="0 0 305 414" width="305px" zoomAndPan="magnify"><title>Read Process</title><defs/><g><text fill="#000000" font-family="sans-serif" font-size="14" font-weight="bold" lengthAdjust="spacing" textLength="92.6064" x="113.4199" y="30.1074">Read Process</text><rect fill="#FFFFFF" height="164.7949" style="stroke:#181818;stroke-width:1.0;" width="10" x="201.9673" y="156.5332"/><rect fill="none" height="98.5039" style="stroke:#000000;stroke-width:1.5;" width="273.4946" x="10" y="215.8242"/><line style="stroke:#181818;stroke-width:0.5;stroke-dasharray:5.0,5.0;" x1="37" x2="37" y1="123.2422" y2="331.3281"/><line style="stroke:#181818;stroke-width:0.5;stroke-dasharray:5.0,5.0;" x1="206.4399" x2="206.4399" y1="123.2422" y2="331.3281"/><text fill="#000000" font-family="sans-serif" font-size="14" lengthAdjust="spacing" textLength="29.5586" x="20" y="119.7285">User</text><ellipse cx="37.7793" cy="53.1211" fill="#E2E2F0" rx="8" ry="8" style="stroke:#181818;stroke-width:0.5;"/><path d="M37.7793,61.1211 L37.7793,88.1211 M24.7793,69.1211 L50.7793,69.1211 M37.7793,88.1211 L24.7793,103.1211 M37.7793,88.1211 L50.7793,103.1211 " fill="none" style="stroke:#181818;stroke-width:0.5;"/><text fill="#000000" font-family="sans-serif" font-size="14" lengthAdjust="spacing" textLength="29.5586" x="20" y="345.4355">User</text><ellipse cx="37.7793" cy="357.4492" fill="#E2E2F0" rx="8" ry="8" style="stroke:#181818;stroke-width:0.5;"/><path d="M37.7793,365.4492 L37.7793,392.4492 M24.7793,373.4492 L50.7793,373.4492 M37.7793,392.4492 L24.7793,407.4492 M37.7793,392.4492 L50.7793,407.4492 " fill="none" style="stroke:#181818;stroke-width:0.5;"/><rect fill="#E2E2F0" height="32.6211" rx="2.5" ry="2.5" style="stroke:#181818;stroke-width:0.5;" width="133.0547" x="140.4399" y="89.6211"/><text fill="#000000" font-family="sans-serif" font-size="14" lengthAdjust="spacing" textLength="119.0547" x="147.4399" y="111.7285">Application System</text><rect fill="#E2E2F0" height="32.6211" rx="2.5" ry="2.5" style="stroke:#181818;stroke-width:0.5;" width="133.0547" x="140.4399" y="330.3281"/><text fill="#000000" font-family="sans-serif" font-size="14" lengthAdjust="spacing" textLength="119.0547" x="147.4399" y="352.4355">Application System</text><rect fill="#FFFFFF" height="164.7949" style="stroke:#181818;stroke-width:1.0;" width="10" x="201.9673" y="156.5332"/><polygon fill="#181818" points="189.9673,152.5332,199.9673,156.5332,189.9673,160.5332,193.9673,156.5332" style="stroke:#181818;stroke-width:1.0;"/><line style="stroke:#181818;stroke-width:1.0;" x1="37.7793" x2="195.9673" y1="156.5332" y2="156.5332"/><text fill="#000000" font-family="sans-serif" font-size="13" lengthAdjust="spacing" textLength="79.4917" x="44.7793" y="151.2705">Request Data</text><line style="stroke:#181818;stroke-width:1.0;" x1="211.9673" x2="253.9673" y1="187.8242" y2="187.8242"/><line style="stroke:#181818;stroke-width:1.0;" x1="253.9673" x2="253.9673" y1="187.8242" y2="200.8242"/><line style="stroke:#181818;stroke-width:1.0;" x1="212.9673" x2="253.9673" y1="200.8242" y2="200.8242"/><polygon fill="#181818" points="222.9673,196.8242,212.9673,200.8242,222.9673,204.8242,218.9673,200.8242" style="stroke:#181818;stroke-width:1.0;"/><text fill="#000000" font-family="sans-serif" font-size="13" lengthAdjust="spacing" textLength="79.479" x="218.9673" y="182.5615">Retrieve Data</text><path d="M10,215.8242 L70.1709,215.8242 L70.1709,225.1152 L60.1709,235.1152 L10,235.1152 L10,215.8242 " fill="#EEEEEE" style="stroke:#000000;stroke-width:1.5;"/><rect fill="none" height="98.5039" style="stroke:#000000;stroke-width:1.5;" width="273.4946" x="10" y="215.8242"/><text fill="#000000" font-family="sans-serif" font-size="13" font-weight="bold" lengthAdjust="spacing" textLength="15.1709" x="25" y="230.8525">alt</text><text fill="#000000" font-family="sans-serif" font-size="11" font-weight="bold" lengthAdjust="spacing" textLength="67.8208" x="85.1709" y="229.6943">[Data Found]</text><polygon fill="#181818" points="48.7793,254.4063,38.7793,258.4063,48.7793,262.4063,44.7793,258.4063" style="stroke:#181818;stroke-width:1.0;"/><line style="stroke:#181818;stroke-width:1.0;stroke-dasharray:2.0,2.0;" x1="42.7793" x2="200.9673" y1="258.4063" y2="258.4063"/><text fill="#000000" font-family="sans-serif" font-size="13" lengthAdjust="spacing" textLength="140.188" x="54.7793" y="253.1436">Display Requested Data</text><line style="stroke:#000000;stroke-width:1.0;stroke-dasharray:2.0,2.0;" x1="10" x2="283.4946" y1="267.4063" y2="267.4063"/><text fill="#000000" font-family="sans-serif" font-size="11" font-weight="bold" lengthAdjust="spacing" textLength="125.27" x="15" y="279.2764">[Data Not Found / Error]</text><polygon fill="#181818" points="48.7793,302.3281,38.7793,306.3281,48.7793,310.3281,44.7793,306.3281" style="stroke:#181818;stroke-width:1.0;"/><line style="stroke:#181818;stroke-width:1.0;stroke-dasharray:2.0,2.0;" x1="42.7793" x2="200.9673" y1="306.3281" y2="306.3281"/><text fill="#000000" font-family="sans-serif" font-size="13" lengthAdjust="spacing" textLength="131.4854" x="54.7793" y="301.0654">Display Error Message</text><!--SRC=[VP312i8m38RlVOgmktZt80ZJcoAA3n2w886wrYGRxErjr-sW1tjf2j_t_w765WXkX1rS9NfITGwzHO7ceIGDe48PN48nzfomDsWEAGNsQ1nxk4zgz9h1EZfN1DZib_Sknxy7KeCM3KiwZsYqqlNwnasOHbhuK4KunQ7l7EIpAjafLJjeMLF0QIsYhgeKj8R09LhrOGj7aIZ_SsO4platy4cEScr7Ftj_0000]--></g></svg>