<?plantuml 1.2026.2?><svg xmlns="http://www.w3.org/2000/svg" xmlns:xlink="http://www.w3.org/1999/xlink" contentStyleType="text/css" data-diagram-type="SEQUENCE" height="1337px" preserveAspectRatio="none" style="width:674px;height:1337px;background:#FFFFFF;" version="1.1" viewBox="0 0 674 1337" width="674px" zoomAndPan="magnify"><title>User Authentication (Level 1) &#8212; VendNet</title><defs/><g><text fill="#000000" font-family="sans-serif" font-size="14" font-weight="bold" lengthAdjust="spacing" textLength="294.0137" x="191.4795" y="28.5352">User Authentication (Level 1) &#8212; VendNet</text><g><title>VendNet System</title><rect fill="#FFFFFF" height="1048.334" style="stroke:#181818;stroke-width:1;" width="10" x="430.0068" y="182.0859"/></g><rect fill="none" height="984.0234" style="stroke:#000000;stroke-width:1.5;" width="657.9727" x="10" y="239.3965"/><rect fill="none" height="718.3184" style="stroke:#000000;stroke-width:1.5;" width="637.9727" x="20" y="321.3281"/><rect fill="none" height="569.8105" style="stroke:#000000;stroke-width:1.5;" width="617.9727" x="30" y="403.2598"/><rect fill="none" height="279.0605" style="stroke:#000000;stroke-width:1.5;" width="559.1465" x="40" y="687.0098"/><g class="participant-lifeline" data-entity-uid="part1" data-qualified-name="User" id="part1-lifeline"><g><title>User</title><rect fill="#000000" fill-opacity="0.00000" height="1104.9551" width="8" x="155.1211" y="135.4648"/><line style="stroke:#181818;stroke-width:0.5;stroke-dasharray:5,5;" x1="159" x2="159" y1="135.4648" y2="1240.4199"/></g></g><g class="participant-lifeline" data-entity-uid="part2" data-qualified-name="VendNet" id="part2-lifeline"><g><title>VendNet System</title><rect fill="#000000" fill-opacity="0.00000" height="1104.9551" width="8" x="431.0068" y="135.4648"/><line style="stroke:#181818;stroke-width:0.5;stroke-dasharray:5,5;" x1="434.8271" x2="434.8271" y1="135.4648" y2="1240.4199"/></g></g><g class="participant participant-head" data-entity-uid="part1" data-qualified-name="User" id="part1-head"><text fill="#000000" font-family="sans-serif" font-size="14" lengthAdjust="spacing" textLength="30.3652" x="140.9385" y="116.0234">User</text><text fill="#000000" font-family="sans-serif" font-size="14" lengthAdjust="spacing" textLength="212.2422" x="50" y="132.5117">(Customer / Operator / Admin)</text><ellipse cx="159.1211" cy="50.9883" fill="#E2E2F0" rx="8" ry="8" style="stroke:#181818;stroke-width:0.5;"/><path d="M159.1211,58.9883 L159.1211,85.9883 M146.1211,66.9883 L172.1211,66.9883 M159.1211,85.9883 L146.1211,100.9883 M159.1211,85.9883 L172.1211,100.9883" fill="none" style="stroke:#181818;stroke-width:0.5;"/></g><g class="participant participant-tail" data-entity-uid="part1" data-qualified-name="User" id="part1-tail"><text fill="#000000" font-family="sans-serif" font-size="14" lengthAdjust="spacing" textLength="30.3652" x="140.9385" y="1252.9551">User</text><text fill="#000000" font-family="sans-serif" font-size="14" lengthAdjust="spacing" textLength="212.2422" x="50" y="1269.4434">(Customer / Operator / Admin)</text><ellipse cx="159.1211" cy="1280.8965" fill="#E2E2F0" rx="8" ry="8" style="stroke:#181818;stroke-width:0.5;"/><path d="M159.1211,1288.8965 L159.1211,1315.8965 M146.1211,1296.8965 L172.1211,1296.8965 M159.1211,1315.8965 L146.1211,1330.8965 M159.1211,1315.8965 L172.1211,1330.8965" fill="none" style="stroke:#181818;stroke-width:0.5;"/></g><g class="participant participant-head" data-entity-uid="part2" data-qualified-name="VendNet" id="part2-head"><rect fill="#ADD8E6" height="30.4883" rx="2.5" ry="2.5" style="stroke:#181818;stroke-width:0.5;" width="124.3594" x="372.8271" y="103.9766"/><text fill="#000000" font-family="sans-serif" font-size="14" lengthAdjust="spacing" textLength="110.3594" x="379.8271" y="124.5117">VendNet System</text></g><g class="participant participant-tail" data-entity-uid="part2" data-qualified-name="VendNet" id="part2-tail"><rect fill="#ADD8E6" height="30.4883" rx="2.5" ry="2.5" style="stroke:#181818;stroke-width:0.5;" width="124.3594" x="372.8271" y="1239.4199"/><text fill="#000000" font-family="sans-serif" font-size="14" lengthAdjust="spacing" textLength="110.3594" x="379.8271" y="1259.9551">VendNet System</text></g><g><title>VendNet System</title><rect fill="#FFFFFF" height="1048.334" style="stroke:#181818;stroke-width:1;" width="10" x="430.0068" y="182.0859"/></g><g class="message" data-entity-1="part1" data-entity-2="part2" id="msg1"><polygon fill="#181818" points="418.0068,178.0859,428.0068,182.0859,418.0068,186.0859,422.0068,182.0859" style="stroke:#181818;stroke-width:1;"/><line style="stroke:#181818;stroke-width:1;" x1="159.1211" x2="424.0068" y1="182.0859" y2="182.0859"/><text fill="#000000" font-family="sans-serif" font-size="13" lengthAdjust="spacing" textLength="117.019" x="166.1211" y="162.0332">Submit credentials</text><text fill="#000000" font-family="sans-serif" font-size="13" lengthAdjust="spacing" textLength="138.6836" x="166.1211" y="177.3438">(username, password)</text></g><g class="message" data-entity-1="part2" data-entity-2="part2" id="msg2"><line style="stroke:#181818;stroke-width:1;" x1="440.0068" x2="482.0068" y1="211.3965" y2="211.3965"/><line style="stroke:#181818;stroke-width:1;" x1="482.0068" x2="482.0068" y1="211.3965" y2="224.3965"/><line style="stroke:#181818;stroke-width:1;" x1="441.0068" x2="482.0068" y1="224.3965" y2="224.3965"/><polygon fill="#181818" points="451.0068,220.3965,441.0068,224.3965,451.0068,228.3965,447.0068,224.3965" style="stroke:#181818;stroke-width:1;"/><text fill="#000000" font-family="sans-serif" font-size="13" lengthAdjust="spacing" textLength="134.0879" x="447.0068" y="206.6543">Validate input format</text></g><path d="M10,239.3965 L72.1387,239.3965 L72.1387,246.707 L62.1387,256.707 L10,256.707 L10,239.3965" fill="#EEEEEE" style="stroke:#000000;stroke-width:1.5;"/><rect fill="none" height="984.0234" style="stroke:#000000;stroke-width:1.5;" width="657.9727" x="10" y="239.3965"/><text fill="#000000" font-family="sans-serif" font-size="13" font-weight="bold" lengthAdjust="spacing" textLength="17.1387" x="25" y="252.9648">alt</text><text fill="#000000" font-family="sans-serif" font-size="11" font-weight="bold" lengthAdjust="spacing" textLength="104.9136" x="87.1387" y="252.0313">[Valid Credentials]</text><g class="message" data-entity-1="part2" data-entity-2="part2" id="msg3"><line style="stroke:#181818;stroke-width:1;" x1="440.0068" x2="482.0068" y1="293.3281" y2="293.3281"/><line style="stroke:#181818;stroke-width:1;" x1="482.0068" x2="482.0068" y1="293.3281" y2="306.3281"/><line style="stroke:#181818;stroke-width:1;" x1="441.0068" x2="482.0068" y1="306.3281" y2="306.3281"/><polygon fill="#181818" points="451.0068,302.3281,441.0068,306.3281,451.0068,310.3281,447.0068,306.3281" style="stroke:#181818;stroke-width:1;"/><text fill="#000000" font-family="sans-serif" font-size="13" lengthAdjust="spacing" textLength="108.9639" x="447.0068" y="273.2754">Verify user exists</text><text fill="#000000" font-family="sans-serif" font-size="13" lengthAdjust="spacing" textLength="117.6982" x="447.0068" y="288.5859">&amp; account is active</text></g><path d="M20,321.3281 L82.1387,321.3281 L82.1387,328.6387 L72.1387,338.6387 L20,338.6387 L20,321.3281" fill="#EEEEEE" style="stroke:#000000;stroke-width:1.5;"/><rect fill="none" height="718.3184" style="stroke:#000000;stroke-width:1.5;" width="637.9727" x="20" y="321.3281"/><text fill="#000000" font-family="sans-serif" font-size="13" font-weight="bold" lengthAdjust="spacing" textLength="17.1387" x="35" y="334.8965">alt</text><text fill="#000000" font-family="sans-serif" font-size="11" font-weight="bold" lengthAdjust="spacing" textLength="92.4795" x="97.1387" y="333.9629">[Account Active]</text><g class="message" data-entity-1="part2" data-entity-2="part2" id="msg4"><line style="stroke:#181818;stroke-width:1;" x1="440.0068" x2="482.0068" y1="375.2598" y2="375.2598"/><line style="stroke:#181818;stroke-width:1;" x1="482.0068" x2="482.0068" y1="375.2598" y2="388.2598"/><line style="stroke:#181818;stroke-width:1;" x1="441.0068" x2="482.0068" y1="388.2598" y2="388.2598"/><polygon fill="#181818" points="451.0068,384.2598,441.0068,388.2598,451.0068,392.2598,447.0068,388.2598" style="stroke:#181818;stroke-width:1;"/><text fill="#000000" font-family="sans-serif" font-size="13" lengthAdjust="spacing" textLength="100.623" x="447.0068" y="355.207">Verify password</text><text fill="#000000" font-family="sans-serif" font-size="13" lengthAdjust="spacing" textLength="128.0957" x="447.0068" y="370.5176">(BCrypt comparison)</text></g><path d="M30,403.2598 L92.1387,403.2598 L92.1387,410.5703 L82.1387,420.5703 L30,420.5703 L30,403.2598" fill="#EEEEEE" style="stroke:#000000;stroke-width:1.5;"/><rect fill="none" height="569.8105" style="stroke:#000000;stroke-width:1.5;" width="617.9727" x="30" y="403.2598"/><text fill="#000000" font-family="sans-serif" font-size="13" font-weight="bold" lengthAdjust="spacing" textLength="17.1387" x="45" y="416.8281">alt</text><text fill="#000000" font-family="sans-serif" font-size="11" font-weight="bold" lengthAdjust="spacing" textLength="112.8896" x="107.1387" y="415.8945">[Password Matches]</text><g class="message" data-entity-1="part2" data-entity-2="part2" id="msg5"><line style="stroke:#181818;stroke-width:1;" x1="440.0068" x2="482.0068" y1="441.8809" y2="441.8809"/><line style="stroke:#181818;stroke-width:1;" x1="482.0068" x2="482.0068" y1="441.8809" y2="454.8809"/><line style="stroke:#181818;stroke-width:1;" x1="441.0068" x2="482.0068" y1="454.8809" y2="454.8809"/><polygon fill="#181818" points="451.0068,450.8809,441.0068,454.8809,451.0068,458.8809,447.0068,454.8809" style="stroke:#181818;stroke-width:1;"/><text fill="#000000" font-family="sans-serif" font-size="13" lengthAdjust="spacing" textLength="178.9658" x="447.0068" y="437.1387">Reset failed attempt counter</text></g><g class="message" data-entity-1="part2" data-entity-2="part2" id="msg6"><line style="stroke:#181818;stroke-width:1;" x1="440.0068" x2="482.0068" y1="499.502" y2="499.502"/><line style="stroke:#181818;stroke-width:1;" x1="482.0068" x2="482.0068" y1="499.502" y2="512.502"/><line style="stroke:#181818;stroke-width:1;" x1="441.0068" x2="482.0068" y1="512.502" y2="512.502"/><polygon fill="#181818" points="451.0068,508.502,441.0068,512.502,451.0068,516.502,447.0068,512.502" style="stroke:#181818;stroke-width:1;"/><text fill="#000000" font-family="sans-serif" font-size="13" lengthAdjust="spacing" textLength="123.9189" x="447.0068" y="479.4492">Generate JWT token</text><text fill="#000000" font-family="sans-serif" font-size="13" lengthAdjust="spacing" textLength="127.6641" x="447.0068" y="494.7598">(userId, role, expiry)</text></g><g class="message" data-entity-1="part2" data-entity-2="part2" id="msg7"><line style="stroke:#181818;stroke-width:1;" x1="440.0068" x2="482.0068" y1="557.123" y2="557.123"/><line style="stroke:#181818;stroke-width:1;" x1="482.0068" x2="482.0068" y1="557.123" y2="570.123"/><line style="stroke:#181818;stroke-width:1;" x1="441.0068" x2="482.0068" y1="570.123" y2="570.123"/><polygon fill="#181818" points="451.0068,566.123,441.0068,570.123,451.0068,574.123,447.0068,570.123" style="stroke:#181818;stroke-width:1;"/><text fill="#000000" font-family="sans-serif" font-size="13" lengthAdjust="spacing" textLength="118.0283" x="447.0068" y="537.0703">Record audit event</text><text fill="#000000" font-family="sans-serif" font-size="13" lengthAdjust="spacing" textLength="109.7764" x="447.0068" y="552.3809">(LOGIN_SUCCESS)</text></g><g class="message" data-entity-1="part2" data-entity-2="part1" id="msg8"><polygon fill="#181818" points="170.1211,610.7441,160.1211,614.7441,170.1211,618.7441,166.1211,614.7441" style="stroke:#181818;stroke-width:1;"/><line style="stroke:#181818;stroke-width:1;stroke-dasharray:2,2;" x1="164.1211" x2="429.0068" y1="614.7441" y2="614.7441"/><text fill="#000000" font-family="sans-serif" font-size="13" lengthAdjust="spacing" textLength="47.3599" x="176.1211" y="594.6914">200 OK</text><text fill="#000000" font-family="sans-serif" font-size="13" lengthAdjust="spacing" textLength="246.8857" x="176.1211" y="610.002">(accessToken, refreshToken, expiresIn)</text></g><line style="stroke:#000000;stroke-width:1;stroke-dasharray:2,2;" x1="30" x2="647.9727" y1="623.7441" y2="623.7441"/><text fill="#000000" font-family="sans-serif" font-size="11" font-weight="bold" lengthAdjust="spacing" textLength="104.543" x="35" y="634.3789">[Password Invalid]</text><g class="message" data-entity-1="part2" data-entity-2="part2" id="msg9"><line style="stroke:#181818;stroke-width:1;" x1="440.0068" x2="482.0068" y1="659.0098" y2="659.0098"/><line style="stroke:#181818;stroke-width:1;" x1="482.0068" x2="482.0068" y1="659.0098" y2="672.0098"/><line style="stroke:#181818;stroke-width:1;" x1="441.0068" x2="482.0068" y1="672.0098" y2="672.0098"/><polygon fill="#181818" points="451.0068,668.0098,441.0068,672.0098,451.0068,676.0098,447.0068,672.0098" style="stroke:#181818;stroke-width:1;"/><text fill="#000000" font-family="sans-serif" font-size="13" lengthAdjust="spacing" textLength="162.4238" x="447.0068" y="654.2676">Increment failed attempts</text></g><path d="M40,687.0098 L102.1387,687.0098 L102.1387,694.3203 L92.1387,704.3203 L40,704.3203 L40,687.0098" fill="#EEEEEE" style="stroke:#000000;stroke-width:1.5;"/><rect fill="none" height="279.0605" style="stroke:#000000;stroke-width:1.5;" width="559.1465" x="40" y="687.0098"/><text fill="#000000" font-family="sans-serif" font-size="13" font-weight="bold" lengthAdjust="spacing" textLength="17.1387" x="55" y="700.5781">alt</text><text fill="#000000" font-family="sans-serif" font-size="11" font-weight="bold" lengthAdjust="spacing" textLength="166.3696" x="117.1387" y="699.6445">[Failed attempts &#8805; threshold]</text><g class="message" data-entity-1="part2" data-entity-2="part2" id="msg10"><line style="stroke:#181818;stroke-width:1;" x1="440.0068" x2="482.0068" y1="725.6309" y2="725.6309"/><line style="stroke:#181818;stroke-width:1;" x1="482.0068" x2="482.0068" y1="725.6309" y2="738.6309"/><line style="stroke:#181818;stroke-width:1;" x1="441.0068" x2="482.0068" y1="738.6309" y2="738.6309"/><polygon fill="#181818" points="451.0068,734.6309,441.0068,738.6309,451.0068,742.6309,447.0068,738.6309" style="stroke:#181818;stroke-width:1;"/><text fill="#000000" font-family="sans-serif" font-size="13" lengthAdjust="spacing" textLength="82.7671" x="447.0068" y="720.8887">Lock account</text></g><g class="message" data-entity-1="part2" data-entity-2="part2" id="msg11"><line style="stroke:#181818;stroke-width:1;" x1="440.0068" x2="482.0068" y1="783.252" y2="783.252"/><line style="stroke:#181818;stroke-width:1;" x1="482.0068" x2="482.0068" y1="783.252" y2="796.252"/><line style="stroke:#181818;stroke-width:1;" x1="441.0068" x2="482.0068" y1="796.252" y2="796.252"/><polygon fill="#181818" points="451.0068,792.252,441.0068,796.252,451.0068,800.252,447.0068,796.252" style="stroke:#181818;stroke-width:1;"/><text fill="#000000" font-family="sans-serif" font-size="13" lengthAdjust="spacing" textLength="118.0283" x="447.0068" y="763.1992">Record audit event</text><text fill="#000000" font-family="sans-serif" font-size="13" lengthAdjust="spacing" textLength="130.1396" x="447.0068" y="778.5098">(ACCOUNT_LOCKED)</text></g><g class="message" data-entity-1="part2" data-entity-2="part1" id="msg12"><polygon fill="#181818" points="170.1211,836.873,160.1211,840.873,170.1211,844.873,166.1211,840.873" style="stroke:#181818;stroke-width:1;"/><line style="stroke:#181818;stroke-width:1;stroke-dasharray:2,2;" x1="164.1211" x2="429.0068" y1="840.873" y2="840.873"/><text fill="#000000" font-family="sans-serif" font-size="13" lengthAdjust="spacing" textLength="73.3726" x="176.1211" y="820.8203">423 Locked</text><text fill="#000000" font-family="sans-serif" font-size="13" lengthAdjust="spacing" textLength="216.2012" x="176.1211" y="836.1309">(Account locked &#8212; contact admin)</text></g><line style="stroke:#000000;stroke-width:1;stroke-dasharray:2,2;" x1="40" x2="599.1465" y1="849.873" y2="849.873"/><text fill="#000000" font-family="sans-serif" font-size="11" font-weight="bold" lengthAdjust="spacing" textLength="99.709" x="45" y="860.5078">[Below threshold]</text><g class="message" data-entity-1="part2" data-entity-2="part2" id="msg13"><line style="stroke:#181818;stroke-width:1;" x1="440.0068" x2="482.0068" y1="900.4492" y2="900.4492"/><line style="stroke:#181818;stroke-width:1;" x1="482.0068" x2="482.0068" y1="900.4492" y2="913.4492"/><line style="stroke:#181818;stroke-width:1;" x1="441.0068" x2="482.0068" y1="913.4492" y2="913.4492"/><polygon fill="#181818" points="451.0068,909.4492,441.0068,913.4492,451.0068,917.4492,447.0068,913.4492" style="stroke:#181818;stroke-width:1;"/><text fill="#000000" font-family="sans-serif" font-size="13" lengthAdjust="spacing" textLength="118.0283" x="447.0068" y="880.3965">Record audit event</text><text fill="#000000" font-family="sans-serif" font-size="13" lengthAdjust="spacing" textLength="98.1284" x="447.0068" y="895.707">(FAILED_LOGIN)</text></g><g class="message" data-entity-1="part2" data-entity-2="part1" id="msg14"><polygon fill="#181818" points="170.1211,954.0703,160.1211,958.0703,170.1211,962.0703,166.1211,958.0703" style="stroke:#181818;stroke-width:1;"/><line style="stroke:#181818;stroke-width:1;stroke-dasharray:2,2;" x1="164.1211" x2="429.0068" y1="958.0703" y2="958.0703"/><text fill="#000000" font-family="sans-serif" font-size="13" lengthAdjust="spacing" textLength="113.9658" x="176.1211" y="938.0176">401 Unauthorized</text><text fill="#000000" font-family="sans-serif" font-size="13" lengthAdjust="spacing" textLength="122.8843" x="176.1211" y="953.3281">(Invalid credentials)</text></g><line style="stroke:#000000;stroke-width:1;stroke-dasharray:2,2;" x1="20" x2="657.9727" y1="981.0703" y2="981.0703"/><text fill="#000000" font-family="sans-serif" font-size="11" font-weight="bold" lengthAdjust="spacing" textLength="172.6699" x="25" y="991.7051">[Account Suspended / Locked]</text><g class="message" data-entity-1="part2" data-entity-2="part1" id="msg15"><polygon fill="#181818" points="170.1211,1027.6465,160.1211,1031.6465,170.1211,1035.6465,166.1211,1031.6465" style="stroke:#181818;stroke-width:1;"/><line style="stroke:#181818;stroke-width:1;stroke-dasharray:2,2;" x1="164.1211" x2="429.0068" y1="1031.6465" y2="1031.6465"/><text fill="#000000" font-family="sans-serif" font-size="13" lengthAdjust="spacing" textLength="92.6631" x="176.1211" y="1011.5938">403 Forbidden</text><text fill="#000000" font-family="sans-serif" font-size="13" lengthAdjust="spacing" textLength="112.0933" x="176.1211" y="1026.9043">(Account inactive)</text></g><line style="stroke:#000000;stroke-width:1;stroke-dasharray:2,2;" x1="10" x2="667.9727" y1="1047.6465" y2="1047.6465"/><text fill="#000000" font-family="sans-serif" font-size="11" font-weight="bold" lengthAdjust="spacing" textLength="96.1855" x="15" y="1058.2813">[User Not Found]</text><g class="message" data-entity-1="part2" data-entity-2="part2" id="msg16"><line style="stroke:#181818;stroke-width:1;" x1="440.0068" x2="482.0068" y1="1098.2227" y2="1098.2227"/><line style="stroke:#181818;stroke-width:1;" x1="482.0068" x2="482.0068" y1="1098.2227" y2="1111.2227"/><line style="stroke:#181818;stroke-width:1;" x1="441.0068" x2="482.0068" y1="1111.2227" y2="1111.2227"/><polygon fill="#181818" points="451.0068,1107.2227,441.0068,1111.2227,451.0068,1115.2227,447.0068,1111.2227" style="stroke:#181818;stroke-width:1;"/><text fill="#000000" font-family="sans-serif" font-size="13" lengthAdjust="spacing" textLength="128.667" x="447.0068" y="1078.1699">Dummy BCrypt hash</text><text fill="#000000" font-family="sans-serif" font-size="13" lengthAdjust="spacing" textLength="163.1665" x="447.0068" y="1093.4805">(timing attack prevention)</text></g><g class="message" data-entity-1="part2" data-entity-2="part1" id="msg17"><polygon fill="#181818" points="170.1211,1151.8438,160.1211,1155.8438,170.1211,1159.8438,166.1211,1155.8438" style="stroke:#181818;stroke-width:1;"/><line style="stroke:#181818;stroke-width:1;stroke-dasharray:2,2;" x1="164.1211" x2="429.0068" y1="1155.8438" y2="1155.8438"/><text fill="#000000" font-family="sans-serif" font-size="13" lengthAdjust="spacing" textLength="113.9658" x="176.1211" y="1135.791">401 Unauthorized</text><text fill="#000000" font-family="sans-serif" font-size="13" lengthAdjust="spacing" textLength="122.8843" x="176.1211" y="1151.1016">(Invalid credentials)</text></g><line style="stroke:#000000;stroke-width:1;stroke-dasharray:2,2;" x1="10" x2="667.9727" y1="1164.8438" y2="1164.8438"/><text fill="#000000" font-family="sans-serif" font-size="11" font-weight="bold" lengthAdjust="spacing" textLength="79.9272" x="15" y="1175.4785">[Invalid Input]</text><g class="message" data-entity-1="part2" data-entity-2="part1" id="msg18"><polygon fill="#181818" points="170.1211,1211.4199,160.1211,1215.4199,170.1211,1219.4199,166.1211,1215.4199" style="stroke:#181818;stroke-width:1;"/><line style="stroke:#181818;stroke-width:1;stroke-dasharray:2,2;" x1="164.1211" x2="429.0068" y1="1215.4199" y2="1215.4199"/><text fill="#000000" font-family="sans-serif" font-size="13" lengthAdjust="spacing" textLength="106.1709" x="176.1211" y="1195.3672">400 Bad Request</text><text fill="#000000" font-family="sans-serif" font-size="13" lengthAdjust="spacing" textLength="113.6104" x="176.1211" y="1210.6777">(Validation errors)</text></g><?plantuml-src dLLDRzf04BtxLuoeL0Kf5IJfAOTAO21oGw4ga5ugeOrtY5UnTztTDGavzTfx_qB_M7v9PnURBq6XzGdlpBvvyzvuiCAc21E36bg5JL1Q4JChb8IpFiunXOiwlFxu1NSe-G1j4B3OAWqrT-ERF0iBOrL6bnimp54p5sj0YsT2rcl0Z4SEWfnfmXKvanPg9HIC5iPYvhEgepTzyP3OTbfW47XExpvKiMiO5VUPi11hv8ucImqHA2XBiWpF8MV6F2dDwuwYc3EBQz8L_YRS7Ki5Trb2veM5cT8PS_sbTXc2S5qe282UlIYenMm1ZWRWip2MIBq55iUge5w50Ky6bm0EkrM6MXldHy2hpgZTTgWNEMcWCf9K62NhQmI7_hbCXK_CnWcQLV1GYIzew6J6H8eSc2L3F3mn9D-ENRv1wJn7-FXr35OzeYmTYVWvQ9MIA_YS2xsedy0ZThHPmSbY6Znf2Qe_l8a6qz4a3BkZqG4C0d6JSWsNpIOCR-aMYO_6Z1qTOe4pZIOftpmRDD6cR9WQNEiMoRap_oZVID8SPaHpHpiJR5rrdlIs4-3rvs-mYMEbqkr2XuhrLVnOpTH95_QgsGh3uMGmdlQ7uMstKpyCj9Bq_UMLhurkzAh1JVs1NmgnafRc6vZ_thS0lQfjJDNJF_Qwbtgl5VMxdQcVXvE8DozW8XajDAN5YwTV6hkvFdOOopL1zpjOjL5rFYfCJX5glb7A4loDmXNqbBuNdFlFeW8HShaHbiLz8L_4hxk1ed6XD7vmttIAB5j0kGOIPXA2jeBaVt03ncXESkrL4wfqvF_LMHAhGf5RamSHcz1cdCpxNg1nZfNRrVsHeDPA4vplbUFkTlu3?></g></svg>