<?plantuml 1.2026.2?><svg xmlns="http://www.w3.org/2000/svg" xmlns:xlink="http://www.w3.org/1999/xlink" contentStyleType="text/css" data-diagram-type="SEQUENCE" height="1879px" preserveAspectRatio="none" style="width:924px;height:1879px;background:#FFFFFF;" version="1.1" viewBox="0 0 924 1879" width="924px" zoomAndPan="magnify"><title>Telemetry Ingestion (Level 2) &#8212; VendNet</title><defs/><g><text fill="#000000" font-family="sans-serif" font-size="14" font-weight="bold" lengthAdjust="spacing" textLength="295.333" x="310.7793" y="28.5352">Telemetry Ingestion (Level 2) &#8212; VendNet</text><rect fill="#ADD8E6" height="1822.9824" style="stroke:#181818;stroke-width:0.5;" width="325.457" x="307.9302" y="43.4883"/><text fill="#000000" font-family="sans-serif" font-size="13" font-weight="bold" lengthAdjust="spacing" textLength="82.8687" x="429.2244" y="56.0566">VendNet API</text><g><title>Controller</title><rect fill="#FFFFFF" height="1550.1426" style="stroke:#181818;stroke-width:1;" width="10" x="348.0107" y="240.8398"/></g><g><title>Telemetry Service</title><rect fill="#FFFFFF" height="1091.2637" style="stroke:#181818;stroke-width:1;" width="10" x="557.6821" y="464.6348"/></g><g><title>MySQL Database</title><rect fill="#FFFFFF" height="29.3105" style="stroke:#181818;stroke-width:1;" width="10" x="793.7173" y="567.877"/></g><g><title>MySQL Database</title><rect fill="#FFFFFF" height="29.3105" style="stroke:#181818;stroke-width:1;" width="10" x="793.7173" y="880.6035"/></g><g><title>MySQL Database</title><rect fill="#FFFFFF" height="29.3105" style="stroke:#181818;stroke-width:1;" width="10" x="793.7173" y="969.8457"/></g><rect fill="none" height="1455.2109" style="stroke:#000000;stroke-width:1.5;" width="897.8916" x="10" y="328.7715"/><rect fill="none" height="1264.3926" style="stroke:#000000;stroke-width:1.5;" width="877.8916" x="20" y="410.7031"/><rect fill="none" height="996.332" style="stroke:#000000;stroke-width:1.5;" width="857.8916" x="30" y="612.1875"/><rect fill="none" height="699.9609" style="stroke:#000000;stroke-width:1.5;" width="837.8916" x="40" y="752.7402"/><rect fill="none" height="77.2422" style="stroke:#000000;stroke-width:1.5;" width="381.9146" x="485.9771" y="1130.3984"/><g class="participant-lifeline" data-entity-uid="part1" data-qualified-name="VM" id="part1-lifeline"><g><title>Vending Machine</title><rect fill="#000000" fill-opacity="0.00000" height="1696.0059" width="8" x="111.2661" y="104.9766"/><line style="stroke:#181818;stroke-width:0.5;stroke-dasharray:5,5;" x1="115" x2="115" y1="104.9766" y2="1800.9824"/></g></g><g class="participant-lifeline" data-entity-uid="part2" data-qualified-name="Controller" id="part2-lifeline"><g><title>Controller</title><rect fill="#000000" fill-opacity="0.00000" height="1696.0059" width="8" x="349.0107" y="104.9766"/><line style="stroke:#181818;stroke-width:0.5;stroke-dasharray:5,5;" x1="352.9302" x2="352.9302" y1="104.9766" y2="1800.9824"/></g></g><g class="participant-lifeline" data-entity-uid="part3" data-qualified-name="TelemetryService" id="part3-lifeline"><g><title>Telemetry Service</title><rect fill="#000000" fill-opacity="0.00000" height="1696.0059" width="8" x="558.6821" y="104.9766"/><line style="stroke:#181818;stroke-width:0.5;stroke-dasharray:5,5;" x1="561.9771" x2="561.9771" y1="104.9766" y2="1800.9824"/></g></g><g class="participant-lifeline" data-entity-uid="part4" data-qualified-name="DB" id="part4-lifeline"><g><title>MySQL Database</title><rect fill="#000000" fill-opacity="0.00000" height="1696.0059" width="8" x="794.7173" y="104.9766"/><line style="stroke:#181818;stroke-width:0.5;stroke-dasharray:5,5;" x1="798.543" x2="798.543" y1="104.9766" y2="1800.9824"/></g></g><g class="participant participant-head" data-entity-uid="part1" data-qualified-name="VM" id="part1-head"><rect fill="#E2E2F0" height="46.9766" rx="2.5" ry="2.5" style="stroke:#181818;stroke-width:0.5;" width="130.5322" x="50" y="57"/><text fill="#000000" font-family="sans-serif" font-size="14" lengthAdjust="spacing" textLength="116.5322" x="57" y="77.5352">Vending Machine</text><text fill="#000000" font-family="sans-serif" font-size="14" lengthAdjust="spacing" textLength="91.0137" x="69.7593" y="94.0234">(Edge Device)</text></g><g class="participant participant-tail" data-entity-uid="part1" data-qualified-name="VM" id="part1-tail"><rect fill="#E2E2F0" height="46.9766" rx="2.5" ry="2.5" style="stroke:#181818;stroke-width:0.5;" width="130.5322" x="50" y="1799.9824"/><text fill="#000000" font-family="sans-serif" font-size="14" lengthAdjust="spacing" textLength="116.5322" x="57" y="1820.5176">Vending Machine</text><text fill="#000000" font-family="sans-serif" font-size="14" lengthAdjust="spacing" textLength="91.0137" x="69.7593" y="1837.0059">(Edge Device)</text></g><g class="participant participant-head" data-entity-uid="part2" data-qualified-name="Controller" id="part2-head"><rect fill="#E2E2F0" height="30.4883" rx="2.5" ry="2.5" style="stroke:#181818;stroke-width:0.5;" width="82.1611" x="311.9302" y="73.4883"/><text fill="#000000" font-family="sans-serif" font-size="14" lengthAdjust="spacing" textLength="68.1611" x="318.9302" y="94.0234">Controller</text></g><g class="participant participant-tail" data-entity-uid="part2" data-qualified-name="Controller" id="part2-tail"><rect fill="#E2E2F0" height="30.4883" rx="2.5" ry="2.5" style="stroke:#181818;stroke-width:0.5;" width="82.1611" x="311.9302" y="1799.9824"/><text fill="#000000" font-family="sans-serif" font-size="14" lengthAdjust="spacing" textLength="68.1611" x="318.9302" y="1820.5176">Controller</text></g><g class="participant participant-head" data-entity-uid="part3" data-qualified-name="TelemetryService" id="part3-head"><rect fill="#E2E2F0" height="30.4883" rx="2.5" ry="2.5" style="stroke:#181818;stroke-width:0.5;" width="133.4102" x="495.9771" y="73.4883"/><text fill="#000000" font-family="sans-serif" font-size="14" lengthAdjust="spacing" textLength="119.4102" x="502.9771" y="94.0234">Telemetry Service</text></g><g class="participant participant-tail" data-entity-uid="part3" data-qualified-name="TelemetryService" id="part3-tail"><rect fill="#E2E2F0" height="30.4883" rx="2.5" ry="2.5" style="stroke:#181818;stroke-width:0.5;" width="133.4102" x="495.9771" y="1799.9824"/><text fill="#000000" font-family="sans-serif" font-size="14" lengthAdjust="spacing" textLength="119.4102" x="502.9771" y="1820.5176">Telemetry Service</text></g><g class="participant participant-head" data-entity-uid="part4" data-qualified-name="DB" id="part4-head"><text fill="#000000" font-family="sans-serif" font-size="14" lengthAdjust="spacing" textLength="112.3486" x="739.543" y="102.0234">MySQL Database</text><path d="M780.7173,52.4883 C780.7173,42.4883 798.7173,42.4883 798.7173,42.4883 C798.7173,42.4883 816.7173,42.4883 816.7173,52.4883 L816.7173,78.4883 C816.7173,88.4883 798.7173,88.4883 798.7173,88.4883 C798.7173,88.4883 780.7173,88.4883 780.7173,78.4883 L780.7173,52.4883" fill="#E2E2F0" style="stroke:#181818;stroke-width:0.5;"/><path d="M780.7173,52.4883 C780.7173,62.4883 798.7173,62.4883 798.7173,62.4883 C798.7173,62.4883 816.7173,62.4883 816.7173,52.4883" fill="none" style="stroke:#181818;stroke-width:0.5;"/></g><g class="participant participant-tail" data-entity-uid="part4" data-qualified-name="DB" id="part4-tail"><text fill="#000000" font-family="sans-serif" font-size="14" lengthAdjust="spacing" textLength="112.3486" x="739.543" y="1813.5176">MySQL Database</text><path d="M780.7173,1826.4707 C780.7173,1816.4707 798.7173,1816.4707 798.7173,1816.4707 C798.7173,1816.4707 816.7173,1816.4707 816.7173,1826.4707 L816.7173,1852.4707 C816.7173,1862.4707 798.7173,1862.4707 798.7173,1862.4707 C798.7173,1862.4707 780.7173,1862.4707 780.7173,1852.4707 L780.7173,1826.4707" fill="#E2E2F0" style="stroke:#181818;stroke-width:0.5;"/><path d="M780.7173,1826.4707 C780.7173,1836.4707 798.7173,1836.4707 798.7173,1836.4707 C798.7173,1836.4707 816.7173,1836.4707 816.7173,1826.4707" fill="none" style="stroke:#181818;stroke-width:0.5;"/></g><g><title>Controller</title><rect fill="#FFFFFF" height="1550.1426" style="stroke:#181818;stroke-width:1;" width="10" x="348.0107" y="240.8398"/></g><g><title>Telemetry Service</title><rect fill="#FFFFFF" height="1091.2637" style="stroke:#181818;stroke-width:1;" width="10" x="557.6821" y="464.6348"/></g><g><title>MySQL Database</title><rect fill="#FFFFFF" height="29.3105" style="stroke:#181818;stroke-width:1;" width="10" x="793.7173" y="567.877"/></g><g><title>MySQL Database</title><rect fill="#FFFFFF" height="29.3105" style="stroke:#181818;stroke-width:1;" width="10" x="793.7173" y="880.6035"/></g><g><title>MySQL Database</title><rect fill="#FFFFFF" height="29.3105" style="stroke:#181818;stroke-width:1;" width="10" x="793.7173" y="969.8457"/></g><rect fill="#EEEEEE" height="3" style="stroke:#EEEEEE;stroke-width:1;" width="917.8916" x="0" y="135.6318"/><line style="stroke:#000000;stroke-width:1;" x1="0" x2="917.8916" y1="135.6318" y2="135.6318"/><line style="stroke:#000000;stroke-width:1;" x1="0" x2="917.8916" y1="138.6318" y2="138.6318"/><rect fill="#EEEEEE" height="23.3105" style="stroke:#000000;stroke-width:2;" width="133.4438" x="392.2239" y="124.9766"/><text fill="#000000" font-family="sans-serif" font-size="13" font-weight="bold" lengthAdjust="spacing" textLength="115.1592" x="398.2239" y="141.5449">mTLS Handshake</text><g class="message" data-entity-1="part1" data-entity-2="part2" id="msg1"><polygon fill="#181818" points="336.0107,236.8398,346.0107,240.8398,336.0107,244.8398,340.0107,240.8398" style="stroke:#181818;stroke-width:1;"/><line style="stroke:#181818;stroke-width:1;" x1="115.2661" x2="342.0107" y1="240.8398" y2="240.8398"/><text fill="#000000" font-family="sans-serif" font-size="13" lengthAdjust="spacing" textLength="213.7446" x="122.2661" y="174.8555">HTTPS POST /machines/telemetry</text><text fill="#000000" font-family="sans-serif" font-size="13" lengthAdjust="spacing" textLength="178.6611" x="122.2661" y="190.166">{serialNumber, temperature,</text><text fill="#000000" font-family="sans-serif" font-size="13" lengthAdjust="spacing" textLength="163.687" x="122.2661" y="205.4766">stockLevels[], statusCode,</text><text fill="#000000" font-family="sans-serif" font-size="13" lengthAdjust="spacing" textLength="158.1138" x="122.2661" y="220.7871">errorCodes[], timestamp}</text><text fill="#000000" font-family="sans-serif" font-size="13" lengthAdjust="spacing" textLength="147.6401" x="122.2661" y="236.0977">[mTLS client certificate]</text></g><g class="message" data-entity-1="part2" data-entity-2="part2" id="msg2"><line style="stroke:#181818;stroke-width:1;" x1="358.0107" x2="400.0107" y1="300.7715" y2="300.7715"/><line style="stroke:#181818;stroke-width:1;" x1="400.0107" x2="400.0107" y1="300.7715" y2="313.7715"/><line style="stroke:#181818;stroke-width:1;" x1="359.0107" x2="400.0107" y1="313.7715" y2="313.7715"/><polygon fill="#181818" points="369.0107,309.7715,359.0107,313.7715,369.0107,317.7715,365.0107,313.7715" style="stroke:#181818;stroke-width:1;"/><text fill="#000000" font-family="sans-serif" font-size="13" lengthAdjust="spacing" textLength="148.7954" x="365.0107" y="265.4082">Extract client certificate</text><text fill="#000000" font-family="sans-serif" font-size="13" lengthAdjust="spacing" textLength="128.7495" x="365.0107" y="280.7188">CN (Common Name)</text><text fill="#000000" font-family="sans-serif" font-size="13" lengthAdjust="spacing" textLength="107.5356" x="365.0107" y="296.0293">from TLS session</text></g><path d="M10,328.7715 L72.1387,328.7715 L72.1387,336.082 L62.1387,346.082 L10,346.082 L10,328.7715" fill="#EEEEEE" style="stroke:#000000;stroke-width:1.5;"/><rect fill="none" height="1455.2109" style="stroke:#000000;stroke-width:1.5;" width="897.8916" x="10" y="328.7715"/><text fill="#000000" font-family="sans-serif" font-size="13" font-weight="bold" lengthAdjust="spacing" textLength="17.1387" x="25" y="342.3398">alt</text><text fill="#000000" font-family="sans-serif" font-size="11" font-weight="bold" lengthAdjust="spacing" textLength="99.0537" x="87.1387" y="341.4063">[Certificate Valid]</text><g class="message" data-entity-1="part2" data-entity-2="part2" id="msg3"><line style="stroke:#181818;stroke-width:1;" x1="358.0107" x2="400.0107" y1="382.7031" y2="382.7031"/><line style="stroke:#181818;stroke-width:1;" x1="400.0107" x2="400.0107" y1="382.7031" y2="395.7031"/><line style="stroke:#181818;stroke-width:1;" x1="359.0107" x2="400.0107" y1="395.7031" y2="395.7031"/><polygon fill="#181818" points="369.0107,391.7031,359.0107,395.7031,369.0107,399.7031,365.0107,395.7031" style="stroke:#181818;stroke-width:1;"/><text fill="#000000" font-family="sans-serif" font-size="13" lengthAdjust="spacing" textLength="50.6606" x="365.0107" y="362.6504">Validate</text><text fill="#000000" font-family="sans-serif" font-size="13" lengthAdjust="spacing" textLength="145.4312" x="365.0107" y="377.9609">TelemetryRequest DTO</text></g><path d="M20,410.7031 L82.1387,410.7031 L82.1387,418.0137 L72.1387,428.0137 L20,428.0137 L20,410.7031" fill="#EEEEEE" style="stroke:#000000;stroke-width:1.5;"/><rect fill="none" height="1264.3926" style="stroke:#000000;stroke-width:1.5;" width="877.8916" x="20" y="410.7031"/><text fill="#000000" font-family="sans-serif" font-size="13" font-weight="bold" lengthAdjust="spacing" textLength="17.1387" x="35" y="424.2715">alt</text><text fill="#000000" font-family="sans-serif" font-size="11" font-weight="bold" lengthAdjust="spacing" textLength="70.2163" x="97.1387" y="423.3379">[Input Valid]</text><g class="message" data-entity-1="part2" data-entity-2="part3" id="msg4"><polygon fill="#181818" points="545.6821,460.6348,555.6821,464.6348,545.6821,468.6348,549.6821,464.6348" style="stroke:#181818;stroke-width:1;"/><line style="stroke:#181818;stroke-width:1;" x1="358.0107" x2="551.6821" y1="464.6348" y2="464.6348"/><text fill="#000000" font-family="sans-serif" font-size="13" lengthAdjust="spacing" textLength="101.48" x="365.0107" y="444.582">ingestTelemetry</text><text fill="#000000" font-family="sans-serif" font-size="13" lengthAdjust="spacing" textLength="145.1455" x="365.0107" y="459.8926">(certificateCN, request)</text></g><rect fill="#EEEEEE" height="3" style="stroke:#EEEEEE;stroke-width:1;" width="917.8916" x="0" y="493.29"/><line style="stroke:#000000;stroke-width:1;" x1="0" x2="917.8916" y1="493.29" y2="493.29"/><line style="stroke:#000000;stroke-width:1;" x1="0" x2="917.8916" y1="496.29" y2="496.29"/><rect fill="#EEEEEE" height="23.3105" style="stroke:#000000;stroke-width:2;" width="210.9106" x="353.4905" y="482.6348"/><text fill="#000000" font-family="sans-serif" font-size="13" font-weight="bold" lengthAdjust="spacing" textLength="192.626" x="359.4905" y="499.2031">Machine Identity Verification</text><g class="message" data-entity-1="part3" data-entity-2="part4" id="msg5"><polygon fill="#181818" points="781.7173,563.877,791.7173,567.877,781.7173,571.877,785.7173,567.877" style="stroke:#181818;stroke-width:1;"/><line style="stroke:#181818;stroke-width:1;" x1="567.6821" x2="787.7173" y1="567.877" y2="567.877"/><text fill="#000000" font-family="sans-serif" font-size="13" lengthAdjust="spacing" textLength="102.4639" x="574.6821" y="532.5137">SELECT machine</text><text fill="#000000" font-family="sans-serif" font-size="13" lengthAdjust="spacing" textLength="150.9473" x="574.6821" y="547.8242">WHERE serial_number =</text><text fill="#000000" font-family="sans-serif" font-size="13" lengthAdjust="spacing" textLength="80.9199" x="574.6821" y="563.1348">certificateCN</text></g><g class="message" data-entity-1="part4" data-entity-2="part3" id="msg6"><polygon fill="#181818" points="578.6821,593.1875,568.6821,597.1875,578.6821,601.1875,574.6821,597.1875" style="stroke:#181818;stroke-width:1;"/><line style="stroke:#181818;stroke-width:1;stroke-dasharray:2,2;" x1="572.6821" x2="797.7173" y1="597.1875" y2="597.1875"/><text fill="#000000" font-family="sans-serif" font-size="13" lengthAdjust="spacing" textLength="96.9922" x="584.6821" y="592.4453">Machine record</text></g><path d="M30,612.1875 L92.1387,612.1875 L92.1387,619.498 L82.1387,629.498 L30,629.498 L30,612.1875" fill="#EEEEEE" style="stroke:#000000;stroke-width:1.5;"/><rect fill="none" height="996.332" style="stroke:#000000;stroke-width:1.5;" width="857.8916" x="30" y="612.1875"/><text fill="#000000" font-family="sans-serif" font-size="13" font-weight="bold" lengthAdjust="spacing" textLength="17.1387" x="45" y="625.7559">alt</text><text fill="#000000" font-family="sans-serif" font-size="11" font-weight="bold" lengthAdjust="spacing" textLength="290.7212" x="107.1387" y="624.8223">[Machine Registered &amp; Status &#8800; DECOMMISSIONED]</text><rect fill="#EEEEEE" height="3" style="stroke:#EEEEEE;stroke-width:1;" width="917.8916" x="0" y="650.1533"/><line style="stroke:#000000;stroke-width:1;" x1="0" x2="917.8916" y1="650.1533" y2="650.1533"/><line style="stroke:#000000;stroke-width:1;" x1="0" x2="917.8916" y1="653.1533" y2="653.1533"/><rect fill="#EEEEEE" height="23.3105" style="stroke:#000000;stroke-width:2;" width="107.2979" x="405.2969" y="639.498"/><text fill="#000000" font-family="sans-serif" font-size="13" font-weight="bold" lengthAdjust="spacing" textLength="89.0132" x="411.2969" y="656.0664">Rate Limiting</text><g class="message" data-entity-1="part3" data-entity-2="part3" id="msg7"><line style="stroke:#181818;stroke-width:1;" x1="567.6821" x2="609.6821" y1="724.7402" y2="724.7402"/><line style="stroke:#181818;stroke-width:1;" x1="609.6821" x2="609.6821" y1="724.7402" y2="737.7402"/><line style="stroke:#181818;stroke-width:1;" x1="568.6821" x2="609.6821" y1="737.7402" y2="737.7402"/><polygon fill="#181818" points="578.6821,733.7402,568.6821,737.7402,578.6821,741.7402,574.6821,737.7402" style="stroke:#181818;stroke-width:1;"/><text fill="#000000" font-family="sans-serif" font-size="13" lengthAdjust="spacing" textLength="99.6646" x="574.6821" y="689.377">Check rate limit</text><text fill="#000000" font-family="sans-serif" font-size="13" lengthAdjust="spacing" textLength="134.2974" x="574.6821" y="704.6875">(max N requests/min</text><text fill="#000000" font-family="sans-serif" font-size="13" lengthAdjust="spacing" textLength="82.1958" x="574.6821" y="719.998">per machine)</text></g><path d="M40,752.7402 L102.1387,752.7402 L102.1387,760.0508 L92.1387,770.0508 L40,770.0508 L40,752.7402" fill="#EEEEEE" style="stroke:#000000;stroke-width:1.5;"/><rect fill="none" height="699.9609" style="stroke:#000000;stroke-width:1.5;" width="837.8916" x="40" y="752.7402"/><text fill="#000000" font-family="sans-serif" font-size="13" font-weight="bold" lengthAdjust="spacing" textLength="17.1387" x="55" y="766.3086">alt</text><text fill="#000000" font-family="sans-serif" font-size="11" font-weight="bold" lengthAdjust="spacing" textLength="105.0425" x="117.1387" y="765.375">[Within Rate Limit]</text><rect fill="#EEEEEE" height="3" style="stroke:#EEEEEE;stroke-width:1;" width="917.8916" x="0" y="790.7061"/><line style="stroke:#000000;stroke-width:1;" x1="0" x2="917.8916" y1="790.7061" y2="790.7061"/><line style="stroke:#000000;stroke-width:1;" x1="0" x2="917.8916" y1="793.7061" y2="793.7061"/><rect fill="#EEEEEE" height="23.3105" style="stroke:#000000;stroke-width:2;" width="129.8193" x="394.0361" y="780.0508"/><text fill="#000000" font-family="sans-serif" font-size="13" font-weight="bold" lengthAdjust="spacing" textLength="111.5347" x="400.0361" y="796.6191">Data Persistence</text><g class="message" data-entity-1="part3" data-entity-2="part4" id="msg8"><polygon fill="#181818" points="781.7173,876.6035,791.7173,880.6035,781.7173,884.6035,785.7173,880.6035" style="stroke:#181818;stroke-width:1;"/><line style="stroke:#181818;stroke-width:1;" x1="567.6821" x2="787.7173" y1="880.6035" y2="880.6035"/><text fill="#000000" font-family="sans-serif" font-size="13" lengthAdjust="spacing" textLength="154.6162" x="574.6821" y="829.9297">INSERT telemetry_record</text><text fill="#000000" font-family="sans-serif" font-size="13" lengthAdjust="spacing" textLength="159.2627" x="574.6821" y="845.2402">(machineId, temperature,</text><text fill="#000000" font-family="sans-serif" font-size="13" lengthAdjust="spacing" textLength="155.2319" x="574.6821" y="860.5508">stockLevels, statusCode,</text><text fill="#000000" font-family="sans-serif" font-size="13" lengthAdjust="spacing" textLength="71.2144" x="574.6821" y="875.8613">timestamp)</text></g><g class="message" data-entity-1="part4" data-entity-2="part3" id="msg9"><polygon fill="#181818" points="578.6821,905.9141,568.6821,909.9141,578.6821,913.9141,574.6821,909.9141" style="stroke:#181818;stroke-width:1;"/><line style="stroke:#181818;stroke-width:1;stroke-dasharray:2,2;" x1="572.6821" x2="797.7173" y1="909.9141" y2="909.9141"/><text fill="#000000" font-family="sans-serif" font-size="13" lengthAdjust="spacing" textLength="40.5933" x="584.6821" y="905.1719">Stored</text></g><g class="message" data-entity-1="part3" data-entity-2="part4" id="msg10"><polygon fill="#181818" points="781.7173,965.8457,791.7173,969.8457,781.7173,973.8457,785.7173,969.8457" style="stroke:#181818;stroke-width:1;"/><line style="stroke:#181818;stroke-width:1;" x1="567.6821" x2="787.7173" y1="969.8457" y2="969.8457"/><text fill="#000000" font-family="sans-serif" font-size="13" lengthAdjust="spacing" textLength="170.6694" x="574.6821" y="934.4824">UPDATE vending_machines</text><text fill="#000000" font-family="sans-serif" font-size="13" lengthAdjust="spacing" textLength="195.2603" x="574.6821" y="949.793">SET last_telemetry_at = NOW(),</text><text fill="#000000" font-family="sans-serif" font-size="13" lengthAdjust="spacing" textLength="62.2705" x="574.6821" y="965.1035">status = ?</text></g><g class="message" data-entity-1="part4" data-entity-2="part3" id="msg11"><polygon fill="#181818" points="578.6821,995.1563,568.6821,999.1563,578.6821,1003.1563,574.6821,999.1563" style="stroke:#181818;stroke-width:1;"/><line style="stroke:#181818;stroke-width:1;stroke-dasharray:2,2;" x1="572.6821" x2="797.7173" y1="999.1563" y2="999.1563"/><text fill="#000000" font-family="sans-serif" font-size="13" lengthAdjust="spacing" textLength="52.8379" x="584.6821" y="994.4141">Updated</text></g><rect fill="#EEEEEE" height="3" style="stroke:#EEEEEE;stroke-width:1;" width="917.8916" x="0" y="1027.8115"/><line style="stroke:#000000;stroke-width:1;" x1="0" x2="917.8916" y1="1027.8115" y2="1027.8115"/><line style="stroke:#000000;stroke-width:1;" x1="0" x2="917.8916" y1="1030.8115" y2="1030.8115"/><rect fill="#EEEEEE" height="23.3105" style="stroke:#000000;stroke-width:2;" width="125.0713" x="396.4102" y="1017.1563"/><text fill="#000000" font-family="sans-serif" font-size="13" font-weight="bold" lengthAdjust="spacing" textLength="106.7866" x="402.4102" y="1033.7246">Alert Evaluation</text><g class="message" data-entity-1="part3" data-entity-2="part3" id="msg12"><line style="stroke:#181818;stroke-width:1;" x1="567.6821" x2="609.6821" y1="1102.3984" y2="1102.3984"/><line style="stroke:#181818;stroke-width:1;" x1="609.6821" x2="609.6821" y1="1102.3984" y2="1115.3984"/><line style="stroke:#181818;stroke-width:1;" x1="568.6821" x2="609.6821" y1="1115.3984" y2="1115.3984"/><polygon fill="#181818" points="578.6821,1111.3984,568.6821,1115.3984,578.6821,1119.3984,574.6821,1115.3984" style="stroke:#181818;stroke-width:1;"/><text fill="#000000" font-family="sans-serif" font-size="13" lengthAdjust="spacing" textLength="119.666" x="574.6821" y="1067.0352">Evaluate alert rules</text><text fill="#000000" font-family="sans-serif" font-size="13" lengthAdjust="spacing" textLength="156.8506" x="574.6821" y="1082.3457">(temperature thresholds,</text><text fill="#000000" font-family="sans-serif" font-size="13" lengthAdjust="spacing" textLength="122.2876" x="574.6821" y="1097.6563">critical error codes)</text></g><path d="M485.9771,1130.3984 L548.1157,1130.3984 L548.1157,1137.709 L538.1157,1147.709 L485.9771,1147.709 L485.9771,1130.3984" fill="#EEEEEE" style="stroke:#000000;stroke-width:1.5;"/><rect fill="none" height="77.2422" style="stroke:#000000;stroke-width:1.5;" width="381.9146" x="485.9771" y="1130.3984"/><text fill="#000000" font-family="sans-serif" font-size="13" font-weight="bold" lengthAdjust="spacing" textLength="17.1387" x="500.9771" y="1143.9668">alt</text><text fill="#000000" font-family="sans-serif" font-size="11" font-weight="bold" lengthAdjust="spacing" textLength="95.2188" x="563.1157" y="1143.0332">[Alert Triggered]</text><g class="message" data-entity-1="part3" data-entity-2="part4" id="msg13"><polygon fill="#181818" points="786.7173,1195.6406,796.7173,1199.6406,786.7173,1203.6406,790.7173,1199.6406" style="stroke:#181818;stroke-width:1;"/><line style="stroke:#181818;stroke-width:1;" x1="567.6821" x2="792.7173" y1="1199.6406" y2="1199.6406"/><text fill="#000000" font-family="sans-serif" font-size="13" lengthAdjust="spacing" textLength="116.9556" x="574.6821" y="1164.2773">INSERT alert_event</text><text fill="#000000" font-family="sans-serif" font-size="13" lengthAdjust="spacing" textLength="140.4038" x="574.6821" y="1179.5879">(machineId, alertType,</text><text fill="#000000" font-family="sans-serif" font-size="13" lengthAdjust="spacing" textLength="52.7998" x="574.6821" y="1194.8984">severity)</text></g><g class="message" data-entity-1="part3" data-entity-2="part2" id="msg14"><polygon fill="#181818" points="369.0107,1247.2617,359.0107,1251.2617,369.0107,1255.2617,365.0107,1251.2617" style="stroke:#181818;stroke-width:1;"/><line style="stroke:#181818;stroke-width:1;stroke-dasharray:2,2;" x1="363.0107" x2="556.6821" y1="1251.2617" y2="1251.2617"/><text fill="#000000" font-family="sans-serif" font-size="13" lengthAdjust="spacing" textLength="101.5942" x="375.0107" y="1231.209">TelemetryResult</text><text fill="#000000" font-family="sans-serif" font-size="13" lengthAdjust="spacing" textLength="149.0874" x="375.0107" y="1246.5195">(accepted, alertsRaised)</text></g><g class="message" data-entity-1="part2" data-entity-2="part1" id="msg15"><polygon fill="#181818" points="126.2661,1291.8828,116.2661,1295.8828,126.2661,1299.8828,122.2661,1295.8828" style="stroke:#181818;stroke-width:1;"/><line style="stroke:#181818;stroke-width:1;stroke-dasharray:2,2;" x1="120.2661" x2="347.0107" y1="1295.8828" y2="1295.8828"/><text fill="#000000" font-family="sans-serif" font-size="13" lengthAdjust="spacing" textLength="47.3599" x="132.2661" y="1275.8301">200 OK</text><text fill="#000000" font-family="sans-serif" font-size="13" lengthAdjust="spacing" textLength="98.3823" x="132.2661" y="1291.1406">{accepted: true}</text></g><line style="stroke:#000000;stroke-width:1;stroke-dasharray:2,2;" x1="40" x2="877.8916" y1="1304.8828" y2="1304.8828"/><text fill="#000000" font-family="sans-serif" font-size="11" font-weight="bold" lengthAdjust="spacing" textLength="121.9131" x="45" y="1315.5176">[Rate Limit Exceeded]</text><g class="message" data-entity-1="part3" data-entity-2="part4" id="msg16"><polygon fill="#181818" points="786.7173,1366.7695,796.7173,1370.7695,786.7173,1374.7695,790.7173,1370.7695" style="stroke:#181818;stroke-width:1;"/><line style="stroke:#181818;stroke-width:1;" x1="567.6821" x2="792.7173" y1="1370.7695" y2="1370.7695"/><text fill="#000000" font-family="sans-serif" font-size="13" lengthAdjust="spacing" textLength="106.3486" x="574.6821" y="1335.4063">INSERT audit_log</text><text fill="#000000" font-family="sans-serif" font-size="13" lengthAdjust="spacing" textLength="152.4263" x="574.6821" y="1350.7168">(RATE_LIMIT_EXCEEDED,</text><text fill="#000000" font-family="sans-serif" font-size="13" lengthAdjust="spacing" textLength="69.2656" x="574.6821" y="1366.0273">machineId)</text></g><g class="message" data-entity-1="part3" data-entity-2="part2" id="msg17"><polygon fill="#181818" points="369.0107,1396.0801,359.0107,1400.0801,369.0107,1404.0801,365.0107,1400.0801" style="stroke:#181818;stroke-width:1;"/><line style="stroke:#181818;stroke-width:1;stroke-dasharray:2,2;" x1="363.0107" x2="556.6821" y1="1400.0801" y2="1400.0801"/><text fill="#000000" font-family="sans-serif" font-size="13" lengthAdjust="spacing" textLength="120.7261" x="375.0107" y="1395.3379">RateLimitException</text></g><g class="message" data-entity-1="part2" data-entity-2="part1" id="msg18"><polygon fill="#181818" points="126.2661,1440.7012,116.2661,1444.7012,126.2661,1448.7012,122.2661,1444.7012" style="stroke:#181818;stroke-width:1;"/><line style="stroke:#181818;stroke-width:1;stroke-dasharray:2,2;" x1="120.2661" x2="347.0107" y1="1444.7012" y2="1444.7012"/><text fill="#000000" font-family="sans-serif" font-size="13" lengthAdjust="spacing" textLength="151.4995" x="132.2661" y="1424.6484">429 Too Many Requests</text><text fill="#000000" font-family="sans-serif" font-size="13" lengthAdjust="spacing" textLength="126.9341" x="132.2661" y="1439.959">(Retry-After header)</text></g><line style="stroke:#000000;stroke-width:1;stroke-dasharray:2,2;" x1="30" x2="887.8916" y1="1460.7012" y2="1460.7012"/><text fill="#000000" font-family="sans-serif" font-size="11" font-weight="bold" lengthAdjust="spacing" textLength="253.2739" x="35" y="1471.3359">[Machine Not Registered / Decommissioned]</text><g class="message" data-entity-1="part3" data-entity-2="part4" id="msg19"><polygon fill="#181818" points="786.7173,1522.5879,796.7173,1526.5879,786.7173,1530.5879,790.7173,1526.5879" style="stroke:#181818;stroke-width:1;"/><line style="stroke:#181818;stroke-width:1;" x1="567.6821" x2="792.7173" y1="1526.5879" y2="1526.5879"/><text fill="#000000" font-family="sans-serif" font-size="13" lengthAdjust="spacing" textLength="106.3486" x="574.6821" y="1491.2246">INSERT audit_log</text><text fill="#000000" font-family="sans-serif" font-size="13" lengthAdjust="spacing" textLength="207.0352" x="574.6821" y="1506.5352">(UNKNOWN_MACHINE_ATTEMPT,</text><text fill="#000000" font-family="sans-serif" font-size="13" lengthAdjust="spacing" textLength="85.1475" x="574.6821" y="1521.8457">certificateCN)</text></g><g class="message" data-entity-1="part3" data-entity-2="part2" id="msg20"><polygon fill="#181818" points="369.0107,1551.8984,359.0107,1555.8984,369.0107,1559.8984,365.0107,1555.8984" style="stroke:#181818;stroke-width:1;"/><line style="stroke:#181818;stroke-width:1;stroke-dasharray:2,2;" x1="363.0107" x2="561.6821" y1="1555.8984" y2="1555.8984"/><text fill="#000000" font-family="sans-serif" font-size="13" lengthAdjust="spacing" textLength="175.6714" x="375.0107" y="1551.1563">MachineNotFoundException</text></g><g class="message" data-entity-1="part2" data-entity-2="part1" id="msg21"><polygon fill="#181818" points="126.2661,1596.5195,116.2661,1600.5195,126.2661,1604.5195,122.2661,1600.5195" style="stroke:#181818;stroke-width:1;"/><line style="stroke:#181818;stroke-width:1;stroke-dasharray:2,2;" x1="120.2661" x2="347.0107" y1="1600.5195" y2="1600.5195"/><text fill="#000000" font-family="sans-serif" font-size="13" lengthAdjust="spacing" textLength="92.6631" x="132.2661" y="1580.4668">403 Forbidden</text><text fill="#000000" font-family="sans-serif" font-size="13" lengthAdjust="spacing" textLength="153.6704" x="132.2661" y="1595.7773">(Machine not registered)</text></g><line style="stroke:#000000;stroke-width:1;stroke-dasharray:2,2;" x1="20" x2="897.8916" y1="1616.5195" y2="1616.5195"/><text fill="#000000" font-family="sans-serif" font-size="11" font-weight="bold" lengthAdjust="spacing" textLength="79.9272" x="25" y="1627.1543">[Input Invalid]</text><g class="message" data-entity-1="part2" data-entity-2="part1" id="msg22"><polygon fill="#181818" points="126.2661,1663.0957,116.2661,1667.0957,126.2661,1671.0957,122.2661,1667.0957" style="stroke:#181818;stroke-width:1;"/><line style="stroke:#181818;stroke-width:1;stroke-dasharray:2,2;" x1="120.2661" x2="347.0107" y1="1667.0957" y2="1667.0957"/><text fill="#000000" font-family="sans-serif" font-size="13" lengthAdjust="spacing" textLength="106.1709" x="132.2661" y="1647.043">400 Bad Request</text><text fill="#000000" font-family="sans-serif" font-size="13" lengthAdjust="spacing" textLength="111.8394" x="132.2661" y="1662.3535">(validation errors)</text></g><line style="stroke:#000000;stroke-width:1;stroke-dasharray:2,2;" x1="10" x2="907.8916" y1="1683.0957" y2="1683.0957"/><text fill="#000000" font-family="sans-serif" font-size="11" font-weight="bold" lengthAdjust="spacing" textLength="166.2944" x="15" y="1693.7305">[Certificate Invalid / Missing]</text><g class="message" data-entity-1="part2" data-entity-2="part2" id="msg23"><line style="stroke:#181818;stroke-width:1;" x1="358.0107" x2="400.0107" y1="1718.3613" y2="1718.3613"/><line style="stroke:#181818;stroke-width:1;" x1="400.0107" x2="400.0107" y1="1718.3613" y2="1731.3613"/><line style="stroke:#181818;stroke-width:1;" x1="359.0107" x2="400.0107" y1="1731.3613" y2="1731.3613"/><polygon fill="#181818" points="369.0107,1727.3613,359.0107,1731.3613,369.0107,1735.3613,365.0107,1731.3613" style="stroke:#181818;stroke-width:1;"/><text fill="#000000" font-family="sans-serif" font-size="13" lengthAdjust="spacing" textLength="134.6592" x="365.0107" y="1713.6191">Log security violation</text></g><g class="message" data-entity-1="part2" data-entity-2="part1" id="msg24"><polygon fill="#181818" points="126.2661,1771.9824,116.2661,1775.9824,126.2661,1779.9824,122.2661,1775.9824" style="stroke:#181818;stroke-width:1;"/><line style="stroke:#181818;stroke-width:1;stroke-dasharray:2,2;" x1="120.2661" x2="347.0107" y1="1775.9824" y2="1775.9824"/><text fill="#000000" font-family="sans-serif" font-size="13" lengthAdjust="spacing" textLength="113.9658" x="132.2661" y="1755.9297">401 Unauthorized</text><text fill="#000000" font-family="sans-serif" font-size="13" lengthAdjust="spacing" textLength="154.7686" x="132.2661" y="1771.2402">(Invalid client certificate)</text></g><?plantuml-src hLPTR-f647tthnYbKWKIKTAqBpSIhGZuAjO5Gx6JLBfSeOqzWLNiDTrTez3gIdtjUtz0Vzlz9PrTOsCm-PBAax5tpvmvSsPsDTS9GeW9fgZb1ZonGALv9g0rn3KcSD66Rt_z0xSeOX-ruwoOr3pYAoOqd9YtN2nWnA8b5pWJBJTU80nmpIDidm1JS3jodFligLXB2D2RU2VmtP0lblegoT41-ks1zZEXPPOaA2t0xczpwOvtWDB4j3kgjzkN3aK6uk0uCTFidYc4az4c-7K8W-r_ksrmvJZTBgJXC81h9cArP8y8tQvpEuBJdsiyBk4w32S1JCP126TfaRiwqsNOcVXJeUGiyVFq7cK7DAOhb4pd4ZipeNGMFLfnrUSl7L2QFgX-5fjlA6KcpRFzf7bAnM3fwkjCVBQyeeGZ9HuXYV308wRnYyCYpTVqL5VAsJqVSdUVjAGjHw1cekz3gv-bAPNVPocsP-91PYcOo0gL8biu3aiqz7URu9ObF7PiRPuFQXVP45LnflXxJjd181mNkmsm9rQvhaCsOG-hUmdSUZRSoT-g9TNtEo2BKEqAiPAiOPLg2JbXwshmOXAAwmqrWInGJN-GCSgrXoY6vk3g4W9twFP3IClkkBjsfouKtfWBQmxepiGUsoP7ycNvRd05fqSbAAbAZ38PL-jZhAFie4dfSiSK5rnfb1Z3zn1OByAtl_-5WTiVZqPU47XZtntizcwrcHhC8K-vDlrVq-8vFPgS-qkC7a4QeCG0KTrIzWH-MIvrbd8n4zGvfOBjVHecZJkkwKkDplwIBLlJvp11gKogfFSXuPUAwFc1EmsXwkvveR5bQrbvyGiTVj3VLKUt6_6FrVlLkWSweyerrZzJzzTIlPaCUg4BwsAgpyl9DXE16qB2b9xlL60Qkk2Fxrfjcx3rJHT--N_IkbcPOV7klAZIFPeI6jmrI_96cxxFdbiC99iPI9adHebMhTAWbnBLCajYHHf4adeXOWdO6GwH6UBj9aTZse9aAFbYWSVAzmOxMb9pifZG-qwq7yBDolgGlXEhJTDiLE6tsE9WYjTcjyeJ4vX54QweKjkuQigumhWPhpx22VHsT0aNv-Sm_aHdPObn2Lhc-7MV5xKGrhgRJgy8CJwYsMjwvJ7NyoHR4EafcNm-z4PUE7T_wxlkm1sGM9M6xVSBOmXQVeRUolZkBGhyTF41mYoZKImsi3qEZSMc9jHfxu6cCYoHnIZtAUqLpmfK3dC_q_M1VaOtiOYESswFxWFHtY7OZV-9EjsVZthzQyztvxqmT4UJi7DmTBMTTucs9KsSFsQvY8zBL-lunbdzchpdFyB7JDxpcCvlog8KIP18iX9fHxgIrKfQt4GyiRPtaHV3dCCLYyi2Kg1rSTanqyVE0bN4iFWMktvzsaQWMerCcSJYbPlKC5lG3IBAJL_3ccS9gpGxIku7k14iryjCyZ_Gd5fbmERzh-rOYZN9TuZ_0G00?></g></svg>