<svg xmlns="http://www.w3.org/2000/svg" xmlns:xlink="http://www.w3.org/1999/xlink" contentStyleType="text/css" height="750px" preserveAspectRatio="none" style="width:681px;height:750px;background:#FFFFFF;" version="1.1" viewBox="0 0 681 750" width="681px" zoomAndPan="magnify"><title>Update Process (Level 2)</title><defs/><g><text fill="#000000" font-family="sans-serif" font-size="14" font-weight="bold" lengthAdjust="spacing" textLength="166.5098" x="258.6765" y="30.1074">Update Process (Level 2)</text><rect fill="#ADD8E6" height="699.209" style="stroke:#181818;stroke-width:0.5;" width="410.1982" x="238.6646" y="45.6211"/><text fill="#000000" font-family="sans-serif" font-size="13" font-weight="bold" lengthAdjust="spacing" textLength="70.7764" x="408.3755" y="59.6494">Application</text><rect fill="#FFFFFF" height="496.6758" style="stroke:#181818;stroke-width:1.0;" width="10" x="305.7437" y="156.5332"/><rect fill="#FFFFFF" height="293.5898" style="stroke:#181818;stroke-width:1.0;" width="10" x="585.4043" y="258.4063"/><rect fill="none" height="430.3848" style="stroke:#000000;stroke-width:1.5;" width="664.8628" x="10" y="215.8242"/><rect fill="none" height="317.8809" style="stroke:#000000;stroke-width:1.5;" width="644.8628" x="20" y="273.4063"/><rect fill="none" height="205.377" style="stroke:#000000;stroke-width:1.5;" width="624.8628" x="30" y="299.6973"/><line style="stroke:#181818;stroke-width:0.5;stroke-dasharray:5.0,5.0;" x1="57" x2="57" y1="123.2422" y2="663.209"/><line style="stroke:#181818;stroke-width:0.5;stroke-dasharray:5.0,5.0;" x1="310.6646" x2="310.6646" y1="123.2422" y2="663.209"/><line style="stroke:#181818;stroke-width:0.5;stroke-dasharray:5.0,5.0;" x1="589.9458" x2="589.9458" y1="123.2422" y2="663.209"/><text fill="#000000" font-family="sans-serif" font-size="14" lengthAdjust="spacing" textLength="29.5586" x="40" y="119.7285">User</text><ellipse cx="57.7793" cy="53.1211" fill="#E2E2F0" rx="8" ry="8" style="stroke:#181818;stroke-width:0.5;"/><path d="M57.7793,61.1211 L57.7793,88.1211 M44.7793,69.1211 L70.7793,69.1211 M57.7793,88.1211 L44.7793,103.1211 M57.7793,88.1211 L70.7793,103.1211 " fill="none" style="stroke:#181818;stroke-width:0.5;"/><text fill="#000000" font-family="sans-serif" font-size="14" lengthAdjust="spacing" textLength="29.5586" x="40" y="677.3164">User</text><ellipse cx="57.7793" cy="689.3301" fill="#E2E2F0" rx="8" ry="8" style="stroke:#181818;stroke-width:0.5;"/><path d="M57.7793,697.3301 L57.7793,724.3301 M44.7793,705.3301 L70.7793,705.3301 M57.7793,724.3301 L44.7793,739.3301 M57.7793,724.3301 L70.7793,739.3301 " fill="none" style="stroke:#181818;stroke-width:0.5;"/><rect fill="#E2E2F0" height="32.6211" rx="2.5" ry="2.5" style="stroke:#181818;stroke-width:0.5;" width="136.1582" x="242.6646" y="89.6211"/><text fill="#000000" font-family="sans-serif" font-size="14" lengthAdjust="spacing" textLength="122.1582" x="249.6646" y="111.7285">Controller:controller</text><rect fill="#E2E2F0" height="32.6211" rx="2.5" ry="2.5" style="stroke:#181818;stroke-width:0.5;" width="136.1582" x="242.6646" y="662.209"/><text fill="#000000" font-family="sans-serif" font-size="14" lengthAdjust="spacing" textLength="122.1582" x="249.6646" y="684.3164">Controller:controller</text><rect fill="#E2E2F0" height="32.6211" rx="2.5" ry="2.5" style="stroke:#181818;stroke-width:0.5;" width="108.917" x="535.9458" y="89.6211"/><text fill="#000000" font-family="sans-serif" font-size="14" lengthAdjust="spacing" textLength="94.917" x="542.9458" y="111.7285">Service:service</text><rect fill="#E2E2F0" height="32.6211" rx="2.5" ry="2.5" style="stroke:#181818;stroke-width:0.5;" width="108.917" x="535.9458" y="662.209"/><text fill="#000000" font-family="sans-serif" font-size="14" lengthAdjust="spacing" textLength="94.917" x="542.9458" y="684.3164">Service:service</text><rect fill="#FFFFFF" height="496.6758" style="stroke:#181818;stroke-width:1.0;" width="10" x="305.7437" y="156.5332"/><rect fill="#FFFFFF" height="293.5898" style="stroke:#181818;stroke-width:1.0;" width="10" x="585.4043" y="258.4063"/><polygon fill="#181818" points="293.7437,152.5332,303.7437,156.5332,293.7437,160.5332,297.7437,156.5332" style="stroke:#181818;stroke-width:1.0;"/><line style="stroke:#181818;stroke-width:1.0;" x1="57.7793" x2="299.7437" y1="156.5332" y2="156.5332"/><text fill="#000000" font-family="sans-serif" font-size="13" lengthAdjust="spacing" textLength="211.688" x="64.7793" y="151.2705">Request Update with Data (ID, DTO)</text><line style="stroke:#181818;stroke-width:1.0;" x1="315.7437" x2="357.7437" y1="187.8242" y2="187.8242"/><line style="stroke:#181818;stroke-width:1.0;" x1="357.7437" x2="357.7437" y1="187.8242" y2="200.8242"/><line style="stroke:#181818;stroke-width:1.0;" x1="316.7437" x2="357.7437" y1="200.8242" y2="200.8242"/><polygon fill="#181818" points="326.7437,196.8242,316.7437,200.8242,326.7437,204.8242,322.7437,200.8242" style="stroke:#181818;stroke-width:1.0;"/><text fill="#000000" font-family="sans-serif" font-size="13" lengthAdjust="spacing" textLength="150.2871" x="322.7437" y="182.5615">Validate Input Data (DTO)</text><path d="M10,215.8242 L70.1709,215.8242 L70.1709,225.1152 L60.1709,235.1152 L10,235.1152 L10,215.8242 " fill="#EEEEEE" style="stroke:#000000;stroke-width:1.5;"/><rect fill="none" height="430.3848" style="stroke:#000000;stroke-width:1.5;" width="664.8628" x="10" y="215.8242"/><text fill="#000000" font-family="sans-serif" font-size="13" font-weight="bold" lengthAdjust="spacing" textLength="15.1709" x="25" y="230.8525">alt</text><text fill="#000000" font-family="sans-serif" font-size="11" font-weight="bold" lengthAdjust="spacing" textLength="63.5454" x="85.1709" y="229.6943">[Input Valid]</text><polygon fill="#181818" points="573.4043,254.4063,583.4043,258.4063,573.4043,262.4063,577.4043,258.4063" style="stroke:#181818;stroke-width:1.0;"/><line style="stroke:#181818;stroke-width:1.0;" x1="315.7437" x2="579.4043" y1="258.4063" y2="258.4063"/><text fill="#000000" font-family="sans-serif" font-size="13" lengthAdjust="spacing" textLength="96.1035" x="322.7437" y="253.1436">Update(ID, data)</text><path d="M20,273.4063 L80.1709,273.4063 L80.1709,282.6973 L70.1709,292.6973 L20,292.6973 L20,273.4063 " fill="#EEEEEE" style="stroke:#000000;stroke-width:1.5;"/><rect fill="none" height="317.8809" style="stroke:#000000;stroke-width:1.5;" width="644.8628" x="20" y="273.4063"/><text fill="#000000" font-family="sans-serif" font-size="13" font-weight="bold" lengthAdjust="spacing" textLength="15.1709" x="35" y="288.4346">alt</text><text fill="#000000" font-family="sans-serif" font-size="11" font-weight="bold" lengthAdjust="spacing" textLength="78.2085" x="95.1709" y="287.2764">[Object Found]</text><path d="M30,299.6973 L90.1709,299.6973 L90.1709,308.9883 L80.1709,318.9883 L30,318.9883 L30,299.6973 " fill="#EEEEEE" style="stroke:#000000;stroke-width:1.5;"/><rect fill="none" height="205.377" style="stroke:#000000;stroke-width:1.5;" width="624.8628" x="30" y="299.6973"/><text fill="#000000" font-family="sans-serif" font-size="13" font-weight="bold" lengthAdjust="spacing" textLength="15.1709" x="45" y="314.7256">alt</text><text fill="#000000" font-family="sans-serif" font-size="11" font-weight="bold" lengthAdjust="spacing" textLength="117.9922" x="105.1709" y="313.5674">[Business Rules Pass]</text><polygon fill="#181818" points="326.7437,338.2793,316.7437,342.2793,326.7437,346.2793,322.7437,342.2793" style="stroke:#181818;stroke-width:1.0;"/><line style="stroke:#181818;stroke-width:1.0;stroke-dasharray:2.0,2.0;" x1="320.7437" x2="584.4043" y1="342.2793" y2="342.2793"/><text fill="#000000" font-family="sans-serif" font-size="13" lengthAdjust="spacing" textLength="245.6606" x="332.7437" y="337.0166">Update Successful (Domain Model Object)</text><line style="stroke:#181818;stroke-width:1.0;" x1="315.7437" x2="357.7437" y1="373.5703" y2="373.5703"/><line style="stroke:#181818;stroke-width:1.0;" x1="357.7437" x2="357.7437" y1="373.5703" y2="386.5703"/><line style="stroke:#181818;stroke-width:1.0;" x1="316.7437" x2="357.7437" y1="386.5703" y2="386.5703"/><polygon fill="#181818" points="326.7437,382.5703,316.7437,386.5703,326.7437,390.5703,322.7437,386.5703" style="stroke:#181818;stroke-width:1.0;"/><text fill="#000000" font-family="sans-serif" font-size="13" lengthAdjust="spacing" textLength="158.2217" x="322.7437" y="368.3076">Map Domain Model to DTO</text><polygon fill="#181818" points="68.7793,413.8613,58.7793,417.8613,68.7793,421.8613,64.7793,417.8613" style="stroke:#181818;stroke-width:1.0;"/><line style="stroke:#181818;stroke-width:1.0;stroke-dasharray:2.0,2.0;" x1="62.7793" x2="304.7437" y1="417.8613" y2="417.8613"/><text fill="#000000" font-family="sans-serif" font-size="13" lengthAdjust="spacing" textLength="197.9644" x="74.7793" y="412.5986">Success Message (Updated DTO)</text><line style="stroke:#000000;stroke-width:1.0;stroke-dasharray:2.0,2.0;" x1="30" x2="654.8628" y1="426.8613" y2="426.8613"/><text fill="#000000" font-family="sans-serif" font-size="11" font-weight="bold" lengthAdjust="spacing" textLength="111.2515" x="35" y="438.7314">[Business Rules Fail]</text><polygon fill="#181818" points="326.7437,461.7832,316.7437,465.7832,326.7437,469.7832,322.7437,465.7832" style="stroke:#181818;stroke-width:1.0;"/><line style="stroke:#181818;stroke-width:1.0;stroke-dasharray:2.0,2.0;" x1="320.7437" x2="584.4043" y1="465.7832" y2="465.7832"/><text fill="#000000" font-family="sans-serif" font-size="13" lengthAdjust="spacing" textLength="136.5762" x="332.7437" y="460.5205">Business Rule Violation</text><polygon fill="#181818" points="68.7793,493.0742,58.7793,497.0742,68.7793,501.0742,64.7793,497.0742" style="stroke:#181818;stroke-width:1.0;"/><line style="stroke:#181818;stroke-width:1.0;stroke-dasharray:2.0,2.0;" x1="62.7793" x2="304.7437" y1="497.0742" y2="497.0742"/><text fill="#000000" font-family="sans-serif" font-size="13" lengthAdjust="spacing" textLength="223.9644" x="74.7793" y="491.8115">Error Message (Business Rule Failure)</text><line style="stroke:#000000;stroke-width:1.0;stroke-dasharray:2.0,2.0;" x1="20" x2="664.8628" y1="513.0742" y2="513.0742"/><text fill="#000000" font-family="sans-serif" font-size="11" font-weight="bold" lengthAdjust="spacing" textLength="99.5908" x="25" y="524.9443">[Object Not Found]</text><polygon fill="#181818" points="326.7437,547.9961,316.7437,551.9961,326.7437,555.9961,322.7437,551.9961" style="stroke:#181818;stroke-width:1.0;"/><line style="stroke:#181818;stroke-width:1.0;stroke-dasharray:2.0,2.0;" x1="320.7437" x2="589.4043" y1="551.9961" y2="551.9961"/><text fill="#000000" font-family="sans-serif" font-size="13" lengthAdjust="spacing" textLength="101.8862" x="332.7437" y="546.7334">Object Not Found</text><polygon fill="#181818" points="68.7793,579.2871,58.7793,583.2871,68.7793,587.2871,64.7793,583.2871" style="stroke:#181818;stroke-width:1.0;"/><line style="stroke:#181818;stroke-width:1.0;stroke-dasharray:2.0,2.0;" x1="62.7793" x2="304.7437" y1="583.2871" y2="583.2871"/><text fill="#000000" font-family="sans-serif" font-size="13" lengthAdjust="spacing" textLength="199.4053" x="74.7793" y="578.0244">Error Message (Object Not Found)</text><line style="stroke:#000000;stroke-width:1.0;stroke-dasharray:2.0,2.0;" x1="10" x2="674.8628" y1="599.2871" y2="599.2871"/><text fill="#000000" font-family="sans-serif" font-size="11" font-weight="bold" lengthAdjust="spacing" textLength="72.1016" x="15" y="611.1572">[Input Invalid]</text><polygon fill="#181818" points="68.7793,634.209,58.7793,638.209,68.7793,642.209,64.7793,638.209" style="stroke:#181818;stroke-width:1.0;"/><line style="stroke:#181818;stroke-width:1.0;stroke-dasharray:2.0,2.0;" x1="62.7793" x2="304.7437" y1="638.209" y2="638.209"/><text fill="#000000" font-family="sans-serif" font-size="13" lengthAdjust="spacing" textLength="167.6226" x="74.7793" y="632.9463">Error Message (Invalid Input)</text><!--SRC=[ZPFBRi8m44Nt_efHkY5IsNJ9eb8fHKA2Wg2mDyaKNBbswWVjvzUlG98IbIoIaSTpVQvdOfZX2Dkgf0PXfMI1MiDWZYVay90JGWiZ5MHRZIe3gi47XEpb3sHFLSLPGGsJ8eExEJiSpPXR9E2UYYh32bPHOI1xbi8eoJcgKN4EWzebyxTgW-h42Xpf-0txqnf1KO9Z8CJZmF2n8JI2DNvPrAOszStC4IRKK1ZC9lSmULlctXKx-MG3u19s1NUKio0r4vKrIIlgS9CMmvvWegrJkqWq0S45D0zxpnoriR3eH9Vx3omCJAKLKRLEZArcmlTeRJbgM56jptd_924OTZoaozZOmdVutNBdG7vI9c0XIzVhU63Uqkg_aGMje5LkfB_OtcfNxZirgi-7XNlH0y8WSfMnBNKfSerTfrFA-4rEMtMmOvA74VsVxKKfD-fdihQEFzugR32cnWJMrAvNsMrP7sHlGObNP-9MwAvkvFMiWJFEwaoShavhdsZQ7wjp__EH1kP5uHS0]--></g></svg>