<svg xmlns="http://www.w3.org/2000/svg" xmlns:xlink="http://www.w3.org/1999/xlink" contentStyleType="text/css" height="1126px" preserveAspectRatio="none" style="width:1319px;height:1126px;background:#FFFFFF;" version="1.1" viewBox="0 0 1319 1126" width="1319px" zoomAndPan="magnify"><title>Update Process (Level 3)</title><defs/><g><text fill="#000000" font-family="sans-serif" font-size="14" font-weight="bold" lengthAdjust="spacing" textLength="166.5098" x="577.3049" y="30.1074">Update Process (Level 3)</text><rect fill="#ADD8E6" height="1074.7012" style="stroke:#181818;stroke-width:0.5;" width="673.9263" x="238.6646" y="45.6211"/><text fill="#000000" font-family="sans-serif" font-size="13" font-weight="bold" lengthAdjust="spacing" textLength="70.7764" x="540.2395" y="59.6494">Application</text><rect fill="#90EE90" height="1074.7012" style="stroke:#181818;stroke-width:0.5;" width="104.2617" x="1021.1411" y="45.6211"/><text fill="#000000" font-family="sans-serif" font-size="13" font-weight="bold" lengthAdjust="spacing" textLength="47.6709" x="1049.4365" y="59.6494">Domain</text><rect fill="#FFFFFF" height="872.168" style="stroke:#181818;stroke-width:1.0;" width="10" x="305.7437" y="156.5332"/><rect fill="#FFFFFF" height="669.082" style="stroke:#181818;stroke-width:1.0;" width="10" x="585.4043" y="258.4063"/><rect fill="#FFFFFF" height="156.4551" style="stroke:#181818;stroke-width:1.0;" width="10" x="830.4531" y="289.6973"/><rect fill="#FFFFFF" height="93.873" style="stroke:#181818;stroke-width:1.0;" width="10" x="830.4531" y="592.6074"/><rect fill="#FFFFFF" height="31.291" style="stroke:#181818;stroke-width:1.0;" width="10" x="1068.272" y="383.5703"/><rect fill="#FFFFFF" height="31.291" style="stroke:#181818;stroke-width:1.0;" width="10" x="1068.272" y="503.7344"/><rect fill="#FFFFFF" height="31.291" style="stroke:#181818;stroke-width:1.0;" width="10" x="1201.7612" y="320.9883"/><rect fill="#FFFFFF" height="31.291" style="stroke:#181818;stroke-width:1.0;" width="10" x="1201.7612" y="623.8984"/><rect fill="none" height="805.877" style="stroke:#000000;stroke-width:1.5;" width="1302.1196" x="10" y="215.8242"/><rect fill="none" height="505.627" style="stroke:#000000;stroke-width:1.5;" width="1282.1196" x="20" y="461.1523"/><rect fill="none" height="330.541" style="stroke:#000000;stroke-width:1.5;" width="1262.1196" x="30" y="550.0254"/><line style="stroke:#181818;stroke-width:0.5;stroke-dasharray:5.0,5.0;" x1="57" x2="57" y1="123.2422" y2="1038.7012"/><line style="stroke:#181818;stroke-width:0.5;stroke-dasharray:5.0,5.0;" x1="310.6646" x2="310.6646" y1="123.2422" y2="1038.7012"/><line style="stroke:#181818;stroke-width:0.5;stroke-dasharray:5.0,5.0;" x1="589.9458" x2="589.9458" y1="123.2422" y2="1038.7012"/><line style="stroke:#181818;stroke-width:0.5;stroke-dasharray:5.0,5.0;" x1="835.3154" x2="835.3154" y1="123.2422" y2="1038.7012"/><line style="stroke:#181818;stroke-width:0.5;stroke-dasharray:5.0,5.0;" x1="1073.1411" x2="1073.1411" y1="123.2422" y2="1038.7012"/><line style="stroke:#181818;stroke-width:0.5;stroke-dasharray:5.0,5.0;" x1="1206.4028" x2="1206.4028" y1="123.2422" y2="1038.7012"/><text fill="#000000" font-family="sans-serif" font-size="14" lengthAdjust="spacing" textLength="29.5586" x="40" y="119.7285">User</text><ellipse cx="57.7793" cy="53.1211" fill="#E2E2F0" rx="8" ry="8" style="stroke:#181818;stroke-width:0.5;"/><path d="M57.7793,61.1211 L57.7793,88.1211 M44.7793,69.1211 L70.7793,69.1211 M57.7793,88.1211 L44.7793,103.1211 M57.7793,88.1211 L70.7793,103.1211 " fill="none" style="stroke:#181818;stroke-width:0.5;"/><text fill="#000000" font-family="sans-serif" font-size="14" lengthAdjust="spacing" textLength="29.5586" x="40" y="1052.8086">User</text><ellipse cx="57.7793" cy="1064.8223" fill="#E2E2F0" rx="8" ry="8" style="stroke:#181818;stroke-width:0.5;"/><path d="M57.7793,1072.8223 L57.7793,1099.8223 M44.7793,1080.8223 L70.7793,1080.8223 M57.7793,1099.8223 L44.7793,1114.8223 M57.7793,1099.8223 L70.7793,1114.8223 " fill="none" style="stroke:#181818;stroke-width:0.5;"/><rect fill="#E2E2F0" height="32.6211" rx="2.5" ry="2.5" style="stroke:#181818;stroke-width:0.5;" width="136.1582" x="242.6646" y="89.6211"/><text fill="#000000" font-family="sans-serif" font-size="14" lengthAdjust="spacing" textLength="122.1582" x="249.6646" y="111.7285">Controller:controller</text><rect fill="#E2E2F0" height="32.6211" rx="2.5" ry="2.5" style="stroke:#181818;stroke-width:0.5;" width="136.1582" x="242.6646" y="1037.7012"/><text fill="#000000" font-family="sans-serif" font-size="14" lengthAdjust="spacing" textLength="122.1582" x="249.6646" y="1059.8086">Controller:controller</text><rect fill="#E2E2F0" height="32.6211" rx="2.5" ry="2.5" style="stroke:#181818;stroke-width:0.5;" width="108.917" x="535.9458" y="89.6211"/><text fill="#000000" font-family="sans-serif" font-size="14" lengthAdjust="spacing" textLength="94.917" x="542.9458" y="111.7285">Service:service</text><rect fill="#E2E2F0" height="32.6211" rx="2.5" ry="2.5" style="stroke:#181818;stroke-width:0.5;" width="108.917" x="535.9458" y="1037.7012"/><text fill="#000000" font-family="sans-serif" font-size="14" lengthAdjust="spacing" textLength="94.917" x="542.9458" y="1059.8086">Service:service</text><rect fill="#E2E2F0" height="32.6211" rx="2.5" ry="2.5" style="stroke:#181818;stroke-width:0.5;" width="146.2754" x="762.3154" y="89.6211"/><text fill="#000000" font-family="sans-serif" font-size="14" lengthAdjust="spacing" textLength="132.2754" x="769.3154" y="111.7285">Repository:repository</text><rect fill="#E2E2F0" height="32.6211" rx="2.5" ry="2.5" style="stroke:#181818;stroke-width:0.5;" width="146.2754" x="762.3154" y="1037.7012"/><text fill="#000000" font-family="sans-serif" font-size="14" lengthAdjust="spacing" textLength="132.2754" x="769.3154" y="1059.8086">Repository:repository</text><text fill="#000000" font-family="sans-serif" font-size="14" lengthAdjust="spacing" textLength="90.2617" x="1025.1411" y="119.7285">Domain Model</text><ellipse cx="1073.272" cy="88.6211" fill="#E2E2F0" rx="12" ry="12" style="stroke:#181818;stroke-width:0.5;"/><line style="stroke:#181818;stroke-width:0.5;" x1="1061.272" x2="1085.272" y1="102.6211" y2="102.6211"/><text fill="#000000" font-family="sans-serif" font-size="14" lengthAdjust="spacing" textLength="90.2617" x="1025.1411" y="1052.8086">Domain Model</text><ellipse cx="1073.272" cy="1072.3223" fill="#E2E2F0" rx="12" ry="12" style="stroke:#181818;stroke-width:0.5;"/><line style="stroke:#181818;stroke-width:0.5;" x1="1061.272" x2="1085.272" y1="1086.3223" y2="1086.3223"/><text fill="#000000" font-family="sans-serif" font-size="14" lengthAdjust="spacing" textLength="144.7168" x="1131.4028" y="119.7285">Persistence Layer (DB)</text><path d="M1188.7612,68.6211 C1188.7612,58.6211 1206.7612,58.6211 1206.7612,58.6211 C1206.7612,58.6211 1224.7612,58.6211 1224.7612,68.6211 L1224.7612,94.6211 C1224.7612,104.6211 1206.7612,104.6211 1206.7612,104.6211 C1206.7612,104.6211 1188.7612,104.6211 1188.7612,94.6211 L1188.7612,68.6211 " fill="#E2E2F0" style="stroke:#181818;stroke-width:1.5;"/><path d="M1188.7612,68.6211 C1188.7612,78.6211 1206.7612,78.6211 1206.7612,78.6211 C1206.7612,78.6211 1224.7612,78.6211 1224.7612,68.6211 " fill="none" style="stroke:#181818;stroke-width:1.5;"/><text fill="#000000" font-family="sans-serif" font-size="14" lengthAdjust="spacing" textLength="144.7168" x="1131.4028" y="1052.8086">Persistence Layer (DB)</text><path d="M1188.7612,1066.3223 C1188.7612,1056.3223 1206.7612,1056.3223 1206.7612,1056.3223 C1206.7612,1056.3223 1224.7612,1056.3223 1224.7612,1066.3223 L1224.7612,1092.3223 C1224.7612,1102.3223 1206.7612,1102.3223 1206.7612,1102.3223 C1206.7612,1102.3223 1188.7612,1102.3223 1188.7612,1092.3223 L1188.7612,1066.3223 " fill="#E2E2F0" style="stroke:#181818;stroke-width:1.5;"/><path d="M1188.7612,1066.3223 C1188.7612,1076.3223 1206.7612,1076.3223 1206.7612,1076.3223 C1206.7612,1076.3223 1224.7612,1076.3223 1224.7612,1066.3223 " fill="none" style="stroke:#181818;stroke-width:1.5;"/><rect fill="#FFFFFF" height="872.168" style="stroke:#181818;stroke-width:1.0;" width="10" x="305.7437" y="156.5332"/><rect fill="#FFFFFF" height="669.082" style="stroke:#181818;stroke-width:1.0;" width="10" x="585.4043" y="258.4063"/><rect fill="#FFFFFF" height="156.4551" style="stroke:#181818;stroke-width:1.0;" width="10" x="830.4531" y="289.6973"/><rect fill="#FFFFFF" height="93.873" style="stroke:#181818;stroke-width:1.0;" width="10" x="830.4531" y="592.6074"/><rect fill="#FFFFFF" height="31.291" style="stroke:#181818;stroke-width:1.0;" width="10" x="1068.272" y="383.5703"/><rect fill="#FFFFFF" height="31.291" style="stroke:#181818;stroke-width:1.0;" width="10" x="1068.272" y="503.7344"/><rect fill="#FFFFFF" height="31.291" style="stroke:#181818;stroke-width:1.0;" width="10" x="1201.7612" y="320.9883"/><rect fill="#FFFFFF" height="31.291" style="stroke:#181818;stroke-width:1.0;" width="10" x="1201.7612" y="623.8984"/><polygon fill="#181818" points="293.7437,152.5332,303.7437,156.5332,293.7437,160.5332,297.7437,156.5332" style="stroke:#181818;stroke-width:1.0;"/><line style="stroke:#181818;stroke-width:1.0;" x1="57.7793" x2="299.7437" y1="156.5332" y2="156.5332"/><text fill="#000000" font-family="sans-serif" font-size="13" lengthAdjust="spacing" textLength="211.688" x="64.7793" y="151.2705">Request Update with Data (ID, DTO)</text><line style="stroke:#181818;stroke-width:1.0;" x1="315.7437" x2="357.7437" y1="187.8242" y2="187.8242"/><line style="stroke:#181818;stroke-width:1.0;" x1="357.7437" x2="357.7437" y1="187.8242" y2="200.8242"/><line style="stroke:#181818;stroke-width:1.0;" x1="316.7437" x2="357.7437" y1="200.8242" y2="200.8242"/><polygon fill="#181818" points="326.7437,196.8242,316.7437,200.8242,326.7437,204.8242,322.7437,200.8242" style="stroke:#181818;stroke-width:1.0;"/><text fill="#000000" font-family="sans-serif" font-size="13" lengthAdjust="spacing" textLength="150.2871" x="322.7437" y="182.5615">Validate Input Data (DTO)</text><path d="M10,215.8242 L70.1709,215.8242 L70.1709,225.1152 L60.1709,235.1152 L10,235.1152 L10,215.8242 " fill="#EEEEEE" style="stroke:#000000;stroke-width:1.5;"/><rect fill="none" height="805.877" style="stroke:#000000;stroke-width:1.5;" width="1302.1196" x="10" y="215.8242"/><text fill="#000000" font-family="sans-serif" font-size="13" font-weight="bold" lengthAdjust="spacing" textLength="15.1709" x="25" y="230.8525">alt</text><text fill="#000000" font-family="sans-serif" font-size="11" font-weight="bold" lengthAdjust="spacing" textLength="63.5454" x="85.1709" y="229.6943">[Input Valid]</text><polygon fill="#181818" points="573.4043,254.4063,583.4043,258.4063,573.4043,262.4063,577.4043,258.4063" style="stroke:#181818;stroke-width:1.0;"/><line style="stroke:#181818;stroke-width:1.0;" x1="315.7437" x2="579.4043" y1="258.4063" y2="258.4063"/><text fill="#000000" font-family="sans-serif" font-size="13" lengthAdjust="spacing" textLength="151.7534" x="322.7437" y="253.1436">Delegate Update(ID, data)</text><polygon fill="#181818" points="818.4531,285.6973,828.4531,289.6973,818.4531,293.6973,822.4531,289.6973" style="stroke:#181818;stroke-width:1.0;"/><line style="stroke:#181818;stroke-width:1.0;" x1="595.4043" x2="824.4531" y1="289.6973" y2="289.6973"/><text fill="#000000" font-family="sans-serif" font-size="13" lengthAdjust="spacing" textLength="137.2617" x="602.4043" y="284.4346">Find Existing Object(ID)</text><polygon fill="#181818" points="1189.7612,316.9883,1199.7612,320.9883,1189.7612,324.9883,1193.7612,320.9883" style="stroke:#181818;stroke-width:1.0;"/><line style="stroke:#181818;stroke-width:1.0;" x1="840.4531" x2="1195.7612" y1="320.9883" y2="320.9883"/><text fill="#000000" font-family="sans-serif" font-size="13" lengthAdjust="spacing" textLength="115.6035" x="847.4531" y="315.7256">Query Existing Data</text><polygon fill="#181818" points="851.4531,348.2793,841.4531,352.2793,851.4531,356.2793,847.4531,352.2793" style="stroke:#181818;stroke-width:1.0;"/><line style="stroke:#181818;stroke-width:1.0;stroke-dasharray:2.0,2.0;" x1="845.4531" x2="1205.7612" y1="352.2793" y2="352.2793"/><text fill="#000000" font-family="sans-serif" font-size="13" lengthAdjust="spacing" textLength="106.209" x="857.4531" y="347.0166">Existing Raw Data</text><polygon fill="#181818" points="1056.272,379.5703,1066.272,383.5703,1056.272,387.5703,1060.272,383.5703" style="stroke:#181818;stroke-width:1.0;"/><line style="stroke:#181818;stroke-width:1.0;" x1="840.4531" x2="1062.272" y1="383.5703" y2="383.5703"/><text fill="#000000" font-family="sans-serif" font-size="13" lengthAdjust="spacing" textLength="208.8188" x="847.4531" y="378.3076">Reconstitute Existing Domain Model</text><polygon fill="#181818" points="851.4531,410.8613,841.4531,414.8613,851.4531,418.8613,847.4531,414.8613" style="stroke:#181818;stroke-width:1.0;"/><line style="stroke:#181818;stroke-width:1.0;stroke-dasharray:2.0,2.0;" x1="845.4531" x2="1072.272" y1="414.8613" y2="414.8613"/><text fill="#000000" font-family="sans-serif" font-size="13" lengthAdjust="spacing" textLength="174.1289" x="857.4531" y="409.5986">Existing Domain Model Object</text><polygon fill="#181818" points="606.4043,442.1523,596.4043,446.1523,606.4043,450.1523,602.4043,446.1523" style="stroke:#181818;stroke-width:1.0;"/><line style="stroke:#181818;stroke-width:1.0;stroke-dasharray:2.0,2.0;" x1="600.4043" x2="834.4531" y1="446.1523" y2="446.1523"/><text fill="#000000" font-family="sans-serif" font-size="13" lengthAdjust="spacing" textLength="174.1289" x="612.4043" y="440.8896">Existing Domain Model Object</text><path d="M20,461.1523 L80.1709,461.1523 L80.1709,470.4434 L70.1709,480.4434 L20,480.4434 L20,461.1523 " fill="#EEEEEE" style="stroke:#000000;stroke-width:1.5;"/><rect fill="none" height="505.627" style="stroke:#000000;stroke-width:1.5;" width="1282.1196" x="20" y="461.1523"/><text fill="#000000" font-family="sans-serif" font-size="13" font-weight="bold" lengthAdjust="spacing" textLength="15.1709" x="35" y="476.1807">alt</text><text fill="#000000" font-family="sans-serif" font-size="11" font-weight="bold" lengthAdjust="spacing" textLength="78.2085" x="95.1709" y="475.0225">[Object Found]</text><polygon fill="#181818" points="1056.272,499.7344,1066.272,503.7344,1056.272,507.7344,1060.272,503.7344" style="stroke:#181818;stroke-width:1.0;"/><line style="stroke:#181818;stroke-width:1.0;" x1="595.4043" x2="1062.272" y1="503.7344" y2="503.7344"/><text fill="#000000" font-family="sans-serif" font-size="13" lengthAdjust="spacing" textLength="240.6333" x="602.4043" y="498.4717">Apply Updates &amp; Validate Business Rules</text><polygon fill="#181818" points="606.4043,531.0254,596.4043,535.0254,606.4043,539.0254,602.4043,535.0254" style="stroke:#181818;stroke-width:1.0;"/><line style="stroke:#181818;stroke-width:1.0;stroke-dasharray:2.0,2.0;" x1="600.4043" x2="1072.272" y1="535.0254" y2="535.0254"/><text fill="#000000" font-family="sans-serif" font-size="13" lengthAdjust="spacing" textLength="198.7261" x="612.4043" y="529.7627">Updated Object / Validation Result</text><path d="M30,550.0254 L90.1709,550.0254 L90.1709,559.3164 L80.1709,569.3164 L30,569.3164 L30,550.0254 " fill="#EEEEEE" style="stroke:#000000;stroke-width:1.5;"/><rect fill="none" height="330.541" style="stroke:#000000;stroke-width:1.5;" width="1262.1196" x="30" y="550.0254"/><text fill="#000000" font-family="sans-serif" font-size="13" font-weight="bold" lengthAdjust="spacing" textLength="15.1709" x="45" y="565.0537">alt</text><text fill="#000000" font-family="sans-serif" font-size="11" font-weight="bold" lengthAdjust="spacing" textLength="117.9922" x="105.1709" y="563.8955">[Business Rules Pass]</text><polygon fill="#181818" points="818.4531,588.6074,828.4531,592.6074,818.4531,596.6074,822.4531,592.6074" style="stroke:#181818;stroke-width:1.0;"/><line style="stroke:#181818;stroke-width:1.0;" x1="595.4043" x2="824.4531" y1="592.6074" y2="592.6074"/><text fill="#000000" font-family="sans-serif" font-size="13" lengthAdjust="spacing" textLength="216.0488" x="602.4043" y="587.3447">Save(Updated Domain Model Object)</text><polygon fill="#181818" points="1189.7612,619.8984,1199.7612,623.8984,1189.7612,627.8984,1193.7612,623.8984" style="stroke:#181818;stroke-width:1.0;"/><line style="stroke:#181818;stroke-width:1.0;" x1="840.4531" x2="1195.7612" y1="623.8984" y2="623.8984"/><text fill="#000000" font-family="sans-serif" font-size="13" lengthAdjust="spacing" textLength="134.4053" x="847.4531" y="618.6357">Update Persistent Data</text><polygon fill="#181818" points="851.4531,651.1895,841.4531,655.1895,851.4531,659.1895,847.4531,655.1895" style="stroke:#181818;stroke-width:1.0;"/><line style="stroke:#181818;stroke-width:1.0;stroke-dasharray:2.0,2.0;" x1="845.4531" x2="1205.7612" y1="655.1895" y2="655.1895"/><text fill="#000000" font-family="sans-serif" font-size="13" lengthAdjust="spacing" textLength="80.2217" x="857.4531" y="649.9268">Data Updated</text><polygon fill="#181818" points="606.4043,682.4805,596.4043,686.4805,606.4043,690.4805,602.4043,686.4805" style="stroke:#181818;stroke-width:1.0;"/><line style="stroke:#181818;stroke-width:1.0;stroke-dasharray:2.0,2.0;" x1="600.4043" x2="834.4531" y1="686.4805" y2="686.4805"/><text fill="#000000" font-family="sans-serif" font-size="13" lengthAdjust="spacing" textLength="90.3335" x="612.4043" y="681.2178">Updated Object</text><polygon fill="#181818" points="326.7437,713.7715,316.7437,717.7715,326.7437,721.7715,322.7437,717.7715" style="stroke:#181818;stroke-width:1.0;"/><line style="stroke:#181818;stroke-width:1.0;stroke-dasharray:2.0,2.0;" x1="320.7437" x2="584.4043" y1="717.7715" y2="717.7715"/><text fill="#000000" font-family="sans-serif" font-size="13" lengthAdjust="spacing" textLength="245.6606" x="332.7437" y="712.5088">Update Successful (Domain Model Object)</text><line style="stroke:#181818;stroke-width:1.0;" x1="315.7437" x2="357.7437" y1="749.0625" y2="749.0625"/><line style="stroke:#181818;stroke-width:1.0;" x1="357.7437" x2="357.7437" y1="749.0625" y2="762.0625"/><line style="stroke:#181818;stroke-width:1.0;" x1="316.7437" x2="357.7437" y1="762.0625" y2="762.0625"/><polygon fill="#181818" points="326.7437,758.0625,316.7437,762.0625,326.7437,766.0625,322.7437,762.0625" style="stroke:#181818;stroke-width:1.0;"/><text fill="#000000" font-family="sans-serif" font-size="13" lengthAdjust="spacing" textLength="158.2217" x="322.7437" y="743.7998">Map Domain Model to DTO</text><polygon fill="#181818" points="68.7793,789.3535,58.7793,793.3535,68.7793,797.3535,64.7793,793.3535" style="stroke:#181818;stroke-width:1.0;"/><line style="stroke:#181818;stroke-width:1.0;stroke-dasharray:2.0,2.0;" x1="62.7793" x2="304.7437" y1="793.3535" y2="793.3535"/><text fill="#000000" font-family="sans-serif" font-size="13" lengthAdjust="spacing" textLength="197.9644" x="74.7793" y="788.0908">Success Message (Updated DTO)</text><line style="stroke:#000000;stroke-width:1.0;stroke-dasharray:2.0,2.0;" x1="30" x2="1292.1196" y1="802.3535" y2="802.3535"/><text fill="#000000" font-family="sans-serif" font-size="11" font-weight="bold" lengthAdjust="spacing" textLength="111.2515" x="35" y="814.2236">[Business Rules Fail]</text><polygon fill="#181818" points="326.7437,837.2754,316.7437,841.2754,326.7437,845.2754,322.7437,841.2754" style="stroke:#181818;stroke-width:1.0;"/><line style="stroke:#181818;stroke-width:1.0;stroke-dasharray:2.0,2.0;" x1="320.7437" x2="584.4043" y1="841.2754" y2="841.2754"/><text fill="#000000" font-family="sans-serif" font-size="13" lengthAdjust="spacing" textLength="136.5762" x="332.7437" y="836.0127">Business Rule Violation</text><polygon fill="#181818" points="68.7793,868.5664,58.7793,872.5664,68.7793,876.5664,64.7793,872.5664" style="stroke:#181818;stroke-width:1.0;"/><line style="stroke:#181818;stroke-width:1.0;stroke-dasharray:2.0,2.0;" x1="62.7793" x2="304.7437" y1="872.5664" y2="872.5664"/><text fill="#000000" font-family="sans-serif" font-size="13" lengthAdjust="spacing" textLength="223.9644" x="74.7793" y="867.3037">Error Message (Business Rule Failure)</text><line style="stroke:#000000;stroke-width:1.0;stroke-dasharray:2.0,2.0;" x1="20" x2="1302.1196" y1="888.5664" y2="888.5664"/><text fill="#000000" font-family="sans-serif" font-size="11" font-weight="bold" lengthAdjust="spacing" textLength="99.5908" x="25" y="900.4365">[Object Not Found]</text><polygon fill="#181818" points="326.7437,923.4883,316.7437,927.4883,326.7437,931.4883,322.7437,927.4883" style="stroke:#181818;stroke-width:1.0;"/><line style="stroke:#181818;stroke-width:1.0;stroke-dasharray:2.0,2.0;" x1="320.7437" x2="589.4043" y1="927.4883" y2="927.4883"/><text fill="#000000" font-family="sans-serif" font-size="13" lengthAdjust="spacing" textLength="101.8862" x="332.7437" y="922.2256">Object Not Found</text><polygon fill="#181818" points="68.7793,954.7793,58.7793,958.7793,68.7793,962.7793,64.7793,958.7793" style="stroke:#181818;stroke-width:1.0;"/><line style="stroke:#181818;stroke-width:1.0;stroke-dasharray:2.0,2.0;" x1="62.7793" x2="304.7437" y1="958.7793" y2="958.7793"/><text fill="#000000" font-family="sans-serif" font-size="13" lengthAdjust="spacing" textLength="199.4053" x="74.7793" y="953.5166">Error Message (Object Not Found)</text><line style="stroke:#000000;stroke-width:1.0;stroke-dasharray:2.0,2.0;" x1="10" x2="1312.1196" y1="974.7793" y2="974.7793"/><text fill="#000000" font-family="sans-serif" font-size="11" font-weight="bold" lengthAdjust="spacing" textLength="72.1016" x="15" y="986.6494">[Input Invalid]</text><polygon fill="#181818" points="68.7793,1009.7012,58.7793,1013.7012,68.7793,1017.7012,64.7793,1013.7012" style="stroke:#181818;stroke-width:1.0;"/><line style="stroke:#181818;stroke-width:1.0;stroke-dasharray:2.0,2.0;" x1="62.7793" x2="304.7437" y1="1013.7012" y2="1013.7012"/><text fill="#000000" font-family="sans-serif" font-size="13" lengthAdjust="spacing" textLength="167.6226" x="74.7793" y="1008.4385">Error Message (Invalid Input)</text><!--SRC=[bLLDRzim3BtxLn0UCCJ0YXrsys70F3T3W6JDahLtnU5I3PhbINBQ_Fj9icN9SjnsFYJw89yU7obAKSKGxfiZKGXRmIkK4XPhF2E3JrcIa4fn0UczH942aM06INBWpv1-QHf6Aw8ehrDujwQdHrMm5XFGNqE4eXLjIAqW_Sfh9JXZAF9g65eqlpFrsgCuqmfpsVrR-tvjQhp3XakggLvoCGojYzz9i3w2PjxJB_aVGWVctmHYRN6nLbHTt3vi-16PHUeMxDn3QTt8WKY4T8j2KgcmhX3Mv8825cMHTPv5aXZXuEPp47AkkVrjKIed_nDLZr1gG5YioWzG_hpBZFxqR3O3gVmm1dmWZ5geLTsqgiVgS9Zg5wsDZNICu_I64XcU34X7ot8nOMRMQI0Kvg8V6vWW4x2aMgRRPwqAhKzmT_YDbT9m4L2G8RFkfmQkB7BuqQAU33WcgZ62rjVCom9k8WQ3quuyUSSZngxHeJxJ9acwQ3M8QhMv9n5KHqGcA1FBoi_dwOLmlL0JfX5kI3bCt_zWHjAR8kaCOSdRkgkIAByZRKmBkFHr8k6zhx-YbRGshMJNCfG3pcmmruGQ8khmZuxQHtUCRZmw0jaoDM2ye9SBS4mDjaHwVY_KyfwSSU6ON94s6u7CAUo-QP6x5kowYFBbEbMl6ArVgNjxytks8zjfwL-ZDA_-7DXCd8EOKQFgezstbNbmVhLCjwbND1tXphV03Md6wL7STD9PR-rkMdFkkC16_v0JWa-swP_E5PcCgnkMXB8tHJtoWmVAcItYv7LojqBePtYWDWOovxS20vBzrRLa-rlpdSzUweZbh4EGxh3vlvLqZ9ibZglbsRrEg_fyzNsQ0-tjE-_ClCj9GDCZ_0C0]--></g></svg>