<?plantuml 1.2026.2?><svg xmlns="http://www.w3.org/2000/svg" xmlns:xlink="http://www.w3.org/1999/xlink" contentStyleType="text/css" data-diagram-type="SEQUENCE" height="1606px" preserveAspectRatio="none" style="width:944px;height:1606px;background:#FFFFFF;" version="1.1" viewBox="0 0 944 1606" width="944px" zoomAndPan="magnify"><title>User Authentication (Level 2) &#8212; VendNet</title><defs/><g><text fill="#000000" font-family="sans-serif" font-size="14" font-weight="bold" lengthAdjust="spacing" textLength="294.0137" x="326.2075" y="28.5352">User Authentication (Level 2) &#8212; VendNet</text><rect fill="#ADD8E6" height="1557.2559" style="stroke:#181818;stroke-width:0.5;" width="343.832" x="324.5688" y="43.4883"/><text fill="#000000" font-family="sans-serif" font-size="13" font-weight="bold" lengthAdjust="spacing" textLength="82.8687" x="455.0505" y="56.0566">VendNet API</text><g><title>Controller</title><rect fill="#FFFFFF" height="1312.6816" style="stroke:#181818;stroke-width:1;" width="10" x="364.6494" y="182.0859"/></g><g><title>Auth Service</title><rect fill="#FFFFFF" height="937.0449" style="stroke:#181818;stroke-width:1;" width="10" x="610.3838" y="278.0176"/></g><g><title>MySQL Database</title><rect fill="#FFFFFF" height="59.9316" style="stroke:#181818;stroke-width:1;" width="10" x="823.2544" y="322.6387"/></g><rect fill="none" height="1248.3711" style="stroke:#000000;stroke-width:1.5;" width="927.4287" x="10" y="239.3965"/><rect fill="none" height="1023.6211" style="stroke:#000000;stroke-width:1.5;" width="907.4287" x="20" y="397.5703"/><rect fill="none" height="803.4922" style="stroke:#000000;stroke-width:1.5;" width="887.4287" x="30" y="464.1914"/><rect fill="none" height="625.6738" style="stroke:#000000;stroke-width:1.5;" width="867.4287" x="40" y="546.123"/><rect fill="none" height="313.9922" style="stroke:#000000;stroke-width:1.5;" width="847.4287" x="50" y="850.8047"/><g class="participant-lifeline" data-entity-uid="part1" data-qualified-name="User" id="part1-lifeline"><g><title>User</title><rect fill="#000000" fill-opacity="0.00000" height="1369.3027" width="8" x="156.2617" y="135.4648"/><line style="stroke:#181818;stroke-width:0.5;stroke-dasharray:5,5;" x1="160" x2="160" y1="135.4648" y2="1504.7676"/></g></g><g class="participant-lifeline" data-entity-uid="part2" data-qualified-name="Controller" id="part2-lifeline"><g><title>Controller</title><rect fill="#000000" fill-opacity="0.00000" height="1369.3027" width="8" x="365.6494" y="135.4648"/><line style="stroke:#181818;stroke-width:0.5;stroke-dasharray:5,5;" x1="369.5688" x2="369.5688" y1="135.4648" y2="1504.7676"/></g></g><g class="participant-lifeline" data-entity-uid="part3" data-qualified-name="AuthService" id="part3-lifeline"><g><title>Auth Service</title><rect fill="#000000" fill-opacity="0.00000" height="1369.3027" width="8" x="611.3838" y="135.4648"/><line style="stroke:#181818;stroke-width:0.5;stroke-dasharray:5,5;" x1="615.3667" x2="615.3667" y1="135.4648" y2="1504.7676"/></g></g><g class="participant-lifeline" data-entity-uid="part4" data-qualified-name="DB" id="part4-lifeline"><g><title>MySQL Database</title><rect fill="#000000" fill-opacity="0.00000" height="1369.3027" width="8" x="824.2544" y="135.4648"/><line style="stroke:#181818;stroke-width:0.5;stroke-dasharray:5,5;" x1="828.0801" x2="828.0801" y1="135.4648" y2="1504.7676"/></g></g><g class="participant participant-head" data-entity-uid="part1" data-qualified-name="User" id="part1-head"><text fill="#000000" font-family="sans-serif" font-size="14" lengthAdjust="spacing" textLength="30.3652" x="142.0791" y="116.0234">User</text><text fill="#000000" font-family="sans-serif" font-size="14" lengthAdjust="spacing" textLength="194.5234" x="60" y="132.5117">(Customer/Operator/Admin)</text><ellipse cx="160.2617" cy="50.9883" fill="#E2E2F0" rx="8" ry="8" style="stroke:#181818;stroke-width:0.5;"/><path d="M160.2617,58.9883 L160.2617,85.9883 M147.2617,66.9883 L173.2617,66.9883 M160.2617,85.9883 L147.2617,100.9883 M160.2617,85.9883 L173.2617,100.9883" fill="none" style="stroke:#181818;stroke-width:0.5;"/></g><g class="participant participant-tail" data-entity-uid="part1" data-qualified-name="User" id="part1-tail"><text fill="#000000" font-family="sans-serif" font-size="14" lengthAdjust="spacing" textLength="30.3652" x="142.0791" y="1517.3027">User</text><text fill="#000000" font-family="sans-serif" font-size="14" lengthAdjust="spacing" textLength="194.5234" x="60" y="1533.791">(Customer/Operator/Admin)</text><ellipse cx="160.2617" cy="1545.2441" fill="#E2E2F0" rx="8" ry="8" style="stroke:#181818;stroke-width:0.5;"/><path d="M160.2617,1553.2441 L160.2617,1580.2441 M147.2617,1561.2441 L173.2617,1561.2441 M160.2617,1580.2441 L147.2617,1595.2441 M160.2617,1580.2441 L173.2617,1595.2441" fill="none" style="stroke:#181818;stroke-width:0.5;"/></g><g class="participant participant-head" data-entity-uid="part2" data-qualified-name="Controller" id="part2-head"><rect fill="#E2E2F0" height="30.4883" rx="2.5" ry="2.5" style="stroke:#181818;stroke-width:0.5;" width="82.1611" x="328.5688" y="103.9766"/><text fill="#000000" font-family="sans-serif" font-size="14" lengthAdjust="spacing" textLength="68.1611" x="335.5688" y="124.5117">Controller</text></g><g class="participant participant-tail" data-entity-uid="part2" data-qualified-name="Controller" id="part2-tail"><rect fill="#E2E2F0" height="30.4883" rx="2.5" ry="2.5" style="stroke:#181818;stroke-width:0.5;" width="82.1611" x="328.5688" y="1503.7676"/><text fill="#000000" font-family="sans-serif" font-size="14" lengthAdjust="spacing" textLength="68.1611" x="335.5688" y="1524.3027">Controller</text></g><g class="participant participant-head" data-entity-uid="part3" data-qualified-name="AuthService" id="part3-head"><rect fill="#E2E2F0" height="30.4883" rx="2.5" ry="2.5" style="stroke:#181818;stroke-width:0.5;" width="98.0342" x="566.3667" y="103.9766"/><text fill="#000000" font-family="sans-serif" font-size="14" lengthAdjust="spacing" textLength="84.0342" x="573.3667" y="124.5117">Auth Service</text></g><g class="participant participant-tail" data-entity-uid="part3" data-qualified-name="AuthService" id="part3-tail"><rect fill="#E2E2F0" height="30.4883" rx="2.5" ry="2.5" style="stroke:#181818;stroke-width:0.5;" width="98.0342" x="566.3667" y="1503.7676"/><text fill="#000000" font-family="sans-serif" font-size="14" lengthAdjust="spacing" textLength="84.0342" x="573.3667" y="1524.3027">Auth Service</text></g><g class="participant participant-head" data-entity-uid="part4" data-qualified-name="DB" id="part4-head"><text fill="#000000" font-family="sans-serif" font-size="14" lengthAdjust="spacing" textLength="112.3486" x="769.0801" y="132.5117">MySQL Database</text><path d="M810.2544,82.9766 C810.2544,72.9766 828.2544,72.9766 828.2544,72.9766 C828.2544,72.9766 846.2544,72.9766 846.2544,82.9766 L846.2544,108.9766 C846.2544,118.9766 828.2544,118.9766 828.2544,118.9766 C828.2544,118.9766 810.2544,118.9766 810.2544,108.9766 L810.2544,82.9766" fill="#E2E2F0" style="stroke:#181818;stroke-width:0.5;"/><path d="M810.2544,82.9766 C810.2544,92.9766 828.2544,92.9766 828.2544,92.9766 C828.2544,92.9766 846.2544,92.9766 846.2544,82.9766" fill="none" style="stroke:#181818;stroke-width:0.5;"/></g><g class="participant participant-tail" data-entity-uid="part4" data-qualified-name="DB" id="part4-tail"><text fill="#000000" font-family="sans-serif" font-size="14" lengthAdjust="spacing" textLength="112.3486" x="769.0801" y="1517.3027">MySQL Database</text><path d="M810.2544,1530.2559 C810.2544,1520.2559 828.2544,1520.2559 828.2544,1520.2559 C828.2544,1520.2559 846.2544,1520.2559 846.2544,1530.2559 L846.2544,1556.2559 C846.2544,1566.2559 828.2544,1566.2559 828.2544,1566.2559 C828.2544,1566.2559 810.2544,1566.2559 810.2544,1556.2559 L810.2544,1530.2559" fill="#E2E2F0" style="stroke:#181818;stroke-width:0.5;"/><path d="M810.2544,1530.2559 C810.2544,1540.2559 828.2544,1540.2559 828.2544,1540.2559 C828.2544,1540.2559 846.2544,1540.2559 846.2544,1530.2559" fill="none" style="stroke:#181818;stroke-width:0.5;"/></g><g><title>Controller</title><rect fill="#FFFFFF" height="1312.6816" style="stroke:#181818;stroke-width:1;" width="10" x="364.6494" y="182.0859"/></g><g><title>Auth Service</title><rect fill="#FFFFFF" height="937.0449" style="stroke:#181818;stroke-width:1;" width="10" x="610.3838" y="278.0176"/></g><g><title>MySQL Database</title><rect fill="#FFFFFF" height="59.9316" style="stroke:#181818;stroke-width:1;" width="10" x="823.2544" y="322.6387"/></g><g class="message" data-entity-1="part1" data-entity-2="part2" id="msg1"><polygon fill="#181818" points="352.6494,178.0859,362.6494,182.0859,352.6494,186.0859,356.6494,182.0859" style="stroke:#181818;stroke-width:1;"/><line style="stroke:#181818;stroke-width:1;" x1="160.2617" x2="358.6494" y1="182.0859" y2="182.0859"/><text fill="#000000" font-family="sans-serif" font-size="13" lengthAdjust="spacing" textLength="110.1064" x="167.2617" y="162.0332">POST /auth/login</text><text fill="#000000" font-family="sans-serif" font-size="13" lengthAdjust="spacing" textLength="138.6836" x="167.2617" y="177.3438">(username, password)</text></g><g class="message" data-entity-1="part2" data-entity-2="part2" id="msg2"><line style="stroke:#181818;stroke-width:1;" x1="374.6494" x2="416.6494" y1="211.3965" y2="211.3965"/><line style="stroke:#181818;stroke-width:1;" x1="416.6494" x2="416.6494" y1="211.3965" y2="224.3965"/><line style="stroke:#181818;stroke-width:1;" x1="375.6494" x2="416.6494" y1="224.3965" y2="224.3965"/><polygon fill="#181818" points="385.6494,220.3965,375.6494,224.3965,385.6494,228.3965,381.6494,224.3965" style="stroke:#181818;stroke-width:1;"/><text fill="#000000" font-family="sans-serif" font-size="13" lengthAdjust="spacing" textLength="136.2651" x="381.6494" y="206.6543">Validate Input Format</text></g><path d="M10,239.3965 L72.1387,239.3965 L72.1387,246.707 L62.1387,256.707 L10,256.707 L10,239.3965" fill="#EEEEEE" style="stroke:#000000;stroke-width:1.5;"/><rect fill="none" height="1248.3711" style="stroke:#000000;stroke-width:1.5;" width="927.4287" x="10" y="239.3965"/><text fill="#000000" font-family="sans-serif" font-size="13" font-weight="bold" lengthAdjust="spacing" textLength="17.1387" x="25" y="252.9648">alt</text><text fill="#000000" font-family="sans-serif" font-size="11" font-weight="bold" lengthAdjust="spacing" textLength="70.2163" x="87.1387" y="252.0313">[Input Valid]</text><g class="message" data-entity-1="part2" data-entity-2="part3" id="msg3"><polygon fill="#181818" points="598.3838,274.0176,608.3838,278.0176,598.3838,282.0176,602.3838,278.0176" style="stroke:#181818;stroke-width:1;"/><line style="stroke:#181818;stroke-width:1;" x1="374.6494" x2="604.3838" y1="278.0176" y2="278.0176"/><text fill="#000000" font-family="sans-serif" font-size="13" lengthAdjust="spacing" textLength="216.7344" x="381.6494" y="273.2754">authenticate(username, password)</text></g><g class="message" data-entity-1="part3" data-entity-2="part4" id="msg4"><polygon fill="#181818" points="811.2544,318.6387,821.2544,322.6387,811.2544,326.6387,815.2544,322.6387" style="stroke:#181818;stroke-width:1;"/><line style="stroke:#181818;stroke-width:1;" x1="620.3838" x2="817.2544" y1="322.6387" y2="322.6387"/><text fill="#000000" font-family="sans-serif" font-size="13" lengthAdjust="spacing" textLength="76.6099" x="627.3838" y="302.5859">SELECT user</text><text fill="#000000" font-family="sans-serif" font-size="13" lengthAdjust="spacing" textLength="133.0278" x="627.3838" y="317.8965">WHERE username = ?</text></g><g class="message" data-entity-1="part4" data-entity-2="part3" id="msg5"><polygon fill="#181818" points="631.3838,378.5703,621.3838,382.5703,631.3838,386.5703,627.3838,382.5703" style="stroke:#181818;stroke-width:1;"/><line style="stroke:#181818;stroke-width:1;stroke-dasharray:2,2;" x1="625.3838" x2="827.2544" y1="382.5703" y2="382.5703"/><text fill="#000000" font-family="sans-serif" font-size="13" lengthAdjust="spacing" textLength="75.918" x="637.3838" y="347.207">User Record</text><text fill="#000000" font-family="sans-serif" font-size="13" lengthAdjust="spacing" textLength="178.8706" x="637.3838" y="362.5176">(passwordHash, role, status,</text><text fill="#000000" font-family="sans-serif" font-size="13" lengthAdjust="spacing" textLength="96.8716" x="637.3838" y="377.8281">failedAttempts)</text></g><path d="M20,397.5703 L82.1387,397.5703 L82.1387,404.8809 L72.1387,414.8809 L20,414.8809 L20,397.5703" fill="#EEEEEE" style="stroke:#000000;stroke-width:1.5;"/><rect fill="none" height="1023.6211" style="stroke:#000000;stroke-width:1.5;" width="907.4287" x="20" y="397.5703"/><text fill="#000000" font-family="sans-serif" font-size="13" font-weight="bold" lengthAdjust="spacing" textLength="17.1387" x="35" y="411.1387">alt</text><text fill="#000000" font-family="sans-serif" font-size="11" font-weight="bold" lengthAdjust="spacing" textLength="72.6226" x="97.1387" y="410.2051">[User Found]</text><g class="message" data-entity-1="part3" data-entity-2="part3" id="msg6"><line style="stroke:#181818;stroke-width:1;" x1="620.3838" x2="662.3838" y1="436.1914" y2="436.1914"/><line style="stroke:#181818;stroke-width:1;" x1="662.3838" x2="662.3838" y1="436.1914" y2="449.1914"/><line style="stroke:#181818;stroke-width:1;" x1="621.3838" x2="662.3838" y1="449.1914" y2="449.1914"/><polygon fill="#181818" points="631.3838,445.1914,621.3838,449.1914,631.3838,453.1914,627.3838,449.1914" style="stroke:#181818;stroke-width:1;"/><text fill="#000000" font-family="sans-serif" font-size="13" lengthAdjust="spacing" textLength="136.6587" x="627.3838" y="431.4492">Check Account Status</text></g><path d="M30,464.1914 L92.1387,464.1914 L92.1387,471.502 L82.1387,481.502 L30,481.502 L30,464.1914" fill="#EEEEEE" style="stroke:#000000;stroke-width:1.5;"/><rect fill="none" height="803.4922" style="stroke:#000000;stroke-width:1.5;" width="887.4287" x="30" y="464.1914"/><text fill="#000000" font-family="sans-serif" font-size="13" font-weight="bold" lengthAdjust="spacing" textLength="17.1387" x="45" y="477.7598">alt</text><text fill="#000000" font-family="sans-serif" font-size="11" font-weight="bold" lengthAdjust="spacing" textLength="92.4795" x="107.1387" y="476.8262">[Account Active]</text><g class="message" data-entity-1="part3" data-entity-2="part3" id="msg7"><line style="stroke:#181818;stroke-width:1;" x1="620.3838" x2="662.3838" y1="518.123" y2="518.123"/><line style="stroke:#181818;stroke-width:1;" x1="662.3838" x2="662.3838" y1="518.123" y2="531.123"/><line style="stroke:#181818;stroke-width:1;" x1="621.3838" x2="662.3838" y1="531.123" y2="531.123"/><polygon fill="#181818" points="631.3838,527.123,621.3838,531.123,631.3838,535.123,627.3838,531.123" style="stroke:#181818;stroke-width:1;"/><text fill="#000000" font-family="sans-serif" font-size="13" lengthAdjust="spacing" textLength="99.6265" x="627.3838" y="498.0703">Verify Password</text><text fill="#000000" font-family="sans-serif" font-size="13" lengthAdjust="spacing" textLength="108.9004" x="627.3838" y="513.3809">(BCrypt compare)</text></g><path d="M40,546.123 L102.1387,546.123 L102.1387,553.4336 L92.1387,563.4336 L40,563.4336 L40,546.123" fill="#EEEEEE" style="stroke:#000000;stroke-width:1.5;"/><rect fill="none" height="625.6738" style="stroke:#000000;stroke-width:1.5;" width="867.4287" x="40" y="546.123"/><text fill="#000000" font-family="sans-serif" font-size="13" font-weight="bold" lengthAdjust="spacing" textLength="17.1387" x="55" y="559.6914">alt</text><text fill="#000000" font-family="sans-serif" font-size="11" font-weight="bold" lengthAdjust="spacing" textLength="112.8896" x="117.1387" y="558.7578">[Password Matches]</text><g class="message" data-entity-1="part3" data-entity-2="part4" id="msg8"><polygon fill="#181818" points="816.2544,580.7441,826.2544,584.7441,816.2544,588.7441,820.2544,584.7441" style="stroke:#181818;stroke-width:1;"/><line style="stroke:#181818;stroke-width:1;" x1="620.3838" x2="822.2544" y1="584.7441" y2="584.7441"/><text fill="#000000" font-family="sans-serif" font-size="13" lengthAdjust="spacing" textLength="157.7329" x="627.3838" y="580.002">Reset failedAttempts = 0</text></g><g class="message" data-entity-1="part3" data-entity-2="part3" id="msg9"><line style="stroke:#181818;stroke-width:1;" x1="620.3838" x2="662.3838" y1="629.3652" y2="629.3652"/><line style="stroke:#181818;stroke-width:1;" x1="662.3838" x2="662.3838" y1="629.3652" y2="642.3652"/><line style="stroke:#181818;stroke-width:1;" x1="621.3838" x2="662.3838" y1="642.3652" y2="642.3652"/><polygon fill="#181818" points="631.3838,638.3652,621.3838,642.3652,631.3838,646.3652,627.3838,642.3652" style="stroke:#181818;stroke-width:1;"/><text fill="#000000" font-family="sans-serif" font-size="13" lengthAdjust="spacing" textLength="84.0493" x="627.3838" y="609.3125">Generate JWT</text><text fill="#000000" font-family="sans-serif" font-size="13" lengthAdjust="spacing" textLength="127.6641" x="627.3838" y="624.623">(userId, role, expiry)</text></g><g class="message" data-entity-1="part3" data-entity-2="part4" id="msg10"><polygon fill="#181818" points="816.2544,682.9863,826.2544,686.9863,816.2544,690.9863,820.2544,686.9863" style="stroke:#181818;stroke-width:1;"/><line style="stroke:#181818;stroke-width:1;" x1="620.3838" x2="822.2544" y1="686.9863" y2="686.9863"/><text fill="#000000" font-family="sans-serif" font-size="13" lengthAdjust="spacing" textLength="106.3486" x="627.3838" y="666.9336">INSERT audit_log</text><text fill="#000000" font-family="sans-serif" font-size="13" lengthAdjust="spacing" textLength="148.0337" x="627.3838" y="682.2441">(LOGIN_SUCCESS event)</text></g><g class="message" data-entity-1="part3" data-entity-2="part2" id="msg11"><polygon fill="#181818" points="385.6494,727.6074,375.6494,731.6074,385.6494,735.6074,381.6494,731.6074" style="stroke:#181818;stroke-width:1;"/><line style="stroke:#181818;stroke-width:1;stroke-dasharray:2,2;" x1="379.6494" x2="609.3838" y1="731.6074" y2="731.6074"/><text fill="#000000" font-family="sans-serif" font-size="13" lengthAdjust="spacing" textLength="68.7451" x="391.6494" y="711.5547">AuthResult</text><text fill="#000000" font-family="sans-serif" font-size="13" lengthAdjust="spacing" textLength="123.7793" x="391.6494" y="726.8652">(JWT, refreshToken)</text></g><g class="message" data-entity-1="part2" data-entity-2="part1" id="msg12"><polygon fill="#181818" points="171.2617,787.5391,161.2617,791.5391,171.2617,795.5391,167.2617,791.5391" style="stroke:#181818;stroke-width:1;"/><line style="stroke:#181818;stroke-width:1;stroke-dasharray:2,2;" x1="165.2617" x2="363.6494" y1="791.5391" y2="791.5391"/><text fill="#000000" font-family="sans-serif" font-size="13" lengthAdjust="spacing" textLength="47.3599" x="177.2617" y="756.1758">200 OK</text><text fill="#000000" font-family="sans-serif" font-size="13" lengthAdjust="spacing" textLength="180.3877" x="177.2617" y="771.4863">(accessToken, refreshToken,</text><text fill="#000000" font-family="sans-serif" font-size="13" lengthAdjust="spacing" textLength="62.3848" x="177.2617" y="786.7969">expiresIn)</text></g><line style="stroke:#000000;stroke-width:1;stroke-dasharray:2,2;" x1="40" x2="907.4287" y1="800.5391" y2="800.5391"/><text fill="#000000" font-family="sans-serif" font-size="11" font-weight="bold" lengthAdjust="spacing" textLength="104.543" x="45" y="811.1738">[Password Invalid]</text><g class="message" data-entity-1="part3" data-entity-2="part4" id="msg13"><polygon fill="#181818" points="816.2544,831.8047,826.2544,835.8047,816.2544,839.8047,820.2544,835.8047" style="stroke:#181818;stroke-width:1;"/><line style="stroke:#181818;stroke-width:1;" x1="620.3838" x2="822.2544" y1="835.8047" y2="835.8047"/><text fill="#000000" font-family="sans-serif" font-size="13" lengthAdjust="spacing" textLength="170.4346" x="627.3838" y="831.0625">INCREMENT failedAttempts</text></g><path d="M50,850.8047 L112.1387,850.8047 L112.1387,858.1152 L102.1387,868.1152 L50,868.1152 L50,850.8047" fill="#EEEEEE" style="stroke:#000000;stroke-width:1.5;"/><rect fill="none" height="313.9922" style="stroke:#000000;stroke-width:1.5;" width="847.4287" x="50" y="850.8047"/><text fill="#000000" font-family="sans-serif" font-size="13" font-weight="bold" lengthAdjust="spacing" textLength="17.1387" x="65" y="864.373">alt</text><text fill="#000000" font-family="sans-serif" font-size="11" font-weight="bold" lengthAdjust="spacing" textLength="162.6206" x="127.1387" y="863.4395">[failedAttempts &#8805; threshold]</text><g class="message" data-entity-1="part3" data-entity-2="part4" id="msg14"><polygon fill="#181818" points="816.2544,885.4258,826.2544,889.4258,816.2544,893.4258,820.2544,889.4258" style="stroke:#181818;stroke-width:1;"/><line style="stroke:#181818;stroke-width:1;" x1="620.3838" x2="822.2544" y1="889.4258" y2="889.4258"/><text fill="#000000" font-family="sans-serif" font-size="13" lengthAdjust="spacing" textLength="134.4624" x="627.3838" y="884.6836">SET status = LOCKED</text></g><g class="message" data-entity-1="part3" data-entity-2="part4" id="msg15"><polygon fill="#181818" points="816.2544,930.0469,826.2544,934.0469,816.2544,938.0469,820.2544,934.0469" style="stroke:#181818;stroke-width:1;"/><line style="stroke:#181818;stroke-width:1;" x1="620.3838" x2="822.2544" y1="934.0469" y2="934.0469"/><text fill="#000000" font-family="sans-serif" font-size="13" lengthAdjust="spacing" textLength="106.3486" x="627.3838" y="913.9941">INSERT audit_log</text><text fill="#000000" font-family="sans-serif" font-size="13" lengthAdjust="spacing" textLength="168.397" x="627.3838" y="929.3047">(ACCOUNT_LOCKED event)</text></g><g class="message" data-entity-1="part3" data-entity-2="part2" id="msg16"><polygon fill="#181818" points="385.6494,959.3574,375.6494,963.3574,385.6494,967.3574,381.6494,963.3574" style="stroke:#181818;stroke-width:1;"/><line style="stroke:#181818;stroke-width:1;stroke-dasharray:2,2;" x1="379.6494" x2="609.3838" y1="963.3574" y2="963.3574"/><text fill="#000000" font-family="sans-serif" font-size="13" lengthAdjust="spacing" textLength="157.644" x="391.6494" y="958.6152">AccountLockedException</text></g><g class="message" data-entity-1="part2" data-entity-2="part1" id="msg17"><polygon fill="#181818" points="171.2617,1019.2891,161.2617,1023.2891,171.2617,1027.2891,167.2617,1023.2891" style="stroke:#181818;stroke-width:1;"/><line style="stroke:#181818;stroke-width:1;stroke-dasharray:2,2;" x1="165.2617" x2="363.6494" y1="1023.2891" y2="1023.2891"/><text fill="#000000" font-family="sans-serif" font-size="13" lengthAdjust="spacing" textLength="73.3726" x="177.2617" y="987.9258">423 Locked</text><text fill="#000000" font-family="sans-serif" font-size="13" lengthAdjust="spacing" textLength="118.1489" x="177.2617" y="1003.2363">(Account locked &#8212;</text><text fill="#000000" font-family="sans-serif" font-size="13" lengthAdjust="spacing" textLength="93.939" x="177.2617" y="1018.5469">contact admin)</text></g><line style="stroke:#000000;stroke-width:1;stroke-dasharray:2,2;" x1="50" x2="897.4287" y1="1032.2891" y2="1032.2891"/><text fill="#000000" font-family="sans-serif" font-size="11" font-weight="bold" lengthAdjust="spacing" textLength="102.8403" x="55" y="1042.9238">[Below Threshold]</text><g class="message" data-entity-1="part3" data-entity-2="part4" id="msg18"><polygon fill="#181818" points="816.2544,1078.8652,826.2544,1082.8652,816.2544,1086.8652,820.2544,1082.8652" style="stroke:#181818;stroke-width:1;"/><line style="stroke:#181818;stroke-width:1;" x1="620.3838" x2="822.2544" y1="1082.8652" y2="1082.8652"/><text fill="#000000" font-family="sans-serif" font-size="13" lengthAdjust="spacing" textLength="106.3486" x="627.3838" y="1062.8125">INSERT audit_log</text><text fill="#000000" font-family="sans-serif" font-size="13" lengthAdjust="spacing" textLength="136.3857" x="627.3838" y="1078.123">(FAILED_LOGIN event)</text></g><g class="message" data-entity-1="part3" data-entity-2="part2" id="msg19"><polygon fill="#181818" points="385.6494,1108.1758,375.6494,1112.1758,385.6494,1116.1758,381.6494,1112.1758" style="stroke:#181818;stroke-width:1;"/><line style="stroke:#181818;stroke-width:1;stroke-dasharray:2,2;" x1="379.6494" x2="609.3838" y1="1112.1758" y2="1112.1758"/><text fill="#000000" font-family="sans-serif" font-size="13" lengthAdjust="spacing" textLength="174.4272" x="391.6494" y="1107.4336">InvalidCredentialsException</text></g><g class="message" data-entity-1="part2" data-entity-2="part1" id="msg20"><polygon fill="#181818" points="171.2617,1152.7969,161.2617,1156.7969,171.2617,1160.7969,167.2617,1156.7969" style="stroke:#181818;stroke-width:1;"/><line style="stroke:#181818;stroke-width:1;stroke-dasharray:2,2;" x1="165.2617" x2="363.6494" y1="1156.7969" y2="1156.7969"/><text fill="#000000" font-family="sans-serif" font-size="13" lengthAdjust="spacing" textLength="113.9658" x="177.2617" y="1136.7441">401 Unauthorized</text><text fill="#000000" font-family="sans-serif" font-size="13" lengthAdjust="spacing" textLength="122.8843" x="177.2617" y="1152.0547">(Invalid credentials)</text></g><line style="stroke:#000000;stroke-width:1;stroke-dasharray:2,2;" x1="30" x2="917.4287" y1="1179.7969" y2="1179.7969"/><text fill="#000000" font-family="sans-serif" font-size="11" font-weight="bold" lengthAdjust="spacing" textLength="172.6699" x="35" y="1190.4316">[Account Suspended / Locked]</text><g class="message" data-entity-1="part3" data-entity-2="part2" id="msg21"><polygon fill="#181818" points="385.6494,1211.0625,375.6494,1215.0625,385.6494,1219.0625,381.6494,1215.0625" style="stroke:#181818;stroke-width:1;"/><line style="stroke:#181818;stroke-width:1;stroke-dasharray:2,2;" x1="379.6494" x2="614.3838" y1="1215.0625" y2="1215.0625"/><text fill="#000000" font-family="sans-serif" font-size="13" lengthAdjust="spacing" textLength="161.2876" x="391.6494" y="1210.3203">AccountInactiveException</text></g><g class="message" data-entity-1="part2" data-entity-2="part1" id="msg22"><polygon fill="#181818" points="171.2617,1255.6836,161.2617,1259.6836,171.2617,1263.6836,167.2617,1259.6836" style="stroke:#181818;stroke-width:1;"/><line style="stroke:#181818;stroke-width:1;stroke-dasharray:2,2;" x1="165.2617" x2="363.6494" y1="1259.6836" y2="1259.6836"/><text fill="#000000" font-family="sans-serif" font-size="13" lengthAdjust="spacing" textLength="92.6631" x="177.2617" y="1239.6309">403 Forbidden</text><text fill="#000000" font-family="sans-serif" font-size="13" lengthAdjust="spacing" textLength="112.0933" x="177.2617" y="1254.9414">(Account inactive)</text></g><line style="stroke:#000000;stroke-width:1;stroke-dasharray:2,2;" x1="20" x2="927.4287" y1="1275.6836" y2="1275.6836"/><text fill="#000000" font-family="sans-serif" font-size="11" font-weight="bold" lengthAdjust="spacing" textLength="96.1855" x="25" y="1286.3184">[User Not Found]</text><g class="message" data-entity-1="part3" data-entity-2="part3" id="msg23"><line style="stroke:#181818;stroke-width:1;" x1="615.3838" x2="657.3838" y1="1326.2598" y2="1326.2598"/><line style="stroke:#181818;stroke-width:1;" x1="657.3838" x2="657.3838" y1="1326.2598" y2="1339.2598"/><line style="stroke:#181818;stroke-width:1;" x1="616.3838" x2="657.3838" y1="1339.2598" y2="1339.2598"/><polygon fill="#181818" points="626.3838,1335.2598,616.3838,1339.2598,626.3838,1343.2598,622.3838,1339.2598" style="stroke:#181818;stroke-width:1;"/><text fill="#000000" font-family="sans-serif" font-size="13" lengthAdjust="spacing" textLength="128.667" x="622.3838" y="1306.207">Dummy BCrypt hash</text><text fill="#000000" font-family="sans-serif" font-size="13" lengthAdjust="spacing" textLength="143.3555" x="622.3838" y="1321.5176">(prevent timing attack)</text></g><g class="message" data-entity-1="part3" data-entity-2="part2" id="msg24"><polygon fill="#181818" points="385.6494,1364.5703,375.6494,1368.5703,385.6494,1372.5703,381.6494,1368.5703" style="stroke:#181818;stroke-width:1;"/><line style="stroke:#181818;stroke-width:1;stroke-dasharray:2,2;" x1="379.6494" x2="614.3838" y1="1368.5703" y2="1368.5703"/><text fill="#000000" font-family="sans-serif" font-size="13" lengthAdjust="spacing" textLength="174.4272" x="391.6494" y="1363.8281">InvalidCredentialsException</text></g><g class="message" data-entity-1="part2" data-entity-2="part1" id="msg25"><polygon fill="#181818" points="171.2617,1409.1914,161.2617,1413.1914,171.2617,1417.1914,167.2617,1413.1914" style="stroke:#181818;stroke-width:1;"/><line style="stroke:#181818;stroke-width:1;stroke-dasharray:2,2;" x1="165.2617" x2="363.6494" y1="1413.1914" y2="1413.1914"/><text fill="#000000" font-family="sans-serif" font-size="13" lengthAdjust="spacing" textLength="113.9658" x="177.2617" y="1393.1387">401 Unauthorized</text><text fill="#000000" font-family="sans-serif" font-size="13" lengthAdjust="spacing" textLength="122.8843" x="177.2617" y="1408.4492">(Invalid credentials)</text></g><line style="stroke:#000000;stroke-width:1;stroke-dasharray:2,2;" x1="10" x2="937.4287" y1="1429.1914" y2="1429.1914"/><text fill="#000000" font-family="sans-serif" font-size="11" font-weight="bold" lengthAdjust="spacing" textLength="79.9272" x="15" y="1439.8262">[Input Invalid]</text><g class="message" data-entity-1="part2" data-entity-2="part1" id="msg26"><polygon fill="#181818" points="171.2617,1475.7676,161.2617,1479.7676,171.2617,1483.7676,167.2617,1479.7676" style="stroke:#181818;stroke-width:1;"/><line style="stroke:#181818;stroke-width:1;stroke-dasharray:2,2;" x1="165.2617" x2="363.6494" y1="1479.7676" y2="1479.7676"/><text fill="#000000" font-family="sans-serif" font-size="13" lengthAdjust="spacing" textLength="106.1709" x="177.2617" y="1459.7148">400 Bad Request</text><text fill="#000000" font-family="sans-serif" font-size="13" lengthAdjust="spacing" textLength="113.6104" x="177.2617" y="1475.0254">(Validation errors)</text></g><?plantuml-src hLRDJjj04BxxAKRfXKYWfD0JKbibZW6t8Q6nWGiIMko1h71stTqra9vwxRslq1VZIJgxSOYT115eSugzEz_CDz_ys72J8PngLD0fp1Y5uGapN0hOwkCTPh3RXCUVl-4CHJf0utaiCL91mrfSY2s_q4PEKBM6EIf69wrEEk6YsG2c7QhdNSa7Q9Jcq3a96_2kps_6ffiLw07zSgR8AS-PCD3mfJ1APXag1x5uNBrguuK8rHrFq5ssByfdZ_m1UVQyb1bsnJH2utWQVUj3htns5hskvpdkEvyghlRXP1Z5q6A4ryha3HV4jA1hWarmcuBG-bwgj6bpmU-OmMgOYx_Be6Siuwcz7OgyC70WrOJPX6QcVECkU8ve7QL2R1_OGYPS6vMrVugicXDtKdbXeNlTVOY2Vk37K3X9pu-2KG1pNFW8d-k0b3BxtEl2pd9aBfCZJ2WAIjWye2Ecnzj0P2X8RPWfzFQ5k6OymxHZ34voesSnfrXrClDAkN6e1x8GPMhMaAX5uOynkOLEaf29WSXvN5XQnFbPnxh3nTbBo6Ue-FKKJafYnB7hgsbk894Jganirg6ig_bTE6Oc6QEkNNX6ZX5gwfHwXaY7zaksjLWFKTY6HFXo7fVL6wPp6V0XvshQt2IOS105evYABkNcadg1iFh3mt1m6PtwVX15G4D2c1UWbXh1dX798ZE4Hl5HM7YjK8zZUOjY5QlQ30Hb2s8VTjjj67ub09OagBKphGDHcJcYg4En90rcD12Uj0d5dUkyZTBXZuBZO10lwRDYQyLVal3nrnymOnkUp5QTFTkRSTarL0BzeVyrw6rgkaQwZkyFJmVnvGpeEUrUr6_MFtsPt68QF2IOsuMn5cQjT1zszs1cR4Cgcp5pB-okkH09MT4i0EPsoGgmKw-BcRo7-BNvN9EKWqxO3tgNhgpVcfAoX7o5gPtDBDDloKlxFPmAEz-buZzSTafSI1R0Q_8XwlInEYfTifwcOQ5pEgKyjqe5l5UA7Wetf74zlSe8howU3PZlsNrunLDYMIaANdfRS7xYvdYvtJ2GfjmFcmp6NZ6PJA4St6FQJNPLAISx64xrTWFCKFNTDht_9Vm_Y-r8EyAp3uNgm7e6l0rTbj8g-LwWjcEs_FYm7tQeb5I4x50hYYsG_W80?></g></svg>