<?xml version="1.0" encoding="UTF-8" standalone="no"?>
<!DOCTYPE svg PUBLIC "-//W3C//DTD SVG 1.1//EN"
 "http://www.w3.org/Graphics/SVG/1.1/DTD/svg11.dtd">
<!-- Generated by graphviz version 14.1.4 (20260321.0153)
 -->
<!-- Title: tm Pages: 1 -->
<svg width="1408pt" height="606pt"
 viewBox="0.00 0.00 1408.00 606.00" xmlns="http://www.w3.org/2000/svg" xmlns:xlink="http://www.w3.org/1999/xlink">
<g id="graph0" class="graph" transform="scale(1 1) rotate(0) translate(4 601.8)">
<title>tm</title>
<polygon fill="white" stroke="none" points="-4,4 -4,-601.8 1403.64,-601.8 1403.64,4 -4,4"/>
<g id="clust1" class="cluster">
<title>cluster_boundary_TBVendNetBackEndInternal_579e9aae81</title>
<polygon fill="none" stroke="#ee2c2c" stroke-dasharray="5,2" points="336.75,-233.63 336.75,-589.8 1049.75,-589.8 1049.75,-233.63 336.75,-233.63"/>
<text xml:space="preserve" text-anchor="start" x="614.87" y="-577.3" font-family="Arial" font-style="italic" font-size="10.00">TB3: VendNet Back&#45;\nEnd (Internal)</text>
</g>
<g id="clust2" class="cluster">
<title>cluster_boundary_TBDatabaseZone_f2eb7a3ff7</title>
<polygon fill="none" stroke="#ee2c2c" stroke-dasharray="5,2" points="451.75,-489.8 451.75,-561.8 558.75,-561.8 558.75,-489.8 451.75,-489.8"/>
<text xml:space="preserve" text-anchor="start" x="459.87" y="-549.3" font-family="Arial" font-style="italic" font-size="10.00">TB4: Database Zone</text>
</g>
<g id="clust3" class="cluster">
<title>cluster_boundary_TBFileSystemZone_d2006ce1bb</title>
<polygon fill="none" stroke="#ee2c2c" stroke-dasharray="5,2" points="796.75,-489.8 796.75,-561.8 919.75,-561.8 919.75,-489.8 796.75,-489.8"/>
<text xml:space="preserve" text-anchor="start" x="805" y="-549.3" font-family="Arial" font-style="italic" font-size="10.00">TB5: File System\nZone</text>
</g>
<g id="clust4" class="cluster">
<title>cluster_boundary_TBInternetPublicNetwork_acf3059e70</title>
<polygon fill="none" stroke="#ee2c2c" stroke-dasharray="5,2" points="165.75,-23.75 165.75,-142.88 528.75,-142.88 528.75,-23.75 165.75,-23.75"/>
<text xml:space="preserve" text-anchor="start" x="278.25" y="-130.38" font-family="Arial" font-style="italic" font-size="10.00">TB1: Internet /\nPublic Network</text>
</g>
<g id="clust5" class="cluster">
<title>cluster_boundary_TBExternalSystemsNetwork_88f2d9c06f</title>
<polygon fill="none" stroke="#ee2c2c" stroke-dasharray="5,2" points="1033.75,-8 1033.75,-158.63 1343.75,-158.63 1343.75,-8 1033.75,-8"/>
<text xml:space="preserve" text-anchor="start" x="1115.25" y="-146.13" font-family="Arial" font-style="italic" font-size="10.00">TB2: External\nSystems Network</text>
</g>
<!-- datastore_MySQLDatabase_86e4604564 -->
<g id="node1" class="node">
<title>datastore_MySQLDatabase_86e4604564</title>
<image xlink:href="C:\Users\afons\AppData\Local\Packages\PythonSoftwareFoundation.Python.3.13_qbz5n2kfra8p0\LocalCache\local-packages\Python313\site-packages\pytm\images\datastore_black.png" width="49.6px" height="36px" preserveAspectRatio="xMinYMin meet" x="479.948" y="-533.802"/>
<text xml:space="preserve" text-anchor="middle" x="423.75" y="-500.25" font-family="Arial" font-size="14.00">MySQL Database</text>
</g>
<!-- server_VendNetBackEnd_9345ab4c19 -->
<g id="node3" class="node">
<title>server_VendNetBackEnd_9345ab4c19</title>
<ellipse fill="none" stroke="black" cx="684.75" cy="-323.22" rx="81.59" ry="81.59"/>
<text xml:space="preserve" text-anchor="middle" x="684.75" y="-325.67" font-family="Arial" font-size="14.00">0.0 VendNet Back&#45;</text>
<text xml:space="preserve" text-anchor="middle" x="684.75" y="-309.92" font-family="Arial" font-size="14.00">End</text>
</g>
<!-- datastore_MySQLDatabase_86e4604564&#45;&gt;server_VendNetBackEnd_9345ab4c19 -->
<g id="edge12" class="edge">
<title>datastore_MySQLDatabase_86e4604564&#45;&gt;server_VendNetBackEnd_9345ab4c19</title>
<path fill="none" stroke="black" d="M477.91,-511.41C458.5,-507.4 433.58,-498.69 421,-479.8 406.96,-458.72 406.56,-443.62 421,-422.8 459.22,-367.71 532.2,-343.35 591.71,-332.61"/>
<polygon fill="black" stroke="black" points="592.27,-336.07 601.55,-330.95 591.11,-329.16 592.27,-336.07"/>
<text xml:space="preserve" text-anchor="middle" x="470.87" y="-454.15" font-family="Arial" font-size="12.00">(12) Query Results</text>
<text xml:space="preserve" text-anchor="middle" x="470.87" y="-439.9" font-family="Arial" font-size="12.00">(Data Records)</text>
</g>
<!-- datastore_ServerFileSystem_b2e5892d06 -->
<g id="node2" class="node">
<title>datastore_ServerFileSystem_b2e5892d06</title>
<image xlink:href="C:\Users\afons\AppData\Local\Packages\PythonSoftwareFoundation.Python.3.13_qbz5n2kfra8p0\LocalCache\local-packages\Python313\site-packages\pytm\images\datastore_black.png" width="49.6px" height="36px" preserveAspectRatio="xMinYMin meet" x="833.948" y="-533.802"/>
<text xml:space="preserve" text-anchor="middle" x="774.37" y="-500.25" font-family="Arial" font-size="14.00">Server File System</text>
</g>
<!-- datastore_ServerFileSystem_b2e5892d06&#45;&gt;server_VendNetBackEnd_9345ab4c19 -->
<g id="edge14" class="edge">
<title>datastore_ServerFileSystem_b2e5892d06&#45;&gt;server_VendNetBackEnd_9345ab4c19</title>
<path fill="none" stroke="black" d="M832.07,-511.25C810.08,-507.09 779.28,-498.24 758.75,-479.8 738.5,-461.61 723.29,-436.7 712.11,-412.13"/>
<polygon fill="black" stroke="black" points="715.35,-410.82 708.16,-403.04 708.93,-413.6 715.35,-410.82"/>
<text xml:space="preserve" text-anchor="middle" x="803.75" y="-468.4" font-family="Arial" font-size="12.00">(14) Backup</text>
<text xml:space="preserve" text-anchor="middle" x="803.75" y="-454.15" font-family="Arial" font-size="12.00">Status, Log</text>
<text xml:space="preserve" text-anchor="middle" x="803.75" y="-439.9" font-family="Arial" font-size="12.00">Contents, Report</text>
<text xml:space="preserve" text-anchor="middle" x="803.75" y="-425.65" font-family="Arial" font-size="12.00">Files</text>
</g>
<!-- server_VendNetBackEnd_9345ab4c19&#45;&gt;datastore_MySQLDatabase_86e4604564 -->
<g id="edge11" class="edge">
<title>server_VendNetBackEnd_9345ab4c19&#45;&gt;datastore_MySQLDatabase_86e4604564</title>
<path fill="none" stroke="black" d="M629.07,-383.16C595.27,-418.96 553.86,-462.8 528.4,-489.76"/>
<polygon fill="black" stroke="black" points="526.08,-487.12 521.76,-496.79 531.17,-491.92 526.08,-487.12"/>
<text xml:space="preserve" text-anchor="middle" x="641.85" y="-454.15" font-family="Arial" font-size="12.00">(11) SQL Queries</text>
<text xml:space="preserve" text-anchor="middle" x="641.85" y="-439.9" font-family="Arial" font-size="12.00">(CRUD Operations)</text>
</g>
<!-- server_VendNetBackEnd_9345ab4c19&#45;&gt;datastore_ServerFileSystem_b2e5892d06 -->
<g id="edge13" class="edge">
<title>server_VendNetBackEnd_9345ab4c19&#45;&gt;datastore_ServerFileSystem_b2e5892d06</title>
<path fill="none" stroke="black" d="M763.23,-345.83C801.58,-360.78 844.22,-384.98 866.75,-422.8 878.22,-442.06 874.78,-467.71 869.29,-487.04"/>
<polygon fill="black" stroke="black" points="866,-485.83 866.28,-496.42 872.67,-487.97 866,-485.83"/>
<text xml:space="preserve" text-anchor="middle" x="923.88" y="-461.28" font-family="Arial" font-size="12.00">(13) Backup Files,</text>
<text xml:space="preserve" text-anchor="middle" x="923.88" y="-447.03" font-family="Arial" font-size="12.00">Audit Logs, Report</text>
<text xml:space="preserve" text-anchor="middle" x="923.88" y="-432.78" font-family="Arial" font-size="12.00">Directories</text>
</g>
<!-- actor_Customer_f8af758679 -->
<g id="node4" class="node">
<title>actor_Customer_f8af758679</title>
<polygon fill="none" stroke="black" points="235.81,-104.38 173.68,-104.38 173.68,-42.25 235.81,-42.25 235.81,-104.38"/>
<text xml:space="preserve" text-anchor="middle" x="204.75" y="-67.89" font-family="Arial" font-size="14.00">Customer</text>
</g>
<!-- server_VendNetBackEnd_9345ab4c19&#45;&gt;actor_Customer_f8af758679 -->
<g id="edge2" class="edge">
<title>server_VendNetBackEnd_9345ab4c19&#45;&gt;actor_Customer_f8af758679</title>
<path fill="none" stroke="black" d="M602.77,-322.92C440.54,-322.39 87.71,-310.96 12.25,-223.63 -40.25,-162.87 90.98,-110.12 162.31,-86.9"/>
<polygon fill="black" stroke="black" points="163.29,-90.26 171.76,-83.89 161.17,-83.59 163.29,-90.26"/>
<text xml:space="preserve" text-anchor="middle" x="52" y="-212.23" font-family="Arial" font-size="12.00">(2) JWT Token,</text>
<text xml:space="preserve" text-anchor="middle" x="52" y="-197.98" font-family="Arial" font-size="12.00">Catalog Data,</text>
<text xml:space="preserve" text-anchor="middle" x="52" y="-183.73" font-family="Arial" font-size="12.00">Purchase</text>
<text xml:space="preserve" text-anchor="middle" x="52" y="-169.48" font-family="Arial" font-size="12.00">Confirmation</text>
</g>
<!-- actor_Operator_2c440ebe53 -->
<g id="node5" class="node">
<title>actor_Operator_2c440ebe53</title>
<polygon fill="none" stroke="black" points="365.19,-101.75 308.31,-101.75 308.31,-44.88 365.19,-44.88 365.19,-101.75"/>
<text xml:space="preserve" text-anchor="middle" x="336.75" y="-67.89" font-family="Arial" font-size="14.00">Operator</text>
</g>
<!-- server_VendNetBackEnd_9345ab4c19&#45;&gt;actor_Operator_2c440ebe53 -->
<g id="edge4" class="edge">
<title>server_VendNetBackEnd_9345ab4c19&#45;&gt;actor_Operator_2c440ebe53</title>
<path fill="none" stroke="black" d="M603.13,-315.24C491.48,-303.81 300.08,-276.85 257.75,-223.63 241.98,-203.8 245.03,-188.54 257.75,-166.63 261.35,-160.43 266.34,-163.34 271.75,-158.63 287.48,-144.93 301.97,-126.92 313.26,-111.07"/>
<polygon fill="black" stroke="black" points="315.84,-113.49 318.66,-103.28 310.09,-109.5 315.84,-113.49"/>
<text xml:space="preserve" text-anchor="middle" x="310.25" y="-212.23" font-family="Arial" font-size="12.00">(4) Stock Status,</text>
<text xml:space="preserve" text-anchor="middle" x="310.25" y="-197.98" font-family="Arial" font-size="12.00">Machine Logs,</text>
<text xml:space="preserve" text-anchor="middle" x="310.25" y="-183.73" font-family="Arial" font-size="12.00">Issue</text>
<text xml:space="preserve" text-anchor="middle" x="310.25" y="-169.48" font-family="Arial" font-size="12.00">Acknowledgements</text>
</g>
<!-- actor_Administrator_0291419f72 -->
<g id="node6" class="node">
<title>actor_Administrator_0291419f72</title>
<polygon fill="none" stroke="black" points="520.31,-114.88 437.18,-114.88 437.18,-31.75 520.31,-31.75 520.31,-114.88"/>
<text xml:space="preserve" text-anchor="middle" x="478.75" y="-67.89" font-family="Arial" font-size="14.00">Administrator</text>
</g>
<!-- server_VendNetBackEnd_9345ab4c19&#45;&gt;actor_Administrator_0291419f72 -->
<g id="edge6" class="edge">
<title>server_VendNetBackEnd_9345ab4c19&#45;&gt;actor_Administrator_0291419f72</title>
<path fill="none" stroke="black" d="M625.49,-266.42C611.98,-252.83 598,-238.04 585.75,-223.63 559,-192.17 531.93,-154.33 511.72,-124.62"/>
<polygon fill="black" stroke="black" points="514.75,-122.86 506.25,-116.53 508.95,-126.78 514.75,-122.86"/>
<text xml:space="preserve" text-anchor="middle" x="629.25" y="-212.23" font-family="Arial" font-size="12.00">(6) Reports,</text>
<text xml:space="preserve" text-anchor="middle" x="629.25" y="-197.98" font-family="Arial" font-size="12.00">System Status,</text>
<text xml:space="preserve" text-anchor="middle" x="629.25" y="-183.73" font-family="Arial" font-size="12.00">User Lists, Audit</text>
<text xml:space="preserve" text-anchor="middle" x="629.25" y="-169.48" font-family="Arial" font-size="12.00">Logs</text>
</g>
<!-- externalentity_VendingMachine_c76a0a7067 -->
<g id="node7" class="node">
<title>externalentity_VendingMachine_c76a0a7067</title>
<polygon fill="none" stroke="black" points="1149.31,-126.88 1042.18,-126.88 1042.18,-19.75 1149.31,-19.75 1149.31,-126.88"/>
<text xml:space="preserve" text-anchor="middle" x="1095.75" y="-67.89" font-family="Arial" font-size="14.00">Vending Machine</text>
</g>
<!-- server_VendNetBackEnd_9345ab4c19&#45;&gt;externalentity_VendingMachine_c76a0a7067 -->
<g id="edge8" class="edge">
<title>server_VendNetBackEnd_9345ab4c19&#45;&gt;externalentity_VendingMachine_c76a0a7067</title>
<path fill="none" stroke="black" d="M752.65,-277.53C801.4,-245.82 868.91,-202.66 929.5,-166.63 962.91,-146.76 1000.76,-125.63 1031.9,-108.62"/>
<polygon fill="black" stroke="black" points="1033.32,-111.83 1040.43,-103.97 1029.97,-105.68 1033.32,-111.83"/>
<text xml:space="preserve" text-anchor="middle" x="974.12" y="-205.1" font-family="Arial" font-size="12.00">(8) Configuration</text>
<text xml:space="preserve" text-anchor="middle" x="974.12" y="-190.85" font-family="Arial" font-size="12.00">Updates, Price</text>
<text xml:space="preserve" text-anchor="middle" x="974.12" y="-176.6" font-family="Arial" font-size="12.00">Changes</text>
</g>
<!-- externalentity_PaymentGateway_c6f87088c2 -->
<g id="node8" class="node">
<title>externalentity_PaymentGateway_c6f87088c2</title>
<polygon fill="none" stroke="black" points="1336.06,-130.63 1221.43,-130.63 1221.43,-16 1336.06,-16 1336.06,-130.63"/>
<text xml:space="preserve" text-anchor="middle" x="1278.75" y="-67.89" font-family="Arial" font-size="14.00">Payment Gateway</text>
</g>
<!-- server_VendNetBackEnd_9345ab4c19&#45;&gt;externalentity_PaymentGateway_c6f87088c2 -->
<g id="edge9" class="edge">
<title>server_VendNetBackEnd_9345ab4c19&#45;&gt;externalentity_PaymentGateway_c6f87088c2</title>
<path fill="none" stroke="black" d="M766.5,-322.31C867.27,-318.83 1040.28,-300.82 1163.75,-223.63 1196.29,-203.28 1223.16,-170.23 1242.72,-140.39"/>
<polygon fill="black" stroke="black" points="1245.57,-142.43 1247.99,-132.11 1239.67,-138.66 1245.57,-142.43"/>
<text xml:space="preserve" text-anchor="middle" x="1258.32" y="-205.1" font-family="Arial" font-size="12.00">(9) Payment</text>
<text xml:space="preserve" text-anchor="middle" x="1258.32" y="-190.85" font-family="Arial" font-size="12.00">Authorization</text>
<text xml:space="preserve" text-anchor="middle" x="1258.32" y="-176.6" font-family="Arial" font-size="12.00">Requests</text>
</g>
<!-- actor_Customer_f8af758679&#45;&gt;server_VendNetBackEnd_9345ab4c19 -->
<g id="edge1" class="edge">
<title>actor_Customer_f8af758679&#45;&gt;server_VendNetBackEnd_9345ab4c19</title>
<path fill="none" stroke="black" d="M173.23,-99.07C137.36,-130.21 87.74,-184.35 120.75,-223.63 179.78,-293.88 447.01,-314.08 591.44,-319.88"/>
<polygon fill="black" stroke="black" points="591.25,-323.38 601.38,-320.26 591.52,-316.38 591.25,-323.38"/>
<text xml:space="preserve" text-anchor="middle" x="174.75" y="-205.1" font-family="Arial" font-size="12.00">(1) Credentials,</text>
<text xml:space="preserve" text-anchor="middle" x="174.75" y="-190.85" font-family="Arial" font-size="12.00">Purchase Requests,</text>
<text xml:space="preserve" text-anchor="middle" x="174.75" y="-176.6" font-family="Arial" font-size="12.00">Catalog Queries</text>
</g>
<!-- actor_Operator_2c440ebe53&#45;&gt;server_VendNetBackEnd_9345ab4c19 -->
<g id="edge3" class="edge">
<title>actor_Operator_2c440ebe53&#45;&gt;server_VendNetBackEnd_9345ab4c19</title>
<path fill="none" stroke="black" d="M346.86,-102.08C360.28,-135.28 386.96,-190.52 426.5,-223.63 474.43,-263.77 540.46,-288.59 593.75,-303.28"/>
<polygon fill="black" stroke="black" points="592.54,-306.58 603.11,-305.78 594.35,-299.82 592.54,-306.58"/>
<text xml:space="preserve" text-anchor="middle" x="475.62" y="-212.23" font-family="Arial" font-size="12.00">(3) Stock Updates,</text>
<text xml:space="preserve" text-anchor="middle" x="475.62" y="-197.98" font-family="Arial" font-size="12.00">Machine Log</text>
<text xml:space="preserve" text-anchor="middle" x="475.62" y="-183.73" font-family="Arial" font-size="12.00">Requests, Issue</text>
<text xml:space="preserve" text-anchor="middle" x="475.62" y="-169.48" font-family="Arial" font-size="12.00">Reports</text>
</g>
<!-- actor_Administrator_0291419f72&#45;&gt;server_VendNetBackEnd_9345ab4c19 -->
<g id="edge5" class="edge">
<title>actor_Administrator_0291419f72&#45;&gt;server_VendNetBackEnd_9345ab4c19</title>
<path fill="none" stroke="black" d="M520.46,-79.03C570.69,-87.18 653.02,-109.04 690.75,-166.63 703.42,-185.96 706.95,-209.74 706.04,-232.83"/>
<polygon fill="black" stroke="black" points="702.57,-232.37 705.37,-242.58 709.55,-232.85 702.57,-232.37"/>
<text xml:space="preserve" text-anchor="middle" x="757.49" y="-212.23" font-family="Arial" font-size="12.00">(5) Management</text>
<text xml:space="preserve" text-anchor="middle" x="757.49" y="-197.98" font-family="Arial" font-size="12.00">Commands, Config</text>
<text xml:space="preserve" text-anchor="middle" x="757.49" y="-183.73" font-family="Arial" font-size="12.00">Changes, Report</text>
<text xml:space="preserve" text-anchor="middle" x="757.49" y="-169.48" font-family="Arial" font-size="12.00">Requests</text>
</g>
<!-- externalentity_VendingMachine_c76a0a7067&#45;&gt;server_VendNetBackEnd_9345ab4c19 -->
<g id="edge7" class="edge">
<title>externalentity_VendingMachine_c76a0a7067&#45;&gt;server_VendNetBackEnd_9345ab4c19</title>
<path fill="none" stroke="black" d="M1087.13,-127.05C1079.24,-159.18 1064.38,-198.71 1036.75,-223.63 965.55,-287.83 855.8,-310.59 777.8,-318.47"/>
<polygon fill="black" stroke="black" points="777.66,-314.96 768.03,-319.38 778.32,-321.93 777.66,-314.96"/>
<text xml:space="preserve" text-anchor="middle" x="1109.24" y="-212.23" font-family="Arial" font-size="12.00">(7) Telemetry</text>
<text xml:space="preserve" text-anchor="middle" x="1109.24" y="-197.98" font-family="Arial" font-size="12.00">Data, Sales</text>
<text xml:space="preserve" text-anchor="middle" x="1109.24" y="-183.73" font-family="Arial" font-size="12.00">Events, Stock</text>
<text xml:space="preserve" text-anchor="middle" x="1109.24" y="-169.48" font-family="Arial" font-size="12.00">Levels</text>
</g>
<!-- externalentity_PaymentGateway_c6f87088c2&#45;&gt;server_VendNetBackEnd_9345ab4c19 -->
<g id="edge10" class="edge">
<title>externalentity_PaymentGateway_c6f87088c2&#45;&gt;server_VendNetBackEnd_9345ab4c19</title>
<path fill="none" stroke="black" d="M1312.45,-131.05C1325.83,-161.64 1333.49,-198.21 1311.75,-223.63 1244.18,-302.66 935.49,-318.74 777.9,-321.74"/>
<polygon fill="black" stroke="black" points="778.27,-318.24 768.34,-321.91 778.4,-325.23 778.27,-318.24"/>
<text xml:space="preserve" text-anchor="middle" x="1362.52" y="-205.1" font-family="Arial" font-size="12.00">(10) Payment</text>
<text xml:space="preserve" text-anchor="middle" x="1362.52" y="-190.85" font-family="Arial" font-size="12.00">Confirmation /</text>
<text xml:space="preserve" text-anchor="middle" x="1362.52" y="-176.6" font-family="Arial" font-size="12.00">Rejection</text>
</g>
</g>
</svg>
