<?plantuml 1.2026.2?><svg xmlns="http://www.w3.org/2000/svg" xmlns:xlink="http://www.w3.org/1999/xlink" contentStyleType="text/css" data-diagram-type="SEQUENCE" height="1769px" preserveAspectRatio="none" style="width:645px;height:1769px;background:#FFFFFF;" version="1.1" viewBox="0 0 645 1769" width="645px" zoomAndPan="magnify"><title>Create Product with Image Upload (Level 1) &#8212; VendNet</title><defs/><g><text fill="#000000" font-family="sans-serif" font-size="14" font-weight="bold" lengthAdjust="spacing" textLength="397.1338" x="120.3118" y="28.5352">Create Product with Image Upload (Level 1) &#8212; VendNet</text><g><title>VendNet System</title><rect fill="#FFFFFF" height="1482.1895" style="stroke:#181818;stroke-width:1;" width="10" x="341.8755" y="196.2188"/></g><rect fill="none" height="1402.5684" style="stroke:#000000;stroke-width:1.5;" width="618.7573" x="10" y="268.8398"/><rect fill="none" height="1238.75" style="stroke:#000000;stroke-width:1.5;" width="598.7573" x="20" y="366.082"/><rect fill="none" height="1090.2422" style="stroke:#000000;stroke-width:1.5;" width="578.7573" x="30" y="448.0137"/><rect fill="none" height="883.1133" style="stroke:#000000;stroke-width:1.5;" width="558.7573" x="40" y="588.5664"/><rect fill="none" height="703.9844" style="stroke:#000000;stroke-width:1.5;" width="538.7573" x="50" y="701.1191"/><rect fill="none" height="482.5449" style="stroke:#000000;stroke-width:1.5;" width="518.7573" x="60" y="783.0508"/><g class="participant-lifeline" data-entity-uid="part1" data-qualified-name="Admin" id="part1-lifeline"><g><title>Administrator</title><rect fill="#000000" fill-opacity="0.00000" height="1569.4316" width="8" x="115.8604" y="118.9766"/><line style="stroke:#181818;stroke-width:0.5;stroke-dasharray:5,5;" x1="119" x2="119" y1="118.9766" y2="1688.4082"/></g></g><g class="participant-lifeline" data-entity-uid="part2" data-qualified-name="VendNet" id="part2-lifeline"><g><title>VendNet System</title><rect fill="#000000" fill-opacity="0.00000" height="1569.4316" width="8" x="342.8755" y="118.9766"/><line style="stroke:#181818;stroke-width:0.5;stroke-dasharray:5,5;" x1="346.6958" x2="346.6958" y1="118.9766" y2="1688.4082"/></g></g><g class="participant participant-head" data-entity-uid="part1" data-qualified-name="Admin" id="part1-head"><text fill="#000000" font-family="sans-serif" font-size="14" lengthAdjust="spacing" textLength="93.7207" x="70" y="116.0234">Administrator</text><ellipse cx="119.8604" cy="50.9883" fill="#E2E2F0" rx="8" ry="8" style="stroke:#181818;stroke-width:0.5;"/><path d="M119.8604,58.9883 L119.8604,85.9883 M106.8604,66.9883 L132.8604,66.9883 M119.8604,85.9883 L106.8604,100.9883 M119.8604,85.9883 L132.8604,100.9883" fill="none" style="stroke:#181818;stroke-width:0.5;"/></g><g class="participant participant-tail" data-entity-uid="part1" data-qualified-name="Admin" id="part1-tail"><text fill="#000000" font-family="sans-serif" font-size="14" lengthAdjust="spacing" textLength="93.7207" x="70" y="1700.9434">Administrator</text><ellipse cx="119.8604" cy="1712.3965" fill="#E2E2F0" rx="8" ry="8" style="stroke:#181818;stroke-width:0.5;"/><path d="M119.8604,1720.3965 L119.8604,1747.3965 M106.8604,1728.3965 L132.8604,1728.3965 M119.8604,1747.3965 L106.8604,1762.3965 M119.8604,1747.3965 L132.8604,1762.3965" fill="none" style="stroke:#181818;stroke-width:0.5;"/></g><g class="participant participant-head" data-entity-uid="part2" data-qualified-name="VendNet" id="part2-head"><rect fill="#ADD8E6" height="30.4883" rx="2.5" ry="2.5" style="stroke:#181818;stroke-width:0.5;" width="124.3594" x="284.6958" y="87.4883"/><text fill="#000000" font-family="sans-serif" font-size="14" lengthAdjust="spacing" textLength="110.3594" x="291.6958" y="108.0234">VendNet System</text></g><g class="participant participant-tail" data-entity-uid="part2" data-qualified-name="VendNet" id="part2-tail"><rect fill="#ADD8E6" height="30.4883" rx="2.5" ry="2.5" style="stroke:#181818;stroke-width:0.5;" width="124.3594" x="284.6958" y="1687.4082"/><text fill="#000000" font-family="sans-serif" font-size="14" lengthAdjust="spacing" textLength="110.3594" x="291.6958" y="1707.9434">VendNet System</text></g><g><title>VendNet System</title><rect fill="#FFFFFF" height="1482.1895" style="stroke:#181818;stroke-width:1;" width="10" x="341.8755" y="196.2188"/></g><g class="message" data-entity-1="part1" data-entity-2="part2" id="msg1"><polygon fill="#181818" points="329.8755,192.2188,339.8755,196.2188,329.8755,200.2188,333.8755,196.2188" style="stroke:#181818;stroke-width:1;"/><line style="stroke:#181818;stroke-width:1;" x1="119.8604" x2="335.8755" y1="196.2188" y2="196.2188"/><text fill="#000000" font-family="sans-serif" font-size="13" lengthAdjust="spacing" textLength="94.2119" x="126.8604" y="145.5449">Create product</text><text fill="#000000" font-family="sans-serif" font-size="13" lengthAdjust="spacing" textLength="161.2241" x="126.8604" y="160.8555">(name, description, price,</text><text fill="#000000" font-family="sans-serif" font-size="13" lengthAdjust="spacing" textLength="128.6733" x="126.8604" y="176.166">category, image file)</text><text fill="#000000" font-family="sans-serif" font-size="13" lengthAdjust="spacing" textLength="170.2949" x="126.8604" y="191.4766">[Authorization: Bearer JWT]</text></g><g class="message" data-entity-1="part2" data-entity-2="part2" id="msg2"><line style="stroke:#181818;stroke-width:1;" x1="351.8755" x2="393.8755" y1="240.8398" y2="240.8398"/><line style="stroke:#181818;stroke-width:1;" x1="393.8755" x2="393.8755" y1="240.8398" y2="253.8398"/><line style="stroke:#181818;stroke-width:1;" x1="352.8755" x2="393.8755" y1="253.8398" y2="253.8398"/><polygon fill="#181818" points="362.8755,249.8398,352.8755,253.8398,362.8755,257.8398,358.8755,253.8398" style="stroke:#181818;stroke-width:1;"/><text fill="#000000" font-family="sans-serif" font-size="13" lengthAdjust="spacing" textLength="91.3364" x="358.8755" y="220.7871">Validate JWT &amp;</text><text fill="#000000" font-family="sans-serif" font-size="13" lengthAdjust="spacing" textLength="110.4048" x="358.8755" y="236.0977">verify ADMIN role</text></g><path d="M10,268.8398 L72.1387,268.8398 L72.1387,276.1504 L62.1387,286.1504 L10,286.1504 L10,268.8398" fill="#EEEEEE" style="stroke:#000000;stroke-width:1.5;"/><rect fill="none" height="1402.5684" style="stroke:#000000;stroke-width:1.5;" width="618.7573" x="10" y="268.8398"/><text fill="#000000" font-family="sans-serif" font-size="13" font-weight="bold" lengthAdjust="spacing" textLength="17.1387" x="25" y="282.4082">alt</text><text fill="#000000" font-family="sans-serif" font-size="11" font-weight="bold" lengthAdjust="spacing" textLength="204.7998" x="87.1387" y="281.4746">[Authorized (ADMINISTRATOR role)]</text><g class="message" data-entity-1="part2" data-entity-2="part2" id="msg3"><line style="stroke:#181818;stroke-width:1;" x1="351.8755" x2="393.8755" y1="338.082" y2="338.082"/><line style="stroke:#181818;stroke-width:1;" x1="393.8755" x2="393.8755" y1="338.082" y2="351.082"/><line style="stroke:#181818;stroke-width:1;" x1="352.8755" x2="393.8755" y1="351.082" y2="351.082"/><polygon fill="#181818" points="362.8755,347.082,352.8755,351.082,362.8755,355.082,358.8755,351.082" style="stroke:#181818;stroke-width:1;"/><text fill="#000000" font-family="sans-serif" font-size="13" lengthAdjust="spacing" textLength="135.5479" x="358.8755" y="302.7188">Validate product data</text><text fill="#000000" font-family="sans-serif" font-size="13" lengthAdjust="spacing" textLength="109.1353" x="358.8755" y="318.0293">(name, price &gt; 0,</text><text fill="#000000" font-family="sans-serif" font-size="13" lengthAdjust="spacing" textLength="137.2427" x="358.8755" y="333.3398">category, description)</text></g><path d="M20,366.082 L82.1387,366.082 L82.1387,373.3926 L72.1387,383.3926 L20,383.3926 L20,366.082" fill="#EEEEEE" style="stroke:#000000;stroke-width:1.5;"/><rect fill="none" height="1238.75" style="stroke:#000000;stroke-width:1.5;" width="598.7573" x="20" y="366.082"/><text fill="#000000" font-family="sans-serif" font-size="13" font-weight="bold" lengthAdjust="spacing" textLength="17.1387" x="35" y="379.6504">alt</text><text fill="#000000" font-family="sans-serif" font-size="11" font-weight="bold" lengthAdjust="spacing" textLength="70.2163" x="97.1387" y="378.7168">[Input Valid]</text><g class="message" data-entity-1="part2" data-entity-2="part2" id="msg4"><line style="stroke:#181818;stroke-width:1;" x1="351.8755" x2="393.8755" y1="420.0137" y2="420.0137"/><line style="stroke:#181818;stroke-width:1;" x1="393.8755" x2="393.8755" y1="420.0137" y2="433.0137"/><line style="stroke:#181818;stroke-width:1;" x1="352.8755" x2="393.8755" y1="433.0137" y2="433.0137"/><polygon fill="#181818" points="362.8755,429.0137,352.8755,433.0137,362.8755,437.0137,358.8755,433.0137" style="stroke:#181818;stroke-width:1;"/><text fill="#000000" font-family="sans-serif" font-size="13" lengthAdjust="spacing" textLength="132.3296" x="358.8755" y="399.9609">Enforce file size limit</text><text fill="#000000" font-family="sans-serif" font-size="13" lengthAdjust="spacing" textLength="70.8652" x="358.8755" y="415.2715">(max 5 MB)</text></g><path d="M30,448.0137 L92.1387,448.0137 L92.1387,455.3242 L82.1387,465.3242 L30,465.3242 L30,448.0137" fill="#EEEEEE" style="stroke:#000000;stroke-width:1.5;"/><rect fill="none" height="1090.2422" style="stroke:#000000;stroke-width:1.5;" width="578.7573" x="30" y="448.0137"/><text fill="#000000" font-family="sans-serif" font-size="13" font-weight="bold" lengthAdjust="spacing" textLength="17.1387" x="45" y="461.582">alt</text><text fill="#000000" font-family="sans-serif" font-size="11" font-weight="bold" lengthAdjust="spacing" textLength="126.4302" x="107.1387" y="460.6484">[File Size Within Limit]</text><rect fill="#EEEEEE" height="3" style="stroke:#EEEEEE;stroke-width:1;" width="638.7573" x="0" y="485.9795"/><line style="stroke:#000000;stroke-width:1;" x1="0" x2="638.7573" y1="485.9795" y2="485.9795"/><line style="stroke:#000000;stroke-width:1;" x1="0" x2="638.7573" y1="488.9795" y2="488.9795"/><rect fill="#EEEEEE" height="23.3105" style="stroke:#000000;stroke-width:2;" width="236.7329" x="201.0122" y="475.3242"/><text fill="#000000" font-family="sans-serif" font-size="13" font-weight="bold" lengthAdjust="spacing" textLength="218.4482" x="207.0122" y="491.8926">Secure Image Validation Pipeline</text><g class="message" data-entity-1="part2" data-entity-2="part2" id="msg5"><line style="stroke:#181818;stroke-width:1;" x1="351.8755" x2="393.8755" y1="560.5664" y2="560.5664"/><line style="stroke:#181818;stroke-width:1;" x1="393.8755" x2="393.8755" y1="560.5664" y2="573.5664"/><line style="stroke:#181818;stroke-width:1;" x1="352.8755" x2="393.8755" y1="573.5664" y2="573.5664"/><polygon fill="#181818" points="362.8755,569.5664,352.8755,573.5664,362.8755,577.5664,358.8755,573.5664" style="stroke:#181818;stroke-width:1;"/><text fill="#000000" font-family="sans-serif" font-size="13" lengthAdjust="spacing" textLength="128.1528" x="358.8755" y="525.2031">Check file extension</text><text fill="#000000" font-family="sans-serif" font-size="13" lengthAdjust="spacing" textLength="52.9521" x="358.8755" y="540.5137">whitelist</text><text fill="#000000" font-family="sans-serif" font-size="13" lengthAdjust="spacing" textLength="155.2954" x="358.8755" y="555.8242">(.jpg, .jpeg, .png, .webp)</text></g><path d="M40,588.5664 L102.1387,588.5664 L102.1387,595.877 L92.1387,605.877 L40,605.877 L40,588.5664" fill="#EEEEEE" style="stroke:#000000;stroke-width:1.5;"/><rect fill="none" height="883.1133" style="stroke:#000000;stroke-width:1.5;" width="558.7573" x="40" y="588.5664"/><text fill="#000000" font-family="sans-serif" font-size="13" font-weight="bold" lengthAdjust="spacing" textLength="17.1387" x="55" y="602.1348">alt</text><text fill="#000000" font-family="sans-serif" font-size="11" font-weight="bold" lengthAdjust="spacing" textLength="112.562" x="117.1387" y="601.2012">[Extension Allowed]</text><g class="message" data-entity-1="part2" data-entity-2="part2" id="msg6"><line style="stroke:#181818;stroke-width:1;" x1="351.8755" x2="393.8755" y1="673.1191" y2="673.1191"/><line style="stroke:#181818;stroke-width:1;" x1="393.8755" x2="393.8755" y1="673.1191" y2="686.1191"/><line style="stroke:#181818;stroke-width:1;" x1="352.8755" x2="393.8755" y1="686.1191" y2="686.1191"/><polygon fill="#181818" points="362.8755,682.1191,352.8755,686.1191,362.8755,690.1191,358.8755,686.1191" style="stroke:#181818;stroke-width:1;"/><text fill="#000000" font-family="sans-serif" font-size="13" lengthAdjust="spacing" textLength="110.5952" x="358.8755" y="622.4453">Read magic bytes</text><text fill="#000000" font-family="sans-serif" font-size="13" lengthAdjust="spacing" textLength="92.1743" x="358.8755" y="637.7559">(first 16 bytes)</text><text fill="#000000" font-family="sans-serif" font-size="13" lengthAdjust="spacing" textLength="140.0356" x="358.8755" y="653.0664">&amp; cross-check against</text><text fill="#000000" font-family="sans-serif" font-size="13" lengthAdjust="spacing" textLength="114.8545" x="358.8755" y="668.377">claimed extension</text></g><path d="M50,701.1191 L112.1387,701.1191 L112.1387,708.4297 L102.1387,718.4297 L50,718.4297 L50,701.1191" fill="#EEEEEE" style="stroke:#000000;stroke-width:1.5;"/><rect fill="none" height="703.9844" style="stroke:#000000;stroke-width:1.5;" width="538.7573" x="50" y="701.1191"/><text fill="#000000" font-family="sans-serif" font-size="13" font-weight="bold" lengthAdjust="spacing" textLength="17.1387" x="65" y="714.6875">alt</text><text fill="#000000" font-family="sans-serif" font-size="11" font-weight="bold" lengthAdjust="spacing" textLength="194.6646" x="127.1387" y="713.7539">[Magic Bytes Match Image Format]</text><g class="message" data-entity-1="part2" data-entity-2="part2" id="msg7"><line style="stroke:#181818;stroke-width:1;" x1="351.8755" x2="393.8755" y1="755.0508" y2="755.0508"/><line style="stroke:#181818;stroke-width:1;" x1="393.8755" x2="393.8755" y1="755.0508" y2="768.0508"/><line style="stroke:#181818;stroke-width:1;" x1="352.8755" x2="393.8755" y1="768.0508" y2="768.0508"/><polygon fill="#181818" points="362.8755,764.0508,352.8755,768.0508,362.8755,772.0508,358.8755,768.0508" style="stroke:#181818;stroke-width:1;"/><text fill="#000000" font-family="sans-serif" font-size="13" lengthAdjust="spacing" textLength="174.7256" x="358.8755" y="734.998">Decode with ImageIO.read()</text><text fill="#000000" font-family="sans-serif" font-size="13" lengthAdjust="spacing" textLength="113.2231" x="358.8755" y="750.3086">(verify real image)</text></g><path d="M60,783.0508 L122.1387,783.0508 L122.1387,790.3613 L112.1387,800.3613 L60,800.3613 L60,783.0508" fill="#EEEEEE" style="stroke:#000000;stroke-width:1.5;"/><rect fill="none" height="482.5449" style="stroke:#000000;stroke-width:1.5;" width="518.7573" x="60" y="783.0508"/><text fill="#000000" font-family="sans-serif" font-size="13" font-weight="bold" lengthAdjust="spacing" textLength="17.1387" x="75" y="796.6191">alt</text><text fill="#000000" font-family="sans-serif" font-size="11" font-weight="bold" lengthAdjust="spacing" textLength="167.3418" x="137.1387" y="795.6855">[Image Decodes Successfully]</text><g class="message" data-entity-1="part2" data-entity-2="part2" id="msg8"><line style="stroke:#181818;stroke-width:1;" x1="351.8755" x2="393.8755" y1="852.293" y2="852.293"/><line style="stroke:#181818;stroke-width:1;" x1="393.8755" x2="393.8755" y1="852.293" y2="865.293"/><line style="stroke:#181818;stroke-width:1;" x1="352.8755" x2="393.8755" y1="865.293" y2="865.293"/><polygon fill="#181818" points="362.8755,861.293,352.8755,865.293,362.8755,869.293,358.8755,865.293" style="stroke:#181818;stroke-width:1;"/><text fill="#000000" font-family="sans-serif" font-size="13" lengthAdjust="spacing" textLength="110.8999" x="358.8755" y="816.9297">Re-encode image</text><text fill="#000000" font-family="sans-serif" font-size="13" lengthAdjust="spacing" textLength="130.0381" x="358.8755" y="832.2402">(strip EXIF metadata,</text><text fill="#000000" font-family="sans-serif" font-size="13" lengthAdjust="spacing" textLength="197.8818" x="358.8755" y="847.5508">neutralize embedded payloads)</text></g><g class="message" data-entity-1="part2" data-entity-2="part2" id="msg9"><line style="stroke:#181818;stroke-width:1;" x1="351.8755" x2="393.8755" y1="909.9141" y2="909.9141"/><line style="stroke:#181818;stroke-width:1;" x1="393.8755" x2="393.8755" y1="909.9141" y2="922.9141"/><line style="stroke:#181818;stroke-width:1;" x1="352.8755" x2="393.8755" y1="922.9141" y2="922.9141"/><polygon fill="#181818" points="362.8755,918.9141,352.8755,922.9141,362.8755,926.9141,358.8755,922.9141" style="stroke:#181818;stroke-width:1;"/><text fill="#000000" font-family="sans-serif" font-size="13" lengthAdjust="spacing" textLength="150.4395" x="358.8755" y="889.8613">Generate UUID filename</text><text fill="#000000" font-family="sans-serif" font-size="13" lengthAdjust="spacing" textLength="164.6836" x="358.8755" y="905.1719">(discard original filename)</text></g><g class="message" data-entity-1="part2" data-entity-2="part2" id="msg10"><line style="stroke:#181818;stroke-width:1;" x1="351.8755" x2="393.8755" y1="967.5352" y2="967.5352"/><line style="stroke:#181818;stroke-width:1;" x1="393.8755" x2="393.8755" y1="967.5352" y2="980.5352"/><line style="stroke:#181818;stroke-width:1;" x1="352.8755" x2="393.8755" y1="980.5352" y2="980.5352"/><polygon fill="#181818" points="362.8755,976.5352,352.8755,980.5352,362.8755,984.5352,358.8755,980.5352" style="stroke:#181818;stroke-width:1;"/><text fill="#000000" font-family="sans-serif" font-size="13" lengthAdjust="spacing" textLength="152.7056" x="358.8755" y="947.4824">Store re-encoded image</text><text fill="#000000" font-family="sans-serif" font-size="13" lengthAdjust="spacing" textLength="153.8418" x="358.8755" y="962.793">(POSIX 644 permissions)</text></g><g class="message" data-entity-1="part2" data-entity-2="part2" id="msg11"><line style="stroke:#181818;stroke-width:1;" x1="351.8755" x2="393.8755" y1="1009.8457" y2="1009.8457"/><line style="stroke:#181818;stroke-width:1;" x1="393.8755" x2="393.8755" y1="1009.8457" y2="1022.8457"/><line style="stroke:#181818;stroke-width:1;" x1="352.8755" x2="393.8755" y1="1022.8457" y2="1022.8457"/><polygon fill="#181818" points="362.8755,1018.8457,352.8755,1022.8457,362.8755,1026.8457,358.8755,1022.8457" style="stroke:#181818;stroke-width:1;"/><text fill="#000000" font-family="sans-serif" font-size="13" lengthAdjust="spacing" textLength="139.8135" x="358.8755" y="1005.1035">Persist product record</text></g><g class="message" data-entity-1="part2" data-entity-2="part2" id="msg12"><line style="stroke:#181818;stroke-width:1;" x1="351.8755" x2="393.8755" y1="1067.4668" y2="1067.4668"/><line style="stroke:#181818;stroke-width:1;" x1="393.8755" x2="393.8755" y1="1067.4668" y2="1080.4668"/><line style="stroke:#181818;stroke-width:1;" x1="352.8755" x2="393.8755" y1="1080.4668" y2="1080.4668"/><polygon fill="#181818" points="362.8755,1076.4668,352.8755,1080.4668,362.8755,1084.4668,358.8755,1080.4668" style="stroke:#181818;stroke-width:1;"/><text fill="#000000" font-family="sans-serif" font-size="13" lengthAdjust="spacing" textLength="118.0283" x="358.8755" y="1047.4141">Record audit event</text><text fill="#000000" font-family="sans-serif" font-size="13" lengthAdjust="spacing" textLength="134.6528" x="358.8755" y="1062.7246">(PRODUCT_CREATED)</text></g><g class="message" data-entity-1="part2" data-entity-2="part1" id="msg13"><polygon fill="#181818" points="130.8604,1121.0879,120.8604,1125.0879,130.8604,1129.0879,126.8604,1125.0879" style="stroke:#181818;stroke-width:1;"/><line style="stroke:#181818;stroke-width:1;stroke-dasharray:2,2;" x1="124.8604" x2="340.8755" y1="1125.0879" y2="1125.0879"/><text fill="#000000" font-family="sans-serif" font-size="13" lengthAdjust="spacing" textLength="77.7969" x="136.8604" y="1105.0352">201 Created</text><text fill="#000000" font-family="sans-serif" font-size="13" lengthAdjust="spacing" textLength="164.9502" x="136.8604" y="1120.3457">{product DTO + imageUrl}</text></g><line style="stroke:#000000;stroke-width:1;stroke-dasharray:2,2;" x1="60" x2="578.7573" y1="1134.0879" y2="1134.0879"/><text fill="#000000" font-family="sans-serif" font-size="11" font-weight="bold" lengthAdjust="spacing" textLength="153.2104" x="65" y="1144.7227">[Corrupt / Non-Image File]</text><g class="message" data-entity-1="part2" data-entity-2="part2" id="msg14"><line style="stroke:#181818;stroke-width:1;" x1="351.8755" x2="393.8755" y1="1184.6641" y2="1184.6641"/><line style="stroke:#181818;stroke-width:1;" x1="393.8755" x2="393.8755" y1="1184.6641" y2="1197.6641"/><line style="stroke:#181818;stroke-width:1;" x1="352.8755" x2="393.8755" y1="1197.6641" y2="1197.6641"/><polygon fill="#181818" points="362.8755,1193.6641,352.8755,1197.6641,362.8755,1201.6641,358.8755,1197.6641" style="stroke:#181818;stroke-width:1;"/><text fill="#000000" font-family="sans-serif" font-size="13" lengthAdjust="spacing" textLength="114.7212" x="358.8755" y="1164.6113">Log security event</text><text fill="#000000" font-family="sans-serif" font-size="13" lengthAdjust="spacing" textLength="173.6846" x="358.8755" y="1179.9219">(CORRUPT_IMAGE_UPLOAD)</text></g><g class="message" data-entity-1="part2" data-entity-2="part1" id="msg15"><polygon fill="#181818" points="130.8604,1253.5957,120.8604,1257.5957,130.8604,1261.5957,126.8604,1257.5957" style="stroke:#181818;stroke-width:1;"/><line style="stroke:#181818;stroke-width:1;stroke-dasharray:2,2;" x1="124.8604" x2="340.8755" y1="1257.5957" y2="1257.5957"/><text fill="#000000" font-family="sans-serif" font-size="13" lengthAdjust="spacing" textLength="106.1709" x="136.8604" y="1222.2324">400 Bad Request</text><text fill="#000000" font-family="sans-serif" font-size="13" lengthAdjust="spacing" textLength="108.3799" x="136.8604" y="1237.543">(File is corrupt or</text><text fill="#000000" font-family="sans-serif" font-size="13" lengthAdjust="spacing" textLength="112.6899" x="136.8604" y="1252.8535">not a valid image)</text></g><line style="stroke:#000000;stroke-width:1;stroke-dasharray:2,2;" x1="50" x2="588.7573" y1="1273.5957" y2="1273.5957"/><text fill="#000000" font-family="sans-serif" font-size="11" font-weight="bold" lengthAdjust="spacing" textLength="141.9688" x="55" y="1284.2305">[Disguised File Detected]</text><g class="message" data-entity-1="part2" data-entity-2="part2" id="msg16"><line style="stroke:#181818;stroke-width:1;" x1="351.8755" x2="393.8755" y1="1324.1719" y2="1324.1719"/><line style="stroke:#181818;stroke-width:1;" x1="393.8755" x2="393.8755" y1="1324.1719" y2="1337.1719"/><line style="stroke:#181818;stroke-width:1;" x1="352.8755" x2="393.8755" y1="1337.1719" y2="1337.1719"/><polygon fill="#181818" points="362.8755,1333.1719,352.8755,1337.1719,362.8755,1341.1719,358.8755,1337.1719" style="stroke:#181818;stroke-width:1;"/><text fill="#000000" font-family="sans-serif" font-size="13" lengthAdjust="spacing" textLength="114.7212" x="358.8755" y="1304.1191">Log security event</text><text fill="#000000" font-family="sans-serif" font-size="13" lengthAdjust="spacing" textLength="164.4932" x="358.8755" y="1319.4297">(DISGUISED_FILE_UPLOAD)</text></g><g class="message" data-entity-1="part2" data-entity-2="part1" id="msg17"><polygon fill="#181818" points="130.8604,1393.1035,120.8604,1397.1035,130.8604,1401.1035,126.8604,1397.1035" style="stroke:#181818;stroke-width:1;"/><line style="stroke:#181818;stroke-width:1;stroke-dasharray:2,2;" x1="124.8604" x2="340.8755" y1="1397.1035" y2="1397.1035"/><text fill="#000000" font-family="sans-serif" font-size="13" lengthAdjust="spacing" textLength="106.1709" x="136.8604" y="1361.7402">400 Bad Request</text><text fill="#000000" font-family="sans-serif" font-size="13" lengthAdjust="spacing" textLength="136.9951" x="136.8604" y="1377.0508">(File content does not</text><text fill="#000000" font-family="sans-serif" font-size="13" lengthAdjust="spacing" textLength="132.0439" x="136.8604" y="1392.3613">match image format)</text></g><line style="stroke:#000000;stroke-width:1;stroke-dasharray:2,2;" x1="40" x2="598.7573" y1="1413.1035" y2="1413.1035"/><text fill="#000000" font-family="sans-serif" font-size="11" font-weight="bold" lengthAdjust="spacing" textLength="140.6206" x="45" y="1423.7383">[Unsupported Extension]</text><g class="message" data-entity-1="part2" data-entity-2="part1" id="msg18"><polygon fill="#181818" points="130.8604,1459.6797,120.8604,1463.6797,130.8604,1467.6797,126.8604,1463.6797" style="stroke:#181818;stroke-width:1;"/><line style="stroke:#181818;stroke-width:1;stroke-dasharray:2,2;" x1="124.8604" x2="340.8755" y1="1463.6797" y2="1463.6797"/><text fill="#000000" font-family="sans-serif" font-size="13" lengthAdjust="spacing" textLength="106.1709" x="136.8604" y="1443.627">400 Bad Request</text><text fill="#000000" font-family="sans-serif" font-size="13" lengthAdjust="spacing" textLength="138.2773" x="136.8604" y="1458.9375">(Only JPG, PNG, WebP)</text></g><line style="stroke:#000000;stroke-width:1;stroke-dasharray:2,2;" x1="30" x2="608.7573" y1="1479.6797" y2="1479.6797"/><text fill="#000000" font-family="sans-serif" font-size="11" font-weight="bold" lengthAdjust="spacing" textLength="88.5264" x="35" y="1490.3145">[File Too Large]</text><g class="message" data-entity-1="part2" data-entity-2="part1" id="msg19"><polygon fill="#181818" points="130.8604,1526.2559,120.8604,1530.2559,130.8604,1534.2559,126.8604,1530.2559" style="stroke:#181818;stroke-width:1;"/><line style="stroke:#181818;stroke-width:1;stroke-dasharray:2,2;" x1="124.8604" x2="340.8755" y1="1530.2559" y2="1530.2559"/><text fill="#000000" font-family="sans-serif" font-size="13" lengthAdjust="spacing" textLength="144.2314" x="136.8604" y="1510.2031">413 Payload Too Large</text><text fill="#000000" font-family="sans-serif" font-size="13" lengthAdjust="spacing" textLength="69.9258" x="136.8604" y="1525.5137">(Max 5 MB)</text></g><line style="stroke:#000000;stroke-width:1;stroke-dasharray:2,2;" x1="20" x2="618.7573" y1="1546.2559" y2="1546.2559"/><text fill="#000000" font-family="sans-serif" font-size="11" font-weight="bold" lengthAdjust="spacing" textLength="79.9272" x="25" y="1556.8906">[Input Invalid]</text><g class="message" data-entity-1="part2" data-entity-2="part1" id="msg20"><polygon fill="#181818" points="130.8604,1592.832,120.8604,1596.832,130.8604,1600.832,126.8604,1596.832" style="stroke:#181818;stroke-width:1;"/><line style="stroke:#181818;stroke-width:1;stroke-dasharray:2,2;" x1="124.8604" x2="340.8755" y1="1596.832" y2="1596.832"/><text fill="#000000" font-family="sans-serif" font-size="13" lengthAdjust="spacing" textLength="106.1709" x="136.8604" y="1576.7793">400 Bad Request</text><text fill="#000000" font-family="sans-serif" font-size="13" lengthAdjust="spacing" textLength="113.6104" x="136.8604" y="1592.0898">(Validation errors)</text></g><line style="stroke:#000000;stroke-width:1;stroke-dasharray:2,2;" x1="10" x2="628.7573" y1="1612.832" y2="1612.832"/><text fill="#000000" font-family="sans-serif" font-size="11" font-weight="bold" lengthAdjust="spacing" textLength="84.686" x="15" y="1623.4668">[Unauthorized]</text><g class="message" data-entity-1="part2" data-entity-2="part1" id="msg21"><polygon fill="#181818" points="130.8604,1659.4082,120.8604,1663.4082,130.8604,1667.4082,126.8604,1663.4082" style="stroke:#181818;stroke-width:1;"/><line style="stroke:#181818;stroke-width:1;stroke-dasharray:2,2;" x1="124.8604" x2="340.8755" y1="1663.4082" y2="1663.4082"/><text fill="#000000" font-family="sans-serif" font-size="13" lengthAdjust="spacing" textLength="92.6631" x="136.8604" y="1643.3555">403 Forbidden</text><text fill="#000000" font-family="sans-serif" font-size="13" lengthAdjust="spacing" textLength="198.0151" x="136.8604" y="1658.666">(Administrator access required)</text></g><?plantuml-src fLRRRjj647tdLmnS891GERKRDmy64a0t6mmaYz0b3b0LndevahPTxZAxIpjgKQ0VaI_CbtHsISfM9QLHomTA96VFd3ESEKidd4Je6cGE8J4wBRY3H-5M46TiYJ3BfMOfD0RuW1BEc_3bhy_m7bLwWowA67VQm4axpOGIrXb6boV0B8GxKPGpumGNELCEJgfLC5bRXra8gszzDn3BbUl80gCeB8NJj_N3ovfTNhARguPY6ROWHSkDo9tGgaKF1SVMN76AN6gpRe48_1T2OdEkVcuNRgMD-9tvy4le83DeuDtjz1SlGZpu11jPDQtd9DupAL8VHMlWnLmze16BDRHxm_W6Z9R4d4a7THwaceLdyMGwRaz7un3JZ2AWuwlubKoW2xRH6kJ1MpZRalYi0XMofn2hl70bNddpKCg-McZ3ong19SuWHIPyWJFs2Nw2OQVv1E2HhtpWn0VUKeVGMnhu-ASOVxnv0nFaXS6gWIfTH14IaQCK2YbcUyq-SjqLyjzAQlZ9eRA4C5UFA-48mtgIBt_DbosWC_gVNFdp8zxdpMrmJxnV8q1RIls8wNR88GvZfDOd5OB3_TgXfQGBOQo3yzVb3Ugi5y2DjlQK1xvioOJoxBXa8gCcs73VpUY93GDunsFHVyVhiRlI9cDkTyqXfZtaEiLdWnkFNjBKf0rYsAXQbQvbEHND_S2XUKBw4ix2fE0ShLqKKgxthpbSkbDKWLF8I2p87aGE_G_n5MJec6zlQcQ51Tc6z3s5sJscATKiPsjlEhPvLCPhL6Zy0CrcSIyqZXyTIfmAovb9WSPoAHJLe7vs7Fw4l0sfY9MkT2Ci6KtY3_3wuW9oD9cm_cqVoJr1OwcfDxDlgFucFRBWVWcm8XKEoAoL7v5aFEhDkjExxhZVdlPxtq2A88C1NyAFP-ULywPpzKVDh3STmVUbz9cHV-vl2fIMzXHjJ94x-05kj3gjsfegVvIgWLw2zNOYt7gZgZiQZsV9z2uUjg_xTxDaC6eV9-tYx0mwDDfZ_5XWy9BWRC82hqXhGwsf7J1uyFvLZyrUiMgFcuGAz8HT5i9IgmJu7ZhaLCteVudlnPFhMJpfz-wkui7NrN-xSguLsHJjEPg6ddJFLHRCgDf3WndjvjXH7bJFb2toN1jI-kIxqN_YDb9o3U-IwnOaDtIwnVjacyKMWv0zo9bg3GDcbXZzMyhpLv2KRlEqY18FD_lVJgQGfTnYOnMQ8pfAqxFz48tHfdAAW5_LZss-8QA3iA_y5d4lo2zfLsniVO012wPD9lAn40RJPXJ0K_pdXyxV?></g></svg>