<?plantuml 1.2026.2?><svg xmlns="http://www.w3.org/2000/svg" xmlns:xlink="http://www.w3.org/1999/xlink" contentStyleType="text/css" data-diagram-type="SEQUENCE" height="2203px" preserveAspectRatio="none" style="width:1358px;height:2203px;background:#FFFFFF;" version="1.1" viewBox="0 0 1358 2203" width="1358px" zoomAndPan="magnify"><title>User Authentication (Level 3) &#8212; VendNet</title><defs/><g><text fill="#000000" font-family="sans-serif" font-size="14" font-weight="bold" lengthAdjust="spacing" textLength="294.0137" x="533.0554" y="28.5352">User Authentication (Level 3) &#8212; VendNet</text><rect fill="#ADD8E6" height="2154.4668" style="stroke:#181818;stroke-width:0.5;" width="130.084" x="282.3691" y="43.4883"/><text fill="#000000" font-family="sans-serif" font-size="13" font-weight="bold" lengthAdjust="spacing" textLength="124.084" x="285.3691" y="56.0566">Interface Adapters</text><rect fill="#FFFFE0" height="2154.4668" style="stroke:#181818;stroke-width:0.5;" width="315.6636" x="475.2388" y="43.4883"/><text fill="#000000" font-family="sans-serif" font-size="13" font-weight="bold" lengthAdjust="spacing" textLength="135.2178" x="565.4617" y="56.0566">Application Services</text><rect fill="#90EE90" height="2154.4668" style="stroke:#181818;stroke-width:0.5;" width="118.9385" x="814.8467" y="43.4883"/><text fill="#000000" font-family="sans-serif" font-size="13" font-weight="bold" lengthAdjust="spacing" textLength="51.6255" x="848.5032" y="56.0566">Domain</text><rect fill="#F08080" height="2154.4668" style="stroke:#181818;stroke-width:0.5;" width="124.4912" x="1010.189" y="43.4883"/><text fill="#000000" font-family="sans-serif" font-size="13" font-weight="bold" lengthAdjust="spacing" textLength="93.1074" x="1025.8809" y="56.0566">Infrastructure</text><g><title>AuthController</title><rect fill="#FFFFFF" height="1909.8926" style="stroke:#181818;stroke-width:1;" width="10" x="342.4111" y="182.0859"/></g><g><title>AuthenticationService</title><rect fill="#FFFFFF" height="1549.5664" style="stroke:#181818;stroke-width:1;" width="10" x="554.6636" y="308.6387"/></g><g><title>JwtTokenProvider</title><rect fill="#FFFFFF" height="159.8633" style="stroke:#181818;stroke-width:1;" width="10" x="715.8022" y="954.4023"/></g><g><title>User Aggregate</title><rect fill="#FFFFFF" height="29.3105" style="stroke:#181818;stroke-width:1;" width="10" x="869.3159" y="471.8125"/></g><g><title>User Aggregate</title><rect fill="#FFFFFF" height="53.6211" style="stroke:#181818;stroke-width:1;" width="10" x="869.3159" y="584.0547"/></g><g><title>User Aggregate</title><rect fill="#FFFFFF" height="153.5527" style="stroke:#181818;stroke-width:1;" width="10" x="869.3159" y="682.2969"/></g><g><title>UserRepository</title><rect fill="#FFFFFF" height="177.1738" style="stroke:#181818;stroke-width:1;" width="10" x="1067.4346" y="353.2598"/></g><g><title>UserRepository</title><rect fill="#FFFFFF" height="44.6211" style="stroke:#181818;stroke-width:1;" width="10" x="1067.4346" y="865.1602"/></g><g><title>MySQL Database</title><rect fill="#FFFFFF" height="29.3105" style="stroke:#181818;stroke-width:1;" width="10" x="1246.9502" y="397.8809"/></g><rect fill="none" height="1830.2715" style="stroke:#000000;stroke-width:1.5;" width="1341.1245" x="10" y="254.707"/><rect fill="none" height="1488.2793" style="stroke:#000000;stroke-width:1.5;" width="1321.1245" x="20" y="545.4336"/><rect fill="none" height="1296.4609" style="stroke:#000000;stroke-width:1.5;" width="1301.1245" x="30" y="599.0547"/><rect fill="none" height="986.0898" style="stroke:#000000;stroke-width:1.5;" width="1281.1245" x="40" y="754.918"/><rect fill="none" height="398.3027" style="stroke:#000000;stroke-width:1.5;" width="1090.6802" x="50" y="1335.7051"/><g class="participant-lifeline" data-entity-uid="part1" data-qualified-name="User" id="part1-lifeline"><g><title>User</title><rect fill="#000000" fill-opacity="0.00000" height="1966.5137" width="8" x="156.2617" y="135.4648"/><line style="stroke:#181818;stroke-width:0.5;stroke-dasharray:5,5;" x1="160" x2="160" y1="135.4648" y2="2101.9785"/></g></g><g class="participant-lifeline" data-entity-uid="part2" data-qualified-name="Controller" id="part2-lifeline"><g><title>AuthController</title><rect fill="#000000" fill-opacity="0.00000" height="1966.5137" width="8" x="343.4111" y="135.4648"/><line style="stroke:#181818;stroke-width:0.5;stroke-dasharray:5,5;" x1="347.1943" x2="347.1943" y1="135.4648" y2="2101.9785"/></g></g><g class="participant-lifeline" data-entity-uid="part3" data-qualified-name="AuthService" id="part3-lifeline"><g><title>AuthenticationService</title><rect fill="#000000" fill-opacity="0.00000" height="1966.5137" width="8" x="555.6636" y="135.4648"/><line style="stroke:#181818;stroke-width:0.5;stroke-dasharray:5,5;" x1="559.2388" x2="559.2388" y1="135.4648" y2="2101.9785"/></g></g><g class="participant-lifeline" data-entity-uid="part4" data-qualified-name="JwtProvider" id="part4-lifeline"><g><title>JwtTokenProvider</title><rect fill="#000000" fill-opacity="0.00000" height="1966.5137" width="8" x="716.8022" y="135.4648"/><line style="stroke:#181818;stroke-width:0.5;stroke-dasharray:5,5;" x1="720.7021" x2="720.7021" y1="135.4648" y2="2101.9785"/></g></g><g class="participant-lifeline" data-entity-uid="part5" data-qualified-name="UserEntity" id="part5-lifeline"><g><title>User Aggregate</title><rect fill="#000000" fill-opacity="0.00000" height="1966.5137" width="8" x="870.3159" y="135.4648"/><line style="stroke:#181818;stroke-width:0.5;stroke-dasharray:5,5;" x1="873.8467" x2="873.8467" y1="135.4648" y2="2101.9785"/></g></g><g class="participant-lifeline" data-entity-uid="part6" data-qualified-name="UserRepo" id="part6-lifeline"><g><title>UserRepository</title><rect fill="#000000" fill-opacity="0.00000" height="1966.5137" width="8" x="1068.4346" y="135.4648"/><line style="stroke:#181818;stroke-width:0.5;stroke-dasharray:5,5;" x1="1072.189" x2="1072.189" y1="135.4648" y2="2101.9785"/></g></g><g class="participant-lifeline" data-entity-uid="part7" data-qualified-name="DB" id="part7-lifeline"><g><title>MySQL Database</title><rect fill="#000000" fill-opacity="0.00000" height="1966.5137" width="8" x="1247.9502" y="135.4648"/><line style="stroke:#181818;stroke-width:0.5;stroke-dasharray:5,5;" x1="1251.7759" x2="1251.7759" y1="135.4648" y2="2101.9785"/></g></g><g class="participant participant-head" data-entity-uid="part1" data-qualified-name="User" id="part1-head"><text fill="#000000" font-family="sans-serif" font-size="14" lengthAdjust="spacing" textLength="30.3652" x="142.0791" y="116.0234">User</text><text fill="#000000" font-family="sans-serif" font-size="14" lengthAdjust="spacing" textLength="194.5234" x="60" y="132.5117">(Customer/Operator/Admin)</text><ellipse cx="160.2617" cy="50.9883" fill="#E2E2F0" rx="8" ry="8" style="stroke:#181818;stroke-width:0.5;"/><path d="M160.2617,58.9883 L160.2617,85.9883 M147.2617,66.9883 L173.2617,66.9883 M160.2617,85.9883 L147.2617,100.9883 M160.2617,85.9883 L173.2617,100.9883" fill="none" style="stroke:#181818;stroke-width:0.5;"/></g><g class="participant participant-tail" data-entity-uid="part1" data-qualified-name="User" id="part1-tail"><text fill="#000000" font-family="sans-serif" font-size="14" lengthAdjust="spacing" textLength="30.3652" x="142.0791" y="2114.5137">User</text><text fill="#000000" font-family="sans-serif" font-size="14" lengthAdjust="spacing" textLength="194.5234" x="60" y="2131.002">(Customer/Operator/Admin)</text><ellipse cx="160.2617" cy="2142.4551" fill="#E2E2F0" rx="8" ry="8" style="stroke:#181818;stroke-width:0.5;"/><path d="M160.2617,2150.4551 L160.2617,2177.4551 M147.2617,2158.4551 L173.2617,2158.4551 M160.2617,2177.4551 L147.2617,2192.4551 M160.2617,2177.4551 L173.2617,2192.4551" fill="none" style="stroke:#181818;stroke-width:0.5;"/></g><g class="participant participant-head" data-entity-uid="part2" data-qualified-name="Controller" id="part2-head"><rect fill="#E2E2F0" height="30.4883" rx="2.5" ry="2.5" style="stroke:#181818;stroke-width:0.5;" width="114.4336" x="290.1943" y="103.9766"/><text fill="#000000" font-family="sans-serif" font-size="14" lengthAdjust="spacing" textLength="100.4336" x="297.1943" y="124.5117">AuthController</text></g><g class="participant participant-tail" data-entity-uid="part2" data-qualified-name="Controller" id="part2-tail"><rect fill="#E2E2F0" height="30.4883" rx="2.5" ry="2.5" style="stroke:#181818;stroke-width:0.5;" width="114.4336" x="290.1943" y="2100.9785"/><text fill="#000000" font-family="sans-serif" font-size="14" lengthAdjust="spacing" textLength="100.4336" x="297.1943" y="2121.5137">AuthController</text></g><g class="participant participant-head" data-entity-uid="part3" data-qualified-name="AuthService" id="part3-head"><rect fill="#E2E2F0" height="30.4883" rx="2.5" ry="2.5" style="stroke:#181818;stroke-width:0.5;" width="160.8496" x="479.2388" y="103.9766"/><text fill="#000000" font-family="sans-serif" font-size="14" lengthAdjust="spacing" textLength="146.8496" x="486.2388" y="124.5117">AuthenticationService</text></g><g class="participant participant-tail" data-entity-uid="part3" data-qualified-name="AuthService" id="part3-tail"><rect fill="#E2E2F0" height="30.4883" rx="2.5" ry="2.5" style="stroke:#181818;stroke-width:0.5;" width="160.8496" x="479.2388" y="2100.9785"/><text fill="#000000" font-family="sans-serif" font-size="14" lengthAdjust="spacing" textLength="146.8496" x="486.2388" y="2121.5137">AuthenticationService</text></g><g class="participant participant-head" data-entity-uid="part4" data-qualified-name="JwtProvider" id="part4-head"><rect fill="#E2E2F0" height="30.4883" rx="2.5" ry="2.5" style="stroke:#181818;stroke-width:0.5;" width="132.2002" x="654.7021" y="103.9766"/><text fill="#000000" font-family="sans-serif" font-size="14" lengthAdjust="spacing" textLength="118.2002" x="661.7021" y="124.5117">JwtTokenProvider</text></g><g class="participant participant-tail" data-entity-uid="part4" data-qualified-name="JwtProvider" id="part4-tail"><rect fill="#E2E2F0" height="30.4883" rx="2.5" ry="2.5" style="stroke:#181818;stroke-width:0.5;" width="132.2002" x="654.7021" y="2100.9785"/><text fill="#000000" font-family="sans-serif" font-size="14" lengthAdjust="spacing" textLength="118.2002" x="661.7021" y="2121.5137">JwtTokenProvider</text></g><g class="participant participant-head" data-entity-uid="part5" data-qualified-name="UserEntity" id="part5-head"><text fill="#000000" font-family="sans-serif" font-size="14" lengthAdjust="spacing" textLength="104.9385" x="818.8467" y="132.5117">User Aggregate</text><ellipse cx="874.3159" cy="102.9766" fill="#E2E2F0" rx="12" ry="12" style="stroke:#181818;stroke-width:0.5;"/><line style="stroke:#181818;stroke-width:0.5;" x1="862.3159" x2="886.3159" y1="116.9766" y2="116.9766"/></g><g class="participant participant-tail" data-entity-uid="part5" data-qualified-name="UserEntity" id="part5-tail"><text fill="#000000" font-family="sans-serif" font-size="14" lengthAdjust="spacing" textLength="104.9385" x="818.8467" y="2114.5137">User Aggregate</text><ellipse cx="874.3159" cy="2133.4668" fill="#E2E2F0" rx="12" ry="12" style="stroke:#181818;stroke-width:0.5;"/><line style="stroke:#181818;stroke-width:0.5;" x1="862.3159" x2="886.3159" y1="2147.4668" y2="2147.4668"/></g><g class="participant participant-head" data-entity-uid="part6" data-qualified-name="UserRepo" id="part6-head"><rect fill="#E2E2F0" height="30.4883" rx="2.5" ry="2.5" style="stroke:#181818;stroke-width:0.5;" width="116.4912" x="1014.189" y="103.9766"/><text fill="#000000" font-family="sans-serif" font-size="14" lengthAdjust="spacing" textLength="102.4912" x="1021.189" y="124.5117">UserRepository</text></g><g class="participant participant-tail" data-entity-uid="part6" data-qualified-name="UserRepo" id="part6-tail"><rect fill="#E2E2F0" height="30.4883" rx="2.5" ry="2.5" style="stroke:#181818;stroke-width:0.5;" width="116.4912" x="1014.189" y="2100.9785"/><text fill="#000000" font-family="sans-serif" font-size="14" lengthAdjust="spacing" textLength="102.4912" x="1021.189" y="2121.5137">UserRepository</text></g><g class="participant participant-head" data-entity-uid="part7" data-qualified-name="DB" id="part7-head"><text fill="#000000" font-family="sans-serif" font-size="14" lengthAdjust="spacing" textLength="112.3486" x="1192.7759" y="132.5117">MySQL Database</text><path d="M1233.9502,82.9766 C1233.9502,72.9766 1251.9502,72.9766 1251.9502,72.9766 C1251.9502,72.9766 1269.9502,72.9766 1269.9502,82.9766 L1269.9502,108.9766 C1269.9502,118.9766 1251.9502,118.9766 1251.9502,118.9766 C1251.9502,118.9766 1233.9502,118.9766 1233.9502,108.9766 L1233.9502,82.9766" fill="#E2E2F0" style="stroke:#181818;stroke-width:0.5;"/><path d="M1233.9502,82.9766 C1233.9502,92.9766 1251.9502,92.9766 1251.9502,92.9766 C1251.9502,92.9766 1269.9502,92.9766 1269.9502,82.9766" fill="none" style="stroke:#181818;stroke-width:0.5;"/></g><g class="participant participant-tail" data-entity-uid="part7" data-qualified-name="DB" id="part7-tail"><text fill="#000000" font-family="sans-serif" font-size="14" lengthAdjust="spacing" textLength="112.3486" x="1192.7759" y="2114.5137">MySQL Database</text><path d="M1233.9502,2127.4668 C1233.9502,2117.4668 1251.9502,2117.4668 1251.9502,2117.4668 C1251.9502,2117.4668 1269.9502,2117.4668 1269.9502,2127.4668 L1269.9502,2153.4668 C1269.9502,2163.4668 1251.9502,2163.4668 1251.9502,2163.4668 C1251.9502,2163.4668 1233.9502,2163.4668 1233.9502,2153.4668 L1233.9502,2127.4668" fill="#E2E2F0" style="stroke:#181818;stroke-width:0.5;"/><path d="M1233.9502,2127.4668 C1233.9502,2137.4668 1251.9502,2137.4668 1251.9502,2137.4668 C1251.9502,2137.4668 1269.9502,2137.4668 1269.9502,2127.4668" fill="none" style="stroke:#181818;stroke-width:0.5;"/></g><g><title>AuthController</title><rect fill="#FFFFFF" height="1909.8926" style="stroke:#181818;stroke-width:1;" width="10" x="342.4111" y="182.0859"/></g><g><title>AuthenticationService</title><rect fill="#FFFFFF" height="1549.5664" style="stroke:#181818;stroke-width:1;" width="10" x="554.6636" y="308.6387"/></g><g><title>JwtTokenProvider</title><rect fill="#FFFFFF" height="159.8633" style="stroke:#181818;stroke-width:1;" width="10" x="715.8022" y="954.4023"/></g><g><title>User Aggregate</title><rect fill="#FFFFFF" height="29.3105" style="stroke:#181818;stroke-width:1;" width="10" x="869.3159" y="471.8125"/></g><g><title>User Aggregate</title><rect fill="#FFFFFF" height="53.6211" style="stroke:#181818;stroke-width:1;" width="10" x="869.3159" y="584.0547"/></g><g><title>User Aggregate</title><rect fill="#FFFFFF" height="153.5527" style="stroke:#181818;stroke-width:1;" width="10" x="869.3159" y="682.2969"/></g><g><title>UserRepository</title><rect fill="#FFFFFF" height="177.1738" style="stroke:#181818;stroke-width:1;" width="10" x="1067.4346" y="353.2598"/></g><g><title>UserRepository</title><rect fill="#FFFFFF" height="44.6211" style="stroke:#181818;stroke-width:1;" width="10" x="1067.4346" y="865.1602"/></g><g><title>MySQL Database</title><rect fill="#FFFFFF" height="29.3105" style="stroke:#181818;stroke-width:1;" width="10" x="1246.9502" y="397.8809"/></g><g class="message" data-entity-1="part1" data-entity-2="part2" id="msg1"><polygon fill="#181818" points="330.4111,178.0859,340.4111,182.0859,330.4111,186.0859,334.4111,182.0859" style="stroke:#181818;stroke-width:1;"/><line style="stroke:#181818;stroke-width:1;" x1="160.2617" x2="336.4111" y1="182.0859" y2="182.0859"/><text fill="#000000" font-family="sans-serif" font-size="13" lengthAdjust="spacing" textLength="110.1064" x="167.2617" y="162.0332">POST /auth/login</text><text fill="#000000" font-family="sans-serif" font-size="13" lengthAdjust="spacing" textLength="138.6836" x="167.2617" y="177.3438">{username, password}</text></g><g class="message" data-entity-1="part2" data-entity-2="part2" id="msg2"><line style="stroke:#181818;stroke-width:1;" x1="352.4111" x2="394.4111" y1="226.707" y2="226.707"/><line style="stroke:#181818;stroke-width:1;" x1="394.4111" x2="394.4111" y1="226.707" y2="239.707"/><line style="stroke:#181818;stroke-width:1;" x1="353.4111" x2="394.4111" y1="239.707" y2="239.707"/><polygon fill="#181818" points="363.4111,235.707,353.4111,239.707,363.4111,243.707,359.4111,239.707" style="stroke:#181818;stroke-width:1;"/><text fill="#000000" font-family="sans-serif" font-size="13" lengthAdjust="spacing" textLength="50.6606" x="359.4111" y="206.6543">Validate</text><text fill="#000000" font-family="sans-serif" font-size="13" lengthAdjust="spacing" textLength="117.4634" x="359.4111" y="221.9648">LoginRequest DTO</text></g><path d="M10,254.707 L72.1387,254.707 L72.1387,262.0176 L62.1387,272.0176 L10,272.0176 L10,254.707" fill="#EEEEEE" style="stroke:#000000;stroke-width:1.5;"/><rect fill="none" height="1830.2715" style="stroke:#000000;stroke-width:1.5;" width="1341.1245" x="10" y="254.707"/><text fill="#000000" font-family="sans-serif" font-size="13" font-weight="bold" lengthAdjust="spacing" textLength="17.1387" x="25" y="268.2754">alt</text><text fill="#000000" font-family="sans-serif" font-size="11" font-weight="bold" lengthAdjust="spacing" textLength="70.2163" x="87.1387" y="267.3418">[Input Valid]</text><g class="message" data-entity-1="part2" data-entity-2="part3" id="msg3"><polygon fill="#181818" points="542.6636,304.6387,552.6636,308.6387,542.6636,312.6387,546.6636,308.6387" style="stroke:#181818;stroke-width:1;"/><line style="stroke:#181818;stroke-width:1;" x1="352.4111" x2="548.6636" y1="308.6387" y2="308.6387"/><text fill="#000000" font-family="sans-serif" font-size="13" lengthAdjust="spacing" textLength="78.0508" x="359.4111" y="288.5859">authenticate</text><text fill="#000000" font-family="sans-serif" font-size="13" lengthAdjust="spacing" textLength="138.6836" x="359.4111" y="303.8965">(username, password)</text></g><g class="message" data-entity-1="part3" data-entity-2="part6" id="msg4"><polygon fill="#181818" points="1055.4346,349.2598,1065.4346,353.2598,1055.4346,357.2598,1059.4346,353.2598" style="stroke:#181818;stroke-width:1;"/><line style="stroke:#181818;stroke-width:1;" x1="564.6636" x2="1061.4346" y1="353.2598" y2="353.2598"/><text fill="#000000" font-family="sans-serif" font-size="13" lengthAdjust="spacing" textLength="101.8799" x="571.6636" y="333.207">findByUsername</text><text fill="#000000" font-family="sans-serif" font-size="13" lengthAdjust="spacing" textLength="70.3384" x="571.6636" y="348.5176">(username)</text></g><g class="message" data-entity-1="part6" data-entity-2="part7" id="msg5"><polygon fill="#181818" points="1234.9502,393.8809,1244.9502,397.8809,1234.9502,401.8809,1238.9502,397.8809" style="stroke:#181818;stroke-width:1;"/><line style="stroke:#181818;stroke-width:1;" x1="1077.4346" x2="1240.9502" y1="397.8809" y2="397.8809"/><text fill="#000000" font-family="sans-serif" font-size="13" lengthAdjust="spacing" textLength="134.2148" x="1084.4346" y="377.8281">SELECT * FROM users</text><text fill="#000000" font-family="sans-serif" font-size="13" lengthAdjust="spacing" textLength="133.0278" x="1084.4346" y="393.1387">WHERE username = ?</text></g><g class="message" data-entity-1="part7" data-entity-2="part6" id="msg6"><polygon fill="#181818" points="1088.4346,423.1914,1078.4346,427.1914,1088.4346,431.1914,1084.4346,427.1914" style="stroke:#181818;stroke-width:1;"/><line style="stroke:#181818;stroke-width:1;stroke-dasharray:2,2;" x1="1082.4346" x2="1250.9502" y1="427.1914" y2="427.1914"/><text fill="#000000" font-family="sans-serif" font-size="13" lengthAdjust="spacing" textLength="69.1133" x="1094.4346" y="422.4492">Result Row</text></g><g class="message" data-entity-1="part6" data-entity-2="part5" id="msg7"><polygon fill="#181818" points="890.3159,467.8125,880.3159,471.8125,890.3159,475.8125,886.3159,471.8125" style="stroke:#181818;stroke-width:1;"/><line style="stroke:#181818;stroke-width:1;" x1="884.3159" x2="1066.4346" y1="471.8125" y2="471.8125"/><text fill="#000000" font-family="sans-serif" font-size="13" lengthAdjust="spacing" textLength="78.457" x="896.3159" y="451.7598">Reconstitute</text><text fill="#000000" font-family="sans-serif" font-size="13" lengthAdjust="spacing" textLength="78.9839" x="896.3159" y="467.0703">from DB row</text></g><g class="message" data-entity-1="part5" data-entity-2="part6" id="msg8"><polygon fill="#181818" points="1055.4346,497.123,1065.4346,501.123,1055.4346,505.123,1059.4346,501.123" style="stroke:#181818;stroke-width:1;"/><line style="stroke:#181818;stroke-width:1;stroke-dasharray:2,2;" x1="874.3159" x2="1061.4346" y1="501.123" y2="501.123"/><text fill="#000000" font-family="sans-serif" font-size="13" lengthAdjust="spacing" textLength="95.6528" x="881.3159" y="496.3809">User aggregate</text></g><g class="message" data-entity-1="part6" data-entity-2="part3" id="msg9"><polygon fill="#181818" points="575.6636,526.4336,565.6636,530.4336,575.6636,534.4336,571.6636,530.4336" style="stroke:#181818;stroke-width:1;"/><line style="stroke:#181818;stroke-width:1;stroke-dasharray:2,2;" x1="569.6636" x2="1071.4346" y1="530.4336" y2="530.4336"/><text fill="#000000" font-family="sans-serif" font-size="13" lengthAdjust="spacing" textLength="102.7559" x="581.6636" y="525.6914">Optional&lt;User&gt;</text></g><path d="M20,545.4336 L82.1387,545.4336 L82.1387,552.7441 L72.1387,562.7441 L20,562.7441 L20,545.4336" fill="#EEEEEE" style="stroke:#000000;stroke-width:1.5;"/><rect fill="none" height="1488.2793" style="stroke:#000000;stroke-width:1.5;" width="1321.1245" x="20" y="545.4336"/><text fill="#000000" font-family="sans-serif" font-size="13" font-weight="bold" lengthAdjust="spacing" textLength="17.1387" x="35" y="559.002">alt</text><text fill="#000000" font-family="sans-serif" font-size="11" font-weight="bold" lengthAdjust="spacing" textLength="72.6226" x="97.1387" y="558.0684">[User Found]</text><g class="message" data-entity-1="part3" data-entity-2="part5" id="msg10"><polygon fill="#181818" points="857.3159,580.0547,867.3159,584.0547,857.3159,588.0547,861.3159,584.0547" style="stroke:#181818;stroke-width:1;"/><line style="stroke:#181818;stroke-width:1;" x1="564.6636" x2="863.3159" y1="584.0547" y2="584.0547"/><text fill="#000000" font-family="sans-serif" font-size="13" lengthAdjust="spacing" textLength="134.5513" x="571.6636" y="579.3125">checkAccountStatus()</text></g><path d="M30,599.0547 L92.1387,599.0547 L92.1387,606.3652 L82.1387,616.3652 L30,616.3652 L30,599.0547" fill="#EEEEEE" style="stroke:#000000;stroke-width:1.5;"/><rect fill="none" height="1296.4609" style="stroke:#000000;stroke-width:1.5;" width="1301.1245" x="30" y="599.0547"/><text fill="#000000" font-family="sans-serif" font-size="13" font-weight="bold" lengthAdjust="spacing" textLength="17.1387" x="45" y="612.623">alt</text><text fill="#000000" font-family="sans-serif" font-size="11" font-weight="bold" lengthAdjust="spacing" textLength="98.9839" x="107.1387" y="611.6895">[Account ACTIVE]</text><g class="message" data-entity-1="part5" data-entity-2="part3" id="msg11"><polygon fill="#181818" points="575.6636,633.6758,565.6636,637.6758,575.6636,641.6758,571.6636,637.6758" style="stroke:#181818;stroke-width:1;"/><line style="stroke:#181818;stroke-width:1;stroke-dasharray:2,2;" x1="569.6636" x2="873.3159" y1="637.6758" y2="637.6758"/><text fill="#000000" font-family="sans-serif" font-size="13" lengthAdjust="spacing" textLength="61.2993" x="581.6636" y="632.9336">Status OK</text></g><g class="message" data-entity-1="part3" data-entity-2="part5" id="msg12"><polygon fill="#181818" points="857.3159,678.2969,867.3159,682.2969,857.3159,686.2969,861.3159,682.2969" style="stroke:#181818;stroke-width:1;"/><line style="stroke:#181818;stroke-width:1;" x1="564.6636" x2="863.3159" y1="682.2969" y2="682.2969"/><text fill="#000000" font-family="sans-serif" font-size="13" lengthAdjust="spacing" textLength="93.7422" x="571.6636" y="662.2441">verifyPassword</text><text fill="#000000" font-family="sans-serif" font-size="13" lengthAdjust="spacing" textLength="68.5737" x="571.6636" y="677.5547">(password)</text></g><g class="message" data-entity-1="part5" data-entity-2="part5" id="msg13"><line style="stroke:#181818;stroke-width:1;" x1="879.3159" x2="921.3159" y1="726.918" y2="726.918"/><line style="stroke:#181818;stroke-width:1;" x1="921.3159" x2="921.3159" y1="726.918" y2="739.918"/><line style="stroke:#181818;stroke-width:1;" x1="880.3159" x2="921.3159" y1="739.918" y2="739.918"/><polygon fill="#181818" points="890.3159,735.918,880.3159,739.918,890.3159,743.918,886.3159,739.918" style="stroke:#181818;stroke-width:1;"/><text fill="#000000" font-family="sans-serif" font-size="13" lengthAdjust="spacing" textLength="104.3936" x="886.3159" y="706.8652">BCrypt.checkpw(</text><text fill="#000000" font-family="sans-serif" font-size="13" lengthAdjust="spacing" textLength="164.1187" x="886.3159" y="722.1758">password, passwordHash)</text></g><path d="M40,754.918 L102.1387,754.918 L102.1387,762.2285 L92.1387,772.2285 L40,772.2285 L40,754.918" fill="#EEEEEE" style="stroke:#000000;stroke-width:1.5;"/><rect fill="none" height="986.0898" style="stroke:#000000;stroke-width:1.5;" width="1281.1245" x="40" y="754.918"/><text fill="#000000" font-family="sans-serif" font-size="13" font-weight="bold" lengthAdjust="spacing" textLength="17.1387" x="55" y="768.4863">alt</text><text fill="#000000" font-family="sans-serif" font-size="11" font-weight="bold" lengthAdjust="spacing" textLength="94.832" x="117.1387" y="767.5527">[Password Valid]</text><g class="message" data-entity-1="part5" data-entity-2="part5" id="msg14"><line style="stroke:#181818;stroke-width:1;" x1="879.3159" x2="921.3159" y1="793.5391" y2="793.5391"/><line style="stroke:#181818;stroke-width:1;" x1="921.3159" x2="921.3159" y1="793.5391" y2="806.5391"/><line style="stroke:#181818;stroke-width:1;" x1="880.3159" x2="921.3159" y1="806.5391" y2="806.5391"/><polygon fill="#181818" points="890.3159,802.5391,880.3159,806.5391,890.3159,810.5391,886.3159,806.5391" style="stroke:#181818;stroke-width:1;"/><text fill="#000000" font-family="sans-serif" font-size="13" lengthAdjust="spacing" textLength="134.583" x="886.3159" y="788.7969">resetFailedAttempts()</text></g><g class="message" data-entity-1="part5" data-entity-2="part3" id="msg15"><polygon fill="#181818" points="575.6636,831.8496,565.6636,835.8496,575.6636,839.8496,571.6636,835.8496" style="stroke:#181818;stroke-width:1;"/><line style="stroke:#181818;stroke-width:1;stroke-dasharray:2,2;" x1="569.6636" x2="873.3159" y1="835.8496" y2="835.8496"/><text fill="#000000" font-family="sans-serif" font-size="13" lengthAdjust="spacing" textLength="48.7817" x="581.6636" y="831.1074">Verified</text></g><g class="message" data-entity-1="part3" data-entity-2="part6" id="msg16"><polygon fill="#181818" points="1055.4346,861.1602,1065.4346,865.1602,1055.4346,869.1602,1059.4346,865.1602" style="stroke:#181818;stroke-width:1;"/><line style="stroke:#181818;stroke-width:1;" x1="564.6636" x2="1061.4346" y1="865.1602" y2="865.1602"/><text fill="#000000" font-family="sans-serif" font-size="13" lengthAdjust="spacing" textLength="63.4893" x="571.6636" y="860.418">save(user)</text></g><g class="message" data-entity-1="part6" data-entity-2="part7" id="msg17"><polygon fill="#181818" points="1239.9502,905.7813,1249.9502,909.7813,1239.9502,913.7813,1243.9502,909.7813" style="stroke:#181818;stroke-width:1;"/><line style="stroke:#181818;stroke-width:1;" x1="1072.4346" x2="1245.9502" y1="909.7813" y2="909.7813"/><text fill="#000000" font-family="sans-serif" font-size="13" lengthAdjust="spacing" textLength="88.1626" x="1079.4346" y="889.7285">UPDATE users</text><text fill="#000000" font-family="sans-serif" font-size="13" lengthAdjust="spacing" textLength="150.5156" x="1079.4346" y="905.0391">SET failed_attempts = 0</text></g><g class="message" data-entity-1="part3" data-entity-2="part4" id="msg18"><polygon fill="#181818" points="703.8022,950.4023,713.8022,954.4023,703.8022,958.4023,707.8022,954.4023" style="stroke:#181818;stroke-width:1;"/><line style="stroke:#181818;stroke-width:1;" x1="564.6636" x2="709.8022" y1="954.4023" y2="954.4023"/><text fill="#000000" font-family="sans-serif" font-size="13" lengthAdjust="spacing" textLength="94.377" x="571.6636" y="934.3496">generateToken</text><text fill="#000000" font-family="sans-serif" font-size="13" lengthAdjust="spacing" textLength="80.1709" x="571.6636" y="949.6602">(userId, role)</text></g><g class="message" data-entity-1="part4" data-entity-2="part4" id="msg19"><line style="stroke:#181818;stroke-width:1;" x1="725.8022" x2="767.8022" y1="999.0234" y2="999.0234"/><line style="stroke:#181818;stroke-width:1;" x1="767.8022" x2="767.8022" y1="999.0234" y2="1012.0234"/><line style="stroke:#181818;stroke-width:1;" x1="726.8022" x2="767.8022" y1="1012.0234" y2="1012.0234"/><polygon fill="#181818" points="736.8022,1008.0234,726.8022,1012.0234,736.8022,1016.0234,732.8022,1012.0234" style="stroke:#181818;stroke-width:1;"/><text fill="#000000" font-family="sans-serif" font-size="13" lengthAdjust="spacing" textLength="102.9717" x="732.8022" y="978.9707">Build JWT claims</text><text fill="#000000" font-family="sans-serif" font-size="13" lengthAdjust="spacing" textLength="119.5137" x="732.8022" y="994.2813">(sub, role, iat, exp)</text></g><g class="message" data-entity-1="part4" data-entity-2="part4" id="msg20"><line style="stroke:#181818;stroke-width:1;" x1="725.8022" x2="767.8022" y1="1056.6445" y2="1056.6445"/><line style="stroke:#181818;stroke-width:1;" x1="767.8022" x2="767.8022" y1="1056.6445" y2="1069.6445"/><line style="stroke:#181818;stroke-width:1;" x1="726.8022" x2="767.8022" y1="1069.6445" y2="1069.6445"/><polygon fill="#181818" points="736.8022,1065.6445,726.8022,1069.6445,736.8022,1073.6445,732.8022,1069.6445" style="stroke:#181818;stroke-width:1;"/><text fill="#000000" font-family="sans-serif" font-size="13" lengthAdjust="spacing" textLength="57.751" x="732.8022" y="1036.5918">Sign with</text><text fill="#000000" font-family="sans-serif" font-size="13" lengthAdjust="spacing" textLength="96.4209" x="732.8022" y="1051.9023">HMAC-SHA256</text></g><g class="message" data-entity-1="part4" data-entity-2="part3" id="msg21"><polygon fill="#181818" points="575.6636,1110.2656,565.6636,1114.2656,575.6636,1118.2656,571.6636,1114.2656" style="stroke:#181818;stroke-width:1;"/><line style="stroke:#181818;stroke-width:1;stroke-dasharray:2,2;" x1="569.6636" x2="719.8022" y1="1114.2656" y2="1114.2656"/><text fill="#000000" font-family="sans-serif" font-size="13" lengthAdjust="spacing" textLength="23.3848" x="581.6636" y="1094.2129">JWT</text><text fill="#000000" font-family="sans-serif" font-size="13" lengthAdjust="spacing" textLength="101.061" x="581.6636" y="1109.5234">+ RefreshToken</text></g><g class="message" data-entity-1="part3" data-entity-2="part6" id="msg22"><polygon fill="#181818" points="1060.4346,1154.8867,1070.4346,1158.8867,1060.4346,1162.8867,1064.4346,1158.8867" style="stroke:#181818;stroke-width:1;"/><line style="stroke:#181818;stroke-width:1;" x1="564.6636" x2="1066.4346" y1="1158.8867" y2="1158.8867"/><text fill="#000000" font-family="sans-serif" font-size="13" lengthAdjust="spacing" textLength="95.564" x="571.6636" y="1138.834">saveAuditEvent</text><text fill="#000000" font-family="sans-serif" font-size="13" lengthAdjust="spacing" textLength="109.7764" x="571.6636" y="1154.1445">(LOGIN_SUCCESS)</text></g><g class="message" data-entity-1="part3" data-entity-2="part2" id="msg23"><polygon fill="#181818" points="363.4111,1199.5078,353.4111,1203.5078,363.4111,1207.5078,359.4111,1203.5078" style="stroke:#181818;stroke-width:1;"/><line style="stroke:#181818;stroke-width:1;stroke-dasharray:2,2;" x1="357.4111" x2="553.6636" y1="1203.5078" y2="1203.5078"/><text fill="#000000" font-family="sans-serif" font-size="13" lengthAdjust="spacing" textLength="68.7451" x="369.4111" y="1183.4551">AuthResult</text><text fill="#000000" font-family="sans-serif" font-size="13" lengthAdjust="spacing" textLength="119.228" x="369.4111" y="1198.7656">(jwt, refreshToken)</text></g><g class="message" data-entity-1="part2" data-entity-2="part1" id="msg24"><polygon fill="#181818" points="171.2617,1259.4395,161.2617,1263.4395,171.2617,1267.4395,167.2617,1263.4395" style="stroke:#181818;stroke-width:1;"/><line style="stroke:#181818;stroke-width:1;stroke-dasharray:2,2;" x1="165.2617" x2="341.4111" y1="1263.4395" y2="1263.4395"/><text fill="#000000" font-family="sans-serif" font-size="13" lengthAdjust="spacing" textLength="47.3599" x="177.2617" y="1228.0762">200 OK</text><text fill="#000000" font-family="sans-serif" font-size="13" lengthAdjust="spacing" textLength="88.4482" x="177.2617" y="1243.3867">{accessToken,</text><text fill="#000000" font-family="sans-serif" font-size="13" lengthAdjust="spacing" textLength="154.3242" x="177.2617" y="1258.6973">refreshToken, expiresIn}</text></g><line style="stroke:#000000;stroke-width:1;stroke-dasharray:2,2;" x1="40" x2="1321.1245" y1="1272.4395" y2="1272.4395"/><text fill="#000000" font-family="sans-serif" font-size="11" font-weight="bold" lengthAdjust="spacing" textLength="104.543" x="45" y="1283.0742">[Password Invalid]</text><g class="message" data-entity-1="part5" data-entity-2="part5" id="msg25"><line style="stroke:#181818;stroke-width:1;" x1="874.3159" x2="916.3159" y1="1307.7051" y2="1307.7051"/><line style="stroke:#181818;stroke-width:1;" x1="916.3159" x2="916.3159" y1="1307.7051" y2="1320.7051"/><line style="stroke:#181818;stroke-width:1;" x1="875.3159" x2="916.3159" y1="1320.7051" y2="1320.7051"/><polygon fill="#181818" points="885.3159,1316.7051,875.3159,1320.7051,885.3159,1324.7051,881.3159,1320.7051" style="stroke:#181818;stroke-width:1;"/><text fill="#000000" font-family="sans-serif" font-size="13" lengthAdjust="spacing" textLength="166.645" x="881.3159" y="1302.9629">incrementFailedAttempts()</text></g><path d="M50,1335.7051 L112.1387,1335.7051 L112.1387,1343.0156 L102.1387,1353.0156 L50,1353.0156 L50,1335.7051" fill="#EEEEEE" style="stroke:#000000;stroke-width:1.5;"/><rect fill="none" height="398.3027" style="stroke:#000000;stroke-width:1.5;" width="1090.6802" x="50" y="1335.7051"/><text fill="#000000" font-family="sans-serif" font-size="13" font-weight="bold" lengthAdjust="spacing" textLength="17.1387" x="65" y="1349.2734">alt</text><text fill="#000000" font-family="sans-serif" font-size="11" font-weight="bold" lengthAdjust="spacing" textLength="199.5684" x="127.1387" y="1348.3398">[failedAttempts &#8805; MAX_ATTEMPTS]</text><g class="message" data-entity-1="part5" data-entity-2="part5" id="msg26"><line style="stroke:#181818;stroke-width:1;" x1="874.3159" x2="916.3159" y1="1374.3262" y2="1374.3262"/><line style="stroke:#181818;stroke-width:1;" x1="916.3159" x2="916.3159" y1="1374.3262" y2="1387.3262"/><line style="stroke:#181818;stroke-width:1;" x1="875.3159" x2="916.3159" y1="1387.3262" y2="1387.3262"/><polygon fill="#181818" points="885.3159,1383.3262,875.3159,1387.3262,885.3159,1391.3262,881.3159,1387.3262" style="stroke:#181818;stroke-width:1;"/><text fill="#000000" font-family="sans-serif" font-size="13" lengthAdjust="spacing" textLength="85.7251" x="881.3159" y="1369.584">lockAccount()</text></g><g class="message" data-entity-1="part5" data-entity-2="part3" id="msg27"><polygon fill="#181818" points="575.6636,1412.6367,565.6636,1416.6367,575.6636,1420.6367,571.6636,1416.6367" style="stroke:#181818;stroke-width:1;"/><line style="stroke:#181818;stroke-width:1;stroke-dasharray:2,2;" x1="569.6636" x2="873.3159" y1="1416.6367" y2="1416.6367"/><text fill="#000000" font-family="sans-serif" font-size="13" lengthAdjust="spacing" textLength="157.644" x="581.6636" y="1411.8945">AccountLockedException</text></g><g class="message" data-entity-1="part3" data-entity-2="part6" id="msg28"><polygon fill="#181818" points="1060.4346,1441.9473,1070.4346,1445.9473,1060.4346,1449.9473,1064.4346,1445.9473" style="stroke:#181818;stroke-width:1;"/><line style="stroke:#181818;stroke-width:1;" x1="564.6636" x2="1066.4346" y1="1445.9473" y2="1445.9473"/><text fill="#000000" font-family="sans-serif" font-size="13" lengthAdjust="spacing" textLength="63.4893" x="571.6636" y="1441.2051">save(user)</text></g><g class="message" data-entity-1="part3" data-entity-2="part6" id="msg29"><polygon fill="#181818" points="1060.4346,1486.5684,1070.4346,1490.5684,1060.4346,1494.5684,1064.4346,1490.5684" style="stroke:#181818;stroke-width:1;"/><line style="stroke:#181818;stroke-width:1;" x1="564.6636" x2="1066.4346" y1="1490.5684" y2="1490.5684"/><text fill="#000000" font-family="sans-serif" font-size="13" lengthAdjust="spacing" textLength="95.564" x="571.6636" y="1470.5156">saveAuditEvent</text><text fill="#000000" font-family="sans-serif" font-size="13" lengthAdjust="spacing" textLength="130.1396" x="571.6636" y="1485.8262">(ACCOUNT_LOCKED)</text></g><g class="message" data-entity-1="part3" data-entity-2="part2" id="msg30"><polygon fill="#181818" points="363.4111,1515.8789,353.4111,1519.8789,363.4111,1523.8789,359.4111,1519.8789" style="stroke:#181818;stroke-width:1;"/><line style="stroke:#181818;stroke-width:1;stroke-dasharray:2,2;" x1="357.4111" x2="553.6636" y1="1519.8789" y2="1519.8789"/><text fill="#000000" font-family="sans-serif" font-size="13" lengthAdjust="spacing" textLength="157.644" x="369.4111" y="1515.1367">AccountLockedException</text></g><g class="message" data-entity-1="part2" data-entity-2="part1" id="msg31"><polygon fill="#181818" points="171.2617,1545.1895,161.2617,1549.1895,171.2617,1553.1895,167.2617,1549.1895" style="stroke:#181818;stroke-width:1;"/><line style="stroke:#181818;stroke-width:1;stroke-dasharray:2,2;" x1="165.2617" x2="341.4111" y1="1549.1895" y2="1549.1895"/><text fill="#000000" font-family="sans-serif" font-size="13" lengthAdjust="spacing" textLength="73.3726" x="177.2617" y="1544.4473">423 Locked</text></g><line style="stroke:#000000;stroke-width:1;stroke-dasharray:2,2;" x1="50" x2="1140.6802" y1="1558.1895" y2="1558.1895"/><text fill="#000000" font-family="sans-serif" font-size="11" font-weight="bold" lengthAdjust="spacing" textLength="102.8403" x="55" y="1568.8242">[Below Threshold]</text><g class="message" data-entity-1="part5" data-entity-2="part3" id="msg32"><polygon fill="#181818" points="575.6636,1589.4551,565.6636,1593.4551,575.6636,1597.4551,571.6636,1593.4551" style="stroke:#181818;stroke-width:1;"/><line style="stroke:#181818;stroke-width:1;stroke-dasharray:2,2;" x1="569.6636" x2="873.3159" y1="1593.4551" y2="1593.4551"/><text fill="#000000" font-family="sans-serif" font-size="13" lengthAdjust="spacing" textLength="162.3159" x="581.6636" y="1588.7129">InvalidPasswordException</text></g><g class="message" data-entity-1="part3" data-entity-2="part6" id="msg33"><polygon fill="#181818" points="1060.4346,1618.7656,1070.4346,1622.7656,1060.4346,1626.7656,1064.4346,1622.7656" style="stroke:#181818;stroke-width:1;"/><line style="stroke:#181818;stroke-width:1;" x1="564.6636" x2="1066.4346" y1="1622.7656" y2="1622.7656"/><text fill="#000000" font-family="sans-serif" font-size="13" lengthAdjust="spacing" textLength="63.4893" x="571.6636" y="1618.0234">save(user)</text></g><g class="message" data-entity-1="part3" data-entity-2="part6" id="msg34"><polygon fill="#181818" points="1060.4346,1663.3867,1070.4346,1667.3867,1060.4346,1671.3867,1064.4346,1667.3867" style="stroke:#181818;stroke-width:1;"/><line style="stroke:#181818;stroke-width:1;" x1="564.6636" x2="1066.4346" y1="1667.3867" y2="1667.3867"/><text fill="#000000" font-family="sans-serif" font-size="13" lengthAdjust="spacing" textLength="95.564" x="571.6636" y="1647.334">saveAuditEvent</text><text fill="#000000" font-family="sans-serif" font-size="13" lengthAdjust="spacing" textLength="98.1284" x="571.6636" y="1662.6445">(LOGIN_FAILED)</text></g><g class="message" data-entity-1="part3" data-entity-2="part2" id="msg35"><polygon fill="#181818" points="363.4111,1692.6973,353.4111,1696.6973,363.4111,1700.6973,359.4111,1696.6973" style="stroke:#181818;stroke-width:1;"/><line style="stroke:#181818;stroke-width:1;stroke-dasharray:2,2;" x1="357.4111" x2="553.6636" y1="1696.6973" y2="1696.6973"/><text fill="#000000" font-family="sans-serif" font-size="13" lengthAdjust="spacing" textLength="174.4272" x="369.4111" y="1691.9551">InvalidCredentialsException</text></g><g class="message" data-entity-1="part2" data-entity-2="part1" id="msg36"><polygon fill="#181818" points="171.2617,1722.0078,161.2617,1726.0078,171.2617,1730.0078,167.2617,1726.0078" style="stroke:#181818;stroke-width:1;"/><line style="stroke:#181818;stroke-width:1;stroke-dasharray:2,2;" x1="165.2617" x2="341.4111" y1="1726.0078" y2="1726.0078"/><text fill="#000000" font-family="sans-serif" font-size="13" lengthAdjust="spacing" textLength="113.9658" x="177.2617" y="1721.2656">401 Unauthorized</text></g><line style="stroke:#000000;stroke-width:1;stroke-dasharray:2,2;" x1="30" x2="1331.1245" y1="1749.0078" y2="1749.0078"/><text fill="#000000" font-family="sans-serif" font-size="11" font-weight="bold" lengthAdjust="spacing" textLength="183.9438" x="35" y="1759.6426">[Account SUSPENDED / LOCKED]</text><g class="message" data-entity-1="part5" data-entity-2="part3" id="msg37"><polygon fill="#181818" points="575.6636,1780.2734,565.6636,1784.2734,575.6636,1788.2734,571.6636,1784.2734" style="stroke:#181818;stroke-width:1;"/><line style="stroke:#181818;stroke-width:1;stroke-dasharray:2,2;" x1="569.6636" x2="873.3159" y1="1784.2734" y2="1784.2734"/><text fill="#000000" font-family="sans-serif" font-size="13" lengthAdjust="spacing" textLength="161.2876" x="581.6636" y="1779.5313">AccountInactiveException</text></g><g class="message" data-entity-1="part3" data-entity-2="part6" id="msg38"><polygon fill="#181818" points="1060.4346,1824.8945,1070.4346,1828.8945,1060.4346,1832.8945,1064.4346,1828.8945" style="stroke:#181818;stroke-width:1;"/><line style="stroke:#181818;stroke-width:1;" x1="564.6636" x2="1066.4346" y1="1828.8945" y2="1828.8945"/><text fill="#000000" font-family="sans-serif" font-size="13" lengthAdjust="spacing" textLength="95.564" x="571.6636" y="1808.8418">saveAuditEvent</text><text fill="#000000" font-family="sans-serif" font-size="13" lengthAdjust="spacing" textLength="166.9688" x="571.6636" y="1824.1523">(LOGIN_DENIED_INACTIVE)</text></g><g class="message" data-entity-1="part3" data-entity-2="part2" id="msg39"><polygon fill="#181818" points="363.4111,1854.2051,353.4111,1858.2051,363.4111,1862.2051,359.4111,1858.2051" style="stroke:#181818;stroke-width:1;"/><line style="stroke:#181818;stroke-width:1;stroke-dasharray:2,2;" x1="357.4111" x2="558.6636" y1="1858.2051" y2="1858.2051"/><text fill="#000000" font-family="sans-serif" font-size="13" lengthAdjust="spacing" textLength="161.2876" x="369.4111" y="1853.4629">AccountInactiveException</text></g><g class="message" data-entity-1="part2" data-entity-2="part1" id="msg40"><polygon fill="#181818" points="171.2617,1883.5156,161.2617,1887.5156,171.2617,1891.5156,167.2617,1887.5156" style="stroke:#181818;stroke-width:1;"/><line style="stroke:#181818;stroke-width:1;stroke-dasharray:2,2;" x1="165.2617" x2="341.4111" y1="1887.5156" y2="1887.5156"/><text fill="#000000" font-family="sans-serif" font-size="13" lengthAdjust="spacing" textLength="92.6631" x="177.2617" y="1882.7734">403 Forbidden</text></g><line style="stroke:#000000;stroke-width:1;stroke-dasharray:2,2;" x1="20" x2="1341.1245" y1="1903.5156" y2="1903.5156"/><text fill="#000000" font-family="sans-serif" font-size="11" font-weight="bold" lengthAdjust="spacing" textLength="96.1855" x="25" y="1914.1504">[User Not Found]</text><g class="message" data-entity-1="part3" data-entity-2="part3" id="msg41"><line style="stroke:#181818;stroke-width:1;" x1="559.6636" x2="601.6636" y1="1954.0918" y2="1954.0918"/><line style="stroke:#181818;stroke-width:1;" x1="601.6636" x2="601.6636" y1="1954.0918" y2="1967.0918"/><line style="stroke:#181818;stroke-width:1;" x1="560.6636" x2="601.6636" y1="1967.0918" y2="1967.0918"/><polygon fill="#181818" points="570.6636,1963.0918,560.6636,1967.0918,570.6636,1971.0918,566.6636,1967.0918" style="stroke:#181818;stroke-width:1;"/><text fill="#000000" font-family="sans-serif" font-size="13" lengthAdjust="spacing" textLength="147.1387" x="566.6636" y="1934.0391">Perform dummy BCrypt</text><text fill="#000000" font-family="sans-serif" font-size="13" lengthAdjust="spacing" textLength="143.3555" x="566.6636" y="1949.3496">(prevent timing attack)</text></g><g class="message" data-entity-1="part3" data-entity-2="part2" id="msg42"><polygon fill="#181818" points="363.4111,1992.4023,353.4111,1996.4023,363.4111,2000.4023,359.4111,1996.4023" style="stroke:#181818;stroke-width:1;"/><line style="stroke:#181818;stroke-width:1;stroke-dasharray:2,2;" x1="357.4111" x2="558.6636" y1="1996.4023" y2="1996.4023"/><text fill="#000000" font-family="sans-serif" font-size="13" lengthAdjust="spacing" textLength="174.4272" x="369.4111" y="1991.6602">InvalidCredentialsException</text></g><g class="message" data-entity-1="part2" data-entity-2="part1" id="msg43"><polygon fill="#181818" points="171.2617,2021.7129,161.2617,2025.7129,171.2617,2029.7129,167.2617,2025.7129" style="stroke:#181818;stroke-width:1;"/><line style="stroke:#181818;stroke-width:1;stroke-dasharray:2,2;" x1="165.2617" x2="341.4111" y1="2025.7129" y2="2025.7129"/><text fill="#000000" font-family="sans-serif" font-size="13" lengthAdjust="spacing" textLength="113.9658" x="177.2617" y="2020.9707">401 Unauthorized</text></g><line style="stroke:#000000;stroke-width:1;stroke-dasharray:2,2;" x1="10" x2="1351.1245" y1="2041.7129" y2="2041.7129"/><text fill="#000000" font-family="sans-serif" font-size="11" font-weight="bold" lengthAdjust="spacing" textLength="79.9272" x="15" y="2052.3477">[Input Invalid]</text><g class="message" data-entity-1="part2" data-entity-2="part1" id="msg44"><polygon fill="#181818" points="171.2617,2072.9785,161.2617,2076.9785,171.2617,2080.9785,167.2617,2076.9785" style="stroke:#181818;stroke-width:1;"/><line style="stroke:#181818;stroke-width:1;stroke-dasharray:2,2;" x1="165.2617" x2="341.4111" y1="2076.9785" y2="2076.9785"/><text fill="#000000" font-family="sans-serif" font-size="13" lengthAdjust="spacing" textLength="106.1709" x="177.2617" y="2072.2363">400 Bad Request</text></g><?plantuml-src rLVDSk964BxhARgS2oHsxDX93bIoAI7aDRiO21BUf8egrrXgOB9Yf8n6O9BQgbnppolanVP9CZEIG182mzPUmedHJ7_zzTVTyoEe2136CN8m4p579gX710qPD7gun01kcl3nht_W0PdVHs4On1CXXpDbCM4DAub5k41-EOYG4pbpQVeBoffdG6ADQXXFuJESTPb0FYKUWkcJIFwFp-2B7ftDHJj8q03vYmYNlcb4c80pnSKAcU1X423NQDkX8Rc0XCsmpIWASj8EyYNrS8F-AmP1kAh7tyQQMMatQYORxvgzMGatV8zioCCbzJDYycC-hZ3hX0j2MSxbDKTa6bDv5kjKH31dCuup8d2ZcQsdArXTDkKa5ZpnHC8nnxH2Je9TdWfbX54OKvcIzGPOVTh2-aIG9n8ZdDsldPzxqCd6UdcdRHYQtiMhWl8j60uS5ow95Eao26UKJTYVYLp6o0BF9OSuNeNS_w2gX2vbJCMiRVzMGHz8G2KRdB2UmXpXxmd60ZhkGDPR8A3BeaIagmmTR1cgaB8Ma6rc9LvZbrnJ8sm85lEjPmeV57YkMmkcbFdjzJW3B61N43TAgw_vG45rsYrmx9vjkV0bt8u6zw0GuWbxTsUFRCZXu4VugOmeaw76dJPSb1YDC4waFAEimdsiMXIzRojB6NeXY-N_H8aqvU52WVCCfnH9LemvMZgiyD25Gl8whdAfGKavLLCtY5Gpak07jUHL7OoMDUKeuzPkRyE4PLMn9tjvqDuSlVUcvqa3uGWYahZHtDZLiTrEIcUP8PYMstsmDrCrkfHYIXt1u6t9ebwTqf83WIoHq-bwcDMpBCHoQHyAQH_jieEsnTUH-5eB5gqQ4vOxs7RH7OddpJ9ZfL9EAcjMgFpsk-GOexWbD43V508NaIXcvnYb7vGg57UT7Y7smRwFoH9rh-_ogU_vAkDY_u-77TEryyPtR1UcEkX7aaKjk__gfH2sRN0WWCAnr88PCdK-epwzigshAzCfDr4y45RnQAikAipjk6idDF3XpJiNl83GXOoq4ITFgRjpe4IS0pv7pPCm7JfZiA9YFc5tzwPruToPrzzzVnYYMYEIqOHz9RU_gQotkHRZaDR5y4-h5pFngR2NyY2IeVS6hxlzHsTiMRRZD0y3LKv6DPVkyXBdjvNKZHUuxs8L3yQCL0kkhwxa1YHFQkB9gr6iJSydh8Yayq7biCi-b4F5GDuGDctTPSiJ6vioZ-D22h7JtBjb9pUGQMaLVFpxNxWtVtaqNTU-7xhEZirXvq6usV5hTfENTfJCiYT1qBUVFTJdKotC_kFkSsmpfvMRQLc3STzzx0sijtRd2BHgpHqVTcsvVNjz0wdnRefrDRLHtid1dQlg2mF_vBnaHPWNvVydC-b6S6jsUv-IboniYwElBhWaY3ybELVVm9YfItB8wHyrfwLy7XZLiL5ANtuJSiREqEvtx0vSGbfhnecTrMKwDrWVnykPErNvZjtlsft7RZ-zn3MD4rlYQBxLH-GBARcHjrZ-H7s_S1njTDUQwwjkFnJPTNUF02MDX_B17V85-CbYiSwkTEgko55f0eBAT_eCvBM3UE-RnkSgmEEBJWUeWqkVTyMZPG_A5RI93zdpqD001T6tHly1?></g></svg>