<svg xmlns="http://www.w3.org/2000/svg" xmlns:xlink="http://www.w3.org/1999/xlink" contentStyleType="text/css" height="638px" preserveAspectRatio="none" style="width:669px;height:638px;background:#FFFFFF;" version="1.1" viewBox="0 0 669 638" width="669px" zoomAndPan="magnify"><title>Create Process (Level 2)</title><defs/><g><text fill="#000000" font-family="sans-serif" font-size="14" font-weight="bold" lengthAdjust="spacing" textLength="162.6406" x="254.2197" y="30.1074">Create Process (Level 2)</text><rect fill="#ADD8E6" height="586.7051" style="stroke:#181818;stroke-width:0.5;" width="417.4155" x="228.6646" y="45.6211"/><text fill="#000000" font-family="sans-serif" font-size="13" font-weight="bold" lengthAdjust="spacing" textLength="70.7764" x="401.9841" y="59.6494">Application</text><rect fill="#FFFFFF" height="384.1719" style="stroke:#181818;stroke-width:1.0;" width="10" x="295.7437" y="156.5332"/><rect fill="#FFFFFF" height="181.0859" style="stroke:#181818;stroke-width:1.0;" width="10" x="582.6216" y="258.4063"/><rect fill="none" height="317.8809" style="stroke:#000000;stroke-width:1.5;" width="652.0801" x="10" y="215.8242"/><rect fill="none" height="205.377" style="stroke:#000000;stroke-width:1.5;" width="632.0801" x="20" y="273.4063"/><line style="stroke:#181818;stroke-width:0.5;stroke-dasharray:5.0,5.0;" x1="47" x2="47" y1="123.2422" y2="550.7051"/><line style="stroke:#181818;stroke-width:0.5;stroke-dasharray:5.0,5.0;" x1="300.6646" x2="300.6646" y1="123.2422" y2="550.7051"/><line style="stroke:#181818;stroke-width:0.5;stroke-dasharray:5.0,5.0;" x1="587.1631" x2="587.1631" y1="123.2422" y2="550.7051"/><text fill="#000000" font-family="sans-serif" font-size="14" lengthAdjust="spacing" textLength="29.5586" x="30" y="119.7285">User</text><ellipse cx="47.7793" cy="53.1211" fill="#E2E2F0" rx="8" ry="8" style="stroke:#181818;stroke-width:0.5;"/><path d="M47.7793,61.1211 L47.7793,88.1211 M34.7793,69.1211 L60.7793,69.1211 M47.7793,88.1211 L34.7793,103.1211 M47.7793,88.1211 L60.7793,103.1211 " fill="none" style="stroke:#181818;stroke-width:0.5;"/><text fill="#000000" font-family="sans-serif" font-size="14" lengthAdjust="spacing" textLength="29.5586" x="30" y="564.8125">User</text><ellipse cx="47.7793" cy="576.8262" fill="#E2E2F0" rx="8" ry="8" style="stroke:#181818;stroke-width:0.5;"/><path d="M47.7793,584.8262 L47.7793,611.8262 M34.7793,592.8262 L60.7793,592.8262 M47.7793,611.8262 L34.7793,626.8262 M47.7793,611.8262 L60.7793,626.8262 " fill="none" style="stroke:#181818;stroke-width:0.5;"/><rect fill="#E2E2F0" height="32.6211" rx="2.5" ry="2.5" style="stroke:#181818;stroke-width:0.5;" width="136.1582" x="232.6646" y="89.6211"/><text fill="#000000" font-family="sans-serif" font-size="14" lengthAdjust="spacing" textLength="122.1582" x="239.6646" y="111.7285">Controller:controller</text><rect fill="#E2E2F0" height="32.6211" rx="2.5" ry="2.5" style="stroke:#181818;stroke-width:0.5;" width="136.1582" x="232.6646" y="549.7051"/><text fill="#000000" font-family="sans-serif" font-size="14" lengthAdjust="spacing" textLength="122.1582" x="239.6646" y="571.8125">Controller:controller</text><rect fill="#E2E2F0" height="32.6211" rx="2.5" ry="2.5" style="stroke:#181818;stroke-width:0.5;" width="108.917" x="533.1631" y="89.6211"/><text fill="#000000" font-family="sans-serif" font-size="14" lengthAdjust="spacing" textLength="94.917" x="540.1631" y="111.7285">Service:service</text><rect fill="#E2E2F0" height="32.6211" rx="2.5" ry="2.5" style="stroke:#181818;stroke-width:0.5;" width="108.917" x="533.1631" y="549.7051"/><text fill="#000000" font-family="sans-serif" font-size="14" lengthAdjust="spacing" textLength="94.917" x="540.1631" y="571.8125">Service:service</text><rect fill="#FFFFFF" height="384.1719" style="stroke:#181818;stroke-width:1.0;" width="10" x="295.7437" y="156.5332"/><rect fill="#FFFFFF" height="181.0859" style="stroke:#181818;stroke-width:1.0;" width="10" x="582.6216" y="258.4063"/><polygon fill="#181818" points="283.7437,152.5332,293.7437,156.5332,283.7437,160.5332,287.7437,156.5332" style="stroke:#181818;stroke-width:1.0;"/><line style="stroke:#181818;stroke-width:1.0;" x1="47.7793" x2="289.7437" y1="156.5332" y2="156.5332"/><text fill="#000000" font-family="sans-serif" font-size="13" lengthAdjust="spacing" textLength="198.6816" x="54.7793" y="151.2705">Request Creation with Data (DTO)</text><line style="stroke:#181818;stroke-width:1.0;" x1="305.7437" x2="347.7437" y1="187.8242" y2="187.8242"/><line style="stroke:#181818;stroke-width:1.0;" x1="347.7437" x2="347.7437" y1="187.8242" y2="200.8242"/><line style="stroke:#181818;stroke-width:1.0;" x1="306.7437" x2="347.7437" y1="200.8242" y2="200.8242"/><polygon fill="#181818" points="316.7437,196.8242,306.7437,200.8242,316.7437,204.8242,312.7437,200.8242" style="stroke:#181818;stroke-width:1.0;"/><text fill="#000000" font-family="sans-serif" font-size="13" lengthAdjust="spacing" textLength="150.2871" x="312.7437" y="182.5615">Validate Input Data (DTO)</text><path d="M10,215.8242 L70.1709,215.8242 L70.1709,225.1152 L60.1709,235.1152 L10,235.1152 L10,215.8242 " fill="#EEEEEE" style="stroke:#000000;stroke-width:1.5;"/><rect fill="none" height="317.8809" style="stroke:#000000;stroke-width:1.5;" width="652.0801" x="10" y="215.8242"/><text fill="#000000" font-family="sans-serif" font-size="13" font-weight="bold" lengthAdjust="spacing" textLength="15.1709" x="25" y="230.8525">alt</text><text fill="#000000" font-family="sans-serif" font-size="11" font-weight="bold" lengthAdjust="spacing" textLength="63.5454" x="85.1709" y="229.6943">[Input Valid]</text><polygon fill="#181818" points="570.6216,254.4063,580.6216,258.4063,570.6216,262.4063,574.6216,258.4063" style="stroke:#181818;stroke-width:1.0;"/><line style="stroke:#181818;stroke-width:1.0;" x1="305.7437" x2="576.6216" y1="258.4063" y2="258.4063"/><text fill="#000000" font-family="sans-serif" font-size="13" lengthAdjust="spacing" textLength="72.979" x="312.7437" y="253.1436">Create(data)</text><path d="M20,273.4063 L80.1709,273.4063 L80.1709,282.6973 L70.1709,292.6973 L20,292.6973 L20,273.4063 " fill="#EEEEEE" style="stroke:#000000;stroke-width:1.5;"/><rect fill="none" height="205.377" style="stroke:#000000;stroke-width:1.5;" width="632.0801" x="20" y="273.4063"/><text fill="#000000" font-family="sans-serif" font-size="13" font-weight="bold" lengthAdjust="spacing" textLength="15.1709" x="35" y="288.4346">alt</text><text fill="#000000" font-family="sans-serif" font-size="11" font-weight="bold" lengthAdjust="spacing" textLength="117.9922" x="95.1709" y="287.2764">[Business Rules Pass]</text><polygon fill="#181818" points="316.7437,311.9883,306.7437,315.9883,316.7437,319.9883,312.7437,315.9883" style="stroke:#181818;stroke-width:1.0;"/><line style="stroke:#181818;stroke-width:1.0;stroke-dasharray:2.0,2.0;" x1="310.7437" x2="581.6216" y1="315.9883" y2="315.9883"/><text fill="#000000" font-family="sans-serif" font-size="13" lengthAdjust="spacing" textLength="252.8779" x="322.7437" y="310.7256">Creation Successful (Domain Model Object)</text><line style="stroke:#181818;stroke-width:1.0;" x1="305.7437" x2="347.7437" y1="347.2793" y2="347.2793"/><line style="stroke:#181818;stroke-width:1.0;" x1="347.7437" x2="347.7437" y1="347.2793" y2="360.2793"/><line style="stroke:#181818;stroke-width:1.0;" x1="306.7437" x2="347.7437" y1="360.2793" y2="360.2793"/><polygon fill="#181818" points="316.7437,356.2793,306.7437,360.2793,316.7437,364.2793,312.7437,360.2793" style="stroke:#181818;stroke-width:1.0;"/><text fill="#000000" font-family="sans-serif" font-size="13" lengthAdjust="spacing" textLength="158.2217" x="312.7437" y="342.0166">Map Domain Model to DTO</text><polygon fill="#181818" points="58.7793,387.5703,48.7793,391.5703,58.7793,395.5703,54.7793,391.5703" style="stroke:#181818;stroke-width:1.0;"/><line style="stroke:#181818;stroke-width:1.0;stroke-dasharray:2.0,2.0;" x1="52.7793" x2="294.7437" y1="391.5703" y2="391.5703"/><text fill="#000000" font-family="sans-serif" font-size="13" lengthAdjust="spacing" textLength="195.0635" x="64.7793" y="386.3076">Success Message (Created DTO)</text><line style="stroke:#000000;stroke-width:1.0;stroke-dasharray:2.0,2.0;" x1="20" x2="652.0801" y1="400.5703" y2="400.5703"/><text fill="#000000" font-family="sans-serif" font-size="11" font-weight="bold" lengthAdjust="spacing" textLength="111.2515" x="25" y="412.4404">[Business Rules Fail]</text><polygon fill="#181818" points="316.7437,435.4922,306.7437,439.4922,316.7437,443.4922,312.7437,439.4922" style="stroke:#181818;stroke-width:1.0;"/><line style="stroke:#181818;stroke-width:1.0;stroke-dasharray:2.0,2.0;" x1="310.7437" x2="586.6216" y1="439.4922" y2="439.4922"/><text fill="#000000" font-family="sans-serif" font-size="13" lengthAdjust="spacing" textLength="136.5762" x="322.7437" y="434.2295">Business Rule Violation</text><polygon fill="#181818" points="58.7793,466.7832,48.7793,470.7832,58.7793,474.7832,54.7793,470.7832" style="stroke:#181818;stroke-width:1.0;"/><line style="stroke:#181818;stroke-width:1.0;stroke-dasharray:2.0,2.0;" x1="52.7793" x2="294.7437" y1="470.7832" y2="470.7832"/><text fill="#000000" font-family="sans-serif" font-size="13" lengthAdjust="spacing" textLength="223.9644" x="64.7793" y="465.5205">Error Message (Business Rule Failure)</text><line style="stroke:#000000;stroke-width:1.0;stroke-dasharray:2.0,2.0;" x1="10" x2="662.0801" y1="486.7832" y2="486.7832"/><text fill="#000000" font-family="sans-serif" font-size="11" font-weight="bold" lengthAdjust="spacing" textLength="72.1016" x="15" y="498.6533">[Input Invalid]</text><polygon fill="#181818" points="58.7793,521.7051,48.7793,525.7051,58.7793,529.7051,54.7793,525.7051" style="stroke:#181818;stroke-width:1.0;"/><line style="stroke:#181818;stroke-width:1.0;stroke-dasharray:2.0,2.0;" x1="52.7793" x2="294.7437" y1="525.7051" y2="525.7051"/><text fill="#000000" font-family="sans-serif" font-size="13" lengthAdjust="spacing" textLength="167.6226" x="64.7793" y="520.4424">Error Message (Invalid Input)</text><!--SRC=[XPB1Ry8W5CRl_1KltQKzUDcnXoLJjyH4ez7DEzAdiZ3euD7jpn_GMgtJZ4DBu7qVtuy7IL884ukS45RM27GEyZasgE2nO8mBCXQoTuSs0-uWJXZRcH_8dkjQIS596ft1mrmUZZHM7Xc4KNDBKiYQQu9iOZHPenJQKlJJv7RU-QlQe6samDAr_rJVhJ7K5OGCZCKuC7gwC2fXZLyU7RLG8HnyIph2b1E7VFgsB2AJR2BlnV7dwRNTbYjPnUgPhZqDV1HrYwac8GnzJWpT1UV1XnUfhizmGagBmN3idTIn2MklqC6AEvVsukXgONGLiIVTU14RkFSgH3IVN6fOc2gqShdxG455xtGVTy5h64Z9GA2zgGpIs83oT2uimeSV4FAMju9qJr66ok4rsokNwb-sWGQsqgY4skigl7cLTwE-M1iUT1zqQ1yJUOjTP5sn5BljyKmtDxjypxchRzL5VBBi8klPuHS0]--></g></svg>