<svg xmlns="http://www.w3.org/2000/svg" xmlns:xlink="http://www.w3.org/1999/xlink" contentStyleType="text/css" height="736px" preserveAspectRatio="none" style="width:637px;height:736px;background:#FFFFFF;" version="1.1" viewBox="0 0 637 736" width="637px" zoomAndPan="magnify"><title>Delete Process (Level 2)</title><defs/><g><text fill="#000000" font-family="sans-serif" font-size="14" font-weight="bold" lengthAdjust="spacing" textLength="161.082" x="239.0029" y="30.1074">Delete Process (Level 2)</text><rect fill="#ADD8E6" height="685.209" style="stroke:#181818;stroke-width:0.5;" width="334.3501" x="220.5991" y="45.6211"/><text fill="#000000" font-family="sans-serif" font-size="13" font-weight="bold" lengthAdjust="spacing" textLength="70.7764" x="352.386" y="59.6494">Application</text><rect fill="#FFFFFF" height="482.6758" style="stroke:#181818;stroke-width:1.0;" width="10" x="287.6782" y="156.5332"/><rect fill="#FFFFFF" height="279.5898" style="stroke:#181818;stroke-width:1.0;" width="10" x="491.4907" y="258.4063"/><rect fill="none" height="416.3848" style="stroke:#000000;stroke-width:1.5;" width="620.0879" x="10" y="215.8242"/><rect fill="none" height="303.8809" style="stroke:#000000;stroke-width:1.5;" width="600.0879" x="20" y="273.4063"/><rect fill="none" height="129.7949" style="stroke:#000000;stroke-width:1.5;" width="530.9492" x="30" y="361.2793"/><line style="stroke:#181818;stroke-width:0.5;stroke-dasharray:5.0,5.0;" x1="57" x2="57" y1="123.2422" y2="649.209"/><line style="stroke:#181818;stroke-width:0.5;stroke-dasharray:5.0,5.0;" x1="292.5991" x2="292.5991" y1="123.2422" y2="649.209"/><line style="stroke:#181818;stroke-width:0.5;stroke-dasharray:5.0,5.0;" x1="496.0322" x2="496.0322" y1="123.2422" y2="649.209"/><text fill="#000000" font-family="sans-serif" font-size="14" lengthAdjust="spacing" textLength="29.5586" x="40" y="119.7285">User</text><ellipse cx="57.7793" cy="53.1211" fill="#E2E2F0" rx="8" ry="8" style="stroke:#181818;stroke-width:0.5;"/><path d="M57.7793,61.1211 L57.7793,88.1211 M44.7793,69.1211 L70.7793,69.1211 M57.7793,88.1211 L44.7793,103.1211 M57.7793,88.1211 L70.7793,103.1211 " fill="none" style="stroke:#181818;stroke-width:0.5;"/><text fill="#000000" font-family="sans-serif" font-size="14" lengthAdjust="spacing" textLength="29.5586" x="40" y="663.3164">User</text><ellipse cx="57.7793" cy="675.3301" fill="#E2E2F0" rx="8" ry="8" style="stroke:#181818;stroke-width:0.5;"/><path d="M57.7793,683.3301 L57.7793,710.3301 M44.7793,691.3301 L70.7793,691.3301 M57.7793,710.3301 L44.7793,725.3301 M57.7793,710.3301 L70.7793,725.3301 " fill="none" style="stroke:#181818;stroke-width:0.5;"/><rect fill="#E2E2F0" height="32.6211" rx="2.5" ry="2.5" style="stroke:#181818;stroke-width:0.5;" width="136.1582" x="224.5991" y="89.6211"/><text fill="#000000" font-family="sans-serif" font-size="14" lengthAdjust="spacing" textLength="122.1582" x="231.5991" y="111.7285">Controller:controller</text><rect fill="#E2E2F0" height="32.6211" rx="2.5" ry="2.5" style="stroke:#181818;stroke-width:0.5;" width="136.1582" x="224.5991" y="648.209"/><text fill="#000000" font-family="sans-serif" font-size="14" lengthAdjust="spacing" textLength="122.1582" x="231.5991" y="670.3164">Controller:controller</text><rect fill="#E2E2F0" height="32.6211" rx="2.5" ry="2.5" style="stroke:#181818;stroke-width:0.5;" width="108.917" x="442.0322" y="89.6211"/><text fill="#000000" font-family="sans-serif" font-size="14" lengthAdjust="spacing" textLength="94.917" x="449.0322" y="111.7285">Service:service</text><rect fill="#E2E2F0" height="32.6211" rx="2.5" ry="2.5" style="stroke:#181818;stroke-width:0.5;" width="108.917" x="442.0322" y="648.209"/><text fill="#000000" font-family="sans-serif" font-size="14" lengthAdjust="spacing" textLength="94.917" x="449.0322" y="670.3164">Service:service</text><rect fill="#FFFFFF" height="482.6758" style="stroke:#181818;stroke-width:1.0;" width="10" x="287.6782" y="156.5332"/><rect fill="#FFFFFF" height="279.5898" style="stroke:#181818;stroke-width:1.0;" width="10" x="491.4907" y="258.4063"/><polygon fill="#181818" points="275.6782,152.5332,285.6782,156.5332,275.6782,160.5332,279.6782,156.5332" style="stroke:#181818;stroke-width:1.0;"/><line style="stroke:#181818;stroke-width:1.0;" x1="57.7793" x2="281.6782" y1="156.5332" y2="156.5332"/><text fill="#000000" font-family="sans-serif" font-size="13" lengthAdjust="spacing" textLength="124.998" x="64.7793" y="151.2705">Request Deletion (ID)</text><line style="stroke:#181818;stroke-width:1.0;" x1="297.6782" x2="339.6782" y1="187.8242" y2="187.8242"/><line style="stroke:#181818;stroke-width:1.0;" x1="339.6782" x2="339.6782" y1="187.8242" y2="200.8242"/><line style="stroke:#181818;stroke-width:1.0;" x1="298.6782" x2="339.6782" y1="200.8242" y2="200.8242"/><polygon fill="#181818" points="308.6782,196.8242,298.6782,200.8242,308.6782,204.8242,304.6782,200.8242" style="stroke:#181818;stroke-width:1.0;"/><text fill="#000000" font-family="sans-serif" font-size="13" lengthAdjust="spacing" textLength="169.8125" x="304.6782" y="182.5615">Validate Request Parameters</text><path d="M10,215.8242 L70.1709,215.8242 L70.1709,225.1152 L60.1709,235.1152 L10,235.1152 L10,215.8242 " fill="#EEEEEE" style="stroke:#000000;stroke-width:1.5;"/><rect fill="none" height="416.3848" style="stroke:#000000;stroke-width:1.5;" width="620.0879" x="10" y="215.8242"/><text fill="#000000" font-family="sans-serif" font-size="13" font-weight="bold" lengthAdjust="spacing" textLength="15.1709" x="25" y="230.8525">alt</text><text fill="#000000" font-family="sans-serif" font-size="11" font-weight="bold" lengthAdjust="spacing" textLength="96.5991" x="85.1709" y="229.6943">[Parameters Valid]</text><polygon fill="#181818" points="479.4907,254.4063,489.4907,258.4063,479.4907,262.4063,483.4907,258.4063" style="stroke:#181818;stroke-width:1.0;"/><line style="stroke:#181818;stroke-width:1.0;" x1="297.6782" x2="485.4907" y1="258.4063" y2="258.4063"/><text fill="#000000" font-family="sans-serif" font-size="13" lengthAdjust="spacing" textLength="59.2363" x="304.6782" y="253.1436">Delete(ID)</text><path d="M20,273.4063 L80.1709,273.4063 L80.1709,282.6973 L70.1709,292.6973 L20,292.6973 L20,273.4063 " fill="#EEEEEE" style="stroke:#000000;stroke-width:1.5;"/><rect fill="none" height="303.8809" style="stroke:#000000;stroke-width:1.5;" width="600.0879" x="20" y="273.4063"/><text fill="#000000" font-family="sans-serif" font-size="13" font-weight="bold" lengthAdjust="spacing" textLength="15.1709" x="35" y="288.4346">alt</text><text fill="#000000" font-family="sans-serif" font-size="11" font-weight="bold" lengthAdjust="spacing" textLength="77.0215" x="95.1709" y="287.2764">[Object Exists]</text><line style="stroke:#181818;stroke-width:1.0;" x1="501.4907" x2="543.4907" y1="333.2793" y2="333.2793"/><line style="stroke:#181818;stroke-width:1.0;" x1="543.4907" x2="543.4907" y1="333.2793" y2="346.2793"/><line style="stroke:#181818;stroke-width:1.0;" x1="502.4907" x2="543.4907" y1="346.2793" y2="346.2793"/><polygon fill="#181818" points="512.4907,342.2793,502.4907,346.2793,512.4907,350.2793,508.4907,346.2793" style="stroke:#181818;stroke-width:1.0;"/><text fill="#000000" font-family="sans-serif" font-size="13" lengthAdjust="spacing" textLength="83.8271" x="508.4907" y="310.7256">Apply Deletion</text><text fill="#000000" font-family="sans-serif" font-size="13" lengthAdjust="spacing" textLength="89.5972" x="508.4907" y="328.0166">Business Rules</text><path d="M30,361.2793 L90.1709,361.2793 L90.1709,370.5703 L80.1709,380.5703 L30,380.5703 L30,361.2793 " fill="#EEEEEE" style="stroke:#000000;stroke-width:1.5;"/><rect fill="none" height="129.7949" style="stroke:#000000;stroke-width:1.5;" width="530.9492" x="30" y="361.2793"/><text fill="#000000" font-family="sans-serif" font-size="13" font-weight="bold" lengthAdjust="spacing" textLength="15.1709" x="45" y="376.3076">alt</text><text fill="#000000" font-family="sans-serif" font-size="11" font-weight="bold" lengthAdjust="spacing" textLength="112.4761" x="105.1709" y="375.1494">[Deletion Rules Pass]</text><polygon fill="#181818" points="68.7793,399.8613,58.7793,403.8613,68.7793,407.8613,64.7793,403.8613" style="stroke:#181818;stroke-width:1.0;"/><line style="stroke:#181818;stroke-width:1.0;stroke-dasharray:2.0,2.0;" x1="62.7793" x2="286.6782" y1="403.8613" y2="403.8613"/><text fill="#000000" font-family="sans-serif" font-size="13" lengthAdjust="spacing" textLength="105.4917" x="74.7793" y="398.5986">Success Message</text><line style="stroke:#000000;stroke-width:1.0;stroke-dasharray:2.0,2.0;" x1="30" x2="560.9492" y1="412.8613" y2="412.8613"/><text fill="#000000" font-family="sans-serif" font-size="11" font-weight="bold" lengthAdjust="spacing" textLength="105.7354" x="35" y="424.7314">[Deletion Rules Fail]</text><polygon fill="#181818" points="308.6782,447.7832,298.6782,451.7832,308.6782,455.7832,304.6782,451.7832" style="stroke:#181818;stroke-width:1.0;"/><line style="stroke:#181818;stroke-width:1.0;stroke-dasharray:2.0,2.0;" x1="302.6782" x2="490.4907" y1="451.7832" y2="451.7832"/><text fill="#000000" font-family="sans-serif" font-size="13" lengthAdjust="spacing" textLength="131.5234" x="314.6782" y="446.5205">Deletion Rule Violation</text><polygon fill="#181818" points="68.7793,479.0742,58.7793,483.0742,68.7793,487.0742,64.7793,483.0742" style="stroke:#181818;stroke-width:1.0;"/><line style="stroke:#181818;stroke-width:1.0;stroke-dasharray:2.0,2.0;" x1="62.7793" x2="286.6782" y1="483.0742" y2="483.0742"/><text fill="#000000" font-family="sans-serif" font-size="13" lengthAdjust="spacing" textLength="180.6289" x="74.7793" y="477.8115">Error Message (Cannot Delete)</text><line style="stroke:#000000;stroke-width:1.0;stroke-dasharray:2.0,2.0;" x1="20" x2="620.0879" y1="499.0742" y2="499.0742"/><text fill="#000000" font-family="sans-serif" font-size="11" font-weight="bold" lengthAdjust="spacing" textLength="122.2407" x="25" y="510.9443">[Object Does Not Exist]</text><polygon fill="#181818" points="308.6782,533.9961,298.6782,537.9961,308.6782,541.9961,304.6782,537.9961" style="stroke:#181818;stroke-width:1.0;"/><line style="stroke:#181818;stroke-width:1.0;stroke-dasharray:2.0,2.0;" x1="302.6782" x2="495.4907" y1="537.9961" y2="537.9961"/><text fill="#000000" font-family="sans-serif" font-size="13" lengthAdjust="spacing" textLength="101.8862" x="314.6782" y="532.7334">Object Not Found</text><polygon fill="#181818" points="68.7793,565.2871,58.7793,569.2871,68.7793,573.2871,64.7793,569.2871" style="stroke:#181818;stroke-width:1.0;"/><line style="stroke:#181818;stroke-width:1.0;stroke-dasharray:2.0,2.0;" x1="62.7793" x2="286.6782" y1="569.2871" y2="569.2871"/><text fill="#000000" font-family="sans-serif" font-size="13" lengthAdjust="spacing" textLength="199.4053" x="74.7793" y="564.0244">Error Message (Object Not Found)</text><line style="stroke:#000000;stroke-width:1.0;stroke-dasharray:2.0,2.0;" x1="10" x2="630.0879" y1="585.2871" y2="585.2871"/><text fill="#000000" font-family="sans-serif" font-size="11" font-weight="bold" lengthAdjust="spacing" textLength="105.1553" x="15" y="597.1572">[Parameters Invalid]</text><polygon fill="#181818" points="68.7793,620.209,58.7793,624.209,68.7793,628.209,64.7793,624.209" style="stroke:#181818;stroke-width:1.0;"/><line style="stroke:#181818;stroke-width:1.0;stroke-dasharray:2.0,2.0;" x1="62.7793" x2="286.6782" y1="624.209" y2="624.209"/><text fill="#000000" font-family="sans-serif" font-size="13" lengthAdjust="spacing" textLength="205.8989" x="74.7793" y="618.9463">Error Message (Invalid Parameters)</text><!--SRC=[ZPCzJyCm48Pt_ufJM9g1XJ434csfLAb0rOfEBAvxAaR63hOJbN-Fpt7pHL7na3ZstUldNb-yz0fXZWezmjeQWSx1P8KrAhZB6UF26mlPgqER0NT04yRsvWJPGragARYNHcTmivB7TpzL5J88e-JMIo5BhZraCwEzDKgXBKGxZMhTpk-iBTfQ2YnSyuxnQOsXFa1WO8mH3zpUzvGAsE1NXSutLGKwc2pdELKYQnwgx1tQJSSQEwxaWQBFOcjk-MSmoJh6LV-p2OtyGxbp0SdT245HBSYvchWOD5_s7oWyF9wayowkqaXH0qMo_hkjxqrFAoSrtTocKjYbacXhGjmAtAxR7pE78yZF0hQLY8tm51xyY6q2AeTZnGMNQg3O0eyi7UJ1JXeLU-SwpQEreGSJ2qncN6kJ2iEyOzFD9KJ6PENS1C1dapnbrmXJ5YKiJ9NqQ1pmugNzbtYisq0JS8JjzT9IrnUxwI_b5D-JoEddO3tWJkO7]--></g></svg>