<?xml version="1.0" encoding="UTF-8" standalone="no"?>
<!DOCTYPE svg PUBLIC "-//W3C//DTD SVG 1.1//EN"
 "http://www.w3.org/Graphics/SVG/1.1/DTD/svg11.dtd">
<!-- Generated by graphviz version 14.1.5 (20260411.2331)
 -->
<!-- Title: tm Pages: 1 -->
<svg width="981pt" height="935pt"
 viewBox="0.00 0.00 981.00 935.00" xmlns="http://www.w3.org/2000/svg" xmlns:xlink="http://www.w3.org/1999/xlink">
<g id="graph0" class="graph" transform="scale(1 1) rotate(0) translate(4 930.69)">
<title>tm</title>
<polygon fill="white" stroke="none" points="-4,4 -4,-930.69 977,-930.69 977,4 -4,4"/>
<g id="clust1" class="cluster">
<title>cluster_boundary_TBBackEnd_579e9aae81</title>
<polygon fill="none" stroke="#ee2c2c" stroke-dasharray="5,2" points="8,-166.88 8,-918.69 557,-918.69 557,-166.88 8,-166.88"/>
<text xml:space="preserve" text-anchor="start" x="249.12" y="-906.19" font-family="Arial" font-style="italic" font-size="10.00">TB3: Back&#45;End</text>
</g>
<g id="clust2" class="cluster">
<title>cluster_boundary_TBDatabase_f2eb7a3ff7</title>
<polygon fill="none" stroke="#ee2c2c" stroke-dasharray="5,2" points="89,-621.26 89,-693.26 285,-693.26 285,-621.26 89,-621.26"/>
<text xml:space="preserve" text-anchor="start" x="154" y="-680.76" font-family="Arial" font-style="italic" font-size="10.00">TB4: Database</text>
</g>
<g id="clust3" class="cluster">
<title>cluster_boundary_TBInternet_acf3059e70</title>
<polygon fill="none" stroke="#ee2c2c" stroke-dasharray="5,2" points="759,-8 759,-106.13 837,-106.13 837,-8 759,-8"/>
<text xml:space="preserve" text-anchor="start" x="769.5" y="-93.63" font-family="Arial" font-style="italic" font-size="10.00">TB1: Internet</text>
</g>
<g id="clust4" class="cluster">
<title>cluster_boundary_TBExternalSystems_88f2d9c06f</title>
<polygon fill="none" stroke="#ee2c2c" stroke-dasharray="5,2" points="614,-384.41 614,-535.04 744,-535.04 744,-384.41 614,-384.41"/>
<text xml:space="preserve" text-anchor="start" x="625.38" y="-522.54" font-family="Arial" font-style="italic" font-size="10.00">TB2: External\nSystems</text>
</g>
<!-- datastore_SalesStore_86e4604564 -->
<g id="node1" class="node">
<title>datastore_SalesStore_86e4604564</title>
<image xlink:href="C:\Users\afons\AppData\Local\Packages\PythonSoftwareFoundation.Python.3.13_qbz5n2kfra8p0\LocalCache\local-packages\Python313\site-packages\pytm\images\datastore_black.png" width="49.6px" height="36px" preserveAspectRatio="xMinYMin meet" x="99.2" y="-665.258"/>
<text xml:space="preserve" text-anchor="middle" x="62.12" y="-667.71" font-family="Arial" font-size="14.00">Sales Store</text>
</g>
<!-- process_FinalizeImmutableSale_9345ab4c19 -->
<g id="node7" class="node">
<title>process_FinalizeImmutableSale_9345ab4c19</title>
<ellipse fill="none" stroke="black" cx="119" cy="-244.27" rx="69.39" ry="69.39"/>
<text xml:space="preserve" text-anchor="middle" x="119" y="-246.72" font-family="Arial" font-size="14.00">3.4 Finalize</text>
<text xml:space="preserve" text-anchor="middle" x="119" y="-230.97" font-family="Arial" font-size="14.00">Immutable Sale</text>
</g>
<!-- datastore_SalesStore_86e4604564&#45;&gt;process_FinalizeImmutableSale_9345ab4c19 -->
<g id="edge12" class="edge">
<title>datastore_SalesStore_86e4604564&#45;&gt;process_FinalizeImmutableSale_9345ab4c19</title>
<path fill="none" stroke="black" d="M136.67,-629.28C151.41,-608.38 174.87,-571.2 184,-535.04 200.39,-470.13 226.54,-436.1 184,-384.41 169.32,-366.57 148.62,-391.42 133,-374.41 120.62,-360.92 114.69,-343.01 112.35,-324.83"/>
<polygon fill="black" stroke="black" points="115.85,-324.67 111.47,-315.02 108.88,-325.3 115.85,-324.67"/>
<text xml:space="preserve" text-anchor="middle" x="238.97" y="-452.57" font-family="Arial" font-size="12.00">(12) Sale ID</text>
<text xml:space="preserve" text-anchor="middle" x="238.97" y="-438.32" font-family="Arial" font-size="12.00">Generated</text>
</g>
<!-- datastore_ProductStore_b2e5892d06 -->
<g id="node2" class="node">
<title>datastore_ProductStore_b2e5892d06</title>
<image xlink:href="C:\Users\afons\AppData\Local\Packages\PythonSoftwareFoundation.Python.3.13_qbz5n2kfra8p0\LocalCache\local-packages\Python313\site-packages\pytm\images\datastore_black.png" width="49.6px" height="36px" preserveAspectRatio="xMinYMin meet" x="225.2" y="-665.258"/>
<text xml:space="preserve" text-anchor="middle" x="181.75" y="-615.96" font-family="Arial" font-size="14.00">Product Store</text>
</g>
<!-- process_RequestValidation_0291419f72 -->
<g id="node4" class="node">
<title>process_RequestValidation_0291419f72</title>
<ellipse fill="none" stroke="black" cx="369" cy="-837.21" rx="53.48" ry="53.48"/>
<text xml:space="preserve" text-anchor="middle" x="369" y="-839.66" font-family="Arial" font-size="14.00">3.1 Request</text>
<text xml:space="preserve" text-anchor="middle" x="369" y="-823.91" font-family="Arial" font-size="14.00">Validation</text>
</g>
<!-- datastore_ProductStore_b2e5892d06&#45;&gt;process_RequestValidation_0291419f72 -->
<g id="edge3" class="edge">
<title>datastore_ProductStore_b2e5892d06&#45;&gt;process_RequestValidation_0291419f72</title>
<path fill="none" stroke="black" d="M228.38,-665.18C201.2,-688.55 160.78,-731.66 184.25,-765.73 211.1,-804.7 262.61,-822.14 304.43,-829.93"/>
<polygon fill="black" stroke="black" points="303.73,-833.36 314.17,-831.59 304.9,-826.46 303.73,-833.36"/>
<text xml:space="preserve" text-anchor="middle" x="222.12" y="-747.2" font-family="Arial" font-size="12.00">(3) Product</text>
<text xml:space="preserve" text-anchor="middle" x="222.12" y="-732.95" font-family="Arial" font-size="12.00">Details (Price)</text>
</g>
<!-- process_InventoryManagement_2c440ebe53 -->
<g id="node3" class="node">
<title>process_InventoryManagement_2c440ebe53</title>
<ellipse fill="none" stroke="black" cx="407" cy="-244.27" rx="58.78" ry="58.78"/>
<text xml:space="preserve" text-anchor="middle" x="407" y="-246.72" font-family="Arial" font-size="14.00">2.0 Inventory</text>
<text xml:space="preserve" text-anchor="middle" x="407" y="-230.97" font-family="Arial" font-size="14.00">Management</text>
</g>
<!-- process_StockDecrement_c6f87088c2 -->
<g id="node6" class="node">
<title>process_StockDecrement_c6f87088c2</title>
<ellipse fill="none" stroke="black" cx="500" cy="-449.72" rx="49.24" ry="49.24"/>
<text xml:space="preserve" text-anchor="middle" x="500" y="-452.17" font-family="Arial" font-size="14.00">3.3 Stock</text>
<text xml:space="preserve" text-anchor="middle" x="500" y="-436.42" font-family="Arial" font-size="14.00">Decrement</text>
</g>
<!-- process_InventoryManagement_2c440ebe53&#45;&gt;process_StockDecrement_c6f87088c2 -->
<g id="edge9" class="edge">
<title>process_InventoryManagement_2c440ebe53&#45;&gt;process_StockDecrement_c6f87088c2</title>
<path fill="none" stroke="black" d="M431.21,-298.23C444.69,-327.72 461.44,-364.36 475.04,-394.11"/>
<polygon fill="black" stroke="black" points="471.74,-395.31 479.08,-402.95 478.1,-392.4 471.74,-395.31"/>
<text xml:space="preserve" text-anchor="middle" x="493.81" y="-363.01" font-family="Arial" font-size="12.00">(9) Stock</text>
<text xml:space="preserve" text-anchor="middle" x="493.81" y="-348.76" font-family="Arial" font-size="12.00">Decrement</text>
<text xml:space="preserve" text-anchor="middle" x="493.81" y="-334.51" font-family="Arial" font-size="12.00">Confirmed</text>
</g>
<!-- process_RequestValidation_0291419f72&#45;&gt;datastore_ProductStore_b2e5892d06 -->
<g id="edge2" class="edge">
<title>process_RequestValidation_0291419f72&#45;&gt;datastore_ProductStore_b2e5892d06</title>
<path fill="none" stroke="black" d="M329.34,-801.24C318.73,-790.56 307.9,-778.31 299.5,-765.73 280.62,-737.44 266.57,-700.79 258.35,-676.01"/>
<polygon fill="black" stroke="black" points="261.74,-675.1 255.36,-666.65 255.07,-677.24 261.74,-675.1"/>
<text xml:space="preserve" text-anchor="middle" x="345.25" y="-747.2" font-family="Arial" font-size="12.00">(2) Fetch Product</text>
<text xml:space="preserve" text-anchor="middle" x="345.25" y="-732.95" font-family="Arial" font-size="12.00">Price &amp; Status</text>
</g>
<!-- process_PaymentAuthorization_c76a0a7067 -->
<g id="node5" class="node">
<title>process_PaymentAuthorization_c76a0a7067</title>
<ellipse fill="none" stroke="black" cx="473" cy="-647.26" rx="57.72" ry="57.72"/>
<text xml:space="preserve" text-anchor="middle" x="473" y="-649.71" font-family="Arial" font-size="14.00">3.2 Payment</text>
<text xml:space="preserve" text-anchor="middle" x="473" y="-633.96" font-family="Arial" font-size="14.00">Authorization</text>
</g>
<!-- process_RequestValidation_0291419f72&#45;&gt;process_PaymentAuthorization_c76a0a7067 -->
<g id="edge4" class="edge">
<title>process_RequestValidation_0291419f72&#45;&gt;process_PaymentAuthorization_c76a0a7067</title>
<path fill="none" stroke="black" d="M394.71,-789.75C408.36,-765.07 425.3,-734.46 439.92,-708.04"/>
<polygon fill="black" stroke="black" points="442.89,-709.9 444.67,-699.46 436.77,-706.51 442.89,-709.9"/>
<text xml:space="preserve" text-anchor="middle" x="477.57" y="-754.33" font-family="Arial" font-size="12.00">(4) Validated Sale</text>
<text xml:space="preserve" text-anchor="middle" x="477.57" y="-740.08" font-family="Arial" font-size="12.00">Context (Amount,</text>
<text xml:space="preserve" text-anchor="middle" x="477.57" y="-725.83" font-family="Arial" font-size="12.00">Payment Details)</text>
</g>
<!-- process_PaymentAuthorization_c76a0a7067&#45;&gt;process_StockDecrement_c6f87088c2 -->
<g id="edge7" class="edge">
<title>process_PaymentAuthorization_c76a0a7067&#45;&gt;process_StockDecrement_c6f87088c2</title>
<path fill="none" stroke="black" d="M423.59,-617.05C397.86,-597.78 374.27,-571.01 387.5,-543.04 387.74,-542.53 422.62,-513.94 453.47,-488.72"/>
<polygon fill="black" stroke="black" points="455.33,-491.72 460.86,-482.68 450.9,-486.3 455.33,-491.72"/>
<text xml:space="preserve" text-anchor="middle" x="430.25" y="-560.14" font-family="Arial" font-size="12.00">(7) Payment</text>
<text xml:space="preserve" text-anchor="middle" x="430.25" y="-545.89" font-family="Arial" font-size="12.00">Complete Event</text>
</g>
<!-- externalentity_PaymentGateway_f8af758679 -->
<g id="node9" class="node">
<title>externalentity_PaymentGateway_f8af758679</title>
<polygon fill="none" stroke="black" points="736.32,-507.04 621.68,-507.04 621.68,-392.41 736.32,-392.41 736.32,-507.04"/>
<text xml:space="preserve" text-anchor="middle" x="679" y="-444.3" font-family="Arial" font-size="14.00">Payment Gateway</text>
</g>
<!-- process_PaymentAuthorization_c76a0a7067&#45;&gt;externalentity_PaymentGateway_f8af758679 -->
<g id="edge5" class="edge">
<title>process_PaymentAuthorization_c76a0a7067&#45;&gt;externalentity_PaymentGateway_f8af758679</title>
<path fill="none" stroke="black" d="M500.92,-596.45C513.73,-577.43 530.44,-557 550,-543.04 559.5,-536.26 564.74,-540.58 575,-535.04 587.71,-528.17 600.38,-519.66 612.28,-510.72"/>
<polygon fill="black" stroke="black" points="614.24,-513.63 620.02,-504.75 609.96,-508.09 614.24,-513.63"/>
<text xml:space="preserve" text-anchor="middle" x="602.5" y="-553.01" font-family="Arial" font-size="12.00">(5) Charge Request</text>
</g>
<!-- process_StockDecrement_c6f87088c2&#45;&gt;process_InventoryManagement_2c440ebe53 -->
<g id="edge8" class="edge">
<title>process_StockDecrement_c6f87088c2&#45;&gt;process_InventoryManagement_2c440ebe53</title>
<path fill="none" stroke="black" d="M461.5,-418.98C442.99,-406.22 419.88,-392.43 397,-384.41 378.95,-378.08 324.22,-388.7 311.5,-374.41 285.81,-345.53 315.93,-310.07 348.97,-283.61"/>
<polygon fill="black" stroke="black" points="350.88,-286.55 356.66,-277.67 346.6,-281.02 350.88,-286.55"/>
<text xml:space="preserve" text-anchor="middle" x="355.75" y="-355.88" font-family="Arial" font-size="12.00">(8) Decrement</text>
<text xml:space="preserve" text-anchor="middle" x="355.75" y="-341.63" font-family="Arial" font-size="12.00">Stock Command</text>
</g>
<!-- process_StockDecrement_c6f87088c2&#45;&gt;process_FinalizeImmutableSale_9345ab4c19 -->
<g id="edge10" class="edge">
<title>process_StockDecrement_c6f87088c2&#45;&gt;process_FinalizeImmutableSale_9345ab4c19</title>
<path fill="none" stroke="black" d="M461.74,-418.27C443.27,-405.36 420.14,-391.64 397,-384.41 374.89,-377.49 208.36,-386.75 188.75,-374.41 169.01,-361.98 154.47,-341.94 143.94,-321.31"/>
<polygon fill="black" stroke="black" points="147.21,-320.04 139.74,-312.53 140.9,-323.06 147.21,-320.04"/>
<text xml:space="preserve" text-anchor="middle" x="236.38" y="-355.88" font-family="Arial" font-size="12.00">(10) Execute Sale</text>
<text xml:space="preserve" text-anchor="middle" x="236.38" y="-341.63" font-family="Arial" font-size="12.00">Record</text>
</g>
<!-- process_FinalizeImmutableSale_9345ab4c19&#45;&gt;datastore_SalesStore_86e4604564 -->
<g id="edge11" class="edge">
<title>process_FinalizeImmutableSale_9345ab4c19&#45;&gt;datastore_SalesStore_86e4604564</title>
<path fill="none" stroke="black" d="M82.3,-303.62C78.06,-312.71 74.4,-322.23 72,-331.66 45.37,-436.31 89.51,-564.13 112.04,-619.06"/>
<polygon fill="black" stroke="black" points="108.67,-620.08 115.77,-627.94 115.12,-617.37 108.67,-620.08"/>
<text xml:space="preserve" text-anchor="middle" x="124.23" y="-459.7" font-family="Arial" font-size="12.00">(11) Insert</text>
<text xml:space="preserve" text-anchor="middle" x="124.23" y="-445.45" font-family="Arial" font-size="12.00">Immutable Sale</text>
<text xml:space="preserve" text-anchor="middle" x="124.23" y="-431.2" font-family="Arial" font-size="12.00">Record</text>
</g>
<!-- actor_Customer_d2006ce1bb -->
<g id="node8" class="node">
<title>actor_Customer_d2006ce1bb</title>
<polygon fill="none" stroke="black" points="829.07,-78.13 766.93,-78.13 766.93,-16 829.07,-16 829.07,-78.13"/>
<text xml:space="preserve" text-anchor="middle" x="798" y="-41.64" font-family="Arial" font-size="14.00">Customer</text>
</g>
<!-- process_FinalizeImmutableSale_9345ab4c19&#45;&gt;actor_Customer_d2006ce1bb -->
<g id="edge13" class="edge">
<title>process_FinalizeImmutableSale_9345ab4c19&#45;&gt;actor_Customer_d2006ce1bb</title>
<path fill="none" stroke="black" d="M182.54,-215.57C219.8,-199.97 268.05,-180.88 312,-166.88 473.06,-115.59 670.08,-73.62 755.33,-56.44"/>
<polygon fill="black" stroke="black" points="756,-59.87 765.12,-54.48 754.63,-53.01 756,-59.87"/>
<text xml:space="preserve" text-anchor="middle" x="551.98" y="-145.48" font-family="Arial" font-size="12.00">(13) Digital</text>
<text xml:space="preserve" text-anchor="middle" x="551.98" y="-131.23" font-family="Arial" font-size="12.00">Receipt / Vending</text>
<text xml:space="preserve" text-anchor="middle" x="551.98" y="-116.98" font-family="Arial" font-size="12.00">Dispense Command</text>
</g>
<!-- actor_Customer_d2006ce1bb&#45;&gt;process_RequestValidation_0291419f72 -->
<g id="edge1" class="edge">
<title>actor_Customer_d2006ce1bb&#45;&gt;process_RequestValidation_0291419f72</title>
<path fill="none" stroke="black" d="M819.76,-78.52C844.05,-115.59 880,-180.96 880,-243.27 880,-648.26 880,-648.26 880,-648.26 880,-742.5 570,-803.96 432.9,-826.53"/>
<polygon fill="black" stroke="black" points="432.56,-823.04 423.26,-828.09 433.69,-829.94 432.56,-823.04"/>
<text xml:space="preserve" text-anchor="middle" x="926.5" y="-466.82" font-family="Arial" font-size="12.00">(1) Purchase</text>
<text xml:space="preserve" text-anchor="middle" x="926.5" y="-452.57" font-family="Arial" font-size="12.00">Request (Product</text>
<text xml:space="preserve" text-anchor="middle" x="926.5" y="-438.32" font-family="Arial" font-size="12.00">ID, Payment</text>
<text xml:space="preserve" text-anchor="middle" x="926.5" y="-424.07" font-family="Arial" font-size="12.00">Details)</text>
</g>
<!-- externalentity_PaymentGateway_f8af758679&#45;&gt;process_PaymentAuthorization_c76a0a7067 -->
<g id="edge6" class="edge">
<title>externalentity_PaymentGateway_f8af758679&#45;&gt;process_PaymentAuthorization_c76a0a7067</title>
<path fill="none" stroke="black" d="M686.53,-507.26C686.54,-529.25 682.59,-553.45 669,-571.54 639.11,-611.3 585.31,-629.91 541.62,-638.61"/>
<polygon fill="black" stroke="black" points="541.16,-635.14 531.96,-640.39 542.43,-642.02 541.16,-635.14"/>
<text xml:space="preserve" text-anchor="middle" x="724.74" y="-560.14" font-family="Arial" font-size="12.00">(6) Payment</text>
<text xml:space="preserve" text-anchor="middle" x="724.74" y="-545.89" font-family="Arial" font-size="12.00">Success/Failure</text>
</g>
</g>
</svg>
